M48
; DRILL file {KiCad (5.1.12-1-10_14)} date Friday, December 17, 2021 at 12:39:08 PM
; FORMAT={-:-/ absolute / metric / decimal}
; #@! TF.CreationDate,2021-12-17T12:39:08+00:00
; #@! TF.GenerationSoftware,Kicad,Pcbnew,(5.1.12-1-10_14)
; #@! TF.FileFunction,Plated,1,2,PTH
FMAT,2
METRIC
T1C0.300
T2C0.400
T3C0.500
T4C0.813
T5C1.000
T6C1.300
T7C1.500
T8C2.200
%
G90
G05
T1
X85.432Y-101.255
X85.56Y-63.903
X85.6Y-44.813
X85.7Y-82.223
X86.706Y-128.411
X87.291Y-86.255
X89.403Y-50.932
X90.141Y-87.455
X94.59Y-83.603
X94.691Y-32.605
X94.891Y-90.305
X94.891Y-71.255
X94.896Y-52.25
X94.91Y-44.793
X94.948Y-101.255
X94.97Y-63.873
X95.278Y-104.877
X95.476Y-135.415
X96.081Y-101.455
X96.35Y-43.353
X96.591Y-70.755
X97.474Y-121.114
X99.091Y-54.154
X100.091Y-54.155
X103.691Y-71.255
X104.052Y-131.515
X104.492Y-82.205
X104.61Y-102.673
X104.64Y-63.883
X104.77Y-44.813
X105.688Y-133.314
X105.75Y-60.913
X106.231Y-98.765
X106.241Y-79.755
X108.491Y-75.055
X108.791Y-50.555
X109.651Y-89.555
X109.741Y-70.505
X110.891Y-85.035
X111.841Y-47.102
X113.608Y-63.155
X113.62Y-83.603
X113.82Y-44.813
X113.835Y-65.318
X113.841Y-32.605
X114.096Y-52.25
X114.128Y-102.655
X114.791Y-70.505
X114.791Y-89.905
X116.691Y-89.005
X117.432Y-103.998
X119.982Y-105.555
X122.024Y-66.324
X122.285Y-105.049
X123.411Y-87.15
X124.015Y-98.638
X124.545Y-67.908
X124.873Y-79.576
X124.988Y-105.301
X125.719Y-60.575
X127.821Y-39.791
X128.902Y-111.863
X131.07Y-47.534
X133.292Y-99.124
X133.984Y-87.479
X134.3Y-80.07
X134.773Y-68.489
X135.168Y-61.059
X135.93Y-49.473
X136.056Y-41.324
X136.31Y-103.438
X136.569Y-104.398
X136.765Y-59.236
X136.896Y-30.002
X138.369Y-40.093
X138.484Y-110.355
X139.245Y-101.724
X139.857Y-108.15
X140.32Y-53.038
X140.749Y-104.456
X140.784Y-83.83
X141.444Y-111.746
X141.564Y-56.533
X142.521Y-59.287
X142.608Y-85.327
X143.178Y-96.397
X143.802Y-66.364
X144.007Y-78.106
X144.557Y-47.177
X145.244Y-59.074
X145.901Y-40.718
X146.656Y-55.849
X148.033Y-88.816
X149.194Y-121.34
X150.191Y-99.389
X150.885Y-109.704
X151.137Y-81.168
X152.282Y-96.849
X153.038Y-85.974
X153.148Y-42.807
X153.424Y-78.599
X154.155Y-61.204
X154.279Y-58.837
X154.824Y-67.192
X154.859Y-92.309
X155.177Y-41.224
X155.185Y-47.979
X155.569Y-28.127
X159.13Y-86.293
X162.032Y-101.316
X162.036Y-69.062
X162.057Y-111.876
X162.302Y-88.432
X162.715Y-115.502
X162.961Y-81.572
X163.949Y-61.862
X165.797Y-41.606
X168.916Y-49.555
X169.361Y-123.865
X171.311Y-101.086
X172.034Y-89.518
X172.098Y-82.071
X172.95Y-113.143
X172.981Y-70.491
X173.171Y-62.24
X173.921Y-44.71
X174.068Y-51.472
X174.554Y-31.776
X174.869Y-91.454
X175.133Y-110.212
X175.494Y-103.52
X176.618Y-44.251
X177.028Y-108.591
X177.259Y-53.128
X179.393Y-56.012
X180.299Y-92.209
X180.719Y-112.698
X180.905Y-73.015
X181.045Y-103.559
X181.893Y-83.937
X181.969Y-115.814
X182.919Y-64.859
X183.752Y-46.553
X186.219Y-52.815
X187.006Y-129.977
X188.108Y-50.26
X189.981Y-67.977
X190.293Y-104.034
X190.903Y-92.509
X190.941Y-85.743
X190.98Y-48.909
X191.908Y-87.57
X192.006Y-65.335
X192.612Y-73.177
X192.629Y-117.476
X193.24Y-82.391
X193.484Y-91.168
X193.596Y-112.887
X193.751Y-47.037
X193.765Y-34.935
X194.02Y-80.752
X194.184Y-63.246
X194.243Y-107.262
X194.346Y-119.657
X194.561Y-123.027
X194.647Y-50.603
X194.789Y-94.558
X195.066Y-89.267
X195.666Y-89.983
X195.714Y-76.419
X195.912Y-73.586
X196.041Y-71.319
X196.568Y-72.586
X196.67Y-95.864
X196.811Y-90.684
X197.475Y-75.165
X197.481Y-77.711
X197.542Y-87.866
X197.801Y-82.885
X198.641Y-112.247
X198.67Y-71.487
X199.536Y-54.699
X202.009Y-120.385
X202.356Y-124.282
X203.397Y-140.686
X204.196Y-100.202
X204.435Y-83.917
X204.578Y-67.907
X205.134Y-121.987
X205.291Y-58.026
X205.437Y-124.119
X205.801Y-84.599
X205.901Y-97.961
X206.137Y-125.344
X206.414Y-97.091
X206.605Y-85.742
X206.724Y-66.822
X206.846Y-116.556
X206.892Y-118.942
X206.913Y-96.247
X207.045Y-134.406
X208.359Y-85.019
X208.808Y-85.748
X209.324Y-132.005
X209.588Y-121.365
X209.906Y-85.824
X211.181Y-149.465
X211.455Y-121.576
X211.844Y-69.634
X212.404Y-84.924
X212.481Y-78.495
X212.617Y-81.046
X212.67Y-132.058
X212.673Y-75.962
X212.713Y-85.762
X212.828Y-83.6
X212.916Y-73.431
X213.207Y-70.903
X213.28Y-68.363
X213.421Y-105.051
X214.314Y-109.79
X215.047Y-132.618
X216.527Y-131.058
X217.329Y-107.957
X217.714Y-108.997
X217.865Y-111.84
X219.047Y-125.482
X219.093Y-108.345
X219.201Y-136.217
X219.754Y-138.684
X219.828Y-87.517
X220.295Y-86.145
X220.324Y-71.276
X220.83Y-112.729
X221.195Y-68.778
X221.837Y-68.667
X221.869Y-136.111
X224.306Y-133.543
X226.289Y-131.623
X234.802Y-122.399
T2
X87.241Y-80.305
X87.301Y-61.795
X87.331Y-42.745
X87.398Y-99.895
X92.791Y-46.754
X95.241Y-47.105
X95.26Y-65.763
X95.641Y-82.805
X95.76Y-99.953
X96.115Y-133.211
X97.591Y-64.555
X97.591Y-82.805
X98.095Y-105.25
X102.23Y-82.343
X103.0Y-133.673
X103.153Y-127.895
X103.27Y-120.134
X103.941Y-47.905
X103.941Y-43.155
X103.941Y-46.402
X104.02Y-103.663
X104.241Y-66.055
X104.844Y-130.499
X106.388Y-99.855
X106.391Y-47.905
X107.268Y-80.845
X110.681Y-61.795
X111.841Y-103.834
X114.591Y-84.905
X114.791Y-43.505
X114.92Y-65.021
X116.741Y-50.955
X117.641Y-84.905
X117.691Y-63.755
X118.116Y-101.43
X118.541Y-97.334
X118.541Y-79.705
X118.591Y-55.705
X119.599Y-62.189
X123.603Y-64.854
X125.214Y-38.903
X125.776Y-96.652
X126.158Y-44.761
X126.365Y-40.816
X126.401Y-101.312
X126.703Y-77.624
X127.76Y-58.603
X128.328Y-110.668
X132.352Y-103.417
X132.898Y-63.289
X133.616Y-101.344
X134.813Y-81.75
X136.662Y-39.994
X136.783Y-43.46
X137.277Y-64.77
X137.779Y-80.968
X137.965Y-108.667
X139.873Y-40.072
X140.985Y-95.857
X143.724Y-58.298
X144.724Y-99.217
X145.887Y-38.368
X145.908Y-76.127
X147.657Y-42.468
X148.864Y-109.677
X151.006Y-108.359
X151.308Y-107.339
X152.999Y-98.95
X154.628Y-83.353
X154.882Y-78.51
X155.433Y-57.009
X156.06Y-96.146
X156.634Y-42.012
X156.67Y-84.512
X157.75Y-79.797
X157.842Y-62.143
X157.917Y-76.757
X158.887Y-43.171
X158.911Y-59.895
X159.991Y-110.906
X163.572Y-102.802
X163.774Y-98.643
X164.074Y-66.475
X164.613Y-42.82
X164.771Y-79.619
X165.844Y-60.599
X170.938Y-66.834
X171.485Y-113.874
X172.607Y-102.546
X173.162Y-83.768
X174.61Y-67.027
X174.727Y-63.829
X175.085Y-43.144
X175.245Y-102.676
X176.243Y-83.626
X176.483Y-43.217
X179.345Y-102.774
X182.046Y-66.215
X182.706Y-101.588
X183.515Y-114.812
X183.712Y-82.499
X183.899Y-45.088
X184.185Y-63.688
X188.653Y-52.242
X188.872Y-88.154
X191.183Y-44.854
X191.391Y-103.178
X191.744Y-67.775
X191.813Y-49.253
X192.304Y-69.512
X192.379Y-119.335
X193.613Y-103.291
X193.999Y-116.528
X194.114Y-93.719
X194.39Y-88.466
X194.952Y-109.678
X195.309Y-102.246
X196.649Y-69.739
X197.121Y-118.371
X197.13Y-61.247
X197.567Y-53.104
X197.983Y-111.428
X202.573Y-126.023
X202.994Y-123.44
X203.249Y-92.652
X204.305Y-62.644
X204.739Y-120.418
X206.033Y-62.993
X206.832Y-92.435
X207.963Y-115.7
X209.587Y-55.377
X210.074Y-59.648
X210.791Y-131.916
X212.537Y-55.081
X212.779Y-129.33
X213.392Y-127.17
X213.691Y-63.394
X213.826Y-59.134
X217.83Y-133.627
X217.839Y-126.441
X217.874Y-84.614
X218.335Y-75.826
X218.337Y-93.038
X218.897Y-64.901
X219.08Y-78.863
X220.112Y-111.311
X221.656Y-138.224
X222.292Y-87.659
X222.438Y-84.862
X225.009Y-76.912
X225.088Y-87.805
X225.234Y-85.009
X226.497Y-78.563
X227.814Y-131.803
T4
X81.943Y-78.357
X81.943Y-85.457
X81.991Y-97.355
X81.991Y-104.455
X81.991Y-59.255
X81.991Y-66.355
X81.991Y-40.155
X81.991Y-47.255
X90.382Y-134.072
X94.249Y-140.027
X99.541Y-97.155
X99.541Y-104.255
X99.571Y-37.865
X99.571Y-44.965
X99.591Y-77.105
X99.591Y-84.205
X99.591Y-58.055
X99.591Y-65.155
X120.206Y-101.026
X120.577Y-93.936
X121.205Y-81.952
X121.577Y-74.862
X122.205Y-62.879
X122.576Y-55.788
X123.202Y-43.855
X123.573Y-36.764
X126.615Y-64.712
X133.705Y-65.083
X139.363Y-99.477
X139.735Y-92.386
X140.36Y-80.453
X140.732Y-73.362
X142.357Y-42.355
X142.728Y-35.265
X144.617Y-111.734
X144.989Y-118.824
X158.259Y-102.92
X158.63Y-95.83
X159.282Y-83.397
X159.653Y-76.307
X160.279Y-64.373
X160.65Y-57.283
X161.396Y-45.356
X161.767Y-38.265
X165.049Y-120.302
X166.159Y-113.289
X177.175Y-105.964
X177.24Y-66.514
X177.547Y-98.874
X177.612Y-59.424
X178.174Y-86.916
X178.174Y-46.395
X178.545Y-79.825
X178.546Y-39.305
X184.281Y-126.107
X186.998Y-119.547
X196.798Y-103.497
X199.685Y-97.011
X199.746Y-84.261
X199.879Y-81.724
X200.012Y-79.188
X200.144Y-76.651
X200.277Y-74.115
X200.41Y-71.578
X200.543Y-69.042
X200.676Y-66.505
X200.809Y-63.969
X200.942Y-61.432
X200.98Y-85.523
X201.075Y-58.896
X201.113Y-82.987
X201.208Y-56.359
X201.246Y-80.45
X201.379Y-77.914
X201.512Y-75.377
X201.645Y-72.84
X201.778Y-70.304
X201.911Y-67.767
X201.92Y-135.748
X202.044Y-65.231
X202.177Y-62.694
X202.309Y-60.158
X202.442Y-57.621
X202.642Y-53.821
X206.093Y-130.004
X208.798Y-90.554
X211.334Y-90.687
X213.871Y-90.82
X214.965Y-85.059
X215.098Y-82.522
X215.231Y-79.986
X215.364Y-77.449
X215.497Y-74.913
X215.629Y-72.376
X215.762Y-69.839
X215.895Y-67.303
X216.028Y-64.766
X216.161Y-62.23
X216.199Y-86.321
X216.294Y-59.693
X216.332Y-83.784
X216.407Y-90.953
X216.427Y-57.157
X216.465Y-81.248
X216.564Y-54.551
X216.598Y-78.711
X216.731Y-76.175
X216.864Y-73.638
X216.997Y-71.102
X217.13Y-68.565
X217.263Y-66.029
X217.396Y-63.492
X217.529Y-60.955
X217.662Y-58.419
X218.165Y-118.651
X218.565Y-144.101
X222.076Y-92.053
X222.166Y-90.065
X222.487Y-113.018
X222.564Y-82.456
X223.452Y-138.951
X224.873Y-92.2
X224.962Y-90.212
X225.361Y-82.602
T5
X130.717Y-108.739
X132.985Y-123.06
X133.186Y-108.348
X135.656Y-107.957
X137.924Y-122.278
X199.154Y-115.336
X201.319Y-116.586
X203.484Y-117.836
X206.404Y-102.778
X210.734Y-105.278
X218.633Y-129.146
X220.447Y-130.866
X222.26Y-132.587
X228.615Y-118.628
X232.241Y-122.069
T6
X225.655Y-70.9
X225.997Y-64.388
T8
X199.521Y-91.647
X222.483Y-104.885
X224.894Y-60.596
T3
X213.606Y-98.664G85X212.508Y-98.606
G05
X213.734Y-96.217G85X212.636Y-96.16
G05
X215.013Y-100.49G85X213.914Y-100.432
G05
X215.324Y-94.548G85X214.226Y-94.491
G05
X219.007Y-100.699G85X217.909Y-100.642
G05
X219.319Y-94.757G85X218.22Y-94.7
G05
X222.003Y-100.856G85X220.905Y-100.799
G05
X222.314Y-94.914G85X221.216Y-94.857
G05
T7
X128.727Y-115.989G85X128.93Y-117.273
G05
X139.789Y-114.237G85X139.992Y-115.521
G05
X199.894Y-107.854G85X200.544Y-106.728
G05
X209.594Y-113.454G85X210.244Y-112.328
G05
X221.1Y-122.043G85X221.995Y-121.1
G05
X229.224Y-129.752G85X230.119Y-128.809
G05
T0
M30
