G04 #@! TF.GenerationSoftware,KiCad,Pcbnew,(5.1.12-1-10_14)*
G04 #@! TF.CreationDate,2021-12-17T12:39:00+00:00*
G04 #@! TF.ProjectId,avalanche-hotswap,6176616c-616e-4636-9865-2d686f747377,rev?*
G04 #@! TF.SameCoordinates,Original*
G04 #@! TF.FileFunction,Profile,NP*
%FSLAX46Y46*%
G04 Gerber Fmt 4.6, Leading zero omitted, Abs format (unit mm)*
G04 Created by KiCad (PCBNEW (5.1.12-1-10_14)) date 2021-12-17 12:39:00*
%MOMM*%
%LPD*%
G01*
G04 APERTURE LIST*
G04 #@! TA.AperFunction,Profile*
%ADD10C,0.050000*%
G04 #@! TD*
G04 #@! TA.AperFunction,Profile*
%ADD11C,0.120000*%
G04 #@! TD*
G04 APERTURE END LIST*
D10*
X81470500Y-107340400D02*
X83649726Y-107339923D01*
X81135220Y-106738401D02*
X83649731Y-106739927D01*
X81135220Y-106738400D02*
G75*
G02*
X80639920Y-106235500I5080J500360D01*
G01*
X80952245Y-107942400D02*
G75*
G02*
X81470500Y-107340400I487775J104160D01*
G01*
X83649730Y-106739933D02*
G75*
G02*
X83649726Y-107339923I27J-299995D01*
G01*
X126725512Y-125973840D02*
X126661354Y-125597619D01*
X127320115Y-126381339D02*
G75*
G02*
X126725512Y-125973840I-106755J481786D01*
G01*
X126142045Y-126166760D02*
X126068744Y-125691474D01*
X126142045Y-126166760D02*
G75*
G02*
X125821277Y-126740464I-488077J-103633D01*
G01*
X126068749Y-125691474D02*
G75*
G02*
X126661354Y-125597619I296298J46956D01*
G01*
X125115452Y-115927668D02*
X126385260Y-123946019D01*
X126385262Y-123945989D02*
G75*
G02*
X125792662Y-124039880I-296295J-46974D01*
G01*
X124502502Y-115893124D02*
X123254424Y-108013074D01*
X125115452Y-115927668D02*
X123847034Y-107919219D01*
X123254429Y-108013074D02*
G75*
G02*
X123847034Y-107919219I296298J46956D01*
G01*
X124502502Y-115893124D02*
X125792662Y-124039880D01*
X113895451Y-107339927D02*
X105777177Y-107339756D01*
X105777205Y-107339762D02*
G75*
G02*
X105777175Y-106739770I-44J299996D01*
G01*
X114025455Y-106739927D02*
X122003731Y-106739927D01*
X113895451Y-107339927D02*
X122003726Y-107339923D01*
X122003730Y-106739933D02*
G75*
G02*
X122003726Y-107339923I27J-299995D01*
G01*
X114025455Y-106739927D02*
X105777175Y-106739770D01*
X94213455Y-106739927D02*
X102191731Y-106739927D01*
X94083451Y-107339927D02*
X102191726Y-107339923D01*
X102191730Y-106739933D02*
G75*
G02*
X102191726Y-107339923I27J-299995D01*
G01*
X94083451Y-107339927D02*
X85965177Y-107339756D01*
X94213455Y-106739927D02*
X85965175Y-106739770D01*
X85965205Y-107339762D02*
G75*
G02*
X85965175Y-106739770I-44J299996D01*
G01*
X80634927Y-88727146D02*
X80624766Y-73023681D01*
X110152180Y-132318760D02*
X125821277Y-126740464D01*
X84312175Y-127235497D02*
X80952245Y-107942400D01*
X238518168Y-124740020D02*
G75*
G02*
X238536675Y-125446891I-344182J-362689D01*
G01*
X213172119Y-152172944D02*
G75*
G02*
X212465253Y-152191458I-362690J344176D01*
G01*
X121030228Y-49741733D02*
X120869853Y-49750506D01*
X120485319Y-49142393D02*
X120359851Y-49150507D01*
X94724924Y-142341209D02*
G75*
G02*
X94033272Y-142194189I-272316J419336D01*
G01*
X80639856Y-31195211D02*
G75*
G02*
X81139852Y-30695209I499999J3D01*
G01*
X81139845Y-49150506D02*
G75*
G02*
X80639856Y-48650509I4J499993D01*
G01*
X91451605Y-49750342D02*
G75*
G02*
X91451575Y-49150350I-44J299996D01*
G01*
X99699855Y-49150507D02*
X91451575Y-49150350D01*
X99569851Y-49750507D02*
X91451577Y-49750336D01*
X88628133Y-49150509D02*
G75*
G02*
X88628129Y-49750503I27J-299997D01*
G01*
X81128128Y-49750510D02*
X88628129Y-49750503D01*
X81139853Y-49150506D02*
X88628132Y-49150506D01*
X80628123Y-50250513D02*
G75*
G02*
X81128128Y-49750510I500004J-1D01*
G01*
X110503128Y-49150508D02*
X120359851Y-49150507D01*
X110503123Y-49750505D02*
X120869853Y-49750506D01*
X110503128Y-49750506D02*
G75*
G02*
X110503128Y-49150508I0J299999D01*
G01*
X107678130Y-49150513D02*
G75*
G02*
X107678126Y-49750503I27J-299995D01*
G01*
X99569851Y-49750507D02*
X107678126Y-49750503D01*
X99699855Y-49150507D02*
X107678131Y-49150507D01*
X121555716Y-49268585D02*
G75*
G02*
X121030228Y-49741733I-499318J26170D01*
G01*
X121010802Y-48669240D02*
G75*
G02*
X120485319Y-49142393I-499318J26165D01*
G01*
X122022587Y-30700825D02*
X121598380Y-30692643D01*
X122548064Y-30227680D02*
G75*
G02*
X122022587Y-30700825I-499311J26166D01*
G01*
X197979048Y-33139417D02*
G75*
G02*
X198452202Y-33664899I-26164J-499318D01*
G01*
X179953788Y-32194752D02*
G75*
G02*
X179480644Y-31669274I26167J499311D01*
G01*
X179059833Y-30145167D02*
G75*
G02*
X179532976Y-30670648I-26169J-499312D01*
G01*
X161034574Y-29200499D02*
G75*
G02*
X160561427Y-28675018I26167J499314D01*
G01*
X160166778Y-26651585D02*
G75*
G02*
X160639929Y-27177070I-26167J-499318D01*
G01*
X141835736Y-26191587D02*
G75*
G02*
X142361217Y-25718442I499313J-26168D01*
G01*
X141757224Y-27689522D02*
G75*
G02*
X141231752Y-28162676I-499313J26159D01*
G01*
X122680999Y-27691164D02*
G75*
G02*
X123206483Y-27218012I499318J-26166D01*
G01*
X178956791Y-51218641D02*
G75*
G02*
X178483653Y-50693167I26168J499306D01*
G01*
X140096377Y-46578498D02*
G75*
G03*
X140201477Y-46483868I5236J99864D01*
G01*
X140770210Y-46713946D02*
G75*
G02*
X140244734Y-47187084I-499307J26169D01*
G01*
X160037571Y-48224387D02*
G75*
G02*
X159564424Y-47698910I26165J499312D01*
G01*
X197538936Y-51091008D02*
G75*
G02*
X197013458Y-51564152I-499311J26167D01*
G01*
X197013458Y-51564152D02*
X189523724Y-51171642D01*
X189492330Y-51770796D02*
G75*
G02*
X189523724Y-51171642I15716J299576D01*
G01*
X189492333Y-51770795D02*
X197481367Y-52189482D01*
X186702604Y-51023780D02*
X179187916Y-50629960D01*
X179093292Y-50524858D02*
G75*
G03*
X179187916Y-50629960I99862J-5240D01*
G01*
X186671200Y-51622960D02*
X178956788Y-51218646D01*
X186671196Y-51622970D02*
G75*
G03*
X186702604Y-51023780I15704J299595D01*
G01*
X178483653Y-50693167D02*
X178535980Y-49694540D01*
X178543617Y-48593446D02*
X170604507Y-48177381D01*
X170573114Y-48776534D02*
X178062833Y-49169056D01*
X178543618Y-48593434D02*
G75*
G02*
X179158710Y-49276552I-34013J-649105D01*
G01*
X170573101Y-48776533D02*
G75*
G02*
X170604507Y-48177381I15722J299575D01*
G01*
X179093285Y-50524859D02*
X179158710Y-49276552D01*
X178062834Y-49169064D02*
G75*
G02*
X178535980Y-49694540I-26165J-499311D01*
G01*
X160174069Y-47530583D02*
G75*
G03*
X160268694Y-47635680I99860J-5237D01*
G01*
X167783384Y-48029508D02*
X160268694Y-47635680D01*
X167751988Y-48628684D02*
X160037573Y-48224393D01*
X167751992Y-48628684D02*
G75*
G03*
X167783384Y-48029508I15696J299588D01*
G01*
X159564424Y-47698910D02*
X159642927Y-46200966D01*
X160174066Y-47530587D02*
X160265656Y-45782977D01*
X121688991Y-46715309D02*
G75*
G02*
X122214480Y-46242164I499317J-26172D01*
G01*
X121821462Y-45620744D02*
X129735603Y-46035508D01*
X122214480Y-46242164D02*
X129704197Y-46634690D01*
X121138335Y-46235824D02*
G75*
G02*
X121821462Y-45620744I649108J-34028D01*
G01*
X129735605Y-46035509D02*
G75*
G02*
X129704197Y-46634690I-15675J-299592D01*
G01*
X132525322Y-46782530D02*
G75*
G02*
X132556734Y-46183362I15706J299584D01*
G01*
X159169783Y-45675480D02*
G75*
G02*
X159642927Y-46200966I-26171J-499315D01*
G01*
X140843727Y-45215733D02*
G75*
G02*
X141369214Y-44742590I499315J-26172D01*
G01*
X227561933Y-58116724D02*
G75*
G02*
X228048862Y-58989702I-508894J-856138D01*
G01*
X225318602Y-112213719D02*
X225268108Y-112049959D01*
X225318602Y-112213719D02*
X238518164Y-124740023D01*
X219228408Y-53329189D02*
X219296654Y-53343490D01*
X219296654Y-53343490D02*
X227561938Y-58116730D01*
X145239310Y-123553738D02*
X127320115Y-126381339D01*
X117741280Y-30695276D02*
X121598380Y-30692643D01*
X238536675Y-125446891D02*
X213172119Y-152172945D01*
X228048862Y-58989702D02*
X225268108Y-112049959D01*
X219228408Y-53329189D02*
X197481367Y-52189482D01*
X110152180Y-132318760D02*
X94724929Y-142341211D01*
X164271546Y-124547101D02*
X182574962Y-129973245D01*
X164271546Y-124547101D02*
X145239310Y-123553738D01*
X182574962Y-129973245D02*
X199107924Y-139509011D01*
X199107924Y-139509011D02*
X212465253Y-152191458D01*
X148890332Y-44535931D02*
G75*
G02*
X148858930Y-45135114I-15672J-299593D01*
G01*
X151680059Y-45282963D02*
G75*
G02*
X151711449Y-44683807I15714J299577D01*
G01*
X159650566Y-45099867D02*
G75*
G02*
X160265656Y-45782977I-34010J-649100D01*
G01*
X140293067Y-44736256D02*
G75*
G02*
X140976193Y-44121173I649109J-34026D01*
G01*
X80634927Y-88727146D02*
X80639920Y-106235500D01*
X94033272Y-142194189D02*
X84312175Y-127235497D01*
X80628120Y-50250501D02*
X80624766Y-73023681D01*
X141835734Y-26191586D02*
X141757233Y-27689530D01*
X160166781Y-26651589D02*
X142361217Y-25718442D01*
X160561427Y-28675018D02*
X160639928Y-27177068D01*
X179059833Y-30145158D02*
X161034566Y-29200499D01*
X179480644Y-31669274D02*
X179532976Y-30670648D01*
X197979051Y-33139418D02*
X179953790Y-32194757D01*
X197538933Y-51091008D02*
X198452202Y-33664899D01*
X151680060Y-45282964D02*
X159169783Y-45675479D01*
X159650561Y-45099869D02*
X151711449Y-44683807D01*
X123206483Y-27218012D02*
X141231752Y-28162676D01*
X122548069Y-30227676D02*
X122681003Y-27691158D01*
X81139852Y-30695209D02*
X117741280Y-30695276D01*
X80639856Y-48650509D02*
X80639853Y-31195210D01*
X141369214Y-44742590D02*
X148858930Y-45135114D01*
X140770221Y-46713943D02*
X140843723Y-45215741D01*
X132525327Y-46782532D02*
X140244734Y-47187084D01*
X140976193Y-44121173D02*
X148890337Y-44535925D01*
X140201477Y-46483868D02*
X140293068Y-44736256D01*
X132556734Y-46183362D02*
X140096374Y-46578496D01*
X121688997Y-46715314D02*
X121555704Y-49268586D01*
X121138334Y-46235832D02*
X121010806Y-48669249D01*
D11*
X145821608Y-95659409D02*
X145659366Y-98755161D01*
X145659366Y-98755161D02*
X149254432Y-98943571D01*
X149254432Y-98943571D02*
X149416674Y-95847819D01*
X149416674Y-95847819D02*
X145821608Y-95659409D01*
X110891269Y-81355259D02*
X107291269Y-81355259D01*
X110891269Y-84455259D02*
X110891269Y-81355259D01*
X107291269Y-84455259D02*
X110891269Y-84455259D01*
X107291269Y-81355259D02*
X107291269Y-84455259D01*
X201936007Y-111917331D02*
X200386007Y-114602009D01*
X200386007Y-114602009D02*
X203503699Y-116402009D01*
X203503699Y-116402009D02*
X205053699Y-113717331D01*
X205053699Y-113717331D02*
X201936007Y-111917331D01*
X131601729Y-109859172D02*
X132086675Y-112921006D01*
X132086675Y-112921006D02*
X135642353Y-112357842D01*
X135642353Y-112357842D02*
X135157407Y-109296008D01*
X135157407Y-109296008D02*
X131601729Y-109859172D01*
X185625307Y-64149398D02*
X185463065Y-67245150D01*
X185463065Y-67245150D02*
X189058131Y-67433560D01*
X189058131Y-67433560D02*
X189220373Y-64337808D01*
X189220373Y-64337808D02*
X185625307Y-64149398D01*
X97284988Y-133226198D02*
X98973369Y-135826077D01*
X98973369Y-135826077D02*
X101992584Y-133865376D01*
X101992584Y-133865376D02*
X100304203Y-131265497D01*
X100304203Y-131265497D02*
X97284988Y-133226198D01*
X91841279Y-100405249D02*
X88241279Y-100405249D01*
X91841279Y-103505249D02*
X91841279Y-100405249D01*
X88241279Y-103505249D02*
X91841279Y-103505249D01*
X88241279Y-100405249D02*
X88241279Y-103505249D01*
X91841265Y-81355254D02*
X88241265Y-81355254D01*
X91841265Y-84455254D02*
X91841265Y-81355254D01*
X88241265Y-84455254D02*
X91841265Y-84455254D01*
X88241265Y-81355254D02*
X88241265Y-84455254D01*
X91841244Y-62305245D02*
X88241244Y-62305245D01*
X91841244Y-65405245D02*
X91841244Y-62305245D01*
X88241244Y-65405245D02*
X91841244Y-65405245D01*
X88241244Y-62305245D02*
X88241244Y-65405245D01*
X91841291Y-43255255D02*
X88241291Y-43255255D01*
X91841291Y-46355255D02*
X91841291Y-43255255D01*
X88241291Y-46355255D02*
X91841291Y-46355255D01*
X88241291Y-43255255D02*
X88241291Y-46355255D01*
X110891266Y-43255254D02*
X107291266Y-43255254D01*
X110891266Y-46355254D02*
X110891266Y-43255254D01*
X107291266Y-46355254D02*
X110891266Y-46355254D01*
X107291266Y-43255254D02*
X107291266Y-46355254D01*
X110891269Y-62305231D02*
X107291269Y-62305231D01*
X110891269Y-65405231D02*
X110891269Y-62305231D01*
X107291269Y-65405231D02*
X110891269Y-65405231D01*
X107291269Y-62305231D02*
X107291269Y-65405231D01*
X110891286Y-100405273D02*
X107291286Y-100405273D01*
X110891286Y-103505273D02*
X110891286Y-100405273D01*
X107291286Y-103505273D02*
X110891286Y-103505273D01*
X107291286Y-100405273D02*
X107291286Y-103505273D01*
X126664272Y-97208962D02*
X126502030Y-100304714D01*
X126502030Y-100304714D02*
X130097096Y-100493124D01*
X130097096Y-100493124D02*
X130259338Y-97397372D01*
X130259338Y-97397372D02*
X126664272Y-97208962D01*
X127661262Y-78185055D02*
X127499020Y-81280807D01*
X127499020Y-81280807D02*
X131094086Y-81469217D01*
X131094086Y-81469217D02*
X131256328Y-78373465D01*
X131256328Y-78373465D02*
X127661262Y-78185055D01*
X128658273Y-59161131D02*
X128496031Y-62256883D01*
X128496031Y-62256883D02*
X132091097Y-62445293D01*
X132091097Y-62445293D02*
X132253339Y-59349541D01*
X132253339Y-59349541D02*
X128658273Y-59161131D01*
X129655280Y-40137275D02*
X129493038Y-43233027D01*
X129493038Y-43233027D02*
X133088104Y-43421437D01*
X133088104Y-43421437D02*
X133250346Y-40325685D01*
X133250346Y-40325685D02*
X129655280Y-40137275D01*
X148810016Y-38637700D02*
X148647774Y-41733452D01*
X148647774Y-41733452D02*
X152242840Y-41921862D01*
X152242840Y-41921862D02*
X152405082Y-38826110D01*
X152405082Y-38826110D02*
X148810016Y-38637700D01*
X147812979Y-57661586D02*
X147650737Y-60757338D01*
X147650737Y-60757338D02*
X151245803Y-60945748D01*
X151245803Y-60945748D02*
X151408045Y-57849996D01*
X151408045Y-57849996D02*
X147812979Y-57661586D01*
X146816007Y-76685477D02*
X146653765Y-79781229D01*
X146653765Y-79781229D02*
X150248831Y-79969639D01*
X150248831Y-79969639D02*
X150411073Y-76873887D01*
X150411073Y-76873887D02*
X146816007Y-76685477D01*
X153789883Y-108328100D02*
X153627641Y-111423852D01*
X153627641Y-111423852D02*
X157222707Y-111612262D01*
X157222707Y-111612262D02*
X157384949Y-108516510D01*
X157384949Y-108516510D02*
X153789883Y-108328100D01*
X176181621Y-111753640D02*
X175301174Y-114725981D01*
X175301174Y-114725981D02*
X178752925Y-115748436D01*
X178752925Y-115748436D02*
X179633372Y-112776095D01*
X179633372Y-112776095D02*
X176181621Y-111753640D01*
X164712093Y-99202924D02*
X164549851Y-102298676D01*
X164549851Y-102298676D02*
X168144917Y-102487086D01*
X168144917Y-102487086D02*
X168307159Y-99391334D01*
X168307159Y-99391334D02*
X164712093Y-99202924D01*
X165709074Y-80179033D02*
X165546832Y-83274785D01*
X165546832Y-83274785D02*
X169141898Y-83463195D01*
X169141898Y-83463195D02*
X169304140Y-80367443D01*
X169304140Y-80367443D02*
X165709074Y-80179033D01*
X166706054Y-61155161D02*
X166543812Y-64250913D01*
X166543812Y-64250913D02*
X170138878Y-64439323D01*
X170138878Y-64439323D02*
X170301120Y-61343571D01*
X170301120Y-61343571D02*
X166706054Y-61155161D01*
X167703059Y-42131256D02*
X167540817Y-45227008D01*
X167540817Y-45227008D02*
X171135883Y-45415418D01*
X171135883Y-45415418D02*
X171298125Y-42319666D01*
X171298125Y-42319666D02*
X167703059Y-42131256D01*
X186622292Y-45125526D02*
X186460050Y-48221278D01*
X186460050Y-48221278D02*
X190055116Y-48409688D01*
X190055116Y-48409688D02*
X190217358Y-45313936D01*
X190217358Y-45313936D02*
X186622292Y-45125526D01*
X184628291Y-83173292D02*
X184466049Y-86269044D01*
X184466049Y-86269044D02*
X188061115Y-86457454D01*
X188061115Y-86457454D02*
X188223357Y-83361702D01*
X188223357Y-83361702D02*
X184628291Y-83173292D01*
X222123616Y-126484534D02*
X219989717Y-128733195D01*
X219989717Y-128733195D02*
X222601064Y-131211272D01*
X222601064Y-131211272D02*
X224734963Y-128962611D01*
X224734963Y-128962611D02*
X222123616Y-126484534D01*
X197173520Y-120307869D02*
X195623520Y-122992547D01*
X195623520Y-122992547D02*
X198741212Y-124792547D01*
X198741212Y-124792547D02*
X200291212Y-122107869D01*
X200291212Y-122107869D02*
X197173520Y-120307869D01*
X215521555Y-133497833D02*
X213387656Y-135746494D01*
X213387656Y-135746494D02*
X215999003Y-138224571D01*
X215999003Y-138224571D02*
X218132902Y-135975910D01*
X218132902Y-135975910D02*
X215521555Y-133497833D01*
X183633914Y-102147272D02*
X183471672Y-105243024D01*
X183471672Y-105243024D02*
X187066738Y-105431434D01*
X187066738Y-105431434D02*
X187228980Y-102335682D01*
X187228980Y-102335682D02*
X183633914Y-102147272D01*
M02*
