%FSLAX45Y45*%
G04 Gerber Fmt 4.5, Leading zero omitted, Abs format (unit mm)*
G04 Created by KiCad (PCBNEW (5.1.12-1-10_14)) date 2021-12-17 12:39:09*
%MOMM*%
%LPD*%
G01*
G04 APERTURE LIST*
%TA.AperFunction,Profile*%
%ADD10C,0.050000*%
%TD*%
%ADD11C,0.200000*%
%ADD12C,0.300000*%
G04 APERTURE END LIST*
D10*
X8147050Y-10734040D02*
X8364973Y-10733992D01*
X8113522Y-10673840D02*
X8364973Y-10673993D01*
X8113522Y-10673840D02*
G75*
G02*
X8063992Y-10623550I508J50036D01*
G01*
X8095224Y-10794240D02*
G75*
G02*
X8147050Y-10734040I48778J10416D01*
G01*
X8364973Y-10673993D02*
G75*
G02*
X8364973Y-10733992I3J-30000D01*
G01*
X12672551Y-12597384D02*
X12666135Y-12559762D01*
X12732011Y-12638134D02*
G75*
G02*
X12672551Y-12597384I-10676J48179D01*
G01*
X12614204Y-12616676D02*
X12606874Y-12569147D01*
X12614204Y-12616676D02*
G75*
G02*
X12582128Y-12674046I-48808J-10363D01*
G01*
X12606875Y-12569147D02*
G75*
G02*
X12666135Y-12559762I29630J4696D01*
G01*
X12511545Y-11592767D02*
X12638526Y-12394602D01*
X12638526Y-12394599D02*
G75*
G02*
X12579266Y-12403988I-29630J-4697D01*
G01*
X12450250Y-11589312D02*
X12325442Y-10801307D01*
X12511545Y-11592767D02*
X12384703Y-10791922D01*
X12325443Y-10801307D02*
G75*
G02*
X12384703Y-10791922I29630J4696D01*
G01*
X12450250Y-11589312D02*
X12579266Y-12403988D01*
X11389545Y-10733993D02*
X10577718Y-10733976D01*
X10577721Y-10733976D02*
G75*
G02*
X10577718Y-10673977I-4J30000D01*
G01*
X11402545Y-10673993D02*
X12200373Y-10673993D01*
X11389545Y-10733993D02*
X12200373Y-10733992D01*
X12200373Y-10673993D02*
G75*
G02*
X12200373Y-10733992I3J-30000D01*
G01*
X11402545Y-10673993D02*
X10577718Y-10673977D01*
X9421346Y-10673993D02*
X10219173Y-10673993D01*
X9408345Y-10733993D02*
X10219173Y-10733992D01*
X10219173Y-10673993D02*
G75*
G02*
X10219173Y-10733992I3J-30000D01*
G01*
X9408345Y-10733993D02*
X8596518Y-10733976D01*
X9421346Y-10673993D02*
X8596518Y-10673977D01*
X8596521Y-10733976D02*
G75*
G02*
X8596518Y-10673977I-4J30000D01*
G01*
X8063493Y-8872715D02*
X8062477Y-7302368D01*
X11015218Y-13231876D02*
X12582128Y-12674046D01*
X8431218Y-12723550D02*
X8095224Y-10794240D01*
X23851817Y-12474002D02*
G75*
G02*
X23853667Y-12544689I-34418J-36269D01*
G01*
X21317212Y-15217294D02*
G75*
G02*
X21246525Y-15219146I-36269J34418D01*
G01*
X12103023Y-4974173D02*
X12086985Y-4975051D01*
X12048532Y-4914239D02*
X12035985Y-4915051D01*
X9472492Y-14234121D02*
G75*
G02*
X9403327Y-14219419I-27232J41934D01*
G01*
X8063986Y-3119521D02*
G75*
G02*
X8113985Y-3069521I50000J0D01*
G01*
X8113984Y-4915051D02*
G75*
G02*
X8063986Y-4865051I0J49999D01*
G01*
X9145161Y-4975034D02*
G75*
G02*
X9145158Y-4915035I-4J30000D01*
G01*
X9969986Y-4915051D02*
X9145158Y-4915035D01*
X9956985Y-4975051D02*
X9145158Y-4975034D01*
X8862813Y-4915051D02*
G75*
G02*
X8862813Y-4975050I3J-30000D01*
G01*
X8112813Y-4975051D02*
X8862813Y-4975050D01*
X8113985Y-4915051D02*
X8862813Y-4915051D01*
X8062812Y-5025051D02*
G75*
G02*
X8112813Y-4975051I50000J0D01*
G01*
X11050313Y-4915051D02*
X12035985Y-4915051D01*
X11050312Y-4975051D02*
X12086985Y-4975051D01*
X11050313Y-4975051D02*
G75*
G02*
X11050313Y-4915051I0J30000D01*
G01*
X10767813Y-4915051D02*
G75*
G02*
X10767813Y-4975050I3J-30000D01*
G01*
X9956985Y-4975051D02*
X10767813Y-4975050D01*
X9969986Y-4915051D02*
X10767813Y-4915051D01*
X12155572Y-4926859D02*
G75*
G02*
X12103023Y-4974173I-49932J2617D01*
G01*
X12101080Y-4866924D02*
G75*
G02*
X12048532Y-4914239I-49932J2617D01*
G01*
X12202259Y-3070082D02*
X12159838Y-3069264D01*
X12254806Y-3022768D02*
G75*
G02*
X12202259Y-3070082I-49931J2617D01*
G01*
X19797905Y-3313942D02*
G75*
G02*
X19845220Y-3366490I-2616J-49932D01*
G01*
X17995379Y-3219475D02*
G75*
G02*
X17948064Y-3166927I2617J49931D01*
G01*
X17905983Y-3014517D02*
G75*
G02*
X17953298Y-3067065I-2617J-49931D01*
G01*
X16103457Y-2920050D02*
G75*
G02*
X16056143Y-2867502I2617J49931D01*
G01*
X16016678Y-2665159D02*
G75*
G02*
X16063993Y-2717707I-2617J-49932D01*
G01*
X14183574Y-2619159D02*
G75*
G02*
X14236122Y-2571844I49931J-2617D01*
G01*
X14175722Y-2768952D02*
G75*
G02*
X14123175Y-2816268I-49931J2616D01*
G01*
X12268100Y-2769116D02*
G75*
G02*
X12320648Y-2721801I49932J-2617D01*
G01*
X17895679Y-5121864D02*
G75*
G02*
X17848365Y-5069317I2617J49931D01*
G01*
X14009638Y-4657850D02*
G75*
G03*
X14020148Y-4648387I524J9986D01*
G01*
X14077021Y-4671395D02*
G75*
G02*
X14024473Y-4718708I-49931J2617D01*
G01*
X16003757Y-4822439D02*
G75*
G02*
X15956442Y-4769891I2617J49931D01*
G01*
X19753894Y-5109101D02*
G75*
G02*
X19701346Y-5156415I-49931J2617D01*
G01*
X19701346Y-5156415D02*
X18952372Y-5117164D01*
X18949233Y-5177080D02*
G75*
G02*
X18952372Y-5117164I1572J29958D01*
G01*
X18949233Y-5177080D02*
X19748137Y-5218948D01*
X18670260Y-5102378D02*
X17918792Y-5062996D01*
X17909329Y-5052486D02*
G75*
G03*
X17918792Y-5062996I9986J-524D01*
G01*
X18667120Y-5162296D02*
X17895679Y-5121865D01*
X18667120Y-5162297D02*
G75*
G03*
X18670260Y-5102378I1570J29960D01*
G01*
X17848365Y-5069317D02*
X17853598Y-4969454D01*
X17854362Y-4859345D02*
X17060451Y-4817738D01*
X17057311Y-4877653D02*
X17806283Y-4916906D01*
X17854362Y-4859343D02*
G75*
G02*
X17915871Y-4927655I-3401J-64911D01*
G01*
X17057310Y-4877653D02*
G75*
G02*
X17060451Y-4817738I1572J29958D01*
G01*
X17909329Y-5052486D02*
X17915871Y-4927655D01*
X17806283Y-4916906D02*
G75*
G02*
X17853598Y-4969454I-2617J-49931D01*
G01*
X16017407Y-4753058D02*
G75*
G03*
X16026869Y-4763568I9986J-524D01*
G01*
X16778338Y-4802951D02*
X16026869Y-4763568D01*
X16775199Y-4862868D02*
X16003757Y-4822439D01*
X16775199Y-4862868D02*
G75*
G03*
X16778338Y-4802951I1570J29959D01*
G01*
X15956442Y-4769891D02*
X15964293Y-4620097D01*
X16017407Y-4753059D02*
X16026566Y-4578298D01*
X12168899Y-4671531D02*
G75*
G02*
X12221448Y-4624216I49932J-2617D01*
G01*
X12182146Y-4562074D02*
X12973560Y-4603551D01*
X12221448Y-4624216D02*
X12970420Y-4663469D01*
X12113833Y-4623582D02*
G75*
G02*
X12182146Y-4562074I64911J-3403D01*
G01*
X12973560Y-4603551D02*
G75*
G02*
X12970420Y-4663469I-1568J-29959D01*
G01*
X13252532Y-4678253D02*
G75*
G02*
X13255673Y-4618336I1571J29958D01*
G01*
X15916978Y-4567548D02*
G75*
G02*
X15964293Y-4620097I-2617J-49932D01*
G01*
X14084373Y-4521573D02*
G75*
G02*
X14136921Y-4474259I49932J-2617D01*
G01*
X22756193Y-5811672D02*
G75*
G02*
X22804886Y-5898970I-50889J-85614D01*
G01*
X22531860Y-11221372D02*
X22526811Y-11204996D01*
X22531860Y-11221372D02*
X23851816Y-12474002D01*
X21922841Y-5332919D02*
X21929665Y-5334349D01*
X21929665Y-5334349D02*
X22756194Y-5811673D01*
X14523931Y-12355374D02*
X12732011Y-12638134D01*
X11774128Y-3069528D02*
X12159838Y-3069264D01*
X23853667Y-12544689D02*
X21317212Y-15217294D01*
X22804886Y-5898970D02*
X22526811Y-11204996D01*
X21922841Y-5332919D02*
X19748137Y-5218948D01*
X11015218Y-13231876D02*
X9472493Y-14234121D01*
X16427155Y-12454710D02*
X18257496Y-12997324D01*
X16427155Y-12454710D02*
X14523931Y-12355374D01*
X18257496Y-12997324D02*
X19910792Y-13950901D01*
X19910792Y-13950901D02*
X21246525Y-15219146D01*
X14889033Y-4453593D02*
G75*
G02*
X14885893Y-4513511I-1567J-29959D01*
G01*
X15168006Y-4528296D02*
G75*
G02*
X15171145Y-4468381I1571J29958D01*
G01*
X15965057Y-4509987D02*
G75*
G02*
X16026566Y-4578298I-3401J-64910D01*
G01*
X14029307Y-4473626D02*
G75*
G02*
X14097619Y-4412117I64911J-3403D01*
G01*
X8063493Y-8872715D02*
X8063992Y-10623550D01*
X9403327Y-14219419D02*
X8431218Y-12723550D01*
X8062812Y-5025050D02*
X8062477Y-7302368D01*
X14183573Y-2619159D02*
X14175723Y-2768953D01*
X16016678Y-2665159D02*
X14236122Y-2571844D01*
X16056143Y-2867502D02*
X16063993Y-2717707D01*
X17905983Y-3014516D02*
X16103457Y-2920050D01*
X17948064Y-3166927D02*
X17953298Y-3067065D01*
X19797905Y-3313942D02*
X17995379Y-3219476D01*
X19753893Y-5109101D02*
X19845220Y-3366490D01*
X15168006Y-4528296D02*
X15916978Y-4567548D01*
X15965056Y-4509987D02*
X15171145Y-4468381D01*
X12320648Y-2721801D02*
X14123175Y-2816268D01*
X12254807Y-3022768D02*
X12268100Y-2769116D01*
X8113985Y-3069521D02*
X11774128Y-3069528D01*
X8063986Y-4865051D02*
X8063985Y-3119521D01*
X14136921Y-4474259D02*
X14885893Y-4513511D01*
X14077022Y-4671394D02*
X14084372Y-4521574D01*
X13252533Y-4678253D02*
X14024473Y-4718708D01*
X14097619Y-4412117D02*
X14889034Y-4453593D01*
X14020148Y-4648387D02*
X14029307Y-4473626D01*
X13255673Y-4618336D02*
X14009637Y-4657850D01*
X12168900Y-4671531D02*
X12155570Y-4926859D01*
X12113833Y-4623583D02*
X12101081Y-4866925D01*
D11*
X8528212Y-10110527D02*
X8558212Y-10140527D01*
X8558212Y-10110527D02*
X8528212Y-10140527D01*
X8541024Y-6375336D02*
X8571024Y-6405336D01*
X8571024Y-6375336D02*
X8541024Y-6405336D01*
X8545023Y-4466336D02*
X8575023Y-4496336D01*
X8575023Y-4466336D02*
X8545023Y-4496336D01*
X8555024Y-8207336D02*
X8585024Y-8237336D01*
X8585024Y-8207336D02*
X8555024Y-8237336D01*
X8655582Y-12826123D02*
X8685582Y-12856123D01*
X8685582Y-12826123D02*
X8655582Y-12856123D01*
X8714127Y-8610524D02*
X8744127Y-8640524D01*
X8744127Y-8610524D02*
X8714127Y-8640524D01*
X8925320Y-5078172D02*
X8955320Y-5108172D01*
X8955320Y-5078172D02*
X8925320Y-5108172D01*
X8999127Y-8730525D02*
X9029127Y-8760525D01*
X9029127Y-8730525D02*
X8999127Y-8760525D01*
X9444024Y-8345337D02*
X9474024Y-8375337D01*
X9474024Y-8345337D02*
X9444024Y-8375337D01*
X9454127Y-3245524D02*
X9484127Y-3275524D01*
X9484127Y-3245524D02*
X9454127Y-3275524D01*
X9474126Y-9015524D02*
X9504126Y-9045524D01*
X9504126Y-9015524D02*
X9474126Y-9045524D01*
X9474126Y-7110524D02*
X9504126Y-7140524D01*
X9504126Y-7110524D02*
X9474126Y-7140524D01*
X9474627Y-5210023D02*
X9504627Y-5240023D01*
X9504627Y-5210023D02*
X9474627Y-5240023D01*
X9476023Y-4464336D02*
X9506023Y-4494336D01*
X9506023Y-4464336D02*
X9476023Y-4494336D01*
X9479835Y-10110524D02*
X9509835Y-10140524D01*
X9509835Y-10110524D02*
X9479835Y-10140524D01*
X9482025Y-6372338D02*
X9512025Y-6402338D01*
X9512025Y-6372338D02*
X9482025Y-6402338D01*
X9512794Y-10472660D02*
X9542794Y-10502660D01*
X9542794Y-10472660D02*
X9512794Y-10502660D01*
X9532581Y-13526460D02*
X9562581Y-13556460D01*
X9562581Y-13526460D02*
X9532581Y-13556460D01*
X9593058Y-10130522D02*
X9623058Y-10160522D01*
X9623058Y-10130522D02*
X9593058Y-10160522D01*
X9620024Y-4320337D02*
X9650024Y-4350337D01*
X9650024Y-4320337D02*
X9620024Y-4350337D01*
X9644129Y-7060524D02*
X9674129Y-7090524D01*
X9674129Y-7060524D02*
X9644129Y-7090524D01*
X9732387Y-12096434D02*
X9762387Y-12126434D01*
X9762387Y-12096434D02*
X9732387Y-12126434D01*
X9894054Y-5400447D02*
X9924054Y-5430447D01*
X9924054Y-5400447D02*
X9894054Y-5430447D01*
X9994129Y-5400525D02*
X10024129Y-5430525D01*
X10024129Y-5400525D02*
X9994129Y-5430525D01*
X10354130Y-7110525D02*
X10384130Y-7140525D01*
X10384130Y-7110525D02*
X10354130Y-7140525D01*
X10390159Y-13136473D02*
X10420159Y-13166473D01*
X10420159Y-13136473D02*
X10390159Y-13166473D01*
X10434212Y-8205526D02*
X10464212Y-8235526D01*
X10464212Y-8205526D02*
X10434212Y-8235526D01*
X10446022Y-10252337D02*
X10476022Y-10282337D01*
X10476022Y-10252337D02*
X10446022Y-10282337D01*
X10449023Y-6373337D02*
X10479023Y-6403337D01*
X10479023Y-6373337D02*
X10449023Y-6403337D01*
X10462024Y-4466337D02*
X10492024Y-4496337D01*
X10492024Y-4466337D02*
X10462024Y-4496337D01*
X10553825Y-13316356D02*
X10583825Y-13346356D01*
X10583825Y-13316356D02*
X10553825Y-13346356D01*
X10560024Y-6076337D02*
X10590024Y-6106337D01*
X10590024Y-6076337D02*
X10560024Y-6106337D01*
X10608124Y-9861526D02*
X10638124Y-9891526D01*
X10638124Y-9861526D02*
X10608124Y-9891526D01*
X10609128Y-7960523D02*
X10639128Y-7990523D01*
X10639128Y-7960523D02*
X10609128Y-7990523D01*
X10834126Y-7490525D02*
X10864126Y-7520525D01*
X10864126Y-7490525D02*
X10834126Y-7520525D01*
X10864125Y-5040525D02*
X10894125Y-5070525D01*
X10894125Y-5040525D02*
X10864125Y-5070525D01*
X10950128Y-8940523D02*
X10980128Y-8970523D01*
X10980128Y-8940523D02*
X10950128Y-8970523D01*
X10959128Y-7035525D02*
X10989128Y-7065525D01*
X10989128Y-7035525D02*
X10959128Y-7065525D01*
X11074130Y-8488525D02*
X11104130Y-8518525D01*
X11104130Y-8488525D02*
X11074130Y-8518525D01*
X11169127Y-4695235D02*
X11199127Y-4725235D01*
X11199127Y-4695235D02*
X11169127Y-4725235D01*
X11345836Y-6300525D02*
X11375836Y-6330525D01*
X11375836Y-6300525D02*
X11345836Y-6330525D01*
X11347023Y-8345336D02*
X11377023Y-8375336D01*
X11377023Y-8345336D02*
X11347023Y-8375336D01*
X11367023Y-4466338D02*
X11397023Y-4496338D01*
X11397023Y-4466338D02*
X11367023Y-4496338D01*
X11368523Y-6516836D02*
X11398523Y-6546836D01*
X11398523Y-6516836D02*
X11368523Y-6546836D01*
X11369128Y-3245525D02*
X11399128Y-3275525D01*
X11399128Y-3245525D02*
X11369128Y-3275525D01*
X11394627Y-5210025D02*
X11424627Y-5240025D01*
X11424627Y-5210025D02*
X11394627Y-5240025D01*
X11397834Y-10250528D02*
X11427834Y-10280528D01*
X11427834Y-10250528D02*
X11397834Y-10280528D01*
X11464125Y-7035525D02*
X11494125Y-7065525D01*
X11494125Y-7035525D02*
X11464125Y-7065525D01*
X11464127Y-8975526D02*
X11494127Y-9005526D01*
X11494127Y-8975526D02*
X11464127Y-9005526D01*
X11654124Y-8885524D02*
X11684124Y-8915524D01*
X11684124Y-8885524D02*
X11654124Y-8915524D01*
X11728200Y-10384778D02*
X11758200Y-10414778D01*
X11758200Y-10384778D02*
X11728200Y-10414778D01*
X11983227Y-10540523D02*
X12013227Y-10570523D01*
X12013227Y-10540523D02*
X11983227Y-10570523D01*
X12187427Y-6617376D02*
X12217427Y-6647376D01*
X12217427Y-6617376D02*
X12187427Y-6647376D01*
X12213520Y-10489892D02*
X12243520Y-10519892D01*
X12243520Y-10489892D02*
X12213520Y-10519892D01*
X12326126Y-8699989D02*
X12356126Y-8729989D01*
X12356126Y-8699989D02*
X12326126Y-8729989D01*
X12386464Y-9848758D02*
X12416464Y-9878758D01*
X12416464Y-9848758D02*
X12386464Y-9878758D01*
X12439485Y-6775788D02*
X12469485Y-6805788D01*
X12469485Y-6775788D02*
X12439485Y-6805788D01*
X12472340Y-7942638D02*
X12502340Y-7972638D01*
X12502340Y-7942638D02*
X12472340Y-7972638D01*
X12483780Y-10515067D02*
X12513780Y-10545067D01*
X12513780Y-10515067D02*
X12483780Y-10545067D01*
X12556903Y-6042462D02*
X12586903Y-6072462D01*
X12586903Y-6042462D02*
X12556903Y-6072462D01*
X12767089Y-3964078D02*
X12797089Y-3994078D01*
X12797089Y-3964078D02*
X12767089Y-3994078D01*
X12875178Y-11171259D02*
X12905178Y-11201259D01*
X12905178Y-11171259D02*
X12875178Y-11201259D01*
X13092008Y-4738362D02*
X13122008Y-4768362D01*
X13122008Y-4738362D02*
X13092008Y-4768362D01*
X13314191Y-9897376D02*
X13344191Y-9927376D01*
X13344191Y-9897376D02*
X13314191Y-9927376D01*
X13383352Y-8732865D02*
X13413352Y-8762865D01*
X13413352Y-8732865D02*
X13383352Y-8762865D01*
X13415048Y-7992045D02*
X13445048Y-8022045D01*
X13445048Y-7992045D02*
X13415048Y-8022045D01*
X13462348Y-6833897D02*
X13492348Y-6863897D01*
X13492348Y-6833897D02*
X13462348Y-6863897D01*
X13501788Y-6090857D02*
X13531788Y-6120857D01*
X13531788Y-6090857D02*
X13501788Y-6120857D01*
X13578024Y-4932346D02*
X13608024Y-4962346D01*
X13608024Y-4932346D02*
X13578024Y-4962346D01*
X13590604Y-4117387D02*
X13620604Y-4147387D01*
X13620604Y-4117387D02*
X13590604Y-4147387D01*
X13616003Y-10328816D02*
X13646003Y-10358816D01*
X13646003Y-10328816D02*
X13616003Y-10358816D01*
X13641914Y-10424782D02*
X13671914Y-10454782D01*
X13671914Y-10424782D02*
X13641914Y-10454782D01*
X13661550Y-5908555D02*
X13691550Y-5938555D01*
X13691550Y-5908555D02*
X13661550Y-5938555D01*
X13674561Y-2985231D02*
X13704561Y-3015231D01*
X13704561Y-2985231D02*
X13674561Y-3015231D01*
X13821950Y-3994327D02*
X13851950Y-4024327D01*
X13851950Y-3994327D02*
X13821950Y-4024327D01*
X13833380Y-11020526D02*
X13863380Y-11050526D01*
X13863380Y-11020526D02*
X13833380Y-11050526D01*
X13909526Y-10157355D02*
X13939526Y-10187355D01*
X13939526Y-10157355D02*
X13909526Y-10187355D01*
X13970651Y-10799974D02*
X14000651Y-10829974D01*
X14000651Y-10799974D02*
X13970651Y-10829974D01*
X14017022Y-5288758D02*
X14047022Y-5318758D01*
X14047022Y-5288758D02*
X14017022Y-5318758D01*
X14059893Y-10430561D02*
X14089893Y-10460561D01*
X14089893Y-10430561D02*
X14059893Y-10460561D01*
X14063383Y-8367957D02*
X14093383Y-8397957D01*
X14093383Y-8367957D02*
X14063383Y-8397957D01*
X14129380Y-11159600D02*
X14159380Y-11189600D01*
X14159380Y-11159600D02*
X14129380Y-11189600D01*
X14141351Y-5638294D02*
X14171351Y-5668294D01*
X14171351Y-5638294D02*
X14141351Y-5668294D01*
X14237068Y-5913682D02*
X14267068Y-5943682D01*
X14267068Y-5913682D02*
X14237068Y-5943682D01*
X14245797Y-8517710D02*
X14275797Y-8547710D01*
X14275797Y-8517710D02*
X14245797Y-8547710D01*
X14302814Y-9624745D02*
X14332814Y-9654745D01*
X14332814Y-9624745D02*
X14302814Y-9654745D01*
X14365204Y-6621360D02*
X14395204Y-6651360D01*
X14395204Y-6621360D02*
X14365204Y-6651360D01*
X14385659Y-7795574D02*
X14415659Y-7825574D01*
X14415659Y-7795574D02*
X14385659Y-7825574D01*
X14440725Y-4702682D02*
X14470725Y-4732682D01*
X14470725Y-4702682D02*
X14440725Y-4732682D01*
X14509430Y-5892444D02*
X14539430Y-5922444D01*
X14539430Y-5892444D02*
X14509430Y-5922444D01*
X14575055Y-4056829D02*
X14605055Y-4086829D01*
X14605055Y-4056829D02*
X14575055Y-4086829D01*
X14650630Y-5569854D02*
X14680630Y-5599854D01*
X14680630Y-5569854D02*
X14650630Y-5599854D01*
X14788280Y-8866577D02*
X14818280Y-8896577D01*
X14818280Y-8866577D02*
X14788280Y-8896577D01*
X14904352Y-12119032D02*
X14934352Y-12149032D01*
X14934352Y-12119032D02*
X14904352Y-12149032D01*
X15004097Y-9923909D02*
X15034097Y-9953909D01*
X15034097Y-9923909D02*
X15004097Y-9953909D01*
X15073517Y-10955442D02*
X15103517Y-10985442D01*
X15103517Y-10955442D02*
X15073517Y-10985442D01*
X15098735Y-8101774D02*
X15128735Y-8131774D01*
X15128735Y-8101774D02*
X15098735Y-8131774D01*
X15213234Y-9669917D02*
X15243234Y-9699917D01*
X15243234Y-9669917D02*
X15213234Y-9699917D01*
X15288842Y-8582387D02*
X15318842Y-8612387D01*
X15318842Y-8582387D02*
X15288842Y-8612387D01*
X15299775Y-4265702D02*
X15329775Y-4295702D01*
X15329775Y-4265702D02*
X15299775Y-4295702D01*
X15327366Y-7844926D02*
X15357366Y-7874926D01*
X15357366Y-7844926D02*
X15327366Y-7874926D01*
X15400507Y-6105370D02*
X15430507Y-6135370D01*
X15430507Y-6105370D02*
X15400507Y-6135370D01*
X15412911Y-5868696D02*
X15442911Y-5898696D01*
X15442911Y-5868696D02*
X15412911Y-5898696D01*
X15467385Y-6704154D02*
X15497385Y-6734154D01*
X15497385Y-6704154D02*
X15467385Y-6734154D01*
X15470932Y-9215923D02*
X15500932Y-9245923D01*
X15500932Y-9215923D02*
X15470932Y-9245923D01*
X15502746Y-4107449D02*
X15532746Y-4137449D01*
X15532746Y-4107449D02*
X15502746Y-4137449D01*
X15503483Y-4782912D02*
X15533483Y-4812912D01*
X15533483Y-4782912D02*
X15503483Y-4812912D01*
X15541934Y-2797704D02*
X15571934Y-2827704D01*
X15571934Y-2797704D02*
X15541934Y-2827704D01*
X15898004Y-8614310D02*
X15928004Y-8644310D01*
X15928004Y-8614310D02*
X15898004Y-8644310D01*
X16188194Y-10116555D02*
X16218194Y-10146555D01*
X16218194Y-10116555D02*
X16188194Y-10146555D01*
X16188588Y-6891156D02*
X16218588Y-6921156D01*
X16218588Y-6891156D02*
X16188588Y-6921156D01*
X16190682Y-11172642D02*
X16220682Y-11202642D01*
X16220682Y-11172642D02*
X16190682Y-11202642D01*
X16215248Y-8828206D02*
X16245248Y-8858206D01*
X16245248Y-8828206D02*
X16215248Y-8858206D01*
X16256462Y-11535215D02*
X16286462Y-11565215D01*
X16286462Y-11535215D02*
X16256462Y-11565215D01*
X16281113Y-8142249D02*
X16311113Y-8172249D01*
X16311113Y-8142249D02*
X16281113Y-8172249D01*
X16379871Y-6171183D02*
X16409871Y-6201183D01*
X16409871Y-6171183D02*
X16379871Y-6201183D01*
X16564670Y-4145612D02*
X16594670Y-4175612D01*
X16594670Y-4145612D02*
X16564670Y-4175612D01*
X16876618Y-4940492D02*
X16906618Y-4970492D01*
X16906618Y-4940492D02*
X16876618Y-4970492D01*
X16921085Y-12371522D02*
X16951085Y-12401522D01*
X16951085Y-12371522D02*
X16921085Y-12401522D01*
X17116131Y-10093625D02*
X17146131Y-10123625D01*
X17146131Y-10093625D02*
X17116131Y-10123625D01*
X17188398Y-8936786D02*
X17218398Y-8966786D01*
X17218398Y-8936786D02*
X17188398Y-8966786D01*
X17194754Y-8192134D02*
X17224754Y-8222134D01*
X17224754Y-8192134D02*
X17194754Y-8222134D01*
X17280031Y-11299311D02*
X17310031Y-11329311D01*
X17310031Y-11299311D02*
X17280031Y-11329311D01*
X17283103Y-7034135D02*
X17313103Y-7064135D01*
X17313103Y-7034135D02*
X17283103Y-7064135D01*
X17302083Y-6209020D02*
X17332083Y-6239020D01*
X17332083Y-6209020D02*
X17302083Y-6239020D01*
X17377072Y-4456019D02*
X17407072Y-4486019D01*
X17407072Y-4456019D02*
X17377072Y-4486019D01*
X17391791Y-5132216D02*
X17421791Y-5162216D01*
X17421791Y-5132216D02*
X17391791Y-5162216D01*
X17440443Y-3162565D02*
X17470443Y-3192565D01*
X17470443Y-3162565D02*
X17440443Y-3192565D01*
X17471910Y-9130388D02*
X17501910Y-9160388D01*
X17501910Y-9130388D02*
X17471910Y-9160388D01*
X17498347Y-11006175D02*
X17528347Y-11036175D01*
X17528347Y-11006175D02*
X17498347Y-11036175D01*
X17534423Y-10336957D02*
X17564423Y-10366957D01*
X17564423Y-10336957D02*
X17534423Y-10366957D01*
X17646844Y-4410077D02*
X17676844Y-4440077D01*
X17676844Y-4410077D02*
X17646844Y-4440077D01*
X17687762Y-10844053D02*
X17717762Y-10874053D01*
X17717762Y-10844053D02*
X17687762Y-10874053D01*
X17710934Y-5297775D02*
X17740934Y-5327775D01*
X17740934Y-5297775D02*
X17710934Y-5327775D01*
X17924300Y-5586168D02*
X17954300Y-5616168D01*
X17954300Y-5586168D02*
X17924300Y-5616168D01*
X18014944Y-9205914D02*
X18044944Y-9235914D01*
X18044944Y-9205914D02*
X18014944Y-9235914D01*
X18056940Y-11254848D02*
X18086940Y-11284848D01*
X18086940Y-11254848D02*
X18056940Y-11284848D01*
X18075483Y-7286453D02*
X18105483Y-7316453D01*
X18105483Y-7286453D02*
X18075483Y-7316453D01*
X18089522Y-10340907D02*
X18119522Y-10370907D01*
X18119522Y-10340907D02*
X18089522Y-10370907D01*
X18174334Y-8378657D02*
X18204334Y-8408657D01*
X18204334Y-8378657D02*
X18174334Y-8408657D01*
X18181872Y-11566447D02*
X18211872Y-11596447D01*
X18211872Y-11566447D02*
X18181872Y-11596447D01*
X18276857Y-6470873D02*
X18306857Y-6500873D01*
X18306857Y-6470873D02*
X18276857Y-6500873D01*
X18360243Y-4640263D02*
X18390243Y-4670263D01*
X18390243Y-4640263D02*
X18360243Y-4670263D01*
X18606928Y-5266498D02*
X18636928Y-5296498D01*
X18636928Y-5266498D02*
X18606928Y-5296498D01*
X18685608Y-12982676D02*
X18715608Y-13012676D01*
X18715608Y-12982676D02*
X18685608Y-13012676D01*
X18795775Y-5011027D02*
X18825775Y-5041027D01*
X18825775Y-5011027D02*
X18795775Y-5041027D01*
X18983096Y-6782671D02*
X19013096Y-6812671D01*
X19013096Y-6782671D02*
X18983096Y-6812671D01*
X19014306Y-10388371D02*
X19044306Y-10418371D01*
X19044306Y-10388371D02*
X19014306Y-10418371D01*
X19075324Y-9235950D02*
X19105324Y-9265950D01*
X19105324Y-9235950D02*
X19075324Y-9265950D01*
X19079124Y-8559257D02*
X19109124Y-8589257D01*
X19109124Y-8559257D02*
X19079124Y-8589257D01*
X19083022Y-4875879D02*
X19113022Y-4905879D01*
X19113022Y-4875879D02*
X19083022Y-4905879D01*
X19175813Y-8742044D02*
X19205813Y-8772044D01*
X19205813Y-8742044D02*
X19175813Y-8772044D01*
X19185610Y-6518498D02*
X19215610Y-6548498D01*
X19215610Y-6518498D02*
X19185610Y-6548498D01*
X19246235Y-7302745D02*
X19276235Y-7332745D01*
X19276235Y-7302745D02*
X19246235Y-7332745D01*
X19247915Y-11732558D02*
X19277915Y-11762558D01*
X19277915Y-11732558D02*
X19247915Y-11762558D01*
X19308999Y-8224095D02*
X19338999Y-8254095D01*
X19338999Y-8224095D02*
X19308999Y-8254095D01*
X19333367Y-9101774D02*
X19363367Y-9131774D01*
X19363367Y-9101774D02*
X19333367Y-9131774D01*
X19344558Y-11273718D02*
X19374558Y-11303718D01*
X19374558Y-11273718D02*
X19344558Y-11303718D01*
X19360080Y-4688655D02*
X19390080Y-4718655D01*
X19390080Y-4688655D02*
X19360080Y-4718655D01*
X19361537Y-3478538D02*
X19391537Y-3508538D01*
X19391537Y-3478538D02*
X19361537Y-3508538D01*
X19386954Y-8060150D02*
X19416954Y-8090150D01*
X19416954Y-8060150D02*
X19386954Y-8090150D01*
X19403429Y-6309613D02*
X19433429Y-6339613D01*
X19433429Y-6309613D02*
X19403429Y-6339613D01*
X19409266Y-10711201D02*
X19439266Y-10741201D01*
X19439266Y-10711201D02*
X19409266Y-10741201D01*
X19419568Y-11950671D02*
X19449568Y-11980671D01*
X19449568Y-11950671D02*
X19419568Y-11980671D01*
X19441087Y-12287729D02*
X19471087Y-12317729D01*
X19471087Y-12287729D02*
X19441087Y-12317729D01*
X19449663Y-5045297D02*
X19479663Y-5075297D01*
X19479663Y-5045297D02*
X19449663Y-5075297D01*
X19463912Y-9440801D02*
X19493912Y-9470801D01*
X19493912Y-9440801D02*
X19463912Y-9470801D01*
X19491646Y-8911655D02*
X19521646Y-8941655D01*
X19521646Y-8911655D02*
X19491646Y-8941655D01*
X19551591Y-8983280D02*
X19581591Y-9013280D01*
X19581591Y-8983280D02*
X19551591Y-9013280D01*
X19556362Y-7626920D02*
X19586362Y-7656920D01*
X19586362Y-7626920D02*
X19556362Y-7656920D01*
X19576219Y-7343571D02*
X19606219Y-7373571D01*
X19606219Y-7343571D02*
X19576219Y-7373571D01*
X19589098Y-7116935D02*
X19619098Y-7146935D01*
X19619098Y-7116935D02*
X19589098Y-7146935D01*
X19641758Y-7243621D02*
X19671758Y-7273621D01*
X19671758Y-7243621D02*
X19641758Y-7273621D01*
X19651960Y-9571358D02*
X19681960Y-9601358D01*
X19681960Y-9571358D02*
X19651960Y-9601358D01*
X19666079Y-9053368D02*
X19696079Y-9083368D01*
X19696079Y-9053368D02*
X19666079Y-9083368D01*
X19732512Y-7501540D02*
X19762512Y-7531540D01*
X19762512Y-7501540D02*
X19732512Y-7531540D01*
X19733063Y-7756106D02*
X19763063Y-7786106D01*
X19763063Y-7756106D02*
X19733063Y-7786106D01*
X19739170Y-8771568D02*
X19769170Y-8801568D01*
X19769170Y-8771568D02*
X19739170Y-8801568D01*
X19765069Y-8273471D02*
X19795069Y-8303471D01*
X19795069Y-8273471D02*
X19765069Y-8303471D01*
X19849132Y-11209666D02*
X19879132Y-11239666D01*
X19879132Y-11209666D02*
X19849132Y-11239666D01*
X19852040Y-7133718D02*
X19882040Y-7163718D01*
X19882040Y-7133718D02*
X19852040Y-7163718D01*
X19938644Y-5454871D02*
X19968644Y-5484871D01*
X19968644Y-5454871D02*
X19938644Y-5484871D01*
X20185850Y-12023498D02*
X20215850Y-12053498D01*
X20215850Y-12023498D02*
X20185850Y-12053498D01*
X20220642Y-12413170D02*
X20250642Y-12443170D01*
X20250642Y-12413170D02*
X20220642Y-12443170D01*
X20324691Y-14053587D02*
X20354691Y-14083587D01*
X20354691Y-14053587D02*
X20324691Y-14083587D01*
X20404646Y-10005214D02*
X20434646Y-10035214D01*
X20434646Y-10005214D02*
X20404646Y-10035214D01*
X20428506Y-8376680D02*
X20458506Y-8406680D01*
X20458506Y-8376680D02*
X20428506Y-8406680D01*
X20442801Y-6775721D02*
X20472801Y-6805721D01*
X20472801Y-6775721D02*
X20442801Y-6805721D01*
X20498439Y-12183709D02*
X20528439Y-12213709D01*
X20528439Y-12183709D02*
X20498439Y-12213709D01*
X20514126Y-5787612D02*
X20544126Y-5817612D01*
X20544126Y-5787612D02*
X20514126Y-5817612D01*
X20528669Y-12396852D02*
X20558669Y-12426852D01*
X20558669Y-12396852D02*
X20528669Y-12426852D01*
X20565125Y-8444860D02*
X20595125Y-8474860D01*
X20595125Y-8444860D02*
X20565125Y-8474860D01*
X20575073Y-9781082D02*
X20605073Y-9811082D01*
X20605073Y-9781082D02*
X20575073Y-9811082D01*
X20598668Y-12519383D02*
X20628668Y-12549383D01*
X20628668Y-12519383D02*
X20598668Y-12549383D01*
X20626439Y-9694113D02*
X20656439Y-9724113D01*
X20656439Y-9694113D02*
X20626439Y-9724113D01*
X20645541Y-8559225D02*
X20675541Y-8589225D01*
X20675541Y-8559225D02*
X20645541Y-8589225D01*
X20657371Y-6667229D02*
X20687371Y-6697229D01*
X20687371Y-6667229D02*
X20657371Y-6697229D01*
X20669570Y-11640624D02*
X20699570Y-11670624D01*
X20699570Y-11640624D02*
X20669570Y-11670624D01*
X20674249Y-11879198D02*
X20704249Y-11909198D01*
X20704249Y-11879198D02*
X20674249Y-11909198D01*
X20676305Y-9609743D02*
X20706305Y-9639743D01*
X20706305Y-9609743D02*
X20676305Y-9639743D01*
X20689515Y-13425630D02*
X20719515Y-13455630D01*
X20719515Y-13425630D02*
X20689515Y-13455630D01*
X20820936Y-8486934D02*
X20850936Y-8516934D01*
X20850936Y-8486934D02*
X20820936Y-8516934D01*
X20865812Y-8559818D02*
X20895812Y-8589818D01*
X20895812Y-8559818D02*
X20865812Y-8589818D01*
X20917388Y-13185500D02*
X20947388Y-13215500D01*
X20947388Y-13185500D02*
X20917388Y-13215500D01*
X20943809Y-12121472D02*
X20973809Y-12151472D01*
X20973809Y-12121472D02*
X20943809Y-12151472D01*
X20975565Y-8567411D02*
X21005565Y-8597411D01*
X21005565Y-8567411D02*
X20975565Y-8597411D01*
X21103129Y-14931536D02*
X21133129Y-14961536D01*
X21133129Y-14931536D02*
X21103129Y-14961536D01*
X21130508Y-12142619D02*
X21160508Y-12172619D01*
X21160508Y-12142619D02*
X21130508Y-12172619D01*
X21169361Y-6948407D02*
X21199361Y-6978407D01*
X21199361Y-6948407D02*
X21169361Y-6978407D01*
X21225412Y-8477438D02*
X21255412Y-8507438D01*
X21255412Y-8477438D02*
X21225412Y-8507438D01*
X21233062Y-7834530D02*
X21263062Y-7864530D01*
X21263062Y-7834530D02*
X21233062Y-7864530D01*
X21246669Y-8089593D02*
X21276669Y-8119593D01*
X21276669Y-8089593D02*
X21246669Y-8119593D01*
X21251955Y-13190782D02*
X21281955Y-13220782D01*
X21281955Y-13190782D02*
X21251955Y-13220782D01*
X21252346Y-7581193D02*
X21282346Y-7611193D01*
X21282346Y-7581193D02*
X21252346Y-7611193D01*
X21256275Y-8561191D02*
X21286275Y-8591191D01*
X21286275Y-8561191D02*
X21256275Y-8591191D01*
X21267824Y-8345050D02*
X21297824Y-8375050D01*
X21297824Y-8345050D02*
X21267824Y-8375050D01*
X21276623Y-7328118D02*
X21306623Y-7358118D01*
X21306623Y-7328118D02*
X21276623Y-7358118D01*
X21305746Y-7075295D02*
X21335746Y-7105295D01*
X21335746Y-7075295D02*
X21305746Y-7105295D01*
X21313049Y-6821325D02*
X21343049Y-6851325D01*
X21343049Y-6821325D02*
X21313049Y-6851325D01*
X21327093Y-10490095D02*
X21357093Y-10520095D01*
X21357093Y-10490095D02*
X21327093Y-10520095D01*
X21416428Y-10963953D02*
X21446428Y-10993953D01*
X21446428Y-10963953D02*
X21416428Y-10993953D01*
X21489678Y-13246807D02*
X21519678Y-13276807D01*
X21519678Y-13246807D02*
X21489678Y-13276807D01*
X21637673Y-13090850D02*
X21667673Y-13120850D01*
X21667673Y-13090850D02*
X21637673Y-13120850D01*
X21717915Y-10780683D02*
X21747915Y-10810683D01*
X21747915Y-10780683D02*
X21717915Y-10810683D01*
X21756439Y-10884714D02*
X21786439Y-10914714D01*
X21786439Y-10884714D02*
X21756439Y-10914714D01*
X21771498Y-11168953D02*
X21801498Y-11198953D01*
X21801498Y-11168953D02*
X21771498Y-11198953D01*
X21889740Y-12533222D02*
X21919740Y-12563222D01*
X21919740Y-12533222D02*
X21889740Y-12563222D01*
X21894304Y-10819545D02*
X21924304Y-10849545D01*
X21924304Y-10819545D02*
X21894304Y-10849545D01*
X21905119Y-13606659D02*
X21935119Y-13636659D01*
X21935119Y-13606659D02*
X21905119Y-13636659D01*
X21960387Y-13853409D02*
X21990387Y-13883409D01*
X21990387Y-13853409D02*
X21960387Y-13883409D01*
X21967772Y-8736733D02*
X21997772Y-8766733D01*
X21997772Y-8736733D02*
X21967772Y-8766733D01*
X22014532Y-8599478D02*
X22044532Y-8629478D01*
X22044532Y-8599478D02*
X22014532Y-8629478D01*
X22017354Y-7112588D02*
X22047354Y-7142588D01*
X22047354Y-7112588D02*
X22017354Y-7142588D01*
X22067966Y-11257886D02*
X22097966Y-11287886D01*
X22097966Y-11257886D02*
X22067966Y-11287886D01*
X22104545Y-6862810D02*
X22134545Y-6892810D01*
X22134545Y-6862810D02*
X22104545Y-6892810D01*
X22168704Y-6851665D02*
X22198704Y-6881665D01*
X22198704Y-6851665D02*
X22168704Y-6881665D01*
X22171939Y-13596052D02*
X22201939Y-13626052D01*
X22201939Y-13596052D02*
X22171939Y-13626052D01*
X22415617Y-13339269D02*
X22445617Y-13369269D01*
X22445617Y-13339269D02*
X22415617Y-13369269D01*
X22613879Y-13147336D02*
X22643879Y-13177336D01*
X22643879Y-13147336D02*
X22613879Y-13177336D01*
X23465207Y-12224878D02*
X23495207Y-12254878D01*
X23495207Y-12224878D02*
X23465207Y-12254878D01*
X8744126Y-8030524D02*
G75*
G03*
X8744126Y-8030524I-20000J0D01*
G01*
X8750130Y-6179522D02*
G75*
G03*
X8750130Y-6179522I-20000J0D01*
G01*
X8753124Y-4274523D02*
G75*
G03*
X8753124Y-4274523I-20000J0D01*
G01*
X8759838Y-9989522D02*
G75*
G03*
X8759838Y-9989522I-20000J0D01*
G01*
X9299128Y-4675441D02*
G75*
G03*
X9299128Y-4675441I-20000J0D01*
G01*
X9544125Y-4710525D02*
G75*
G03*
X9544125Y-4710525I-20000J0D01*
G01*
X9546024Y-6576336D02*
G75*
G03*
X9546024Y-6576336I-20000J0D01*
G01*
X9584129Y-8280523D02*
G75*
G03*
X9584129Y-8280523I-20000J0D01*
G01*
X9596024Y-9995336D02*
G75*
G03*
X9596024Y-9995336I-20000J0D01*
G01*
X9631502Y-13321098D02*
G75*
G03*
X9631502Y-13321098I-20000J0D01*
G01*
X9779127Y-6455524D02*
G75*
G03*
X9779127Y-6455524I-20000J0D01*
G01*
X9779129Y-8280525D02*
G75*
G03*
X9779129Y-8280525I-20000J0D01*
G01*
X9829480Y-10524998D02*
G75*
G03*
X9829480Y-10524998I-20000J0D01*
G01*
X10243024Y-8234336D02*
G75*
G03*
X10243024Y-8234336I-20000J0D01*
G01*
X10320014Y-13367259D02*
G75*
G03*
X10320014Y-13367259I-20000J0D01*
G01*
X10335316Y-12789512D02*
G75*
G03*
X10335316Y-12789512I-20000J0D01*
G01*
X10347023Y-12013438D02*
G75*
G03*
X10347023Y-12013438I-20000J0D01*
G01*
X10414124Y-4790523D02*
G75*
G03*
X10414124Y-4790523I-20000J0D01*
G01*
X10414125Y-4315524D02*
G75*
G03*
X10414125Y-4315524I-20000J0D01*
G01*
X10414126Y-4640236D02*
G75*
G03*
X10414126Y-4640236I-20000J0D01*
G01*
X10422023Y-10366336D02*
G75*
G03*
X10422023Y-10366336I-20000J0D01*
G01*
X10444129Y-6605526D02*
G75*
G03*
X10444129Y-6605526I-20000J0D01*
G01*
X10504437Y-13049933D02*
G75*
G03*
X10504437Y-13049933I-20000J0D01*
G01*
X10658838Y-9985522D02*
G75*
G03*
X10658838Y-9985522I-20000J0D01*
G01*
X10659124Y-4790527D02*
G75*
G03*
X10659124Y-4790527I-20000J0D01*
G01*
X10746837Y-8084524D02*
G75*
G03*
X10746837Y-8084524I-20000J0D01*
G01*
X11088126Y-6179523D02*
G75*
G03*
X11088126Y-6179523I-20000J0D01*
G01*
X11204127Y-10383441D02*
G75*
G03*
X11204127Y-10383441I-20000J0D01*
G01*
X11479130Y-8490523D02*
G75*
G03*
X11479130Y-8490523I-20000J0D01*
G01*
X11499126Y-4350525D02*
G75*
G03*
X11499126Y-4350525I-20000J0D01*
G01*
X11512008Y-6502090D02*
G75*
G03*
X11512008Y-6502090I-20000J0D01*
G01*
X11694126Y-5095524D02*
G75*
G03*
X11694126Y-5095524I-20000J0D01*
G01*
X11784129Y-8490526D02*
G75*
G03*
X11784129Y-8490526I-20000J0D01*
G01*
X11789129Y-6375522D02*
G75*
G03*
X11789129Y-6375522I-20000J0D01*
G01*
X11831628Y-10143024D02*
G75*
G03*
X11831628Y-10143024I-20000J0D01*
G01*
X11874127Y-9733374D02*
G75*
G03*
X11874127Y-9733374I-20000J0D01*
G01*
X11874129Y-7970523D02*
G75*
G03*
X11874129Y-7970523I-20000J0D01*
G01*
X11879127Y-5570524D02*
G75*
G03*
X11879127Y-5570524I-20000J0D01*
G01*
X11979883Y-6218852D02*
G75*
G03*
X11979883Y-6218852I-20000J0D01*
G01*
X12380339Y-6485439D02*
G75*
G03*
X12380339Y-6485439I-20000J0D01*
G01*
X12541377Y-3890313D02*
G75*
G03*
X12541377Y-3890313I-20000J0D01*
G01*
X12597637Y-9665168D02*
G75*
G03*
X12597637Y-9665168I-20000J0D01*
G01*
X12635850Y-4476060D02*
G75*
G03*
X12635850Y-4476060I-20000J0D01*
G01*
X12656523Y-4081600D02*
G75*
G03*
X12656523Y-4081600I-20000J0D01*
G01*
X12660087Y-10131150D02*
G75*
G03*
X12660087Y-10131150I-20000J0D01*
G01*
X12690346Y-7762412D02*
G75*
G03*
X12690346Y-7762412I-20000J0D01*
G01*
X12796040Y-5860334D02*
G75*
G03*
X12796040Y-5860334I-20000J0D01*
G01*
X12852778Y-11066768D02*
G75*
G03*
X12852778Y-11066768I-20000J0D01*
G01*
X13255203Y-10341665D02*
G75*
G03*
X13255203Y-10341665I-20000J0D01*
G01*
X13309804Y-6328872D02*
G75*
G03*
X13309804Y-6328872I-20000J0D01*
G01*
X13381617Y-10134379D02*
G75*
G03*
X13381617Y-10134379I-20000J0D01*
G01*
X13501328Y-8174959D02*
G75*
G03*
X13501328Y-8174959I-20000J0D01*
G01*
X13686240Y-3999378D02*
G75*
G03*
X13686240Y-3999378I-20000J0D01*
G01*
X13698278Y-4345998D02*
G75*
G03*
X13698278Y-4345998I-20000J0D01*
G01*
X13747654Y-6476990D02*
G75*
G03*
X13747654Y-6476990I-20000J0D01*
G01*
X13797941Y-8096841D02*
G75*
G03*
X13797941Y-8096841I-20000J0D01*
G01*
X13816475Y-10866680D02*
G75*
G03*
X13816475Y-10866680I-20000J0D01*
G01*
X14007264Y-4007191D02*
G75*
G03*
X14007264Y-4007191I-20000J0D01*
G01*
X14118466Y-9585654D02*
G75*
G03*
X14118466Y-9585654I-20000J0D01*
G01*
X14392407Y-5829846D02*
G75*
G03*
X14392407Y-5829846I-20000J0D01*
G01*
X14492393Y-9921688D02*
G75*
G03*
X14492393Y-9921688I-20000J0D01*
G01*
X14608683Y-3836761D02*
G75*
G03*
X14608683Y-3836761I-20000J0D01*
G01*
X14610811Y-7612719D02*
G75*
G03*
X14610811Y-7612719I-20000J0D01*
G01*
X14785674Y-4246793D02*
G75*
G03*
X14785674Y-4246793I-20000J0D01*
G01*
X14906407Y-10967659D02*
G75*
G03*
X14906407Y-10967659I-20000J0D01*
G01*
X15120576Y-10835887D02*
G75*
G03*
X15120576Y-10835887I-20000J0D01*
G01*
X15150788Y-10733942D02*
G75*
G03*
X15150788Y-10733942I-20000J0D01*
G01*
X15319925Y-9894959D02*
G75*
G03*
X15319925Y-9894959I-20000J0D01*
G01*
X15482773Y-8335346D02*
G75*
G03*
X15482773Y-8335346I-20000J0D01*
G01*
X15508156Y-7851009D02*
G75*
G03*
X15508156Y-7851009I-20000J0D01*
G01*
X15563256Y-5700946D02*
G75*
G03*
X15563256Y-5700946I-20000J0D01*
G01*
X15626020Y-9614593D02*
G75*
G03*
X15626020Y-9614593I-20000J0D01*
G01*
X15683414Y-4201180D02*
G75*
G03*
X15683414Y-4201180I-20000J0D01*
G01*
X15686991Y-8451192D02*
G75*
G03*
X15686991Y-8451192I-20000J0D01*
G01*
X15794959Y-7979719D02*
G75*
G03*
X15794959Y-7979719I-20000J0D01*
G01*
X15804222Y-6214259D02*
G75*
G03*
X15804222Y-6214259I-20000J0D01*
G01*
X15811748Y-7675657D02*
G75*
G03*
X15811748Y-7675657I-20000J0D01*
G01*
X15908654Y-4317127D02*
G75*
G03*
X15908654Y-4317127I-20000J0D01*
G01*
X15911131Y-5989548D02*
G75*
G03*
X15911131Y-5989548I-20000J0D01*
G01*
X16019122Y-11090616D02*
G75*
G03*
X16019122Y-11090616I-20000J0D01*
G01*
X16377214Y-10280231D02*
G75*
G03*
X16377214Y-10280231I-20000J0D01*
G01*
X16397420Y-9864308D02*
G75*
G03*
X16397420Y-9864308I-20000J0D01*
G01*
X16427403Y-6647470D02*
G75*
G03*
X16427403Y-6647470I-20000J0D01*
G01*
X16481272Y-4282048D02*
G75*
G03*
X16481272Y-4282048I-20000J0D01*
G01*
X16497118Y-7961919D02*
G75*
G03*
X16497118Y-7961919I-20000J0D01*
G01*
X16604394Y-6059927D02*
G75*
G03*
X16604394Y-6059927I-20000J0D01*
G01*
X17113803Y-6683440D02*
G75*
G03*
X17113803Y-6683440I-20000J0D01*
G01*
X17168521Y-11387424D02*
G75*
G03*
X17168521Y-11387424I-20000J0D01*
G01*
X17280667Y-10254604D02*
G75*
G03*
X17280667Y-10254604I-20000J0D01*
G01*
X17336226Y-8376766D02*
G75*
G03*
X17336226Y-8376766I-20000J0D01*
G01*
X17480959Y-6702682D02*
G75*
G03*
X17480959Y-6702682I-20000J0D01*
G01*
X17492712Y-6382860D02*
G75*
G03*
X17492712Y-6382860I-20000J0D01*
G01*
X17528516Y-4314399D02*
G75*
G03*
X17528516Y-4314399I-20000J0D01*
G01*
X17544471Y-10267625D02*
G75*
G03*
X17544471Y-10267625I-20000J0D01*
G01*
X17644312Y-8362567D02*
G75*
G03*
X17644312Y-8362567I-20000J0D01*
G01*
X17668325Y-4321725D02*
G75*
G03*
X17668325Y-4321725I-20000J0D01*
G01*
X17954524Y-10277370D02*
G75*
G03*
X17954524Y-10277370I-20000J0D01*
G01*
X18224568Y-6621489D02*
G75*
G03*
X18224568Y-6621489I-20000J0D01*
G01*
X18290603Y-10158793D02*
G75*
G03*
X18290603Y-10158793I-20000J0D01*
G01*
X18371485Y-11481232D02*
G75*
G03*
X18371485Y-11481232I-20000J0D01*
G01*
X18391233Y-8249856D02*
G75*
G03*
X18391233Y-8249856I-20000J0D01*
G01*
X18409925Y-4508832D02*
G75*
G03*
X18409925Y-4508832I-20000J0D01*
G01*
X18438500Y-6368753D02*
G75*
G03*
X18438500Y-6368753I-20000J0D01*
G01*
X18885262Y-5224154D02*
G75*
G03*
X18885262Y-5224154I-20000J0D01*
G01*
X18907195Y-8815368D02*
G75*
G03*
X18907195Y-8815368I-20000J0D01*
G01*
X19138274Y-4485383D02*
G75*
G03*
X19138274Y-4485383I-20000J0D01*
G01*
X19159056Y-10317799D02*
G75*
G03*
X19159056Y-10317799I-20000J0D01*
G01*
X19194394Y-6777459D02*
G75*
G03*
X19194394Y-6777459I-20000J0D01*
G01*
X19201337Y-4925285D02*
G75*
G03*
X19201337Y-4925285I-20000J0D01*
G01*
X19250377Y-6951172D02*
G75*
G03*
X19250377Y-6951172I-20000J0D01*
G01*
X19257898Y-11933524D02*
G75*
G03*
X19257898Y-11933524I-20000J0D01*
G01*
X19381274Y-10329050D02*
G75*
G03*
X19381274Y-10329050I-20000J0D01*
G01*
X19419945Y-11652846D02*
G75*
G03*
X19419945Y-11652846I-20000J0D01*
G01*
X19431437Y-9371930D02*
G75*
G03*
X19431437Y-9371930I-20000J0D01*
G01*
X19458966Y-8846642D02*
G75*
G03*
X19458966Y-8846642I-20000J0D01*
G01*
X19515184Y-10967779D02*
G75*
G03*
X19515184Y-10967779I-20000J0D01*
G01*
X19550919Y-10224558D02*
G75*
G03*
X19550919Y-10224558I-20000J0D01*
G01*
X19684872Y-6973857D02*
G75*
G03*
X19684872Y-6973857I-20000J0D01*
G01*
X19732084Y-11837136D02*
G75*
G03*
X19732084Y-11837136I-20000J0D01*
G01*
X19733008Y-6124737D02*
G75*
G03*
X19733008Y-6124737I-20000J0D01*
G01*
X19776737Y-5310427D02*
G75*
G03*
X19776737Y-5310427I-20000J0D01*
G01*
X19818257Y-11142758D02*
G75*
G03*
X19818257Y-11142758I-20000J0D01*
G01*
X20277301Y-12602334D02*
G75*
G03*
X20277301Y-12602334I-20000J0D01*
G01*
X20319352Y-12343998D02*
G75*
G03*
X20319352Y-12343998I-20000J0D01*
G01*
X20344853Y-9265159D02*
G75*
G03*
X20344853Y-9265159I-20000J0D01*
G01*
X20450477Y-6264426D02*
G75*
G03*
X20450477Y-6264426I-20000J0D01*
G01*
X20493854Y-12041757D02*
G75*
G03*
X20493854Y-12041757I-20000J0D01*
G01*
X20623294Y-6299258D02*
G75*
G03*
X20623294Y-6299258I-20000J0D01*
G01*
X20703193Y-9243455D02*
G75*
G03*
X20703193Y-9243455I-20000J0D01*
G01*
X20816337Y-11570040D02*
G75*
G03*
X20816337Y-11570040I-20000J0D01*
G01*
X20978718Y-5537669D02*
G75*
G03*
X20978718Y-5537669I-20000J0D01*
G01*
X21027430Y-5964805D02*
G75*
G03*
X21027430Y-5964805I-20000J0D01*
G01*
X21099136Y-13191601D02*
G75*
G03*
X21099136Y-13191601I-20000J0D01*
G01*
X21273672Y-5508067D02*
G75*
G03*
X21273672Y-5508067I-20000J0D01*
G01*
X21297944Y-12932990D02*
G75*
G03*
X21297944Y-12932990I-20000J0D01*
G01*
X21359244Y-12716971D02*
G75*
G03*
X21359244Y-12716971I-20000J0D01*
G01*
X21389102Y-6339391D02*
G75*
G03*
X21389102Y-6339391I-20000J0D01*
G01*
X21402635Y-5913371D02*
G75*
G03*
X21402635Y-5913371I-20000J0D01*
G01*
X21802951Y-13362669D02*
G75*
G03*
X21802951Y-13362669I-20000J0D01*
G01*
X21803892Y-12644050D02*
G75*
G03*
X21803892Y-12644050I-20000J0D01*
G01*
X21807412Y-8461397D02*
G75*
G03*
X21807412Y-8461397I-20000J0D01*
G01*
X21853467Y-7582603D02*
G75*
G03*
X21853467Y-7582603I-20000J0D01*
G01*
X21853741Y-9303752D02*
G75*
G03*
X21853741Y-9303752I-20000J0D01*
G01*
X21909724Y-6490051D02*
G75*
G03*
X21909724Y-6490051I-20000J0D01*
G01*
X21928026Y-7886287D02*
G75*
G03*
X21928026Y-7886287I-20000J0D01*
G01*
X22031189Y-11131069D02*
G75*
G03*
X22031189Y-11131069I-20000J0D01*
G01*
X22185594Y-13822401D02*
G75*
G03*
X22185594Y-13822401I-20000J0D01*
G01*
X22249172Y-8765862D02*
G75*
G03*
X22249172Y-8765862I-20000J0D01*
G01*
X22263826Y-8486245D02*
G75*
G03*
X22263826Y-8486245I-20000J0D01*
G01*
X22520852Y-7691201D02*
G75*
G03*
X22520852Y-7691201I-20000J0D01*
G01*
X22528794Y-8780513D02*
G75*
G03*
X22528794Y-8780513I-20000J0D01*
G01*
X22543448Y-8500896D02*
G75*
G03*
X22543448Y-8500896I-20000J0D01*
G01*
X22669686Y-7856346D02*
G75*
G03*
X22669686Y-7856346I-20000J0D01*
G01*
X22801429Y-13180270D02*
G75*
G03*
X22801429Y-13180270I-20000J0D01*
G01*
X21305701Y-9838503D02*
X21305701Y-9888503D01*
X21280701Y-9863503D02*
X21330701Y-9863503D01*
X21361410Y-9851402D02*
X21251561Y-9845645D01*
X21359840Y-9881361D02*
X21249991Y-9875604D01*
X21251561Y-9845645D02*
G75*
G03*
X21249991Y-9875604I-785J-14979D01*
G01*
X21359840Y-9881361D02*
G75*
G03*
X21361410Y-9851402I785J14979D01*
G01*
X21318523Y-9593839D02*
X21318523Y-9643839D01*
X21293523Y-9618839D02*
X21343523Y-9618839D01*
X21374233Y-9606738D02*
X21264383Y-9600981D01*
X21372663Y-9636697D02*
X21262813Y-9630940D01*
X21264383Y-9600981D02*
G75*
G03*
X21262813Y-9630940I-785J-14979D01*
G01*
X21372663Y-9636697D02*
G75*
G03*
X21374233Y-9606738I785J14979D01*
G01*
X21446336Y-10021114D02*
X21446336Y-10071114D01*
X21421336Y-10046114D02*
X21471336Y-10046114D01*
X21502046Y-10034013D02*
X21392197Y-10028256D01*
X21500476Y-10063971D02*
X21390627Y-10058215D01*
X21392197Y-10028256D02*
G75*
G03*
X21390627Y-10058214I-785J-14979D01*
G01*
X21500476Y-10063971D02*
G75*
G03*
X21502046Y-10034013I785J14979D01*
G01*
X21477476Y-9426929D02*
X21477476Y-9476929D01*
X21452476Y-9451929D02*
X21502476Y-9451929D01*
X21533186Y-9439828D02*
X21423337Y-9434071D01*
X21531616Y-9469787D02*
X21421767Y-9464030D01*
X21423337Y-9434071D02*
G75*
G03*
X21421767Y-9464030I-785J-14979D01*
G01*
X21531616Y-9469787D02*
G75*
G03*
X21533186Y-9439828I785J14979D01*
G01*
X21845788Y-10042048D02*
X21845788Y-10092048D01*
X21820788Y-10067048D02*
X21870788Y-10067048D01*
X21901498Y-10054947D02*
X21791649Y-10049190D01*
X21899928Y-10084906D02*
X21790078Y-10079149D01*
X21791649Y-10049190D02*
G75*
G03*
X21790079Y-10079149I-785J-14979D01*
G01*
X21899928Y-10084906D02*
G75*
G03*
X21901498Y-10054947I785J14979D01*
G01*
X21876928Y-9447863D02*
X21876928Y-9497863D01*
X21851928Y-9472863D02*
X21901928Y-9472863D01*
X21932638Y-9460762D02*
X21822788Y-9455005D01*
X21931068Y-9490721D02*
X21821218Y-9484964D01*
X21822788Y-9455005D02*
G75*
G03*
X21821218Y-9484964I-785J-14979D01*
G01*
X21931068Y-9490721D02*
G75*
G03*
X21932638Y-9460762I785J14979D01*
G01*
X22145377Y-10057749D02*
X22145377Y-10107749D01*
X22120377Y-10082749D02*
X22170377Y-10082749D01*
X22201087Y-10070648D02*
X22091237Y-10064891D01*
X22199517Y-10100607D02*
X22089667Y-10094850D01*
X22091237Y-10064891D02*
G75*
G03*
X22089667Y-10094850I-785J-14979D01*
G01*
X22199517Y-10100607D02*
G75*
G03*
X22201087Y-10070648I785J14979D01*
G01*
X22176517Y-9463564D02*
X22176517Y-9513564D01*
X22151517Y-9488564D02*
X22201517Y-9488564D01*
X22232227Y-9476463D02*
X22122377Y-9470706D01*
X22230657Y-9506422D02*
X22120807Y-9500665D01*
X22122377Y-9470706D02*
G75*
G03*
X22120807Y-9500665I-785J-14979D01*
G01*
X22230657Y-9506422D02*
G75*
G03*
X22232227Y-9476463I785J14979D01*
G01*
X8223031Y-7864475D02*
X8223031Y-7807001D01*
X8165557Y-7807001D01*
X8165557Y-7864475D01*
X8223031Y-7864475D01*
X8223031Y-8574475D02*
X8223031Y-8517001D01*
X8165557Y-8517001D01*
X8165557Y-8574475D01*
X8223031Y-8574475D01*
X8227864Y-9764262D02*
X8227864Y-9706788D01*
X8170389Y-9706788D01*
X8170389Y-9764262D01*
X8227864Y-9764262D01*
X8227864Y-10474262D02*
X8227864Y-10416788D01*
X8170389Y-10416788D01*
X8170389Y-10474262D01*
X8227864Y-10474262D01*
X8227865Y-5954261D02*
X8227865Y-5896787D01*
X8170391Y-5896787D01*
X8170391Y-5954261D01*
X8227865Y-5954261D01*
X8227865Y-6664261D02*
X8227865Y-6606787D01*
X8170391Y-6606787D01*
X8170391Y-6664261D01*
X8227865Y-6664261D01*
X8227866Y-4044265D02*
X8227866Y-3986790D01*
X8170392Y-3986790D01*
X8170392Y-4044265D01*
X8227866Y-4044265D01*
X8227866Y-4754265D02*
X8227866Y-4696791D01*
X8170392Y-4696791D01*
X8170392Y-4754265D01*
X8227866Y-4754265D01*
X9066951Y-13435968D02*
X9066951Y-13378494D01*
X9009476Y-13378494D01*
X9009476Y-13435968D01*
X9066951Y-13435968D01*
X9453644Y-14031424D02*
X9453644Y-13973950D01*
X9396170Y-13973950D01*
X9396170Y-14031424D01*
X9453644Y-14031424D01*
X9982868Y-9744263D02*
X9982868Y-9686789D01*
X9925394Y-9686789D01*
X9925394Y-9744263D01*
X9982868Y-9744263D01*
X9982868Y-10454263D02*
X9982868Y-10396789D01*
X9925394Y-10396789D01*
X9925394Y-10454263D01*
X9982868Y-10454263D01*
X9985861Y-3815262D02*
X9985861Y-3757788D01*
X9928387Y-3757788D01*
X9928387Y-3815262D01*
X9985861Y-3815262D01*
X9985861Y-4525262D02*
X9985861Y-4467788D01*
X9928387Y-4467788D01*
X9928387Y-4525262D01*
X9985861Y-4525262D01*
X9987865Y-7739262D02*
X9987865Y-7681788D01*
X9930390Y-7681788D01*
X9930390Y-7739262D01*
X9987865Y-7739262D01*
X9987865Y-8449263D02*
X9987865Y-8391788D01*
X9930390Y-8391788D01*
X9930390Y-8449263D01*
X9987865Y-8449263D01*
X9987866Y-5834263D02*
X9987866Y-5776789D01*
X9930392Y-5776789D01*
X9930392Y-5834263D01*
X9987866Y-5834263D01*
X9987866Y-6544263D02*
X9987866Y-6486789D01*
X9930392Y-6486789D01*
X9930392Y-6544263D01*
X9987866Y-6544263D01*
X12049302Y-10131350D02*
X12049302Y-10073875D01*
X11991827Y-10073875D01*
X11991827Y-10131350D01*
X12049302Y-10131350D01*
X12086460Y-9422323D02*
X12086460Y-9364848D01*
X12028986Y-9364848D01*
X12028986Y-9422323D01*
X12086460Y-9422323D01*
X12149262Y-8223970D02*
X12149262Y-8166495D01*
X12091788Y-8166495D01*
X12091788Y-8223970D01*
X12149262Y-8223970D01*
X12186421Y-7514943D02*
X12186421Y-7457468D01*
X12128947Y-7457468D01*
X12128947Y-7514943D01*
X12186421Y-7514943D01*
X12249225Y-6316589D02*
X12249225Y-6259115D01*
X12191751Y-6259115D01*
X12191751Y-6316589D01*
X12249225Y-6316589D01*
X12286383Y-5607562D02*
X12286383Y-5550088D01*
X12228909Y-5550088D01*
X12228909Y-5607562D01*
X12286383Y-5607562D01*
X12348924Y-4414196D02*
X12348924Y-4356722D01*
X12291449Y-4356722D01*
X12291449Y-4414196D01*
X12348924Y-4414196D01*
X12386082Y-3705169D02*
X12386082Y-3647695D01*
X12328608Y-3647695D01*
X12328608Y-3705169D01*
X12386082Y-3705169D01*
X12690233Y-6499918D02*
X12690233Y-6442444D01*
X12632759Y-6442444D01*
X12632759Y-6499918D01*
X12690233Y-6499918D01*
X13399260Y-6537077D02*
X13399260Y-6479603D01*
X13341786Y-6479603D01*
X13341786Y-6537077D01*
X13399260Y-6537077D01*
X13965034Y-9976402D02*
X13965034Y-9918928D01*
X13907560Y-9918928D01*
X13907560Y-9976402D01*
X13965034Y-9976402D01*
X14002193Y-9267375D02*
X14002193Y-9209901D01*
X13944718Y-9209901D01*
X13944718Y-9267375D01*
X14002193Y-9267375D01*
X14064736Y-8074011D02*
X14064736Y-8016537D01*
X14007262Y-8016537D01*
X14007262Y-8074011D01*
X14064736Y-8074011D01*
X14101894Y-7364984D02*
X14101894Y-7307510D01*
X14044420Y-7307510D01*
X14044420Y-7364984D01*
X14101894Y-7364984D01*
X14264395Y-4264241D02*
X14264395Y-4206766D01*
X14206920Y-4206766D01*
X14206920Y-4264241D01*
X14264395Y-4264241D01*
X14301553Y-3555214D02*
X14301553Y-3497739D01*
X14244079Y-3497739D01*
X14244079Y-3555214D01*
X14301553Y-3555214D01*
X14490433Y-11202096D02*
X14490433Y-11144622D01*
X14432959Y-11144622D01*
X14432959Y-11202096D01*
X14490433Y-11202096D01*
X14527592Y-11911123D02*
X14527592Y-11853649D01*
X14470118Y-11853649D01*
X14470118Y-11911123D01*
X14527592Y-11911123D01*
X15854604Y-10320763D02*
X15854604Y-10263289D01*
X15797130Y-10263289D01*
X15797130Y-10320763D01*
X15854604Y-10320763D01*
X15891762Y-9611736D02*
X15891762Y-9554262D01*
X15834288Y-9554262D01*
X15834288Y-9611736D01*
X15891762Y-9611736D01*
X15956919Y-8368443D02*
X15956919Y-8310969D01*
X15899445Y-8310969D01*
X15899445Y-8368443D01*
X15956919Y-8368443D01*
X15994077Y-7659416D02*
X15994077Y-7601942D01*
X15936603Y-7601942D01*
X15936603Y-7659416D01*
X15994077Y-7659416D01*
X16056619Y-6466056D02*
X16056619Y-6408582D01*
X15999145Y-6408582D01*
X15999145Y-6466056D01*
X16056619Y-6466056D01*
X16093777Y-5757029D02*
X16093777Y-5699555D01*
X16036303Y-5699555D01*
X16036303Y-5757029D01*
X16093777Y-5757029D01*
X16168305Y-4564295D02*
X16168305Y-4506820D01*
X16110831Y-4506820D01*
X16110831Y-4564295D01*
X16168305Y-4564295D01*
X16205463Y-3855268D02*
X16205463Y-3797793D01*
X16147989Y-3797793D01*
X16147989Y-3855268D01*
X16205463Y-3855268D01*
X16533604Y-12058940D02*
X16533604Y-12001466D01*
X16476130Y-12001466D01*
X16476130Y-12058940D01*
X16533604Y-12058940D01*
X16644672Y-11357682D02*
X16644672Y-11300207D01*
X16587198Y-11300207D01*
X16587198Y-11357682D01*
X16644672Y-11357682D01*
X17746264Y-10625186D02*
X17746264Y-10567712D01*
X17688790Y-10567712D01*
X17688790Y-10625186D01*
X17746264Y-10625186D01*
X17752743Y-6680116D02*
X17752743Y-6622642D01*
X17695269Y-6622642D01*
X17695269Y-6680116D01*
X17752743Y-6680116D01*
X17783423Y-9916159D02*
X17783423Y-9858685D01*
X17725949Y-9858685D01*
X17725949Y-9916159D01*
X17783423Y-9916159D01*
X17789901Y-5971089D02*
X17789901Y-5913615D01*
X17732427Y-5913615D01*
X17732427Y-5971089D01*
X17789901Y-5971089D01*
X17846095Y-8720299D02*
X17846095Y-8662825D01*
X17788621Y-8662825D01*
X17788621Y-8720299D01*
X17846095Y-8720299D01*
X17846163Y-4668247D02*
X17846163Y-4610773D01*
X17788689Y-4610773D01*
X17788689Y-4668247D01*
X17846163Y-4668247D01*
X17883254Y-8011272D02*
X17883254Y-7953798D01*
X17825780Y-7953798D01*
X17825780Y-8011272D01*
X17883254Y-8011272D01*
X17883322Y-3959220D02*
X17883322Y-3901746D01*
X17825847Y-3901746D01*
X17825847Y-3959220D01*
X17883322Y-3959220D01*
X18456788Y-12639422D02*
X18456788Y-12581948D01*
X18399314Y-12581948D01*
X18399314Y-12639422D01*
X18456788Y-12639422D01*
X18728494Y-11983468D02*
X18728494Y-11925993D01*
X18671019Y-11925993D01*
X18671019Y-11983468D01*
X18728494Y-11983468D01*
X19708496Y-10378420D02*
X19708496Y-10320946D01*
X19651022Y-10320946D01*
X19651022Y-10378420D01*
X19708496Y-10378420D01*
X19997279Y-9729803D02*
X19997279Y-9672329D01*
X19939805Y-9672329D01*
X19939805Y-9729803D01*
X19997279Y-9729803D01*
X20003304Y-8454836D02*
X20003304Y-8397362D01*
X19945830Y-8397362D01*
X19945830Y-8454836D01*
X20003304Y-8454836D01*
X20016597Y-8201184D02*
X20016597Y-8143710D01*
X19959123Y-8143710D01*
X19959123Y-8201184D01*
X20016597Y-8201184D01*
X20029890Y-7947532D02*
X20029890Y-7890058D01*
X19972416Y-7890058D01*
X19972416Y-7947532D01*
X20029890Y-7947532D01*
X20043184Y-7693880D02*
X20043184Y-7636406D01*
X19985710Y-7636406D01*
X19985710Y-7693880D01*
X20043184Y-7693880D01*
X20056477Y-7440228D02*
X20056477Y-7382754D01*
X19999003Y-7382754D01*
X19999003Y-7440228D01*
X20056477Y-7440228D01*
X20069770Y-7186576D02*
X20069770Y-7129102D01*
X20012296Y-7129102D01*
X20012296Y-7186576D01*
X20069770Y-7186576D01*
X20083064Y-6932924D02*
X20083064Y-6875450D01*
X20025590Y-6875450D01*
X20025590Y-6932924D01*
X20083064Y-6932924D01*
X20096357Y-6679272D02*
X20096357Y-6621798D01*
X20038883Y-6621798D01*
X20038883Y-6679272D01*
X20096357Y-6679272D01*
X20109650Y-6425620D02*
X20109650Y-6368146D01*
X20052176Y-6368146D01*
X20052176Y-6425620D01*
X20109650Y-6425620D01*
X20122944Y-6171969D02*
X20122944Y-6114494D01*
X20065470Y-6114494D01*
X20065470Y-6171969D01*
X20122944Y-6171969D01*
X20126749Y-8581044D02*
X20126749Y-8523570D01*
X20069275Y-8523570D01*
X20069275Y-8581044D01*
X20126749Y-8581044D01*
X20136237Y-5918317D02*
X20136237Y-5860842D01*
X20078763Y-5860842D01*
X20078763Y-5918317D01*
X20136237Y-5918317D01*
X20140043Y-8327392D02*
X20140043Y-8269918D01*
X20082568Y-8269918D01*
X20082568Y-8327392D01*
X20140043Y-8327392D01*
X20149530Y-5664665D02*
X20149530Y-5607191D01*
X20092056Y-5607191D01*
X20092056Y-5664665D01*
X20149530Y-5664665D01*
X20153336Y-8073740D02*
X20153336Y-8016266D01*
X20095862Y-8016266D01*
X20095862Y-8073740D01*
X20153336Y-8073740D01*
X20166629Y-7820088D02*
X20166629Y-7762614D01*
X20109155Y-7762614D01*
X20109155Y-7820088D01*
X20166629Y-7820088D01*
X20179923Y-7566436D02*
X20179923Y-7508962D01*
X20122448Y-7508962D01*
X20122448Y-7566436D01*
X20179923Y-7566436D01*
X20193216Y-7312784D02*
X20193216Y-7255310D01*
X20135742Y-7255310D01*
X20135742Y-7312784D01*
X20193216Y-7312784D01*
X20206509Y-7059132D02*
X20206509Y-7001658D01*
X20149035Y-7001658D01*
X20149035Y-7059132D01*
X20206509Y-7059132D01*
X20219803Y-6805480D02*
X20219803Y-6748006D01*
X20162328Y-6748006D01*
X20162328Y-6805480D01*
X20219803Y-6805480D01*
X20220749Y-13603544D02*
X20220749Y-13546070D01*
X20163275Y-13546070D01*
X20163275Y-13603544D01*
X20220749Y-13603544D01*
X20233096Y-6551829D02*
X20233096Y-6494354D01*
X20175622Y-6494354D01*
X20175622Y-6551829D01*
X20233096Y-6551829D01*
X20246389Y-6298177D02*
X20246389Y-6240702D01*
X20188915Y-6240702D01*
X20188915Y-6298177D01*
X20246389Y-6298177D01*
X20259683Y-6044525D02*
X20259683Y-5987051D01*
X20202208Y-5987051D01*
X20202208Y-6044525D01*
X20259683Y-6044525D01*
X20272976Y-5790873D02*
X20272976Y-5733399D01*
X20215502Y-5733399D01*
X20215502Y-5790873D01*
X20272976Y-5790873D01*
X20292889Y-5410844D02*
X20292889Y-5353370D01*
X20235415Y-5353370D01*
X20235415Y-5410844D01*
X20292889Y-5410844D01*
X20638077Y-13029142D02*
X20638077Y-12971668D01*
X20580603Y-12971668D01*
X20580603Y-13029142D01*
X20638077Y-13029142D01*
X20908504Y-9084159D02*
X20908504Y-9026684D01*
X20851029Y-9026684D01*
X20851029Y-9084159D01*
X20908504Y-9084159D01*
X21162155Y-9097452D02*
X21162155Y-9039978D01*
X21104681Y-9039978D01*
X21104681Y-9097452D01*
X21162155Y-9097452D01*
X21415807Y-9110745D02*
X21415807Y-9053271D01*
X21358333Y-9053271D01*
X21358333Y-9110745D01*
X21415807Y-9110745D01*
X21525215Y-8534596D02*
X21525215Y-8477122D01*
X21467741Y-8477122D01*
X21467741Y-8534596D01*
X21525215Y-8534596D01*
X21538508Y-8280944D02*
X21538508Y-8223470D01*
X21481034Y-8223470D01*
X21481034Y-8280944D01*
X21538508Y-8280944D01*
X21551802Y-8027292D02*
X21551802Y-7969818D01*
X21494328Y-7969818D01*
X21494328Y-8027292D01*
X21551802Y-8027292D01*
X21565095Y-7773640D02*
X21565095Y-7716166D01*
X21507621Y-7716166D01*
X21507621Y-7773640D01*
X21565095Y-7773640D01*
X21578388Y-7519988D02*
X21578388Y-7462514D01*
X21520914Y-7462514D01*
X21520914Y-7519988D01*
X21578388Y-7519988D01*
X21591682Y-7266336D02*
X21591682Y-7208862D01*
X21534208Y-7208862D01*
X21534208Y-7266336D01*
X21591682Y-7266336D01*
X21604975Y-7012684D02*
X21604975Y-6955210D01*
X21547501Y-6955210D01*
X21547501Y-7012684D01*
X21604975Y-7012684D01*
X21618268Y-6759032D02*
X21618268Y-6701558D01*
X21560794Y-6701558D01*
X21560794Y-6759032D01*
X21618268Y-6759032D01*
X21631562Y-6505380D02*
X21631562Y-6447906D01*
X21574088Y-6447906D01*
X21574088Y-6505380D01*
X21631562Y-6505380D01*
X21644855Y-6251729D02*
X21644855Y-6194254D01*
X21587381Y-6194254D01*
X21587381Y-6251729D01*
X21644855Y-6251729D01*
X21648661Y-8660804D02*
X21648661Y-8603330D01*
X21591186Y-8603330D01*
X21591186Y-8660804D01*
X21648661Y-8660804D01*
X21658148Y-5998077D02*
X21658148Y-5940602D01*
X21600674Y-5940602D01*
X21600674Y-5998077D01*
X21658148Y-5998077D01*
X21661954Y-8407152D02*
X21661954Y-8349678D01*
X21604480Y-8349678D01*
X21604480Y-8407152D01*
X21661954Y-8407152D01*
X21669459Y-9124039D02*
X21669459Y-9066564D01*
X21611985Y-9066564D01*
X21611985Y-9124039D01*
X21669459Y-9124039D01*
X21671442Y-5744425D02*
X21671442Y-5686951D01*
X21613968Y-5686951D01*
X21613968Y-5744425D01*
X21671442Y-5744425D01*
X21675247Y-8153500D02*
X21675247Y-8096026D01*
X21617773Y-8096026D01*
X21617773Y-8153500D01*
X21675247Y-8153500D01*
X21685097Y-5483805D02*
X21685097Y-5426331D01*
X21627623Y-5426331D01*
X21627623Y-5483805D01*
X21685097Y-5483805D01*
X21688541Y-7899848D02*
X21688541Y-7842374D01*
X21631066Y-7842374D01*
X21631066Y-7899848D01*
X21688541Y-7899848D01*
X21701834Y-7646196D02*
X21701834Y-7588722D01*
X21644360Y-7588722D01*
X21644360Y-7646196D01*
X21701834Y-7646196D01*
X21715127Y-7392544D02*
X21715127Y-7335070D01*
X21657653Y-7335070D01*
X21657653Y-7392544D01*
X21715127Y-7392544D01*
X21728421Y-7138892D02*
X21728421Y-7081418D01*
X21670946Y-7081418D01*
X21670946Y-7138892D01*
X21728421Y-7138892D01*
X21741714Y-6885240D02*
X21741714Y-6827766D01*
X21684240Y-6827766D01*
X21684240Y-6885240D01*
X21741714Y-6885240D01*
X21755007Y-6631589D02*
X21755007Y-6574114D01*
X21697533Y-6574114D01*
X21697533Y-6631589D01*
X21755007Y-6631589D01*
X21768301Y-6377937D02*
X21768301Y-6320462D01*
X21710826Y-6320462D01*
X21710826Y-6377937D01*
X21768301Y-6377937D01*
X21781594Y-6124285D02*
X21781594Y-6066811D01*
X21724120Y-6066811D01*
X21724120Y-6124285D01*
X21781594Y-6124285D01*
X21794887Y-5870633D02*
X21794887Y-5813159D01*
X21737413Y-5813159D01*
X21737413Y-5870633D01*
X21794887Y-5870633D01*
X21845262Y-11893862D02*
X21845262Y-11836388D01*
X21787788Y-11836388D01*
X21787788Y-11893862D01*
X21845262Y-11893862D01*
X21885234Y-14438819D02*
X21885234Y-14381345D01*
X21827759Y-14381345D01*
X21827759Y-14438819D01*
X21885234Y-14438819D01*
X22236378Y-9234072D02*
X22236378Y-9176598D01*
X22178904Y-9176598D01*
X22178904Y-9234072D01*
X22236378Y-9234072D01*
X22245296Y-9035269D02*
X22245296Y-8977794D01*
X22187822Y-8977794D01*
X22187822Y-9035269D01*
X22245296Y-9035269D01*
X22277483Y-11330582D02*
X22277483Y-11273107D01*
X22220009Y-11273107D01*
X22220009Y-11330582D01*
X22277483Y-11330582D01*
X22285176Y-8274313D02*
X22285176Y-8216838D01*
X22227702Y-8216838D01*
X22227702Y-8274313D01*
X22285176Y-8274313D01*
X22373965Y-13923804D02*
X22373965Y-13866329D01*
X22316491Y-13866329D01*
X22316491Y-13923804D01*
X22373965Y-13923804D01*
X22515997Y-9248728D02*
X22515997Y-9191254D01*
X22458523Y-9191254D01*
X22458523Y-9248728D01*
X22515997Y-9248728D01*
X22524918Y-9049920D02*
X22524918Y-8992445D01*
X22467444Y-8992445D01*
X22467444Y-9049920D01*
X22524918Y-9049920D01*
X22564798Y-8288964D02*
X22564798Y-8231489D01*
X22507324Y-8231489D01*
X22507324Y-8288964D01*
X22564798Y-8288964D01*
X13071708Y-10923877D02*
X13121708Y-10873877D01*
X13071708Y-10823877D01*
X13021708Y-10873877D01*
X13071708Y-10923877D01*
X13298537Y-12356025D02*
X13348537Y-12306025D01*
X13298537Y-12256025D01*
X13248537Y-12306025D01*
X13298537Y-12356025D01*
X13318630Y-10884768D02*
X13368630Y-10834768D01*
X13318630Y-10784768D01*
X13268630Y-10834768D01*
X13318630Y-10884768D01*
X13565552Y-10845659D02*
X13615552Y-10795659D01*
X13565552Y-10745659D01*
X13515552Y-10795659D01*
X13565552Y-10845659D01*
X13792382Y-12277807D02*
X13842382Y-12227807D01*
X13792382Y-12177807D01*
X13742382Y-12227807D01*
X13792382Y-12277807D01*
X19915408Y-11583580D02*
X19965408Y-11533580D01*
X19915408Y-11483580D01*
X19865408Y-11533580D01*
X19915408Y-11583580D01*
X20131914Y-11708580D02*
X20181914Y-11658580D01*
X20131914Y-11608580D01*
X20081914Y-11658580D01*
X20131914Y-11708580D01*
X20348421Y-11833580D02*
X20398421Y-11783580D01*
X20348421Y-11733580D01*
X20298421Y-11783580D01*
X20348421Y-11833580D01*
X20640408Y-10327843D02*
X20690408Y-10277843D01*
X20640408Y-10227843D01*
X20590408Y-10277843D01*
X20640408Y-10327843D01*
X21073421Y-10577843D02*
X21123421Y-10527843D01*
X21073421Y-10477843D01*
X21023421Y-10527843D01*
X21073421Y-10577843D01*
X21863338Y-12964554D02*
X21913338Y-12914554D01*
X21863338Y-12864554D01*
X21813338Y-12914554D01*
X21863338Y-12964554D01*
X22044681Y-13136642D02*
X22094681Y-13086642D01*
X22044681Y-13036642D01*
X21994681Y-13086642D01*
X22044681Y-13136642D01*
X22226025Y-13308731D02*
X22276025Y-13258731D01*
X22226025Y-13208731D01*
X22176025Y-13258731D01*
X22226025Y-13308731D01*
X22861452Y-11912761D02*
X22911452Y-11862761D01*
X22861452Y-11812761D01*
X22811452Y-11862761D01*
X22861452Y-11912761D01*
X23224139Y-12256938D02*
X23274139Y-12206938D01*
X23224139Y-12156938D01*
X23174139Y-12206938D01*
X23224139Y-12256938D01*
X22500542Y-7024954D02*
X22630542Y-7154954D01*
X22630542Y-7024954D02*
X22500542Y-7154954D01*
X22630542Y-7089954D02*
G75*
G03*
X22630542Y-7089954I-65000J0D01*
G01*
X22534665Y-6373848D02*
X22664665Y-6503848D01*
X22664665Y-6373848D02*
X22534665Y-6503848D01*
X22664665Y-6438848D02*
G75*
G03*
X22664665Y-6438848I-65000J0D01*
G01*
X12807850Y-11588137D02*
X12957850Y-11738137D01*
X12957850Y-11588137D02*
X12807850Y-11738137D01*
X12882850Y-11588137D02*
X12882850Y-11738137D01*
X12807850Y-11663137D02*
X12957850Y-11663137D01*
X12808482Y-11609106D02*
X12828818Y-11737505D01*
X12936881Y-11588769D02*
X12957218Y-11717169D01*
X12828818Y-11737505D02*
G75*
G03*
X12957218Y-11717169I64200J10168D01*
G01*
X12936881Y-11588769D02*
G75*
G03*
X12808482Y-11609106I-64200J-10168D01*
G01*
X13914061Y-11412931D02*
X14064061Y-11562931D01*
X14064061Y-11412931D02*
X13914061Y-11562931D01*
X13989061Y-11412931D02*
X13989061Y-11562931D01*
X13914061Y-11487931D02*
X14064061Y-11487931D01*
X13914693Y-11433899D02*
X13935029Y-11562299D01*
X14043092Y-11413563D02*
X14063429Y-11541962D01*
X13935029Y-11562299D02*
G75*
G03*
X14063429Y-11541962I64200J10168D01*
G01*
X14043092Y-11413563D02*
G75*
G03*
X13914693Y-11433899I-64200J-10168D01*
G01*
X19946940Y-10654061D02*
X20096940Y-10804061D01*
X20096940Y-10654061D02*
X19946940Y-10804061D01*
X20021940Y-10654061D02*
X20021940Y-10804061D01*
X19946940Y-10729061D02*
X20096940Y-10729061D01*
X20045732Y-10817853D02*
X20110732Y-10705269D01*
X19933148Y-10752853D02*
X19998148Y-10640269D01*
X20110732Y-10705269D02*
G75*
G03*
X19998148Y-10640269I-56292J32500D01*
G01*
X19933148Y-10752853D02*
G75*
G03*
X20045732Y-10817853I56292J-32500D01*
G01*
X20916888Y-11214061D02*
X21066888Y-11364061D01*
X21066888Y-11214061D02*
X20916888Y-11364061D01*
X20991888Y-11214061D02*
X20991888Y-11364061D01*
X20916888Y-11289061D02*
X21066888Y-11289061D01*
X21015680Y-11377853D02*
X21080680Y-11265269D01*
X20903097Y-11312853D02*
X20968097Y-11200269D01*
X21080680Y-11265269D02*
G75*
G03*
X20968097Y-11200269I-56292J32500D01*
G01*
X20903097Y-11312853D02*
G75*
G03*
X21015680Y-11377853I56292J-32500D01*
G01*
X22079738Y-12082133D02*
X22229738Y-12232133D01*
X22229738Y-12082133D02*
X22079738Y-12232133D01*
X22154738Y-12082133D02*
X22154738Y-12232133D01*
X22079738Y-12157133D02*
X22229738Y-12157133D01*
X22157144Y-12249025D02*
X22246630Y-12154727D01*
X22062845Y-12159539D02*
X22152331Y-12065241D01*
X22246630Y-12154727D02*
G75*
G03*
X22152331Y-12065241I-47149J44743D01*
G01*
X22062845Y-12159539D02*
G75*
G03*
X22157144Y-12249025I47149J-44743D01*
G01*
X22892157Y-12853090D02*
X23042157Y-13003090D01*
X23042157Y-12853090D02*
X22892157Y-13003090D01*
X22967157Y-12853090D02*
X22967157Y-13003090D01*
X22892157Y-12928090D02*
X23042157Y-12928090D01*
X22969563Y-13019983D02*
X23059049Y-12925684D01*
X22875264Y-12930496D02*
X22964750Y-12836198D01*
X23059049Y-12925684D02*
G75*
G03*
X22964750Y-12836198I-47149J44743D01*
G01*
X22875264Y-12930496D02*
G75*
G03*
X22969563Y-13019982I47149J-44743D01*
G01*
X19842096Y-9054701D02*
X20062096Y-9274701D01*
X20062096Y-9054701D02*
X19842096Y-9274701D01*
X20029878Y-9242484D02*
X20029878Y-9086919D01*
X19874313Y-9086919D01*
X19874313Y-9242484D01*
X20029878Y-9242484D01*
X22138332Y-10378471D02*
X22358332Y-10598471D01*
X22358332Y-10378471D02*
X22138332Y-10598471D01*
X22326114Y-10566254D02*
X22326114Y-10410689D01*
X22170549Y-10410689D01*
X22170549Y-10566254D01*
X22326114Y-10566254D01*
X22379364Y-5949556D02*
X22599364Y-6169556D01*
X22599364Y-5949556D02*
X22379364Y-6169556D01*
X22567147Y-6137339D02*
X22567147Y-5981774D01*
X22411582Y-5981774D01*
X22411582Y-6137339D01*
X22567147Y-6137339D01*
D12*
X8346741Y-15701091D02*
X8346741Y-15401091D01*
X8418169Y-15401091D01*
X8461026Y-15415377D01*
X8489598Y-15443948D01*
X8503884Y-15472520D01*
X8518169Y-15529663D01*
X8518169Y-15572520D01*
X8503884Y-15629663D01*
X8489598Y-15658234D01*
X8461026Y-15686805D01*
X8418169Y-15701091D01*
X8346741Y-15701091D01*
X8646741Y-15701091D02*
X8646741Y-15501091D01*
X8646741Y-15558234D02*
X8661026Y-15529663D01*
X8675312Y-15515377D01*
X8703884Y-15501091D01*
X8732455Y-15501091D01*
X8832455Y-15701091D02*
X8832455Y-15501091D01*
X8832455Y-15401091D02*
X8818169Y-15415377D01*
X8832455Y-15429663D01*
X8846741Y-15415377D01*
X8832455Y-15401091D01*
X8832455Y-15429663D01*
X9018169Y-15701091D02*
X8989598Y-15686805D01*
X8975312Y-15658234D01*
X8975312Y-15401091D01*
X9175312Y-15701091D02*
X9146741Y-15686805D01*
X9132455Y-15658234D01*
X9132455Y-15401091D01*
X9518169Y-15701091D02*
X9518169Y-15401091D01*
X9618169Y-15615377D01*
X9718169Y-15401091D01*
X9718169Y-15701091D01*
X9989598Y-15701091D02*
X9989598Y-15543948D01*
X9975312Y-15515377D01*
X9946741Y-15501091D01*
X9889598Y-15501091D01*
X9861026Y-15515377D01*
X9989598Y-15686805D02*
X9961026Y-15701091D01*
X9889598Y-15701091D01*
X9861026Y-15686805D01*
X9846741Y-15658234D01*
X9846741Y-15629663D01*
X9861026Y-15601091D01*
X9889598Y-15586805D01*
X9961026Y-15586805D01*
X9989598Y-15572520D01*
X10132455Y-15501091D02*
X10132455Y-15801091D01*
X10132455Y-15515377D02*
X10161026Y-15501091D01*
X10218169Y-15501091D01*
X10246741Y-15515377D01*
X10261026Y-15529663D01*
X10275312Y-15558234D01*
X10275312Y-15643948D01*
X10261026Y-15672520D01*
X10246741Y-15686805D01*
X10218169Y-15701091D01*
X10161026Y-15701091D01*
X10132455Y-15686805D01*
X10403884Y-15672520D02*
X10418169Y-15686805D01*
X10403884Y-15701091D01*
X10389598Y-15686805D01*
X10403884Y-15672520D01*
X10403884Y-15701091D01*
X10403884Y-15515377D02*
X10418169Y-15529663D01*
X10403884Y-15543948D01*
X10389598Y-15529663D01*
X10403884Y-15515377D01*
X10403884Y-15543948D01*
X8030312Y-16180377D02*
X8060312Y-16210377D01*
X8060312Y-16180377D02*
X8030312Y-16210377D01*
X8403884Y-16031091D02*
X8432455Y-16031091D01*
X8461026Y-16045377D01*
X8475312Y-16059663D01*
X8489598Y-16088234D01*
X8503884Y-16145377D01*
X8503884Y-16216805D01*
X8489598Y-16273948D01*
X8475312Y-16302520D01*
X8461026Y-16316805D01*
X8432455Y-16331091D01*
X8403884Y-16331091D01*
X8375312Y-16316805D01*
X8361026Y-16302520D01*
X8346741Y-16273948D01*
X8332455Y-16216805D01*
X8332455Y-16145377D01*
X8346741Y-16088234D01*
X8361026Y-16059663D01*
X8375312Y-16045377D01*
X8403884Y-16031091D01*
X8632455Y-16302520D02*
X8646741Y-16316805D01*
X8632455Y-16331091D01*
X8618169Y-16316805D01*
X8632455Y-16302520D01*
X8632455Y-16331091D01*
X8746741Y-16031091D02*
X8932455Y-16031091D01*
X8832455Y-16145377D01*
X8875312Y-16145377D01*
X8903884Y-16159663D01*
X8918169Y-16173948D01*
X8932455Y-16202520D01*
X8932455Y-16273948D01*
X8918169Y-16302520D01*
X8903884Y-16316805D01*
X8875312Y-16331091D01*
X8789598Y-16331091D01*
X8761026Y-16316805D01*
X8746741Y-16302520D01*
X9118169Y-16031091D02*
X9146741Y-16031091D01*
X9175312Y-16045377D01*
X9189598Y-16059663D01*
X9203884Y-16088234D01*
X9218169Y-16145377D01*
X9218169Y-16216805D01*
X9203884Y-16273948D01*
X9189598Y-16302520D01*
X9175312Y-16316805D01*
X9146741Y-16331091D01*
X9118169Y-16331091D01*
X9089598Y-16316805D01*
X9075312Y-16302520D01*
X9061026Y-16273948D01*
X9046741Y-16216805D01*
X9046741Y-16145377D01*
X9061026Y-16088234D01*
X9075312Y-16059663D01*
X9089598Y-16045377D01*
X9118169Y-16031091D01*
X9403884Y-16031091D02*
X9432455Y-16031091D01*
X9461026Y-16045377D01*
X9475312Y-16059663D01*
X9489598Y-16088234D01*
X9503884Y-16145377D01*
X9503884Y-16216805D01*
X9489598Y-16273948D01*
X9475312Y-16302520D01*
X9461026Y-16316805D01*
X9432455Y-16331091D01*
X9403884Y-16331091D01*
X9375312Y-16316805D01*
X9361026Y-16302520D01*
X9346741Y-16273948D01*
X9332455Y-16216805D01*
X9332455Y-16145377D01*
X9346741Y-16088234D01*
X9361026Y-16059663D01*
X9375312Y-16045377D01*
X9403884Y-16031091D01*
X9632455Y-16331091D02*
X9632455Y-16131091D01*
X9632455Y-16159663D02*
X9646741Y-16145377D01*
X9675312Y-16131091D01*
X9718169Y-16131091D01*
X9746741Y-16145377D01*
X9761026Y-16173948D01*
X9761026Y-16331091D01*
X9761026Y-16173948D02*
X9775312Y-16145377D01*
X9803884Y-16131091D01*
X9846741Y-16131091D01*
X9875312Y-16145377D01*
X9889598Y-16173948D01*
X9889598Y-16331091D01*
X10032455Y-16331091D02*
X10032455Y-16131091D01*
X10032455Y-16159663D02*
X10046741Y-16145377D01*
X10075312Y-16131091D01*
X10118169Y-16131091D01*
X10146741Y-16145377D01*
X10161026Y-16173948D01*
X10161026Y-16331091D01*
X10161026Y-16173948D02*
X10175312Y-16145377D01*
X10203884Y-16131091D01*
X10246741Y-16131091D01*
X10275312Y-16145377D01*
X10289598Y-16173948D01*
X10289598Y-16331091D01*
X10875312Y-16016805D02*
X10618169Y-16402520D01*
X11261026Y-16031091D02*
X11289598Y-16031091D01*
X11318169Y-16045377D01*
X11332455Y-16059663D01*
X11346741Y-16088234D01*
X11361026Y-16145377D01*
X11361026Y-16216805D01*
X11346741Y-16273948D01*
X11332455Y-16302520D01*
X11318169Y-16316805D01*
X11289598Y-16331091D01*
X11261026Y-16331091D01*
X11232455Y-16316805D01*
X11218169Y-16302520D01*
X11203884Y-16273948D01*
X11189598Y-16216805D01*
X11189598Y-16145377D01*
X11203884Y-16088234D01*
X11218169Y-16059663D01*
X11232455Y-16045377D01*
X11261026Y-16031091D01*
X11489598Y-16302520D02*
X11503884Y-16316805D01*
X11489598Y-16331091D01*
X11475312Y-16316805D01*
X11489598Y-16302520D01*
X11489598Y-16331091D01*
X11689598Y-16031091D02*
X11718169Y-16031091D01*
X11746741Y-16045377D01*
X11761026Y-16059663D01*
X11775312Y-16088234D01*
X11789598Y-16145377D01*
X11789598Y-16216805D01*
X11775312Y-16273948D01*
X11761026Y-16302520D01*
X11746741Y-16316805D01*
X11718169Y-16331091D01*
X11689598Y-16331091D01*
X11661026Y-16316805D01*
X11646741Y-16302520D01*
X11632455Y-16273948D01*
X11618169Y-16216805D01*
X11618169Y-16145377D01*
X11632455Y-16088234D01*
X11646741Y-16059663D01*
X11661026Y-16045377D01*
X11689598Y-16031091D01*
X12075312Y-16331091D02*
X11903884Y-16331091D01*
X11989598Y-16331091D02*
X11989598Y-16031091D01*
X11961026Y-16073948D01*
X11932455Y-16102520D01*
X11903884Y-16116805D01*
X12361026Y-16331091D02*
X12189598Y-16331091D01*
X12275312Y-16331091D02*
X12275312Y-16031091D01*
X12246741Y-16073948D01*
X12218169Y-16102520D01*
X12189598Y-16116805D01*
X12532455Y-16159663D02*
X12503884Y-16145377D01*
X12489598Y-16131091D01*
X12475312Y-16102520D01*
X12475312Y-16088234D01*
X12489598Y-16059663D01*
X12503884Y-16045377D01*
X12532455Y-16031091D01*
X12589598Y-16031091D01*
X12618169Y-16045377D01*
X12632455Y-16059663D01*
X12646741Y-16088234D01*
X12646741Y-16102520D01*
X12632455Y-16131091D01*
X12618169Y-16145377D01*
X12589598Y-16159663D01*
X12532455Y-16159663D01*
X12503884Y-16173948D01*
X12489598Y-16188234D01*
X12475312Y-16216805D01*
X12475312Y-16273948D01*
X12489598Y-16302520D01*
X12503884Y-16316805D01*
X12532455Y-16331091D01*
X12589598Y-16331091D01*
X12618169Y-16316805D01*
X12632455Y-16302520D01*
X12646741Y-16273948D01*
X12646741Y-16216805D01*
X12632455Y-16188234D01*
X12618169Y-16173948D01*
X12589598Y-16159663D01*
X12761026Y-16031091D02*
X12761026Y-16088234D01*
X12875312Y-16031091D02*
X12875312Y-16088234D01*
X13318169Y-16445377D02*
X13303884Y-16431091D01*
X13275312Y-16388234D01*
X13261026Y-16359663D01*
X13246741Y-16316805D01*
X13232455Y-16245377D01*
X13232455Y-16188234D01*
X13246741Y-16116805D01*
X13261026Y-16073948D01*
X13275312Y-16045377D01*
X13303884Y-16002520D01*
X13318169Y-15988234D01*
X13418169Y-16059663D02*
X13432455Y-16045377D01*
X13461026Y-16031091D01*
X13532455Y-16031091D01*
X13561026Y-16045377D01*
X13575312Y-16059663D01*
X13589598Y-16088234D01*
X13589598Y-16116805D01*
X13575312Y-16159663D01*
X13403884Y-16331091D01*
X13589598Y-16331091D01*
X13846741Y-16131091D02*
X13846741Y-16331091D01*
X13775312Y-16016805D02*
X13703884Y-16231091D01*
X13889598Y-16231091D01*
X14061026Y-16031091D02*
X14089598Y-16031091D01*
X14118169Y-16045377D01*
X14132455Y-16059663D01*
X14146741Y-16088234D01*
X14161026Y-16145377D01*
X14161026Y-16216805D01*
X14146741Y-16273948D01*
X14132455Y-16302520D01*
X14118169Y-16316805D01*
X14089598Y-16331091D01*
X14061026Y-16331091D01*
X14032455Y-16316805D01*
X14018169Y-16302520D01*
X14003884Y-16273948D01*
X13989598Y-16216805D01*
X13989598Y-16145377D01*
X14003884Y-16088234D01*
X14018169Y-16059663D01*
X14032455Y-16045377D01*
X14061026Y-16031091D01*
X14518169Y-16331091D02*
X14518169Y-16031091D01*
X14646741Y-16331091D02*
X14646741Y-16173948D01*
X14632455Y-16145377D01*
X14603884Y-16131091D01*
X14561026Y-16131091D01*
X14532455Y-16145377D01*
X14518169Y-16159663D01*
X14832455Y-16331091D02*
X14803884Y-16316805D01*
X14789598Y-16302520D01*
X14775312Y-16273948D01*
X14775312Y-16188234D01*
X14789598Y-16159663D01*
X14803884Y-16145377D01*
X14832455Y-16131091D01*
X14875312Y-16131091D01*
X14903884Y-16145377D01*
X14918169Y-16159663D01*
X14932455Y-16188234D01*
X14932455Y-16273948D01*
X14918169Y-16302520D01*
X14903884Y-16316805D01*
X14875312Y-16331091D01*
X14832455Y-16331091D01*
X15103884Y-16331091D02*
X15075312Y-16316805D01*
X15061026Y-16288234D01*
X15061026Y-16031091D01*
X15332455Y-16316805D02*
X15303884Y-16331091D01*
X15246741Y-16331091D01*
X15218169Y-16316805D01*
X15203884Y-16288234D01*
X15203884Y-16173948D01*
X15218169Y-16145377D01*
X15246741Y-16131091D01*
X15303884Y-16131091D01*
X15332455Y-16145377D01*
X15346741Y-16173948D01*
X15346741Y-16202520D01*
X15203884Y-16231091D01*
X15461026Y-16316805D02*
X15489598Y-16331091D01*
X15546741Y-16331091D01*
X15575312Y-16316805D01*
X15589598Y-16288234D01*
X15589598Y-16273948D01*
X15575312Y-16245377D01*
X15546741Y-16231091D01*
X15503884Y-16231091D01*
X15475312Y-16216805D01*
X15461026Y-16188234D01*
X15461026Y-16173948D01*
X15475312Y-16145377D01*
X15503884Y-16131091D01*
X15546741Y-16131091D01*
X15575312Y-16145377D01*
X15689598Y-16445377D02*
X15703884Y-16431091D01*
X15732455Y-16388234D01*
X15746741Y-16359663D01*
X15761026Y-16316805D01*
X15775312Y-16245377D01*
X15775312Y-16188234D01*
X15761026Y-16116805D01*
X15746741Y-16073948D01*
X15732455Y-16045377D01*
X15703884Y-16002520D01*
X15689598Y-15988234D01*
X8060312Y-16591377D02*
G75*
G03*
X8060312Y-16591377I-20000J0D01*
G01*
X8403884Y-16427091D02*
X8432455Y-16427091D01*
X8461026Y-16441377D01*
X8475312Y-16455663D01*
X8489598Y-16484234D01*
X8503884Y-16541377D01*
X8503884Y-16612805D01*
X8489598Y-16669948D01*
X8475312Y-16698520D01*
X8461026Y-16712805D01*
X8432455Y-16727091D01*
X8403884Y-16727091D01*
X8375312Y-16712805D01*
X8361026Y-16698520D01*
X8346741Y-16669948D01*
X8332455Y-16612805D01*
X8332455Y-16541377D01*
X8346741Y-16484234D01*
X8361026Y-16455663D01*
X8375312Y-16441377D01*
X8403884Y-16427091D01*
X8632455Y-16698520D02*
X8646741Y-16712805D01*
X8632455Y-16727091D01*
X8618169Y-16712805D01*
X8632455Y-16698520D01*
X8632455Y-16727091D01*
X8903884Y-16527091D02*
X8903884Y-16727091D01*
X8832455Y-16412805D02*
X8761026Y-16627091D01*
X8946741Y-16627091D01*
X9118169Y-16427091D02*
X9146741Y-16427091D01*
X9175312Y-16441377D01*
X9189598Y-16455663D01*
X9203884Y-16484234D01*
X9218169Y-16541377D01*
X9218169Y-16612805D01*
X9203884Y-16669948D01*
X9189598Y-16698520D01*
X9175312Y-16712805D01*
X9146741Y-16727091D01*
X9118169Y-16727091D01*
X9089598Y-16712805D01*
X9075312Y-16698520D01*
X9061026Y-16669948D01*
X9046741Y-16612805D01*
X9046741Y-16541377D01*
X9061026Y-16484234D01*
X9075312Y-16455663D01*
X9089598Y-16441377D01*
X9118169Y-16427091D01*
X9403884Y-16427091D02*
X9432455Y-16427091D01*
X9461026Y-16441377D01*
X9475312Y-16455663D01*
X9489598Y-16484234D01*
X9503884Y-16541377D01*
X9503884Y-16612805D01*
X9489598Y-16669948D01*
X9475312Y-16698520D01*
X9461026Y-16712805D01*
X9432455Y-16727091D01*
X9403884Y-16727091D01*
X9375312Y-16712805D01*
X9361026Y-16698520D01*
X9346741Y-16669948D01*
X9332455Y-16612805D01*
X9332455Y-16541377D01*
X9346741Y-16484234D01*
X9361026Y-16455663D01*
X9375312Y-16441377D01*
X9403884Y-16427091D01*
X9632455Y-16727091D02*
X9632455Y-16527091D01*
X9632455Y-16555663D02*
X9646741Y-16541377D01*
X9675312Y-16527091D01*
X9718169Y-16527091D01*
X9746741Y-16541377D01*
X9761026Y-16569948D01*
X9761026Y-16727091D01*
X9761026Y-16569948D02*
X9775312Y-16541377D01*
X9803884Y-16527091D01*
X9846741Y-16527091D01*
X9875312Y-16541377D01*
X9889598Y-16569948D01*
X9889598Y-16727091D01*
X10032455Y-16727091D02*
X10032455Y-16527091D01*
X10032455Y-16555663D02*
X10046741Y-16541377D01*
X10075312Y-16527091D01*
X10118169Y-16527091D01*
X10146741Y-16541377D01*
X10161026Y-16569948D01*
X10161026Y-16727091D01*
X10161026Y-16569948D02*
X10175312Y-16541377D01*
X10203884Y-16527091D01*
X10246741Y-16527091D01*
X10275312Y-16541377D01*
X10289598Y-16569948D01*
X10289598Y-16727091D01*
X10875312Y-16412805D02*
X10618169Y-16798520D01*
X11261026Y-16427091D02*
X11289598Y-16427091D01*
X11318169Y-16441377D01*
X11332455Y-16455663D01*
X11346741Y-16484234D01*
X11361026Y-16541377D01*
X11361026Y-16612805D01*
X11346741Y-16669948D01*
X11332455Y-16698520D01*
X11318169Y-16712805D01*
X11289598Y-16727091D01*
X11261026Y-16727091D01*
X11232455Y-16712805D01*
X11218169Y-16698520D01*
X11203884Y-16669948D01*
X11189598Y-16612805D01*
X11189598Y-16541377D01*
X11203884Y-16484234D01*
X11218169Y-16455663D01*
X11232455Y-16441377D01*
X11261026Y-16427091D01*
X11489598Y-16698520D02*
X11503884Y-16712805D01*
X11489598Y-16727091D01*
X11475312Y-16712805D01*
X11489598Y-16698520D01*
X11489598Y-16727091D01*
X11689598Y-16427091D02*
X11718169Y-16427091D01*
X11746741Y-16441377D01*
X11761026Y-16455663D01*
X11775312Y-16484234D01*
X11789598Y-16541377D01*
X11789598Y-16612805D01*
X11775312Y-16669948D01*
X11761026Y-16698520D01*
X11746741Y-16712805D01*
X11718169Y-16727091D01*
X11689598Y-16727091D01*
X11661026Y-16712805D01*
X11646741Y-16698520D01*
X11632455Y-16669948D01*
X11618169Y-16612805D01*
X11618169Y-16541377D01*
X11632455Y-16484234D01*
X11646741Y-16455663D01*
X11661026Y-16441377D01*
X11689598Y-16427091D01*
X12075312Y-16727091D02*
X11903884Y-16727091D01*
X11989598Y-16727091D02*
X11989598Y-16427091D01*
X11961026Y-16469948D01*
X11932455Y-16498520D01*
X11903884Y-16512805D01*
X12346741Y-16427091D02*
X12203884Y-16427091D01*
X12189598Y-16569948D01*
X12203884Y-16555663D01*
X12232455Y-16541377D01*
X12303884Y-16541377D01*
X12332455Y-16555663D01*
X12346741Y-16569948D01*
X12361026Y-16598520D01*
X12361026Y-16669948D01*
X12346741Y-16698520D01*
X12332455Y-16712805D01*
X12303884Y-16727091D01*
X12232455Y-16727091D01*
X12203884Y-16712805D01*
X12189598Y-16698520D01*
X12461026Y-16427091D02*
X12661026Y-16427091D01*
X12532455Y-16727091D01*
X12761026Y-16427091D02*
X12761026Y-16484234D01*
X12875312Y-16427091D02*
X12875312Y-16484234D01*
X13318169Y-16841377D02*
X13303884Y-16827091D01*
X13275312Y-16784234D01*
X13261026Y-16755663D01*
X13246741Y-16712805D01*
X13232455Y-16641377D01*
X13232455Y-16584234D01*
X13246741Y-16512805D01*
X13261026Y-16469948D01*
X13275312Y-16441377D01*
X13303884Y-16398520D01*
X13318169Y-16384234D01*
X13589598Y-16727091D02*
X13418169Y-16727091D01*
X13503884Y-16727091D02*
X13503884Y-16427091D01*
X13475312Y-16469948D01*
X13446741Y-16498520D01*
X13418169Y-16512805D01*
X13861026Y-16427091D02*
X13718169Y-16427091D01*
X13703884Y-16569948D01*
X13718169Y-16555663D01*
X13746741Y-16541377D01*
X13818169Y-16541377D01*
X13846741Y-16555663D01*
X13861026Y-16569948D01*
X13875312Y-16598520D01*
X13875312Y-16669948D01*
X13861026Y-16698520D01*
X13846741Y-16712805D01*
X13818169Y-16727091D01*
X13746741Y-16727091D01*
X13718169Y-16712805D01*
X13703884Y-16698520D01*
X14132455Y-16527091D02*
X14132455Y-16727091D01*
X14061026Y-16412805D02*
X13989598Y-16627091D01*
X14175312Y-16627091D01*
X14518169Y-16727091D02*
X14518169Y-16427091D01*
X14646741Y-16727091D02*
X14646741Y-16569948D01*
X14632455Y-16541377D01*
X14603884Y-16527091D01*
X14561026Y-16527091D01*
X14532455Y-16541377D01*
X14518169Y-16555663D01*
X14832455Y-16727091D02*
X14803884Y-16712805D01*
X14789598Y-16698520D01*
X14775312Y-16669948D01*
X14775312Y-16584234D01*
X14789598Y-16555663D01*
X14803884Y-16541377D01*
X14832455Y-16527091D01*
X14875312Y-16527091D01*
X14903884Y-16541377D01*
X14918169Y-16555663D01*
X14932455Y-16584234D01*
X14932455Y-16669948D01*
X14918169Y-16698520D01*
X14903884Y-16712805D01*
X14875312Y-16727091D01*
X14832455Y-16727091D01*
X15103884Y-16727091D02*
X15075312Y-16712805D01*
X15061026Y-16684234D01*
X15061026Y-16427091D01*
X15332455Y-16712805D02*
X15303884Y-16727091D01*
X15246741Y-16727091D01*
X15218169Y-16712805D01*
X15203884Y-16684234D01*
X15203884Y-16569948D01*
X15218169Y-16541377D01*
X15246741Y-16527091D01*
X15303884Y-16527091D01*
X15332455Y-16541377D01*
X15346741Y-16569948D01*
X15346741Y-16598520D01*
X15203884Y-16627091D01*
X15461026Y-16712805D02*
X15489598Y-16727091D01*
X15546741Y-16727091D01*
X15575312Y-16712805D01*
X15589598Y-16684234D01*
X15589598Y-16669948D01*
X15575312Y-16641377D01*
X15546741Y-16627091D01*
X15503884Y-16627091D01*
X15475312Y-16612805D01*
X15461026Y-16584234D01*
X15461026Y-16569948D01*
X15475312Y-16541377D01*
X15503884Y-16527091D01*
X15546741Y-16527091D01*
X15575312Y-16541377D01*
X15689598Y-16841377D02*
X15703884Y-16827091D01*
X15732455Y-16784234D01*
X15746741Y-16755663D01*
X15761026Y-16712805D01*
X15775312Y-16641377D01*
X15775312Y-16584234D01*
X15761026Y-16512805D01*
X15746741Y-16469948D01*
X15732455Y-16441377D01*
X15703884Y-16398520D01*
X15689598Y-16384234D01*
X8035312Y-16962377D02*
X8035312Y-17012377D01*
X8010312Y-16987377D02*
X8060312Y-16987377D01*
X8403884Y-16823091D02*
X8432455Y-16823091D01*
X8461026Y-16837377D01*
X8475312Y-16851663D01*
X8489598Y-16880234D01*
X8503884Y-16937377D01*
X8503884Y-17008806D01*
X8489598Y-17065948D01*
X8475312Y-17094520D01*
X8461026Y-17108806D01*
X8432455Y-17123091D01*
X8403884Y-17123091D01*
X8375312Y-17108806D01*
X8361026Y-17094520D01*
X8346741Y-17065948D01*
X8332455Y-17008806D01*
X8332455Y-16937377D01*
X8346741Y-16880234D01*
X8361026Y-16851663D01*
X8375312Y-16837377D01*
X8403884Y-16823091D01*
X8632455Y-17094520D02*
X8646741Y-17108806D01*
X8632455Y-17123091D01*
X8618169Y-17108806D01*
X8632455Y-17094520D01*
X8632455Y-17123091D01*
X8918169Y-16823091D02*
X8775312Y-16823091D01*
X8761026Y-16965948D01*
X8775312Y-16951663D01*
X8803884Y-16937377D01*
X8875312Y-16937377D01*
X8903884Y-16951663D01*
X8918169Y-16965948D01*
X8932455Y-16994520D01*
X8932455Y-17065948D01*
X8918169Y-17094520D01*
X8903884Y-17108806D01*
X8875312Y-17123091D01*
X8803884Y-17123091D01*
X8775312Y-17108806D01*
X8761026Y-17094520D01*
X9118169Y-16823091D02*
X9146741Y-16823091D01*
X9175312Y-16837377D01*
X9189598Y-16851663D01*
X9203884Y-16880234D01*
X9218169Y-16937377D01*
X9218169Y-17008806D01*
X9203884Y-17065948D01*
X9189598Y-17094520D01*
X9175312Y-17108806D01*
X9146741Y-17123091D01*
X9118169Y-17123091D01*
X9089598Y-17108806D01*
X9075312Y-17094520D01*
X9061026Y-17065948D01*
X9046741Y-17008806D01*
X9046741Y-16937377D01*
X9061026Y-16880234D01*
X9075312Y-16851663D01*
X9089598Y-16837377D01*
X9118169Y-16823091D01*
X9403884Y-16823091D02*
X9432455Y-16823091D01*
X9461026Y-16837377D01*
X9475312Y-16851663D01*
X9489598Y-16880234D01*
X9503884Y-16937377D01*
X9503884Y-17008806D01*
X9489598Y-17065948D01*
X9475312Y-17094520D01*
X9461026Y-17108806D01*
X9432455Y-17123091D01*
X9403884Y-17123091D01*
X9375312Y-17108806D01*
X9361026Y-17094520D01*
X9346741Y-17065948D01*
X9332455Y-17008806D01*
X9332455Y-16937377D01*
X9346741Y-16880234D01*
X9361026Y-16851663D01*
X9375312Y-16837377D01*
X9403884Y-16823091D01*
X9632455Y-17123091D02*
X9632455Y-16923091D01*
X9632455Y-16951663D02*
X9646741Y-16937377D01*
X9675312Y-16923091D01*
X9718169Y-16923091D01*
X9746741Y-16937377D01*
X9761026Y-16965948D01*
X9761026Y-17123091D01*
X9761026Y-16965948D02*
X9775312Y-16937377D01*
X9803884Y-16923091D01*
X9846741Y-16923091D01*
X9875312Y-16937377D01*
X9889598Y-16965948D01*
X9889598Y-17123091D01*
X10032455Y-17123091D02*
X10032455Y-16923091D01*
X10032455Y-16951663D02*
X10046741Y-16937377D01*
X10075312Y-16923091D01*
X10118169Y-16923091D01*
X10146741Y-16937377D01*
X10161026Y-16965948D01*
X10161026Y-17123091D01*
X10161026Y-16965948D02*
X10175312Y-16937377D01*
X10203884Y-16923091D01*
X10246741Y-16923091D01*
X10275312Y-16937377D01*
X10289598Y-16965948D01*
X10289598Y-17123091D01*
X10875312Y-16808806D02*
X10618169Y-17194520D01*
X11261026Y-16823091D02*
X11289598Y-16823091D01*
X11318169Y-16837377D01*
X11332455Y-16851663D01*
X11346741Y-16880234D01*
X11361026Y-16937377D01*
X11361026Y-17008806D01*
X11346741Y-17065948D01*
X11332455Y-17094520D01*
X11318169Y-17108806D01*
X11289598Y-17123091D01*
X11261026Y-17123091D01*
X11232455Y-17108806D01*
X11218169Y-17094520D01*
X11203884Y-17065948D01*
X11189598Y-17008806D01*
X11189598Y-16937377D01*
X11203884Y-16880234D01*
X11218169Y-16851663D01*
X11232455Y-16837377D01*
X11261026Y-16823091D01*
X11489598Y-17094520D02*
X11503884Y-17108806D01*
X11489598Y-17123091D01*
X11475312Y-17108806D01*
X11489598Y-17094520D01*
X11489598Y-17123091D01*
X11689598Y-16823091D02*
X11718169Y-16823091D01*
X11746741Y-16837377D01*
X11761026Y-16851663D01*
X11775312Y-16880234D01*
X11789598Y-16937377D01*
X11789598Y-17008806D01*
X11775312Y-17065948D01*
X11761026Y-17094520D01*
X11746741Y-17108806D01*
X11718169Y-17123091D01*
X11689598Y-17123091D01*
X11661026Y-17108806D01*
X11646741Y-17094520D01*
X11632455Y-17065948D01*
X11618169Y-17008806D01*
X11618169Y-16937377D01*
X11632455Y-16880234D01*
X11646741Y-16851663D01*
X11661026Y-16837377D01*
X11689598Y-16823091D01*
X12075312Y-17123091D02*
X11903884Y-17123091D01*
X11989598Y-17123091D02*
X11989598Y-16823091D01*
X11961026Y-16865948D01*
X11932455Y-16894520D01*
X11903884Y-16908806D01*
X12218169Y-17123091D02*
X12275312Y-17123091D01*
X12303884Y-17108806D01*
X12318169Y-17094520D01*
X12346741Y-17051663D01*
X12361026Y-16994520D01*
X12361026Y-16880234D01*
X12346741Y-16851663D01*
X12332455Y-16837377D01*
X12303884Y-16823091D01*
X12246741Y-16823091D01*
X12218169Y-16837377D01*
X12203884Y-16851663D01*
X12189598Y-16880234D01*
X12189598Y-16951663D01*
X12203884Y-16980234D01*
X12218169Y-16994520D01*
X12246741Y-17008806D01*
X12303884Y-17008806D01*
X12332455Y-16994520D01*
X12346741Y-16980234D01*
X12361026Y-16951663D01*
X12461026Y-16823091D02*
X12661026Y-16823091D01*
X12532455Y-17123091D01*
X12761026Y-16823091D02*
X12761026Y-16880234D01*
X12875312Y-16823091D02*
X12875312Y-16880234D01*
X13318169Y-17237377D02*
X13303884Y-17223091D01*
X13275312Y-17180234D01*
X13261026Y-17151663D01*
X13246741Y-17108806D01*
X13232455Y-17037377D01*
X13232455Y-16980234D01*
X13246741Y-16908806D01*
X13261026Y-16865948D01*
X13275312Y-16837377D01*
X13303884Y-16794520D01*
X13318169Y-16780234D01*
X13489598Y-16823091D02*
X13518169Y-16823091D01*
X13546741Y-16837377D01*
X13561026Y-16851663D01*
X13575312Y-16880234D01*
X13589598Y-16937377D01*
X13589598Y-17008806D01*
X13575312Y-17065948D01*
X13561026Y-17094520D01*
X13546741Y-17108806D01*
X13518169Y-17123091D01*
X13489598Y-17123091D01*
X13461026Y-17108806D01*
X13446741Y-17094520D01*
X13432455Y-17065948D01*
X13418169Y-17008806D01*
X13418169Y-16937377D01*
X13432455Y-16880234D01*
X13446741Y-16851663D01*
X13461026Y-16837377D01*
X13489598Y-16823091D01*
X13946741Y-17123091D02*
X13946741Y-16823091D01*
X14075312Y-17123091D02*
X14075312Y-16965948D01*
X14061026Y-16937377D01*
X14032455Y-16923091D01*
X13989598Y-16923091D01*
X13961026Y-16937377D01*
X13946741Y-16951663D01*
X14261026Y-17123091D02*
X14232455Y-17108806D01*
X14218169Y-17094520D01*
X14203884Y-17065948D01*
X14203884Y-16980234D01*
X14218169Y-16951663D01*
X14232455Y-16937377D01*
X14261026Y-16923091D01*
X14303884Y-16923091D01*
X14332455Y-16937377D01*
X14346741Y-16951663D01*
X14361026Y-16980234D01*
X14361026Y-17065948D01*
X14346741Y-17094520D01*
X14332455Y-17108806D01*
X14303884Y-17123091D01*
X14261026Y-17123091D01*
X14532455Y-17123091D02*
X14503884Y-17108806D01*
X14489598Y-17080234D01*
X14489598Y-16823091D01*
X14761026Y-17108806D02*
X14732455Y-17123091D01*
X14675312Y-17123091D01*
X14646741Y-17108806D01*
X14632455Y-17080234D01*
X14632455Y-16965948D01*
X14646741Y-16937377D01*
X14675312Y-16923091D01*
X14732455Y-16923091D01*
X14761026Y-16937377D01*
X14775312Y-16965948D01*
X14775312Y-16994520D01*
X14632455Y-17023091D01*
X14889598Y-17108806D02*
X14918169Y-17123091D01*
X14975312Y-17123091D01*
X15003884Y-17108806D01*
X15018169Y-17080234D01*
X15018169Y-17065948D01*
X15003884Y-17037377D01*
X14975312Y-17023091D01*
X14932455Y-17023091D01*
X14903884Y-17008806D01*
X14889598Y-16980234D01*
X14889598Y-16965948D01*
X14903884Y-16937377D01*
X14932455Y-16923091D01*
X14975312Y-16923091D01*
X15003884Y-16937377D01*
X15375312Y-17008806D02*
X15603884Y-17008806D01*
X15489598Y-17123091D02*
X15489598Y-16894520D01*
X16018169Y-16951663D02*
X15989598Y-16937377D01*
X15975312Y-16923091D01*
X15961026Y-16894520D01*
X15961026Y-16880234D01*
X15975312Y-16851663D01*
X15989598Y-16837377D01*
X16018169Y-16823091D01*
X16075312Y-16823091D01*
X16103884Y-16837377D01*
X16118169Y-16851663D01*
X16132455Y-16880234D01*
X16132455Y-16894520D01*
X16118169Y-16923091D01*
X16103884Y-16937377D01*
X16075312Y-16951663D01*
X16018169Y-16951663D01*
X15989598Y-16965948D01*
X15975312Y-16980234D01*
X15961026Y-17008806D01*
X15961026Y-17065948D01*
X15975312Y-17094520D01*
X15989598Y-17108806D01*
X16018169Y-17123091D01*
X16075312Y-17123091D01*
X16103884Y-17108806D01*
X16118169Y-17094520D01*
X16132455Y-17065948D01*
X16132455Y-17008806D01*
X16118169Y-16980234D01*
X16103884Y-16965948D01*
X16075312Y-16951663D01*
X16475312Y-17108806D02*
X16503884Y-17123091D01*
X16561026Y-17123091D01*
X16589598Y-17108806D01*
X16603884Y-17080234D01*
X16603884Y-17065948D01*
X16589598Y-17037377D01*
X16561026Y-17023091D01*
X16518169Y-17023091D01*
X16489598Y-17008806D01*
X16475312Y-16980234D01*
X16475312Y-16965948D01*
X16489598Y-16937377D01*
X16518169Y-16923091D01*
X16561026Y-16923091D01*
X16589598Y-16937377D01*
X16775312Y-17123091D02*
X16746741Y-17108806D01*
X16732455Y-17080234D01*
X16732455Y-16823091D01*
X16932455Y-17123091D02*
X16903884Y-17108806D01*
X16889598Y-17094520D01*
X16875312Y-17065948D01*
X16875312Y-16980234D01*
X16889598Y-16951663D01*
X16903884Y-16937377D01*
X16932455Y-16923091D01*
X16975312Y-16923091D01*
X17003884Y-16937377D01*
X17018169Y-16951663D01*
X17032455Y-16980234D01*
X17032455Y-17065948D01*
X17018169Y-17094520D01*
X17003884Y-17108806D01*
X16975312Y-17123091D01*
X16932455Y-17123091D01*
X17118169Y-16923091D02*
X17232455Y-16923091D01*
X17161026Y-16823091D02*
X17161026Y-17080234D01*
X17175312Y-17108806D01*
X17203884Y-17123091D01*
X17232455Y-17123091D01*
X17318169Y-17108806D02*
X17346741Y-17123091D01*
X17403884Y-17123091D01*
X17432455Y-17108806D01*
X17446741Y-17080234D01*
X17446741Y-17065948D01*
X17432455Y-17037377D01*
X17403884Y-17023091D01*
X17361026Y-17023091D01*
X17332455Y-17008806D01*
X17318169Y-16980234D01*
X17318169Y-16965948D01*
X17332455Y-16937377D01*
X17361026Y-16923091D01*
X17403884Y-16923091D01*
X17432455Y-16937377D01*
X17546741Y-17237377D02*
X17561026Y-17223091D01*
X17589598Y-17180234D01*
X17603884Y-17151663D01*
X17618169Y-17108806D01*
X17632455Y-17037377D01*
X17632455Y-16980234D01*
X17618169Y-16908806D01*
X17603884Y-16865948D01*
X17589598Y-16837377D01*
X17561026Y-16794520D01*
X17546741Y-16780234D01*
X8048409Y-17412114D02*
X8048409Y-17354640D01*
X7990935Y-17354640D01*
X7990935Y-17412114D01*
X8048409Y-17412114D01*
X8403884Y-17219091D02*
X8432455Y-17219091D01*
X8461026Y-17233377D01*
X8475312Y-17247663D01*
X8489598Y-17276234D01*
X8503884Y-17333377D01*
X8503884Y-17404806D01*
X8489598Y-17461948D01*
X8475312Y-17490520D01*
X8461026Y-17504806D01*
X8432455Y-17519091D01*
X8403884Y-17519091D01*
X8375312Y-17504806D01*
X8361026Y-17490520D01*
X8346741Y-17461948D01*
X8332455Y-17404806D01*
X8332455Y-17333377D01*
X8346741Y-17276234D01*
X8361026Y-17247663D01*
X8375312Y-17233377D01*
X8403884Y-17219091D01*
X8632455Y-17490520D02*
X8646741Y-17504806D01*
X8632455Y-17519091D01*
X8618169Y-17504806D01*
X8632455Y-17490520D01*
X8632455Y-17519091D01*
X8818169Y-17347663D02*
X8789598Y-17333377D01*
X8775312Y-17319091D01*
X8761026Y-17290520D01*
X8761026Y-17276234D01*
X8775312Y-17247663D01*
X8789598Y-17233377D01*
X8818169Y-17219091D01*
X8875312Y-17219091D01*
X8903884Y-17233377D01*
X8918169Y-17247663D01*
X8932455Y-17276234D01*
X8932455Y-17290520D01*
X8918169Y-17319091D01*
X8903884Y-17333377D01*
X8875312Y-17347663D01*
X8818169Y-17347663D01*
X8789598Y-17361948D01*
X8775312Y-17376234D01*
X8761026Y-17404806D01*
X8761026Y-17461948D01*
X8775312Y-17490520D01*
X8789598Y-17504806D01*
X8818169Y-17519091D01*
X8875312Y-17519091D01*
X8903884Y-17504806D01*
X8918169Y-17490520D01*
X8932455Y-17461948D01*
X8932455Y-17404806D01*
X8918169Y-17376234D01*
X8903884Y-17361948D01*
X8875312Y-17347663D01*
X9218169Y-17519091D02*
X9046741Y-17519091D01*
X9132455Y-17519091D02*
X9132455Y-17219091D01*
X9103884Y-17261948D01*
X9075312Y-17290520D01*
X9046741Y-17304806D01*
X9318169Y-17219091D02*
X9503884Y-17219091D01*
X9403884Y-17333377D01*
X9446741Y-17333377D01*
X9475312Y-17347663D01*
X9489598Y-17361948D01*
X9503884Y-17390520D01*
X9503884Y-17461948D01*
X9489598Y-17490520D01*
X9475312Y-17504806D01*
X9446741Y-17519091D01*
X9361026Y-17519091D01*
X9332455Y-17504806D01*
X9318169Y-17490520D01*
X9632455Y-17519091D02*
X9632455Y-17319091D01*
X9632455Y-17347663D02*
X9646741Y-17333377D01*
X9675312Y-17319091D01*
X9718169Y-17319091D01*
X9746741Y-17333377D01*
X9761026Y-17361948D01*
X9761026Y-17519091D01*
X9761026Y-17361948D02*
X9775312Y-17333377D01*
X9803884Y-17319091D01*
X9846741Y-17319091D01*
X9875312Y-17333377D01*
X9889598Y-17361948D01*
X9889598Y-17519091D01*
X10032455Y-17519091D02*
X10032455Y-17319091D01*
X10032455Y-17347663D02*
X10046741Y-17333377D01*
X10075312Y-17319091D01*
X10118169Y-17319091D01*
X10146741Y-17333377D01*
X10161026Y-17361948D01*
X10161026Y-17519091D01*
X10161026Y-17361948D02*
X10175312Y-17333377D01*
X10203884Y-17319091D01*
X10246741Y-17319091D01*
X10275312Y-17333377D01*
X10289598Y-17361948D01*
X10289598Y-17519091D01*
X10875312Y-17204806D02*
X10618169Y-17590520D01*
X11261026Y-17219091D02*
X11289598Y-17219091D01*
X11318169Y-17233377D01*
X11332455Y-17247663D01*
X11346741Y-17276234D01*
X11361026Y-17333377D01*
X11361026Y-17404806D01*
X11346741Y-17461948D01*
X11332455Y-17490520D01*
X11318169Y-17504806D01*
X11289598Y-17519091D01*
X11261026Y-17519091D01*
X11232455Y-17504806D01*
X11218169Y-17490520D01*
X11203884Y-17461948D01*
X11189598Y-17404806D01*
X11189598Y-17333377D01*
X11203884Y-17276234D01*
X11218169Y-17247663D01*
X11232455Y-17233377D01*
X11261026Y-17219091D01*
X11489598Y-17490520D02*
X11503884Y-17504806D01*
X11489598Y-17519091D01*
X11475312Y-17504806D01*
X11489598Y-17490520D01*
X11489598Y-17519091D01*
X11689598Y-17219091D02*
X11718169Y-17219091D01*
X11746741Y-17233377D01*
X11761026Y-17247663D01*
X11775312Y-17276234D01*
X11789598Y-17333377D01*
X11789598Y-17404806D01*
X11775312Y-17461948D01*
X11761026Y-17490520D01*
X11746741Y-17504806D01*
X11718169Y-17519091D01*
X11689598Y-17519091D01*
X11661026Y-17504806D01*
X11646741Y-17490520D01*
X11632455Y-17461948D01*
X11618169Y-17404806D01*
X11618169Y-17333377D01*
X11632455Y-17276234D01*
X11646741Y-17247663D01*
X11661026Y-17233377D01*
X11689598Y-17219091D01*
X11889598Y-17219091D02*
X12075312Y-17219091D01*
X11975312Y-17333377D01*
X12018169Y-17333377D01*
X12046741Y-17347663D01*
X12061026Y-17361948D01*
X12075312Y-17390520D01*
X12075312Y-17461948D01*
X12061026Y-17490520D01*
X12046741Y-17504806D01*
X12018169Y-17519091D01*
X11932455Y-17519091D01*
X11903884Y-17504806D01*
X11889598Y-17490520D01*
X12189598Y-17247663D02*
X12203884Y-17233377D01*
X12232455Y-17219091D01*
X12303884Y-17219091D01*
X12332455Y-17233377D01*
X12346741Y-17247663D01*
X12361026Y-17276234D01*
X12361026Y-17304806D01*
X12346741Y-17347663D01*
X12175312Y-17519091D01*
X12361026Y-17519091D01*
X12546741Y-17219091D02*
X12575312Y-17219091D01*
X12603884Y-17233377D01*
X12618169Y-17247663D01*
X12632455Y-17276234D01*
X12646741Y-17333377D01*
X12646741Y-17404806D01*
X12632455Y-17461948D01*
X12618169Y-17490520D01*
X12603884Y-17504806D01*
X12575312Y-17519091D01*
X12546741Y-17519091D01*
X12518169Y-17504806D01*
X12503884Y-17490520D01*
X12489598Y-17461948D01*
X12475312Y-17404806D01*
X12475312Y-17333377D01*
X12489598Y-17276234D01*
X12503884Y-17247663D01*
X12518169Y-17233377D01*
X12546741Y-17219091D01*
X12761026Y-17219091D02*
X12761026Y-17276234D01*
X12875312Y-17219091D02*
X12875312Y-17276234D01*
X13318169Y-17633377D02*
X13303884Y-17619091D01*
X13275312Y-17576234D01*
X13261026Y-17547663D01*
X13246741Y-17504806D01*
X13232455Y-17433377D01*
X13232455Y-17376234D01*
X13246741Y-17304806D01*
X13261026Y-17261948D01*
X13275312Y-17233377D01*
X13303884Y-17190520D01*
X13318169Y-17176234D01*
X13589598Y-17519091D02*
X13418169Y-17519091D01*
X13503884Y-17519091D02*
X13503884Y-17219091D01*
X13475312Y-17261948D01*
X13446741Y-17290520D01*
X13418169Y-17304806D01*
X13703884Y-17247663D02*
X13718169Y-17233377D01*
X13746741Y-17219091D01*
X13818169Y-17219091D01*
X13846741Y-17233377D01*
X13861026Y-17247663D01*
X13875312Y-17276234D01*
X13875312Y-17304806D01*
X13861026Y-17347663D01*
X13689598Y-17519091D01*
X13875312Y-17519091D01*
X14132455Y-17319091D02*
X14132455Y-17519091D01*
X14061026Y-17204806D02*
X13989598Y-17419091D01*
X14175312Y-17419091D01*
X14518169Y-17519091D02*
X14518169Y-17219091D01*
X14646741Y-17519091D02*
X14646741Y-17361948D01*
X14632455Y-17333377D01*
X14603884Y-17319091D01*
X14561026Y-17319091D01*
X14532455Y-17333377D01*
X14518169Y-17347663D01*
X14832455Y-17519091D02*
X14803884Y-17504806D01*
X14789598Y-17490520D01*
X14775312Y-17461948D01*
X14775312Y-17376234D01*
X14789598Y-17347663D01*
X14803884Y-17333377D01*
X14832455Y-17319091D01*
X14875312Y-17319091D01*
X14903884Y-17333377D01*
X14918169Y-17347663D01*
X14932455Y-17376234D01*
X14932455Y-17461948D01*
X14918169Y-17490520D01*
X14903884Y-17504806D01*
X14875312Y-17519091D01*
X14832455Y-17519091D01*
X15103884Y-17519091D02*
X15075312Y-17504806D01*
X15061026Y-17476234D01*
X15061026Y-17219091D01*
X15332455Y-17504806D02*
X15303884Y-17519091D01*
X15246741Y-17519091D01*
X15218169Y-17504806D01*
X15203884Y-17476234D01*
X15203884Y-17361948D01*
X15218169Y-17333377D01*
X15246741Y-17319091D01*
X15303884Y-17319091D01*
X15332455Y-17333377D01*
X15346741Y-17361948D01*
X15346741Y-17390520D01*
X15203884Y-17419091D01*
X15461026Y-17504806D02*
X15489598Y-17519091D01*
X15546741Y-17519091D01*
X15575312Y-17504806D01*
X15589598Y-17476234D01*
X15589598Y-17461948D01*
X15575312Y-17433377D01*
X15546741Y-17419091D01*
X15503884Y-17419091D01*
X15475312Y-17404806D01*
X15461026Y-17376234D01*
X15461026Y-17361948D01*
X15475312Y-17333377D01*
X15503884Y-17319091D01*
X15546741Y-17319091D01*
X15575312Y-17333377D01*
X15689598Y-17633377D02*
X15703884Y-17619091D01*
X15732455Y-17576234D01*
X15746741Y-17547663D01*
X15761026Y-17504806D01*
X15775312Y-17433377D01*
X15775312Y-17376234D01*
X15761026Y-17304806D01*
X15746741Y-17261948D01*
X15732455Y-17233377D01*
X15703884Y-17190520D01*
X15689598Y-17176234D01*
X8010312Y-17829377D02*
X8060312Y-17779377D01*
X8010312Y-17729377D01*
X7960312Y-17779377D01*
X8010312Y-17829377D01*
X8503884Y-17915091D02*
X8332455Y-17915091D01*
X8418169Y-17915091D02*
X8418169Y-17615091D01*
X8389598Y-17657948D01*
X8361026Y-17686520D01*
X8332455Y-17700806D01*
X8632455Y-17886520D02*
X8646741Y-17900806D01*
X8632455Y-17915091D01*
X8618169Y-17900806D01*
X8632455Y-17886520D01*
X8632455Y-17915091D01*
X8832455Y-17615091D02*
X8861026Y-17615091D01*
X8889598Y-17629377D01*
X8903884Y-17643663D01*
X8918169Y-17672234D01*
X8932455Y-17729377D01*
X8932455Y-17800806D01*
X8918169Y-17857948D01*
X8903884Y-17886520D01*
X8889598Y-17900806D01*
X8861026Y-17915091D01*
X8832455Y-17915091D01*
X8803884Y-17900806D01*
X8789598Y-17886520D01*
X8775312Y-17857948D01*
X8761026Y-17800806D01*
X8761026Y-17729377D01*
X8775312Y-17672234D01*
X8789598Y-17643663D01*
X8803884Y-17629377D01*
X8832455Y-17615091D01*
X9118169Y-17615091D02*
X9146741Y-17615091D01*
X9175312Y-17629377D01*
X9189598Y-17643663D01*
X9203884Y-17672234D01*
X9218169Y-17729377D01*
X9218169Y-17800806D01*
X9203884Y-17857948D01*
X9189598Y-17886520D01*
X9175312Y-17900806D01*
X9146741Y-17915091D01*
X9118169Y-17915091D01*
X9089598Y-17900806D01*
X9075312Y-17886520D01*
X9061026Y-17857948D01*
X9046741Y-17800806D01*
X9046741Y-17729377D01*
X9061026Y-17672234D01*
X9075312Y-17643663D01*
X9089598Y-17629377D01*
X9118169Y-17615091D01*
X9403884Y-17615091D02*
X9432455Y-17615091D01*
X9461026Y-17629377D01*
X9475312Y-17643663D01*
X9489598Y-17672234D01*
X9503884Y-17729377D01*
X9503884Y-17800806D01*
X9489598Y-17857948D01*
X9475312Y-17886520D01*
X9461026Y-17900806D01*
X9432455Y-17915091D01*
X9403884Y-17915091D01*
X9375312Y-17900806D01*
X9361026Y-17886520D01*
X9346741Y-17857948D01*
X9332455Y-17800806D01*
X9332455Y-17729377D01*
X9346741Y-17672234D01*
X9361026Y-17643663D01*
X9375312Y-17629377D01*
X9403884Y-17615091D01*
X9632455Y-17915091D02*
X9632455Y-17715091D01*
X9632455Y-17743663D02*
X9646741Y-17729377D01*
X9675312Y-17715091D01*
X9718169Y-17715091D01*
X9746741Y-17729377D01*
X9761026Y-17757948D01*
X9761026Y-17915091D01*
X9761026Y-17757948D02*
X9775312Y-17729377D01*
X9803884Y-17715091D01*
X9846741Y-17715091D01*
X9875312Y-17729377D01*
X9889598Y-17757948D01*
X9889598Y-17915091D01*
X10032455Y-17915091D02*
X10032455Y-17715091D01*
X10032455Y-17743663D02*
X10046741Y-17729377D01*
X10075312Y-17715091D01*
X10118169Y-17715091D01*
X10146741Y-17729377D01*
X10161026Y-17757948D01*
X10161026Y-17915091D01*
X10161026Y-17757948D02*
X10175312Y-17729377D01*
X10203884Y-17715091D01*
X10246741Y-17715091D01*
X10275312Y-17729377D01*
X10289598Y-17757948D01*
X10289598Y-17915091D01*
X10875312Y-17600806D02*
X10618169Y-17986520D01*
X11261026Y-17615091D02*
X11289598Y-17615091D01*
X11318169Y-17629377D01*
X11332455Y-17643663D01*
X11346741Y-17672234D01*
X11361026Y-17729377D01*
X11361026Y-17800806D01*
X11346741Y-17857948D01*
X11332455Y-17886520D01*
X11318169Y-17900806D01*
X11289598Y-17915091D01*
X11261026Y-17915091D01*
X11232455Y-17900806D01*
X11218169Y-17886520D01*
X11203884Y-17857948D01*
X11189598Y-17800806D01*
X11189598Y-17729377D01*
X11203884Y-17672234D01*
X11218169Y-17643663D01*
X11232455Y-17629377D01*
X11261026Y-17615091D01*
X11489598Y-17886520D02*
X11503884Y-17900806D01*
X11489598Y-17915091D01*
X11475312Y-17900806D01*
X11489598Y-17886520D01*
X11489598Y-17915091D01*
X11689598Y-17615091D02*
X11718169Y-17615091D01*
X11746741Y-17629377D01*
X11761026Y-17643663D01*
X11775312Y-17672234D01*
X11789598Y-17729377D01*
X11789598Y-17800806D01*
X11775312Y-17857948D01*
X11761026Y-17886520D01*
X11746741Y-17900806D01*
X11718169Y-17915091D01*
X11689598Y-17915091D01*
X11661026Y-17900806D01*
X11646741Y-17886520D01*
X11632455Y-17857948D01*
X11618169Y-17800806D01*
X11618169Y-17729377D01*
X11632455Y-17672234D01*
X11646741Y-17643663D01*
X11661026Y-17629377D01*
X11689598Y-17615091D01*
X11889598Y-17615091D02*
X12075312Y-17615091D01*
X11975312Y-17729377D01*
X12018169Y-17729377D01*
X12046741Y-17743663D01*
X12061026Y-17757948D01*
X12075312Y-17786520D01*
X12075312Y-17857948D01*
X12061026Y-17886520D01*
X12046741Y-17900806D01*
X12018169Y-17915091D01*
X11932455Y-17915091D01*
X11903884Y-17900806D01*
X11889598Y-17886520D01*
X12218169Y-17915091D02*
X12275312Y-17915091D01*
X12303884Y-17900806D01*
X12318169Y-17886520D01*
X12346741Y-17843663D01*
X12361026Y-17786520D01*
X12361026Y-17672234D01*
X12346741Y-17643663D01*
X12332455Y-17629377D01*
X12303884Y-17615091D01*
X12246741Y-17615091D01*
X12218169Y-17629377D01*
X12203884Y-17643663D01*
X12189598Y-17672234D01*
X12189598Y-17743663D01*
X12203884Y-17772234D01*
X12218169Y-17786520D01*
X12246741Y-17800806D01*
X12303884Y-17800806D01*
X12332455Y-17786520D01*
X12346741Y-17772234D01*
X12361026Y-17743663D01*
X12618169Y-17715091D02*
X12618169Y-17915091D01*
X12546741Y-17600806D02*
X12475312Y-17815091D01*
X12661026Y-17815091D01*
X12761026Y-17615091D02*
X12761026Y-17672234D01*
X12875312Y-17615091D02*
X12875312Y-17672234D01*
X13318169Y-18029377D02*
X13303884Y-18015091D01*
X13275312Y-17972234D01*
X13261026Y-17943663D01*
X13246741Y-17900806D01*
X13232455Y-17829377D01*
X13232455Y-17772234D01*
X13246741Y-17700806D01*
X13261026Y-17657948D01*
X13275312Y-17629377D01*
X13303884Y-17586520D01*
X13318169Y-17572234D01*
X13589598Y-17915091D02*
X13418169Y-17915091D01*
X13503884Y-17915091D02*
X13503884Y-17615091D01*
X13475312Y-17657948D01*
X13446741Y-17686520D01*
X13418169Y-17700806D01*
X13861026Y-17615091D02*
X13718169Y-17615091D01*
X13703884Y-17757948D01*
X13718169Y-17743663D01*
X13746741Y-17729377D01*
X13818169Y-17729377D01*
X13846741Y-17743663D01*
X13861026Y-17757948D01*
X13875312Y-17786520D01*
X13875312Y-17857948D01*
X13861026Y-17886520D01*
X13846741Y-17900806D01*
X13818169Y-17915091D01*
X13746741Y-17915091D01*
X13718169Y-17900806D01*
X13703884Y-17886520D01*
X14232455Y-17915091D02*
X14232455Y-17615091D01*
X14361026Y-17915091D02*
X14361026Y-17757948D01*
X14346741Y-17729377D01*
X14318169Y-17715091D01*
X14275312Y-17715091D01*
X14246741Y-17729377D01*
X14232455Y-17743663D01*
X14546741Y-17915091D02*
X14518169Y-17900806D01*
X14503884Y-17886520D01*
X14489598Y-17857948D01*
X14489598Y-17772234D01*
X14503884Y-17743663D01*
X14518169Y-17729377D01*
X14546741Y-17715091D01*
X14589598Y-17715091D01*
X14618169Y-17729377D01*
X14632455Y-17743663D01*
X14646741Y-17772234D01*
X14646741Y-17857948D01*
X14632455Y-17886520D01*
X14618169Y-17900806D01*
X14589598Y-17915091D01*
X14546741Y-17915091D01*
X14818169Y-17915091D02*
X14789598Y-17900806D01*
X14775312Y-17872234D01*
X14775312Y-17615091D01*
X15046741Y-17900806D02*
X15018169Y-17915091D01*
X14961026Y-17915091D01*
X14932455Y-17900806D01*
X14918169Y-17872234D01*
X14918169Y-17757948D01*
X14932455Y-17729377D01*
X14961026Y-17715091D01*
X15018169Y-17715091D01*
X15046741Y-17729377D01*
X15061026Y-17757948D01*
X15061026Y-17786520D01*
X14918169Y-17815091D01*
X15175312Y-17900806D02*
X15203884Y-17915091D01*
X15261026Y-17915091D01*
X15289598Y-17900806D01*
X15303884Y-17872234D01*
X15303884Y-17857948D01*
X15289598Y-17829377D01*
X15261026Y-17815091D01*
X15218169Y-17815091D01*
X15189598Y-17800806D01*
X15175312Y-17772234D01*
X15175312Y-17757948D01*
X15189598Y-17729377D01*
X15218169Y-17715091D01*
X15261026Y-17715091D01*
X15289598Y-17729377D01*
X15403884Y-18029377D02*
X15418169Y-18015091D01*
X15446741Y-17972234D01*
X15461026Y-17943663D01*
X15475312Y-17900806D01*
X15489598Y-17829377D01*
X15489598Y-17772234D01*
X15475312Y-17700806D01*
X15461026Y-17657948D01*
X15446741Y-17629377D01*
X15418169Y-17586520D01*
X15403884Y-17572234D01*
X7930312Y-18110377D02*
X8060312Y-18240377D01*
X8060312Y-18110377D02*
X7930312Y-18240377D01*
X8060312Y-18175377D02*
G75*
G03*
X8060312Y-18175377I-65000J0D01*
G01*
X8503884Y-18311091D02*
X8332455Y-18311091D01*
X8418169Y-18311091D02*
X8418169Y-18011091D01*
X8389598Y-18053948D01*
X8361026Y-18082520D01*
X8332455Y-18096806D01*
X8632455Y-18282520D02*
X8646741Y-18296806D01*
X8632455Y-18311091D01*
X8618169Y-18296806D01*
X8632455Y-18282520D01*
X8632455Y-18311091D01*
X8746741Y-18011091D02*
X8932455Y-18011091D01*
X8832455Y-18125377D01*
X8875312Y-18125377D01*
X8903884Y-18139663D01*
X8918169Y-18153948D01*
X8932455Y-18182520D01*
X8932455Y-18253948D01*
X8918169Y-18282520D01*
X8903884Y-18296806D01*
X8875312Y-18311091D01*
X8789598Y-18311091D01*
X8761026Y-18296806D01*
X8746741Y-18282520D01*
X9118169Y-18011091D02*
X9146741Y-18011091D01*
X9175312Y-18025377D01*
X9189598Y-18039663D01*
X9203884Y-18068234D01*
X9218169Y-18125377D01*
X9218169Y-18196806D01*
X9203884Y-18253948D01*
X9189598Y-18282520D01*
X9175312Y-18296806D01*
X9146741Y-18311091D01*
X9118169Y-18311091D01*
X9089598Y-18296806D01*
X9075312Y-18282520D01*
X9061026Y-18253948D01*
X9046741Y-18196806D01*
X9046741Y-18125377D01*
X9061026Y-18068234D01*
X9075312Y-18039663D01*
X9089598Y-18025377D01*
X9118169Y-18011091D01*
X9403884Y-18011091D02*
X9432455Y-18011091D01*
X9461026Y-18025377D01*
X9475312Y-18039663D01*
X9489598Y-18068234D01*
X9503884Y-18125377D01*
X9503884Y-18196806D01*
X9489598Y-18253948D01*
X9475312Y-18282520D01*
X9461026Y-18296806D01*
X9432455Y-18311091D01*
X9403884Y-18311091D01*
X9375312Y-18296806D01*
X9361026Y-18282520D01*
X9346741Y-18253948D01*
X9332455Y-18196806D01*
X9332455Y-18125377D01*
X9346741Y-18068234D01*
X9361026Y-18039663D01*
X9375312Y-18025377D01*
X9403884Y-18011091D01*
X9632455Y-18311091D02*
X9632455Y-18111091D01*
X9632455Y-18139663D02*
X9646741Y-18125377D01*
X9675312Y-18111091D01*
X9718169Y-18111091D01*
X9746741Y-18125377D01*
X9761026Y-18153948D01*
X9761026Y-18311091D01*
X9761026Y-18153948D02*
X9775312Y-18125377D01*
X9803884Y-18111091D01*
X9846741Y-18111091D01*
X9875312Y-18125377D01*
X9889598Y-18153948D01*
X9889598Y-18311091D01*
X10032455Y-18311091D02*
X10032455Y-18111091D01*
X10032455Y-18139663D02*
X10046741Y-18125377D01*
X10075312Y-18111091D01*
X10118169Y-18111091D01*
X10146741Y-18125377D01*
X10161026Y-18153948D01*
X10161026Y-18311091D01*
X10161026Y-18153948D02*
X10175312Y-18125377D01*
X10203884Y-18111091D01*
X10246741Y-18111091D01*
X10275312Y-18125377D01*
X10289598Y-18153948D01*
X10289598Y-18311091D01*
X10875312Y-17996806D02*
X10618169Y-18382520D01*
X11261026Y-18011091D02*
X11289598Y-18011091D01*
X11318169Y-18025377D01*
X11332455Y-18039663D01*
X11346741Y-18068234D01*
X11361026Y-18125377D01*
X11361026Y-18196806D01*
X11346741Y-18253948D01*
X11332455Y-18282520D01*
X11318169Y-18296806D01*
X11289598Y-18311091D01*
X11261026Y-18311091D01*
X11232455Y-18296806D01*
X11218169Y-18282520D01*
X11203884Y-18253948D01*
X11189598Y-18196806D01*
X11189598Y-18125377D01*
X11203884Y-18068234D01*
X11218169Y-18039663D01*
X11232455Y-18025377D01*
X11261026Y-18011091D01*
X11489598Y-18282520D02*
X11503884Y-18296806D01*
X11489598Y-18311091D01*
X11475312Y-18296806D01*
X11489598Y-18282520D01*
X11489598Y-18311091D01*
X11689598Y-18011091D02*
X11718169Y-18011091D01*
X11746741Y-18025377D01*
X11761026Y-18039663D01*
X11775312Y-18068234D01*
X11789598Y-18125377D01*
X11789598Y-18196806D01*
X11775312Y-18253948D01*
X11761026Y-18282520D01*
X11746741Y-18296806D01*
X11718169Y-18311091D01*
X11689598Y-18311091D01*
X11661026Y-18296806D01*
X11646741Y-18282520D01*
X11632455Y-18253948D01*
X11618169Y-18196806D01*
X11618169Y-18125377D01*
X11632455Y-18068234D01*
X11646741Y-18039663D01*
X11661026Y-18025377D01*
X11689598Y-18011091D01*
X12061026Y-18011091D02*
X11918169Y-18011091D01*
X11903884Y-18153948D01*
X11918169Y-18139663D01*
X11946741Y-18125377D01*
X12018169Y-18125377D01*
X12046741Y-18139663D01*
X12061026Y-18153948D01*
X12075312Y-18182520D01*
X12075312Y-18253948D01*
X12061026Y-18282520D01*
X12046741Y-18296806D01*
X12018169Y-18311091D01*
X11946741Y-18311091D01*
X11918169Y-18296806D01*
X11903884Y-18282520D01*
X12361026Y-18311091D02*
X12189598Y-18311091D01*
X12275312Y-18311091D02*
X12275312Y-18011091D01*
X12246741Y-18053948D01*
X12218169Y-18082520D01*
X12189598Y-18096806D01*
X12475312Y-18039663D02*
X12489598Y-18025377D01*
X12518169Y-18011091D01*
X12589598Y-18011091D01*
X12618169Y-18025377D01*
X12632455Y-18039663D01*
X12646741Y-18068234D01*
X12646741Y-18096806D01*
X12632455Y-18139663D01*
X12461026Y-18311091D01*
X12646741Y-18311091D01*
X12761026Y-18011091D02*
X12761026Y-18068234D01*
X12875312Y-18011091D02*
X12875312Y-18068234D01*
X13318169Y-18425377D02*
X13303884Y-18411091D01*
X13275312Y-18368234D01*
X13261026Y-18339663D01*
X13246741Y-18296806D01*
X13232455Y-18225377D01*
X13232455Y-18168234D01*
X13246741Y-18096806D01*
X13261026Y-18053948D01*
X13275312Y-18025377D01*
X13303884Y-17982520D01*
X13318169Y-17968234D01*
X13418169Y-18039663D02*
X13432455Y-18025377D01*
X13461026Y-18011091D01*
X13532455Y-18011091D01*
X13561026Y-18025377D01*
X13575312Y-18039663D01*
X13589598Y-18068234D01*
X13589598Y-18096806D01*
X13575312Y-18139663D01*
X13403884Y-18311091D01*
X13589598Y-18311091D01*
X13946741Y-18311091D02*
X13946741Y-18011091D01*
X14075312Y-18311091D02*
X14075312Y-18153948D01*
X14061026Y-18125377D01*
X14032455Y-18111091D01*
X13989598Y-18111091D01*
X13961026Y-18125377D01*
X13946741Y-18139663D01*
X14261026Y-18311091D02*
X14232455Y-18296806D01*
X14218169Y-18282520D01*
X14203884Y-18253948D01*
X14203884Y-18168234D01*
X14218169Y-18139663D01*
X14232455Y-18125377D01*
X14261026Y-18111091D01*
X14303884Y-18111091D01*
X14332455Y-18125377D01*
X14346741Y-18139663D01*
X14361026Y-18168234D01*
X14361026Y-18253948D01*
X14346741Y-18282520D01*
X14332455Y-18296806D01*
X14303884Y-18311091D01*
X14261026Y-18311091D01*
X14532455Y-18311091D02*
X14503884Y-18296806D01*
X14489598Y-18268234D01*
X14489598Y-18011091D01*
X14761026Y-18296806D02*
X14732455Y-18311091D01*
X14675312Y-18311091D01*
X14646741Y-18296806D01*
X14632455Y-18268234D01*
X14632455Y-18153948D01*
X14646741Y-18125377D01*
X14675312Y-18111091D01*
X14732455Y-18111091D01*
X14761026Y-18125377D01*
X14775312Y-18153948D01*
X14775312Y-18182520D01*
X14632455Y-18211091D01*
X14889598Y-18296806D02*
X14918169Y-18311091D01*
X14975312Y-18311091D01*
X15003884Y-18296806D01*
X15018169Y-18268234D01*
X15018169Y-18253948D01*
X15003884Y-18225377D01*
X14975312Y-18211091D01*
X14932455Y-18211091D01*
X14903884Y-18196806D01*
X14889598Y-18168234D01*
X14889598Y-18153948D01*
X14903884Y-18125377D01*
X14932455Y-18111091D01*
X14975312Y-18111091D01*
X15003884Y-18125377D01*
X15118169Y-18425377D02*
X15132455Y-18411091D01*
X15161026Y-18368234D01*
X15175312Y-18339663D01*
X15189598Y-18296806D01*
X15203884Y-18225377D01*
X15203884Y-18168234D01*
X15189598Y-18096806D01*
X15175312Y-18053948D01*
X15161026Y-18025377D01*
X15132455Y-17982520D01*
X15118169Y-17968234D01*
X7910312Y-18496377D02*
X8060312Y-18646377D01*
X8060312Y-18496377D02*
X7910312Y-18646377D01*
X7985312Y-18496377D02*
X7985312Y-18646377D01*
X7910312Y-18571377D02*
X8060312Y-18571377D01*
X8503884Y-18707091D02*
X8332455Y-18707091D01*
X8418169Y-18707091D02*
X8418169Y-18407091D01*
X8389598Y-18449948D01*
X8361026Y-18478520D01*
X8332455Y-18492806D01*
X8632455Y-18678520D02*
X8646741Y-18692806D01*
X8632455Y-18707091D01*
X8618169Y-18692806D01*
X8632455Y-18678520D01*
X8632455Y-18707091D01*
X8918169Y-18407091D02*
X8775312Y-18407091D01*
X8761026Y-18549948D01*
X8775312Y-18535663D01*
X8803884Y-18521377D01*
X8875312Y-18521377D01*
X8903884Y-18535663D01*
X8918169Y-18549948D01*
X8932455Y-18578520D01*
X8932455Y-18649948D01*
X8918169Y-18678520D01*
X8903884Y-18692806D01*
X8875312Y-18707091D01*
X8803884Y-18707091D01*
X8775312Y-18692806D01*
X8761026Y-18678520D01*
X9118169Y-18407091D02*
X9146741Y-18407091D01*
X9175312Y-18421377D01*
X9189598Y-18435663D01*
X9203884Y-18464234D01*
X9218169Y-18521377D01*
X9218169Y-18592806D01*
X9203884Y-18649948D01*
X9189598Y-18678520D01*
X9175312Y-18692806D01*
X9146741Y-18707091D01*
X9118169Y-18707091D01*
X9089598Y-18692806D01*
X9075312Y-18678520D01*
X9061026Y-18649948D01*
X9046741Y-18592806D01*
X9046741Y-18521377D01*
X9061026Y-18464234D01*
X9075312Y-18435663D01*
X9089598Y-18421377D01*
X9118169Y-18407091D01*
X9403884Y-18407091D02*
X9432455Y-18407091D01*
X9461026Y-18421377D01*
X9475312Y-18435663D01*
X9489598Y-18464234D01*
X9503884Y-18521377D01*
X9503884Y-18592806D01*
X9489598Y-18649948D01*
X9475312Y-18678520D01*
X9461026Y-18692806D01*
X9432455Y-18707091D01*
X9403884Y-18707091D01*
X9375312Y-18692806D01*
X9361026Y-18678520D01*
X9346741Y-18649948D01*
X9332455Y-18592806D01*
X9332455Y-18521377D01*
X9346741Y-18464234D01*
X9361026Y-18435663D01*
X9375312Y-18421377D01*
X9403884Y-18407091D01*
X9632455Y-18707091D02*
X9632455Y-18507091D01*
X9632455Y-18535663D02*
X9646741Y-18521377D01*
X9675312Y-18507091D01*
X9718169Y-18507091D01*
X9746741Y-18521377D01*
X9761026Y-18549948D01*
X9761026Y-18707091D01*
X9761026Y-18549948D02*
X9775312Y-18521377D01*
X9803884Y-18507091D01*
X9846741Y-18507091D01*
X9875312Y-18521377D01*
X9889598Y-18549948D01*
X9889598Y-18707091D01*
X10032455Y-18707091D02*
X10032455Y-18507091D01*
X10032455Y-18535663D02*
X10046741Y-18521377D01*
X10075312Y-18507091D01*
X10118169Y-18507091D01*
X10146741Y-18521377D01*
X10161026Y-18549948D01*
X10161026Y-18707091D01*
X10161026Y-18549948D02*
X10175312Y-18521377D01*
X10203884Y-18507091D01*
X10246741Y-18507091D01*
X10275312Y-18521377D01*
X10289598Y-18549948D01*
X10289598Y-18707091D01*
X10875312Y-18392806D02*
X10618169Y-18778520D01*
X11261026Y-18407091D02*
X11289598Y-18407091D01*
X11318169Y-18421377D01*
X11332455Y-18435663D01*
X11346741Y-18464234D01*
X11361026Y-18521377D01*
X11361026Y-18592806D01*
X11346741Y-18649948D01*
X11332455Y-18678520D01*
X11318169Y-18692806D01*
X11289598Y-18707091D01*
X11261026Y-18707091D01*
X11232455Y-18692806D01*
X11218169Y-18678520D01*
X11203884Y-18649948D01*
X11189598Y-18592806D01*
X11189598Y-18521377D01*
X11203884Y-18464234D01*
X11218169Y-18435663D01*
X11232455Y-18421377D01*
X11261026Y-18407091D01*
X11489598Y-18678520D02*
X11503884Y-18692806D01*
X11489598Y-18707091D01*
X11475312Y-18692806D01*
X11489598Y-18678520D01*
X11489598Y-18707091D01*
X11689598Y-18407091D02*
X11718169Y-18407091D01*
X11746741Y-18421377D01*
X11761026Y-18435663D01*
X11775312Y-18464234D01*
X11789598Y-18521377D01*
X11789598Y-18592806D01*
X11775312Y-18649948D01*
X11761026Y-18678520D01*
X11746741Y-18692806D01*
X11718169Y-18707091D01*
X11689598Y-18707091D01*
X11661026Y-18692806D01*
X11646741Y-18678520D01*
X11632455Y-18649948D01*
X11618169Y-18592806D01*
X11618169Y-18521377D01*
X11632455Y-18464234D01*
X11646741Y-18435663D01*
X11661026Y-18421377D01*
X11689598Y-18407091D01*
X12061026Y-18407091D02*
X11918169Y-18407091D01*
X11903884Y-18549948D01*
X11918169Y-18535663D01*
X11946741Y-18521377D01*
X12018169Y-18521377D01*
X12046741Y-18535663D01*
X12061026Y-18549948D01*
X12075312Y-18578520D01*
X12075312Y-18649948D01*
X12061026Y-18678520D01*
X12046741Y-18692806D01*
X12018169Y-18707091D01*
X11946741Y-18707091D01*
X11918169Y-18692806D01*
X11903884Y-18678520D01*
X12218169Y-18707091D02*
X12275312Y-18707091D01*
X12303884Y-18692806D01*
X12318169Y-18678520D01*
X12346741Y-18635663D01*
X12361026Y-18578520D01*
X12361026Y-18464234D01*
X12346741Y-18435663D01*
X12332455Y-18421377D01*
X12303884Y-18407091D01*
X12246741Y-18407091D01*
X12218169Y-18421377D01*
X12203884Y-18435663D01*
X12189598Y-18464234D01*
X12189598Y-18535663D01*
X12203884Y-18564234D01*
X12218169Y-18578520D01*
X12246741Y-18592806D01*
X12303884Y-18592806D01*
X12332455Y-18578520D01*
X12346741Y-18564234D01*
X12361026Y-18535663D01*
X12646741Y-18707091D02*
X12475312Y-18707091D01*
X12561026Y-18707091D02*
X12561026Y-18407091D01*
X12532455Y-18449948D01*
X12503884Y-18478520D01*
X12475312Y-18492806D01*
X12761026Y-18407091D02*
X12761026Y-18464234D01*
X12875312Y-18407091D02*
X12875312Y-18464234D01*
X13318169Y-18821377D02*
X13303884Y-18807091D01*
X13275312Y-18764234D01*
X13261026Y-18735663D01*
X13246741Y-18692806D01*
X13232455Y-18621377D01*
X13232455Y-18564234D01*
X13246741Y-18492806D01*
X13261026Y-18449948D01*
X13275312Y-18421377D01*
X13303884Y-18378520D01*
X13318169Y-18364234D01*
X13489598Y-18407091D02*
X13518169Y-18407091D01*
X13546741Y-18421377D01*
X13561026Y-18435663D01*
X13575312Y-18464234D01*
X13589598Y-18521377D01*
X13589598Y-18592806D01*
X13575312Y-18649948D01*
X13561026Y-18678520D01*
X13546741Y-18692806D01*
X13518169Y-18707091D01*
X13489598Y-18707091D01*
X13461026Y-18692806D01*
X13446741Y-18678520D01*
X13432455Y-18649948D01*
X13418169Y-18592806D01*
X13418169Y-18521377D01*
X13432455Y-18464234D01*
X13446741Y-18435663D01*
X13461026Y-18421377D01*
X13489598Y-18407091D01*
X13946741Y-18707091D02*
X13946741Y-18407091D01*
X14075312Y-18707091D02*
X14075312Y-18549948D01*
X14061026Y-18521377D01*
X14032455Y-18507091D01*
X13989598Y-18507091D01*
X13961026Y-18521377D01*
X13946741Y-18535663D01*
X14261026Y-18707091D02*
X14232455Y-18692806D01*
X14218169Y-18678520D01*
X14203884Y-18649948D01*
X14203884Y-18564234D01*
X14218169Y-18535663D01*
X14232455Y-18521377D01*
X14261026Y-18507091D01*
X14303884Y-18507091D01*
X14332455Y-18521377D01*
X14346741Y-18535663D01*
X14361026Y-18564234D01*
X14361026Y-18649948D01*
X14346741Y-18678520D01*
X14332455Y-18692806D01*
X14303884Y-18707091D01*
X14261026Y-18707091D01*
X14532455Y-18707091D02*
X14503884Y-18692806D01*
X14489598Y-18664234D01*
X14489598Y-18407091D01*
X14761026Y-18692806D02*
X14732455Y-18707091D01*
X14675312Y-18707091D01*
X14646741Y-18692806D01*
X14632455Y-18664234D01*
X14632455Y-18549948D01*
X14646741Y-18521377D01*
X14675312Y-18507091D01*
X14732455Y-18507091D01*
X14761026Y-18521377D01*
X14775312Y-18549948D01*
X14775312Y-18578520D01*
X14632455Y-18607091D01*
X14889598Y-18692806D02*
X14918169Y-18707091D01*
X14975312Y-18707091D01*
X15003884Y-18692806D01*
X15018169Y-18664234D01*
X15018169Y-18649948D01*
X15003884Y-18621377D01*
X14975312Y-18607091D01*
X14932455Y-18607091D01*
X14903884Y-18592806D01*
X14889598Y-18564234D01*
X14889598Y-18549948D01*
X14903884Y-18521377D01*
X14932455Y-18507091D01*
X14975312Y-18507091D01*
X15003884Y-18521377D01*
X15375312Y-18592806D02*
X15603884Y-18592806D01*
X15489598Y-18707091D02*
X15489598Y-18478520D01*
X16103884Y-18407091D02*
X16046741Y-18407091D01*
X16018169Y-18421377D01*
X16003884Y-18435663D01*
X15975312Y-18478520D01*
X15961026Y-18535663D01*
X15961026Y-18649948D01*
X15975312Y-18678520D01*
X15989598Y-18692806D01*
X16018169Y-18707091D01*
X16075312Y-18707091D01*
X16103884Y-18692806D01*
X16118169Y-18678520D01*
X16132455Y-18649948D01*
X16132455Y-18578520D01*
X16118169Y-18549948D01*
X16103884Y-18535663D01*
X16075312Y-18521377D01*
X16018169Y-18521377D01*
X15989598Y-18535663D01*
X15975312Y-18549948D01*
X15961026Y-18578520D01*
X16475312Y-18692806D02*
X16503884Y-18707091D01*
X16561026Y-18707091D01*
X16589598Y-18692806D01*
X16603884Y-18664234D01*
X16603884Y-18649948D01*
X16589598Y-18621377D01*
X16561026Y-18607091D01*
X16518169Y-18607091D01*
X16489598Y-18592806D01*
X16475312Y-18564234D01*
X16475312Y-18549948D01*
X16489598Y-18521377D01*
X16518169Y-18507091D01*
X16561026Y-18507091D01*
X16589598Y-18521377D01*
X16775312Y-18707091D02*
X16746741Y-18692806D01*
X16732455Y-18664234D01*
X16732455Y-18407091D01*
X16932455Y-18707091D02*
X16903884Y-18692806D01*
X16889598Y-18678520D01*
X16875312Y-18649948D01*
X16875312Y-18564234D01*
X16889598Y-18535663D01*
X16903884Y-18521377D01*
X16932455Y-18507091D01*
X16975312Y-18507091D01*
X17003884Y-18521377D01*
X17018169Y-18535663D01*
X17032455Y-18564234D01*
X17032455Y-18649948D01*
X17018169Y-18678520D01*
X17003884Y-18692806D01*
X16975312Y-18707091D01*
X16932455Y-18707091D01*
X17118169Y-18507091D02*
X17232455Y-18507091D01*
X17161026Y-18407091D02*
X17161026Y-18664234D01*
X17175312Y-18692806D01*
X17203884Y-18707091D01*
X17232455Y-18707091D01*
X17318169Y-18692806D02*
X17346741Y-18707091D01*
X17403884Y-18707091D01*
X17432455Y-18692806D01*
X17446741Y-18664234D01*
X17446741Y-18649948D01*
X17432455Y-18621377D01*
X17403884Y-18607091D01*
X17361026Y-18607091D01*
X17332455Y-18592806D01*
X17318169Y-18564234D01*
X17318169Y-18549948D01*
X17332455Y-18521377D01*
X17361026Y-18507091D01*
X17403884Y-18507091D01*
X17432455Y-18521377D01*
X17546741Y-18821377D02*
X17561026Y-18807091D01*
X17589598Y-18764234D01*
X17603884Y-18735663D01*
X17618169Y-18692806D01*
X17632455Y-18621377D01*
X17632455Y-18564234D01*
X17618169Y-18492806D01*
X17603884Y-18449948D01*
X17589598Y-18421377D01*
X17561026Y-18378520D01*
X17546741Y-18364234D01*
X7840312Y-18857377D02*
X8060312Y-19077377D01*
X8060312Y-18857377D02*
X7840312Y-19077377D01*
X8028095Y-19045160D02*
X8028095Y-18889595D01*
X7872530Y-18889595D01*
X7872530Y-19045160D01*
X8028095Y-19045160D01*
X8332455Y-18831663D02*
X8346741Y-18817377D01*
X8375312Y-18803091D01*
X8446741Y-18803091D01*
X8475312Y-18817377D01*
X8489598Y-18831663D01*
X8503884Y-18860234D01*
X8503884Y-18888806D01*
X8489598Y-18931663D01*
X8318169Y-19103091D01*
X8503884Y-19103091D01*
X8632455Y-19074520D02*
X8646741Y-19088806D01*
X8632455Y-19103091D01*
X8618169Y-19088806D01*
X8632455Y-19074520D01*
X8632455Y-19103091D01*
X8761026Y-18831663D02*
X8775312Y-18817377D01*
X8803884Y-18803091D01*
X8875312Y-18803091D01*
X8903884Y-18817377D01*
X8918169Y-18831663D01*
X8932455Y-18860234D01*
X8932455Y-18888806D01*
X8918169Y-18931663D01*
X8746741Y-19103091D01*
X8932455Y-19103091D01*
X9118169Y-18803091D02*
X9146741Y-18803091D01*
X9175312Y-18817377D01*
X9189598Y-18831663D01*
X9203884Y-18860234D01*
X9218169Y-18917377D01*
X9218169Y-18988806D01*
X9203884Y-19045948D01*
X9189598Y-19074520D01*
X9175312Y-19088806D01*
X9146741Y-19103091D01*
X9118169Y-19103091D01*
X9089598Y-19088806D01*
X9075312Y-19074520D01*
X9061026Y-19045948D01*
X9046741Y-18988806D01*
X9046741Y-18917377D01*
X9061026Y-18860234D01*
X9075312Y-18831663D01*
X9089598Y-18817377D01*
X9118169Y-18803091D01*
X9403884Y-18803091D02*
X9432455Y-18803091D01*
X9461026Y-18817377D01*
X9475312Y-18831663D01*
X9489598Y-18860234D01*
X9503884Y-18917377D01*
X9503884Y-18988806D01*
X9489598Y-19045948D01*
X9475312Y-19074520D01*
X9461026Y-19088806D01*
X9432455Y-19103091D01*
X9403884Y-19103091D01*
X9375312Y-19088806D01*
X9361026Y-19074520D01*
X9346741Y-19045948D01*
X9332455Y-18988806D01*
X9332455Y-18917377D01*
X9346741Y-18860234D01*
X9361026Y-18831663D01*
X9375312Y-18817377D01*
X9403884Y-18803091D01*
X9632455Y-19103091D02*
X9632455Y-18903091D01*
X9632455Y-18931663D02*
X9646741Y-18917377D01*
X9675312Y-18903091D01*
X9718169Y-18903091D01*
X9746741Y-18917377D01*
X9761026Y-18945948D01*
X9761026Y-19103091D01*
X9761026Y-18945948D02*
X9775312Y-18917377D01*
X9803884Y-18903091D01*
X9846741Y-18903091D01*
X9875312Y-18917377D01*
X9889598Y-18945948D01*
X9889598Y-19103091D01*
X10032455Y-19103091D02*
X10032455Y-18903091D01*
X10032455Y-18931663D02*
X10046741Y-18917377D01*
X10075312Y-18903091D01*
X10118169Y-18903091D01*
X10146741Y-18917377D01*
X10161026Y-18945948D01*
X10161026Y-19103091D01*
X10161026Y-18945948D02*
X10175312Y-18917377D01*
X10203884Y-18903091D01*
X10246741Y-18903091D01*
X10275312Y-18917377D01*
X10289598Y-18945948D01*
X10289598Y-19103091D01*
X10875312Y-18788806D02*
X10618169Y-19174520D01*
X11261026Y-18803091D02*
X11289598Y-18803091D01*
X11318169Y-18817377D01*
X11332455Y-18831663D01*
X11346741Y-18860234D01*
X11361026Y-18917377D01*
X11361026Y-18988806D01*
X11346741Y-19045948D01*
X11332455Y-19074520D01*
X11318169Y-19088806D01*
X11289598Y-19103091D01*
X11261026Y-19103091D01*
X11232455Y-19088806D01*
X11218169Y-19074520D01*
X11203884Y-19045948D01*
X11189598Y-18988806D01*
X11189598Y-18917377D01*
X11203884Y-18860234D01*
X11218169Y-18831663D01*
X11232455Y-18817377D01*
X11261026Y-18803091D01*
X11489598Y-19074520D02*
X11503884Y-19088806D01*
X11489598Y-19103091D01*
X11475312Y-19088806D01*
X11489598Y-19074520D01*
X11489598Y-19103091D01*
X11689598Y-18803091D02*
X11718169Y-18803091D01*
X11746741Y-18817377D01*
X11761026Y-18831663D01*
X11775312Y-18860234D01*
X11789598Y-18917377D01*
X11789598Y-18988806D01*
X11775312Y-19045948D01*
X11761026Y-19074520D01*
X11746741Y-19088806D01*
X11718169Y-19103091D01*
X11689598Y-19103091D01*
X11661026Y-19088806D01*
X11646741Y-19074520D01*
X11632455Y-19045948D01*
X11618169Y-18988806D01*
X11618169Y-18917377D01*
X11632455Y-18860234D01*
X11646741Y-18831663D01*
X11661026Y-18817377D01*
X11689598Y-18803091D01*
X11961026Y-18931663D02*
X11932455Y-18917377D01*
X11918169Y-18903091D01*
X11903884Y-18874520D01*
X11903884Y-18860234D01*
X11918169Y-18831663D01*
X11932455Y-18817377D01*
X11961026Y-18803091D01*
X12018169Y-18803091D01*
X12046741Y-18817377D01*
X12061026Y-18831663D01*
X12075312Y-18860234D01*
X12075312Y-18874520D01*
X12061026Y-18903091D01*
X12046741Y-18917377D01*
X12018169Y-18931663D01*
X11961026Y-18931663D01*
X11932455Y-18945948D01*
X11918169Y-18960234D01*
X11903884Y-18988806D01*
X11903884Y-19045948D01*
X11918169Y-19074520D01*
X11932455Y-19088806D01*
X11961026Y-19103091D01*
X12018169Y-19103091D01*
X12046741Y-19088806D01*
X12061026Y-19074520D01*
X12075312Y-19045948D01*
X12075312Y-18988806D01*
X12061026Y-18960234D01*
X12046741Y-18945948D01*
X12018169Y-18931663D01*
X12332455Y-18803091D02*
X12275312Y-18803091D01*
X12246741Y-18817377D01*
X12232455Y-18831663D01*
X12203884Y-18874520D01*
X12189598Y-18931663D01*
X12189598Y-19045948D01*
X12203884Y-19074520D01*
X12218169Y-19088806D01*
X12246741Y-19103091D01*
X12303884Y-19103091D01*
X12332455Y-19088806D01*
X12346741Y-19074520D01*
X12361026Y-19045948D01*
X12361026Y-18974520D01*
X12346741Y-18945948D01*
X12332455Y-18931663D01*
X12303884Y-18917377D01*
X12246741Y-18917377D01*
X12218169Y-18931663D01*
X12203884Y-18945948D01*
X12189598Y-18974520D01*
X12618169Y-18803091D02*
X12561026Y-18803091D01*
X12532455Y-18817377D01*
X12518169Y-18831663D01*
X12489598Y-18874520D01*
X12475312Y-18931663D01*
X12475312Y-19045948D01*
X12489598Y-19074520D01*
X12503884Y-19088806D01*
X12532455Y-19103091D01*
X12589598Y-19103091D01*
X12618169Y-19088806D01*
X12632455Y-19074520D01*
X12646741Y-19045948D01*
X12646741Y-18974520D01*
X12632455Y-18945948D01*
X12618169Y-18931663D01*
X12589598Y-18917377D01*
X12532455Y-18917377D01*
X12503884Y-18931663D01*
X12489598Y-18945948D01*
X12475312Y-18974520D01*
X12761026Y-18803091D02*
X12761026Y-18860234D01*
X12875312Y-18803091D02*
X12875312Y-18860234D01*
X13318169Y-19217377D02*
X13303884Y-19203091D01*
X13275312Y-19160234D01*
X13261026Y-19131663D01*
X13246741Y-19088806D01*
X13232455Y-19017377D01*
X13232455Y-18960234D01*
X13246741Y-18888806D01*
X13261026Y-18845948D01*
X13275312Y-18817377D01*
X13303884Y-18774520D01*
X13318169Y-18760234D01*
X13403884Y-18803091D02*
X13589598Y-18803091D01*
X13489598Y-18917377D01*
X13532455Y-18917377D01*
X13561026Y-18931663D01*
X13575312Y-18945948D01*
X13589598Y-18974520D01*
X13589598Y-19045948D01*
X13575312Y-19074520D01*
X13561026Y-19088806D01*
X13532455Y-19103091D01*
X13446741Y-19103091D01*
X13418169Y-19088806D01*
X13403884Y-19074520D01*
X13946741Y-19103091D02*
X13946741Y-18803091D01*
X14075312Y-19103091D02*
X14075312Y-18945948D01*
X14061026Y-18917377D01*
X14032455Y-18903091D01*
X13989598Y-18903091D01*
X13961026Y-18917377D01*
X13946741Y-18931663D01*
X14261026Y-19103091D02*
X14232455Y-19088806D01*
X14218169Y-19074520D01*
X14203884Y-19045948D01*
X14203884Y-18960234D01*
X14218169Y-18931663D01*
X14232455Y-18917377D01*
X14261026Y-18903091D01*
X14303884Y-18903091D01*
X14332455Y-18917377D01*
X14346741Y-18931663D01*
X14361026Y-18960234D01*
X14361026Y-19045948D01*
X14346741Y-19074520D01*
X14332455Y-19088806D01*
X14303884Y-19103091D01*
X14261026Y-19103091D01*
X14532455Y-19103091D02*
X14503884Y-19088806D01*
X14489598Y-19060234D01*
X14489598Y-18803091D01*
X14761026Y-19088806D02*
X14732455Y-19103091D01*
X14675312Y-19103091D01*
X14646741Y-19088806D01*
X14632455Y-19060234D01*
X14632455Y-18945948D01*
X14646741Y-18917377D01*
X14675312Y-18903091D01*
X14732455Y-18903091D01*
X14761026Y-18917377D01*
X14775312Y-18945948D01*
X14775312Y-18974520D01*
X14632455Y-19003091D01*
X14889598Y-19088806D02*
X14918169Y-19103091D01*
X14975312Y-19103091D01*
X15003884Y-19088806D01*
X15018169Y-19060234D01*
X15018169Y-19045948D01*
X15003884Y-19017377D01*
X14975312Y-19003091D01*
X14932455Y-19003091D01*
X14903884Y-18988806D01*
X14889598Y-18960234D01*
X14889598Y-18945948D01*
X14903884Y-18917377D01*
X14932455Y-18903091D01*
X14975312Y-18903091D01*
X15003884Y-18917377D01*
X15118169Y-19217377D02*
X15132455Y-19203091D01*
X15161026Y-19160234D01*
X15175312Y-19131663D01*
X15189598Y-19088806D01*
X15203884Y-19017377D01*
X15203884Y-18960234D01*
X15189598Y-18888806D01*
X15175312Y-18845948D01*
X15161026Y-18817377D01*
X15132455Y-18774520D01*
X15118169Y-18760234D01*
M02*
