M48
; DRILL file {KiCad (5.1.12-1-10_14)} date Friday, December 17, 2021 at 12:39:08 PM
; FORMAT={-:-/ absolute / metric / decimal}
; #@! TF.CreationDate,2021-12-17T12:39:08+00:00
; #@! TF.GenerationSoftware,Kicad,Pcbnew,(5.1.12-1-10_14)
; #@! TF.FileFunction,NonPlated,1,2,NPTH
FMAT,2
METRIC
T1C0.720
T2C1.200
T3C1.700
T4C1.900
T5C3.000
T6C4.100
T7C4.200
%
G90
G05
T1
X208.175Y-54.812
X211.071Y-54.964
X224.944Y-78.392
X225.095Y-75.496
T2
X216.371Y-98.458
X216.462Y-96.711
X223.361Y-98.825
X223.453Y-97.077
T3
X85.541Y-97.255
X85.541Y-59.155
X85.541Y-78.205
X85.541Y-40.105
X93.305Y-132.055
X94.541Y-97.255
X94.541Y-59.155
X94.541Y-78.205
X94.541Y-40.105
X100.853Y-127.153
X104.591Y-97.255
X104.591Y-40.105
X104.591Y-78.205
X104.591Y-59.155
X113.591Y-97.255
X113.591Y-40.105
X113.591Y-78.205
X113.591Y-59.155
X124.133Y-93.922
X125.13Y-74.898
X126.127Y-55.874
X127.124Y-36.85
X129.915Y-116.459
X133.12Y-94.393
X134.117Y-75.369
X135.114Y-56.345
X136.111Y-37.321
X138.804Y-115.051
X143.288Y-92.415
X144.285Y-73.399
X145.282Y-54.375
X146.279Y-35.351
X150.758Y-114.418
X152.276Y-92.886
X153.272Y-73.87
X154.269Y-54.846
X155.266Y-35.822
X159.746Y-114.889
X162.181Y-95.916
X163.178Y-76.892
X164.175Y-57.868
X165.172Y-38.844
X171.168Y-96.387
X171.789Y-116.971
X172.165Y-77.363
X173.162Y-58.339
X174.159Y-39.315
X180.418Y-119.527
X181.1Y-98.91
X182.097Y-79.886
X183.094Y-60.862
X184.091Y-41.839
X190.087Y-99.381
X191.085Y-80.357
X191.647Y-124.338
X192.081Y-61.333
X193.078Y-42.31
X199.441Y-128.838
X201.172Y-107.841
X208.966Y-112.341
X209.232Y-136.147
X215.761Y-142.342
X222.345Y-122.329
X228.874Y-128.524
T4
X84.961Y-97.255
X84.961Y-59.155
X84.961Y-78.205
X84.961Y-40.105
X92.819Y-132.371
X95.121Y-97.255
X95.121Y-59.155
X95.121Y-78.205
X95.121Y-40.105
X101.339Y-126.837
X104.011Y-97.255
X104.011Y-40.105
X104.011Y-78.205
X104.011Y-59.155
X114.171Y-97.255
X114.171Y-40.105
X114.171Y-78.205
X114.171Y-59.155
X123.554Y-93.892
X124.551Y-74.868
X125.548Y-55.844
X126.545Y-36.82
X129.342Y-116.55
X133.7Y-94.423
X134.697Y-75.399
X135.694Y-56.376
X136.691Y-37.352
X139.377Y-114.961
X142.709Y-92.385
X143.705Y-73.368
X144.702Y-54.344
X145.699Y-35.32
X150.179Y-114.387
X152.855Y-92.916
X153.851Y-73.9
X154.848Y-54.876
X155.845Y-35.852
X160.325Y-114.919
X161.601Y-95.886
X162.598Y-76.862
X163.595Y-57.838
X164.592Y-38.814
X171.233Y-116.806
X171.747Y-96.417
X172.744Y-77.393
X173.741Y-58.37
X174.738Y-39.346
X180.521Y-98.88
X180.974Y-119.692
X181.518Y-79.856
X182.515Y-60.832
X183.512Y-41.808
X190.667Y-99.412
X191.145Y-124.048
X191.664Y-80.388
X192.661Y-61.364
X193.658Y-42.34
X199.944Y-129.128
X200.67Y-107.551
X208.811Y-135.748
X209.469Y-112.631
X216.181Y-142.741
X221.925Y-121.929
X229.294Y-128.923
T5
X86.231Y-94.715
X86.231Y-56.615
X86.231Y-75.665
X86.231Y-37.565
X87.501Y-92.175
X87.501Y-54.075
X87.501Y-73.125
X87.501Y-35.025
X92.182Y-126.727
X92.5Y-129.549
X92.581Y-92.175
X92.581Y-54.075
X92.581Y-73.125
X92.581Y-35.025
X93.851Y-94.715
X93.851Y-56.615
X93.851Y-75.665
X93.851Y-37.565
X96.442Y-123.96
X98.891Y-125.399
X105.281Y-94.715
X105.281Y-37.565
X105.281Y-75.665
X105.281Y-56.615
X106.551Y-92.175
X106.551Y-35.025
X106.551Y-73.125
X106.551Y-54.075
X111.631Y-92.175
X111.631Y-35.025
X111.631Y-73.125
X111.631Y-54.075
X112.901Y-94.715
X112.901Y-37.565
X112.901Y-75.665
X112.901Y-56.615
X124.955Y-91.422
X125.952Y-72.398
X126.356Y-88.951
X126.949Y-53.374
X127.353Y-69.928
X127.946Y-34.35
X128.35Y-50.904
X129.347Y-31.88
X130.994Y-118.86
X131.429Y-89.217
X132.426Y-70.193
X132.564Y-91.82
X132.646Y-121.17
X133.423Y-51.17
X133.561Y-72.796
X134.42Y-32.146
X134.558Y-53.773
X135.555Y-34.749
X137.663Y-120.375
X138.52Y-117.668
X144.11Y-89.914
X145.107Y-70.898
X145.511Y-87.444
X146.104Y-51.874
X146.508Y-68.428
X147.101Y-32.85
X147.505Y-49.404
X148.502Y-30.38
X150.584Y-87.71
X151.314Y-116.99
X151.581Y-68.694
X151.719Y-90.313
X152.449Y-119.593
X152.578Y-49.67
X152.716Y-71.297
X153.575Y-30.646
X153.713Y-52.273
X154.71Y-33.249
X157.522Y-119.859
X158.924Y-117.389
X163.003Y-93.416
X164.0Y-74.392
X164.404Y-90.945
X164.997Y-55.368
X165.401Y-71.922
X165.994Y-36.344
X166.398Y-52.898
X167.395Y-33.874
X169.477Y-91.211
X170.474Y-72.187
X170.612Y-93.814
X171.471Y-53.164
X171.609Y-74.79
X171.729Y-119.602
X172.225Y-122.398
X172.468Y-34.14
X172.606Y-55.767
X173.603Y-36.743
X177.096Y-123.841
X179.035Y-121.766
X181.922Y-96.41
X182.919Y-77.386
X183.323Y-93.94
X183.916Y-58.362
X184.32Y-74.916
X184.913Y-39.338
X185.317Y-55.892
X186.314Y-36.868
X188.396Y-94.206
X189.393Y-75.182
X189.531Y-96.809
X190.39Y-56.158
X190.528Y-77.785
X190.804Y-129.718
X190.975Y-126.883
X191.387Y-37.134
X191.525Y-58.761
X192.522Y-39.737
X195.204Y-132.258
X197.574Y-130.693
X203.04Y-105.986
X205.409Y-104.421
X207.157Y-141.181
X207.984Y-138.464
X209.639Y-109.796
X209.809Y-106.961
X210.842Y-144.678
X213.512Y-143.71
X224.594Y-120.961
X227.264Y-119.993
X230.122Y-126.206
X230.949Y-123.49
T6
X90.041Y-97.255
X90.041Y-59.155
X90.041Y-78.205
X90.041Y-40.105
X97.079Y-129.604
X109.091Y-97.255
X109.091Y-40.105
X109.091Y-78.205
X109.091Y-59.155
X128.627Y-94.157
X129.624Y-75.134
X130.621Y-56.11
X131.618Y-37.086
X134.36Y-115.755
X147.782Y-92.65
X148.778Y-73.634
X149.775Y-54.61
X150.772Y-35.586
X155.252Y-114.653
X166.674Y-96.151
X167.671Y-77.128
X168.668Y-58.104
X169.665Y-39.08
X176.104Y-118.249
X185.594Y-99.146
X186.591Y-80.122
X187.588Y-61.098
X188.585Y-42.074
X195.544Y-126.588
X205.069Y-110.091
X212.496Y-139.244
X225.609Y-125.426
T7
X99.414Y-116.954
X99.541Y-87.755
X99.541Y-68.705
X99.567Y-48.627
X139.677Y-46.021
X140.392Y-63.66
X144.368Y-106.856
X167.103Y-108.128
X178.233Y-70.159
X179.657Y-50.119
X189.162Y-114.641
X209.095Y-126.122
T0
M30
