G04 #@! TF.GenerationSoftware,KiCad,Pcbnew,(5.1.12-1-10_14)*
G04 #@! TF.CreationDate,2021-12-17T12:39:00+00:00*
G04 #@! TF.ProjectId,avalanche-hotswap,6176616c-616e-4636-9865-2d686f747377,rev?*
G04 #@! TF.SameCoordinates,Original*
G04 #@! TF.FileFunction,Soldermask,Top*
G04 #@! TF.FilePolarity,Negative*
%FSLAX46Y46*%
G04 Gerber Fmt 4.6, Leading zero omitted, Abs format (unit mm)*
G04 Created by KiCad (PCBNEW (5.1.12-1-10_14)) date 2021-12-17 12:39:00*
%MOMM*%
%LPD*%
G01*
G04 APERTURE LIST*
%ADD10C,3.400000*%
%ADD11C,4.500000*%
%ADD12C,2.300000*%
%ADD13C,2.100000*%
%ADD14C,4.600000*%
%ADD15C,1.797000*%
%ADD16C,4.400000*%
%ADD17C,1.924000*%
%ADD18C,1.120000*%
%ADD19C,2.400000*%
%ADD20C,1.200000*%
%ADD21C,1.600000*%
G04 APERTURE END LIST*
G36*
G01*
X197110567Y-38935967D02*
X197005895Y-40933226D01*
G75*
G02*
X196795702Y-41122485I-199726J10467D01*
G01*
X194498854Y-41002112D01*
G75*
G02*
X194309595Y-40791919I10467J199726D01*
G01*
X194414267Y-38794660D01*
G75*
G02*
X194624460Y-38605401I199726J-10467D01*
G01*
X196921308Y-38725774D01*
G75*
G02*
X197110567Y-38935967I-10467J-199726D01*
G01*
G37*
G36*
G01*
X184560905Y-35734782D02*
X184456233Y-37732041D01*
G75*
G02*
X184246040Y-37921300I-199726J10467D01*
G01*
X181949192Y-37800927D01*
G75*
G02*
X181759933Y-37590734I10467J199726D01*
G01*
X181864605Y-35593475D01*
G75*
G02*
X182074798Y-35404216I199726J-10467D01*
G01*
X184371646Y-35524589D01*
G75*
G02*
X184560905Y-35734782I-10467J-199726D01*
G01*
G37*
D10*
X184912802Y-39338137D03*
X186313995Y-36868085D03*
X192522359Y-39736936D03*
X191387033Y-37133951D03*
D11*
X188584647Y-42074056D03*
D12*
X193657685Y-42339923D03*
X183511609Y-41808189D03*
D13*
X184090814Y-41838544D03*
X193078480Y-42309568D03*
D14*
X189162253Y-114641158D03*
G36*
G01*
X137152580Y-91019377D02*
X137047908Y-93016636D01*
G75*
G02*
X136837715Y-93205895I-199726J10467D01*
G01*
X134540867Y-93085522D01*
G75*
G02*
X134351608Y-92875329I10467J199726D01*
G01*
X134456280Y-90878070D01*
G75*
G02*
X134666473Y-90688811I199726J-10467D01*
G01*
X136963321Y-90809184D01*
G75*
G02*
X137152580Y-91019377I-10467J-199726D01*
G01*
G37*
G36*
G01*
X124602918Y-87818192D02*
X124498246Y-89815451D01*
G75*
G02*
X124288053Y-90004710I-199726J10467D01*
G01*
X121991205Y-89884337D01*
G75*
G02*
X121801946Y-89674144I10467J199726D01*
G01*
X121906618Y-87676885D01*
G75*
G02*
X122116811Y-87487626I199726J-10467D01*
G01*
X124413659Y-87607999D01*
G75*
G02*
X124602918Y-87818192I-10467J-199726D01*
G01*
G37*
D10*
X124954815Y-91421547D03*
X126356008Y-88951495D03*
X132564372Y-91820346D03*
X131429046Y-89217361D03*
D11*
X128626660Y-94157466D03*
D12*
X133699698Y-94423333D03*
X123553622Y-93891599D03*
D13*
X124132827Y-93921954D03*
X133120493Y-94392978D03*
G36*
G01*
X213630071Y-88731870D02*
X212488638Y-88672050D01*
G75*
G02*
X212299379Y-88461857I10467J199726D01*
G01*
X212332612Y-87827727D01*
G75*
G02*
X212542805Y-87638468I199726J-10467D01*
G01*
X213684238Y-87698288D01*
G75*
G02*
X213873497Y-87908481I-10467J-199726D01*
G01*
X213840264Y-88542611D01*
G75*
G02*
X213630071Y-88731870I-199726J10467D01*
G01*
G37*
G36*
G01*
X213682447Y-87732482D02*
X212541014Y-87672662D01*
G75*
G02*
X212351755Y-87462469I10467J199726D01*
G01*
X212384988Y-86828339D01*
G75*
G02*
X212595181Y-86639080I199726J-10467D01*
G01*
X213736614Y-86698900D01*
G75*
G02*
X213925873Y-86909093I-10467J-199726D01*
G01*
X213892640Y-87543223D01*
G75*
G02*
X213682447Y-87732482I-199726J10467D01*
G01*
G37*
G36*
G01*
X211433086Y-88616731D02*
X210291653Y-88556911D01*
G75*
G02*
X210102394Y-88346718I10467J199726D01*
G01*
X210135627Y-87712588D01*
G75*
G02*
X210345820Y-87523329I199726J-10467D01*
G01*
X211487253Y-87583149D01*
G75*
G02*
X211676512Y-87793342I-10467J-199726D01*
G01*
X211643279Y-88427472D01*
G75*
G02*
X211433086Y-88616731I-199726J10467D01*
G01*
G37*
G36*
G01*
X211485462Y-87617343D02*
X210344029Y-87557523D01*
G75*
G02*
X210154770Y-87347330I10467J199726D01*
G01*
X210188003Y-86713200D01*
G75*
G02*
X210398196Y-86523941I199726J-10467D01*
G01*
X211539629Y-86583761D01*
G75*
G02*
X211728888Y-86793954I-10467J-199726D01*
G01*
X211695655Y-87428084D01*
G75*
G02*
X211485462Y-87617343I-199726J10467D01*
G01*
G37*
G36*
G01*
X209236101Y-88501592D02*
X208094668Y-88441772D01*
G75*
G02*
X207905409Y-88231579I10467J199726D01*
G01*
X207938642Y-87597449D01*
G75*
G02*
X208148835Y-87408190I199726J-10467D01*
G01*
X209290268Y-87468010D01*
G75*
G02*
X209479527Y-87678203I-10467J-199726D01*
G01*
X209446294Y-88312333D01*
G75*
G02*
X209236101Y-88501592I-199726J10467D01*
G01*
G37*
G36*
G01*
X209288477Y-87502204D02*
X208147044Y-87442384D01*
G75*
G02*
X207957785Y-87232191I10467J199726D01*
G01*
X207991018Y-86598061D01*
G75*
G02*
X208201211Y-86408802I199726J-10467D01*
G01*
X209342644Y-86468622D01*
G75*
G02*
X209531903Y-86678815I-10467J-199726D01*
G01*
X209498670Y-87312945D01*
G75*
G02*
X209288477Y-87502204I-199726J10467D01*
G01*
G37*
G36*
G01*
X207039116Y-88386452D02*
X205897683Y-88326632D01*
G75*
G02*
X205708424Y-88116439I10467J199726D01*
G01*
X205741657Y-87482309D01*
G75*
G02*
X205951850Y-87293050I199726J-10467D01*
G01*
X207093283Y-87352870D01*
G75*
G02*
X207282542Y-87563063I-10467J-199726D01*
G01*
X207249309Y-88197193D01*
G75*
G02*
X207039116Y-88386452I-199726J10467D01*
G01*
G37*
G36*
G01*
X207091492Y-87387064D02*
X205950059Y-87327244D01*
G75*
G02*
X205760800Y-87117051I10467J199726D01*
G01*
X205794033Y-86482921D01*
G75*
G02*
X206004226Y-86293662I199726J-10467D01*
G01*
X207145659Y-86353482D01*
G75*
G02*
X207334918Y-86563675I-10467J-199726D01*
G01*
X207301685Y-87197805D01*
G75*
G02*
X207091492Y-87387064I-199726J10467D01*
G01*
G37*
D15*
X208797664Y-90554215D03*
X211334183Y-90687148D03*
X213870703Y-90820082D03*
X216407222Y-90953015D03*
G36*
G01*
X149172887Y-98588817D02*
X149225223Y-97590188D01*
G75*
G02*
X149435416Y-97400929I199726J-10467D01*
G01*
X151133086Y-97489900D01*
G75*
G02*
X151322345Y-97700093I-10467J-199726D01*
G01*
X151270009Y-98698722D01*
G75*
G02*
X151059816Y-98887981I-199726J10467D01*
G01*
X149362146Y-98799010D01*
G75*
G02*
X149172887Y-98588817I10467J199726D01*
G01*
G37*
G36*
G01*
X149246157Y-97190735D02*
X149298493Y-96192106D01*
G75*
G02*
X149508686Y-96002847I199726J-10467D01*
G01*
X151206356Y-96091818D01*
G75*
G02*
X151395615Y-96302011I-10467J-199726D01*
G01*
X151343279Y-97300640D01*
G75*
G02*
X151133086Y-97489899I-199726J10467D01*
G01*
X149435416Y-97400928D01*
G75*
G02*
X149246157Y-97190735I10467J199726D01*
G01*
G37*
G36*
G01*
X143680425Y-98300969D02*
X143732761Y-97302340D01*
G75*
G02*
X143942954Y-97113081I199726J-10467D01*
G01*
X145640624Y-97202052D01*
G75*
G02*
X145829883Y-97412245I-10467J-199726D01*
G01*
X145777547Y-98410874D01*
G75*
G02*
X145567354Y-98600133I-199726J10467D01*
G01*
X143869684Y-98511162D01*
G75*
G02*
X143680425Y-98300969I10467J199726D01*
G01*
G37*
G36*
G01*
X143753695Y-96902887D02*
X143806031Y-95904258D01*
G75*
G02*
X144016224Y-95714999I199726J-10467D01*
G01*
X145713894Y-95803970D01*
G75*
G02*
X145903153Y-96014163I-10467J-199726D01*
G01*
X145850817Y-97012792D01*
G75*
G02*
X145640624Y-97202051I-199726J10467D01*
G01*
X143942954Y-97113080D01*
G75*
G02*
X143753695Y-96902887I10467J199726D01*
G01*
G37*
G36*
G01*
X176197348Y-73989461D02*
X176092676Y-75986720D01*
G75*
G02*
X175882483Y-76175979I-199726J10467D01*
G01*
X173585635Y-76055606D01*
G75*
G02*
X173396376Y-75845413I10467J199726D01*
G01*
X173501048Y-73848154D01*
G75*
G02*
X173711241Y-73658895I199726J-10467D01*
G01*
X176008089Y-73779268D01*
G75*
G02*
X176197348Y-73989461I-10467J-199726D01*
G01*
G37*
G36*
G01*
X163647686Y-70788276D02*
X163543014Y-72785535D01*
G75*
G02*
X163332821Y-72974794I-199726J10467D01*
G01*
X161035973Y-72854421D01*
G75*
G02*
X160846714Y-72644228I10467J199726D01*
G01*
X160951386Y-70646969D01*
G75*
G02*
X161161579Y-70457710I199726J-10467D01*
G01*
X163458427Y-70578083D01*
G75*
G02*
X163647686Y-70788276I-10467J-199726D01*
G01*
G37*
D10*
X163999583Y-74391631D03*
X165400776Y-71921579D03*
X171609140Y-74790430D03*
X170473814Y-72187445D03*
D11*
X167671428Y-77127550D03*
D12*
X172744466Y-77393417D03*
X162598390Y-76861683D03*
D13*
X163177595Y-76892038D03*
X172165261Y-77363062D03*
G36*
G01*
X105291269Y-82705259D02*
X105291269Y-81705259D01*
G75*
G02*
X105491269Y-81505259I200000J0D01*
G01*
X107191269Y-81505259D01*
G75*
G02*
X107391269Y-81705259I0J-200000D01*
G01*
X107391269Y-82705259D01*
G75*
G02*
X107191269Y-82905259I-200000J0D01*
G01*
X105491269Y-82905259D01*
G75*
G02*
X105291269Y-82705259I0J200000D01*
G01*
G37*
G36*
G01*
X105291269Y-84105259D02*
X105291269Y-83105259D01*
G75*
G02*
X105491269Y-82905259I200000J0D01*
G01*
X107191269Y-82905259D01*
G75*
G02*
X107391269Y-83105259I0J-200000D01*
G01*
X107391269Y-84105259D01*
G75*
G02*
X107191269Y-84305259I-200000J0D01*
G01*
X105491269Y-84305259D01*
G75*
G02*
X105291269Y-84105259I0J200000D01*
G01*
G37*
G36*
G01*
X110791269Y-82705259D02*
X110791269Y-81705259D01*
G75*
G02*
X110991269Y-81505259I200000J0D01*
G01*
X112691269Y-81505259D01*
G75*
G02*
X112891269Y-81705259I0J-200000D01*
G01*
X112891269Y-82705259D01*
G75*
G02*
X112691269Y-82905259I-200000J0D01*
G01*
X110991269Y-82905259D01*
G75*
G02*
X110791269Y-82705259I0J200000D01*
G01*
G37*
G36*
G01*
X110791269Y-84105259D02*
X110791269Y-83105259D01*
G75*
G02*
X110991269Y-82905259I200000J0D01*
G01*
X112691269Y-82905259D01*
G75*
G02*
X112891269Y-83105259I0J-200000D01*
G01*
X112891269Y-84105259D01*
G75*
G02*
X112691269Y-84305259I-200000J0D01*
G01*
X110991269Y-84305259D01*
G75*
G02*
X110791269Y-84105259I0J200000D01*
G01*
G37*
G36*
G01*
X203592096Y-116048901D02*
X204092096Y-115182875D01*
G75*
G02*
X204365301Y-115109670I173205J-100000D01*
G01*
X205837545Y-115959670D01*
G75*
G02*
X205910750Y-116232875I-100000J-173205D01*
G01*
X205410750Y-117098901D01*
G75*
G02*
X205137545Y-117172106I-173205J100000D01*
G01*
X203665301Y-116322106D01*
G75*
G02*
X203592096Y-116048901I100000J173205D01*
G01*
G37*
G36*
G01*
X204292096Y-114836465D02*
X204792096Y-113970439D01*
G75*
G02*
X205065301Y-113897234I173205J-100000D01*
G01*
X206537545Y-114747234D01*
G75*
G02*
X206610750Y-115020439I-100000J-173205D01*
G01*
X206110750Y-115886465D01*
G75*
G02*
X205837545Y-115959670I-173205J100000D01*
G01*
X204365301Y-115109670D01*
G75*
G02*
X204292096Y-114836465I100000J173205D01*
G01*
G37*
G36*
G01*
X198828956Y-113298901D02*
X199328956Y-112432875D01*
G75*
G02*
X199602161Y-112359670I173205J-100000D01*
G01*
X201074405Y-113209670D01*
G75*
G02*
X201147610Y-113482875I-100000J-173205D01*
G01*
X200647610Y-114348901D01*
G75*
G02*
X200374405Y-114422106I-173205J100000D01*
G01*
X198902161Y-113572106D01*
G75*
G02*
X198828956Y-113298901I100000J173205D01*
G01*
G37*
G36*
G01*
X199528956Y-112086465D02*
X200028956Y-111220439D01*
G75*
G02*
X200302161Y-111147234I173205J-100000D01*
G01*
X201774405Y-111997234D01*
G75*
G02*
X201847610Y-112270439I-100000J-173205D01*
G01*
X201347610Y-113136465D01*
G75*
G02*
X201074405Y-113209670I-173205J100000D01*
G01*
X199602161Y-112359670D01*
G75*
G02*
X199528956Y-112086465I100000J173205D01*
G01*
G37*
G36*
G01*
X135488832Y-112027794D02*
X135332398Y-111040106D01*
G75*
G02*
X135498649Y-110811281I197538J31287D01*
G01*
X137177719Y-110545343D01*
G75*
G02*
X137406544Y-110711594I31287J-197538D01*
G01*
X137562978Y-111699282D01*
G75*
G02*
X137396727Y-111928107I-197538J-31287D01*
G01*
X135717657Y-112194045D01*
G75*
G02*
X135488832Y-112027794I-31287J197538D01*
G01*
G37*
G36*
G01*
X135269824Y-110645030D02*
X135113390Y-109657342D01*
G75*
G02*
X135279641Y-109428517I197538J31287D01*
G01*
X136958711Y-109162579D01*
G75*
G02*
X137187536Y-109328830I31287J-197538D01*
G01*
X137343970Y-110316518D01*
G75*
G02*
X137177719Y-110545343I-197538J-31287D01*
G01*
X135498649Y-110811281D01*
G75*
G02*
X135269824Y-110645030I-31287J197538D01*
G01*
G37*
G36*
G01*
X130056546Y-112888184D02*
X129900112Y-111900496D01*
G75*
G02*
X130066363Y-111671671I197538J31287D01*
G01*
X131745433Y-111405733D01*
G75*
G02*
X131974258Y-111571984I31287J-197538D01*
G01*
X132130692Y-112559672D01*
G75*
G02*
X131964441Y-112788497I-197538J-31287D01*
G01*
X130285371Y-113054435D01*
G75*
G02*
X130056546Y-112888184I-31287J197538D01*
G01*
G37*
G36*
G01*
X129837538Y-111505420D02*
X129681104Y-110517732D01*
G75*
G02*
X129847355Y-110288907I197538J31287D01*
G01*
X131526425Y-110022969D01*
G75*
G02*
X131755250Y-110189220I31287J-197538D01*
G01*
X131911684Y-111176908D01*
G75*
G02*
X131745433Y-111405733I-197538J-31287D01*
G01*
X130066363Y-111671671D01*
G75*
G02*
X129837538Y-111505420I-31287J197538D01*
G01*
G37*
G36*
G01*
X188976586Y-67078806D02*
X189028922Y-66080177D01*
G75*
G02*
X189239115Y-65890918I199726J-10467D01*
G01*
X190936785Y-65979889D01*
G75*
G02*
X191126044Y-66190082I-10467J-199726D01*
G01*
X191073708Y-67188711D01*
G75*
G02*
X190863515Y-67377970I-199726J10467D01*
G01*
X189165845Y-67288999D01*
G75*
G02*
X188976586Y-67078806I10467J199726D01*
G01*
G37*
G36*
G01*
X189049856Y-65680724D02*
X189102192Y-64682095D01*
G75*
G02*
X189312385Y-64492836I199726J-10467D01*
G01*
X191010055Y-64581807D01*
G75*
G02*
X191199314Y-64792000I-10467J-199726D01*
G01*
X191146978Y-65790629D01*
G75*
G02*
X190936785Y-65979888I-199726J10467D01*
G01*
X189239115Y-65890917D01*
G75*
G02*
X189049856Y-65680724I10467J199726D01*
G01*
G37*
G36*
G01*
X183484124Y-66790958D02*
X183536460Y-65792329D01*
G75*
G02*
X183746653Y-65603070I199726J-10467D01*
G01*
X185444323Y-65692041D01*
G75*
G02*
X185633582Y-65902234I-10467J-199726D01*
G01*
X185581246Y-66900863D01*
G75*
G02*
X185371053Y-67090122I-199726J10467D01*
G01*
X183673383Y-67001151D01*
G75*
G02*
X183484124Y-66790958I10467J199726D01*
G01*
G37*
G36*
G01*
X183557394Y-65392876D02*
X183609730Y-64394247D01*
G75*
G02*
X183819923Y-64204988I199726J-10467D01*
G01*
X185517593Y-64293959D01*
G75*
G02*
X185706852Y-64504152I-10467J-199726D01*
G01*
X185654516Y-65502781D01*
G75*
G02*
X185444323Y-65692040I-199726J10467D01*
G01*
X183746653Y-65603069D01*
G75*
G02*
X183557394Y-65392876I10467J199726D01*
G01*
G37*
G36*
G01*
X101718093Y-133626305D02*
X101173453Y-132787635D01*
G75*
G02*
X101232259Y-132510973I167734J108928D01*
G01*
X102657999Y-131585087D01*
G75*
G02*
X102934661Y-131643893I108928J-167734D01*
G01*
X103479301Y-132482563D01*
G75*
G02*
X103420495Y-132759225I-167734J-108928D01*
G01*
X101994755Y-133685111D01*
G75*
G02*
X101718093Y-133626305I-108928J167734D01*
G01*
G37*
G36*
G01*
X100955599Y-132452166D02*
X100410959Y-131613496D01*
G75*
G02*
X100469765Y-131336834I167734J108928D01*
G01*
X101895505Y-130410948D01*
G75*
G02*
X102172167Y-130469754I108928J-167734D01*
G01*
X102716807Y-131308424D01*
G75*
G02*
X102658001Y-131585086I-167734J-108928D01*
G01*
X101232261Y-132510972D01*
G75*
G02*
X100955599Y-132452166I-108928J167734D01*
G01*
G37*
G36*
G01*
X97105405Y-136621820D02*
X96560765Y-135783150D01*
G75*
G02*
X96619571Y-135506488I167734J108928D01*
G01*
X98045311Y-134580602D01*
G75*
G02*
X98321973Y-134639408I108928J-167734D01*
G01*
X98866613Y-135478078D01*
G75*
G02*
X98807807Y-135754740I-167734J-108928D01*
G01*
X97382067Y-136680626D01*
G75*
G02*
X97105405Y-136621820I-108928J167734D01*
G01*
G37*
G36*
G01*
X96342911Y-135447681D02*
X95798271Y-134609011D01*
G75*
G02*
X95857077Y-134332349I167734J108928D01*
G01*
X97282817Y-133406463D01*
G75*
G02*
X97559479Y-133465269I108928J-167734D01*
G01*
X98104119Y-134303939D01*
G75*
G02*
X98045313Y-134580601I-167734J-108928D01*
G01*
X96619573Y-135506487D01*
G75*
G02*
X96342911Y-135447681I-108928J167734D01*
G01*
G37*
G36*
G01*
X86241279Y-101755249D02*
X86241279Y-100755249D01*
G75*
G02*
X86441279Y-100555249I200000J0D01*
G01*
X88141279Y-100555249D01*
G75*
G02*
X88341279Y-100755249I0J-200000D01*
G01*
X88341279Y-101755249D01*
G75*
G02*
X88141279Y-101955249I-200000J0D01*
G01*
X86441279Y-101955249D01*
G75*
G02*
X86241279Y-101755249I0J200000D01*
G01*
G37*
G36*
G01*
X86241279Y-103155249D02*
X86241279Y-102155249D01*
G75*
G02*
X86441279Y-101955249I200000J0D01*
G01*
X88141279Y-101955249D01*
G75*
G02*
X88341279Y-102155249I0J-200000D01*
G01*
X88341279Y-103155249D01*
G75*
G02*
X88141279Y-103355249I-200000J0D01*
G01*
X86441279Y-103355249D01*
G75*
G02*
X86241279Y-103155249I0J200000D01*
G01*
G37*
G36*
G01*
X91741279Y-101755249D02*
X91741279Y-100755249D01*
G75*
G02*
X91941279Y-100555249I200000J0D01*
G01*
X93641279Y-100555249D01*
G75*
G02*
X93841279Y-100755249I0J-200000D01*
G01*
X93841279Y-101755249D01*
G75*
G02*
X93641279Y-101955249I-200000J0D01*
G01*
X91941279Y-101955249D01*
G75*
G02*
X91741279Y-101755249I0J200000D01*
G01*
G37*
G36*
G01*
X91741279Y-103155249D02*
X91741279Y-102155249D01*
G75*
G02*
X91941279Y-101955249I200000J0D01*
G01*
X93641279Y-101955249D01*
G75*
G02*
X93841279Y-102155249I0J-200000D01*
G01*
X93841279Y-103155249D01*
G75*
G02*
X93641279Y-103355249I-200000J0D01*
G01*
X91941279Y-103355249D01*
G75*
G02*
X91741279Y-103155249I0J200000D01*
G01*
G37*
G36*
G01*
X86241265Y-82705254D02*
X86241265Y-81705254D01*
G75*
G02*
X86441265Y-81505254I200000J0D01*
G01*
X88141265Y-81505254D01*
G75*
G02*
X88341265Y-81705254I0J-200000D01*
G01*
X88341265Y-82705254D01*
G75*
G02*
X88141265Y-82905254I-200000J0D01*
G01*
X86441265Y-82905254D01*
G75*
G02*
X86241265Y-82705254I0J200000D01*
G01*
G37*
G36*
G01*
X86241265Y-84105254D02*
X86241265Y-83105254D01*
G75*
G02*
X86441265Y-82905254I200000J0D01*
G01*
X88141265Y-82905254D01*
G75*
G02*
X88341265Y-83105254I0J-200000D01*
G01*
X88341265Y-84105254D01*
G75*
G02*
X88141265Y-84305254I-200000J0D01*
G01*
X86441265Y-84305254D01*
G75*
G02*
X86241265Y-84105254I0J200000D01*
G01*
G37*
G36*
G01*
X91741265Y-82705254D02*
X91741265Y-81705254D01*
G75*
G02*
X91941265Y-81505254I200000J0D01*
G01*
X93641265Y-81505254D01*
G75*
G02*
X93841265Y-81705254I0J-200000D01*
G01*
X93841265Y-82705254D01*
G75*
G02*
X93641265Y-82905254I-200000J0D01*
G01*
X91941265Y-82905254D01*
G75*
G02*
X91741265Y-82705254I0J200000D01*
G01*
G37*
G36*
G01*
X91741265Y-84105254D02*
X91741265Y-83105254D01*
G75*
G02*
X91941265Y-82905254I200000J0D01*
G01*
X93641265Y-82905254D01*
G75*
G02*
X93841265Y-83105254I0J-200000D01*
G01*
X93841265Y-84105254D01*
G75*
G02*
X93641265Y-84305254I-200000J0D01*
G01*
X91941265Y-84305254D01*
G75*
G02*
X91741265Y-84105254I0J200000D01*
G01*
G37*
G36*
G01*
X86241244Y-63655245D02*
X86241244Y-62655245D01*
G75*
G02*
X86441244Y-62455245I200000J0D01*
G01*
X88141244Y-62455245D01*
G75*
G02*
X88341244Y-62655245I0J-200000D01*
G01*
X88341244Y-63655245D01*
G75*
G02*
X88141244Y-63855245I-200000J0D01*
G01*
X86441244Y-63855245D01*
G75*
G02*
X86241244Y-63655245I0J200000D01*
G01*
G37*
G36*
G01*
X86241244Y-65055245D02*
X86241244Y-64055245D01*
G75*
G02*
X86441244Y-63855245I200000J0D01*
G01*
X88141244Y-63855245D01*
G75*
G02*
X88341244Y-64055245I0J-200000D01*
G01*
X88341244Y-65055245D01*
G75*
G02*
X88141244Y-65255245I-200000J0D01*
G01*
X86441244Y-65255245D01*
G75*
G02*
X86241244Y-65055245I0J200000D01*
G01*
G37*
G36*
G01*
X91741244Y-63655245D02*
X91741244Y-62655245D01*
G75*
G02*
X91941244Y-62455245I200000J0D01*
G01*
X93641244Y-62455245D01*
G75*
G02*
X93841244Y-62655245I0J-200000D01*
G01*
X93841244Y-63655245D01*
G75*
G02*
X93641244Y-63855245I-200000J0D01*
G01*
X91941244Y-63855245D01*
G75*
G02*
X91741244Y-63655245I0J200000D01*
G01*
G37*
G36*
G01*
X91741244Y-65055245D02*
X91741244Y-64055245D01*
G75*
G02*
X91941244Y-63855245I200000J0D01*
G01*
X93641244Y-63855245D01*
G75*
G02*
X93841244Y-64055245I0J-200000D01*
G01*
X93841244Y-65055245D01*
G75*
G02*
X93641244Y-65255245I-200000J0D01*
G01*
X91941244Y-65255245D01*
G75*
G02*
X91741244Y-65055245I0J200000D01*
G01*
G37*
G36*
G01*
X86241291Y-44605255D02*
X86241291Y-43605255D01*
G75*
G02*
X86441291Y-43405255I200000J0D01*
G01*
X88141291Y-43405255D01*
G75*
G02*
X88341291Y-43605255I0J-200000D01*
G01*
X88341291Y-44605255D01*
G75*
G02*
X88141291Y-44805255I-200000J0D01*
G01*
X86441291Y-44805255D01*
G75*
G02*
X86241291Y-44605255I0J200000D01*
G01*
G37*
G36*
G01*
X86241291Y-46005255D02*
X86241291Y-45005255D01*
G75*
G02*
X86441291Y-44805255I200000J0D01*
G01*
X88141291Y-44805255D01*
G75*
G02*
X88341291Y-45005255I0J-200000D01*
G01*
X88341291Y-46005255D01*
G75*
G02*
X88141291Y-46205255I-200000J0D01*
G01*
X86441291Y-46205255D01*
G75*
G02*
X86241291Y-46005255I0J200000D01*
G01*
G37*
G36*
G01*
X91741291Y-44605255D02*
X91741291Y-43605255D01*
G75*
G02*
X91941291Y-43405255I200000J0D01*
G01*
X93641291Y-43405255D01*
G75*
G02*
X93841291Y-43605255I0J-200000D01*
G01*
X93841291Y-44605255D01*
G75*
G02*
X93641291Y-44805255I-200000J0D01*
G01*
X91941291Y-44805255D01*
G75*
G02*
X91741291Y-44605255I0J200000D01*
G01*
G37*
G36*
G01*
X91741291Y-46005255D02*
X91741291Y-45005255D01*
G75*
G02*
X91941291Y-44805255I200000J0D01*
G01*
X93641291Y-44805255D01*
G75*
G02*
X93841291Y-45005255I0J-200000D01*
G01*
X93841291Y-46005255D01*
G75*
G02*
X93641291Y-46205255I-200000J0D01*
G01*
X91941291Y-46205255D01*
G75*
G02*
X91741291Y-46005255I0J200000D01*
G01*
G37*
G36*
G01*
X105291266Y-44605254D02*
X105291266Y-43605254D01*
G75*
G02*
X105491266Y-43405254I200000J0D01*
G01*
X107191266Y-43405254D01*
G75*
G02*
X107391266Y-43605254I0J-200000D01*
G01*
X107391266Y-44605254D01*
G75*
G02*
X107191266Y-44805254I-200000J0D01*
G01*
X105491266Y-44805254D01*
G75*
G02*
X105291266Y-44605254I0J200000D01*
G01*
G37*
G36*
G01*
X105291266Y-46005254D02*
X105291266Y-45005254D01*
G75*
G02*
X105491266Y-44805254I200000J0D01*
G01*
X107191266Y-44805254D01*
G75*
G02*
X107391266Y-45005254I0J-200000D01*
G01*
X107391266Y-46005254D01*
G75*
G02*
X107191266Y-46205254I-200000J0D01*
G01*
X105491266Y-46205254D01*
G75*
G02*
X105291266Y-46005254I0J200000D01*
G01*
G37*
G36*
G01*
X110791266Y-44605254D02*
X110791266Y-43605254D01*
G75*
G02*
X110991266Y-43405254I200000J0D01*
G01*
X112691266Y-43405254D01*
G75*
G02*
X112891266Y-43605254I0J-200000D01*
G01*
X112891266Y-44605254D01*
G75*
G02*
X112691266Y-44805254I-200000J0D01*
G01*
X110991266Y-44805254D01*
G75*
G02*
X110791266Y-44605254I0J200000D01*
G01*
G37*
G36*
G01*
X110791266Y-46005254D02*
X110791266Y-45005254D01*
G75*
G02*
X110991266Y-44805254I200000J0D01*
G01*
X112691266Y-44805254D01*
G75*
G02*
X112891266Y-45005254I0J-200000D01*
G01*
X112891266Y-46005254D01*
G75*
G02*
X112691266Y-46205254I-200000J0D01*
G01*
X110991266Y-46205254D01*
G75*
G02*
X110791266Y-46005254I0J200000D01*
G01*
G37*
G36*
G01*
X105291269Y-63655231D02*
X105291269Y-62655231D01*
G75*
G02*
X105491269Y-62455231I200000J0D01*
G01*
X107191269Y-62455231D01*
G75*
G02*
X107391269Y-62655231I0J-200000D01*
G01*
X107391269Y-63655231D01*
G75*
G02*
X107191269Y-63855231I-200000J0D01*
G01*
X105491269Y-63855231D01*
G75*
G02*
X105291269Y-63655231I0J200000D01*
G01*
G37*
G36*
G01*
X105291269Y-65055231D02*
X105291269Y-64055231D01*
G75*
G02*
X105491269Y-63855231I200000J0D01*
G01*
X107191269Y-63855231D01*
G75*
G02*
X107391269Y-64055231I0J-200000D01*
G01*
X107391269Y-65055231D01*
G75*
G02*
X107191269Y-65255231I-200000J0D01*
G01*
X105491269Y-65255231D01*
G75*
G02*
X105291269Y-65055231I0J200000D01*
G01*
G37*
G36*
G01*
X110791269Y-63655231D02*
X110791269Y-62655231D01*
G75*
G02*
X110991269Y-62455231I200000J0D01*
G01*
X112691269Y-62455231D01*
G75*
G02*
X112891269Y-62655231I0J-200000D01*
G01*
X112891269Y-63655231D01*
G75*
G02*
X112691269Y-63855231I-200000J0D01*
G01*
X110991269Y-63855231D01*
G75*
G02*
X110791269Y-63655231I0J200000D01*
G01*
G37*
G36*
G01*
X110791269Y-65055231D02*
X110791269Y-64055231D01*
G75*
G02*
X110991269Y-63855231I200000J0D01*
G01*
X112691269Y-63855231D01*
G75*
G02*
X112891269Y-64055231I0J-200000D01*
G01*
X112891269Y-65055231D01*
G75*
G02*
X112691269Y-65255231I-200000J0D01*
G01*
X110991269Y-65255231D01*
G75*
G02*
X110791269Y-65055231I0J200000D01*
G01*
G37*
G36*
G01*
X105291286Y-101755273D02*
X105291286Y-100755273D01*
G75*
G02*
X105491286Y-100555273I200000J0D01*
G01*
X107191286Y-100555273D01*
G75*
G02*
X107391286Y-100755273I0J-200000D01*
G01*
X107391286Y-101755273D01*
G75*
G02*
X107191286Y-101955273I-200000J0D01*
G01*
X105491286Y-101955273D01*
G75*
G02*
X105291286Y-101755273I0J200000D01*
G01*
G37*
G36*
G01*
X105291286Y-103155273D02*
X105291286Y-102155273D01*
G75*
G02*
X105491286Y-101955273I200000J0D01*
G01*
X107191286Y-101955273D01*
G75*
G02*
X107391286Y-102155273I0J-200000D01*
G01*
X107391286Y-103155273D01*
G75*
G02*
X107191286Y-103355273I-200000J0D01*
G01*
X105491286Y-103355273D01*
G75*
G02*
X105291286Y-103155273I0J200000D01*
G01*
G37*
G36*
G01*
X110791286Y-101755273D02*
X110791286Y-100755273D01*
G75*
G02*
X110991286Y-100555273I200000J0D01*
G01*
X112691286Y-100555273D01*
G75*
G02*
X112891286Y-100755273I0J-200000D01*
G01*
X112891286Y-101755273D01*
G75*
G02*
X112691286Y-101955273I-200000J0D01*
G01*
X110991286Y-101955273D01*
G75*
G02*
X110791286Y-101755273I0J200000D01*
G01*
G37*
G36*
G01*
X110791286Y-103155273D02*
X110791286Y-102155273D01*
G75*
G02*
X110991286Y-101955273I200000J0D01*
G01*
X112691286Y-101955273D01*
G75*
G02*
X112891286Y-102155273I0J-200000D01*
G01*
X112891286Y-103155273D01*
G75*
G02*
X112691286Y-103355273I-200000J0D01*
G01*
X110991286Y-103355273D01*
G75*
G02*
X110791286Y-103155273I0J200000D01*
G01*
G37*
G36*
G01*
X130015551Y-100138370D02*
X130067887Y-99139741D01*
G75*
G02*
X130278080Y-98950482I199726J-10467D01*
G01*
X131975750Y-99039453D01*
G75*
G02*
X132165009Y-99249646I-10467J-199726D01*
G01*
X132112673Y-100248275D01*
G75*
G02*
X131902480Y-100437534I-199726J10467D01*
G01*
X130204810Y-100348563D01*
G75*
G02*
X130015551Y-100138370I10467J199726D01*
G01*
G37*
G36*
G01*
X130088821Y-98740288D02*
X130141157Y-97741659D01*
G75*
G02*
X130351350Y-97552400I199726J-10467D01*
G01*
X132049020Y-97641371D01*
G75*
G02*
X132238279Y-97851564I-10467J-199726D01*
G01*
X132185943Y-98850193D01*
G75*
G02*
X131975750Y-99039452I-199726J10467D01*
G01*
X130278080Y-98950481D01*
G75*
G02*
X130088821Y-98740288I10467J199726D01*
G01*
G37*
G36*
G01*
X124523089Y-99850522D02*
X124575425Y-98851893D01*
G75*
G02*
X124785618Y-98662634I199726J-10467D01*
G01*
X126483288Y-98751605D01*
G75*
G02*
X126672547Y-98961798I-10467J-199726D01*
G01*
X126620211Y-99960427D01*
G75*
G02*
X126410018Y-100149686I-199726J10467D01*
G01*
X124712348Y-100060715D01*
G75*
G02*
X124523089Y-99850522I10467J199726D01*
G01*
G37*
G36*
G01*
X124596359Y-98452440D02*
X124648695Y-97453811D01*
G75*
G02*
X124858888Y-97264552I199726J-10467D01*
G01*
X126556558Y-97353523D01*
G75*
G02*
X126745817Y-97563716I-10467J-199726D01*
G01*
X126693481Y-98562345D01*
G75*
G02*
X126483288Y-98751604I-199726J10467D01*
G01*
X124785618Y-98662633D01*
G75*
G02*
X124596359Y-98452440I10467J199726D01*
G01*
G37*
G36*
G01*
X131012541Y-81114463D02*
X131064877Y-80115834D01*
G75*
G02*
X131275070Y-79926575I199726J-10467D01*
G01*
X132972740Y-80015546D01*
G75*
G02*
X133161999Y-80225739I-10467J-199726D01*
G01*
X133109663Y-81224368D01*
G75*
G02*
X132899470Y-81413627I-199726J10467D01*
G01*
X131201800Y-81324656D01*
G75*
G02*
X131012541Y-81114463I10467J199726D01*
G01*
G37*
G36*
G01*
X131085811Y-79716381D02*
X131138147Y-78717752D01*
G75*
G02*
X131348340Y-78528493I199726J-10467D01*
G01*
X133046010Y-78617464D01*
G75*
G02*
X133235269Y-78827657I-10467J-199726D01*
G01*
X133182933Y-79826286D01*
G75*
G02*
X132972740Y-80015545I-199726J10467D01*
G01*
X131275070Y-79926574D01*
G75*
G02*
X131085811Y-79716381I10467J199726D01*
G01*
G37*
G36*
G01*
X125520079Y-80826615D02*
X125572415Y-79827986D01*
G75*
G02*
X125782608Y-79638727I199726J-10467D01*
G01*
X127480278Y-79727698D01*
G75*
G02*
X127669537Y-79937891I-10467J-199726D01*
G01*
X127617201Y-80936520D01*
G75*
G02*
X127407008Y-81125779I-199726J10467D01*
G01*
X125709338Y-81036808D01*
G75*
G02*
X125520079Y-80826615I10467J199726D01*
G01*
G37*
G36*
G01*
X125593349Y-79428533D02*
X125645685Y-78429904D01*
G75*
G02*
X125855878Y-78240645I199726J-10467D01*
G01*
X127553548Y-78329616D01*
G75*
G02*
X127742807Y-78539809I-10467J-199726D01*
G01*
X127690471Y-79538438D01*
G75*
G02*
X127480278Y-79727697I-199726J10467D01*
G01*
X125782608Y-79638726D01*
G75*
G02*
X125593349Y-79428533I10467J199726D01*
G01*
G37*
G36*
G01*
X132009552Y-62090539D02*
X132061888Y-61091910D01*
G75*
G02*
X132272081Y-60902651I199726J-10467D01*
G01*
X133969751Y-60991622D01*
G75*
G02*
X134159010Y-61201815I-10467J-199726D01*
G01*
X134106674Y-62200444D01*
G75*
G02*
X133896481Y-62389703I-199726J10467D01*
G01*
X132198811Y-62300732D01*
G75*
G02*
X132009552Y-62090539I10467J199726D01*
G01*
G37*
G36*
G01*
X132082822Y-60692457D02*
X132135158Y-59693828D01*
G75*
G02*
X132345351Y-59504569I199726J-10467D01*
G01*
X134043021Y-59593540D01*
G75*
G02*
X134232280Y-59803733I-10467J-199726D01*
G01*
X134179944Y-60802362D01*
G75*
G02*
X133969751Y-60991621I-199726J10467D01*
G01*
X132272081Y-60902650D01*
G75*
G02*
X132082822Y-60692457I10467J199726D01*
G01*
G37*
G36*
G01*
X126517090Y-61802691D02*
X126569426Y-60804062D01*
G75*
G02*
X126779619Y-60614803I199726J-10467D01*
G01*
X128477289Y-60703774D01*
G75*
G02*
X128666548Y-60913967I-10467J-199726D01*
G01*
X128614212Y-61912596D01*
G75*
G02*
X128404019Y-62101855I-199726J10467D01*
G01*
X126706349Y-62012884D01*
G75*
G02*
X126517090Y-61802691I10467J199726D01*
G01*
G37*
G36*
G01*
X126590360Y-60404609D02*
X126642696Y-59405980D01*
G75*
G02*
X126852889Y-59216721I199726J-10467D01*
G01*
X128550559Y-59305692D01*
G75*
G02*
X128739818Y-59515885I-10467J-199726D01*
G01*
X128687482Y-60514514D01*
G75*
G02*
X128477289Y-60703773I-199726J10467D01*
G01*
X126779619Y-60614802D01*
G75*
G02*
X126590360Y-60404609I10467J199726D01*
G01*
G37*
G36*
G01*
X133006559Y-43066683D02*
X133058895Y-42068054D01*
G75*
G02*
X133269088Y-41878795I199726J-10467D01*
G01*
X134966758Y-41967766D01*
G75*
G02*
X135156017Y-42177959I-10467J-199726D01*
G01*
X135103681Y-43176588D01*
G75*
G02*
X134893488Y-43365847I-199726J10467D01*
G01*
X133195818Y-43276876D01*
G75*
G02*
X133006559Y-43066683I10467J199726D01*
G01*
G37*
G36*
G01*
X133079829Y-41668601D02*
X133132165Y-40669972D01*
G75*
G02*
X133342358Y-40480713I199726J-10467D01*
G01*
X135040028Y-40569684D01*
G75*
G02*
X135229287Y-40779877I-10467J-199726D01*
G01*
X135176951Y-41778506D01*
G75*
G02*
X134966758Y-41967765I-199726J10467D01*
G01*
X133269088Y-41878794D01*
G75*
G02*
X133079829Y-41668601I10467J199726D01*
G01*
G37*
G36*
G01*
X127514097Y-42778835D02*
X127566433Y-41780206D01*
G75*
G02*
X127776626Y-41590947I199726J-10467D01*
G01*
X129474296Y-41679918D01*
G75*
G02*
X129663555Y-41890111I-10467J-199726D01*
G01*
X129611219Y-42888740D01*
G75*
G02*
X129401026Y-43077999I-199726J10467D01*
G01*
X127703356Y-42989028D01*
G75*
G02*
X127514097Y-42778835I10467J199726D01*
G01*
G37*
G36*
G01*
X127587367Y-41380753D02*
X127639703Y-40382124D01*
G75*
G02*
X127849896Y-40192865I199726J-10467D01*
G01*
X129547566Y-40281836D01*
G75*
G02*
X129736825Y-40492029I-10467J-199726D01*
G01*
X129684489Y-41490658D01*
G75*
G02*
X129474296Y-41679917I-199726J10467D01*
G01*
X127776626Y-41590946D01*
G75*
G02*
X127587367Y-41380753I10467J199726D01*
G01*
G37*
G36*
G01*
X152161295Y-41567108D02*
X152213631Y-40568479D01*
G75*
G02*
X152423824Y-40379220I199726J-10467D01*
G01*
X154121494Y-40468191D01*
G75*
G02*
X154310753Y-40678384I-10467J-199726D01*
G01*
X154258417Y-41677013D01*
G75*
G02*
X154048224Y-41866272I-199726J10467D01*
G01*
X152350554Y-41777301D01*
G75*
G02*
X152161295Y-41567108I10467J199726D01*
G01*
G37*
G36*
G01*
X152234565Y-40169026D02*
X152286901Y-39170397D01*
G75*
G02*
X152497094Y-38981138I199726J-10467D01*
G01*
X154194764Y-39070109D01*
G75*
G02*
X154384023Y-39280302I-10467J-199726D01*
G01*
X154331687Y-40278931D01*
G75*
G02*
X154121494Y-40468190I-199726J10467D01*
G01*
X152423824Y-40379219D01*
G75*
G02*
X152234565Y-40169026I10467J199726D01*
G01*
G37*
G36*
G01*
X146668833Y-41279260D02*
X146721169Y-40280631D01*
G75*
G02*
X146931362Y-40091372I199726J-10467D01*
G01*
X148629032Y-40180343D01*
G75*
G02*
X148818291Y-40390536I-10467J-199726D01*
G01*
X148765955Y-41389165D01*
G75*
G02*
X148555762Y-41578424I-199726J10467D01*
G01*
X146858092Y-41489453D01*
G75*
G02*
X146668833Y-41279260I10467J199726D01*
G01*
G37*
G36*
G01*
X146742103Y-39881178D02*
X146794439Y-38882549D01*
G75*
G02*
X147004632Y-38693290I199726J-10467D01*
G01*
X148702302Y-38782261D01*
G75*
G02*
X148891561Y-38992454I-10467J-199726D01*
G01*
X148839225Y-39991083D01*
G75*
G02*
X148629032Y-40180342I-199726J10467D01*
G01*
X146931362Y-40091371D01*
G75*
G02*
X146742103Y-39881178I10467J199726D01*
G01*
G37*
G36*
G01*
X151164258Y-60590994D02*
X151216594Y-59592365D01*
G75*
G02*
X151426787Y-59403106I199726J-10467D01*
G01*
X153124457Y-59492077D01*
G75*
G02*
X153313716Y-59702270I-10467J-199726D01*
G01*
X153261380Y-60700899D01*
G75*
G02*
X153051187Y-60890158I-199726J10467D01*
G01*
X151353517Y-60801187D01*
G75*
G02*
X151164258Y-60590994I10467J199726D01*
G01*
G37*
G36*
G01*
X151237528Y-59192912D02*
X151289864Y-58194283D01*
G75*
G02*
X151500057Y-58005024I199726J-10467D01*
G01*
X153197727Y-58093995D01*
G75*
G02*
X153386986Y-58304188I-10467J-199726D01*
G01*
X153334650Y-59302817D01*
G75*
G02*
X153124457Y-59492076I-199726J10467D01*
G01*
X151426787Y-59403105D01*
G75*
G02*
X151237528Y-59192912I10467J199726D01*
G01*
G37*
G36*
G01*
X145671796Y-60303146D02*
X145724132Y-59304517D01*
G75*
G02*
X145934325Y-59115258I199726J-10467D01*
G01*
X147631995Y-59204229D01*
G75*
G02*
X147821254Y-59414422I-10467J-199726D01*
G01*
X147768918Y-60413051D01*
G75*
G02*
X147558725Y-60602310I-199726J10467D01*
G01*
X145861055Y-60513339D01*
G75*
G02*
X145671796Y-60303146I10467J199726D01*
G01*
G37*
G36*
G01*
X145745066Y-58905064D02*
X145797402Y-57906435D01*
G75*
G02*
X146007595Y-57717176I199726J-10467D01*
G01*
X147705265Y-57806147D01*
G75*
G02*
X147894524Y-58016340I-10467J-199726D01*
G01*
X147842188Y-59014969D01*
G75*
G02*
X147631995Y-59204228I-199726J10467D01*
G01*
X145934325Y-59115257D01*
G75*
G02*
X145745066Y-58905064I10467J199726D01*
G01*
G37*
G36*
G01*
X150167286Y-79614885D02*
X150219622Y-78616256D01*
G75*
G02*
X150429815Y-78426997I199726J-10467D01*
G01*
X152127485Y-78515968D01*
G75*
G02*
X152316744Y-78726161I-10467J-199726D01*
G01*
X152264408Y-79724790D01*
G75*
G02*
X152054215Y-79914049I-199726J10467D01*
G01*
X150356545Y-79825078D01*
G75*
G02*
X150167286Y-79614885I10467J199726D01*
G01*
G37*
G36*
G01*
X150240556Y-78216803D02*
X150292892Y-77218174D01*
G75*
G02*
X150503085Y-77028915I199726J-10467D01*
G01*
X152200755Y-77117886D01*
G75*
G02*
X152390014Y-77328079I-10467J-199726D01*
G01*
X152337678Y-78326708D01*
G75*
G02*
X152127485Y-78515967I-199726J10467D01*
G01*
X150429815Y-78426996D01*
G75*
G02*
X150240556Y-78216803I10467J199726D01*
G01*
G37*
G36*
G01*
X144674824Y-79327037D02*
X144727160Y-78328408D01*
G75*
G02*
X144937353Y-78139149I199726J-10467D01*
G01*
X146635023Y-78228120D01*
G75*
G02*
X146824282Y-78438313I-10467J-199726D01*
G01*
X146771946Y-79436942D01*
G75*
G02*
X146561753Y-79626201I-199726J10467D01*
G01*
X144864083Y-79537230D01*
G75*
G02*
X144674824Y-79327037I10467J199726D01*
G01*
G37*
G36*
G01*
X144748094Y-77928955D02*
X144800430Y-76930326D01*
G75*
G02*
X145010623Y-76741067I199726J-10467D01*
G01*
X146708293Y-76830038D01*
G75*
G02*
X146897552Y-77040231I-10467J-199726D01*
G01*
X146845216Y-78038860D01*
G75*
G02*
X146635023Y-78228119I-199726J10467D01*
G01*
X144937353Y-78139148D01*
G75*
G02*
X144748094Y-77928955I10467J199726D01*
G01*
G37*
G36*
G01*
X157141162Y-111257508D02*
X157193498Y-110258879D01*
G75*
G02*
X157403691Y-110069620I199726J-10467D01*
G01*
X159101361Y-110158591D01*
G75*
G02*
X159290620Y-110368784I-10467J-199726D01*
G01*
X159238284Y-111367413D01*
G75*
G02*
X159028091Y-111556672I-199726J10467D01*
G01*
X157330421Y-111467701D01*
G75*
G02*
X157141162Y-111257508I10467J199726D01*
G01*
G37*
G36*
G01*
X157214432Y-109859426D02*
X157266768Y-108860797D01*
G75*
G02*
X157476961Y-108671538I199726J-10467D01*
G01*
X159174631Y-108760509D01*
G75*
G02*
X159363890Y-108970702I-10467J-199726D01*
G01*
X159311554Y-109969331D01*
G75*
G02*
X159101361Y-110158590I-199726J10467D01*
G01*
X157403691Y-110069619D01*
G75*
G02*
X157214432Y-109859426I10467J199726D01*
G01*
G37*
G36*
G01*
X151648700Y-110969660D02*
X151701036Y-109971031D01*
G75*
G02*
X151911229Y-109781772I199726J-10467D01*
G01*
X153608899Y-109870743D01*
G75*
G02*
X153798158Y-110080936I-10467J-199726D01*
G01*
X153745822Y-111079565D01*
G75*
G02*
X153535629Y-111268824I-199726J10467D01*
G01*
X151837959Y-111179853D01*
G75*
G02*
X151648700Y-110969660I10467J199726D01*
G01*
G37*
G36*
G01*
X151721970Y-109571578D02*
X151774306Y-108572949D01*
G75*
G02*
X151984499Y-108383690I199726J-10467D01*
G01*
X153682169Y-108472661D01*
G75*
G02*
X153871428Y-108682854I-10467J-199726D01*
G01*
X153819092Y-109681483D01*
G75*
G02*
X153608899Y-109870742I-199726J10467D01*
G01*
X151911229Y-109781771D01*
G75*
G02*
X151721970Y-109571578I10467J199726D01*
G01*
G37*
G36*
G01*
X178756449Y-115384448D02*
X179040464Y-114425628D01*
G75*
G02*
X179289031Y-114290667I191764J-56803D01*
G01*
X180919024Y-114773493D01*
G75*
G02*
X181053985Y-115022060I-56803J-191764D01*
G01*
X180769970Y-115980880D01*
G75*
G02*
X180521403Y-116115841I-191764J56803D01*
G01*
X178891410Y-115633015D01*
G75*
G02*
X178756449Y-115384448I56803J191764D01*
G01*
G37*
G36*
G01*
X179154070Y-114042100D02*
X179438085Y-113083280D01*
G75*
G02*
X179686652Y-112948319I191764J-56803D01*
G01*
X181316645Y-113431145D01*
G75*
G02*
X181451606Y-113679712I-56803J-191764D01*
G01*
X181167591Y-114638532D01*
G75*
G02*
X180919024Y-114773493I-191764J56803D01*
G01*
X179289031Y-114290667D01*
G75*
G02*
X179154070Y-114042100I56803J191764D01*
G01*
G37*
G36*
G01*
X173482940Y-113822364D02*
X173766955Y-112863544D01*
G75*
G02*
X174015522Y-112728583I191764J-56803D01*
G01*
X175645515Y-113211409D01*
G75*
G02*
X175780476Y-113459976I-56803J-191764D01*
G01*
X175496461Y-114418796D01*
G75*
G02*
X175247894Y-114553757I-191764J56803D01*
G01*
X173617901Y-114070931D01*
G75*
G02*
X173482940Y-113822364I56803J191764D01*
G01*
G37*
G36*
G01*
X173880561Y-112480016D02*
X174164576Y-111521196D01*
G75*
G02*
X174413143Y-111386235I191764J-56803D01*
G01*
X176043136Y-111869061D01*
G75*
G02*
X176178097Y-112117628I-56803J-191764D01*
G01*
X175894082Y-113076448D01*
G75*
G02*
X175645515Y-113211409I-191764J56803D01*
G01*
X174015522Y-112728583D01*
G75*
G02*
X173880561Y-112480016I56803J191764D01*
G01*
G37*
G36*
G01*
X168063372Y-102132332D02*
X168115708Y-101133703D01*
G75*
G02*
X168325901Y-100944444I199726J-10467D01*
G01*
X170023571Y-101033415D01*
G75*
G02*
X170212830Y-101243608I-10467J-199726D01*
G01*
X170160494Y-102242237D01*
G75*
G02*
X169950301Y-102431496I-199726J10467D01*
G01*
X168252631Y-102342525D01*
G75*
G02*
X168063372Y-102132332I10467J199726D01*
G01*
G37*
G36*
G01*
X168136642Y-100734250D02*
X168188978Y-99735621D01*
G75*
G02*
X168399171Y-99546362I199726J-10467D01*
G01*
X170096841Y-99635333D01*
G75*
G02*
X170286100Y-99845526I-10467J-199726D01*
G01*
X170233764Y-100844155D01*
G75*
G02*
X170023571Y-101033414I-199726J10467D01*
G01*
X168325901Y-100944443D01*
G75*
G02*
X168136642Y-100734250I10467J199726D01*
G01*
G37*
G36*
G01*
X162570910Y-101844484D02*
X162623246Y-100845855D01*
G75*
G02*
X162833439Y-100656596I199726J-10467D01*
G01*
X164531109Y-100745567D01*
G75*
G02*
X164720368Y-100955760I-10467J-199726D01*
G01*
X164668032Y-101954389D01*
G75*
G02*
X164457839Y-102143648I-199726J10467D01*
G01*
X162760169Y-102054677D01*
G75*
G02*
X162570910Y-101844484I10467J199726D01*
G01*
G37*
G36*
G01*
X162644180Y-100446402D02*
X162696516Y-99447773D01*
G75*
G02*
X162906709Y-99258514I199726J-10467D01*
G01*
X164604379Y-99347485D01*
G75*
G02*
X164793638Y-99557678I-10467J-199726D01*
G01*
X164741302Y-100556307D01*
G75*
G02*
X164531109Y-100745566I-199726J10467D01*
G01*
X162833439Y-100656595D01*
G75*
G02*
X162644180Y-100446402I10467J199726D01*
G01*
G37*
G36*
G01*
X169060353Y-83108441D02*
X169112689Y-82109812D01*
G75*
G02*
X169322882Y-81920553I199726J-10467D01*
G01*
X171020552Y-82009524D01*
G75*
G02*
X171209811Y-82219717I-10467J-199726D01*
G01*
X171157475Y-83218346D01*
G75*
G02*
X170947282Y-83407605I-199726J10467D01*
G01*
X169249612Y-83318634D01*
G75*
G02*
X169060353Y-83108441I10467J199726D01*
G01*
G37*
G36*
G01*
X169133623Y-81710359D02*
X169185959Y-80711730D01*
G75*
G02*
X169396152Y-80522471I199726J-10467D01*
G01*
X171093822Y-80611442D01*
G75*
G02*
X171283081Y-80821635I-10467J-199726D01*
G01*
X171230745Y-81820264D01*
G75*
G02*
X171020552Y-82009523I-199726J10467D01*
G01*
X169322882Y-81920552D01*
G75*
G02*
X169133623Y-81710359I10467J199726D01*
G01*
G37*
G36*
G01*
X163567891Y-82820593D02*
X163620227Y-81821964D01*
G75*
G02*
X163830420Y-81632705I199726J-10467D01*
G01*
X165528090Y-81721676D01*
G75*
G02*
X165717349Y-81931869I-10467J-199726D01*
G01*
X165665013Y-82930498D01*
G75*
G02*
X165454820Y-83119757I-199726J10467D01*
G01*
X163757150Y-83030786D01*
G75*
G02*
X163567891Y-82820593I10467J199726D01*
G01*
G37*
G36*
G01*
X163641161Y-81422511D02*
X163693497Y-80423882D01*
G75*
G02*
X163903690Y-80234623I199726J-10467D01*
G01*
X165601360Y-80323594D01*
G75*
G02*
X165790619Y-80533787I-10467J-199726D01*
G01*
X165738283Y-81532416D01*
G75*
G02*
X165528090Y-81721675I-199726J10467D01*
G01*
X163830420Y-81632704D01*
G75*
G02*
X163641161Y-81422511I10467J199726D01*
G01*
G37*
G36*
G01*
X170057333Y-64084569D02*
X170109669Y-63085940D01*
G75*
G02*
X170319862Y-62896681I199726J-10467D01*
G01*
X172017532Y-62985652D01*
G75*
G02*
X172206791Y-63195845I-10467J-199726D01*
G01*
X172154455Y-64194474D01*
G75*
G02*
X171944262Y-64383733I-199726J10467D01*
G01*
X170246592Y-64294762D01*
G75*
G02*
X170057333Y-64084569I10467J199726D01*
G01*
G37*
G36*
G01*
X170130603Y-62686487D02*
X170182939Y-61687858D01*
G75*
G02*
X170393132Y-61498599I199726J-10467D01*
G01*
X172090802Y-61587570D01*
G75*
G02*
X172280061Y-61797763I-10467J-199726D01*
G01*
X172227725Y-62796392D01*
G75*
G02*
X172017532Y-62985651I-199726J10467D01*
G01*
X170319862Y-62896680D01*
G75*
G02*
X170130603Y-62686487I10467J199726D01*
G01*
G37*
G36*
G01*
X164564871Y-63796721D02*
X164617207Y-62798092D01*
G75*
G02*
X164827400Y-62608833I199726J-10467D01*
G01*
X166525070Y-62697804D01*
G75*
G02*
X166714329Y-62907997I-10467J-199726D01*
G01*
X166661993Y-63906626D01*
G75*
G02*
X166451800Y-64095885I-199726J10467D01*
G01*
X164754130Y-64006914D01*
G75*
G02*
X164564871Y-63796721I10467J199726D01*
G01*
G37*
G36*
G01*
X164638141Y-62398639D02*
X164690477Y-61400010D01*
G75*
G02*
X164900670Y-61210751I199726J-10467D01*
G01*
X166598340Y-61299722D01*
G75*
G02*
X166787599Y-61509915I-10467J-199726D01*
G01*
X166735263Y-62508544D01*
G75*
G02*
X166525070Y-62697803I-199726J10467D01*
G01*
X164827400Y-62608832D01*
G75*
G02*
X164638141Y-62398639I10467J199726D01*
G01*
G37*
G36*
G01*
X171054338Y-45060664D02*
X171106674Y-44062035D01*
G75*
G02*
X171316867Y-43872776I199726J-10467D01*
G01*
X173014537Y-43961747D01*
G75*
G02*
X173203796Y-44171940I-10467J-199726D01*
G01*
X173151460Y-45170569D01*
G75*
G02*
X172941267Y-45359828I-199726J10467D01*
G01*
X171243597Y-45270857D01*
G75*
G02*
X171054338Y-45060664I10467J199726D01*
G01*
G37*
G36*
G01*
X171127608Y-43662582D02*
X171179944Y-42663953D01*
G75*
G02*
X171390137Y-42474694I199726J-10467D01*
G01*
X173087807Y-42563665D01*
G75*
G02*
X173277066Y-42773858I-10467J-199726D01*
G01*
X173224730Y-43772487D01*
G75*
G02*
X173014537Y-43961746I-199726J10467D01*
G01*
X171316867Y-43872775D01*
G75*
G02*
X171127608Y-43662582I10467J199726D01*
G01*
G37*
G36*
G01*
X165561876Y-44772816D02*
X165614212Y-43774187D01*
G75*
G02*
X165824405Y-43584928I199726J-10467D01*
G01*
X167522075Y-43673899D01*
G75*
G02*
X167711334Y-43884092I-10467J-199726D01*
G01*
X167658998Y-44882721D01*
G75*
G02*
X167448805Y-45071980I-199726J10467D01*
G01*
X165751135Y-44983009D01*
G75*
G02*
X165561876Y-44772816I10467J199726D01*
G01*
G37*
G36*
G01*
X165635146Y-43374734D02*
X165687482Y-42376105D01*
G75*
G02*
X165897675Y-42186846I199726J-10467D01*
G01*
X167595345Y-42275817D01*
G75*
G02*
X167784604Y-42486010I-10467J-199726D01*
G01*
X167732268Y-43484639D01*
G75*
G02*
X167522075Y-43673898I-199726J10467D01*
G01*
X165824405Y-43584927D01*
G75*
G02*
X165635146Y-43374734I10467J199726D01*
G01*
G37*
G36*
G01*
X189973571Y-48054934D02*
X190025907Y-47056305D01*
G75*
G02*
X190236100Y-46867046I199726J-10467D01*
G01*
X191933770Y-46956017D01*
G75*
G02*
X192123029Y-47166210I-10467J-199726D01*
G01*
X192070693Y-48164839D01*
G75*
G02*
X191860500Y-48354098I-199726J10467D01*
G01*
X190162830Y-48265127D01*
G75*
G02*
X189973571Y-48054934I10467J199726D01*
G01*
G37*
G36*
G01*
X190046841Y-46656852D02*
X190099177Y-45658223D01*
G75*
G02*
X190309370Y-45468964I199726J-10467D01*
G01*
X192007040Y-45557935D01*
G75*
G02*
X192196299Y-45768128I-10467J-199726D01*
G01*
X192143963Y-46766757D01*
G75*
G02*
X191933770Y-46956016I-199726J10467D01*
G01*
X190236100Y-46867045D01*
G75*
G02*
X190046841Y-46656852I10467J199726D01*
G01*
G37*
G36*
G01*
X184481109Y-47767086D02*
X184533445Y-46768457D01*
G75*
G02*
X184743638Y-46579198I199726J-10467D01*
G01*
X186441308Y-46668169D01*
G75*
G02*
X186630567Y-46878362I-10467J-199726D01*
G01*
X186578231Y-47876991D01*
G75*
G02*
X186368038Y-48066250I-199726J10467D01*
G01*
X184670368Y-47977279D01*
G75*
G02*
X184481109Y-47767086I10467J199726D01*
G01*
G37*
G36*
G01*
X184554379Y-46369004D02*
X184606715Y-45370375D01*
G75*
G02*
X184816908Y-45181116I199726J-10467D01*
G01*
X186514578Y-45270087D01*
G75*
G02*
X186703837Y-45480280I-10467J-199726D01*
G01*
X186651501Y-46478909D01*
G75*
G02*
X186441308Y-46668168I-199726J10467D01*
G01*
X184743638Y-46579197D01*
G75*
G02*
X184554379Y-46369004I10467J199726D01*
G01*
G37*
G36*
G01*
X187979570Y-86102700D02*
X188031906Y-85104071D01*
G75*
G02*
X188242099Y-84914812I199726J-10467D01*
G01*
X189939769Y-85003783D01*
G75*
G02*
X190129028Y-85213976I-10467J-199726D01*
G01*
X190076692Y-86212605D01*
G75*
G02*
X189866499Y-86401864I-199726J10467D01*
G01*
X188168829Y-86312893D01*
G75*
G02*
X187979570Y-86102700I10467J199726D01*
G01*
G37*
G36*
G01*
X188052840Y-84704618D02*
X188105176Y-83705989D01*
G75*
G02*
X188315369Y-83516730I199726J-10467D01*
G01*
X190013039Y-83605701D01*
G75*
G02*
X190202298Y-83815894I-10467J-199726D01*
G01*
X190149962Y-84814523D01*
G75*
G02*
X189939769Y-85003782I-199726J10467D01*
G01*
X188242099Y-84914811D01*
G75*
G02*
X188052840Y-84704618I10467J199726D01*
G01*
G37*
G36*
G01*
X182487108Y-85814852D02*
X182539444Y-84816223D01*
G75*
G02*
X182749637Y-84626964I199726J-10467D01*
G01*
X184447307Y-84715935D01*
G75*
G02*
X184636566Y-84926128I-10467J-199726D01*
G01*
X184584230Y-85924757D01*
G75*
G02*
X184374037Y-86114016I-199726J10467D01*
G01*
X182676367Y-86025045D01*
G75*
G02*
X182487108Y-85814852I10467J199726D01*
G01*
G37*
G36*
G01*
X182560378Y-84416770D02*
X182612714Y-83418141D01*
G75*
G02*
X182822907Y-83228882I199726J-10467D01*
G01*
X184520577Y-83317853D01*
G75*
G02*
X184709836Y-83528046I-10467J-199726D01*
G01*
X184657500Y-84526675D01*
G75*
G02*
X184447307Y-84715934I-199726J10467D01*
G01*
X182749637Y-84626963D01*
G75*
G02*
X182560378Y-84416770I10467J199726D01*
G01*
G37*
G36*
G01*
X222769450Y-130888555D02*
X223457805Y-130163180D01*
G75*
G02*
X223740551Y-130155776I145075J-137671D01*
G01*
X224973688Y-131325979D01*
G75*
G02*
X224981092Y-131608725I-137671J-145075D01*
G01*
X224292737Y-132334100D01*
G75*
G02*
X224009991Y-132341504I-145075J137671D01*
G01*
X222776854Y-131171301D01*
G75*
G02*
X222769450Y-130888555I137671J145075D01*
G01*
G37*
G36*
G01*
X223733147Y-129873031D02*
X224421502Y-129147656D01*
G75*
G02*
X224704248Y-129140252I145075J-137671D01*
G01*
X225937385Y-130310455D01*
G75*
G02*
X225944789Y-130593201I-137671J-145075D01*
G01*
X225256434Y-131318576D01*
G75*
G02*
X224973688Y-131325980I-145075J137671D01*
G01*
X223740551Y-130155777D01*
G75*
G02*
X223733147Y-129873031I137671J145075D01*
G01*
G37*
G36*
G01*
X218779891Y-127102605D02*
X219468246Y-126377230D01*
G75*
G02*
X219750992Y-126369826I145075J-137671D01*
G01*
X220984129Y-127540029D01*
G75*
G02*
X220991533Y-127822775I-137671J-145075D01*
G01*
X220303178Y-128548150D01*
G75*
G02*
X220020432Y-128555554I-145075J137671D01*
G01*
X218787295Y-127385351D01*
G75*
G02*
X218779891Y-127102605I137671J145075D01*
G01*
G37*
G36*
G01*
X219743588Y-126087081D02*
X220431943Y-125361706D01*
G75*
G02*
X220714689Y-125354302I145075J-137671D01*
G01*
X221947826Y-126524505D01*
G75*
G02*
X221955230Y-126807251I-137671J-145075D01*
G01*
X221266875Y-127532626D01*
G75*
G02*
X220984129Y-127540030I-145075J137671D01*
G01*
X219750992Y-126369827D01*
G75*
G02*
X219743588Y-126087081I137671J145075D01*
G01*
G37*
G36*
G01*
X198829609Y-124439439D02*
X199329609Y-123573413D01*
G75*
G02*
X199602814Y-123500208I173205J-100000D01*
G01*
X201075058Y-124350208D01*
G75*
G02*
X201148263Y-124623413I-100000J-173205D01*
G01*
X200648263Y-125489439D01*
G75*
G02*
X200375058Y-125562644I-173205J100000D01*
G01*
X198902814Y-124712644D01*
G75*
G02*
X198829609Y-124439439I100000J173205D01*
G01*
G37*
G36*
G01*
X199529609Y-123227003D02*
X200029609Y-122360977D01*
G75*
G02*
X200302814Y-122287772I173205J-100000D01*
G01*
X201775058Y-123137772D01*
G75*
G02*
X201848263Y-123410977I-100000J-173205D01*
G01*
X201348263Y-124277003D01*
G75*
G02*
X201075058Y-124350208I-173205J100000D01*
G01*
X199602814Y-123500208D01*
G75*
G02*
X199529609Y-123227003I100000J173205D01*
G01*
G37*
G36*
G01*
X194066469Y-121689439D02*
X194566469Y-120823413D01*
G75*
G02*
X194839674Y-120750208I173205J-100000D01*
G01*
X196311918Y-121600208D01*
G75*
G02*
X196385123Y-121873413I-100000J-173205D01*
G01*
X195885123Y-122739439D01*
G75*
G02*
X195611918Y-122812644I-173205J100000D01*
G01*
X194139674Y-121962644D01*
G75*
G02*
X194066469Y-121689439I100000J173205D01*
G01*
G37*
G36*
G01*
X194766469Y-120477003D02*
X195266469Y-119610977D01*
G75*
G02*
X195539674Y-119537772I173205J-100000D01*
G01*
X197011918Y-120387772D01*
G75*
G02*
X197085123Y-120660977I-100000J-173205D01*
G01*
X196585123Y-121527003D01*
G75*
G02*
X196311918Y-121600208I-173205J100000D01*
G01*
X194839674Y-120750208D01*
G75*
G02*
X194766469Y-120477003I100000J173205D01*
G01*
G37*
G36*
G01*
X216167389Y-137901854D02*
X216855744Y-137176479D01*
G75*
G02*
X217138490Y-137169075I145075J-137671D01*
G01*
X218371627Y-138339278D01*
G75*
G02*
X218379031Y-138622024I-137671J-145075D01*
G01*
X217690676Y-139347399D01*
G75*
G02*
X217407930Y-139354803I-145075J137671D01*
G01*
X216174793Y-138184600D01*
G75*
G02*
X216167389Y-137901854I137671J145075D01*
G01*
G37*
G36*
G01*
X217131086Y-136886330D02*
X217819441Y-136160955D01*
G75*
G02*
X218102187Y-136153551I145075J-137671D01*
G01*
X219335324Y-137323754D01*
G75*
G02*
X219342728Y-137606500I-137671J-145075D01*
G01*
X218654373Y-138331875D01*
G75*
G02*
X218371627Y-138339279I-145075J137671D01*
G01*
X217138490Y-137169076D01*
G75*
G02*
X217131086Y-136886330I137671J145075D01*
G01*
G37*
G36*
G01*
X212177830Y-134115904D02*
X212866185Y-133390529D01*
G75*
G02*
X213148931Y-133383125I145075J-137671D01*
G01*
X214382068Y-134553328D01*
G75*
G02*
X214389472Y-134836074I-137671J-145075D01*
G01*
X213701117Y-135561449D01*
G75*
G02*
X213418371Y-135568853I-145075J137671D01*
G01*
X212185234Y-134398650D01*
G75*
G02*
X212177830Y-134115904I137671J145075D01*
G01*
G37*
G36*
G01*
X213141527Y-133100380D02*
X213829882Y-132375005D01*
G75*
G02*
X214112628Y-132367601I145075J-137671D01*
G01*
X215345765Y-133537804D01*
G75*
G02*
X215353169Y-133820550I-137671J-145075D01*
G01*
X214664814Y-134545925D01*
G75*
G02*
X214382068Y-134553329I-145075J137671D01*
G01*
X213148931Y-133383126D01*
G75*
G02*
X213141527Y-133100380I137671J145075D01*
G01*
G37*
G36*
G01*
X186985193Y-105076680D02*
X187037529Y-104078051D01*
G75*
G02*
X187247722Y-103888792I199726J-10467D01*
G01*
X188945392Y-103977763D01*
G75*
G02*
X189134651Y-104187956I-10467J-199726D01*
G01*
X189082315Y-105186585D01*
G75*
G02*
X188872122Y-105375844I-199726J10467D01*
G01*
X187174452Y-105286873D01*
G75*
G02*
X186985193Y-105076680I10467J199726D01*
G01*
G37*
G36*
G01*
X187058463Y-103678598D02*
X187110799Y-102679969D01*
G75*
G02*
X187320992Y-102490710I199726J-10467D01*
G01*
X189018662Y-102579681D01*
G75*
G02*
X189207921Y-102789874I-10467J-199726D01*
G01*
X189155585Y-103788503D01*
G75*
G02*
X188945392Y-103977762I-199726J10467D01*
G01*
X187247722Y-103888791D01*
G75*
G02*
X187058463Y-103678598I10467J199726D01*
G01*
G37*
G36*
G01*
X181492731Y-104788832D02*
X181545067Y-103790203D01*
G75*
G02*
X181755260Y-103600944I199726J-10467D01*
G01*
X183452930Y-103689915D01*
G75*
G02*
X183642189Y-103900108I-10467J-199726D01*
G01*
X183589853Y-104898737D01*
G75*
G02*
X183379660Y-105087996I-199726J10467D01*
G01*
X181681990Y-104999025D01*
G75*
G02*
X181492731Y-104788832I10467J199726D01*
G01*
G37*
G36*
G01*
X181566001Y-103390750D02*
X181618337Y-102392121D01*
G75*
G02*
X181828530Y-102202862I199726J-10467D01*
G01*
X183526200Y-102291833D01*
G75*
G02*
X183715459Y-102502026I-10467J-199726D01*
G01*
X183663123Y-103500655D01*
G75*
G02*
X183452930Y-103689914I-199726J10467D01*
G01*
X181755260Y-103600943D01*
G75*
G02*
X181566001Y-103390750I10467J199726D01*
G01*
G37*
G36*
G01*
X175200364Y-93013365D02*
X175095692Y-95010624D01*
G75*
G02*
X174885499Y-95199883I-199726J10467D01*
G01*
X172588651Y-95079510D01*
G75*
G02*
X172399392Y-94869317I10467J199726D01*
G01*
X172504064Y-92872058D01*
G75*
G02*
X172714257Y-92682799I199726J-10467D01*
G01*
X175011105Y-92803172D01*
G75*
G02*
X175200364Y-93013365I-10467J-199726D01*
G01*
G37*
G36*
G01*
X162650702Y-89812180D02*
X162546030Y-91809439D01*
G75*
G02*
X162335837Y-91998698I-199726J10467D01*
G01*
X160038989Y-91878325D01*
G75*
G02*
X159849730Y-91668132I10467J199726D01*
G01*
X159954402Y-89670873D01*
G75*
G02*
X160164595Y-89481614I199726J-10467D01*
G01*
X162461443Y-89601987D01*
G75*
G02*
X162650702Y-89812180I-10467J-199726D01*
G01*
G37*
D10*
X163002599Y-93415535D03*
X164403792Y-90945483D03*
X170612156Y-93814334D03*
X169476830Y-91211349D03*
D11*
X166674444Y-96151454D03*
D12*
X171747482Y-96417321D03*
X161601406Y-95885587D03*
D13*
X162180611Y-95915942D03*
X171168277Y-96386966D03*
X113591260Y-40105231D03*
X104591260Y-40105231D03*
D12*
X104011260Y-40105231D03*
X114171260Y-40105231D03*
D11*
X109091260Y-40105231D03*
D10*
X111631260Y-35025231D03*
X112901260Y-37565230D03*
X106551260Y-35025231D03*
X105281260Y-37565231D03*
G36*
G01*
X104741260Y-33985231D02*
X104741260Y-35985231D01*
G75*
G02*
X104541260Y-36185231I-200000J0D01*
G01*
X102241260Y-36185231D01*
G75*
G02*
X102041260Y-35985231I0J200000D01*
G01*
X102041260Y-33985231D01*
G75*
G02*
X102241260Y-33785231I200000J0D01*
G01*
X104541260Y-33785231D01*
G75*
G02*
X104741260Y-33985231I0J-200000D01*
G01*
G37*
G36*
G01*
X117441260Y-36525231D02*
X117441260Y-38525231D01*
G75*
G02*
X117241260Y-38725231I-200000J0D01*
G01*
X114941260Y-38725231D01*
G75*
G02*
X114741260Y-38525231I0J200000D01*
G01*
X114741260Y-36525231D01*
G75*
G02*
X114941260Y-36325231I200000J0D01*
G01*
X117241260Y-36325231D01*
G75*
G02*
X117441260Y-36525231I0J-200000D01*
G01*
G37*
D16*
X224893643Y-60595564D03*
D17*
X202641517Y-53821071D03*
X216563599Y-54550680D03*
X224872597Y-92199910D03*
X222076406Y-92053350D03*
G36*
G01*
X226657232Y-74165815D02*
X225858329Y-74123946D01*
G75*
G02*
X225669070Y-73913753I10467J199726D01*
G01*
X225731873Y-72715398D01*
G75*
G02*
X225942066Y-72526139I199726J-10467D01*
G01*
X226740969Y-72568008D01*
G75*
G02*
X226930228Y-72778201I-10467J-199726D01*
G01*
X226867425Y-73976556D01*
G75*
G02*
X226657232Y-74165815I-199726J10467D01*
G01*
G37*
G36*
G01*
X224460247Y-74050676D02*
X223661344Y-74008807D01*
G75*
G02*
X223472085Y-73798614I10467J199726D01*
G01*
X223534888Y-72600259D01*
G75*
G02*
X223745081Y-72411000I199726J-10467D01*
G01*
X224543984Y-72452869D01*
G75*
G02*
X224733243Y-72663062I-10467J-199726D01*
G01*
X224670440Y-73861417D01*
G75*
G02*
X224460247Y-74050676I-199726J10467D01*
G01*
G37*
G36*
G01*
X226274133Y-81475783D02*
X225475230Y-81433914D01*
G75*
G02*
X225285971Y-81223721I10467J199726D01*
G01*
X225348774Y-80025366D01*
G75*
G02*
X225558967Y-79836107I199726J-10467D01*
G01*
X226357870Y-79877976D01*
G75*
G02*
X226547129Y-80088169I-10467J-199726D01*
G01*
X226484326Y-81286524D01*
G75*
G02*
X226274133Y-81475783I-199726J10467D01*
G01*
G37*
G36*
G01*
X224077148Y-81360644D02*
X223278245Y-81318775D01*
G75*
G02*
X223088986Y-81108582I10467J199726D01*
G01*
X223151789Y-79910227D01*
G75*
G02*
X223361982Y-79720968I199726J-10467D01*
G01*
X224160885Y-79762837D01*
G75*
G02*
X224350144Y-79973030I-10467J-199726D01*
G01*
X224287341Y-81171385D01*
G75*
G02*
X224077148Y-81360644I-199726J10467D01*
G01*
G37*
G36*
G01*
X223815099Y-75278595D02*
X222317154Y-75200091D01*
G75*
G02*
X222127895Y-74989898I10467J199726D01*
G01*
X222169764Y-74190994D01*
G75*
G02*
X222379957Y-74001735I199726J-10467D01*
G01*
X223877902Y-74080239D01*
G75*
G02*
X224067161Y-74290432I-10467J-199726D01*
G01*
X224025292Y-75089336D01*
G75*
G02*
X223815099Y-75278595I-199726J10467D01*
G01*
G37*
G36*
G01*
X223737642Y-76756566D02*
X222239697Y-76678062D01*
G75*
G02*
X222050438Y-76467869I10467J199726D01*
G01*
X222092307Y-75668965D01*
G75*
G02*
X222302500Y-75479706I199726J-10467D01*
G01*
X223800445Y-75558210D01*
G75*
G02*
X223989704Y-75768403I-10467J-199726D01*
G01*
X223947835Y-76567307D01*
G75*
G02*
X223737642Y-76756566I-199726J10467D01*
G01*
G37*
G36*
G01*
X223583774Y-79692537D02*
X222085829Y-79614033D01*
G75*
G02*
X221896570Y-79403840I10467J199726D01*
G01*
X221938439Y-78604936D01*
G75*
G02*
X222148632Y-78415677I199726J-10467D01*
G01*
X223646577Y-78494181D01*
G75*
G02*
X223835836Y-78704374I-10467J-199726D01*
G01*
X223793967Y-79503278D01*
G75*
G02*
X223583774Y-79692537I-199726J10467D01*
G01*
G37*
D18*
X225095480Y-75495902D03*
X224943706Y-78391928D03*
G36*
G01*
X206844719Y-53250240D02*
X206802850Y-54049143D01*
G75*
G02*
X206592657Y-54238402I-199726J10467D01*
G01*
X205394302Y-54175599D01*
G75*
G02*
X205205043Y-53965406I10467J199726D01*
G01*
X205246912Y-53166503D01*
G75*
G02*
X205457105Y-52977244I199726J-10467D01*
G01*
X206655460Y-53040047D01*
G75*
G02*
X206844719Y-53250240I-10467J-199726D01*
G01*
G37*
G36*
G01*
X206729580Y-55447225D02*
X206687711Y-56246128D01*
G75*
G02*
X206477518Y-56435387I-199726J10467D01*
G01*
X205279163Y-56372584D01*
G75*
G02*
X205089904Y-56162391I10467J199726D01*
G01*
X205131773Y-55363488D01*
G75*
G02*
X205341966Y-55174229I199726J-10467D01*
G01*
X206540321Y-55237032D01*
G75*
G02*
X206729580Y-55447225I-10467J-199726D01*
G01*
G37*
G36*
G01*
X214154687Y-53633339D02*
X214112818Y-54432242D01*
G75*
G02*
X213902625Y-54621501I-199726J10467D01*
G01*
X212704270Y-54558698D01*
G75*
G02*
X212515011Y-54348505I10467J199726D01*
G01*
X212556880Y-53549602D01*
G75*
G02*
X212767073Y-53360343I199726J-10467D01*
G01*
X213965428Y-53423146D01*
G75*
G02*
X214154687Y-53633339I-10467J-199726D01*
G01*
G37*
G36*
G01*
X214039548Y-55830324D02*
X213997679Y-56629227D01*
G75*
G02*
X213787486Y-56818486I-199726J10467D01*
G01*
X212589131Y-56755683D01*
G75*
G02*
X212399872Y-56545490I10467J199726D01*
G01*
X212441741Y-55746587D01*
G75*
G02*
X212651934Y-55557328I199726J-10467D01*
G01*
X213850289Y-55620131D01*
G75*
G02*
X214039548Y-55830324I-10467J-199726D01*
G01*
G37*
G36*
G01*
X207957499Y-56092373D02*
X207878995Y-57590318D01*
G75*
G02*
X207668802Y-57779577I-199726J10467D01*
G01*
X206869898Y-57737708D01*
G75*
G02*
X206680639Y-57527515I10467J199726D01*
G01*
X206759143Y-56029570D01*
G75*
G02*
X206969336Y-55840311I199726J-10467D01*
G01*
X207768240Y-55882180D01*
G75*
G02*
X207957499Y-56092373I-10467J-199726D01*
G01*
G37*
G36*
G01*
X209435470Y-56169830D02*
X209356966Y-57667775D01*
G75*
G02*
X209146773Y-57857034I-199726J10467D01*
G01*
X208347869Y-57815165D01*
G75*
G02*
X208158610Y-57604972I10467J199726D01*
G01*
X208237114Y-56107027D01*
G75*
G02*
X208447307Y-55917768I199726J-10467D01*
G01*
X209246211Y-55959637D01*
G75*
G02*
X209435470Y-56169830I-10467J-199726D01*
G01*
G37*
G36*
G01*
X212371441Y-56323698D02*
X212292937Y-57821643D01*
G75*
G02*
X212082744Y-58010902I-199726J10467D01*
G01*
X211283840Y-57969033D01*
G75*
G02*
X211094581Y-57758840I10467J199726D01*
G01*
X211173085Y-56260895D01*
G75*
G02*
X211383278Y-56071636I199726J-10467D01*
G01*
X212182182Y-56113505D01*
G75*
G02*
X212371441Y-56323698I-10467J-199726D01*
G01*
G37*
X208174806Y-54811992D03*
X211070832Y-54963766D03*
D14*
X178233357Y-70159278D03*
X140391650Y-63659903D03*
G36*
G01*
X194119568Y-96007644D02*
X194014896Y-98004903D01*
G75*
G02*
X193804703Y-98194162I-199726J10467D01*
G01*
X191507855Y-98073789D01*
G75*
G02*
X191318596Y-97863596I10467J199726D01*
G01*
X191423268Y-95866337D01*
G75*
G02*
X191633461Y-95677078I199726J-10467D01*
G01*
X193930309Y-95797451D01*
G75*
G02*
X194119568Y-96007644I-10467J-199726D01*
G01*
G37*
G36*
G01*
X181569906Y-92806459D02*
X181465234Y-94803718D01*
G75*
G02*
X181255041Y-94992977I-199726J10467D01*
G01*
X178958193Y-94872604D01*
G75*
G02*
X178768934Y-94662411I10467J199726D01*
G01*
X178873606Y-92665152D01*
G75*
G02*
X179083799Y-92475893I199726J-10467D01*
G01*
X181380647Y-92596266D01*
G75*
G02*
X181569906Y-92806459I-10467J-199726D01*
G01*
G37*
D10*
X181921803Y-96409814D03*
X183322996Y-93939762D03*
X189531360Y-96808613D03*
X188396034Y-94205628D03*
D11*
X185593648Y-99145733D03*
D12*
X190666686Y-99411600D03*
X180520610Y-98879866D03*
D13*
X181099815Y-98910221D03*
X190087481Y-99381245D03*
X152275614Y-92885917D03*
X143287948Y-92414893D03*
D12*
X142708743Y-92384538D03*
X152854819Y-92916272D03*
D11*
X147781781Y-92650405D03*
D10*
X150584167Y-87710300D03*
X151719493Y-90313285D03*
X145511129Y-87444434D03*
X144109936Y-89914486D03*
G36*
G01*
X143758039Y-86311131D02*
X143653367Y-88308390D01*
G75*
G02*
X143443174Y-88497649I-199726J10467D01*
G01*
X141146326Y-88377276D01*
G75*
G02*
X140957067Y-88167083I10467J199726D01*
G01*
X141061739Y-86169824D01*
G75*
G02*
X141271932Y-85980565I199726J-10467D01*
G01*
X143568780Y-86100938D01*
G75*
G02*
X143758039Y-86311131I-10467J-199726D01*
G01*
G37*
G36*
G01*
X156307701Y-89512316D02*
X156203029Y-91509575D01*
G75*
G02*
X155992836Y-91698834I-199726J10467D01*
G01*
X153695988Y-91578461D01*
G75*
G02*
X153506729Y-91368268I10467J199726D01*
G01*
X153611401Y-89371009D01*
G75*
G02*
X153821594Y-89181750I199726J-10467D01*
G01*
X156118442Y-89302123D01*
G75*
G02*
X156307701Y-89512316I-10467J-199726D01*
G01*
G37*
G36*
G01*
X203975171Y-136093523D02*
X205351880Y-134642774D01*
G75*
G02*
X205634626Y-134635370I145075J-137671D01*
G01*
X207302987Y-136218585D01*
G75*
G02*
X207310391Y-136501331I-137671J-145075D01*
G01*
X205933682Y-137952080D01*
G75*
G02*
X205650936Y-137959484I-145075J137671D01*
G01*
X203982575Y-136376269D01*
G75*
G02*
X203975171Y-136093523I137671J145075D01*
G01*
G37*
G36*
G01*
X211439004Y-146678077D02*
X212815713Y-145227328D01*
G75*
G02*
X213098459Y-145219924I145075J-137671D01*
G01*
X214766820Y-146803139D01*
G75*
G02*
X214774224Y-147085885I-137671J-145075D01*
G01*
X213397515Y-148536634D01*
G75*
G02*
X213114769Y-148544038I-145075J137671D01*
G01*
X211446408Y-146960823D01*
G75*
G02*
X211439004Y-146678077I137671J145075D01*
G01*
G37*
X213511612Y-143709525D03*
X210841966Y-144677765D03*
X207984258Y-138464264D03*
X207157064Y-141180924D03*
D11*
X212496356Y-139244443D03*
D12*
X208811454Y-135747602D03*
X216181258Y-142741284D03*
D13*
X215760541Y-142342039D03*
X209232171Y-136146847D03*
G36*
G01*
X146725893Y-117791204D02*
X146830565Y-115793945D01*
G75*
G02*
X147040758Y-115604686I199726J-10467D01*
G01*
X149337606Y-115725059D01*
G75*
G02*
X149526865Y-115935252I-10467J-199726D01*
G01*
X149422193Y-117932511D01*
G75*
G02*
X149212000Y-118121770I-199726J10467D01*
G01*
X146915152Y-118001397D01*
G75*
G02*
X146725893Y-117791204I10467J199726D01*
G01*
G37*
G36*
G01*
X159275555Y-120992389D02*
X159380227Y-118995130D01*
G75*
G02*
X159590420Y-118805871I199726J-10467D01*
G01*
X161887268Y-118926244D01*
G75*
G02*
X162076527Y-119136437I-10467J-199726D01*
G01*
X161971855Y-121133696D01*
G75*
G02*
X161761662Y-121322955I-199726J10467D01*
G01*
X159464814Y-121202582D01*
G75*
G02*
X159275555Y-120992389I10467J199726D01*
G01*
G37*
D10*
X158923658Y-117389034D03*
X157522465Y-119859086D03*
X151314101Y-116990235D03*
X152449427Y-119593220D03*
D11*
X155251813Y-114653115D03*
D12*
X150178775Y-114387248D03*
X160324851Y-114918982D03*
D13*
X159745646Y-114888627D03*
X150757980Y-114417603D03*
G36*
G01*
X234130656Y-128577036D02*
X232753947Y-130027785D01*
G75*
G02*
X232471201Y-130035189I-145075J137671D01*
G01*
X230802840Y-128451974D01*
G75*
G02*
X230795436Y-128169228I137671J145075D01*
G01*
X232172145Y-126718479D01*
G75*
G02*
X232454891Y-126711075I145075J-137671D01*
G01*
X234123252Y-128294290D01*
G75*
G02*
X234130656Y-128577036I-137671J-145075D01*
G01*
G37*
G36*
G01*
X226666823Y-117992482D02*
X225290114Y-119443231D01*
G75*
G02*
X225007368Y-119450635I-145075J137671D01*
G01*
X223339007Y-117867420D01*
G75*
G02*
X223331603Y-117584674I137671J145075D01*
G01*
X224708312Y-116133925D01*
G75*
G02*
X224991058Y-116126521I145075J-137671D01*
G01*
X226659419Y-117709736D01*
G75*
G02*
X226666823Y-117992482I-137671J-145075D01*
G01*
G37*
D10*
X224594215Y-120961034D03*
X227263861Y-119992794D03*
X230121569Y-126206295D03*
X230948763Y-123489635D03*
D11*
X225609471Y-125426116D03*
D12*
X229294373Y-128922957D03*
X221924569Y-121929275D03*
D13*
X222345286Y-122328520D03*
X228873656Y-128523712D03*
D19*
X232241389Y-122069382D03*
X228614517Y-118627609D03*
G36*
G01*
X229157903Y-131274931D02*
X227707154Y-129898221D01*
G75*
G02*
X227699750Y-129615475I137671J145075D01*
G01*
X229902485Y-127294277D01*
G75*
G02*
X230185231Y-127286873I145075J-137671D01*
G01*
X231635980Y-128663583D01*
G75*
G02*
X231643384Y-128946329I-137671J-145075D01*
G01*
X229440649Y-131267527D01*
G75*
G02*
X229157903Y-131274931I-145075J137671D01*
G01*
G37*
G36*
G01*
X221033711Y-123565359D02*
X219582962Y-122188649D01*
G75*
G02*
X219575558Y-121905903I137671J145075D01*
G01*
X221778293Y-119584705D01*
G75*
G02*
X222061039Y-119577301I145075J-137671D01*
G01*
X223511788Y-120954011D01*
G75*
G02*
X223519192Y-121236757I-137671J-145075D01*
G01*
X221316457Y-123557955D01*
G75*
G02*
X221033711Y-123565359I-145075J137671D01*
G01*
G37*
X222260248Y-132587310D03*
X220446812Y-130866424D03*
X218633376Y-129145537D03*
G36*
G01*
X221266302Y-115390159D02*
X220512616Y-114811836D01*
G75*
G02*
X220475697Y-114531413I121752J158671D01*
G01*
X221267087Y-113500054D01*
G75*
G02*
X221547510Y-113463135I158671J-121752D01*
G01*
X222301196Y-114041458D01*
G75*
G02*
X222338115Y-114321881I-121752J-158671D01*
G01*
X221546725Y-115353240D01*
G75*
G02*
X221266302Y-115390159I-158671J121752D01*
G01*
G37*
D15*
X222487457Y-113018445D03*
G36*
G01*
X218172436Y-119789301D02*
X217064122Y-118938861D01*
G75*
G02*
X217027203Y-118658438I121752J158671D01*
G01*
X217877643Y-117550124D01*
G75*
G02*
X218158066Y-117513205I158671J-121752D01*
G01*
X219266380Y-118363645D01*
G75*
G02*
X219303299Y-118644068I-121752J-158671D01*
G01*
X218452859Y-119752382D01*
G75*
G02*
X218172436Y-119789301I-158671J121752D01*
G01*
G37*
G36*
G01*
X219105198Y-118206563D02*
X218351512Y-117628240D01*
G75*
G02*
X218314593Y-117347817I121752J158671D01*
G01*
X219105983Y-116316458D01*
G75*
G02*
X219386406Y-116279539I158671J-121752D01*
G01*
X220140092Y-116857862D01*
G75*
G02*
X220177011Y-117138285I-121752J-158671D01*
G01*
X219385621Y-118169644D01*
G75*
G02*
X219105198Y-118206563I-158671J121752D01*
G01*
G37*
D14*
X144368272Y-106856126D03*
G36*
G01*
X126672393Y-120597493D02*
X126359524Y-118622116D01*
G75*
G02*
X126525775Y-118393291I197538J31287D01*
G01*
X128797458Y-118033492D01*
G75*
G02*
X129026283Y-118199743I31287J-197538D01*
G01*
X129339152Y-120175120D01*
G75*
G02*
X129172901Y-120403945I-197538J-31287D01*
G01*
X126901218Y-120763744D01*
G75*
G02*
X126672393Y-120597493I-31287J197538D01*
G01*
G37*
G36*
G01*
X139613378Y-121119504D02*
X139300509Y-119144127D01*
G75*
G02*
X139466760Y-118915302I197538J31287D01*
G01*
X141738443Y-118555503D01*
G75*
G02*
X141967268Y-118721754I31287J-197538D01*
G01*
X142280137Y-120697131D01*
G75*
G02*
X142113886Y-120925956I-197538J-31287D01*
G01*
X139842203Y-121285755D01*
G75*
G02*
X139613378Y-121119504I-31287J197538D01*
G01*
G37*
D10*
X138519991Y-117668054D03*
X137662970Y-120375454D03*
X130993806Y-118860086D03*
X132645514Y-121170141D03*
D11*
X134359555Y-115755341D03*
D12*
X129342098Y-116550028D03*
X139377012Y-114960654D03*
D13*
X138804153Y-115051386D03*
X129914957Y-116459296D03*
G36*
G01*
X144191026Y-112682186D02*
X145139724Y-112632467D01*
G75*
G02*
X145349917Y-112821726I10467J-199726D01*
G01*
X145417953Y-114119945D01*
G75*
G02*
X145228694Y-114330138I-199726J-10467D01*
G01*
X144279996Y-114379857D01*
G75*
G02*
X144069803Y-114190598I-10467J199726D01*
G01*
X144001767Y-112892379D01*
G75*
G02*
X144191026Y-112682186I199726J10467D01*
G01*
G37*
G36*
G01*
X143872397Y-110872882D02*
X145267482Y-110799769D01*
G75*
G02*
X145477675Y-110989028I10467J-199726D01*
G01*
X145550788Y-112384113D01*
G75*
G02*
X145361529Y-112594306I-199726J-10467D01*
G01*
X143966444Y-112667419D01*
G75*
G02*
X143756251Y-112478160I-10467J199726D01*
G01*
X143683138Y-111083075D01*
G75*
G02*
X143872397Y-110872882I199726J10467D01*
G01*
G37*
D15*
X144988549Y-118823864D03*
G36*
G01*
X144376818Y-116227320D02*
X145325516Y-116177601D01*
G75*
G02*
X145535709Y-116366860I10467J-199726D01*
G01*
X145603745Y-117665079D01*
G75*
G02*
X145414486Y-117875272I-199726J-10467D01*
G01*
X144465788Y-117924991D01*
G75*
G02*
X144255595Y-117735732I-10467J199726D01*
G01*
X144187559Y-116437513D01*
G75*
G02*
X144376818Y-116227320I199726J10467D01*
G01*
G37*
G36*
G01*
X186522822Y-125513735D02*
X187522822Y-123781685D01*
G75*
G02*
X187796027Y-123708480I173205J-100000D01*
G01*
X189787885Y-124858480D01*
G75*
G02*
X189861090Y-125131685I-100000J-173205D01*
G01*
X188861090Y-126863735D01*
G75*
G02*
X188587885Y-126936940I-173205J100000D01*
G01*
X186596027Y-125786940D01*
G75*
G02*
X186522822Y-125513735I100000J173205D01*
G01*
G37*
G36*
G01*
X196251345Y-134063439D02*
X197251345Y-132331389D01*
G75*
G02*
X197524550Y-132258184I173205J-100000D01*
G01*
X199516408Y-133408184D01*
G75*
G02*
X199589613Y-133681389I-100000J-173205D01*
G01*
X198589613Y-135413439D01*
G75*
G02*
X198316408Y-135486644I-173205J100000D01*
G01*
X196324550Y-134336644D01*
G75*
G02*
X196251345Y-134063439I100000J173205D01*
G01*
G37*
D10*
X197573691Y-130693069D03*
X195203839Y-132257773D03*
X190974577Y-126883069D03*
X190804429Y-129717773D03*
D11*
X195544134Y-126588364D03*
D12*
X191144725Y-124048364D03*
X199943543Y-129128364D03*
D13*
X199441248Y-128838364D03*
X191647020Y-124338364D03*
G36*
G01*
X167080683Y-119309968D02*
X167648714Y-117392329D01*
G75*
G02*
X167897281Y-117257368I191764J-56803D01*
G01*
X170102566Y-117910603D01*
G75*
G02*
X170237527Y-118159170I-56803J-191764D01*
G01*
X169669496Y-120076809D01*
G75*
G02*
X169420929Y-120211770I-191764J56803D01*
G01*
X167215644Y-119558535D01*
G75*
G02*
X167080683Y-119309968I56803J191764D01*
G01*
G37*
G36*
G01*
X178536295Y-125352365D02*
X179104326Y-123434726D01*
G75*
G02*
X179352893Y-123299765I191764J-56803D01*
G01*
X181558178Y-123953000D01*
G75*
G02*
X181693139Y-124201567I-56803J-191764D01*
G01*
X181125108Y-126119206D01*
G75*
G02*
X180876541Y-126254167I-191764J56803D01*
G01*
X178671256Y-125600932D01*
G75*
G02*
X178536295Y-125352365I56803J191764D01*
G01*
G37*
D10*
X179035307Y-121766422D03*
X177096207Y-123841124D03*
X171729101Y-119602226D03*
X172225403Y-122398326D03*
D11*
X176103603Y-118248921D03*
D12*
X171232799Y-116806123D03*
X180974407Y-119691719D03*
D13*
X180418292Y-119526990D03*
X171788914Y-116970852D03*
X94541255Y-59155244D03*
X85541255Y-59155244D03*
D12*
X84961255Y-59155244D03*
X95121255Y-59155244D03*
D11*
X90041255Y-59155244D03*
D10*
X92581255Y-54075244D03*
X93851255Y-56615243D03*
X87501255Y-54075244D03*
X86231255Y-56615244D03*
G36*
G01*
X85691255Y-53035244D02*
X85691255Y-55035244D01*
G75*
G02*
X85491255Y-55235244I-200000J0D01*
G01*
X83191255Y-55235244D01*
G75*
G02*
X82991255Y-55035244I0J200000D01*
G01*
X82991255Y-53035244D01*
G75*
G02*
X83191255Y-52835244I200000J0D01*
G01*
X85491255Y-52835244D01*
G75*
G02*
X85691255Y-53035244I0J-200000D01*
G01*
G37*
G36*
G01*
X98391255Y-55575244D02*
X98391255Y-57575244D01*
G75*
G02*
X98191255Y-57775244I-200000J0D01*
G01*
X95891255Y-57775244D01*
G75*
G02*
X95691255Y-57575244I0J200000D01*
G01*
X95691255Y-55575244D01*
G75*
G02*
X95891255Y-55375244I200000J0D01*
G01*
X98191255Y-55375244D01*
G75*
G02*
X98391255Y-55575244I0J-200000D01*
G01*
G37*
D13*
X113591271Y-78205249D03*
X104591271Y-78205249D03*
D12*
X104011271Y-78205249D03*
X114171271Y-78205249D03*
D11*
X109091271Y-78205249D03*
D10*
X111631271Y-73125249D03*
X112901271Y-75665248D03*
X106551271Y-73125249D03*
X105281271Y-75665249D03*
G36*
G01*
X104741271Y-72085249D02*
X104741271Y-74085249D01*
G75*
G02*
X104541271Y-74285249I-200000J0D01*
G01*
X102241271Y-74285249D01*
G75*
G02*
X102041271Y-74085249I0J200000D01*
G01*
X102041271Y-72085249D01*
G75*
G02*
X102241271Y-71885249I200000J0D01*
G01*
X104541271Y-71885249D01*
G75*
G02*
X104741271Y-72085249I0J-200000D01*
G01*
G37*
G36*
G01*
X117441271Y-74625249D02*
X117441271Y-76625249D01*
G75*
G02*
X117241271Y-76825249I-200000J0D01*
G01*
X114941271Y-76825249D01*
G75*
G02*
X114741271Y-76625249I0J200000D01*
G01*
X114741271Y-74625249D01*
G75*
G02*
X114941271Y-74425249I200000J0D01*
G01*
X117241271Y-74425249D01*
G75*
G02*
X117441271Y-74625249I0J-200000D01*
G01*
G37*
G36*
G01*
X220027344Y-141869747D02*
X220716449Y-142523684D01*
G75*
G02*
X220723853Y-142806430I-137671J-145075D01*
G01*
X219828992Y-143749417D01*
G75*
G02*
X219546246Y-143756821I-145075J137671D01*
G01*
X218857141Y-143102884D01*
G75*
G02*
X218849737Y-142820138I137671J145075D01*
G01*
X219744598Y-141877151D01*
G75*
G02*
X220027344Y-141869747I145075J-137671D01*
G01*
G37*
D15*
X218564965Y-144100823D03*
G36*
G01*
X223564096Y-137818100D02*
X224577444Y-138779732D01*
G75*
G02*
X224584848Y-139062478I-137671J-145075D01*
G01*
X223623216Y-140075826D01*
G75*
G02*
X223340470Y-140083230I-145075J137671D01*
G01*
X222327122Y-139121598D01*
G75*
G02*
X222319718Y-138838852I137671J145075D01*
G01*
X223281350Y-137825504D01*
G75*
G02*
X223564096Y-137818100I145075J-137671D01*
G01*
G37*
G36*
G01*
X222471002Y-139294667D02*
X223160107Y-139948604D01*
G75*
G02*
X223167511Y-140231350I-137671J-145075D01*
G01*
X222272650Y-141174337D01*
G75*
G02*
X221989904Y-141181741I-145075J137671D01*
G01*
X221300799Y-140527804D01*
G75*
G02*
X221293395Y-140245058I137671J145075D01*
G01*
X222188256Y-139302071D01*
G75*
G02*
X222471002Y-139294667I145075J-137671D01*
G01*
G37*
G36*
G01*
X203078773Y-133345204D02*
X203847339Y-133903600D01*
G75*
G02*
X203891585Y-134182960I-117557J-161803D01*
G01*
X203127465Y-135234682D01*
G75*
G02*
X202848105Y-135278928I-161803J117557D01*
G01*
X202079539Y-134720532D01*
G75*
G02*
X202035293Y-134441172I117557J161803D01*
G01*
X202799413Y-133389450D01*
G75*
G02*
X203078773Y-133345204I161803J-117557D01*
G01*
G37*
X201920120Y-135748071D03*
G36*
G01*
X206056423Y-128866582D02*
X207186619Y-129687718D01*
G75*
G02*
X207230865Y-129967078I-117557J-161803D01*
G01*
X206409729Y-131097274D01*
G75*
G02*
X206130369Y-131141520I-161803J117557D01*
G01*
X205000173Y-130320384D01*
G75*
G02*
X204955927Y-130041024I117557J161803D01*
G01*
X205777063Y-128910828D01*
G75*
G02*
X206056423Y-128866582I161803J-117557D01*
G01*
G37*
G36*
G01*
X205165411Y-130473194D02*
X205933977Y-131031590D01*
G75*
G02*
X205978223Y-131310950I-117557J-161803D01*
G01*
X205214103Y-132362672D01*
G75*
G02*
X204934743Y-132406918I-161803J117557D01*
G01*
X204166177Y-131848522D01*
G75*
G02*
X204121931Y-131569162I117557J161803D01*
G01*
X204886051Y-130517440D01*
G75*
G02*
X205165411Y-130473194I161803J-117557D01*
G01*
G37*
G36*
G01*
X184846214Y-123499891D02*
X185723900Y-123863440D01*
G75*
G02*
X185832139Y-124124753I-76537J-184776D01*
G01*
X185334651Y-125325796D01*
G75*
G02*
X185073338Y-125434035I-184776J76537D01*
G01*
X184195652Y-125070486D01*
G75*
G02*
X184087413Y-124809173I76537J184776D01*
G01*
X184584901Y-123608130D01*
G75*
G02*
X184846214Y-123499891I184776J-76537D01*
G01*
G37*
X184280513Y-126106849D03*
G36*
G01*
X186696077Y-118449895D02*
X187986736Y-118984504D01*
G75*
G02*
X188094975Y-119245817I-76537J-184776D01*
G01*
X187560366Y-120536476D01*
G75*
G02*
X187299053Y-120644715I-184776J76537D01*
G01*
X186008394Y-120110106D01*
G75*
G02*
X185900155Y-119848793I76537J184776D01*
G01*
X186434764Y-118558134D01*
G75*
G02*
X186696077Y-118449895I184776J-76537D01*
G01*
G37*
G36*
G01*
X186204740Y-120220119D02*
X187082426Y-120583668D01*
G75*
G02*
X187190665Y-120844981I-76537J-184776D01*
G01*
X186693177Y-122046024D01*
G75*
G02*
X186431864Y-122154263I-184776J76537D01*
G01*
X185554178Y-121790714D01*
G75*
G02*
X185445939Y-121529401I76537J184776D01*
G01*
X185943427Y-120328358D01*
G75*
G02*
X186204740Y-120220119I184776J-76537D01*
G01*
G37*
G36*
G01*
X164990155Y-117635045D02*
X165928459Y-117783658D01*
G75*
G02*
X166094710Y-118012483I-31287J-197538D01*
G01*
X165891346Y-119296478D01*
G75*
G02*
X165662521Y-119462729I-197538J31287D01*
G01*
X164724217Y-119314116D01*
G75*
G02*
X164557966Y-119085291I31287J197538D01*
G01*
X164761330Y-117801296D01*
G75*
G02*
X164990155Y-117635045I197538J-31287D01*
G01*
G37*
X165048667Y-120302034D03*
G36*
G01*
X165610007Y-112292738D02*
X166989808Y-112511277D01*
G75*
G02*
X167156059Y-112740102I-31287J-197538D01*
G01*
X166937520Y-114119903D01*
G75*
G02*
X166708695Y-114286154I-197538J31287D01*
G01*
X165328894Y-114067615D01*
G75*
G02*
X165162643Y-113838790I31287J197538D01*
G01*
X165381182Y-112458989D01*
G75*
G02*
X165610007Y-112292738I197538J-31287D01*
G01*
G37*
G36*
G01*
X165545497Y-114128751D02*
X166483801Y-114277364D01*
G75*
G02*
X166650052Y-114506189I-31287J-197538D01*
G01*
X166446688Y-115790184D01*
G75*
G02*
X166217863Y-115956435I-197538J31287D01*
G01*
X165279559Y-115807822D01*
G75*
G02*
X165113308Y-115578997I31287J197538D01*
G01*
X165316672Y-114295002D01*
G75*
G02*
X165545497Y-114128751I197538J-31287D01*
G01*
G37*
G36*
G01*
X199051673Y-99601916D02*
X198183805Y-99215517D01*
G75*
G02*
X198082443Y-98951461I81347J182709D01*
G01*
X198611201Y-97763852D01*
G75*
G02*
X198875257Y-97662490I182709J-81347D01*
G01*
X199743125Y-98048889D01*
G75*
G02*
X199844487Y-98312945I-81347J-182709D01*
G01*
X199315729Y-99500554D01*
G75*
G02*
X199051673Y-99601916I-182709J81347D01*
G01*
G37*
X199685422Y-97010660D03*
G36*
G01*
X197070251Y-104601758D02*
X195794028Y-104033547D01*
G75*
G02*
X195692666Y-103769491I81347J182709D01*
G01*
X196260877Y-102493268D01*
G75*
G02*
X196524933Y-102391906I182709J-81347D01*
G01*
X197801156Y-102960117D01*
G75*
G02*
X197902518Y-103224173I-81347J-182709D01*
G01*
X197334307Y-104500396D01*
G75*
G02*
X197070251Y-104601758I-182709J81347D01*
G01*
G37*
G36*
G01*
X197607757Y-102845002D02*
X196739889Y-102458603D01*
G75*
G02*
X196638527Y-102194547I81347J182709D01*
G01*
X197167285Y-101006938D01*
G75*
G02*
X197431341Y-100905576I182709J-81347D01*
G01*
X198299209Y-101291975D01*
G75*
G02*
X198400571Y-101556031I-81347J-182709D01*
G01*
X197871813Y-102743640D01*
G75*
G02*
X197607757Y-102845002I-182709J81347D01*
G01*
G37*
G36*
G01*
X177883824Y-101520483D02*
X176935126Y-101470764D01*
G75*
G02*
X176745867Y-101260571I10467J199726D01*
G01*
X176813903Y-99962352D01*
G75*
G02*
X177024096Y-99773093I199726J-10467D01*
G01*
X177972794Y-99822812D01*
G75*
G02*
X178162053Y-100033005I-10467J-199726D01*
G01*
X178094017Y-101331224D01*
G75*
G02*
X177883824Y-101520483I-199726J10467D01*
G01*
G37*
X177546857Y-98874220D03*
G36*
G01*
X177825790Y-106898315D02*
X176430705Y-106825202D01*
G75*
G02*
X176241446Y-106615009I10467J199726D01*
G01*
X176314559Y-105219924D01*
G75*
G02*
X176524752Y-105030665I199726J-10467D01*
G01*
X177919837Y-105103778D01*
G75*
G02*
X178109096Y-105313971I-10467J-199726D01*
G01*
X178035983Y-106709056D01*
G75*
G02*
X177825790Y-106898315I-199726J10467D01*
G01*
G37*
G36*
G01*
X177698032Y-105065617D02*
X176749334Y-105015898D01*
G75*
G02*
X176560075Y-104805705I10467J199726D01*
G01*
X176628111Y-103507486D01*
G75*
G02*
X176838304Y-103318227I199726J-10467D01*
G01*
X177787002Y-103367946D01*
G75*
G02*
X177976261Y-103578139I-10467J-199726D01*
G01*
X177908225Y-104876358D01*
G75*
G02*
X177698032Y-105065617I-199726J10467D01*
G01*
G37*
G36*
G01*
X158967221Y-98476250D02*
X158018523Y-98426531D01*
G75*
G02*
X157829264Y-98216338I10467J199726D01*
G01*
X157897300Y-96918119D01*
G75*
G02*
X158107493Y-96728860I199726J-10467D01*
G01*
X159056191Y-96778579D01*
G75*
G02*
X159245450Y-96988772I-10467J-199726D01*
G01*
X159177414Y-98286991D01*
G75*
G02*
X158967221Y-98476250I-199726J10467D01*
G01*
G37*
X158630254Y-95829987D03*
G36*
G01*
X158909187Y-103854082D02*
X157514102Y-103780969D01*
G75*
G02*
X157324843Y-103570776I10467J199726D01*
G01*
X157397956Y-102175691D01*
G75*
G02*
X157608149Y-101986432I199726J-10467D01*
G01*
X159003234Y-102059545D01*
G75*
G02*
X159192493Y-102269738I-10467J-199726D01*
G01*
X159119380Y-103664823D01*
G75*
G02*
X158909187Y-103854082I-199726J10467D01*
G01*
G37*
G36*
G01*
X158781429Y-102021384D02*
X157832731Y-101971665D01*
G75*
G02*
X157643472Y-101761472I10467J199726D01*
G01*
X157711508Y-100463253D01*
G75*
G02*
X157921701Y-100273994I199726J-10467D01*
G01*
X158870399Y-100323713D01*
G75*
G02*
X159059658Y-100533906I-10467J-199726D01*
G01*
X158991622Y-101832125D01*
G75*
G02*
X158781429Y-102021384I-199726J10467D01*
G01*
G37*
G36*
G01*
X140071522Y-95032643D02*
X139122824Y-94982924D01*
G75*
G02*
X138933565Y-94772731I10467J199726D01*
G01*
X139001601Y-93474512D01*
G75*
G02*
X139211794Y-93285253I199726J-10467D01*
G01*
X140160492Y-93334972D01*
G75*
G02*
X140349751Y-93545165I-10467J-199726D01*
G01*
X140281715Y-94843384D01*
G75*
G02*
X140071522Y-95032643I-199726J10467D01*
G01*
G37*
X139734555Y-92386380D03*
G36*
G01*
X140013488Y-100410475D02*
X138618403Y-100337362D01*
G75*
G02*
X138429144Y-100127169I10467J199726D01*
G01*
X138502257Y-98732084D01*
G75*
G02*
X138712450Y-98542825I199726J-10467D01*
G01*
X140107535Y-98615938D01*
G75*
G02*
X140296794Y-98826131I-10467J-199726D01*
G01*
X140223681Y-100221216D01*
G75*
G02*
X140013488Y-100410475I-199726J10467D01*
G01*
G37*
G36*
G01*
X139885730Y-98577777D02*
X138937032Y-98528058D01*
G75*
G02*
X138747773Y-98317865I10467J199726D01*
G01*
X138815809Y-97019646D01*
G75*
G02*
X139026002Y-96830387I199726J-10467D01*
G01*
X139974700Y-96880106D01*
G75*
G02*
X140163959Y-97090299I-10467J-199726D01*
G01*
X140095923Y-98388518D01*
G75*
G02*
X139885730Y-98577777I-199726J10467D01*
G01*
G37*
G36*
G01*
X120914199Y-96582118D02*
X119965501Y-96532399D01*
G75*
G02*
X119776242Y-96322206I10467J199726D01*
G01*
X119844278Y-95023987D01*
G75*
G02*
X120054471Y-94834728I199726J-10467D01*
G01*
X121003169Y-94884447D01*
G75*
G02*
X121192428Y-95094640I-10467J-199726D01*
G01*
X121124392Y-96392859D01*
G75*
G02*
X120914199Y-96582118I-199726J10467D01*
G01*
G37*
X120577232Y-93935855D03*
G36*
G01*
X120856165Y-101959950D02*
X119461080Y-101886837D01*
G75*
G02*
X119271821Y-101676644I10467J199726D01*
G01*
X119344934Y-100281559D01*
G75*
G02*
X119555127Y-100092300I199726J-10467D01*
G01*
X120950212Y-100165413D01*
G75*
G02*
X121139471Y-100375606I-10467J-199726D01*
G01*
X121066358Y-101770691D01*
G75*
G02*
X120856165Y-101959950I-199726J10467D01*
G01*
G37*
G36*
G01*
X120728407Y-100127252D02*
X119779709Y-100077533D01*
G75*
G02*
X119590450Y-99867340I10467J199726D01*
G01*
X119658486Y-98569121D01*
G75*
G02*
X119868679Y-98379862I199726J-10467D01*
G01*
X120817377Y-98429581D01*
G75*
G02*
X121006636Y-98639774I-10467J-199726D01*
G01*
X120938600Y-99937993D01*
G75*
G02*
X120728407Y-100127252I-199726J10467D01*
G01*
G37*
G36*
G01*
X100016310Y-103330260D02*
X99066310Y-103330260D01*
G75*
G02*
X98866310Y-103130260I0J200000D01*
G01*
X98866310Y-101830260D01*
G75*
G02*
X99066310Y-101630260I200000J0D01*
G01*
X100016310Y-101630260D01*
G75*
G02*
X100216310Y-101830260I0J-200000D01*
G01*
X100216310Y-103130260D01*
G75*
G02*
X100016310Y-103330260I-200000J0D01*
G01*
G37*
G36*
G01*
X100239810Y-105153760D02*
X98842810Y-105153760D01*
G75*
G02*
X98642810Y-104953760I0J200000D01*
G01*
X98642810Y-103556760D01*
G75*
G02*
X98842810Y-103356760I200000J0D01*
G01*
X100239810Y-103356760D01*
G75*
G02*
X100439810Y-103556760I0J-200000D01*
G01*
X100439810Y-104953760D01*
G75*
G02*
X100239810Y-105153760I-200000J0D01*
G01*
G37*
X99541310Y-97155260D03*
G36*
G01*
X100016310Y-99780260D02*
X99066310Y-99780260D01*
G75*
G02*
X98866310Y-99580260I0J200000D01*
G01*
X98866310Y-98280260D01*
G75*
G02*
X99066310Y-98080260I200000J0D01*
G01*
X100016310Y-98080260D01*
G75*
G02*
X100216310Y-98280260I0J-200000D01*
G01*
X100216310Y-99580260D01*
G75*
G02*
X100016310Y-99780260I-200000J0D01*
G01*
G37*
G36*
G01*
X82466265Y-103530252D02*
X81516265Y-103530252D01*
G75*
G02*
X81316265Y-103330252I0J200000D01*
G01*
X81316265Y-102030252D01*
G75*
G02*
X81516265Y-101830252I200000J0D01*
G01*
X82466265Y-101830252D01*
G75*
G02*
X82666265Y-102030252I0J-200000D01*
G01*
X82666265Y-103330252D01*
G75*
G02*
X82466265Y-103530252I-200000J0D01*
G01*
G37*
G36*
G01*
X82689765Y-105353752D02*
X81292765Y-105353752D01*
G75*
G02*
X81092765Y-105153752I0J200000D01*
G01*
X81092765Y-103756752D01*
G75*
G02*
X81292765Y-103556752I200000J0D01*
G01*
X82689765Y-103556752D01*
G75*
G02*
X82889765Y-103756752I0J-200000D01*
G01*
X82889765Y-105153752D01*
G75*
G02*
X82689765Y-105353752I-200000J0D01*
G01*
G37*
X81991265Y-97355252D03*
G36*
G01*
X82466265Y-99980252D02*
X81516265Y-99980252D01*
G75*
G02*
X81316265Y-99780252I0J200000D01*
G01*
X81316265Y-98480252D01*
G75*
G02*
X81516265Y-98280252I200000J0D01*
G01*
X82466265Y-98280252D01*
G75*
G02*
X82666265Y-98480252I0J-200000D01*
G01*
X82666265Y-99780252D01*
G75*
G02*
X82466265Y-99980252I-200000J0D01*
G01*
G37*
G36*
G01*
X178882133Y-82471615D02*
X177933435Y-82421896D01*
G75*
G02*
X177744176Y-82211703I10467J199726D01*
G01*
X177812212Y-80913484D01*
G75*
G02*
X178022405Y-80724225I199726J-10467D01*
G01*
X178971103Y-80773944D01*
G75*
G02*
X179160362Y-80984137I-10467J-199726D01*
G01*
X179092326Y-82282356D01*
G75*
G02*
X178882133Y-82471615I-199726J10467D01*
G01*
G37*
X178545166Y-79825352D03*
G36*
G01*
X178824099Y-87849447D02*
X177429014Y-87776334D01*
G75*
G02*
X177239755Y-87566141I10467J199726D01*
G01*
X177312868Y-86171056D01*
G75*
G02*
X177523061Y-85981797I199726J-10467D01*
G01*
X178918146Y-86054910D01*
G75*
G02*
X179107405Y-86265103I-10467J-199726D01*
G01*
X179034292Y-87660188D01*
G75*
G02*
X178824099Y-87849447I-199726J10467D01*
G01*
G37*
G36*
G01*
X178696341Y-86016749D02*
X177747643Y-85967030D01*
G75*
G02*
X177558384Y-85756837I10467J199726D01*
G01*
X177626420Y-84458618D01*
G75*
G02*
X177836613Y-84269359I199726J-10467D01*
G01*
X178785311Y-84319078D01*
G75*
G02*
X178974570Y-84529271I-10467J-199726D01*
G01*
X178906534Y-85827490D01*
G75*
G02*
X178696341Y-86016749I-199726J10467D01*
G01*
G37*
G36*
G01*
X159990371Y-78953051D02*
X159041673Y-78903332D01*
G75*
G02*
X158852414Y-78693139I10467J199726D01*
G01*
X158920450Y-77394920D01*
G75*
G02*
X159130643Y-77205661I199726J-10467D01*
G01*
X160079341Y-77255380D01*
G75*
G02*
X160268600Y-77465573I-10467J-199726D01*
G01*
X160200564Y-78763792D01*
G75*
G02*
X159990371Y-78953051I-199726J10467D01*
G01*
G37*
X159653404Y-76306788D03*
G36*
G01*
X159932337Y-84330883D02*
X158537252Y-84257770D01*
G75*
G02*
X158347993Y-84047577I10467J199726D01*
G01*
X158421106Y-82652492D01*
G75*
G02*
X158631299Y-82463233I199726J-10467D01*
G01*
X160026384Y-82536346D01*
G75*
G02*
X160215643Y-82746539I-10467J-199726D01*
G01*
X160142530Y-84141624D01*
G75*
G02*
X159932337Y-84330883I-199726J10467D01*
G01*
G37*
G36*
G01*
X159804579Y-82498185D02*
X158855881Y-82448466D01*
G75*
G02*
X158666622Y-82238273I10467J199726D01*
G01*
X158734658Y-80940054D01*
G75*
G02*
X158944851Y-80750795I199726J-10467D01*
G01*
X159893549Y-80800514D01*
G75*
G02*
X160082808Y-81010707I-10467J-199726D01*
G01*
X160014772Y-82308926D01*
G75*
G02*
X159804579Y-82498185I-199726J10467D01*
G01*
G37*
G36*
G01*
X141068541Y-76008732D02*
X140119843Y-75959013D01*
G75*
G02*
X139930584Y-75748820I10467J199726D01*
G01*
X139998620Y-74450601D01*
G75*
G02*
X140208813Y-74261342I199726J-10467D01*
G01*
X141157511Y-74311061D01*
G75*
G02*
X141346770Y-74521254I-10467J-199726D01*
G01*
X141278734Y-75819473D01*
G75*
G02*
X141068541Y-76008732I-199726J10467D01*
G01*
G37*
X140731574Y-73362469D03*
G36*
G01*
X141010507Y-81386564D02*
X139615422Y-81313451D01*
G75*
G02*
X139426163Y-81103258I10467J199726D01*
G01*
X139499276Y-79708173D01*
G75*
G02*
X139709469Y-79518914I199726J-10467D01*
G01*
X141104554Y-79592027D01*
G75*
G02*
X141293813Y-79802220I-10467J-199726D01*
G01*
X141220700Y-81197305D01*
G75*
G02*
X141010507Y-81386564I-199726J10467D01*
G01*
G37*
G36*
G01*
X140882749Y-79553866D02*
X139934051Y-79504147D01*
G75*
G02*
X139744792Y-79293954I10467J199726D01*
G01*
X139812828Y-77995735D01*
G75*
G02*
X140023021Y-77806476I199726J-10467D01*
G01*
X140971719Y-77856195D01*
G75*
G02*
X141160978Y-78066388I-10467J-199726D01*
G01*
X141092942Y-79364607D01*
G75*
G02*
X140882749Y-79553866I-199726J10467D01*
G01*
G37*
G36*
G01*
X121913807Y-77508318D02*
X120965109Y-77458599D01*
G75*
G02*
X120775850Y-77248406I10467J199726D01*
G01*
X120843886Y-75950187D01*
G75*
G02*
X121054079Y-75760928I199726J-10467D01*
G01*
X122002777Y-75810647D01*
G75*
G02*
X122192036Y-76020840I-10467J-199726D01*
G01*
X122124000Y-77319059D01*
G75*
G02*
X121913807Y-77508318I-199726J10467D01*
G01*
G37*
X121576840Y-74862055D03*
G36*
G01*
X121855773Y-82886150D02*
X120460688Y-82813037D01*
G75*
G02*
X120271429Y-82602844I10467J199726D01*
G01*
X120344542Y-81207759D01*
G75*
G02*
X120554735Y-81018500I199726J-10467D01*
G01*
X121949820Y-81091613D01*
G75*
G02*
X122139079Y-81301806I-10467J-199726D01*
G01*
X122065966Y-82696891D01*
G75*
G02*
X121855773Y-82886150I-199726J10467D01*
G01*
G37*
G36*
G01*
X121728015Y-81053452D02*
X120779317Y-81003733D01*
G75*
G02*
X120590058Y-80793540I10467J199726D01*
G01*
X120658094Y-79495321D01*
G75*
G02*
X120868287Y-79306062I199726J-10467D01*
G01*
X121816985Y-79355781D01*
G75*
G02*
X122006244Y-79565974I-10467J-199726D01*
G01*
X121938208Y-80864193D01*
G75*
G02*
X121728015Y-81053452I-199726J10467D01*
G01*
G37*
G36*
G01*
X100066274Y-83280254D02*
X99116274Y-83280254D01*
G75*
G02*
X98916274Y-83080254I0J200000D01*
G01*
X98916274Y-81780254D01*
G75*
G02*
X99116274Y-81580254I200000J0D01*
G01*
X100066274Y-81580254D01*
G75*
G02*
X100266274Y-81780254I0J-200000D01*
G01*
X100266274Y-83080254D01*
G75*
G02*
X100066274Y-83280254I-200000J0D01*
G01*
G37*
G36*
G01*
X100289774Y-85103754D02*
X98892774Y-85103754D01*
G75*
G02*
X98692774Y-84903754I0J200000D01*
G01*
X98692774Y-83506754D01*
G75*
G02*
X98892774Y-83306754I200000J0D01*
G01*
X100289774Y-83306754D01*
G75*
G02*
X100489774Y-83506754I0J-200000D01*
G01*
X100489774Y-84903754D01*
G75*
G02*
X100289774Y-85103754I-200000J0D01*
G01*
G37*
X99591274Y-77105254D03*
G36*
G01*
X100066274Y-79730254D02*
X99116274Y-79730254D01*
G75*
G02*
X98916274Y-79530254I0J200000D01*
G01*
X98916274Y-78230254D01*
G75*
G02*
X99116274Y-78030254I200000J0D01*
G01*
X100066274Y-78030254D01*
G75*
G02*
X100266274Y-78230254I0J-200000D01*
G01*
X100266274Y-79530254D01*
G75*
G02*
X100066274Y-79730254I-200000J0D01*
G01*
G37*
G36*
G01*
X82417940Y-84532380D02*
X81467940Y-84532380D01*
G75*
G02*
X81267940Y-84332380I0J200000D01*
G01*
X81267940Y-83032380D01*
G75*
G02*
X81467940Y-82832380I200000J0D01*
G01*
X82417940Y-82832380D01*
G75*
G02*
X82617940Y-83032380I0J-200000D01*
G01*
X82617940Y-84332380D01*
G75*
G02*
X82417940Y-84532380I-200000J0D01*
G01*
G37*
G36*
G01*
X82641440Y-86355880D02*
X81244440Y-86355880D01*
G75*
G02*
X81044440Y-86155880I0J200000D01*
G01*
X81044440Y-84758880D01*
G75*
G02*
X81244440Y-84558880I200000J0D01*
G01*
X82641440Y-84558880D01*
G75*
G02*
X82841440Y-84758880I0J-200000D01*
G01*
X82841440Y-86155880D01*
G75*
G02*
X82641440Y-86355880I-200000J0D01*
G01*
G37*
X81942940Y-78357380D03*
G36*
G01*
X82417940Y-80982380D02*
X81467940Y-80982380D01*
G75*
G02*
X81267940Y-80782380I0J200000D01*
G01*
X81267940Y-79482380D01*
G75*
G02*
X81467940Y-79282380I200000J0D01*
G01*
X82417940Y-79282380D01*
G75*
G02*
X82617940Y-79482380I0J-200000D01*
G01*
X82617940Y-80782380D01*
G75*
G02*
X82417940Y-80982380I-200000J0D01*
G01*
G37*
G36*
G01*
X92210182Y-136015115D02*
X91413445Y-136532522D01*
G75*
G02*
X91136783Y-136473716I-108928J167734D01*
G01*
X90428752Y-135383445D01*
G75*
G02*
X90487558Y-135106783I167734J108928D01*
G01*
X91284295Y-134589376D01*
G75*
G02*
X91560957Y-134648182I108928J-167734D01*
G01*
X92268988Y-135738453D01*
G75*
G02*
X92210182Y-136015115I-167734J-108928D01*
G01*
G37*
X90382135Y-134072308D03*
G36*
G01*
X95324243Y-140399985D02*
X94152620Y-141160846D01*
G75*
G02*
X93875958Y-141102040I-108928J167734D01*
G01*
X93115097Y-139930417D01*
G75*
G02*
X93173903Y-139653755I167734J108928D01*
G01*
X94345526Y-138892894D01*
G75*
G02*
X94622188Y-138951700I108928J-167734D01*
G01*
X95383049Y-140123323D01*
G75*
G02*
X95324243Y-140399985I-167734J-108928D01*
G01*
G37*
G36*
G01*
X94143650Y-138992395D02*
X93346913Y-139509802D01*
G75*
G02*
X93070251Y-139450996I-108928J167734D01*
G01*
X92362220Y-138360725D01*
G75*
G02*
X92421026Y-138084063I167734J108928D01*
G01*
X93217763Y-137566656D01*
G75*
G02*
X93494425Y-137625462I108928J-167734D01*
G01*
X94202456Y-138715733D01*
G75*
G02*
X94143650Y-138992395I-167734J-108928D01*
G01*
G37*
G36*
G01*
X177948609Y-62069781D02*
X176999911Y-62020062D01*
G75*
G02*
X176810652Y-61809869I10467J199726D01*
G01*
X176878688Y-60511650D01*
G75*
G02*
X177088881Y-60322391I199726J-10467D01*
G01*
X178037579Y-60372110D01*
G75*
G02*
X178226838Y-60582303I-10467J-199726D01*
G01*
X178158802Y-61880522D01*
G75*
G02*
X177948609Y-62069781I-199726J10467D01*
G01*
G37*
X177611642Y-59423518D03*
G36*
G01*
X177890575Y-67447613D02*
X176495490Y-67374500D01*
G75*
G02*
X176306231Y-67164307I10467J199726D01*
G01*
X176379344Y-65769222D01*
G75*
G02*
X176589537Y-65579963I199726J-10467D01*
G01*
X177984622Y-65653076D01*
G75*
G02*
X178173881Y-65863269I-10467J-199726D01*
G01*
X178100768Y-67258354D01*
G75*
G02*
X177890575Y-67447613I-199726J10467D01*
G01*
G37*
G36*
G01*
X177762817Y-65614915D02*
X176814119Y-65565196D01*
G75*
G02*
X176624860Y-65355003I10467J199726D01*
G01*
X176692896Y-64056784D01*
G75*
G02*
X176903089Y-63867525I199726J-10467D01*
G01*
X177851787Y-63917244D01*
G75*
G02*
X178041046Y-64127437I-10467J-199726D01*
G01*
X177973010Y-65425656D01*
G75*
G02*
X177762817Y-65614915I-199726J10467D01*
G01*
G37*
G36*
G01*
X160987371Y-59929180D02*
X160038673Y-59879461D01*
G75*
G02*
X159849414Y-59669268I10467J199726D01*
G01*
X159917450Y-58371049D01*
G75*
G02*
X160127643Y-58181790I199726J-10467D01*
G01*
X161076341Y-58231509D01*
G75*
G02*
X161265600Y-58441702I-10467J-199726D01*
G01*
X161197564Y-59739921D01*
G75*
G02*
X160987371Y-59929180I-199726J10467D01*
G01*
G37*
X160650404Y-57282917D03*
G36*
G01*
X160929337Y-65307012D02*
X159534252Y-65233899D01*
G75*
G02*
X159344993Y-65023706I10467J199726D01*
G01*
X159418106Y-63628621D01*
G75*
G02*
X159628299Y-63439362I199726J-10467D01*
G01*
X161023384Y-63512475D01*
G75*
G02*
X161212643Y-63722668I-10467J-199726D01*
G01*
X161139530Y-65117753D01*
G75*
G02*
X160929337Y-65307012I-199726J10467D01*
G01*
G37*
G36*
G01*
X160801579Y-63474314D02*
X159852881Y-63424595D01*
G75*
G02*
X159663622Y-63214402I10467J199726D01*
G01*
X159731658Y-61916183D01*
G75*
G02*
X159941851Y-61726924I199726J-10467D01*
G01*
X160890549Y-61776643D01*
G75*
G02*
X161079808Y-61986836I-10467J-199726D01*
G01*
X161011772Y-63285055D01*
G75*
G02*
X160801579Y-63474314I-199726J10467D01*
G01*
G37*
G36*
G01*
X131058970Y-65420367D02*
X131108689Y-64471669D01*
G75*
G02*
X131318882Y-64282410I199726J-10467D01*
G01*
X132617101Y-64350446D01*
G75*
G02*
X132806360Y-64560639I-10467J-199726D01*
G01*
X132756641Y-65509337D01*
G75*
G02*
X132546448Y-65698596I-199726J10467D01*
G01*
X131248229Y-65630560D01*
G75*
G02*
X131058970Y-65420367I10467J199726D01*
G01*
G37*
X133705233Y-65083400D03*
G36*
G01*
X125681138Y-65362333D02*
X125754251Y-63967248D01*
G75*
G02*
X125964444Y-63777989I199726J-10467D01*
G01*
X127359529Y-63851102D01*
G75*
G02*
X127548788Y-64061295I-10467J-199726D01*
G01*
X127475675Y-65456380D01*
G75*
G02*
X127265482Y-65645639I-199726J10467D01*
G01*
X125870397Y-65572526D01*
G75*
G02*
X125681138Y-65362333I10467J199726D01*
G01*
G37*
G36*
G01*
X127513836Y-65234575D02*
X127563555Y-64285877D01*
G75*
G02*
X127773748Y-64096618I199726J-10467D01*
G01*
X129071967Y-64164654D01*
G75*
G02*
X129261226Y-64374847I-10467J-199726D01*
G01*
X129211507Y-65323545D01*
G75*
G02*
X129001314Y-65512804I-199726J10467D01*
G01*
X127703095Y-65444768D01*
G75*
G02*
X127513836Y-65234575I10467J199726D01*
G01*
G37*
G36*
G01*
X122913430Y-58434515D02*
X121964732Y-58384796D01*
G75*
G02*
X121775473Y-58174603I10467J199726D01*
G01*
X121843509Y-56876384D01*
G75*
G02*
X122053702Y-56687125I199726J-10467D01*
G01*
X123002400Y-56736844D01*
G75*
G02*
X123191659Y-56947037I-10467J-199726D01*
G01*
X123123623Y-58245256D01*
G75*
G02*
X122913430Y-58434515I-199726J10467D01*
G01*
G37*
X122576463Y-55788252D03*
G36*
G01*
X122855396Y-63812347D02*
X121460311Y-63739234D01*
G75*
G02*
X121271052Y-63529041I10467J199726D01*
G01*
X121344165Y-62133956D01*
G75*
G02*
X121554358Y-61944697I199726J-10467D01*
G01*
X122949443Y-62017810D01*
G75*
G02*
X123138702Y-62228003I-10467J-199726D01*
G01*
X123065589Y-63623088D01*
G75*
G02*
X122855396Y-63812347I-199726J10467D01*
G01*
G37*
G36*
G01*
X122727638Y-61979649D02*
X121778940Y-61929930D01*
G75*
G02*
X121589681Y-61719737I10467J199726D01*
G01*
X121657717Y-60421518D01*
G75*
G02*
X121867910Y-60232259I199726J-10467D01*
G01*
X122816608Y-60281978D01*
G75*
G02*
X123005867Y-60492171I-10467J-199726D01*
G01*
X122937831Y-61790390D01*
G75*
G02*
X122727638Y-61979649I-199726J10467D01*
G01*
G37*
G36*
G01*
X100066292Y-64230262D02*
X99116292Y-64230262D01*
G75*
G02*
X98916292Y-64030262I0J200000D01*
G01*
X98916292Y-62730262D01*
G75*
G02*
X99116292Y-62530262I200000J0D01*
G01*
X100066292Y-62530262D01*
G75*
G02*
X100266292Y-62730262I0J-200000D01*
G01*
X100266292Y-64030262D01*
G75*
G02*
X100066292Y-64230262I-200000J0D01*
G01*
G37*
G36*
G01*
X100289792Y-66053762D02*
X98892792Y-66053762D01*
G75*
G02*
X98692792Y-65853762I0J200000D01*
G01*
X98692792Y-64456762D01*
G75*
G02*
X98892792Y-64256762I200000J0D01*
G01*
X100289792Y-64256762D01*
G75*
G02*
X100489792Y-64456762I0J-200000D01*
G01*
X100489792Y-65853762D01*
G75*
G02*
X100289792Y-66053762I-200000J0D01*
G01*
G37*
X99591292Y-58055262D03*
G36*
G01*
X100066292Y-60680262D02*
X99116292Y-60680262D01*
G75*
G02*
X98916292Y-60480262I0J200000D01*
G01*
X98916292Y-59180262D01*
G75*
G02*
X99116292Y-58980262I200000J0D01*
G01*
X100066292Y-58980262D01*
G75*
G02*
X100266292Y-59180262I0J-200000D01*
G01*
X100266292Y-60480262D01*
G75*
G02*
X100066292Y-60680262I-200000J0D01*
G01*
G37*
G36*
G01*
X82466280Y-65430239D02*
X81516280Y-65430239D01*
G75*
G02*
X81316280Y-65230239I0J200000D01*
G01*
X81316280Y-63930239D01*
G75*
G02*
X81516280Y-63730239I200000J0D01*
G01*
X82466280Y-63730239D01*
G75*
G02*
X82666280Y-63930239I0J-200000D01*
G01*
X82666280Y-65230239D01*
G75*
G02*
X82466280Y-65430239I-200000J0D01*
G01*
G37*
G36*
G01*
X82689780Y-67253739D02*
X81292780Y-67253739D01*
G75*
G02*
X81092780Y-67053739I0J200000D01*
G01*
X81092780Y-65656739D01*
G75*
G02*
X81292780Y-65456739I200000J0D01*
G01*
X82689780Y-65456739D01*
G75*
G02*
X82889780Y-65656739I0J-200000D01*
G01*
X82889780Y-67053739D01*
G75*
G02*
X82689780Y-67253739I-200000J0D01*
G01*
G37*
X81991280Y-59255239D03*
G36*
G01*
X82466280Y-61880239D02*
X81516280Y-61880239D01*
G75*
G02*
X81316280Y-61680239I0J200000D01*
G01*
X81316280Y-60380239D01*
G75*
G02*
X81516280Y-60180239I200000J0D01*
G01*
X82466280Y-60180239D01*
G75*
G02*
X82666280Y-60380239I0J-200000D01*
G01*
X82666280Y-61680239D01*
G75*
G02*
X82466280Y-61880239I-200000J0D01*
G01*
G37*
G36*
G01*
X178882811Y-41951093D02*
X177934113Y-41901374D01*
G75*
G02*
X177744854Y-41691181I10467J199726D01*
G01*
X177812890Y-40392962D01*
G75*
G02*
X178023083Y-40203703I199726J-10467D01*
G01*
X178971781Y-40253422D01*
G75*
G02*
X179161040Y-40463615I-10467J-199726D01*
G01*
X179093004Y-41761834D01*
G75*
G02*
X178882811Y-41951093I-199726J10467D01*
G01*
G37*
X178545844Y-39304830D03*
G36*
G01*
X178824777Y-47328925D02*
X177429692Y-47255812D01*
G75*
G02*
X177240433Y-47045619I10467J199726D01*
G01*
X177313546Y-45650534D01*
G75*
G02*
X177523739Y-45461275I199726J-10467D01*
G01*
X178918824Y-45534388D01*
G75*
G02*
X179108083Y-45744581I-10467J-199726D01*
G01*
X179034970Y-47139666D01*
G75*
G02*
X178824777Y-47328925I-199726J10467D01*
G01*
G37*
G36*
G01*
X178697019Y-45496227D02*
X177748321Y-45446508D01*
G75*
G02*
X177559062Y-45236315I10467J199726D01*
G01*
X177627098Y-43938096D01*
G75*
G02*
X177837291Y-43748837I199726J-10467D01*
G01*
X178785989Y-43798556D01*
G75*
G02*
X178975248Y-44008749I-10467J-199726D01*
G01*
X178907212Y-45306968D01*
G75*
G02*
X178697019Y-45496227I-199726J10467D01*
G01*
G37*
G36*
G01*
X162104231Y-40911568D02*
X161155533Y-40861849D01*
G75*
G02*
X160966274Y-40651656I10467J199726D01*
G01*
X161034310Y-39353437D01*
G75*
G02*
X161244503Y-39164178I199726J-10467D01*
G01*
X162193201Y-39213897D01*
G75*
G02*
X162382460Y-39424090I-10467J-199726D01*
G01*
X162314424Y-40722309D01*
G75*
G02*
X162104231Y-40911568I-199726J10467D01*
G01*
G37*
X161767264Y-38265305D03*
G36*
G01*
X162046197Y-46289400D02*
X160651112Y-46216287D01*
G75*
G02*
X160461853Y-46006094I10467J199726D01*
G01*
X160534966Y-44611009D01*
G75*
G02*
X160745159Y-44421750I199726J-10467D01*
G01*
X162140244Y-44494863D01*
G75*
G02*
X162329503Y-44705056I-10467J-199726D01*
G01*
X162256390Y-46100141D01*
G75*
G02*
X162046197Y-46289400I-199726J10467D01*
G01*
G37*
G36*
G01*
X161918439Y-44456702D02*
X160969741Y-44406983D01*
G75*
G02*
X160780482Y-44196790I10467J199726D01*
G01*
X160848518Y-42898571D01*
G75*
G02*
X161058711Y-42709312I199726J-10467D01*
G01*
X162007409Y-42759031D01*
G75*
G02*
X162196668Y-42969224I-10467J-199726D01*
G01*
X162128632Y-44267443D01*
G75*
G02*
X161918439Y-44456702I-199726J10467D01*
G01*
G37*
G36*
G01*
X143065129Y-37911028D02*
X142116431Y-37861309D01*
G75*
G02*
X141927172Y-37651116I10467J199726D01*
G01*
X141995208Y-36352897D01*
G75*
G02*
X142205401Y-36163638I199726J-10467D01*
G01*
X143154099Y-36213357D01*
G75*
G02*
X143343358Y-36423550I-10467J-199726D01*
G01*
X143275322Y-37721769D01*
G75*
G02*
X143065129Y-37911028I-199726J10467D01*
G01*
G37*
X142728162Y-35264765D03*
G36*
G01*
X143007095Y-43288860D02*
X141612010Y-43215747D01*
G75*
G02*
X141422751Y-43005554I10467J199726D01*
G01*
X141495864Y-41610469D01*
G75*
G02*
X141706057Y-41421210I199726J-10467D01*
G01*
X143101142Y-41494323D01*
G75*
G02*
X143290401Y-41704516I-10467J-199726D01*
G01*
X143217288Y-43099601D01*
G75*
G02*
X143007095Y-43288860I-199726J10467D01*
G01*
G37*
G36*
G01*
X142879337Y-41456162D02*
X141930639Y-41406443D01*
G75*
G02*
X141741380Y-41196250I10467J199726D01*
G01*
X141809416Y-39898031D01*
G75*
G02*
X142019609Y-39708772I199726J-10467D01*
G01*
X142968307Y-39758491D01*
G75*
G02*
X143157566Y-39968684I-10467J-199726D01*
G01*
X143089530Y-41266903D01*
G75*
G02*
X142879337Y-41456162I-199726J10467D01*
G01*
G37*
G36*
G01*
X123910418Y-39410583D02*
X122961720Y-39360864D01*
G75*
G02*
X122772461Y-39150671I10467J199726D01*
G01*
X122840497Y-37852452D01*
G75*
G02*
X123050690Y-37663193I199726J-10467D01*
G01*
X123999388Y-37712912D01*
G75*
G02*
X124188647Y-37923105I-10467J-199726D01*
G01*
X124120611Y-39221324D01*
G75*
G02*
X123910418Y-39410583I-199726J10467D01*
G01*
G37*
X123573451Y-36764320D03*
G36*
G01*
X123852384Y-44788415D02*
X122457299Y-44715302D01*
G75*
G02*
X122268040Y-44505109I10467J199726D01*
G01*
X122341153Y-43110024D01*
G75*
G02*
X122551346Y-42920765I199726J-10467D01*
G01*
X123946431Y-42993878D01*
G75*
G02*
X124135690Y-43204071I-10467J-199726D01*
G01*
X124062577Y-44599156D01*
G75*
G02*
X123852384Y-44788415I-199726J10467D01*
G01*
G37*
G36*
G01*
X123724626Y-42955717D02*
X122775928Y-42905998D01*
G75*
G02*
X122586669Y-42695805I10467J199726D01*
G01*
X122654705Y-41397586D01*
G75*
G02*
X122864898Y-41208327I199726J-10467D01*
G01*
X123813596Y-41258046D01*
G75*
G02*
X124002855Y-41468239I-10467J-199726D01*
G01*
X123934819Y-42766458D01*
G75*
G02*
X123724626Y-42955717I-199726J10467D01*
G01*
G37*
G36*
G01*
X100046238Y-44040250D02*
X99096238Y-44040250D01*
G75*
G02*
X98896238Y-43840250I0J200000D01*
G01*
X98896238Y-42540250D01*
G75*
G02*
X99096238Y-42340250I200000J0D01*
G01*
X100046238Y-42340250D01*
G75*
G02*
X100246238Y-42540250I0J-200000D01*
G01*
X100246238Y-43840250D01*
G75*
G02*
X100046238Y-44040250I-200000J0D01*
G01*
G37*
G36*
G01*
X100269738Y-45863750D02*
X98872738Y-45863750D01*
G75*
G02*
X98672738Y-45663750I0J200000D01*
G01*
X98672738Y-44266750D01*
G75*
G02*
X98872738Y-44066750I200000J0D01*
G01*
X100269738Y-44066750D01*
G75*
G02*
X100469738Y-44266750I0J-200000D01*
G01*
X100469738Y-45663750D01*
G75*
G02*
X100269738Y-45863750I-200000J0D01*
G01*
G37*
X99571238Y-37865250D03*
G36*
G01*
X100046238Y-40490250D02*
X99096238Y-40490250D01*
G75*
G02*
X98896238Y-40290250I0J200000D01*
G01*
X98896238Y-38990250D01*
G75*
G02*
X99096238Y-38790250I200000J0D01*
G01*
X100046238Y-38790250D01*
G75*
G02*
X100246238Y-38990250I0J-200000D01*
G01*
X100246238Y-40290250D01*
G75*
G02*
X100046238Y-40490250I-200000J0D01*
G01*
G37*
G36*
G01*
X82466287Y-46330276D02*
X81516287Y-46330276D01*
G75*
G02*
X81316287Y-46130276I0J200000D01*
G01*
X81316287Y-44830276D01*
G75*
G02*
X81516287Y-44630276I200000J0D01*
G01*
X82466287Y-44630276D01*
G75*
G02*
X82666287Y-44830276I0J-200000D01*
G01*
X82666287Y-46130276D01*
G75*
G02*
X82466287Y-46330276I-200000J0D01*
G01*
G37*
G36*
G01*
X82689787Y-48153776D02*
X81292787Y-48153776D01*
G75*
G02*
X81092787Y-47953776I0J200000D01*
G01*
X81092787Y-46556776D01*
G75*
G02*
X81292787Y-46356776I200000J0D01*
G01*
X82689787Y-46356776D01*
G75*
G02*
X82889787Y-46556776I0J-200000D01*
G01*
X82889787Y-47953776D01*
G75*
G02*
X82689787Y-48153776I-200000J0D01*
G01*
G37*
X81991287Y-40155276D03*
G36*
G01*
X82466287Y-42780276D02*
X81516287Y-42780276D01*
G75*
G02*
X81316287Y-42580276I0J200000D01*
G01*
X81316287Y-41280276D01*
G75*
G02*
X81516287Y-41080276I200000J0D01*
G01*
X82466287Y-41080276D01*
G75*
G02*
X82666287Y-41280276I0J-200000D01*
G01*
X82666287Y-42580276D01*
G75*
G02*
X82466287Y-42780276I-200000J0D01*
G01*
G37*
G36*
G01*
X99573767Y-53226770D02*
X99573767Y-52083770D01*
G75*
G02*
X99773767Y-51883770I200000J0D01*
G01*
X100408767Y-51883770D01*
G75*
G02*
X100608767Y-52083770I0J-200000D01*
G01*
X100608767Y-53226770D01*
G75*
G02*
X100408767Y-53426770I-200000J0D01*
G01*
X99773767Y-53426770D01*
G75*
G02*
X99573767Y-53226770I0J200000D01*
G01*
G37*
G36*
G01*
X98573007Y-53226770D02*
X98573007Y-52083770D01*
G75*
G02*
X98773007Y-51883770I200000J0D01*
G01*
X99408007Y-51883770D01*
G75*
G02*
X99608007Y-52083770I0J-200000D01*
G01*
X99608007Y-53226770D01*
G75*
G02*
X99408007Y-53426770I-200000J0D01*
G01*
X98773007Y-53426770D01*
G75*
G02*
X98573007Y-53226770I0J200000D01*
G01*
G37*
G36*
G01*
X140101135Y-55426412D02*
X140160955Y-54284979D01*
G75*
G02*
X140371148Y-54095720I199726J-10467D01*
G01*
X141005278Y-54128953D01*
G75*
G02*
X141194537Y-54339146I-10467J-199726D01*
G01*
X141134717Y-55480579D01*
G75*
G02*
X140924524Y-55669838I-199726J10467D01*
G01*
X140290394Y-55636605D01*
G75*
G02*
X140101135Y-55426412I10467J199726D01*
G01*
G37*
G36*
G01*
X141100523Y-55478788D02*
X141160343Y-54337355D01*
G75*
G02*
X141370536Y-54148096I199726J-10467D01*
G01*
X142004666Y-54181329D01*
G75*
G02*
X142193925Y-54391522I-10467J-199726D01*
G01*
X142134105Y-55532955D01*
G75*
G02*
X141923912Y-55722214I-199726J10467D01*
G01*
X141289782Y-55688981D01*
G75*
G02*
X141100523Y-55478788I10467J199726D01*
G01*
G37*
G36*
G01*
X177935858Y-54805685D02*
X177995678Y-53664252D01*
G75*
G02*
X178205871Y-53474993I199726J-10467D01*
G01*
X178840001Y-53508226D01*
G75*
G02*
X179029260Y-53718419I-10467J-199726D01*
G01*
X178969440Y-54859852D01*
G75*
G02*
X178759247Y-55049111I-199726J10467D01*
G01*
X178125117Y-55015878D01*
G75*
G02*
X177935858Y-54805685I10467J199726D01*
G01*
G37*
G36*
G01*
X178935246Y-54858061D02*
X178995066Y-53716628D01*
G75*
G02*
X179205259Y-53527369I199726J-10467D01*
G01*
X179839389Y-53560602D01*
G75*
G02*
X180028648Y-53770795I-10467J-199726D01*
G01*
X179968828Y-54912228D01*
G75*
G02*
X179758635Y-55101487I-199726J10467D01*
G01*
X179124505Y-55068254D01*
G75*
G02*
X178935246Y-54858061I10467J199726D01*
G01*
G37*
G36*
G01*
X221416954Y-65762807D02*
X222558387Y-65822627D01*
G75*
G02*
X222747646Y-66032820I-10467J-199726D01*
G01*
X222714413Y-66666950D01*
G75*
G02*
X222504220Y-66856209I-199726J10467D01*
G01*
X221362787Y-66796389D01*
G75*
G02*
X221173528Y-66586196I10467J199726D01*
G01*
X221206761Y-65952066D01*
G75*
G02*
X221416954Y-65762807I199726J-10467D01*
G01*
G37*
G36*
G01*
X221364578Y-66762195D02*
X222506011Y-66822015D01*
G75*
G02*
X222695270Y-67032208I-10467J-199726D01*
G01*
X222662037Y-67666338D01*
G75*
G02*
X222451844Y-67855597I-199726J10467D01*
G01*
X221310411Y-67795777D01*
G75*
G02*
X221121152Y-67585584I10467J199726D01*
G01*
X221154385Y-66951454D01*
G75*
G02*
X221364578Y-66762195I199726J-10467D01*
G01*
G37*
D13*
X94541259Y-78205247D03*
X85541259Y-78205247D03*
D12*
X84961259Y-78205247D03*
X95121259Y-78205247D03*
D11*
X90041259Y-78205247D03*
D10*
X92581259Y-73125247D03*
X93851259Y-75665246D03*
X87501259Y-73125247D03*
X86231259Y-75665247D03*
G36*
G01*
X85691259Y-72085247D02*
X85691259Y-74085247D01*
G75*
G02*
X85491259Y-74285247I-200000J0D01*
G01*
X83191259Y-74285247D01*
G75*
G02*
X82991259Y-74085247I0J200000D01*
G01*
X82991259Y-72085247D01*
G75*
G02*
X83191259Y-71885247I200000J0D01*
G01*
X85491259Y-71885247D01*
G75*
G02*
X85691259Y-72085247I0J-200000D01*
G01*
G37*
G36*
G01*
X98391259Y-74625247D02*
X98391259Y-76625247D01*
G75*
G02*
X98191259Y-76825247I-200000J0D01*
G01*
X95891259Y-76825247D01*
G75*
G02*
X95691259Y-76625247I0J200000D01*
G01*
X95691259Y-74625247D01*
G75*
G02*
X95891259Y-74425247I200000J0D01*
G01*
X98191259Y-74425247D01*
G75*
G02*
X98391259Y-74625247I0J-200000D01*
G01*
G37*
D13*
X113591272Y-59155247D03*
X104591272Y-59155247D03*
D12*
X104011272Y-59155247D03*
X114171272Y-59155247D03*
D11*
X109091272Y-59155247D03*
D10*
X111631272Y-54075247D03*
X112901272Y-56615246D03*
X106551272Y-54075247D03*
X105281272Y-56615247D03*
G36*
G01*
X104741272Y-53035247D02*
X104741272Y-55035247D01*
G75*
G02*
X104541272Y-55235247I-200000J0D01*
G01*
X102241272Y-55235247D01*
G75*
G02*
X102041272Y-55035247I0J200000D01*
G01*
X102041272Y-53035247D01*
G75*
G02*
X102241272Y-52835247I200000J0D01*
G01*
X104541272Y-52835247D01*
G75*
G02*
X104741272Y-53035247I0J-200000D01*
G01*
G37*
G36*
G01*
X117441272Y-55575247D02*
X117441272Y-57575247D01*
G75*
G02*
X117241272Y-57775247I-200000J0D01*
G01*
X114941272Y-57775247D01*
G75*
G02*
X114741272Y-57575247I0J200000D01*
G01*
X114741272Y-55575247D01*
G75*
G02*
X114941272Y-55375247I200000J0D01*
G01*
X117241272Y-55375247D01*
G75*
G02*
X117441272Y-55575247I0J-200000D01*
G01*
G37*
G36*
G01*
X138149572Y-71995491D02*
X138044900Y-73992750D01*
G75*
G02*
X137834707Y-74182009I-199726J10467D01*
G01*
X135537859Y-74061636D01*
G75*
G02*
X135348600Y-73851443I10467J199726D01*
G01*
X135453272Y-71854184D01*
G75*
G02*
X135663465Y-71664925I199726J-10467D01*
G01*
X137960313Y-71785298D01*
G75*
G02*
X138149572Y-71995491I-10467J-199726D01*
G01*
G37*
G36*
G01*
X125599910Y-68794306D02*
X125495238Y-70791565D01*
G75*
G02*
X125285045Y-70980824I-199726J10467D01*
G01*
X122988197Y-70860451D01*
G75*
G02*
X122798938Y-70650258I10467J199726D01*
G01*
X122903610Y-68652999D01*
G75*
G02*
X123113803Y-68463740I199726J-10467D01*
G01*
X125410651Y-68584113D01*
G75*
G02*
X125599910Y-68794306I-10467J-199726D01*
G01*
G37*
X125951807Y-72397661D03*
X127353000Y-69927609D03*
X133561364Y-72796460D03*
X132426038Y-70193475D03*
D11*
X129623652Y-75133580D03*
D12*
X134696690Y-75399447D03*
X124550614Y-74867713D03*
D13*
X125129819Y-74898068D03*
X134117485Y-75369092D03*
G36*
G01*
X195116591Y-76983748D02*
X195011919Y-78981007D01*
G75*
G02*
X194801726Y-79170266I-199726J10467D01*
G01*
X192504878Y-79049893D01*
G75*
G02*
X192315619Y-78839700I10467J199726D01*
G01*
X192420291Y-76842441D01*
G75*
G02*
X192630484Y-76653182I199726J-10467D01*
G01*
X194927332Y-76773555D01*
G75*
G02*
X195116591Y-76983748I-10467J-199726D01*
G01*
G37*
G36*
G01*
X182566929Y-73782563D02*
X182462257Y-75779822D01*
G75*
G02*
X182252064Y-75969081I-199726J10467D01*
G01*
X179955216Y-75848708D01*
G75*
G02*
X179765957Y-75638515I10467J199726D01*
G01*
X179870629Y-73641256D01*
G75*
G02*
X180080822Y-73451997I199726J-10467D01*
G01*
X182377670Y-73572370D01*
G75*
G02*
X182566929Y-73782563I-10467J-199726D01*
G01*
G37*
D10*
X182918826Y-77385918D03*
X184320019Y-74915866D03*
X190528383Y-77784717D03*
X189393057Y-75181732D03*
D11*
X186590671Y-80121837D03*
D12*
X191663709Y-80387704D03*
X181517633Y-79855970D03*
D13*
X182096838Y-79886325D03*
X191084504Y-80357349D03*
X94541246Y-97255235D03*
X85541246Y-97255235D03*
D12*
X84961246Y-97255235D03*
X95121246Y-97255235D03*
D11*
X90041246Y-97255235D03*
D10*
X92581246Y-92175235D03*
X93851246Y-94715234D03*
X87501246Y-92175235D03*
X86231246Y-94715235D03*
G36*
G01*
X85691246Y-91135235D02*
X85691246Y-93135235D01*
G75*
G02*
X85491246Y-93335235I-200000J0D01*
G01*
X83191246Y-93335235D01*
G75*
G02*
X82991246Y-93135235I0J200000D01*
G01*
X82991246Y-91135235D01*
G75*
G02*
X83191246Y-90935235I200000J0D01*
G01*
X85491246Y-90935235D01*
G75*
G02*
X85691246Y-91135235I0J-200000D01*
G01*
G37*
G36*
G01*
X98391246Y-93675235D02*
X98391246Y-95675235D01*
G75*
G02*
X98191246Y-95875235I-200000J0D01*
G01*
X95891246Y-95875235D01*
G75*
G02*
X95691246Y-95675235I0J200000D01*
G01*
X95691246Y-93675235D01*
G75*
G02*
X95891246Y-93475235I200000J0D01*
G01*
X98191246Y-93475235D01*
G75*
G02*
X98391246Y-93675235I0J-200000D01*
G01*
G37*
G36*
G01*
X157304290Y-70495924D02*
X157199618Y-72493183D01*
G75*
G02*
X156989425Y-72682442I-199726J10467D01*
G01*
X154692577Y-72562069D01*
G75*
G02*
X154503318Y-72351876I10467J199726D01*
G01*
X154607990Y-70354617D01*
G75*
G02*
X154818183Y-70165358I199726J-10467D01*
G01*
X157115031Y-70285731D01*
G75*
G02*
X157304290Y-70495924I-10467J-199726D01*
G01*
G37*
G36*
G01*
X144754628Y-67294739D02*
X144649956Y-69291998D01*
G75*
G02*
X144439763Y-69481257I-199726J10467D01*
G01*
X142142915Y-69360884D01*
G75*
G02*
X141953656Y-69150691I10467J199726D01*
G01*
X142058328Y-67153432D01*
G75*
G02*
X142268521Y-66964173I199726J-10467D01*
G01*
X144565369Y-67084546D01*
G75*
G02*
X144754628Y-67294739I-10467J-199726D01*
G01*
G37*
X145106525Y-70898094D03*
X146507718Y-68428042D03*
X152716082Y-71296893D03*
X151580756Y-68693908D03*
D11*
X148778370Y-73634013D03*
D12*
X153851408Y-73899880D03*
X143705332Y-73368146D03*
D13*
X144284537Y-73398501D03*
X153272203Y-73869525D03*
D15*
X222564392Y-82455756D03*
X222165592Y-90065314D03*
G36*
G01*
X223139064Y-85725314D02*
X221651106Y-85647333D01*
G75*
G02*
X221338829Y-85300514I17271J329548D01*
G01*
X221390641Y-84311871D01*
G75*
G02*
X221737460Y-83999594I329548J-17271D01*
G01*
X223225418Y-84077575D01*
G75*
G02*
X223537695Y-84424394I-17271J-329548D01*
G01*
X223485883Y-85413037D01*
G75*
G02*
X223139064Y-85725314I-329548J17271D01*
G01*
G37*
G36*
G01*
X222992524Y-88521476D02*
X221504566Y-88443495D01*
G75*
G02*
X221192289Y-88096676I17271J329548D01*
G01*
X221244101Y-87108033D01*
G75*
G02*
X221590920Y-86795756I329548J-17271D01*
G01*
X223078878Y-86873737D01*
G75*
G02*
X223391155Y-87220556I-17271J-329548D01*
G01*
X223339343Y-88209199D01*
G75*
G02*
X222992524Y-88521476I-329548J17271D01*
G01*
G37*
D20*
X222291722Y-87658616D03*
X222438262Y-84862454D03*
D15*
X224961808Y-90211824D03*
X225360608Y-82602266D03*
G36*
G01*
X224387136Y-86942266D02*
X225875094Y-87020247D01*
G75*
G02*
X226187371Y-87367066I-17271J-329548D01*
G01*
X226135559Y-88355709D01*
G75*
G02*
X225788740Y-88667986I-329548J17271D01*
G01*
X224300782Y-88590005D01*
G75*
G02*
X223988505Y-88243186I17271J329548D01*
G01*
X224040317Y-87254543D01*
G75*
G02*
X224387136Y-86942266I329548J-17271D01*
G01*
G37*
G36*
G01*
X224533676Y-84146104D02*
X226021634Y-84224085D01*
G75*
G02*
X226333911Y-84570904I-17271J-329548D01*
G01*
X226282099Y-85559547D01*
G75*
G02*
X225935280Y-85871824I-329548J17271D01*
G01*
X224447322Y-85793843D01*
G75*
G02*
X224135045Y-85447024I17271J329548D01*
G01*
X224186857Y-84458381D01*
G75*
G02*
X224533676Y-84146104I329548J-17271D01*
G01*
G37*
D20*
X225234478Y-85008964D03*
X225087938Y-87805126D03*
D19*
X132985375Y-123060246D03*
X137923817Y-122278073D03*
G36*
G01*
X127559230Y-115009969D02*
X129534606Y-114697100D01*
G75*
G02*
X129763431Y-114863351I31287J-197538D01*
G01*
X130264021Y-118023954D01*
G75*
G02*
X130097770Y-118252779I-197538J-31287D01*
G01*
X128122394Y-118565648D01*
G75*
G02*
X127893569Y-118399397I-31287J197538D01*
G01*
X127392979Y-115238794D01*
G75*
G02*
X127559230Y-115009969I197538J31287D01*
G01*
G37*
G36*
G01*
X138621340Y-113257903D02*
X140596716Y-112945034D01*
G75*
G02*
X140825541Y-113111285I31287J-197538D01*
G01*
X141326131Y-116271888D01*
G75*
G02*
X141159880Y-116500713I-197538J-31287D01*
G01*
X139184504Y-116813582D01*
G75*
G02*
X138955679Y-116647331I-31287J197538D01*
G01*
X138455089Y-113486728D01*
G75*
G02*
X138621340Y-113257903I197538J31287D01*
G01*
G37*
X130717076Y-108738765D03*
X133186297Y-108347678D03*
X135655517Y-107956592D03*
X210734205Y-105278432D03*
X206404077Y-102778432D03*
G36*
G01*
X209884908Y-114949456D02*
X208152858Y-113949456D01*
G75*
G02*
X208079653Y-113676251I100000J173205D01*
G01*
X209679653Y-110904969D01*
G75*
G02*
X209952858Y-110831764I173205J-100000D01*
G01*
X211684908Y-111831764D01*
G75*
G02*
X211758113Y-112104969I-100000J-173205D01*
G01*
X210158113Y-114876251D01*
G75*
G02*
X209884908Y-114949456I-173205J100000D01*
G01*
G37*
G36*
G01*
X200185424Y-109349456D02*
X198453374Y-108349456D01*
G75*
G02*
X198380169Y-108076251I100000J173205D01*
G01*
X199980169Y-105304969D01*
G75*
G02*
X200253374Y-105231764I173205J-100000D01*
G01*
X201985424Y-106231764D01*
G75*
G02*
X202058629Y-106504969I-100000J-173205D01*
G01*
X200458629Y-109276251D01*
G75*
G02*
X200185424Y-109349456I-173205J100000D01*
G01*
G37*
X203484205Y-117835801D03*
X201319141Y-116585801D03*
X199154077Y-115335801D03*
D16*
X199520958Y-91647011D03*
D14*
X139676639Y-46021204D03*
X99541279Y-68705246D03*
X99567475Y-48627455D03*
X99541249Y-87755252D03*
X99414253Y-116954466D03*
X167102884Y-108127711D03*
X209095141Y-126122150D03*
X179656959Y-50119228D03*
D16*
X222483317Y-104884710D03*
D17*
X202176520Y-62694396D03*
X216465101Y-81247629D03*
X201644787Y-72840472D03*
X216996835Y-71101553D03*
X217262701Y-66028515D03*
X201113054Y-82986548D03*
X217395635Y-63491996D03*
X217661501Y-58418958D03*
X201378921Y-77913510D03*
X216199235Y-86320667D03*
X201777720Y-70303953D03*
X202309454Y-60157877D03*
X202043587Y-65230915D03*
X201910654Y-67767434D03*
X201245987Y-80450029D03*
X201511854Y-75376991D03*
X216598035Y-78711110D03*
X216730968Y-76174591D03*
X200980121Y-85523067D03*
X216332168Y-83784148D03*
X217528568Y-60955477D03*
X202442387Y-57621358D03*
X216863901Y-73638072D03*
X217129768Y-68565034D03*
X201207933Y-56359277D03*
X201074999Y-58895796D03*
X200942066Y-61432315D03*
X200809133Y-63968834D03*
X200676199Y-66505353D03*
X200543266Y-69041872D03*
X200410333Y-71578391D03*
X200277399Y-74114910D03*
X200144466Y-76651429D03*
X200011533Y-79187948D03*
X199878599Y-81724467D03*
X199745666Y-84260986D03*
X214964780Y-85058586D03*
X215097713Y-82522067D03*
X215230647Y-79985548D03*
X215363580Y-77449029D03*
X215496513Y-74912510D03*
X215629447Y-72375991D03*
X215762380Y-69839472D03*
X215895313Y-67302953D03*
X216028247Y-64766434D03*
X216161180Y-62229915D03*
X216294113Y-59693396D03*
X216427047Y-57156877D03*
D13*
X113591251Y-97255251D03*
X104591251Y-97255251D03*
D12*
X104011251Y-97255251D03*
X114171251Y-97255251D03*
D11*
X109091251Y-97255251D03*
D10*
X111631251Y-92175251D03*
X112901251Y-94715250D03*
X106551251Y-92175251D03*
X105281251Y-94715251D03*
G36*
G01*
X104741251Y-91135251D02*
X104741251Y-93135251D01*
G75*
G02*
X104541251Y-93335251I-200000J0D01*
G01*
X102241251Y-93335251D01*
G75*
G02*
X102041251Y-93135251I0J200000D01*
G01*
X102041251Y-91135251D01*
G75*
G02*
X102241251Y-90935251I200000J0D01*
G01*
X104541251Y-90935251D01*
G75*
G02*
X104741251Y-91135251I0J-200000D01*
G01*
G37*
G36*
G01*
X117441251Y-93675251D02*
X117441251Y-95675251D01*
G75*
G02*
X117241251Y-95875251I-200000J0D01*
G01*
X114941251Y-95875251D01*
G75*
G02*
X114741251Y-95675251I0J200000D01*
G01*
X114741251Y-93675251D01*
G75*
G02*
X114941251Y-93475251I200000J0D01*
G01*
X117241251Y-93475251D01*
G75*
G02*
X117441251Y-93675251I0J-200000D01*
G01*
G37*
G36*
G01*
X214090453Y-111165239D02*
X213090453Y-112897289D01*
G75*
G02*
X212817248Y-112970494I-173205J100000D01*
G01*
X210825390Y-111820494D01*
G75*
G02*
X210752185Y-111547289I100000J173205D01*
G01*
X211752185Y-109815239D01*
G75*
G02*
X212025390Y-109742034I173205J-100000D01*
G01*
X214017248Y-110892034D01*
G75*
G02*
X214090453Y-111165239I-100000J-173205D01*
G01*
G37*
G36*
G01*
X204361930Y-102615535D02*
X203361930Y-104347585D01*
G75*
G02*
X203088725Y-104420790I-173205J100000D01*
G01*
X201096867Y-103270790D01*
G75*
G02*
X201023662Y-102997585I100000J173205D01*
G01*
X202023662Y-101265535D01*
G75*
G02*
X202296867Y-101192330I173205J-100000D01*
G01*
X204288725Y-102342330D01*
G75*
G02*
X204361930Y-102615535I-100000J-173205D01*
G01*
G37*
X203039584Y-105985905D03*
X205409436Y-104421201D03*
X209638698Y-109795905D03*
X209808846Y-106961201D03*
D11*
X205069141Y-110090610D03*
D12*
X209468550Y-112630610D03*
X200669732Y-107550610D03*
D13*
X201172027Y-107840610D03*
X208966255Y-112340610D03*
G36*
G01*
X196113578Y-57959827D02*
X196008906Y-59957086D01*
G75*
G02*
X195798713Y-60146345I-199726J10467D01*
G01*
X193501865Y-60025972D01*
G75*
G02*
X193312606Y-59815779I10467J199726D01*
G01*
X193417278Y-57818520D01*
G75*
G02*
X193627471Y-57629261I199726J-10467D01*
G01*
X195924319Y-57749634D01*
G75*
G02*
X196113578Y-57959827I-10467J-199726D01*
G01*
G37*
G36*
G01*
X183563916Y-54758642D02*
X183459244Y-56755901D01*
G75*
G02*
X183249051Y-56945160I-199726J10467D01*
G01*
X180952203Y-56824787D01*
G75*
G02*
X180762944Y-56614594I10467J199726D01*
G01*
X180867616Y-54617335D01*
G75*
G02*
X181077809Y-54428076I199726J-10467D01*
G01*
X183374657Y-54548449D01*
G75*
G02*
X183563916Y-54758642I-10467J-199726D01*
G01*
G37*
D10*
X183915813Y-58361997D03*
X185317006Y-55891945D03*
X191525370Y-58760796D03*
X190390044Y-56157811D03*
D11*
X187587658Y-61097916D03*
D12*
X192660696Y-61363783D03*
X182514620Y-60832049D03*
D13*
X183093825Y-60862404D03*
X192081491Y-61333428D03*
G36*
G01*
X177194365Y-54965586D02*
X177089693Y-56962845D01*
G75*
G02*
X176879500Y-57152104I-199726J10467D01*
G01*
X174582652Y-57031731D01*
G75*
G02*
X174393393Y-56821538I10467J199726D01*
G01*
X174498065Y-54824279D01*
G75*
G02*
X174708258Y-54635020I199726J-10467D01*
G01*
X177005106Y-54755393D01*
G75*
G02*
X177194365Y-54965586I-10467J-199726D01*
G01*
G37*
G36*
G01*
X164644703Y-51764401D02*
X164540031Y-53761660D01*
G75*
G02*
X164329838Y-53950919I-199726J10467D01*
G01*
X162032990Y-53830546D01*
G75*
G02*
X161843731Y-53620353I10467J199726D01*
G01*
X161948403Y-51623094D01*
G75*
G02*
X162158596Y-51433835I199726J-10467D01*
G01*
X164455444Y-51554208D01*
G75*
G02*
X164644703Y-51764401I-10467J-199726D01*
G01*
G37*
D10*
X164996600Y-55367756D03*
X166397793Y-52897704D03*
X172606157Y-55766555D03*
X171470831Y-53163570D03*
D11*
X168668445Y-58103675D03*
D12*
X173741483Y-58369542D03*
X163595407Y-57837808D03*
D13*
X164174612Y-57868163D03*
X173162278Y-58339187D03*
G36*
G01*
X178191373Y-35941672D02*
X178086701Y-37938931D01*
G75*
G02*
X177876508Y-38128190I-199726J10467D01*
G01*
X175579660Y-38007817D01*
G75*
G02*
X175390401Y-37797624I10467J199726D01*
G01*
X175495073Y-35800365D01*
G75*
G02*
X175705266Y-35611106I199726J-10467D01*
G01*
X178002114Y-35731479D01*
G75*
G02*
X178191373Y-35941672I-10467J-199726D01*
G01*
G37*
G36*
G01*
X165641711Y-32740487D02*
X165537039Y-34737746D01*
G75*
G02*
X165326846Y-34927005I-199726J10467D01*
G01*
X163029998Y-34806632D01*
G75*
G02*
X162840739Y-34596439I10467J199726D01*
G01*
X162945411Y-32599180D01*
G75*
G02*
X163155604Y-32409921I199726J-10467D01*
G01*
X165452452Y-32530294D01*
G75*
G02*
X165641711Y-32740487I-10467J-199726D01*
G01*
G37*
D10*
X165993608Y-36343842D03*
X167394801Y-33873790D03*
X173603165Y-36742641D03*
X172467839Y-34139656D03*
D11*
X169665453Y-39079761D03*
D12*
X174738491Y-39345628D03*
X164592415Y-38813894D03*
D13*
X165171620Y-38844249D03*
X174159286Y-39315273D03*
G36*
G01*
X158301294Y-51472029D02*
X158196622Y-53469288D01*
G75*
G02*
X157986429Y-53658547I-199726J10467D01*
G01*
X155689581Y-53538174D01*
G75*
G02*
X155500322Y-53327981I10467J199726D01*
G01*
X155604994Y-51330722D01*
G75*
G02*
X155815187Y-51141463I199726J-10467D01*
G01*
X158112035Y-51261836D01*
G75*
G02*
X158301294Y-51472029I-10467J-199726D01*
G01*
G37*
G36*
G01*
X145751632Y-48270844D02*
X145646960Y-50268103D01*
G75*
G02*
X145436767Y-50457362I-199726J10467D01*
G01*
X143139919Y-50336989D01*
G75*
G02*
X142950660Y-50126796I10467J199726D01*
G01*
X143055332Y-48129537D01*
G75*
G02*
X143265525Y-47940278I199726J-10467D01*
G01*
X145562373Y-48060651D01*
G75*
G02*
X145751632Y-48270844I-10467J-199726D01*
G01*
G37*
D10*
X146103529Y-51874199D03*
X147504722Y-49404147D03*
X153713086Y-52272998D03*
X152577760Y-49670013D03*
D11*
X149775374Y-54610118D03*
D12*
X154848412Y-54875985D03*
X144702336Y-54344251D03*
D13*
X145281541Y-54374606D03*
X154269207Y-54845630D03*
X155266195Y-35821735D03*
X146278529Y-35350711D03*
D12*
X145699324Y-35320356D03*
X155845400Y-35852090D03*
D11*
X150772362Y-35586223D03*
D10*
X153574748Y-30646118D03*
X154710074Y-33249103D03*
X148501710Y-30380252D03*
X147100517Y-32850304D03*
G36*
G01*
X146748620Y-29246949D02*
X146643948Y-31244208D01*
G75*
G02*
X146433755Y-31433467I-199726J10467D01*
G01*
X144136907Y-31313094D01*
G75*
G02*
X143947648Y-31102901I10467J199726D01*
G01*
X144052320Y-29105642D01*
G75*
G02*
X144262513Y-28916383I199726J-10467D01*
G01*
X146559361Y-29036756D01*
G75*
G02*
X146748620Y-29246949I-10467J-199726D01*
G01*
G37*
G36*
G01*
X159298282Y-32448134D02*
X159193610Y-34445393D01*
G75*
G02*
X158983417Y-34634652I-199726J10467D01*
G01*
X156686569Y-34514279D01*
G75*
G02*
X156497310Y-34304086I10467J199726D01*
G01*
X156601982Y-32306827D01*
G75*
G02*
X156812175Y-32117568I199726J-10467D01*
G01*
X159109023Y-32237941D01*
G75*
G02*
X159298282Y-32448134I-10467J-199726D01*
G01*
G37*
G36*
G01*
X139146562Y-52971593D02*
X139041890Y-54968852D01*
G75*
G02*
X138831697Y-55158111I-199726J10467D01*
G01*
X136534849Y-55037738D01*
G75*
G02*
X136345590Y-54827545I10467J199726D01*
G01*
X136450262Y-52830286D01*
G75*
G02*
X136660455Y-52641027I199726J-10467D01*
G01*
X138957303Y-52761400D01*
G75*
G02*
X139146562Y-52971593I-10467J-199726D01*
G01*
G37*
G36*
G01*
X126596900Y-49770408D02*
X126492228Y-51767667D01*
G75*
G02*
X126282035Y-51956926I-199726J10467D01*
G01*
X123985187Y-51836553D01*
G75*
G02*
X123795928Y-51626360I10467J199726D01*
G01*
X123900600Y-49629101D01*
G75*
G02*
X124110793Y-49439842I199726J-10467D01*
G01*
X126407641Y-49560215D01*
G75*
G02*
X126596900Y-49770408I-10467J-199726D01*
G01*
G37*
X126948797Y-53373763D03*
X128349990Y-50903711D03*
X134558354Y-53772562D03*
X133423028Y-51169577D03*
D11*
X130620642Y-56109682D03*
D12*
X135693680Y-56375549D03*
X125547604Y-55843815D03*
D13*
X126126809Y-55874170D03*
X135114475Y-56345194D03*
G36*
G01*
X140143564Y-33947703D02*
X140038892Y-35944962D01*
G75*
G02*
X139828699Y-36134221I-199726J10467D01*
G01*
X137531851Y-36013848D01*
G75*
G02*
X137342592Y-35803655I10467J199726D01*
G01*
X137447264Y-33806396D01*
G75*
G02*
X137657457Y-33617137I199726J-10467D01*
G01*
X139954305Y-33737510D01*
G75*
G02*
X140143564Y-33947703I-10467J-199726D01*
G01*
G37*
G36*
G01*
X127593902Y-30746518D02*
X127489230Y-32743777D01*
G75*
G02*
X127279037Y-32933036I-199726J10467D01*
G01*
X124982189Y-32812663D01*
G75*
G02*
X124792930Y-32602470I10467J199726D01*
G01*
X124897602Y-30605211D01*
G75*
G02*
X125107795Y-30415952I199726J-10467D01*
G01*
X127404643Y-30536325D01*
G75*
G02*
X127593902Y-30746518I-10467J-199726D01*
G01*
G37*
D10*
X127945799Y-34349873D03*
X129346992Y-31879821D03*
X135555356Y-34748672D03*
X134420030Y-32145687D03*
D11*
X131617644Y-37085792D03*
D12*
X136690682Y-37351659D03*
X126544606Y-36819925D03*
D13*
X127123811Y-36850280D03*
X136111477Y-37321304D03*
G36*
G01*
X102132077Y-122053852D02*
X103221355Y-123731193D01*
G75*
G02*
X103162549Y-124007855I-167734J-108928D01*
G01*
X101233607Y-125260524D01*
G75*
G02*
X100956945Y-125201718I-108928J167734D01*
G01*
X99867667Y-123524377D01*
G75*
G02*
X99926473Y-123247715I167734J108928D01*
G01*
X101855415Y-121995046D01*
G75*
G02*
X102132077Y-122053852I108928J-167734D01*
G01*
G37*
G36*
G01*
X90097578Y-126840544D02*
X91186856Y-128517885D01*
G75*
G02*
X91128050Y-128794547I-167734J-108928D01*
G01*
X89199108Y-130047216D01*
G75*
G02*
X88922446Y-129988410I-108928J167734D01*
G01*
X87833168Y-128311069D01*
G75*
G02*
X87891974Y-128034407I167734J108928D01*
G01*
X89820916Y-126781738D01*
G75*
G02*
X90097578Y-126840544I108928J-167734D01*
G01*
G37*
D10*
X92500268Y-129548879D03*
X92181996Y-126726965D03*
X98890937Y-125398729D03*
X96442443Y-123960198D03*
D11*
X97078986Y-129604028D03*
D12*
X101339432Y-126837262D03*
X92818540Y-132370794D03*
D13*
X93304968Y-132054904D03*
X100853004Y-127153152D03*
X94541274Y-40105231D03*
X85541274Y-40105231D03*
D12*
X84961274Y-40105231D03*
X95121274Y-40105231D03*
D11*
X90041274Y-40105231D03*
D10*
X92581274Y-35025231D03*
X93851274Y-37565230D03*
X87501274Y-35025231D03*
X86231274Y-37565231D03*
G36*
G01*
X85691274Y-33985231D02*
X85691274Y-35985231D01*
G75*
G02*
X85491274Y-36185231I-200000J0D01*
G01*
X83191274Y-36185231D01*
G75*
G02*
X82991274Y-35985231I0J200000D01*
G01*
X82991274Y-33985231D01*
G75*
G02*
X83191274Y-33785231I200000J0D01*
G01*
X85491274Y-33785231D01*
G75*
G02*
X85691274Y-33985231I0J-200000D01*
G01*
G37*
G36*
G01*
X98391274Y-36525231D02*
X98391274Y-38525231D01*
G75*
G02*
X98191274Y-38725231I-200000J0D01*
G01*
X95891274Y-38725231D01*
G75*
G02*
X95691274Y-38525231I0J200000D01*
G01*
X95691274Y-36525231D01*
G75*
G02*
X95891274Y-36325231I200000J0D01*
G01*
X98191274Y-36325231D01*
G75*
G02*
X98391274Y-36525231I0J-200000D01*
G01*
G37*
D19*
X225655419Y-70899542D03*
X225996650Y-64388477D03*
D21*
X216462390Y-96710616D03*
X223452797Y-97076967D03*
G36*
G01*
X213768070Y-93665433D02*
X215865192Y-93775338D01*
G75*
G02*
X216054451Y-93985531I-10467J-199726D01*
G01*
X215991647Y-95183886D01*
G75*
G02*
X215781454Y-95373145I-199726J10467D01*
G01*
X213684332Y-95263240D01*
G75*
G02*
X213495073Y-95053047I10467J199726D01*
G01*
X213557877Y-93854692D01*
G75*
G02*
X213768070Y-93665433I199726J-10467D01*
G01*
G37*
G36*
G01*
X212050315Y-97781173D02*
X214147437Y-97891078D01*
G75*
G02*
X214336696Y-98101271I-10467J-199726D01*
G01*
X214273892Y-99299626D01*
G75*
G02*
X214063699Y-99488885I-199726J10467D01*
G01*
X211966577Y-99378980D01*
G75*
G02*
X211777318Y-99168787I10467J199726D01*
G01*
X211840122Y-97970432D01*
G75*
G02*
X212050315Y-97781173I199726J-10467D01*
G01*
G37*
G36*
G01*
X220758477Y-94031785D02*
X222855599Y-94141690D01*
G75*
G02*
X223044858Y-94351883I-10467J-199726D01*
G01*
X222982054Y-95550238D01*
G75*
G02*
X222771861Y-95739497I-199726J10467D01*
G01*
X220674739Y-95629592D01*
G75*
G02*
X220485480Y-95419399I10467J199726D01*
G01*
X220548284Y-94221044D01*
G75*
G02*
X220758477Y-94031785I199726J-10467D01*
G01*
G37*
G36*
G01*
X217762588Y-93874777D02*
X219859710Y-93984682D01*
G75*
G02*
X220048969Y-94194875I-10467J-199726D01*
G01*
X219986165Y-95393230D01*
G75*
G02*
X219775972Y-95582489I-199726J10467D01*
G01*
X217678850Y-95472584D01*
G75*
G02*
X217489591Y-95262391I10467J199726D01*
G01*
X217552395Y-94064036D01*
G75*
G02*
X217762588Y-93874777I199726J-10467D01*
G01*
G37*
X223361209Y-98824569D03*
X216370802Y-98458217D03*
G36*
G01*
X220447078Y-99973630D02*
X222544200Y-100083535D01*
G75*
G02*
X222733459Y-100293728I-10467J-199726D01*
G01*
X222670655Y-101492083D01*
G75*
G02*
X222460462Y-101681342I-199726J10467D01*
G01*
X220363340Y-101571437D01*
G75*
G02*
X220174081Y-101361244I10467J199726D01*
G01*
X220236885Y-100162889D01*
G75*
G02*
X220447078Y-99973630I199726J-10467D01*
G01*
G37*
G36*
G01*
X217451189Y-99816622D02*
X219548311Y-99926527D01*
G75*
G02*
X219737570Y-100136720I-10467J-199726D01*
G01*
X219674766Y-101335075D01*
G75*
G02*
X219464573Y-101524334I-199726J10467D01*
G01*
X217367451Y-101414429D01*
G75*
G02*
X217178192Y-101204236I10467J199726D01*
G01*
X217240996Y-100005881D01*
G75*
G02*
X217451189Y-99816622I199726J-10467D01*
G01*
G37*
G36*
G01*
X213456671Y-99607279D02*
X215553793Y-99717184D01*
G75*
G02*
X215743052Y-99927377I-10467J-199726D01*
G01*
X215680248Y-101125732D01*
G75*
G02*
X215470055Y-101314991I-199726J10467D01*
G01*
X213372933Y-101205086D01*
G75*
G02*
X213183674Y-100994893I10467J199726D01*
G01*
X213246478Y-99796538D01*
G75*
G02*
X213456671Y-99607279I199726J-10467D01*
G01*
G37*
G36*
G01*
X212178538Y-95334531D02*
X214275660Y-95444436D01*
G75*
G02*
X214464919Y-95654629I-10467J-199726D01*
G01*
X214402115Y-96852984D01*
G75*
G02*
X214191922Y-97042243I-199726J10467D01*
G01*
X212094800Y-96932338D01*
G75*
G02*
X211905541Y-96722145I10467J199726D01*
G01*
X211968345Y-95523790D01*
G75*
G02*
X212178538Y-95334531I199726J-10467D01*
G01*
G37*
M02*
