G04 #@! TF.GenerationSoftware,KiCad,Pcbnew,(5.1.12-1-10_14)*
G04 #@! TF.CreationDate,2021-12-17T12:39:00+00:00*
G04 #@! TF.ProjectId,avalanche-hotswap,6176616c-616e-4636-9865-2d686f747377,rev?*
G04 #@! TF.SameCoordinates,Original*
G04 #@! TF.FileFunction,Copper,L2,Bot*
G04 #@! TF.FilePolarity,Positive*
%FSLAX46Y46*%
G04 Gerber Fmt 4.6, Leading zero omitted, Abs format (unit mm)*
G04 Created by KiCad (PCBNEW (5.1.12-1-10_14)) date 2021-12-17 12:39:00*
%MOMM*%
%LPD*%
G01*
G04 APERTURE LIST*
G04 #@! TA.AperFunction,SMDPad,CuDef*
%ADD10C,0.100000*%
G04 #@! TD*
G04 #@! TA.AperFunction,ComponentPad*
%ADD11C,1.397000*%
G04 #@! TD*
G04 #@! TA.AperFunction,SMDPad,CuDef*
%ADD12R,1.700000X1.000000*%
G04 #@! TD*
G04 #@! TA.AperFunction,SMDPad,CuDef*
%ADD13R,2.300000X2.000000*%
G04 #@! TD*
G04 #@! TA.AperFunction,ComponentPad*
%ADD14C,4.000000*%
G04 #@! TD*
G04 #@! TA.AperFunction,ComponentPad*
%ADD15C,1.524000*%
G04 #@! TD*
G04 #@! TA.AperFunction,ComponentPad*
%ADD16C,2.000000*%
G04 #@! TD*
G04 #@! TA.AperFunction,ComponentPad*
%ADD17C,0.100000*%
G04 #@! TD*
G04 #@! TA.AperFunction,SMDPad,CuDef*
%ADD18R,0.950000X1.300000*%
G04 #@! TD*
G04 #@! TA.AperFunction,ComponentPad*
%ADD19R,1.397000X1.397000*%
G04 #@! TD*
G04 #@! TA.AperFunction,SMDPad,CuDef*
%ADD20R,0.635000X1.143000*%
G04 #@! TD*
G04 #@! TA.AperFunction,ComponentPad*
%ADD21C,0.800000*%
G04 #@! TD*
G04 #@! TA.AperFunction,ViaPad*
%ADD22C,0.500000*%
G04 #@! TD*
G04 #@! TA.AperFunction,ViaPad*
%ADD23C,0.600000*%
G04 #@! TD*
G04 #@! TA.AperFunction,Conductor*
%ADD24C,0.500000*%
G04 #@! TD*
G04 #@! TA.AperFunction,Conductor*
%ADD25C,0.250000*%
G04 #@! TD*
G04 APERTURE END LIST*
G04 #@! TA.AperFunction,SMDPad,CuDef*
D10*
G36*
X182930027Y-38192797D02*
G01*
X182825355Y-40190056D01*
X180528507Y-40069683D01*
X180633179Y-38072424D01*
X182930027Y-38192797D01*
G37*
G04 #@! TD.AperFunction*
G04 #@! TA.AperFunction,SMDPad,CuDef*
G36*
X195745555Y-36320945D02*
G01*
X195640883Y-38318204D01*
X193344035Y-38197831D01*
X193448707Y-36200572D01*
X195745555Y-36320945D01*
G37*
G04 #@! TD.AperFunction*
G04 #@! TA.AperFunction,SMDPad,CuDef*
G36*
X122972040Y-90276207D02*
G01*
X122867368Y-92273466D01*
X120570520Y-92153093D01*
X120675192Y-90155834D01*
X122972040Y-90276207D01*
G37*
G04 #@! TD.AperFunction*
G04 #@! TA.AperFunction,SMDPad,CuDef*
G36*
X135787568Y-88404355D02*
G01*
X135682896Y-90401614D01*
X133386048Y-90281241D01*
X133490720Y-88283982D01*
X135787568Y-88404355D01*
G37*
G04 #@! TD.AperFunction*
G04 #@! TA.AperFunction,SMDPad,CuDef*
G36*
X213640538Y-88532144D02*
G01*
X212499105Y-88472324D01*
X212532338Y-87838194D01*
X213673771Y-87898014D01*
X213640538Y-88532144D01*
G37*
G04 #@! TD.AperFunction*
G04 #@! TA.AperFunction,SMDPad,CuDef*
G36*
X213692914Y-87532756D02*
G01*
X212551481Y-87472936D01*
X212584714Y-86838806D01*
X213726147Y-86898626D01*
X213692914Y-87532756D01*
G37*
G04 #@! TD.AperFunction*
G04 #@! TA.AperFunction,SMDPad,CuDef*
G36*
X211443553Y-88417005D02*
G01*
X210302120Y-88357185D01*
X210335353Y-87723055D01*
X211476786Y-87782875D01*
X211443553Y-88417005D01*
G37*
G04 #@! TD.AperFunction*
G04 #@! TA.AperFunction,SMDPad,CuDef*
G36*
X211495929Y-87417617D02*
G01*
X210354496Y-87357797D01*
X210387729Y-86723667D01*
X211529162Y-86783487D01*
X211495929Y-87417617D01*
G37*
G04 #@! TD.AperFunction*
G04 #@! TA.AperFunction,SMDPad,CuDef*
G36*
X209246568Y-88301866D02*
G01*
X208105135Y-88242046D01*
X208138368Y-87607916D01*
X209279801Y-87667736D01*
X209246568Y-88301866D01*
G37*
G04 #@! TD.AperFunction*
G04 #@! TA.AperFunction,SMDPad,CuDef*
G36*
X209298944Y-87302478D02*
G01*
X208157511Y-87242658D01*
X208190744Y-86608528D01*
X209332177Y-86668348D01*
X209298944Y-87302478D01*
G37*
G04 #@! TD.AperFunction*
G04 #@! TA.AperFunction,SMDPad,CuDef*
G36*
X207049583Y-88186726D02*
G01*
X205908150Y-88126906D01*
X205941383Y-87492776D01*
X207082816Y-87552596D01*
X207049583Y-88186726D01*
G37*
G04 #@! TD.AperFunction*
G04 #@! TA.AperFunction,SMDPad,CuDef*
G36*
X207101959Y-87187338D02*
G01*
X205960526Y-87127518D01*
X205993759Y-86493388D01*
X207135192Y-86553208D01*
X207101959Y-87187338D01*
G37*
G04 #@! TD.AperFunction*
D11*
X208797664Y-90554215D03*
X211334183Y-90687148D03*
X213870703Y-90820082D03*
X216407222Y-90953015D03*
G04 #@! TA.AperFunction,SMDPad,CuDef*
D10*
G36*
X149445883Y-97201202D02*
G01*
X149498219Y-96202573D01*
X151195889Y-96291544D01*
X151143553Y-97290173D01*
X149445883Y-97201202D01*
G37*
G04 #@! TD.AperFunction*
G04 #@! TA.AperFunction,SMDPad,CuDef*
G36*
X143953421Y-96913354D02*
G01*
X144005757Y-95914725D01*
X145703427Y-96003696D01*
X145651091Y-97002325D01*
X143953421Y-96913354D01*
G37*
G04 #@! TD.AperFunction*
G04 #@! TA.AperFunction,SMDPad,CuDef*
G36*
X149372613Y-98599284D02*
G01*
X149424949Y-97600655D01*
X151122619Y-97689626D01*
X151070283Y-98688255D01*
X149372613Y-98599284D01*
G37*
G04 #@! TD.AperFunction*
G04 #@! TA.AperFunction,SMDPad,CuDef*
G36*
X143880151Y-98311436D02*
G01*
X143932487Y-97312807D01*
X145630157Y-97401778D01*
X145577821Y-98400407D01*
X143880151Y-98311436D01*
G37*
G04 #@! TD.AperFunction*
G04 #@! TA.AperFunction,SMDPad,CuDef*
G36*
X162016808Y-73246291D02*
G01*
X161912136Y-75243550D01*
X159615288Y-75123177D01*
X159719960Y-73125918D01*
X162016808Y-73246291D01*
G37*
G04 #@! TD.AperFunction*
G04 #@! TA.AperFunction,SMDPad,CuDef*
G36*
X174832336Y-71374439D02*
G01*
X174727664Y-73371698D01*
X172430816Y-73251325D01*
X172535488Y-71254066D01*
X174832336Y-71374439D01*
G37*
G04 #@! TD.AperFunction*
D12*
X106341269Y-83605259D03*
X111841269Y-83605259D03*
X106341269Y-82205259D03*
X111841269Y-82205259D03*
G04 #@! TA.AperFunction,SMDPad,CuDef*
D10*
G36*
X204465301Y-114936465D02*
G01*
X204965301Y-114070439D01*
X206437545Y-114920439D01*
X205937545Y-115786465D01*
X204465301Y-114936465D01*
G37*
G04 #@! TD.AperFunction*
G04 #@! TA.AperFunction,SMDPad,CuDef*
G36*
X199702161Y-112186465D02*
G01*
X200202161Y-111320439D01*
X201674405Y-112170439D01*
X201174405Y-113036465D01*
X199702161Y-112186465D01*
G37*
G04 #@! TD.AperFunction*
G04 #@! TA.AperFunction,SMDPad,CuDef*
G36*
X203765301Y-116148901D02*
G01*
X204265301Y-115282875D01*
X205737545Y-116132875D01*
X205237545Y-116998901D01*
X203765301Y-116148901D01*
G37*
G04 #@! TD.AperFunction*
G04 #@! TA.AperFunction,SMDPad,CuDef*
G36*
X199002161Y-113398901D02*
G01*
X199502161Y-112532875D01*
X200974405Y-113382875D01*
X200474405Y-114248901D01*
X199002161Y-113398901D01*
G37*
G04 #@! TD.AperFunction*
G04 #@! TA.AperFunction,SMDPad,CuDef*
G36*
X135467362Y-110613743D02*
G01*
X135310928Y-109626055D01*
X136989998Y-109360117D01*
X137146432Y-110347805D01*
X135467362Y-110613743D01*
G37*
G04 #@! TD.AperFunction*
G04 #@! TA.AperFunction,SMDPad,CuDef*
G36*
X130035076Y-111474133D02*
G01*
X129878642Y-110486445D01*
X131557712Y-110220507D01*
X131714146Y-111208195D01*
X130035076Y-111474133D01*
G37*
G04 #@! TD.AperFunction*
G04 #@! TA.AperFunction,SMDPad,CuDef*
G36*
X135686370Y-111996507D02*
G01*
X135529936Y-111008819D01*
X137209006Y-110742881D01*
X137365440Y-111730569D01*
X135686370Y-111996507D01*
G37*
G04 #@! TD.AperFunction*
G04 #@! TA.AperFunction,SMDPad,CuDef*
G36*
X130254084Y-112856897D02*
G01*
X130097650Y-111869209D01*
X131776720Y-111603271D01*
X131933154Y-112590959D01*
X130254084Y-112856897D01*
G37*
G04 #@! TD.AperFunction*
G04 #@! TA.AperFunction,SMDPad,CuDef*
G36*
X189249582Y-65691191D02*
G01*
X189301918Y-64692562D01*
X190999588Y-64781533D01*
X190947252Y-65780162D01*
X189249582Y-65691191D01*
G37*
G04 #@! TD.AperFunction*
G04 #@! TA.AperFunction,SMDPad,CuDef*
G36*
X183757120Y-65403343D02*
G01*
X183809456Y-64404714D01*
X185507126Y-64493685D01*
X185454790Y-65492314D01*
X183757120Y-65403343D01*
G37*
G04 #@! TD.AperFunction*
G04 #@! TA.AperFunction,SMDPad,CuDef*
G36*
X189176312Y-67089273D02*
G01*
X189228648Y-66090644D01*
X190926318Y-66179615D01*
X190873982Y-67178244D01*
X189176312Y-67089273D01*
G37*
G04 #@! TD.AperFunction*
G04 #@! TA.AperFunction,SMDPad,CuDef*
G36*
X183683850Y-66801425D02*
G01*
X183736186Y-65802796D01*
X185433856Y-65891767D01*
X185381520Y-66890396D01*
X183683850Y-66801425D01*
G37*
G04 #@! TD.AperFunction*
G04 #@! TA.AperFunction,SMDPad,CuDef*
G36*
X101123333Y-132343238D02*
G01*
X100578693Y-131504568D01*
X102004433Y-130578682D01*
X102549073Y-131417352D01*
X101123333Y-132343238D01*
G37*
G04 #@! TD.AperFunction*
G04 #@! TA.AperFunction,SMDPad,CuDef*
G36*
X96510645Y-135338753D02*
G01*
X95966005Y-134500083D01*
X97391745Y-133574197D01*
X97936385Y-134412867D01*
X96510645Y-135338753D01*
G37*
G04 #@! TD.AperFunction*
G04 #@! TA.AperFunction,SMDPad,CuDef*
G36*
X101885827Y-133517377D02*
G01*
X101341187Y-132678707D01*
X102766927Y-131752821D01*
X103311567Y-132591491D01*
X101885827Y-133517377D01*
G37*
G04 #@! TD.AperFunction*
G04 #@! TA.AperFunction,SMDPad,CuDef*
G36*
X97273139Y-136512892D02*
G01*
X96728499Y-135674222D01*
X98154239Y-134748336D01*
X98698879Y-135587006D01*
X97273139Y-136512892D01*
G37*
G04 #@! TD.AperFunction*
D12*
X87291279Y-102655249D03*
X92791279Y-102655249D03*
X87291279Y-101255249D03*
X92791279Y-101255249D03*
X87291265Y-83605254D03*
X92791265Y-83605254D03*
X87291265Y-82205254D03*
X92791265Y-82205254D03*
X87291244Y-64555245D03*
X92791244Y-64555245D03*
X87291244Y-63155245D03*
X92791244Y-63155245D03*
X87291291Y-45505255D03*
X92791291Y-45505255D03*
X87291291Y-44105255D03*
X92791291Y-44105255D03*
X106341266Y-45505254D03*
X111841266Y-45505254D03*
X106341266Y-44105254D03*
X111841266Y-44105254D03*
X106341269Y-64555231D03*
X111841269Y-64555231D03*
X106341269Y-63155231D03*
X111841269Y-63155231D03*
X106341286Y-102655273D03*
X111841286Y-102655273D03*
X106341286Y-101255273D03*
X111841286Y-101255273D03*
G04 #@! TA.AperFunction,SMDPad,CuDef*
D10*
G36*
X130288547Y-98750755D02*
G01*
X130340883Y-97752126D01*
X132038553Y-97841097D01*
X131986217Y-98839726D01*
X130288547Y-98750755D01*
G37*
G04 #@! TD.AperFunction*
G04 #@! TA.AperFunction,SMDPad,CuDef*
G36*
X124796085Y-98462907D02*
G01*
X124848421Y-97464278D01*
X126546091Y-97553249D01*
X126493755Y-98551878D01*
X124796085Y-98462907D01*
G37*
G04 #@! TD.AperFunction*
G04 #@! TA.AperFunction,SMDPad,CuDef*
G36*
X130215277Y-100148837D02*
G01*
X130267613Y-99150208D01*
X131965283Y-99239179D01*
X131912947Y-100237808D01*
X130215277Y-100148837D01*
G37*
G04 #@! TD.AperFunction*
G04 #@! TA.AperFunction,SMDPad,CuDef*
G36*
X124722815Y-99860989D02*
G01*
X124775151Y-98862360D01*
X126472821Y-98951331D01*
X126420485Y-99949960D01*
X124722815Y-99860989D01*
G37*
G04 #@! TD.AperFunction*
G04 #@! TA.AperFunction,SMDPad,CuDef*
G36*
X131285537Y-79726848D02*
G01*
X131337873Y-78728219D01*
X133035543Y-78817190D01*
X132983207Y-79815819D01*
X131285537Y-79726848D01*
G37*
G04 #@! TD.AperFunction*
G04 #@! TA.AperFunction,SMDPad,CuDef*
G36*
X125793075Y-79439000D02*
G01*
X125845411Y-78440371D01*
X127543081Y-78529342D01*
X127490745Y-79527971D01*
X125793075Y-79439000D01*
G37*
G04 #@! TD.AperFunction*
G04 #@! TA.AperFunction,SMDPad,CuDef*
G36*
X131212267Y-81124930D02*
G01*
X131264603Y-80126301D01*
X132962273Y-80215272D01*
X132909937Y-81213901D01*
X131212267Y-81124930D01*
G37*
G04 #@! TD.AperFunction*
G04 #@! TA.AperFunction,SMDPad,CuDef*
G36*
X125719805Y-80837082D02*
G01*
X125772141Y-79838453D01*
X127469811Y-79927424D01*
X127417475Y-80926053D01*
X125719805Y-80837082D01*
G37*
G04 #@! TD.AperFunction*
G04 #@! TA.AperFunction,SMDPad,CuDef*
G36*
X132282548Y-60702924D02*
G01*
X132334884Y-59704295D01*
X134032554Y-59793266D01*
X133980218Y-60791895D01*
X132282548Y-60702924D01*
G37*
G04 #@! TD.AperFunction*
G04 #@! TA.AperFunction,SMDPad,CuDef*
G36*
X126790086Y-60415076D02*
G01*
X126842422Y-59416447D01*
X128540092Y-59505418D01*
X128487756Y-60504047D01*
X126790086Y-60415076D01*
G37*
G04 #@! TD.AperFunction*
G04 #@! TA.AperFunction,SMDPad,CuDef*
G36*
X132209278Y-62101006D02*
G01*
X132261614Y-61102377D01*
X133959284Y-61191348D01*
X133906948Y-62189977D01*
X132209278Y-62101006D01*
G37*
G04 #@! TD.AperFunction*
G04 #@! TA.AperFunction,SMDPad,CuDef*
G36*
X126716816Y-61813158D02*
G01*
X126769152Y-60814529D01*
X128466822Y-60903500D01*
X128414486Y-61902129D01*
X126716816Y-61813158D01*
G37*
G04 #@! TD.AperFunction*
G04 #@! TA.AperFunction,SMDPad,CuDef*
G36*
X133279555Y-41679068D02*
G01*
X133331891Y-40680439D01*
X135029561Y-40769410D01*
X134977225Y-41768039D01*
X133279555Y-41679068D01*
G37*
G04 #@! TD.AperFunction*
G04 #@! TA.AperFunction,SMDPad,CuDef*
G36*
X127787093Y-41391220D02*
G01*
X127839429Y-40392591D01*
X129537099Y-40481562D01*
X129484763Y-41480191D01*
X127787093Y-41391220D01*
G37*
G04 #@! TD.AperFunction*
G04 #@! TA.AperFunction,SMDPad,CuDef*
G36*
X133206285Y-43077150D02*
G01*
X133258621Y-42078521D01*
X134956291Y-42167492D01*
X134903955Y-43166121D01*
X133206285Y-43077150D01*
G37*
G04 #@! TD.AperFunction*
G04 #@! TA.AperFunction,SMDPad,CuDef*
G36*
X127713823Y-42789302D02*
G01*
X127766159Y-41790673D01*
X129463829Y-41879644D01*
X129411493Y-42878273D01*
X127713823Y-42789302D01*
G37*
G04 #@! TD.AperFunction*
G04 #@! TA.AperFunction,SMDPad,CuDef*
G36*
X152434291Y-40179493D02*
G01*
X152486627Y-39180864D01*
X154184297Y-39269835D01*
X154131961Y-40268464D01*
X152434291Y-40179493D01*
G37*
G04 #@! TD.AperFunction*
G04 #@! TA.AperFunction,SMDPad,CuDef*
G36*
X146941829Y-39891645D02*
G01*
X146994165Y-38893016D01*
X148691835Y-38981987D01*
X148639499Y-39980616D01*
X146941829Y-39891645D01*
G37*
G04 #@! TD.AperFunction*
G04 #@! TA.AperFunction,SMDPad,CuDef*
G36*
X152361021Y-41577575D02*
G01*
X152413357Y-40578946D01*
X154111027Y-40667917D01*
X154058691Y-41666546D01*
X152361021Y-41577575D01*
G37*
G04 #@! TD.AperFunction*
G04 #@! TA.AperFunction,SMDPad,CuDef*
G36*
X146868559Y-41289727D02*
G01*
X146920895Y-40291098D01*
X148618565Y-40380069D01*
X148566229Y-41378698D01*
X146868559Y-41289727D01*
G37*
G04 #@! TD.AperFunction*
G04 #@! TA.AperFunction,SMDPad,CuDef*
G36*
X151437254Y-59203379D02*
G01*
X151489590Y-58204750D01*
X153187260Y-58293721D01*
X153134924Y-59292350D01*
X151437254Y-59203379D01*
G37*
G04 #@! TD.AperFunction*
G04 #@! TA.AperFunction,SMDPad,CuDef*
G36*
X145944792Y-58915531D02*
G01*
X145997128Y-57916902D01*
X147694798Y-58005873D01*
X147642462Y-59004502D01*
X145944792Y-58915531D01*
G37*
G04 #@! TD.AperFunction*
G04 #@! TA.AperFunction,SMDPad,CuDef*
G36*
X151363984Y-60601461D02*
G01*
X151416320Y-59602832D01*
X153113990Y-59691803D01*
X153061654Y-60690432D01*
X151363984Y-60601461D01*
G37*
G04 #@! TD.AperFunction*
G04 #@! TA.AperFunction,SMDPad,CuDef*
G36*
X145871522Y-60313613D02*
G01*
X145923858Y-59314984D01*
X147621528Y-59403955D01*
X147569192Y-60402584D01*
X145871522Y-60313613D01*
G37*
G04 #@! TD.AperFunction*
G04 #@! TA.AperFunction,SMDPad,CuDef*
G36*
X150440282Y-78227270D02*
G01*
X150492618Y-77228641D01*
X152190288Y-77317612D01*
X152137952Y-78316241D01*
X150440282Y-78227270D01*
G37*
G04 #@! TD.AperFunction*
G04 #@! TA.AperFunction,SMDPad,CuDef*
G36*
X144947820Y-77939422D02*
G01*
X145000156Y-76940793D01*
X146697826Y-77029764D01*
X146645490Y-78028393D01*
X144947820Y-77939422D01*
G37*
G04 #@! TD.AperFunction*
G04 #@! TA.AperFunction,SMDPad,CuDef*
G36*
X150367012Y-79625352D02*
G01*
X150419348Y-78626723D01*
X152117018Y-78715694D01*
X152064682Y-79714323D01*
X150367012Y-79625352D01*
G37*
G04 #@! TD.AperFunction*
G04 #@! TA.AperFunction,SMDPad,CuDef*
G36*
X144874550Y-79337504D02*
G01*
X144926886Y-78338875D01*
X146624556Y-78427846D01*
X146572220Y-79426475D01*
X144874550Y-79337504D01*
G37*
G04 #@! TD.AperFunction*
G04 #@! TA.AperFunction,SMDPad,CuDef*
G36*
X157414158Y-109869893D02*
G01*
X157466494Y-108871264D01*
X159164164Y-108960235D01*
X159111828Y-109958864D01*
X157414158Y-109869893D01*
G37*
G04 #@! TD.AperFunction*
G04 #@! TA.AperFunction,SMDPad,CuDef*
G36*
X151921696Y-109582045D02*
G01*
X151974032Y-108583416D01*
X153671702Y-108672387D01*
X153619366Y-109671016D01*
X151921696Y-109582045D01*
G37*
G04 #@! TD.AperFunction*
G04 #@! TA.AperFunction,SMDPad,CuDef*
G36*
X157340888Y-111267975D02*
G01*
X157393224Y-110269346D01*
X159090894Y-110358317D01*
X159038558Y-111356946D01*
X157340888Y-111267975D01*
G37*
G04 #@! TD.AperFunction*
G04 #@! TA.AperFunction,SMDPad,CuDef*
G36*
X151848426Y-110980127D02*
G01*
X151900762Y-109981498D01*
X153598432Y-110070469D01*
X153546096Y-111069098D01*
X151848426Y-110980127D01*
G37*
G04 #@! TD.AperFunction*
G04 #@! TA.AperFunction,SMDPad,CuDef*
G36*
X179345834Y-114098903D02*
G01*
X179629849Y-113140083D01*
X181259842Y-113622909D01*
X180975827Y-114581729D01*
X179345834Y-114098903D01*
G37*
G04 #@! TD.AperFunction*
G04 #@! TA.AperFunction,SMDPad,CuDef*
G36*
X174072325Y-112536819D02*
G01*
X174356340Y-111577999D01*
X175986333Y-112060825D01*
X175702318Y-113019645D01*
X174072325Y-112536819D01*
G37*
G04 #@! TD.AperFunction*
G04 #@! TA.AperFunction,SMDPad,CuDef*
G36*
X178948213Y-115441251D02*
G01*
X179232228Y-114482431D01*
X180862221Y-114965257D01*
X180578206Y-115924077D01*
X178948213Y-115441251D01*
G37*
G04 #@! TD.AperFunction*
G04 #@! TA.AperFunction,SMDPad,CuDef*
G36*
X173674704Y-113879167D02*
G01*
X173958719Y-112920347D01*
X175588712Y-113403173D01*
X175304697Y-114361993D01*
X173674704Y-113879167D01*
G37*
G04 #@! TD.AperFunction*
G04 #@! TA.AperFunction,SMDPad,CuDef*
G36*
X168336368Y-100744717D02*
G01*
X168388704Y-99746088D01*
X170086374Y-99835059D01*
X170034038Y-100833688D01*
X168336368Y-100744717D01*
G37*
G04 #@! TD.AperFunction*
G04 #@! TA.AperFunction,SMDPad,CuDef*
G36*
X162843906Y-100456869D02*
G01*
X162896242Y-99458240D01*
X164593912Y-99547211D01*
X164541576Y-100545840D01*
X162843906Y-100456869D01*
G37*
G04 #@! TD.AperFunction*
G04 #@! TA.AperFunction,SMDPad,CuDef*
G36*
X168263098Y-102142799D02*
G01*
X168315434Y-101144170D01*
X170013104Y-101233141D01*
X169960768Y-102231770D01*
X168263098Y-102142799D01*
G37*
G04 #@! TD.AperFunction*
G04 #@! TA.AperFunction,SMDPad,CuDef*
G36*
X162770636Y-101854951D02*
G01*
X162822972Y-100856322D01*
X164520642Y-100945293D01*
X164468306Y-101943922D01*
X162770636Y-101854951D01*
G37*
G04 #@! TD.AperFunction*
G04 #@! TA.AperFunction,SMDPad,CuDef*
G36*
X169333349Y-81720826D02*
G01*
X169385685Y-80722197D01*
X171083355Y-80811168D01*
X171031019Y-81809797D01*
X169333349Y-81720826D01*
G37*
G04 #@! TD.AperFunction*
G04 #@! TA.AperFunction,SMDPad,CuDef*
G36*
X163840887Y-81432978D02*
G01*
X163893223Y-80434349D01*
X165590893Y-80523320D01*
X165538557Y-81521949D01*
X163840887Y-81432978D01*
G37*
G04 #@! TD.AperFunction*
G04 #@! TA.AperFunction,SMDPad,CuDef*
G36*
X169260079Y-83118908D02*
G01*
X169312415Y-82120279D01*
X171010085Y-82209250D01*
X170957749Y-83207879D01*
X169260079Y-83118908D01*
G37*
G04 #@! TD.AperFunction*
G04 #@! TA.AperFunction,SMDPad,CuDef*
G36*
X163767617Y-82831060D02*
G01*
X163819953Y-81832431D01*
X165517623Y-81921402D01*
X165465287Y-82920031D01*
X163767617Y-82831060D01*
G37*
G04 #@! TD.AperFunction*
G04 #@! TA.AperFunction,SMDPad,CuDef*
G36*
X170330329Y-62696954D02*
G01*
X170382665Y-61698325D01*
X172080335Y-61787296D01*
X172027999Y-62785925D01*
X170330329Y-62696954D01*
G37*
G04 #@! TD.AperFunction*
G04 #@! TA.AperFunction,SMDPad,CuDef*
G36*
X164837867Y-62409106D02*
G01*
X164890203Y-61410477D01*
X166587873Y-61499448D01*
X166535537Y-62498077D01*
X164837867Y-62409106D01*
G37*
G04 #@! TD.AperFunction*
G04 #@! TA.AperFunction,SMDPad,CuDef*
G36*
X170257059Y-64095036D02*
G01*
X170309395Y-63096407D01*
X172007065Y-63185378D01*
X171954729Y-64184007D01*
X170257059Y-64095036D01*
G37*
G04 #@! TD.AperFunction*
G04 #@! TA.AperFunction,SMDPad,CuDef*
G36*
X164764597Y-63807188D02*
G01*
X164816933Y-62808559D01*
X166514603Y-62897530D01*
X166462267Y-63896159D01*
X164764597Y-63807188D01*
G37*
G04 #@! TD.AperFunction*
G04 #@! TA.AperFunction,SMDPad,CuDef*
G36*
X171327334Y-43673049D02*
G01*
X171379670Y-42674420D01*
X173077340Y-42763391D01*
X173025004Y-43762020D01*
X171327334Y-43673049D01*
G37*
G04 #@! TD.AperFunction*
G04 #@! TA.AperFunction,SMDPad,CuDef*
G36*
X165834872Y-43385201D02*
G01*
X165887208Y-42386572D01*
X167584878Y-42475543D01*
X167532542Y-43474172D01*
X165834872Y-43385201D01*
G37*
G04 #@! TD.AperFunction*
G04 #@! TA.AperFunction,SMDPad,CuDef*
G36*
X171254064Y-45071131D02*
G01*
X171306400Y-44072502D01*
X173004070Y-44161473D01*
X172951734Y-45160102D01*
X171254064Y-45071131D01*
G37*
G04 #@! TD.AperFunction*
G04 #@! TA.AperFunction,SMDPad,CuDef*
G36*
X165761602Y-44783283D02*
G01*
X165813938Y-43784654D01*
X167511608Y-43873625D01*
X167459272Y-44872254D01*
X165761602Y-44783283D01*
G37*
G04 #@! TD.AperFunction*
G04 #@! TA.AperFunction,SMDPad,CuDef*
G36*
X190246567Y-46667319D02*
G01*
X190298903Y-45668690D01*
X191996573Y-45757661D01*
X191944237Y-46756290D01*
X190246567Y-46667319D01*
G37*
G04 #@! TD.AperFunction*
G04 #@! TA.AperFunction,SMDPad,CuDef*
G36*
X184754105Y-46379471D02*
G01*
X184806441Y-45380842D01*
X186504111Y-45469813D01*
X186451775Y-46468442D01*
X184754105Y-46379471D01*
G37*
G04 #@! TD.AperFunction*
G04 #@! TA.AperFunction,SMDPad,CuDef*
G36*
X190173297Y-48065401D02*
G01*
X190225633Y-47066772D01*
X191923303Y-47155743D01*
X191870967Y-48154372D01*
X190173297Y-48065401D01*
G37*
G04 #@! TD.AperFunction*
G04 #@! TA.AperFunction,SMDPad,CuDef*
G36*
X184680835Y-47777553D02*
G01*
X184733171Y-46778924D01*
X186430841Y-46867895D01*
X186378505Y-47866524D01*
X184680835Y-47777553D01*
G37*
G04 #@! TD.AperFunction*
G04 #@! TA.AperFunction,SMDPad,CuDef*
G36*
X188252566Y-84715085D02*
G01*
X188304902Y-83716456D01*
X190002572Y-83805427D01*
X189950236Y-84804056D01*
X188252566Y-84715085D01*
G37*
G04 #@! TD.AperFunction*
G04 #@! TA.AperFunction,SMDPad,CuDef*
G36*
X182760104Y-84427237D02*
G01*
X182812440Y-83428608D01*
X184510110Y-83517579D01*
X184457774Y-84516208D01*
X182760104Y-84427237D01*
G37*
G04 #@! TD.AperFunction*
G04 #@! TA.AperFunction,SMDPad,CuDef*
G36*
X188179296Y-86113167D02*
G01*
X188231632Y-85114538D01*
X189929302Y-85203509D01*
X189876966Y-86202138D01*
X188179296Y-86113167D01*
G37*
G04 #@! TD.AperFunction*
G04 #@! TA.AperFunction,SMDPad,CuDef*
G36*
X182686834Y-85825319D02*
G01*
X182739170Y-84826690D01*
X184436840Y-84915661D01*
X184384504Y-85914290D01*
X182686834Y-85825319D01*
G37*
G04 #@! TD.AperFunction*
G04 #@! TA.AperFunction,SMDPad,CuDef*
G36*
X223878222Y-130010702D02*
G01*
X224566577Y-129285327D01*
X225799714Y-130455530D01*
X225111359Y-131180905D01*
X223878222Y-130010702D01*
G37*
G04 #@! TD.AperFunction*
G04 #@! TA.AperFunction,SMDPad,CuDef*
G36*
X219888663Y-126224752D02*
G01*
X220577018Y-125499377D01*
X221810155Y-126669580D01*
X221121800Y-127394955D01*
X219888663Y-126224752D01*
G37*
G04 #@! TD.AperFunction*
G04 #@! TA.AperFunction,SMDPad,CuDef*
G36*
X222914525Y-131026226D02*
G01*
X223602880Y-130300851D01*
X224836017Y-131471054D01*
X224147662Y-132196429D01*
X222914525Y-131026226D01*
G37*
G04 #@! TD.AperFunction*
G04 #@! TA.AperFunction,SMDPad,CuDef*
G36*
X218924966Y-127240276D02*
G01*
X219613321Y-126514901D01*
X220846458Y-127685104D01*
X220158103Y-128410479D01*
X218924966Y-127240276D01*
G37*
G04 #@! TD.AperFunction*
G04 #@! TA.AperFunction,SMDPad,CuDef*
G36*
X199702814Y-123327003D02*
G01*
X200202814Y-122460977D01*
X201675058Y-123310977D01*
X201175058Y-124177003D01*
X199702814Y-123327003D01*
G37*
G04 #@! TD.AperFunction*
G04 #@! TA.AperFunction,SMDPad,CuDef*
G36*
X194939674Y-120577003D02*
G01*
X195439674Y-119710977D01*
X196911918Y-120560977D01*
X196411918Y-121427003D01*
X194939674Y-120577003D01*
G37*
G04 #@! TD.AperFunction*
G04 #@! TA.AperFunction,SMDPad,CuDef*
G36*
X199002814Y-124539439D02*
G01*
X199502814Y-123673413D01*
X200975058Y-124523413D01*
X200475058Y-125389439D01*
X199002814Y-124539439D01*
G37*
G04 #@! TD.AperFunction*
G04 #@! TA.AperFunction,SMDPad,CuDef*
G36*
X194239674Y-121789439D02*
G01*
X194739674Y-120923413D01*
X196211918Y-121773413D01*
X195711918Y-122639439D01*
X194239674Y-121789439D01*
G37*
G04 #@! TD.AperFunction*
G04 #@! TA.AperFunction,SMDPad,CuDef*
G36*
X217276161Y-137024001D02*
G01*
X217964516Y-136298626D01*
X219197653Y-137468829D01*
X218509298Y-138194204D01*
X217276161Y-137024001D01*
G37*
G04 #@! TD.AperFunction*
G04 #@! TA.AperFunction,SMDPad,CuDef*
G36*
X213286602Y-133238051D02*
G01*
X213974957Y-132512676D01*
X215208094Y-133682879D01*
X214519739Y-134408254D01*
X213286602Y-133238051D01*
G37*
G04 #@! TD.AperFunction*
G04 #@! TA.AperFunction,SMDPad,CuDef*
G36*
X216312464Y-138039525D02*
G01*
X217000819Y-137314150D01*
X218233956Y-138484353D01*
X217545601Y-139209728D01*
X216312464Y-138039525D01*
G37*
G04 #@! TD.AperFunction*
G04 #@! TA.AperFunction,SMDPad,CuDef*
G36*
X212322905Y-134253575D02*
G01*
X213011260Y-133528200D01*
X214244397Y-134698403D01*
X213556042Y-135423778D01*
X212322905Y-134253575D01*
G37*
G04 #@! TD.AperFunction*
G04 #@! TA.AperFunction,SMDPad,CuDef*
G36*
X187258189Y-103689065D02*
G01*
X187310525Y-102690436D01*
X189008195Y-102779407D01*
X188955859Y-103778036D01*
X187258189Y-103689065D01*
G37*
G04 #@! TD.AperFunction*
G04 #@! TA.AperFunction,SMDPad,CuDef*
G36*
X181765727Y-103401217D02*
G01*
X181818063Y-102402588D01*
X183515733Y-102491559D01*
X183463397Y-103490188D01*
X181765727Y-103401217D01*
G37*
G04 #@! TD.AperFunction*
G04 #@! TA.AperFunction,SMDPad,CuDef*
G36*
X187184919Y-105087147D02*
G01*
X187237255Y-104088518D01*
X188934925Y-104177489D01*
X188882589Y-105176118D01*
X187184919Y-105087147D01*
G37*
G04 #@! TD.AperFunction*
G04 #@! TA.AperFunction,SMDPad,CuDef*
G36*
X181692457Y-104799299D02*
G01*
X181744793Y-103800670D01*
X183442463Y-103889641D01*
X183390127Y-104888270D01*
X181692457Y-104799299D01*
G37*
G04 #@! TD.AperFunction*
G04 #@! TA.AperFunction,SMDPad,CuDef*
G36*
X161019824Y-92270195D02*
G01*
X160915152Y-94267454D01*
X158618304Y-94147081D01*
X158722976Y-92149822D01*
X161019824Y-92270195D01*
G37*
G04 #@! TD.AperFunction*
G04 #@! TA.AperFunction,SMDPad,CuDef*
G36*
X173835352Y-90398343D02*
G01*
X173730680Y-92395602D01*
X171433832Y-92275229D01*
X171538504Y-90277970D01*
X173835352Y-90398343D01*
G37*
G04 #@! TD.AperFunction*
D13*
X114791260Y-34985231D03*
X102091260Y-37525231D03*
D14*
X224893643Y-60595564D03*
D15*
X202641517Y-53821071D03*
X216563599Y-54550680D03*
X224872597Y-92199910D03*
X222076406Y-92053350D03*
G04 #@! TA.AperFunction,SMDPad,CuDef*
D10*
G36*
X226667699Y-73966089D02*
G01*
X225868796Y-73924220D01*
X225931599Y-72725865D01*
X226730502Y-72767734D01*
X226667699Y-73966089D01*
G37*
G04 #@! TD.AperFunction*
G04 #@! TA.AperFunction,SMDPad,CuDef*
G36*
X224470714Y-73850950D02*
G01*
X223671811Y-73809081D01*
X223734614Y-72610726D01*
X224533517Y-72652595D01*
X224470714Y-73850950D01*
G37*
G04 #@! TD.AperFunction*
G04 #@! TA.AperFunction,SMDPad,CuDef*
G36*
X226284600Y-81276057D02*
G01*
X225485697Y-81234188D01*
X225548500Y-80035833D01*
X226347403Y-80077702D01*
X226284600Y-81276057D01*
G37*
G04 #@! TD.AperFunction*
G04 #@! TA.AperFunction,SMDPad,CuDef*
G36*
X224087615Y-81160918D02*
G01*
X223288712Y-81119049D01*
X223351515Y-79920694D01*
X224150418Y-79962563D01*
X224087615Y-81160918D01*
G37*
G04 #@! TD.AperFunction*
G04 #@! TA.AperFunction,SMDPad,CuDef*
G36*
X223825566Y-75078869D02*
G01*
X222327621Y-75000365D01*
X222369490Y-74201461D01*
X223867435Y-74279965D01*
X223825566Y-75078869D01*
G37*
G04 #@! TD.AperFunction*
G04 #@! TA.AperFunction,SMDPad,CuDef*
G36*
X223673792Y-77974894D02*
G01*
X222175847Y-77896390D01*
X222217716Y-77097486D01*
X223715661Y-77175990D01*
X223673792Y-77974894D01*
G37*
G04 #@! TD.AperFunction*
G04 #@! TA.AperFunction,SMDPad,CuDef*
G36*
X223594241Y-79492811D02*
G01*
X222096296Y-79414307D01*
X222138165Y-78615403D01*
X223636110Y-78693907D01*
X223594241Y-79492811D01*
G37*
G04 #@! TD.AperFunction*
G04 #@! TA.AperFunction,SMDPad,CuDef*
G36*
X206644993Y-53239773D02*
G01*
X206603124Y-54038676D01*
X205404769Y-53975873D01*
X205446638Y-53176970D01*
X206644993Y-53239773D01*
G37*
G04 #@! TD.AperFunction*
G04 #@! TA.AperFunction,SMDPad,CuDef*
G36*
X206529854Y-55436758D02*
G01*
X206487985Y-56235661D01*
X205289630Y-56172858D01*
X205331499Y-55373955D01*
X206529854Y-55436758D01*
G37*
G04 #@! TD.AperFunction*
G04 #@! TA.AperFunction,SMDPad,CuDef*
G36*
X213954961Y-53622872D02*
G01*
X213913092Y-54421775D01*
X212714737Y-54358972D01*
X212756606Y-53560069D01*
X213954961Y-53622872D01*
G37*
G04 #@! TD.AperFunction*
G04 #@! TA.AperFunction,SMDPad,CuDef*
G36*
X213839822Y-55819857D02*
G01*
X213797953Y-56618760D01*
X212599598Y-56555957D01*
X212641467Y-55757054D01*
X213839822Y-55819857D01*
G37*
G04 #@! TD.AperFunction*
G04 #@! TA.AperFunction,SMDPad,CuDef*
G36*
X207757773Y-56081906D02*
G01*
X207679269Y-57579851D01*
X206880365Y-57537982D01*
X206958869Y-56040037D01*
X207757773Y-56081906D01*
G37*
G04 #@! TD.AperFunction*
G04 #@! TA.AperFunction,SMDPad,CuDef*
G36*
X210653798Y-56233680D02*
G01*
X210575294Y-57731625D01*
X209776390Y-57689756D01*
X209854894Y-56191811D01*
X210653798Y-56233680D01*
G37*
G04 #@! TD.AperFunction*
G04 #@! TA.AperFunction,SMDPad,CuDef*
G36*
X212171715Y-56313231D02*
G01*
X212093211Y-57811176D01*
X211294307Y-57769307D01*
X211372811Y-56271362D01*
X212171715Y-56313231D01*
G37*
G04 #@! TD.AperFunction*
G04 #@! TA.AperFunction,SMDPad,CuDef*
G36*
X179939028Y-95264474D02*
G01*
X179834356Y-97261733D01*
X177537508Y-97141360D01*
X177642180Y-95144101D01*
X179939028Y-95264474D01*
G37*
G04 #@! TD.AperFunction*
G04 #@! TA.AperFunction,SMDPad,CuDef*
G36*
X192754556Y-93392622D02*
G01*
X192649884Y-95389881D01*
X190353036Y-95269508D01*
X190457708Y-93272249D01*
X192754556Y-93392622D01*
G37*
G04 #@! TD.AperFunction*
G04 #@! TA.AperFunction,SMDPad,CuDef*
G36*
X154942689Y-86897294D02*
G01*
X154838017Y-88894553D01*
X152541169Y-88774180D01*
X152645841Y-86776921D01*
X154942689Y-86897294D01*
G37*
G04 #@! TD.AperFunction*
G04 #@! TA.AperFunction,SMDPad,CuDef*
G36*
X142127161Y-88769146D02*
G01*
X142022489Y-90766405D01*
X139725641Y-90646032D01*
X139830313Y-88648773D01*
X142127161Y-88769146D01*
G37*
G04 #@! TD.AperFunction*
G04 #@! TA.AperFunction,SMDPad,CuDef*
G36*
X214275487Y-145868158D02*
G01*
X215652196Y-144417409D01*
X217320557Y-146000624D01*
X215943848Y-147451373D01*
X214275487Y-145868158D01*
G37*
G04 #@! TD.AperFunction*
G04 #@! TA.AperFunction,SMDPad,CuDef*
G36*
X203314812Y-138968506D02*
G01*
X204691521Y-137517757D01*
X206359882Y-139100972D01*
X204983173Y-140551721D01*
X203314812Y-138968506D01*
G37*
G04 #@! TD.AperFunction*
G04 #@! TA.AperFunction,SMDPad,CuDef*
G36*
X160906433Y-118534374D02*
G01*
X161011105Y-116537115D01*
X163307953Y-116657488D01*
X163203281Y-118654747D01*
X160906433Y-118534374D01*
G37*
G04 #@! TD.AperFunction*
G04 #@! TA.AperFunction,SMDPad,CuDef*
G36*
X148090905Y-120406226D02*
G01*
X148195577Y-118408967D01*
X150492425Y-118529340D01*
X150387753Y-120526599D01*
X148090905Y-120406226D01*
G37*
G04 #@! TD.AperFunction*
G04 #@! TA.AperFunction,SMDPad,CuDef*
G36*
X223830340Y-118802401D02*
G01*
X222453631Y-120253150D01*
X220785270Y-118669935D01*
X222161979Y-117219186D01*
X223830340Y-118802401D01*
G37*
G04 #@! TD.AperFunction*
G04 #@! TA.AperFunction,SMDPad,CuDef*
G36*
X234791015Y-125702053D02*
G01*
X233414306Y-127152802D01*
X231745945Y-125569587D01*
X233122654Y-124118838D01*
X234791015Y-125702053D01*
G37*
G04 #@! TD.AperFunction*
D16*
X232241389Y-122069382D03*
X228614517Y-118627609D03*
G04 #@! TA.AperFunction,ComponentPad*
D17*
G36*
X229295574Y-131129856D02*
G01*
X227844825Y-129753146D01*
X230047560Y-127431948D01*
X231498309Y-128808658D01*
X229295574Y-131129856D01*
G37*
G04 #@! TD.AperFunction*
G04 #@! TA.AperFunction,ComponentPad*
G36*
X221171382Y-123420284D02*
G01*
X219720633Y-122043574D01*
X221923368Y-119722376D01*
X223374117Y-121099086D01*
X221171382Y-123420284D01*
G37*
G04 #@! TD.AperFunction*
D16*
X222260248Y-132587310D03*
X220446812Y-130866424D03*
X218633376Y-129145537D03*
D11*
X222487457Y-113018445D03*
G04 #@! TA.AperFunction,ComponentPad*
D17*
G36*
X218294188Y-119630630D02*
G01*
X217185874Y-118780190D01*
X218036314Y-117671876D01*
X219144628Y-118522316D01*
X218294188Y-119630630D01*
G37*
G04 #@! TD.AperFunction*
G04 #@! TA.AperFunction,SMDPad,CuDef*
D10*
G36*
X219226950Y-118047892D02*
G01*
X218473264Y-117469569D01*
X219264654Y-116438210D01*
X220018340Y-117016533D01*
X219226950Y-118047892D01*
G37*
G04 #@! TD.AperFunction*
G04 #@! TA.AperFunction,SMDPad,CuDef*
G36*
X221388054Y-115231488D02*
G01*
X220634368Y-114653165D01*
X221425758Y-113621806D01*
X222179444Y-114200129D01*
X221388054Y-115231488D01*
G37*
G04 #@! TD.AperFunction*
G04 #@! TA.AperFunction,SMDPad,CuDef*
G36*
X140697567Y-118376124D02*
G01*
X140384698Y-116400747D01*
X142656381Y-116040948D01*
X142969250Y-118016325D01*
X140697567Y-118376124D01*
G37*
G04 #@! TD.AperFunction*
G04 #@! TA.AperFunction,SMDPad,CuDef*
G36*
X128551269Y-122871570D02*
G01*
X128238400Y-120896193D01*
X130510083Y-120536394D01*
X130822952Y-122511771D01*
X128551269Y-122871570D01*
G37*
G04 #@! TD.AperFunction*
G04 #@! TA.AperFunction,SMDPad,CuDef*
G36*
X144387285Y-116427046D02*
G01*
X145335983Y-116377327D01*
X145404019Y-117675546D01*
X144455321Y-117725265D01*
X144387285Y-116427046D01*
G37*
G04 #@! TD.AperFunction*
G04 #@! TA.AperFunction,SMDPad,CuDef*
G36*
X144201493Y-112881912D02*
G01*
X145150191Y-112832193D01*
X145218227Y-114130412D01*
X144269529Y-114180131D01*
X144201493Y-112881912D01*
G37*
G04 #@! TD.AperFunction*
G04 #@! TA.AperFunction,ComponentPad*
D17*
G36*
X143882864Y-111072608D02*
G01*
X145277949Y-110999495D01*
X145351062Y-112394580D01*
X143955977Y-112467693D01*
X143882864Y-111072608D01*
G37*
G04 #@! TD.AperFunction*
D11*
X144988549Y-118823864D03*
G04 #@! TA.AperFunction,SMDPad,CuDef*
D10*
G36*
X198820383Y-132613735D02*
G01*
X199820383Y-130881685D01*
X201812241Y-132031685D01*
X200812241Y-133763735D01*
X198820383Y-132613735D01*
G37*
G04 #@! TD.AperFunction*
G04 #@! TA.AperFunction,SMDPad,CuDef*
G36*
X186551860Y-128463439D02*
G01*
X187551860Y-126731389D01*
X189543718Y-127881389D01*
X188543718Y-129613439D01*
X186551860Y-128463439D01*
G37*
G04 #@! TD.AperFunction*
G04 #@! TA.AperFunction,SMDPad,CuDef*
G36*
X180695924Y-123342985D02*
G01*
X181263955Y-121425346D01*
X183469240Y-122078581D01*
X182901209Y-123996220D01*
X180695924Y-123342985D01*
G37*
G04 #@! TD.AperFunction*
G04 #@! TA.AperFunction,SMDPad,CuDef*
G36*
X167797514Y-122171393D02*
G01*
X168365545Y-120253754D01*
X170570830Y-120906989D01*
X170002799Y-122824628D01*
X167797514Y-122171393D01*
G37*
G04 #@! TD.AperFunction*
D13*
X95741255Y-54035244D03*
X83041255Y-56575244D03*
X114791271Y-73085249D03*
X102091271Y-75625249D03*
D11*
X218564965Y-144100823D03*
G04 #@! TA.AperFunction,ComponentPad*
D17*
G36*
X223426425Y-137963175D02*
G01*
X224439773Y-138924807D01*
X223478141Y-139938155D01*
X222464793Y-138976523D01*
X223426425Y-137963175D01*
G37*
G04 #@! TD.AperFunction*
G04 #@! TA.AperFunction,SMDPad,CuDef*
D10*
G36*
X222333331Y-139439742D02*
G01*
X223022436Y-140093679D01*
X222127575Y-141036666D01*
X221438470Y-140382729D01*
X222333331Y-139439742D01*
G37*
G04 #@! TD.AperFunction*
G04 #@! TA.AperFunction,SMDPad,CuDef*
G36*
X219889673Y-142014822D02*
G01*
X220578778Y-142668759D01*
X219683917Y-143611746D01*
X218994812Y-142957809D01*
X219889673Y-142014822D01*
G37*
G04 #@! TD.AperFunction*
D11*
X201920120Y-135748071D03*
G04 #@! TA.AperFunction,ComponentPad*
D17*
G36*
X205938866Y-129028385D02*
G01*
X207069062Y-129849521D01*
X206247926Y-130979717D01*
X205117730Y-130158581D01*
X205938866Y-129028385D01*
G37*
G04 #@! TD.AperFunction*
G04 #@! TA.AperFunction,SMDPad,CuDef*
D10*
G36*
X205047854Y-130634997D02*
G01*
X205816420Y-131193393D01*
X205052300Y-132245115D01*
X204283734Y-131686719D01*
X205047854Y-130634997D01*
G37*
G04 #@! TD.AperFunction*
G04 #@! TA.AperFunction,SMDPad,CuDef*
G36*
X202961216Y-133507007D02*
G01*
X203729782Y-134065403D01*
X202965662Y-135117125D01*
X202197096Y-134558729D01*
X202961216Y-133507007D01*
G37*
G04 #@! TD.AperFunction*
D11*
X184280513Y-126106849D03*
G04 #@! TA.AperFunction,ComponentPad*
D17*
G36*
X186619540Y-118634671D02*
G01*
X187910199Y-119169280D01*
X187375590Y-120459939D01*
X186084931Y-119925330D01*
X186619540Y-118634671D01*
G37*
G04 #@! TD.AperFunction*
G04 #@! TA.AperFunction,SMDPad,CuDef*
D10*
G36*
X186128203Y-120404895D02*
G01*
X187005889Y-120768444D01*
X186508401Y-121969487D01*
X185630715Y-121605938D01*
X186128203Y-120404895D01*
G37*
G04 #@! TD.AperFunction*
G04 #@! TA.AperFunction,SMDPad,CuDef*
G36*
X184769677Y-123684667D02*
G01*
X185647363Y-124048216D01*
X185149875Y-125249259D01*
X184272189Y-124885710D01*
X184769677Y-123684667D01*
G37*
G04 #@! TD.AperFunction*
D11*
X165048667Y-120302034D03*
G04 #@! TA.AperFunction,ComponentPad*
D17*
G36*
X165578720Y-112490276D02*
G01*
X166958521Y-112708815D01*
X166739982Y-114088616D01*
X165360181Y-113870077D01*
X165578720Y-112490276D01*
G37*
G04 #@! TD.AperFunction*
G04 #@! TA.AperFunction,SMDPad,CuDef*
D10*
G36*
X165514210Y-114326289D02*
G01*
X166452514Y-114474902D01*
X166249150Y-115758897D01*
X165310846Y-115610284D01*
X165514210Y-114326289D01*
G37*
G04 #@! TD.AperFunction*
G04 #@! TA.AperFunction,SMDPad,CuDef*
G36*
X164958868Y-117832583D02*
G01*
X165897172Y-117981196D01*
X165693808Y-119265191D01*
X164755504Y-119116578D01*
X164958868Y-117832583D01*
G37*
G04 #@! TD.AperFunction*
D11*
X199685422Y-97010660D03*
G04 #@! TA.AperFunction,ComponentPad*
D17*
G36*
X197151598Y-104419049D02*
G01*
X195875375Y-103850838D01*
X196443586Y-102574615D01*
X197719809Y-103142826D01*
X197151598Y-104419049D01*
G37*
G04 #@! TD.AperFunction*
G04 #@! TA.AperFunction,SMDPad,CuDef*
D10*
G36*
X197689104Y-102662293D02*
G01*
X196821236Y-102275894D01*
X197349994Y-101088285D01*
X198217862Y-101474684D01*
X197689104Y-102662293D01*
G37*
G04 #@! TD.AperFunction*
G04 #@! TA.AperFunction,SMDPad,CuDef*
G36*
X199133020Y-99419207D02*
G01*
X198265152Y-99032808D01*
X198793910Y-97845199D01*
X199661778Y-98231598D01*
X199133020Y-99419207D01*
G37*
G04 #@! TD.AperFunction*
D11*
X177546857Y-98874220D03*
G04 #@! TA.AperFunction,ComponentPad*
D17*
G36*
X177836257Y-106698589D02*
G01*
X176441172Y-106625476D01*
X176514285Y-105230391D01*
X177909370Y-105303504D01*
X177836257Y-106698589D01*
G37*
G04 #@! TD.AperFunction*
G04 #@! TA.AperFunction,SMDPad,CuDef*
D10*
G36*
X177708499Y-104865891D02*
G01*
X176759801Y-104816172D01*
X176827837Y-103517953D01*
X177776535Y-103567672D01*
X177708499Y-104865891D01*
G37*
G04 #@! TD.AperFunction*
G04 #@! TA.AperFunction,SMDPad,CuDef*
G36*
X177894291Y-101320757D02*
G01*
X176945593Y-101271038D01*
X177013629Y-99972819D01*
X177962327Y-100022538D01*
X177894291Y-101320757D01*
G37*
G04 #@! TD.AperFunction*
D11*
X158630254Y-95829987D03*
G04 #@! TA.AperFunction,ComponentPad*
D17*
G36*
X158919654Y-103654356D02*
G01*
X157524569Y-103581243D01*
X157597682Y-102186158D01*
X158992767Y-102259271D01*
X158919654Y-103654356D01*
G37*
G04 #@! TD.AperFunction*
G04 #@! TA.AperFunction,SMDPad,CuDef*
D10*
G36*
X158791896Y-101821658D02*
G01*
X157843198Y-101771939D01*
X157911234Y-100473720D01*
X158859932Y-100523439D01*
X158791896Y-101821658D01*
G37*
G04 #@! TD.AperFunction*
G04 #@! TA.AperFunction,SMDPad,CuDef*
G36*
X158977688Y-98276524D02*
G01*
X158028990Y-98226805D01*
X158097026Y-96928586D01*
X159045724Y-96978305D01*
X158977688Y-98276524D01*
G37*
G04 #@! TD.AperFunction*
D11*
X139734555Y-92386380D03*
G04 #@! TA.AperFunction,ComponentPad*
D17*
G36*
X140023955Y-100210749D02*
G01*
X138628870Y-100137636D01*
X138701983Y-98742551D01*
X140097068Y-98815664D01*
X140023955Y-100210749D01*
G37*
G04 #@! TD.AperFunction*
G04 #@! TA.AperFunction,SMDPad,CuDef*
D10*
G36*
X139896197Y-98378051D02*
G01*
X138947499Y-98328332D01*
X139015535Y-97030113D01*
X139964233Y-97079832D01*
X139896197Y-98378051D01*
G37*
G04 #@! TD.AperFunction*
G04 #@! TA.AperFunction,SMDPad,CuDef*
G36*
X140081989Y-94832917D02*
G01*
X139133291Y-94783198D01*
X139201327Y-93484979D01*
X140150025Y-93534698D01*
X140081989Y-94832917D01*
G37*
G04 #@! TD.AperFunction*
D11*
X120577232Y-93935855D03*
G04 #@! TA.AperFunction,ComponentPad*
D17*
G36*
X120866632Y-101760224D02*
G01*
X119471547Y-101687111D01*
X119544660Y-100292026D01*
X120939745Y-100365139D01*
X120866632Y-101760224D01*
G37*
G04 #@! TD.AperFunction*
G04 #@! TA.AperFunction,SMDPad,CuDef*
D10*
G36*
X120738874Y-99927526D02*
G01*
X119790176Y-99877807D01*
X119858212Y-98579588D01*
X120806910Y-98629307D01*
X120738874Y-99927526D01*
G37*
G04 #@! TD.AperFunction*
G04 #@! TA.AperFunction,SMDPad,CuDef*
G36*
X120924666Y-96382392D02*
G01*
X119975968Y-96332673D01*
X120044004Y-95034454D01*
X120992702Y-95084173D01*
X120924666Y-96382392D01*
G37*
G04 #@! TD.AperFunction*
D18*
X99541310Y-98930260D03*
X99541310Y-102480260D03*
D19*
X99541310Y-104255260D03*
D11*
X99541310Y-97155260D03*
D18*
X81991265Y-99130252D03*
X81991265Y-102680252D03*
D19*
X81991265Y-104455252D03*
D11*
X81991265Y-97355252D03*
X178545166Y-79825352D03*
G04 #@! TA.AperFunction,ComponentPad*
D17*
G36*
X178834566Y-87649721D02*
G01*
X177439481Y-87576608D01*
X177512594Y-86181523D01*
X178907679Y-86254636D01*
X178834566Y-87649721D01*
G37*
G04 #@! TD.AperFunction*
G04 #@! TA.AperFunction,SMDPad,CuDef*
D10*
G36*
X178706808Y-85817023D02*
G01*
X177758110Y-85767304D01*
X177826146Y-84469085D01*
X178774844Y-84518804D01*
X178706808Y-85817023D01*
G37*
G04 #@! TD.AperFunction*
G04 #@! TA.AperFunction,SMDPad,CuDef*
G36*
X178892600Y-82271889D02*
G01*
X177943902Y-82222170D01*
X178011938Y-80923951D01*
X178960636Y-80973670D01*
X178892600Y-82271889D01*
G37*
G04 #@! TD.AperFunction*
D11*
X159653404Y-76306788D03*
G04 #@! TA.AperFunction,ComponentPad*
D17*
G36*
X159942804Y-84131157D02*
G01*
X158547719Y-84058044D01*
X158620832Y-82662959D01*
X160015917Y-82736072D01*
X159942804Y-84131157D01*
G37*
G04 #@! TD.AperFunction*
G04 #@! TA.AperFunction,SMDPad,CuDef*
D10*
G36*
X159815046Y-82298459D02*
G01*
X158866348Y-82248740D01*
X158934384Y-80950521D01*
X159883082Y-81000240D01*
X159815046Y-82298459D01*
G37*
G04 #@! TD.AperFunction*
G04 #@! TA.AperFunction,SMDPad,CuDef*
G36*
X160000838Y-78753325D02*
G01*
X159052140Y-78703606D01*
X159120176Y-77405387D01*
X160068874Y-77455106D01*
X160000838Y-78753325D01*
G37*
G04 #@! TD.AperFunction*
D11*
X140731574Y-73362469D03*
G04 #@! TA.AperFunction,ComponentPad*
D17*
G36*
X141020974Y-81186838D02*
G01*
X139625889Y-81113725D01*
X139699002Y-79718640D01*
X141094087Y-79791753D01*
X141020974Y-81186838D01*
G37*
G04 #@! TD.AperFunction*
G04 #@! TA.AperFunction,SMDPad,CuDef*
D10*
G36*
X140893216Y-79354140D02*
G01*
X139944518Y-79304421D01*
X140012554Y-78006202D01*
X140961252Y-78055921D01*
X140893216Y-79354140D01*
G37*
G04 #@! TD.AperFunction*
G04 #@! TA.AperFunction,SMDPad,CuDef*
G36*
X141079008Y-75809006D02*
G01*
X140130310Y-75759287D01*
X140198346Y-74461068D01*
X141147044Y-74510787D01*
X141079008Y-75809006D01*
G37*
G04 #@! TD.AperFunction*
D11*
X121576840Y-74862055D03*
G04 #@! TA.AperFunction,ComponentPad*
D17*
G36*
X121866240Y-82686424D02*
G01*
X120471155Y-82613311D01*
X120544268Y-81218226D01*
X121939353Y-81291339D01*
X121866240Y-82686424D01*
G37*
G04 #@! TD.AperFunction*
G04 #@! TA.AperFunction,SMDPad,CuDef*
D10*
G36*
X121738482Y-80853726D02*
G01*
X120789784Y-80804007D01*
X120857820Y-79505788D01*
X121806518Y-79555507D01*
X121738482Y-80853726D01*
G37*
G04 #@! TD.AperFunction*
G04 #@! TA.AperFunction,SMDPad,CuDef*
G36*
X121924274Y-77308592D02*
G01*
X120975576Y-77258873D01*
X121043612Y-75960654D01*
X121992310Y-76010373D01*
X121924274Y-77308592D01*
G37*
G04 #@! TD.AperFunction*
D18*
X99591274Y-78880254D03*
X99591274Y-82430254D03*
D19*
X99591274Y-84205254D03*
D11*
X99591274Y-77105254D03*
D18*
X81942940Y-80132380D03*
X81942940Y-83682380D03*
D19*
X81942940Y-85457380D03*
D11*
X81942940Y-78357380D03*
X90382135Y-134072308D03*
G04 #@! TA.AperFunction,ComponentPad*
D17*
G36*
X95215315Y-140232251D02*
G01*
X94043692Y-140993112D01*
X93282831Y-139821489D01*
X94454454Y-139060628D01*
X95215315Y-140232251D01*
G37*
G04 #@! TD.AperFunction*
G04 #@! TA.AperFunction,SMDPad,CuDef*
D10*
G36*
X94034722Y-138824661D02*
G01*
X93237985Y-139342068D01*
X92529954Y-138251797D01*
X93326691Y-137734390D01*
X94034722Y-138824661D01*
G37*
G04 #@! TD.AperFunction*
G04 #@! TA.AperFunction,SMDPad,CuDef*
G36*
X92101254Y-135847381D02*
G01*
X91304517Y-136364788D01*
X90596486Y-135274517D01*
X91393223Y-134757110D01*
X92101254Y-135847381D01*
G37*
G04 #@! TD.AperFunction*
D11*
X177611642Y-59423518D03*
G04 #@! TA.AperFunction,ComponentPad*
D17*
G36*
X177901042Y-67247887D02*
G01*
X176505957Y-67174774D01*
X176579070Y-65779689D01*
X177974155Y-65852802D01*
X177901042Y-67247887D01*
G37*
G04 #@! TD.AperFunction*
G04 #@! TA.AperFunction,SMDPad,CuDef*
D10*
G36*
X177773284Y-65415189D02*
G01*
X176824586Y-65365470D01*
X176892622Y-64067251D01*
X177841320Y-64116970D01*
X177773284Y-65415189D01*
G37*
G04 #@! TD.AperFunction*
G04 #@! TA.AperFunction,SMDPad,CuDef*
G36*
X177959076Y-61870055D02*
G01*
X177010378Y-61820336D01*
X177078414Y-60522117D01*
X178027112Y-60571836D01*
X177959076Y-61870055D01*
G37*
G04 #@! TD.AperFunction*
D11*
X160650404Y-57282917D03*
G04 #@! TA.AperFunction,ComponentPad*
D17*
G36*
X160939804Y-65107286D02*
G01*
X159544719Y-65034173D01*
X159617832Y-63639088D01*
X161012917Y-63712201D01*
X160939804Y-65107286D01*
G37*
G04 #@! TD.AperFunction*
G04 #@! TA.AperFunction,SMDPad,CuDef*
D10*
G36*
X160812046Y-63274588D02*
G01*
X159863348Y-63224869D01*
X159931384Y-61926650D01*
X160880082Y-61976369D01*
X160812046Y-63274588D01*
G37*
G04 #@! TD.AperFunction*
G04 #@! TA.AperFunction,SMDPad,CuDef*
G36*
X160997838Y-59729454D02*
G01*
X160049140Y-59679735D01*
X160117176Y-58381516D01*
X161065874Y-58431235D01*
X160997838Y-59729454D01*
G37*
G04 #@! TD.AperFunction*
D11*
X133705233Y-65083400D03*
G04 #@! TA.AperFunction,ComponentPad*
D17*
G36*
X125880864Y-65372800D02*
G01*
X125953977Y-63977715D01*
X127349062Y-64050828D01*
X127275949Y-65445913D01*
X125880864Y-65372800D01*
G37*
G04 #@! TD.AperFunction*
G04 #@! TA.AperFunction,SMDPad,CuDef*
D10*
G36*
X127713562Y-65245042D02*
G01*
X127763281Y-64296344D01*
X129061500Y-64364380D01*
X129011781Y-65313078D01*
X127713562Y-65245042D01*
G37*
G04 #@! TD.AperFunction*
G04 #@! TA.AperFunction,SMDPad,CuDef*
G36*
X131258696Y-65430834D02*
G01*
X131308415Y-64482136D01*
X132606634Y-64550172D01*
X132556915Y-65498870D01*
X131258696Y-65430834D01*
G37*
G04 #@! TD.AperFunction*
D11*
X122576463Y-55788252D03*
G04 #@! TA.AperFunction,ComponentPad*
D17*
G36*
X122865863Y-63612621D02*
G01*
X121470778Y-63539508D01*
X121543891Y-62144423D01*
X122938976Y-62217536D01*
X122865863Y-63612621D01*
G37*
G04 #@! TD.AperFunction*
G04 #@! TA.AperFunction,SMDPad,CuDef*
D10*
G36*
X122738105Y-61779923D02*
G01*
X121789407Y-61730204D01*
X121857443Y-60431985D01*
X122806141Y-60481704D01*
X122738105Y-61779923D01*
G37*
G04 #@! TD.AperFunction*
G04 #@! TA.AperFunction,SMDPad,CuDef*
G36*
X122923897Y-58234789D02*
G01*
X121975199Y-58185070D01*
X122043235Y-56886851D01*
X122991933Y-56936570D01*
X122923897Y-58234789D01*
G37*
G04 #@! TD.AperFunction*
D18*
X99591292Y-59830262D03*
X99591292Y-63380262D03*
D19*
X99591292Y-65155262D03*
D11*
X99591292Y-58055262D03*
D18*
X81991280Y-61030239D03*
X81991280Y-64580239D03*
D19*
X81991280Y-66355239D03*
D11*
X81991280Y-59255239D03*
X178545844Y-39304830D03*
G04 #@! TA.AperFunction,ComponentPad*
D17*
G36*
X178835244Y-47129199D02*
G01*
X177440159Y-47056086D01*
X177513272Y-45661001D01*
X178908357Y-45734114D01*
X178835244Y-47129199D01*
G37*
G04 #@! TD.AperFunction*
G04 #@! TA.AperFunction,SMDPad,CuDef*
D10*
G36*
X178707486Y-45296501D02*
G01*
X177758788Y-45246782D01*
X177826824Y-43948563D01*
X178775522Y-43998282D01*
X178707486Y-45296501D01*
G37*
G04 #@! TD.AperFunction*
G04 #@! TA.AperFunction,SMDPad,CuDef*
G36*
X178893278Y-41751367D02*
G01*
X177944580Y-41701648D01*
X178012616Y-40403429D01*
X178961314Y-40453148D01*
X178893278Y-41751367D01*
G37*
G04 #@! TD.AperFunction*
D11*
X161767264Y-38265305D03*
G04 #@! TA.AperFunction,ComponentPad*
D17*
G36*
X162056664Y-46089674D02*
G01*
X160661579Y-46016561D01*
X160734692Y-44621476D01*
X162129777Y-44694589D01*
X162056664Y-46089674D01*
G37*
G04 #@! TD.AperFunction*
G04 #@! TA.AperFunction,SMDPad,CuDef*
D10*
G36*
X161928906Y-44256976D02*
G01*
X160980208Y-44207257D01*
X161048244Y-42909038D01*
X161996942Y-42958757D01*
X161928906Y-44256976D01*
G37*
G04 #@! TD.AperFunction*
G04 #@! TA.AperFunction,SMDPad,CuDef*
G36*
X162114698Y-40711842D02*
G01*
X161166000Y-40662123D01*
X161234036Y-39363904D01*
X162182734Y-39413623D01*
X162114698Y-40711842D01*
G37*
G04 #@! TD.AperFunction*
D11*
X142728162Y-35264765D03*
G04 #@! TA.AperFunction,ComponentPad*
D17*
G36*
X143017562Y-43089134D02*
G01*
X141622477Y-43016021D01*
X141695590Y-41620936D01*
X143090675Y-41694049D01*
X143017562Y-43089134D01*
G37*
G04 #@! TD.AperFunction*
G04 #@! TA.AperFunction,SMDPad,CuDef*
D10*
G36*
X142889804Y-41256436D02*
G01*
X141941106Y-41206717D01*
X142009142Y-39908498D01*
X142957840Y-39958217D01*
X142889804Y-41256436D01*
G37*
G04 #@! TD.AperFunction*
G04 #@! TA.AperFunction,SMDPad,CuDef*
G36*
X143075596Y-37711302D02*
G01*
X142126898Y-37661583D01*
X142194934Y-36363364D01*
X143143632Y-36413083D01*
X143075596Y-37711302D01*
G37*
G04 #@! TD.AperFunction*
D11*
X123573451Y-36764320D03*
G04 #@! TA.AperFunction,ComponentPad*
D17*
G36*
X123862851Y-44588689D02*
G01*
X122467766Y-44515576D01*
X122540879Y-43120491D01*
X123935964Y-43193604D01*
X123862851Y-44588689D01*
G37*
G04 #@! TD.AperFunction*
G04 #@! TA.AperFunction,SMDPad,CuDef*
D10*
G36*
X123735093Y-42755991D02*
G01*
X122786395Y-42706272D01*
X122854431Y-41408053D01*
X123803129Y-41457772D01*
X123735093Y-42755991D01*
G37*
G04 #@! TD.AperFunction*
G04 #@! TA.AperFunction,SMDPad,CuDef*
G36*
X123920885Y-39210857D02*
G01*
X122972187Y-39161138D01*
X123040223Y-37862919D01*
X123988921Y-37912638D01*
X123920885Y-39210857D01*
G37*
G04 #@! TD.AperFunction*
D18*
X99571238Y-39640250D03*
X99571238Y-43190250D03*
D19*
X99571238Y-44965250D03*
D11*
X99571238Y-37865250D03*
D18*
X81991287Y-41930276D03*
X81991287Y-45480276D03*
D19*
X81991287Y-47255276D03*
D11*
X81991287Y-40155276D03*
D20*
X99090507Y-52655270D03*
X100091267Y-52655270D03*
G04 #@! TA.AperFunction,SMDPad,CuDef*
D10*
G36*
X141300249Y-55489255D02*
G01*
X141360069Y-54347822D01*
X141994199Y-54381055D01*
X141934379Y-55522488D01*
X141300249Y-55489255D01*
G37*
G04 #@! TD.AperFunction*
G04 #@! TA.AperFunction,SMDPad,CuDef*
G36*
X140300861Y-55436879D02*
G01*
X140360681Y-54295446D01*
X140994811Y-54328679D01*
X140934991Y-55470112D01*
X140300861Y-55436879D01*
G37*
G04 #@! TD.AperFunction*
G04 #@! TA.AperFunction,SMDPad,CuDef*
G36*
X179134972Y-54868528D02*
G01*
X179194792Y-53727095D01*
X179828922Y-53760328D01*
X179769102Y-54901761D01*
X179134972Y-54868528D01*
G37*
G04 #@! TD.AperFunction*
G04 #@! TA.AperFunction,SMDPad,CuDef*
G36*
X178135584Y-54816152D02*
G01*
X178195404Y-53674719D01*
X178829534Y-53707952D01*
X178769714Y-54849385D01*
X178135584Y-54816152D01*
G37*
G04 #@! TD.AperFunction*
D13*
X95741259Y-73085247D03*
X83041259Y-75625247D03*
X114791272Y-54035247D03*
X102091272Y-56575247D03*
G04 #@! TA.AperFunction,SMDPad,CuDef*
D10*
G36*
X123969032Y-71252321D02*
G01*
X123864360Y-73249580D01*
X121567512Y-73129207D01*
X121672184Y-71131948D01*
X123969032Y-71252321D01*
G37*
G04 #@! TD.AperFunction*
G04 #@! TA.AperFunction,SMDPad,CuDef*
G36*
X136784560Y-69380469D02*
G01*
X136679888Y-71377728D01*
X134383040Y-71257355D01*
X134487712Y-69260096D01*
X136784560Y-69380469D01*
G37*
G04 #@! TD.AperFunction*
G04 #@! TA.AperFunction,SMDPad,CuDef*
G36*
X180936051Y-76240578D02*
G01*
X180831379Y-78237837D01*
X178534531Y-78117464D01*
X178639203Y-76120205D01*
X180936051Y-76240578D01*
G37*
G04 #@! TD.AperFunction*
G04 #@! TA.AperFunction,SMDPad,CuDef*
G36*
X193751579Y-74368726D02*
G01*
X193646907Y-76365985D01*
X191350059Y-76245612D01*
X191454731Y-74248353D01*
X193751579Y-74368726D01*
G37*
G04 #@! TD.AperFunction*
D13*
X95741246Y-92135235D03*
X83041246Y-94675235D03*
G04 #@! TA.AperFunction,SMDPad,CuDef*
D10*
G36*
X143123750Y-69752754D02*
G01*
X143019078Y-71750013D01*
X140722230Y-71629640D01*
X140826902Y-69632381D01*
X143123750Y-69752754D01*
G37*
G04 #@! TD.AperFunction*
G04 #@! TA.AperFunction,SMDPad,CuDef*
G36*
X155939278Y-67880902D02*
G01*
X155834606Y-69878161D01*
X153537758Y-69757788D01*
X153642430Y-67760529D01*
X155939278Y-67880902D01*
G37*
G04 #@! TD.AperFunction*
D11*
X222564392Y-82455756D03*
X222165592Y-90065314D03*
G04 #@! TA.AperFunction,SMDPad,CuDef*
G36*
G01*
X222883155Y-88315469D02*
X221634869Y-88250049D01*
G75*
G02*
X221398296Y-87987308I13084J249657D01*
G01*
X221437548Y-87238336D01*
G75*
G02*
X221700289Y-87001763I249657J-13084D01*
G01*
X222948575Y-87067183D01*
G75*
G02*
X223185148Y-87329924I-13084J-249657D01*
G01*
X223145896Y-88078896D01*
G75*
G02*
X222883155Y-88315469I-249657J13084D01*
G01*
G37*
G04 #@! TD.AperFunction*
G04 #@! TA.AperFunction,SMDPad,CuDef*
G36*
G01*
X223029695Y-85519307D02*
X221781409Y-85453887D01*
G75*
G02*
X221544836Y-85191146I13084J249657D01*
G01*
X221584088Y-84442174D01*
G75*
G02*
X221846829Y-84205601I249657J-13084D01*
G01*
X223095115Y-84271021D01*
G75*
G02*
X223331688Y-84533762I-13084J-249657D01*
G01*
X223292436Y-85282734D01*
G75*
G02*
X223029695Y-85519307I-249657J13084D01*
G01*
G37*
G04 #@! TD.AperFunction*
D21*
X222291722Y-87658616D03*
X222438262Y-84862454D03*
D11*
X224961808Y-90211824D03*
X225360608Y-82602266D03*
G04 #@! TA.AperFunction,SMDPad,CuDef*
G36*
G01*
X224643045Y-84352111D02*
X225891331Y-84417531D01*
G75*
G02*
X226127904Y-84680272I-13084J-249657D01*
G01*
X226088652Y-85429244D01*
G75*
G02*
X225825911Y-85665817I-249657J13084D01*
G01*
X224577625Y-85600397D01*
G75*
G02*
X224341052Y-85337656I13084J249657D01*
G01*
X224380304Y-84588684D01*
G75*
G02*
X224643045Y-84352111I249657J-13084D01*
G01*
G37*
G04 #@! TD.AperFunction*
G04 #@! TA.AperFunction,SMDPad,CuDef*
G36*
G01*
X224496505Y-87148273D02*
X225744791Y-87213693D01*
G75*
G02*
X225981364Y-87476434I-13084J-249657D01*
G01*
X225942112Y-88225406D01*
G75*
G02*
X225679371Y-88461979I-249657J13084D01*
G01*
X224431085Y-88396559D01*
G75*
G02*
X224194512Y-88133818I13084J249657D01*
G01*
X224233764Y-87384846D01*
G75*
G02*
X224496505Y-87148273I249657J-13084D01*
G01*
G37*
G04 #@! TD.AperFunction*
D21*
X225234478Y-85008964D03*
X225087938Y-87805126D03*
D16*
X132985375Y-123060246D03*
X137923817Y-122278073D03*
G04 #@! TA.AperFunction,ComponentPad*
D17*
G36*
X127590517Y-115207507D02*
G01*
X129565893Y-114894638D01*
X130066483Y-118055241D01*
X128091107Y-118368110D01*
X127590517Y-115207507D01*
G37*
G04 #@! TD.AperFunction*
G04 #@! TA.AperFunction,ComponentPad*
G36*
X138652627Y-113455441D02*
G01*
X140628003Y-113142572D01*
X141128593Y-116303175D01*
X139153217Y-116616044D01*
X138652627Y-113455441D01*
G37*
G04 #@! TD.AperFunction*
D16*
X130717076Y-108738765D03*
X133186297Y-108347678D03*
X135655517Y-107956592D03*
X210734205Y-105278432D03*
X206404077Y-102778432D03*
G04 #@! TA.AperFunction,ComponentPad*
D17*
G36*
X209984908Y-114776251D02*
G01*
X208252858Y-113776251D01*
X209852858Y-111004969D01*
X211584908Y-112004969D01*
X209984908Y-114776251D01*
G37*
G04 #@! TD.AperFunction*
G04 #@! TA.AperFunction,ComponentPad*
G36*
X200285424Y-109176251D02*
G01*
X198553374Y-108176251D01*
X200153374Y-105404969D01*
X201885424Y-106404969D01*
X200285424Y-109176251D01*
G37*
G04 #@! TD.AperFunction*
D16*
X203484205Y-117835801D03*
X201319141Y-116585801D03*
X199154077Y-115335801D03*
D14*
X199520958Y-91647011D03*
X222483317Y-104884710D03*
D15*
X202176520Y-62694396D03*
X216465101Y-81247629D03*
X201644787Y-72840472D03*
X216996835Y-71101553D03*
X217262701Y-66028515D03*
X201113054Y-82986548D03*
X217395635Y-63491996D03*
X217661501Y-58418958D03*
X201378921Y-77913510D03*
X216199235Y-86320667D03*
X201777720Y-70303953D03*
X202309454Y-60157877D03*
X202043587Y-65230915D03*
X201910654Y-67767434D03*
X201245987Y-80450029D03*
X201511854Y-75376991D03*
X216598035Y-78711110D03*
X216730968Y-76174591D03*
X200980121Y-85523067D03*
X216332168Y-83784148D03*
X217528568Y-60955477D03*
X202442387Y-57621358D03*
X216863901Y-73638072D03*
X217129768Y-68565034D03*
X201207933Y-56359277D03*
X201074999Y-58895796D03*
X200942066Y-61432315D03*
X200809133Y-63968834D03*
X200676199Y-66505353D03*
X200543266Y-69041872D03*
X200410333Y-71578391D03*
X200277399Y-74114910D03*
X200144466Y-76651429D03*
X200011533Y-79187948D03*
X199878599Y-81724467D03*
X199745666Y-84260986D03*
X214964780Y-85058586D03*
X215097713Y-82522067D03*
X215230647Y-79985548D03*
X215363580Y-77449029D03*
X215496513Y-74912510D03*
X215629447Y-72375991D03*
X215762380Y-69839472D03*
X215895313Y-67302953D03*
X216028247Y-64766434D03*
X216161180Y-62229915D03*
X216294113Y-59693396D03*
X216427047Y-57156877D03*
D13*
X114791251Y-92135251D03*
X102091251Y-94675251D03*
G04 #@! TA.AperFunction,SMDPad,CuDef*
D10*
G36*
X201792892Y-104065239D02*
G01*
X200792892Y-105797289D01*
X198801034Y-104647289D01*
X199801034Y-102915239D01*
X201792892Y-104065239D01*
G37*
G04 #@! TD.AperFunction*
G04 #@! TA.AperFunction,SMDPad,CuDef*
G36*
X214061415Y-108215535D02*
G01*
X213061415Y-109947585D01*
X211069557Y-108797585D01*
X212069557Y-107065535D01*
X214061415Y-108215535D01*
G37*
G04 #@! TD.AperFunction*
G04 #@! TA.AperFunction,SMDPad,CuDef*
G36*
X181933038Y-57216657D02*
G01*
X181828366Y-59213916D01*
X179531518Y-59093543D01*
X179636190Y-57096284D01*
X181933038Y-57216657D01*
G37*
G04 #@! TD.AperFunction*
G04 #@! TA.AperFunction,SMDPad,CuDef*
G36*
X194748566Y-55344805D02*
G01*
X194643894Y-57342064D01*
X192347046Y-57221691D01*
X192451718Y-55224432D01*
X194748566Y-55344805D01*
G37*
G04 #@! TD.AperFunction*
G04 #@! TA.AperFunction,SMDPad,CuDef*
G36*
X163013825Y-54222416D02*
G01*
X162909153Y-56219675D01*
X160612305Y-56099302D01*
X160716977Y-54102043D01*
X163013825Y-54222416D01*
G37*
G04 #@! TD.AperFunction*
G04 #@! TA.AperFunction,SMDPad,CuDef*
G36*
X175829353Y-52350564D02*
G01*
X175724681Y-54347823D01*
X173427833Y-54227450D01*
X173532505Y-52230191D01*
X175829353Y-52350564D01*
G37*
G04 #@! TD.AperFunction*
G04 #@! TA.AperFunction,SMDPad,CuDef*
G36*
X164010833Y-35198502D02*
G01*
X163906161Y-37195761D01*
X161609313Y-37075388D01*
X161713985Y-35078129D01*
X164010833Y-35198502D01*
G37*
G04 #@! TD.AperFunction*
G04 #@! TA.AperFunction,SMDPad,CuDef*
G36*
X176826361Y-33326650D02*
G01*
X176721689Y-35323909D01*
X174424841Y-35203536D01*
X174529513Y-33206277D01*
X176826361Y-33326650D01*
G37*
G04 #@! TD.AperFunction*
G04 #@! TA.AperFunction,SMDPad,CuDef*
G36*
X144120754Y-50728859D02*
G01*
X144016082Y-52726118D01*
X141719234Y-52605745D01*
X141823906Y-50608486D01*
X144120754Y-50728859D01*
G37*
G04 #@! TD.AperFunction*
G04 #@! TA.AperFunction,SMDPad,CuDef*
G36*
X156936282Y-48857007D02*
G01*
X156831610Y-50854266D01*
X154534762Y-50733893D01*
X154639434Y-48736634D01*
X156936282Y-48857007D01*
G37*
G04 #@! TD.AperFunction*
G04 #@! TA.AperFunction,SMDPad,CuDef*
G36*
X157933270Y-29833112D02*
G01*
X157828598Y-31830371D01*
X155531750Y-31709998D01*
X155636422Y-29712739D01*
X157933270Y-29833112D01*
G37*
G04 #@! TD.AperFunction*
G04 #@! TA.AperFunction,SMDPad,CuDef*
G36*
X145117742Y-31704964D02*
G01*
X145013070Y-33702223D01*
X142716222Y-33581850D01*
X142820894Y-31584591D01*
X145117742Y-31704964D01*
G37*
G04 #@! TD.AperFunction*
G04 #@! TA.AperFunction,SMDPad,CuDef*
G36*
X124966022Y-52228423D02*
G01*
X124861350Y-54225682D01*
X122564502Y-54105309D01*
X122669174Y-52108050D01*
X124966022Y-52228423D01*
G37*
G04 #@! TD.AperFunction*
G04 #@! TA.AperFunction,SMDPad,CuDef*
G36*
X137781550Y-50356571D02*
G01*
X137676878Y-52353830D01*
X135380030Y-52233457D01*
X135484702Y-50236198D01*
X137781550Y-50356571D01*
G37*
G04 #@! TD.AperFunction*
G04 #@! TA.AperFunction,SMDPad,CuDef*
G36*
X125963024Y-33204533D02*
G01*
X125858352Y-35201792D01*
X123561504Y-35081419D01*
X123666176Y-33084160D01*
X125963024Y-33204533D01*
G37*
G04 #@! TD.AperFunction*
G04 #@! TA.AperFunction,SMDPad,CuDef*
G36*
X138778552Y-31332681D02*
G01*
X138673880Y-33329940D01*
X136377032Y-33209567D01*
X136481704Y-31212308D01*
X138778552Y-31332681D01*
G37*
G04 #@! TD.AperFunction*
G04 #@! TA.AperFunction,SMDPad,CuDef*
G36*
X90222955Y-129787726D02*
G01*
X91312233Y-131465067D01*
X89383291Y-132717736D01*
X88294013Y-131040395D01*
X90222955Y-129787726D01*
G37*
G04 #@! TD.AperFunction*
G04 #@! TA.AperFunction,SMDPad,CuDef*
G36*
X99490688Y-120740587D02*
G01*
X100579966Y-122417928D01*
X98651024Y-123670597D01*
X97561746Y-121993256D01*
X99490688Y-120740587D01*
G37*
G04 #@! TD.AperFunction*
D13*
X95741274Y-34985231D03*
X83041274Y-37525231D03*
D16*
X225655419Y-70899542D03*
X225996650Y-64388477D03*
G04 #@! TA.AperFunction,ComponentPad*
D17*
G36*
X213757603Y-93865159D02*
G01*
X215854725Y-93975064D01*
X215791921Y-95173419D01*
X213694799Y-95063514D01*
X213757603Y-93865159D01*
G37*
G04 #@! TD.AperFunction*
G04 #@! TA.AperFunction,ComponentPad*
G36*
X212039848Y-97980899D02*
G01*
X214136970Y-98090804D01*
X214074166Y-99289159D01*
X211977044Y-99179254D01*
X212039848Y-97980899D01*
G37*
G04 #@! TD.AperFunction*
G04 #@! TA.AperFunction,ComponentPad*
G36*
X220748010Y-94231511D02*
G01*
X222845132Y-94341416D01*
X222782328Y-95539771D01*
X220685206Y-95429866D01*
X220748010Y-94231511D01*
G37*
G04 #@! TD.AperFunction*
G04 #@! TA.AperFunction,ComponentPad*
G36*
X217752121Y-94074503D02*
G01*
X219849243Y-94184408D01*
X219786439Y-95382763D01*
X217689317Y-95272858D01*
X217752121Y-94074503D01*
G37*
G04 #@! TD.AperFunction*
G04 #@! TA.AperFunction,ComponentPad*
G36*
X220436611Y-100173356D02*
G01*
X222533733Y-100283261D01*
X222470929Y-101481616D01*
X220373807Y-101371711D01*
X220436611Y-100173356D01*
G37*
G04 #@! TD.AperFunction*
G04 #@! TA.AperFunction,ComponentPad*
G36*
X217440722Y-100016348D02*
G01*
X219537844Y-100126253D01*
X219475040Y-101324608D01*
X217377918Y-101214703D01*
X217440722Y-100016348D01*
G37*
G04 #@! TD.AperFunction*
G04 #@! TA.AperFunction,ComponentPad*
G36*
X213446204Y-99807005D02*
G01*
X215543326Y-99916910D01*
X215480522Y-101115265D01*
X213383400Y-101005360D01*
X213446204Y-99807005D01*
G37*
G04 #@! TD.AperFunction*
G04 #@! TA.AperFunction,ComponentPad*
G36*
X212168071Y-95534257D02*
G01*
X214265193Y-95644162D01*
X214202389Y-96842517D01*
X212105267Y-96732612D01*
X212168071Y-95534257D01*
G37*
G04 #@! TD.AperFunction*
D22*
X136765498Y-59235554D03*
X142520681Y-59286822D03*
X144557255Y-47176817D03*
X103691297Y-71255246D03*
X124544851Y-67907883D03*
X143802045Y-66363598D03*
X162035883Y-69061562D03*
X180904830Y-73014535D03*
X123411256Y-87149888D03*
X142607972Y-85327095D03*
X162302480Y-88432064D03*
X180299439Y-92209144D03*
D23*
X117691292Y-63755221D03*
X157917482Y-76756567D03*
X157842218Y-62142591D03*
X157749594Y-79797187D03*
X144723931Y-99216880D03*
X164612725Y-42820483D03*
X126365232Y-40816004D03*
X106391239Y-47905271D03*
X103941238Y-47905230D03*
X118541289Y-79705234D03*
X118591271Y-55705242D03*
X116741261Y-50955238D03*
X179345241Y-102773697D03*
X126158499Y-44760601D03*
X128327784Y-110667678D03*
X148864066Y-109676592D03*
X192378982Y-119335244D03*
X226496864Y-78563459D03*
X183899252Y-45088317D03*
X145886829Y-38367613D03*
X147656736Y-42467926D03*
X127760400Y-58603343D03*
X143724071Y-58298465D03*
X165843945Y-60599275D03*
X182045677Y-66214891D03*
X184185002Y-63687528D03*
X183712331Y-82498557D03*
X164771185Y-79619191D03*
X145908108Y-76127191D03*
X126703458Y-77624123D03*
X125776366Y-96651683D03*
X140984657Y-95856539D03*
X163572137Y-102802311D03*
X163774199Y-98643080D03*
X182706030Y-101587927D03*
X103941249Y-43155237D03*
X103941258Y-46402360D03*
X87331235Y-42745225D03*
X87301299Y-61795223D03*
X104241285Y-66055265D03*
X87241259Y-80305240D03*
X102230244Y-82343359D03*
X107268373Y-80845245D03*
X87398382Y-99895224D03*
X106388380Y-99855221D03*
X96115020Y-133210981D03*
X126400867Y-101311504D03*
X151005756Y-108358872D03*
X171485208Y-113874245D03*
X197120842Y-118371364D03*
X193999449Y-116528457D03*
X197982573Y-111427583D03*
X210791358Y-131916008D03*
X217838915Y-126440501D03*
X218337410Y-93037521D03*
X206831933Y-92434546D03*
D22*
X208808117Y-85748184D03*
D23*
X194951835Y-109677794D03*
X118541273Y-97333736D03*
X213392439Y-127169712D03*
X203248534Y-92651592D03*
X219080263Y-78862871D03*
X195309188Y-102245581D03*
X104020232Y-103663360D03*
X103153163Y-127895121D03*
X213691015Y-63393913D03*
X191813370Y-49252853D03*
X137276545Y-64769896D03*
X137779415Y-80968414D03*
X154627728Y-83353459D03*
X188652624Y-52241543D03*
X156669912Y-84511923D03*
X156060205Y-96145934D03*
X114591301Y-84905228D03*
X117641287Y-84905263D03*
X95241246Y-47105253D03*
X191743941Y-67774594D03*
X174609591Y-67026822D03*
X174727115Y-63828602D03*
X158911309Y-59895478D03*
X164074035Y-66474697D03*
X114791265Y-43505247D03*
X125213771Y-38903129D03*
X136662401Y-39993779D03*
X136782777Y-43459982D03*
X139872643Y-40071910D03*
X156634143Y-42011799D03*
X158886543Y-43171265D03*
X206032943Y-62992580D03*
X194389660Y-88466418D03*
X97591270Y-64555241D03*
X123603395Y-64854386D03*
X118116284Y-101430243D03*
X191182737Y-44853830D03*
X176483245Y-43217247D03*
X152999251Y-98949589D03*
X155432556Y-57009460D03*
X95641294Y-82805234D03*
X97591285Y-82805255D03*
X175085158Y-43143991D03*
X183514851Y-114812322D03*
X192303769Y-69511721D03*
X196648721Y-69738573D03*
X151307878Y-107339418D03*
X212779441Y-129329905D03*
X204738542Y-120417575D03*
X197567371Y-53104272D03*
X217829506Y-133626688D03*
X119598834Y-62188520D03*
X194114371Y-93719303D03*
X191390562Y-103177990D03*
X193612742Y-103290502D03*
X202573013Y-126023339D03*
X220111885Y-111310688D03*
X132898042Y-63288718D03*
X170938027Y-66834402D03*
X188871952Y-88153676D03*
X154881560Y-78510094D03*
X134813284Y-81749587D03*
X133616171Y-101343794D03*
X172606667Y-102546037D03*
X92791284Y-46754411D03*
X95260239Y-65763358D03*
X110681261Y-61795234D03*
X114920082Y-65020905D03*
X95760237Y-99953364D03*
X111841270Y-103834412D03*
X103000141Y-133672586D03*
X137964748Y-108666804D03*
X159991221Y-110906159D03*
X207963368Y-115700398D03*
X221655936Y-138224009D03*
X227814290Y-131802702D03*
X197130077Y-61247370D03*
X204304768Y-62644264D03*
X175244706Y-102676249D03*
X173162259Y-83767659D03*
X132352031Y-103416648D03*
X202993518Y-123439977D03*
X176243116Y-83625666D03*
D22*
X206605409Y-85742250D03*
X208359360Y-85019341D03*
D23*
X104844366Y-130499334D03*
D22*
X221195454Y-68778099D03*
X220295316Y-86144784D03*
X206723712Y-66822289D03*
X212712750Y-85761911D03*
X205801249Y-84598596D03*
X220323538Y-71275885D03*
X219827724Y-87517326D03*
X211843607Y-69634071D03*
X209905648Y-85824108D03*
X198670400Y-71487185D03*
X199536437Y-54698713D03*
X122024273Y-66323760D03*
X195912193Y-73585714D03*
X196040975Y-71319354D03*
X140783833Y-83829569D03*
X159130039Y-86293096D03*
X195066462Y-89266553D03*
X194789121Y-94558013D03*
X220829659Y-112728863D03*
X195713623Y-76419204D03*
X139245260Y-101723552D03*
X177027623Y-108590534D03*
X193595575Y-112887176D03*
X196669598Y-95863580D03*
X119982268Y-105555231D03*
X140748932Y-104455607D03*
X192629153Y-117475578D03*
X205436692Y-124118518D03*
X193239985Y-82390946D03*
X202356418Y-124281697D03*
X205291255Y-58026124D03*
X206136681Y-125343826D03*
X217714387Y-108997142D03*
X205900725Y-97960820D03*
X221837044Y-68666651D03*
X94691274Y-32605245D03*
X213207463Y-70902947D03*
X94896273Y-52250226D03*
X97473869Y-121114344D03*
X94891261Y-71255243D03*
X94891258Y-90305238D03*
X96591287Y-70755243D03*
X96080580Y-101455220D03*
X95277940Y-104876600D03*
X113841276Y-32605247D03*
X212916228Y-73431177D03*
X116691244Y-89005239D03*
X114096272Y-52250252D03*
X114791254Y-70505253D03*
X114791275Y-89905259D03*
X195665906Y-89982795D03*
X196567576Y-72586213D03*
X136895609Y-30002308D03*
X135930245Y-49473455D03*
X134773483Y-68488973D03*
X133983522Y-87478652D03*
X141443799Y-111746002D03*
X212673460Y-75961934D03*
X194242658Y-107262006D03*
X136310031Y-103438163D03*
X197475119Y-75165405D03*
X155569336Y-28127037D03*
X212480616Y-78495300D03*
X155184827Y-47979123D03*
X153038416Y-85973867D03*
X154823848Y-67191536D03*
X149193524Y-121340318D03*
X162714622Y-115502147D03*
X154859320Y-92309228D03*
X196810787Y-90683675D03*
X197480631Y-77711056D03*
X174554425Y-31775648D03*
X174067912Y-51472158D03*
X172981027Y-70491347D03*
X172033976Y-89517861D03*
X169360851Y-123865218D03*
X174869100Y-91453879D03*
X193483667Y-91167742D03*
X194019539Y-80751501D03*
X212616686Y-81045934D03*
X193765368Y-34935380D03*
X190903237Y-92509499D03*
X194646628Y-50602974D03*
X192612352Y-73177450D03*
X194184285Y-63246126D03*
X187006075Y-129976756D03*
X191908131Y-87570438D03*
X197800689Y-82884713D03*
X212828241Y-83600498D03*
X188107749Y-50260272D03*
X197541695Y-87865681D03*
X203396909Y-140685871D03*
X214314280Y-109789529D03*
X204196461Y-100202140D03*
X213420933Y-105050953D03*
X217864977Y-111839530D03*
X234802067Y-122398777D03*
X212404117Y-84924376D03*
X213280492Y-68363250D03*
X202008502Y-120384985D03*
X204578012Y-67907211D03*
X217329148Y-107956828D03*
X206414385Y-97091131D03*
X209588094Y-121364722D03*
X206892488Y-118941980D03*
X204435062Y-83916802D03*
X211455078Y-121576192D03*
X219093038Y-108345445D03*
X206913047Y-96247430D03*
X205134391Y-121987094D03*
X163948709Y-61861826D03*
X172097544Y-82071337D03*
X125719029Y-60574619D03*
X134300478Y-80070449D03*
X186219278Y-52814977D03*
X190980223Y-48908788D03*
X193750802Y-47036552D03*
X182918573Y-64858727D03*
X179393000Y-56011677D03*
X168916181Y-49554919D03*
X177259341Y-53127748D03*
X165796701Y-41606116D03*
X173170833Y-62240198D03*
X146656296Y-55848541D03*
X141563509Y-56532941D03*
X155177460Y-41224487D03*
X153147755Y-42807021D03*
X145244302Y-59074437D03*
X108791251Y-50555249D03*
X113820232Y-44813376D03*
X111841268Y-47102345D03*
X104640234Y-63883375D03*
X105750237Y-60913370D03*
X100091287Y-54155250D03*
X140320221Y-53037577D03*
X127820888Y-39790778D03*
X135167876Y-61058572D03*
X131070085Y-47533618D03*
X85600234Y-44813358D03*
X94970249Y-63873377D03*
X89403202Y-50931718D03*
X99090539Y-54154474D03*
X207045152Y-134406299D03*
X209323883Y-132005003D03*
X194345681Y-119656706D03*
X194560870Y-123027293D03*
X219201186Y-136216588D03*
X219753865Y-138684087D03*
X212669551Y-132057818D03*
X215046776Y-132618067D03*
X216526731Y-131058496D03*
X221869392Y-136110520D03*
X224306170Y-133542692D03*
X226288789Y-131623365D03*
X206845703Y-116556238D03*
X219047398Y-125482224D03*
X190293060Y-104033707D03*
X198641324Y-112246658D03*
X192006098Y-65334982D03*
X189980959Y-67976711D03*
X181893343Y-83936570D03*
X183752429Y-46552634D03*
X176618441Y-44250773D03*
X173920721Y-44710194D03*
X162961127Y-81572493D03*
X171311310Y-101086252D03*
X175494231Y-103519566D03*
X162031941Y-101315554D03*
X181968720Y-115814471D03*
X180719395Y-112698476D03*
X175133474Y-110211750D03*
X162056816Y-111876420D03*
X172950308Y-113143106D03*
X152282339Y-96849166D03*
X150885169Y-109704421D03*
X150190973Y-99389087D03*
X148032802Y-88815771D03*
X153423662Y-78599261D03*
X151137351Y-81167741D03*
X143178140Y-96397452D03*
X154155072Y-61203703D03*
X154279112Y-58836961D03*
X144006589Y-78105745D03*
X138369497Y-40093273D03*
X145900550Y-40718288D03*
X136056045Y-41323875D03*
X124873397Y-79576384D03*
X133291907Y-99123763D03*
X139856512Y-108149735D03*
X136569145Y-104397821D03*
X124014636Y-98637575D03*
X138483803Y-110355258D03*
X124987799Y-105300665D03*
X128901782Y-111862594D03*
X117431998Y-103997776D03*
X122285197Y-105048921D03*
X114128345Y-102655276D03*
X109651277Y-89555225D03*
X113620229Y-83603364D03*
X110891295Y-85035246D03*
X104610217Y-102673367D03*
X106231244Y-98765258D03*
X85560241Y-63903361D03*
X94590238Y-83603370D03*
X90141266Y-87455245D03*
X85700242Y-82223364D03*
X87291268Y-86255240D03*
X94948346Y-101255243D03*
X85432115Y-101255266D03*
X104051592Y-131514733D03*
X105688253Y-133313558D03*
D23*
X103270232Y-120134380D03*
X98094800Y-105249980D03*
D22*
X86705815Y-128411233D03*
X211181286Y-149465357D03*
X108491264Y-75055250D03*
X109741282Y-70505254D03*
X113608357Y-63155249D03*
X113835230Y-65318365D03*
X106241278Y-79755233D03*
X104492118Y-82205260D03*
X104770236Y-44813371D03*
X94910231Y-44793363D03*
X96350235Y-43353374D03*
X95475810Y-135414603D03*
X190941236Y-85742572D03*
X181045223Y-103559071D03*
D23*
X213826353Y-59133707D03*
X210074304Y-59648052D03*
X209587182Y-55376691D03*
X212536715Y-55080672D03*
X225008518Y-76912013D03*
X218897238Y-64900509D03*
X218334672Y-75826035D03*
X217874122Y-84613974D03*
D24*
X198969103Y-90243512D02*
X198964570Y-90330141D01*
D25*
X81991261Y-41930239D02*
X81991274Y-40155253D01*
X83041259Y-37525279D02*
X83041264Y-38655240D01*
X83041281Y-39105209D02*
X81991274Y-40155253D01*
X83041259Y-37525279D02*
X83041281Y-39105209D01*
X101261266Y-38355247D02*
X102091274Y-37525249D01*
X99571270Y-37865235D02*
X99571286Y-39640235D01*
X101751241Y-37865253D02*
X102091263Y-37525230D01*
X99571235Y-37865256D02*
X101751241Y-37865253D01*
X123573467Y-36764343D02*
X123480556Y-38536901D01*
X124676987Y-35770727D02*
X123573467Y-36764343D01*
X124762285Y-34142966D02*
X124676987Y-35770727D01*
X142635274Y-37037351D02*
X142728212Y-35264751D01*
X143831686Y-34271154D02*
X142728212Y-35264751D01*
X143917035Y-32643383D02*
X143831686Y-34271154D01*
X161767259Y-38265293D02*
X161674361Y-40037859D01*
X162870755Y-37271718D02*
X161767259Y-38265293D01*
X162810064Y-36136973D02*
X162750941Y-37265436D01*
X162744641Y-37385247D02*
X161767259Y-38265293D01*
X162810064Y-36136973D02*
X162744641Y-37385247D01*
X178545834Y-39304827D02*
X178452956Y-41077410D01*
X181224833Y-39585440D02*
X181729302Y-39131196D01*
X181729275Y-39131239D02*
X179362495Y-39007204D01*
X178903130Y-38983129D02*
X178545834Y-39304827D01*
X181729266Y-39131244D02*
X178903130Y-38983129D01*
X83041296Y-56575244D02*
X83041264Y-57705251D01*
X81991245Y-59255244D02*
X81991260Y-61030233D01*
X83041266Y-58205216D02*
X81991245Y-59255244D01*
X83041296Y-56575244D02*
X83041266Y-58205216D01*
X99591250Y-58055264D02*
X99591257Y-59830233D01*
X102091268Y-57155237D02*
X102091259Y-56575221D01*
X101071262Y-56575256D02*
X99591250Y-58055264D01*
X102091259Y-56575221D02*
X101071262Y-56575256D01*
X122576458Y-55788202D02*
X122483573Y-57560808D01*
X123765256Y-53166855D02*
X123679980Y-54794616D01*
X122576458Y-55788202D02*
X123679980Y-54794616D01*
X142919999Y-51667274D02*
X142868755Y-52645937D01*
X133705252Y-65083398D02*
X131932698Y-64990500D01*
X133705252Y-65083398D02*
X136174986Y-62859613D01*
X136174986Y-62859613D02*
X136305089Y-60376595D01*
X136305089Y-60376595D02*
X136725531Y-59998087D01*
X136725531Y-59998087D02*
X136765498Y-59235554D01*
X142520681Y-59286822D02*
X142919999Y-51667274D01*
X142919999Y-51667274D02*
X142991724Y-50299194D01*
X144463083Y-48974344D02*
X144557255Y-47176817D01*
X142991724Y-50299194D02*
X144463083Y-48974344D01*
X160557526Y-59055484D02*
X160650382Y-57282908D01*
X161753918Y-56289298D02*
X160650382Y-57282908D01*
X161813061Y-55160860D02*
X161753918Y-56289298D01*
X177518713Y-61196088D02*
X177611611Y-59423519D01*
X179114520Y-58070330D02*
X177611640Y-59423522D01*
X180732270Y-58155115D02*
X179114520Y-58070330D01*
X81942940Y-78357380D02*
X81942940Y-80132380D01*
X83041259Y-77259061D02*
X81942940Y-78357380D01*
X83041259Y-75625247D02*
X83041259Y-77259061D01*
X103691274Y-74025268D02*
X102091280Y-75625242D01*
X103691297Y-71255246D02*
X103691274Y-74025268D01*
X99591261Y-78880274D02*
X99591263Y-77105244D01*
X100571284Y-76125266D02*
X99591263Y-77105244D01*
X102141277Y-76125274D02*
X100571284Y-76125266D01*
X124397246Y-70724001D02*
X122768270Y-72190758D01*
X124544851Y-67907883D02*
X124397246Y-70724001D01*
X121483948Y-76634611D02*
X121576853Y-74862048D01*
X122680345Y-73868418D02*
X121576853Y-74862048D01*
X122768270Y-72190758D02*
X122680345Y-73868418D01*
X143657108Y-69129785D02*
X141923008Y-70691161D01*
X143802045Y-66363598D02*
X143657108Y-69129785D01*
X140731562Y-73362492D02*
X140638645Y-75135068D01*
X141835077Y-72368853D02*
X140731562Y-73362492D01*
X141923008Y-70691161D02*
X141835077Y-72368853D01*
X160756908Y-75313184D02*
X159653402Y-76306790D01*
X160816050Y-74184737D02*
X160756908Y-75313184D01*
X159653402Y-76306790D02*
X159560526Y-78079359D01*
X160816050Y-74184737D02*
X161037442Y-69960539D01*
X161037442Y-69960539D02*
X162035883Y-69061562D01*
X180733722Y-76280029D02*
X179735284Y-77179001D01*
X180904830Y-73014535D02*
X180733722Y-76280029D01*
X178452278Y-81597893D02*
X178545140Y-79825357D01*
X179648661Y-78831739D02*
X178545140Y-79825357D01*
X179735284Y-77179001D02*
X179648661Y-78831739D01*
X99541254Y-97155269D02*
X99541288Y-98930265D01*
X102021268Y-94675239D02*
X102091274Y-94675235D01*
X99541254Y-97155269D02*
X102021268Y-94675239D01*
X123268908Y-89866189D02*
X121771282Y-91214661D01*
X123411256Y-87149888D02*
X123268908Y-89866189D01*
X121712146Y-92343092D02*
X120608603Y-93336698D01*
X121771282Y-91214661D02*
X121712146Y-92343092D01*
X120484322Y-95708455D02*
X120577239Y-93935871D01*
X142449898Y-88342937D02*
X140926008Y-89715102D01*
X142607972Y-85327095D02*
X142449898Y-88342937D01*
X139734573Y-92386373D02*
X139641684Y-94158954D01*
X140838060Y-91392796D02*
X139734573Y-92386373D01*
X140926008Y-89715102D02*
X140838060Y-91392796D01*
X161342975Y-91836485D02*
X159819083Y-93208629D01*
X161482709Y-89170174D02*
X161342975Y-91836485D01*
X162302480Y-88432064D02*
X161482709Y-89170174D01*
X158630250Y-95830009D02*
X158537336Y-97602578D01*
X159733766Y-94836392D02*
X158630250Y-95830009D01*
X159819083Y-93208629D02*
X159733766Y-94836392D01*
X180157105Y-94925382D02*
X178738276Y-96202904D01*
X180299439Y-92209144D02*
X180157105Y-94925382D01*
X177546831Y-98874210D02*
X177453946Y-100646775D01*
X178650341Y-97880598D02*
X177546831Y-98874210D01*
X178738276Y-96202904D02*
X178650341Y-97880598D01*
D24*
X117691292Y-63755221D02*
X118591264Y-62855232D01*
X118591264Y-62855232D02*
X118591271Y-55705242D01*
X157917482Y-76756567D02*
X158438229Y-66820174D01*
X158438229Y-66820174D02*
X157643363Y-65937402D01*
X157643363Y-65937402D02*
X157842218Y-62142591D01*
X126294554Y-42164151D02*
X126365232Y-40816004D01*
X126365232Y-40816004D02*
X126158499Y-44760601D01*
X103941238Y-47905230D02*
X103941258Y-46402360D01*
X118591262Y-52805233D02*
X116741261Y-50955238D01*
X118591271Y-55705242D02*
X118591262Y-52805233D01*
X148069178Y-108793779D02*
X148864066Y-109676592D01*
X192378982Y-119335244D02*
X193999449Y-116528457D01*
X194238954Y-116113607D02*
X195878977Y-113273027D01*
X223097517Y-74640192D02*
X223160593Y-74583403D01*
X222648140Y-74616630D02*
X223097517Y-74640192D01*
X225526129Y-74707371D02*
X226634427Y-75938253D01*
X226634427Y-75938253D02*
X226496864Y-78563459D01*
X223160593Y-74583403D02*
X225526129Y-74707371D01*
X185629106Y-45924637D02*
X184603930Y-45870917D01*
X184603930Y-45870917D02*
X183899252Y-45088317D01*
X166709860Y-42930389D02*
X166709878Y-42930374D01*
X164612725Y-42820483D02*
X166709860Y-42930389D01*
X146902039Y-38420821D02*
X147816833Y-39436804D01*
X145886829Y-38367613D02*
X146902039Y-38420821D01*
X145886829Y-38367613D02*
X144585820Y-39539063D01*
X144585820Y-39539063D02*
X144508136Y-41021164D01*
X144508136Y-41021164D02*
X145719388Y-42366406D01*
X145719388Y-42366406D02*
X147656736Y-42467926D01*
X126365229Y-40816011D02*
X126365232Y-40816004D01*
X128662084Y-40936388D02*
X126365229Y-40816011D01*
X127690481Y-59937384D02*
X127665092Y-59960256D01*
X127760400Y-58603343D02*
X127690481Y-59937384D01*
X146160494Y-57728474D02*
X146819806Y-58460689D01*
X144456277Y-57639161D02*
X146160494Y-57728474D01*
X144456277Y-57639161D02*
X143724071Y-58298465D01*
X165775906Y-61897511D02*
X165712865Y-61954279D01*
X165843945Y-60599275D02*
X165775906Y-61897511D01*
X184669987Y-64226139D02*
X184632119Y-64948528D01*
X184185002Y-63687528D02*
X184669987Y-64226139D01*
X183635094Y-83972408D02*
X183712331Y-82498557D01*
X164700867Y-80961465D02*
X164715875Y-80978160D01*
X164771185Y-79619191D02*
X164700867Y-80961465D01*
X145837665Y-77471223D02*
X145822813Y-77484593D01*
X145908108Y-76127191D02*
X145837665Y-77471223D01*
X126634167Y-78946467D02*
X126668071Y-78984148D01*
X126703458Y-77624123D02*
X126634167Y-78946467D01*
X125706967Y-97975757D02*
X125671068Y-98008083D01*
X125776366Y-96651683D02*
X125706967Y-97975757D01*
X144828411Y-96458525D02*
X144838559Y-96265386D01*
X144838559Y-96265386D02*
X143919479Y-95244663D01*
X141788240Y-95132971D02*
X140984657Y-95856539D01*
X143919479Y-95244663D02*
X141788240Y-95132971D01*
X163572137Y-102802311D02*
X161752124Y-102706940D01*
X161752124Y-102706940D02*
X160911112Y-101772893D01*
X160911112Y-101772893D02*
X160976002Y-100534583D01*
X161685780Y-99895493D02*
X163718900Y-100002046D01*
X160976002Y-100534583D02*
X161685780Y-99895493D01*
X163703854Y-99985341D02*
X163718900Y-100002046D01*
X163774199Y-98643080D02*
X163703854Y-99985341D01*
X179264127Y-104321550D02*
X179345241Y-102773697D01*
X179926510Y-105057205D02*
X179264127Y-104321550D01*
X180433952Y-106998371D02*
X180502168Y-105696550D01*
X180502168Y-105696550D02*
X179926510Y-105057205D01*
X182635153Y-102940191D02*
X182640726Y-102946373D01*
X182706030Y-101587927D02*
X182635153Y-102940191D01*
X103941254Y-43155249D02*
X103941249Y-43155237D01*
X103941263Y-44105268D02*
X103941254Y-43155249D01*
X105391247Y-43155242D02*
X106341259Y-44105248D01*
X103941249Y-43155237D02*
X105391247Y-43155242D01*
X103941258Y-46402360D02*
X103941263Y-44105268D01*
X87331236Y-44065296D02*
X87291295Y-44105254D01*
X87331235Y-42745225D02*
X87331236Y-44065296D01*
X87301293Y-63145187D02*
X87291240Y-63155264D01*
X87301299Y-61795223D02*
X87301293Y-63145187D01*
X106341275Y-63155236D02*
X105902115Y-63155244D01*
X105902115Y-63155244D02*
X105470230Y-62723363D01*
X105470230Y-62723363D02*
X104470233Y-62723367D01*
X104470233Y-62723367D02*
X103630232Y-63563379D01*
X103630235Y-65444220D02*
X104241285Y-66055265D01*
X103630236Y-64113374D02*
X103630235Y-65444220D01*
X103630236Y-64113374D02*
X103630244Y-64394178D01*
X103630232Y-63563379D02*
X103630236Y-64113374D01*
X87241259Y-80305240D02*
X87241245Y-82155233D01*
X103728375Y-80845241D02*
X102230244Y-82343359D01*
X106341255Y-80846088D02*
X106342091Y-80845250D01*
X106341275Y-82205260D02*
X106341255Y-80846088D01*
X107268373Y-80845245D02*
X106342091Y-80845250D01*
X106342091Y-80845250D02*
X103728375Y-80845241D01*
X87398369Y-101148169D02*
X87291276Y-101255246D01*
X87398382Y-99895224D02*
X87398369Y-101148169D01*
X106388382Y-101208145D02*
X106341276Y-101255264D01*
X106388380Y-99855221D02*
X106388382Y-101208145D01*
X96919473Y-134449721D02*
X96951190Y-134456477D01*
X96115020Y-133210981D02*
X96919473Y-134449721D01*
X128327784Y-110667678D02*
X129157123Y-110536336D01*
X129801959Y-111004810D02*
X130796381Y-110847318D01*
X129157123Y-110536336D02*
X129801959Y-111004810D01*
X126306144Y-103119021D02*
X126243581Y-104312920D01*
X126400867Y-101311504D02*
X126306144Y-103119021D01*
X152796697Y-109127208D02*
X151643142Y-109066750D01*
X151643142Y-109066750D02*
X151005756Y-108358872D01*
X175029321Y-112298811D02*
X175314359Y-111336553D01*
X175314359Y-111336553D02*
X176074549Y-110923790D01*
X171485208Y-113874245D02*
X171945302Y-112320958D01*
X173060297Y-111715565D02*
X175029321Y-112298811D01*
X171945302Y-112320958D02*
X173060297Y-111715565D01*
X178351955Y-111598389D02*
X179519875Y-111944345D01*
X178351955Y-111598389D02*
X179180065Y-111843682D01*
X176074549Y-110923790D02*
X178351955Y-111598389D01*
X195902424Y-120481739D02*
X195925799Y-120568988D01*
X197120842Y-118371364D02*
X195902424Y-120481739D01*
X193999449Y-116528457D02*
X194238954Y-116113607D01*
X200688283Y-112178441D02*
X199168316Y-111300897D01*
X197107101Y-112943952D02*
X196513566Y-113102994D01*
X195878977Y-113273027D02*
X196513566Y-113102994D01*
X197982573Y-111427583D02*
X197107101Y-112943952D01*
X196513566Y-113102994D02*
X196930197Y-112991343D01*
X198942325Y-111170418D02*
X199168316Y-111300897D01*
X197982573Y-111427583D02*
X198942325Y-111170418D01*
X211634756Y-129084964D02*
X211655345Y-129870373D01*
X212022206Y-128676673D02*
X211634756Y-129084964D01*
X213007664Y-127638258D02*
X212022206Y-128676673D01*
X213213934Y-131314236D02*
X213214881Y-131350343D01*
X212193648Y-130438315D02*
X212252190Y-130436791D01*
X210791358Y-131916008D02*
X212193648Y-130438315D01*
X211655345Y-129870373D02*
X212252190Y-130436791D01*
X212252190Y-130436791D02*
X213214881Y-131350343D01*
X213791331Y-133027713D02*
X213760980Y-131868563D01*
X214247352Y-133460459D02*
X213791331Y-133027713D01*
X213214881Y-131350343D02*
X213760980Y-131868563D01*
X217838915Y-126440501D02*
X213213934Y-131314236D01*
X220849406Y-126447167D02*
X220951412Y-126339650D01*
X220951412Y-126339650D02*
X220932853Y-125630904D01*
X218667921Y-124496255D02*
X217811634Y-125398595D01*
X220932853Y-125630904D02*
X219708470Y-124469010D01*
X217817427Y-125620527D02*
X217838915Y-126440501D01*
X219708470Y-124469010D02*
X218667921Y-124496255D01*
X217811634Y-125398595D02*
X217817427Y-125620527D01*
X180184058Y-111575334D02*
X180160559Y-111596485D01*
X180385408Y-107733236D02*
X180184058Y-111575334D01*
X179519875Y-111944345D02*
X180160559Y-111596485D01*
X180401105Y-107433656D02*
X180439665Y-106698254D01*
X180364825Y-108125789D02*
X180401105Y-107433656D01*
X144590622Y-101760195D02*
X145565235Y-102842598D01*
X145104637Y-102331039D02*
X145565235Y-102842598D01*
X145565235Y-102842598D02*
X148235615Y-105808402D01*
X218698527Y-86146981D02*
X218599089Y-88044380D01*
X218698527Y-86146981D02*
X218677584Y-86546437D01*
X218599089Y-88044380D02*
X219866525Y-89452008D01*
X219745040Y-91770095D02*
X218337410Y-93037521D01*
X219866525Y-89452008D02*
X219745040Y-91770095D01*
D25*
X206831933Y-92434546D02*
X206932484Y-90515907D01*
X205286523Y-88687902D02*
X205759683Y-89213386D01*
X206932484Y-90515907D02*
X205759683Y-89213386D01*
D24*
X118541273Y-97333736D02*
X118541289Y-79705234D01*
X213257264Y-127205929D02*
X213392439Y-127169712D01*
X213007664Y-127638258D02*
X213257264Y-127205929D01*
X144723924Y-99216900D02*
X144723931Y-99216880D01*
X144590622Y-101760195D02*
X144723924Y-99216900D01*
X201195397Y-95349783D02*
X203200128Y-93544728D01*
X203200128Y-93544728D02*
X203246843Y-92653113D01*
X195006535Y-108020502D02*
X195309188Y-102245581D01*
X194920610Y-109660016D02*
X195006535Y-108020502D01*
X203246843Y-92653113D02*
X203248534Y-92651592D01*
X195339823Y-101386236D02*
X197990447Y-95432815D01*
X197990447Y-95432815D02*
X198099638Y-95187548D01*
X198099638Y-95187548D02*
X201195397Y-95349783D01*
X219080263Y-78862871D02*
X218698527Y-86146981D01*
X195295579Y-102230464D02*
X195309188Y-102245581D01*
X195339823Y-101386236D02*
X195295579Y-102230464D01*
X127461419Y-105197735D02*
X126243581Y-104312920D01*
X127653165Y-106408346D02*
X127461419Y-105197735D01*
X127653165Y-106408346D02*
X127492412Y-105393429D01*
X128327784Y-110667678D02*
X127653165Y-106408346D01*
X148079654Y-108784339D02*
X148069178Y-108793779D01*
X148235615Y-105808402D02*
X148079654Y-108784339D01*
X157917482Y-76756567D02*
X157749594Y-79797187D01*
D25*
X204872912Y-88228538D02*
X205595146Y-89030660D01*
X205759683Y-89213386D02*
X205595146Y-89030660D01*
X205595146Y-89030660D02*
X205475776Y-88898093D01*
X208808117Y-85748184D02*
X207999871Y-85705826D01*
X207999871Y-85705826D02*
X207440948Y-85085078D01*
X204982057Y-86145934D02*
X204960499Y-86557279D01*
X206230698Y-85021652D02*
X204982057Y-86145934D01*
X207440948Y-85085078D02*
X206230698Y-85021652D01*
X204960499Y-86557279D02*
X204872912Y-88228538D01*
X208808117Y-85748184D02*
X208744844Y-86955502D01*
D24*
X104020232Y-127028052D02*
X103153163Y-127895121D01*
X104020232Y-103663360D02*
X104020232Y-127028052D01*
X213721943Y-62655096D02*
X213683360Y-63391297D01*
X216294103Y-59693388D02*
X213757455Y-61977395D01*
X213757455Y-61977395D02*
X213721943Y-62655096D01*
D25*
X217395621Y-63491977D02*
X217262668Y-66028496D01*
D24*
X138554021Y-66188670D02*
X137276545Y-64769896D01*
X137779415Y-80968414D02*
X138554021Y-66188670D01*
X154776541Y-80513920D02*
X154627728Y-83353459D01*
X190499679Y-50435687D02*
X191813370Y-49252853D01*
X190499679Y-50435687D02*
X189183667Y-50366720D01*
X188729442Y-50775706D02*
X189183667Y-50366720D01*
X188652624Y-52241543D02*
X188729442Y-50775706D01*
X156060205Y-96145934D02*
X156669912Y-84511923D01*
X113141292Y-86355226D02*
X112022264Y-86267170D01*
X112022264Y-86267170D02*
X111841264Y-86055234D01*
X111841264Y-83605257D02*
X111841264Y-86055234D01*
X113141292Y-86355226D02*
X114591301Y-84905228D01*
X102741294Y-69955236D02*
X102741286Y-63055245D01*
X99516291Y-73180243D02*
X102741294Y-69955236D01*
X192359026Y-68457746D02*
X191743941Y-67774594D01*
X192332862Y-68957048D02*
X192359026Y-68457746D01*
X174727115Y-63828602D02*
X174562289Y-66974265D01*
X174562289Y-66974265D02*
X174609591Y-67026822D01*
X161944885Y-64110013D02*
X162070465Y-61713297D01*
X164074035Y-66474697D02*
X161944885Y-64110013D01*
X162070465Y-61713297D02*
X161313482Y-60872521D01*
X161313482Y-60872521D02*
X159715644Y-60788769D01*
X159715644Y-60788769D02*
X158911309Y-59895478D01*
X114031262Y-42745253D02*
X114791265Y-43505247D01*
X102966250Y-42130258D02*
X102491246Y-41655243D01*
X107331263Y-42745215D02*
X106716266Y-42130238D01*
X106716266Y-42130238D02*
X102966250Y-42130258D01*
X111831257Y-42745240D02*
X107331263Y-42745215D01*
X95241246Y-47105253D02*
X97691238Y-44655241D01*
X97691238Y-44655241D02*
X97691295Y-42255249D01*
X98291276Y-41655240D02*
X97691295Y-42255249D01*
X102491246Y-41655243D02*
X98291276Y-41655240D01*
X111831257Y-42745240D02*
X114031262Y-42745253D01*
X114791265Y-43505247D02*
X114791262Y-45755259D01*
X111841263Y-45505241D02*
X112062110Y-45505252D01*
X112062110Y-45505252D02*
X112846680Y-46289818D01*
X112846680Y-46289818D02*
X114256685Y-46289808D01*
X114791262Y-45755259D02*
X114256685Y-46289808D01*
X134215741Y-39865536D02*
X129921631Y-39640508D01*
X129921631Y-39640508D02*
X129079407Y-38705144D01*
X129079407Y-38705144D02*
X125634141Y-38524588D01*
X125634141Y-38524588D02*
X125213771Y-38903129D01*
X134225176Y-39876102D02*
X134215741Y-39865536D01*
X134215741Y-39865536D02*
X136662401Y-39993779D01*
X136782777Y-43459982D02*
X134739071Y-43352874D01*
X134739071Y-43352874D02*
X134081288Y-42622324D01*
X153440365Y-38369631D02*
X155847038Y-38495763D01*
X145264564Y-37250208D02*
X143320317Y-39000893D01*
X143320317Y-39000893D02*
X141336221Y-38896853D01*
X148626972Y-38117386D02*
X147974048Y-37392259D01*
X147974048Y-37392259D02*
X145264564Y-37250208D01*
X153440365Y-38369631D02*
X148626972Y-38117386D01*
X156764974Y-39515266D02*
X156383664Y-39091754D01*
X156634143Y-42011799D02*
X156764974Y-39515266D01*
X155847038Y-38495763D02*
X156383664Y-39091754D01*
X141186398Y-38889011D02*
X139872643Y-40071910D01*
X141336221Y-38896853D02*
X141186398Y-38889011D01*
X163096129Y-41379116D02*
X162560091Y-41861742D01*
X174011115Y-41951148D02*
X171535801Y-41821419D01*
X175085158Y-43143991D02*
X174011115Y-41951148D01*
X171535801Y-41821419D02*
X171535777Y-41821407D01*
X164067893Y-40504132D02*
X163096129Y-41379116D01*
X167553380Y-41612704D02*
X166678417Y-40640930D01*
X171535777Y-41821407D02*
X167553380Y-41612704D01*
X166678417Y-40640930D02*
X164067893Y-40504132D01*
X160462970Y-41751834D02*
X158886543Y-43171265D01*
X162560091Y-41861742D02*
X160462970Y-41751834D01*
X97241243Y-52585259D02*
X97251275Y-52585254D01*
X91079673Y-48205257D02*
X90541269Y-48743657D01*
X90541269Y-48743657D02*
X90541270Y-50055237D01*
X94141260Y-48205240D02*
X92455280Y-48205255D01*
X92455280Y-48205255D02*
X91079673Y-48205257D01*
X97591252Y-52925239D02*
X97591279Y-53405242D01*
X95241246Y-47105253D02*
X94141260Y-48205240D01*
X97251275Y-52585254D02*
X97591252Y-52925239D01*
X90541270Y-50055237D02*
X91441285Y-50955247D01*
X97241285Y-52575216D02*
X97241243Y-52585259D01*
X91441285Y-50955247D02*
X95621255Y-50955242D01*
X95621255Y-50955242D02*
X97241285Y-52575216D01*
X194300677Y-90164115D02*
X194389660Y-88466418D01*
X194300677Y-90164115D02*
X194353000Y-89165883D01*
X97591279Y-53405242D02*
X97591235Y-53805260D01*
X97591275Y-62205251D02*
X97591270Y-64555241D01*
X97591279Y-53405242D02*
X97591275Y-62205251D01*
X99041270Y-73655236D02*
X99516291Y-73180243D01*
X97591248Y-75105258D02*
X99516291Y-73180243D01*
X97591304Y-84355237D02*
X97591248Y-75105258D01*
X96291270Y-85655220D02*
X97591304Y-84355237D01*
X98191260Y-90805257D02*
X96291271Y-88905238D01*
X96291271Y-88905238D02*
X96291270Y-85655220D01*
X98191260Y-90805257D02*
X98191247Y-93455246D01*
X98191247Y-93455246D02*
X96991278Y-94655233D01*
X96991278Y-94655233D02*
X96991265Y-96905260D01*
X96991265Y-96905260D02*
X96991236Y-98455237D01*
X96991246Y-99805252D02*
X96991264Y-101455251D01*
X96991262Y-98354396D02*
X96991246Y-99805252D01*
X96991264Y-101455251D02*
X96991268Y-102082335D01*
X96418361Y-102655254D02*
X96991268Y-102082335D01*
X92791281Y-102655267D02*
X96418361Y-102655254D01*
X117641266Y-97255261D02*
X117641287Y-84905263D01*
X116916255Y-97980240D02*
X117641266Y-97255261D01*
X116916255Y-97980240D02*
X116916270Y-100230247D01*
X116916270Y-100230247D02*
X118116284Y-101430243D01*
X181687913Y-42794241D02*
X177213482Y-42559747D01*
X177213482Y-42559747D02*
X176483245Y-43217247D01*
X182747621Y-43971156D02*
X181687913Y-42794241D01*
X183516875Y-44011468D02*
X185343841Y-44107212D01*
X183516875Y-44011468D02*
X182747621Y-43971156D01*
X185343841Y-44107212D02*
X185760200Y-44569606D01*
X185760200Y-44569606D02*
X185760202Y-44569620D01*
X185760202Y-44569620D02*
X191182737Y-44853830D01*
X152238982Y-60146628D02*
X154190452Y-60248895D01*
X155315885Y-59235542D02*
X155091014Y-59438022D01*
X155432556Y-57009460D02*
X155315885Y-59235542D01*
X154190452Y-60248895D02*
X155091014Y-59438022D01*
X97791262Y-62005238D02*
X97591275Y-62205251D01*
X101691276Y-62005253D02*
X97791262Y-62005238D01*
X102741286Y-63055245D02*
X101691276Y-62005253D01*
X95078923Y-84955232D02*
X92791256Y-84955247D01*
X95641230Y-84392895D02*
X95078923Y-84955232D01*
X95641294Y-82805234D02*
X95641230Y-84392895D01*
X92791262Y-83605254D02*
X92791256Y-84955247D01*
X174097743Y-46221526D02*
X173248915Y-46177056D01*
X172433446Y-46134303D02*
X172070637Y-45731371D01*
X172070637Y-45731371D02*
X172129066Y-44616301D01*
X173248915Y-46177056D02*
X172433446Y-46134303D01*
X175085158Y-43143991D02*
X174964785Y-45440827D01*
X174964785Y-45440827D02*
X174097743Y-46221526D01*
X194300677Y-90164115D02*
X194229454Y-91523304D01*
X194229454Y-91523304D02*
X194114371Y-93719303D01*
X192332862Y-68957048D02*
X192303769Y-69511721D01*
X194389660Y-88466418D02*
X195307886Y-70945854D01*
X195307886Y-70945854D02*
X196648721Y-69738573D01*
X192304073Y-69506304D02*
X192332862Y-68957048D01*
X133649788Y-106362137D02*
X136662254Y-105885036D01*
X133649788Y-106362137D02*
X133048391Y-106457396D01*
X137636220Y-106592668D02*
X137964748Y-108666804D01*
X136662254Y-105885036D02*
X137636220Y-106592668D01*
X200148720Y-63367593D02*
X200215858Y-62086142D01*
X200684188Y-63962269D02*
X200148720Y-63367593D01*
X200809135Y-63968832D02*
X200684188Y-63962269D01*
X200215858Y-62086142D02*
X200942053Y-61432303D01*
X151307878Y-107339418D02*
X151552126Y-102678927D01*
X151552126Y-102678927D02*
X152133117Y-102155797D01*
X212779441Y-129329905D02*
X214536973Y-127477845D01*
X215015636Y-120137678D02*
X214635601Y-127389039D01*
X214635601Y-127389039D02*
X214536973Y-127477845D01*
X205132485Y-119735199D02*
X204738542Y-120417575D01*
X197544655Y-53336674D02*
X197557788Y-53086027D01*
X197544655Y-53336674D02*
X197205716Y-59804046D01*
X220454629Y-130860355D02*
X218648672Y-132763513D01*
X218648672Y-132763513D02*
X217829506Y-133626688D01*
X206032930Y-62992578D02*
X206032943Y-62992580D01*
X117641274Y-65786063D02*
X119627431Y-63799948D01*
X119627398Y-62217118D02*
X119598834Y-62188520D01*
X117641287Y-84905263D02*
X117641274Y-65786063D01*
X119627431Y-63799948D02*
X119627398Y-62217118D01*
X176227253Y-83928284D02*
X176082984Y-86680866D01*
X176082984Y-86680866D02*
X175766654Y-92717025D01*
X175766654Y-92717025D02*
X175439413Y-98961342D01*
X176227253Y-83928284D02*
X176243116Y-83625666D01*
X191305404Y-104802396D02*
X191390562Y-103177990D01*
X189963747Y-106010435D02*
X191305404Y-104802396D01*
X187993095Y-105907148D02*
X189963747Y-106010435D01*
X193803490Y-99651070D02*
X194114371Y-93719303D01*
X193721159Y-101221700D02*
X193612742Y-103290502D01*
X193803490Y-99651070D02*
X193721159Y-101221700D01*
X185462515Y-113058626D02*
X185408513Y-113107263D01*
X187933696Y-107040587D02*
X187861181Y-108424260D01*
X187861181Y-108424260D02*
X187850662Y-108433718D01*
X187850662Y-108433718D02*
X185598614Y-110461477D01*
X185408513Y-113107263D02*
X183514851Y-114812322D01*
X185598614Y-110461477D02*
X185462515Y-113058626D01*
X204280566Y-55641390D02*
X202641517Y-53821071D01*
X204244109Y-56337076D02*
X204280566Y-55641390D01*
X204276771Y-55713723D02*
X204244109Y-56337076D01*
X215015630Y-120137679D02*
X220111885Y-111310688D01*
X191852618Y-48503884D02*
X191048289Y-47610575D01*
X191813370Y-49252853D02*
X191852618Y-48503884D01*
X153907894Y-41868929D02*
X153236027Y-41122731D01*
X156634143Y-42011799D02*
X153907894Y-41868929D01*
X132898042Y-63288718D02*
X132979163Y-61740812D01*
X132979163Y-61740812D02*
X133084274Y-61646169D01*
X170938027Y-66834402D02*
X171104115Y-63665369D01*
X190750323Y-66671085D02*
X191743941Y-67774594D01*
X190051318Y-66634448D02*
X190750323Y-66671085D01*
X188871952Y-88153676D02*
X189000181Y-85707063D01*
X189000181Y-85707063D02*
X189054284Y-85658327D01*
X151242019Y-79170505D02*
X151525049Y-79185356D01*
X151525049Y-79185356D02*
X152619502Y-80400870D01*
X152619502Y-80400870D02*
X154776541Y-80513920D01*
X154881560Y-78510094D02*
X154776541Y-80513920D01*
X132087280Y-80670091D02*
X132380290Y-80685442D01*
X133265408Y-81668469D02*
X134813284Y-81749587D01*
X132380290Y-80685442D02*
X133265408Y-81668469D01*
X133616171Y-101343794D02*
X132428104Y-101281522D01*
X152374677Y-98255931D02*
X152999251Y-98949589D01*
X150247625Y-98144458D02*
X152374677Y-98255931D01*
X169138085Y-101687981D02*
X169490974Y-101706461D01*
X170130077Y-102416244D02*
X172606667Y-102546037D01*
X169490974Y-101706461D02*
X170130077Y-102416244D01*
X187993095Y-105907148D02*
X187931690Y-107078936D01*
X188059906Y-104632311D02*
X187993095Y-105907148D01*
X92791269Y-45505259D02*
X92791284Y-46754411D01*
X92791246Y-64555249D02*
X92962109Y-64555246D01*
X94170225Y-65763380D02*
X95260239Y-65763358D01*
X92962109Y-64555246D02*
X94170225Y-65763380D01*
X104001314Y-61795227D02*
X103551692Y-62244834D01*
X110681261Y-61795234D02*
X104001314Y-61795227D01*
X103551692Y-62244834D02*
X102741286Y-63055245D01*
X114302109Y-64555235D02*
X111841268Y-64555246D01*
X114920082Y-65020905D02*
X114454416Y-64555251D01*
X114454416Y-64555251D02*
X114302109Y-64555235D01*
X96991255Y-98722340D02*
X96991262Y-98354396D01*
X95760237Y-99953364D02*
X96991255Y-98722340D01*
X96991265Y-96905260D02*
X96991262Y-98354396D01*
X111841272Y-102655258D02*
X111841270Y-103834412D01*
X102326380Y-132635095D02*
X103000141Y-133672586D01*
X136447677Y-111369681D02*
X136549573Y-111353551D01*
X139660576Y-109182405D02*
X138774407Y-108538576D01*
X139920277Y-110821979D02*
X139660576Y-109182405D01*
X138774407Y-108538576D02*
X137964748Y-108666804D01*
X139167950Y-111857445D02*
X139920277Y-110821979D01*
X136549573Y-111353551D02*
X137587645Y-112107751D01*
X137587645Y-112107751D02*
X139167950Y-111857445D01*
X158215893Y-110813132D02*
X159991221Y-110906159D01*
X179905215Y-115203235D02*
X179829128Y-115460070D01*
X182145842Y-116896488D02*
X183041558Y-116410152D01*
X183041558Y-116410152D02*
X183514851Y-114812322D01*
X180314504Y-116354013D02*
X182145842Y-116896488D01*
X179829128Y-115460070D02*
X180314504Y-116354013D01*
X204563561Y-120720684D02*
X203455216Y-122640304D01*
X205132485Y-119735199D02*
X204563561Y-120720684D01*
X203455216Y-122640304D02*
X202993518Y-123439977D01*
X205451882Y-116545294D02*
X205934428Y-118346198D01*
X204751436Y-116140893D02*
X205451882Y-116545294D01*
X205934428Y-118346198D02*
X205132485Y-119735199D01*
X207565758Y-117909083D02*
X206535491Y-118185146D01*
X206535491Y-118185146D02*
X205934428Y-118346198D01*
X208241550Y-116738578D02*
X208226549Y-116764559D01*
X207963368Y-115700398D02*
X208241550Y-116738578D01*
X208226549Y-116764559D02*
X207565758Y-117909083D01*
X217273208Y-138261935D02*
X219143696Y-140036950D01*
X221655936Y-138224009D02*
X221528976Y-138357822D01*
X219143696Y-140036950D02*
X219955697Y-140015686D01*
X219955697Y-140015686D02*
X221528976Y-138357822D01*
X227747861Y-131804451D02*
X227814290Y-131802702D01*
X226643421Y-132968289D02*
X227747861Y-131804451D01*
X226643421Y-132968289D02*
X226274780Y-133356756D01*
X226101523Y-133361286D02*
X226274780Y-133356756D01*
X223875254Y-131248645D02*
X226101523Y-133361286D01*
X226274780Y-133356756D02*
X221655936Y-138224009D01*
X196686883Y-69704216D02*
X196663626Y-69725137D01*
X196648721Y-69738573D02*
X196663626Y-69725137D01*
X196686872Y-69704222D02*
X196648721Y-69738573D01*
X197130077Y-61247370D02*
X196686872Y-69704222D01*
X197205716Y-59804046D02*
X197130077Y-61247370D01*
X197205716Y-59804046D02*
X197170540Y-60475391D01*
X218416978Y-100707321D02*
X218457876Y-100670482D01*
D25*
X225655419Y-70899548D02*
X225801975Y-68103133D01*
X225801975Y-68103133D02*
X222760827Y-64725605D01*
D24*
X218769293Y-94728638D02*
X218457878Y-100670479D01*
X203259557Y-61483448D02*
X204300033Y-62639014D01*
X200956834Y-61362739D02*
X203138778Y-61477119D01*
X204129765Y-58518845D02*
X204209758Y-56992217D01*
X204244109Y-56337076D02*
X204209758Y-56992217D01*
X202309437Y-60157868D02*
X204129765Y-58518845D01*
X175439413Y-98961342D02*
X175382525Y-100046664D01*
X131588214Y-101237504D02*
X131041208Y-100630006D01*
X132428104Y-101281522D02*
X131709085Y-101243844D01*
X131090267Y-99694011D02*
X131041208Y-100630006D01*
X131709085Y-101243844D02*
X131588214Y-101237504D01*
X175410621Y-99510593D02*
X175244706Y-102676249D01*
X175410621Y-99510593D02*
X175386927Y-99962638D01*
X175439413Y-98961342D02*
X175410621Y-99510593D01*
X170567876Y-82686769D02*
X170135078Y-82664083D01*
X173162259Y-83767659D02*
X171460829Y-83678493D01*
X171460829Y-83678493D02*
X170567876Y-82686769D01*
X170135078Y-82664083D02*
X170182371Y-82716616D01*
X132461962Y-101319128D02*
X132428104Y-101281522D01*
X132352031Y-103416648D02*
X132461962Y-101319128D01*
X202645523Y-126003914D02*
X202573013Y-126023339D01*
X203352442Y-124779481D02*
X202645523Y-126003914D01*
X202993518Y-123439977D02*
X203352442Y-124779481D01*
X199988947Y-124531429D02*
X202573013Y-126023339D01*
X178771361Y-63089239D02*
X175725568Y-62929622D01*
X176662535Y-75622973D02*
X181552375Y-71220148D01*
X179409092Y-65251358D02*
X179481086Y-63877473D01*
X181552375Y-71220148D02*
X181730101Y-67829097D01*
X181730101Y-67829097D02*
X179409092Y-65251358D01*
X175725568Y-62929622D02*
X174727115Y-63828602D01*
X179481086Y-63877473D02*
X178771361Y-63089239D01*
X176243116Y-83625666D02*
X176662535Y-75622973D01*
X152977059Y-99373269D02*
X152999251Y-98949589D01*
X152865794Y-101496090D02*
X152977059Y-99373269D01*
X152865794Y-101496090D02*
X152133117Y-102155797D01*
X187933696Y-107040587D02*
X187889737Y-107879269D01*
X187993095Y-105907148D02*
X187933696Y-107040587D01*
X133126114Y-108303948D02*
X133186303Y-108347674D01*
X132352031Y-103416648D02*
X133126114Y-108303948D01*
X152133117Y-102155797D02*
X151562587Y-102669516D01*
D25*
X221860783Y-63726004D02*
X222760827Y-64725605D01*
X217395635Y-63491996D02*
X221860783Y-63726004D01*
X222760827Y-64725605D02*
X222466403Y-64398615D01*
X206547859Y-86840363D02*
X206775659Y-86852302D01*
X206547859Y-86840363D02*
X206575629Y-86841819D01*
X206032943Y-62992580D02*
X209322279Y-66645747D01*
X209322279Y-66645747D02*
X208359360Y-85019341D01*
X206558306Y-86641017D02*
X206605409Y-85742250D01*
X206547859Y-86840363D02*
X206558306Y-86641017D01*
X208359360Y-85019341D02*
X208359360Y-85019341D01*
D24*
X111841286Y-103276536D02*
X111841286Y-102655273D01*
X111507742Y-104167940D02*
X111841270Y-103834412D01*
X110515400Y-104167940D02*
X106479340Y-104167940D01*
X104841040Y-105806240D02*
X104841040Y-130496008D01*
X106479340Y-104167940D02*
X104841040Y-105806240D01*
X104841040Y-130496008D02*
X104844366Y-130499334D01*
X110515400Y-104167940D02*
X111507742Y-104167940D01*
X224961802Y-90211829D02*
X225087906Y-87805108D01*
D25*
X205801745Y-84589250D02*
X205817968Y-84279669D01*
X205817968Y-84279669D02*
X206733324Y-66813639D01*
X221171949Y-69417742D02*
X221141963Y-69989888D01*
X221204921Y-68788609D02*
X221195454Y-68778099D01*
X221077888Y-71212449D02*
X220295316Y-86144784D01*
X221141963Y-69989888D02*
X221077888Y-71212449D01*
X221204924Y-68788612D02*
X221195454Y-68778099D01*
X221077888Y-71212449D02*
X221204924Y-68788612D01*
X213185897Y-86287393D02*
X212712750Y-85761911D01*
X213138814Y-87185780D02*
X213185897Y-86287393D01*
X205801249Y-84598596D02*
X205817968Y-84279669D01*
D24*
X222165601Y-90065313D02*
X222291744Y-87658618D01*
D25*
X219501361Y-87154872D02*
X219511839Y-86955147D01*
X219827724Y-87517326D02*
X219501361Y-87154872D01*
X220254608Y-72591234D02*
X220264068Y-72601743D01*
X220306792Y-71595448D02*
X220254608Y-72591234D01*
X220300034Y-71915531D02*
X220264068Y-72601743D01*
X220264068Y-72601743D02*
X219511839Y-86955147D01*
X220306792Y-71595448D02*
X220323538Y-71275885D01*
X211030556Y-85780529D02*
X210961709Y-87094354D01*
X211030564Y-85780521D02*
X211030556Y-85780529D01*
X211843607Y-69634071D02*
X211874936Y-69668862D01*
X211874936Y-69668862D02*
X211030564Y-85780521D01*
X210922944Y-85877423D02*
X211030556Y-85780529D01*
X209905648Y-85824108D02*
X210922944Y-85877423D01*
X182096992Y-122715088D02*
X182271642Y-122125397D01*
X184822556Y-124523821D02*
X184959778Y-124466935D01*
X184959778Y-124466935D02*
X184280539Y-126106829D01*
X182667413Y-123787938D02*
X182082580Y-122710789D01*
X184959795Y-124466947D02*
X182667413Y-123787938D01*
X165504617Y-118898767D02*
X165326302Y-118548891D01*
X165048657Y-120302045D02*
X165504617Y-118898767D01*
X162224379Y-117490438D02*
X162107200Y-117595920D01*
X164585237Y-117725805D02*
X165326333Y-118548895D01*
X162107181Y-117595911D02*
X164585237Y-117725805D01*
X201028034Y-131877104D02*
X200875044Y-132393781D01*
X202963456Y-134312074D02*
X201920092Y-135748081D01*
X202828615Y-134333404D02*
X202963456Y-134312074D01*
X202817322Y-133766691D02*
X202963453Y-134312066D01*
X200316343Y-132322728D02*
X202817322Y-133766691D01*
X81991257Y-47255248D02*
X81991244Y-45480255D01*
X123201891Y-43854614D02*
X123294783Y-42082013D01*
X142356591Y-42355043D02*
X142449532Y-40582464D01*
X161488580Y-43582997D02*
X161395675Y-45355568D01*
X178267142Y-44622549D02*
X178174267Y-46395112D01*
X99571246Y-43190255D02*
X99571282Y-44965235D01*
X200376430Y-71526238D02*
X200410313Y-71578380D01*
X199549503Y-54713205D02*
X199536437Y-54698713D01*
X199498010Y-55695743D02*
X199549503Y-54713205D01*
X199498010Y-55695743D02*
X199533957Y-55009813D01*
X198670400Y-71487185D02*
X199498010Y-55695743D01*
X81991276Y-64580252D02*
X81991274Y-66355231D01*
X122297772Y-61105942D02*
X122204885Y-62878483D01*
X99591261Y-63380259D02*
X99591270Y-65155239D01*
X160371742Y-62600609D02*
X160278814Y-64373187D01*
X177332939Y-64741209D02*
X177240047Y-66513796D01*
X122024273Y-66323760D02*
X122204885Y-62878483D01*
X128387548Y-64804732D02*
X126614966Y-64711819D01*
X200180988Y-74094426D02*
X200277357Y-74114872D01*
X195912189Y-73585700D02*
X195912193Y-73585714D01*
X195996578Y-71975431D02*
X196030468Y-71328817D01*
X195996578Y-71975431D02*
X195912189Y-73585700D01*
X196030468Y-71328817D02*
X196040975Y-71319354D01*
X196011966Y-71681901D02*
X195996578Y-71975431D01*
X140216058Y-83198973D02*
X140783833Y-83829569D01*
X121205251Y-81952317D02*
X121298139Y-80179776D01*
X99591257Y-84205254D02*
X99591252Y-82430255D01*
X140452880Y-78680183D02*
X140359984Y-80452770D01*
X159281833Y-83397096D02*
X159130039Y-86293096D01*
X159374718Y-81624539D02*
X159281833Y-83397096D01*
X178173622Y-86915614D02*
X178266469Y-85143065D01*
X140359984Y-80452770D02*
X140216058Y-83198973D01*
X219245811Y-117243076D02*
X218165267Y-118651267D01*
X195024000Y-90076813D02*
X194884370Y-92740550D01*
X194884370Y-92740550D02*
X194789121Y-94558013D01*
X195024000Y-90076813D02*
X195066462Y-89266553D01*
X195728863Y-76436119D02*
X195713623Y-76419204D01*
X195738329Y-76446633D02*
X195713623Y-76419204D01*
X195738324Y-76446645D02*
X195713623Y-76419204D01*
X195066462Y-89266553D02*
X195738324Y-76446645D01*
X219390250Y-115196067D02*
X220829659Y-112728863D01*
X219564069Y-116850002D02*
X219390250Y-115196067D01*
X219580331Y-116807075D02*
X219245798Y-117243068D01*
X219245798Y-117243068D02*
X219564069Y-116850002D01*
X81942940Y-83682380D02*
X81942940Y-85457380D01*
X81991256Y-102680241D02*
X81991267Y-104455245D01*
X99541288Y-104255237D02*
X99541256Y-102480272D01*
X120298532Y-99253599D02*
X120205629Y-101026165D01*
X139362982Y-99476637D02*
X139455861Y-97704086D01*
X158351546Y-101147712D02*
X158258680Y-102920284D01*
X177268155Y-104191900D02*
X177175261Y-105964476D01*
X139245260Y-101723552D02*
X139362982Y-99476637D01*
X196797574Y-103496835D02*
X197519538Y-101875295D01*
X120071804Y-101167201D02*
X120205654Y-101026142D01*
X196784922Y-103501719D02*
X196797566Y-103496834D01*
X196797576Y-103496827D02*
X196767411Y-103564661D01*
X196797576Y-103496827D02*
X196702329Y-103710838D01*
X197373389Y-101810211D02*
X197519549Y-101875280D01*
X196797577Y-103496827D02*
X196558785Y-103910468D01*
X197519548Y-101875290D02*
X197568364Y-101765663D01*
X196797594Y-103496820D02*
X196574574Y-103997747D01*
X198566860Y-80488732D02*
X200011523Y-79187934D01*
X198261916Y-86307422D02*
X198566860Y-80488732D01*
X199955372Y-88188207D02*
X198261916Y-86307422D01*
X196669598Y-95863580D02*
X196696140Y-95357037D01*
X196696140Y-95357037D02*
X197788698Y-94373287D01*
X202453057Y-93265885D02*
X202589124Y-90669447D01*
X201034245Y-94543383D02*
X202453057Y-93265885D01*
X197788698Y-94373287D02*
X201034245Y-94543383D01*
X196495954Y-109252429D02*
X194544187Y-112633001D01*
X194544187Y-112633001D02*
X193595575Y-112887176D01*
X196797601Y-103496831D02*
X196495954Y-109252429D01*
X177027647Y-108590521D02*
X177027623Y-108590534D01*
X120205647Y-101026124D02*
X119969537Y-105531379D01*
X202579654Y-90658940D02*
X202589124Y-90669447D01*
X202595889Y-90349359D02*
X202579654Y-90658940D01*
X177164754Y-105973955D02*
X177175274Y-105964489D01*
X177027623Y-108590534D02*
X177164754Y-105973955D01*
X200684379Y-88226414D02*
X201125609Y-88716448D01*
X200216507Y-88201893D02*
X200684379Y-88226414D01*
X201125609Y-88716448D02*
X200987192Y-88562721D01*
X202595889Y-90349359D02*
X201125609Y-88716448D01*
X200216507Y-88201893D02*
X199955372Y-88188207D01*
X93282362Y-138538223D02*
X94249084Y-140026822D01*
X165703397Y-114692708D02*
X165881652Y-115042599D01*
X166159334Y-113289460D02*
X165703397Y-114692708D01*
X142718315Y-110791956D02*
X141626934Y-109999028D01*
X141626934Y-109999028D02*
X140748932Y-104455607D01*
X144122232Y-111811940D02*
X142718315Y-110791956D01*
X144616954Y-111733581D02*
X144122232Y-111811940D01*
X186997579Y-119547308D02*
X186318329Y-121187195D01*
X206093397Y-130004024D02*
X205050091Y-131440042D01*
X223452324Y-138950679D02*
X222230496Y-140238198D01*
X144864064Y-113293863D02*
X144709843Y-113506153D01*
X144616954Y-111733581D02*
X144864064Y-113293863D01*
X205555402Y-129693433D02*
X206093386Y-130004032D01*
X204943625Y-127410258D02*
X205555402Y-129693433D01*
X193476451Y-92591972D02*
X192747802Y-91782736D01*
X192629153Y-117475578D02*
X193155904Y-107424468D01*
X204497497Y-125745277D02*
X204943625Y-127410258D01*
X205436692Y-124118518D02*
X204497497Y-125745277D01*
X192714768Y-106934540D02*
X193155904Y-107424468D01*
X192773688Y-105810187D02*
X192714768Y-106934540D01*
X192767983Y-106110297D02*
X193476451Y-92591972D01*
X192730469Y-106634941D02*
X192773688Y-105810187D01*
X193201021Y-83134528D02*
X193239985Y-82390946D01*
X193201021Y-83134528D02*
X193219856Y-82775098D01*
X192747802Y-91782736D02*
X193201021Y-83134528D01*
X200688949Y-123318981D02*
X202356418Y-124281697D01*
X214359139Y-114808598D02*
X212931632Y-117281123D01*
X212931632Y-117281123D02*
X212309136Y-118359309D01*
X204734202Y-93685839D02*
X204855478Y-91371699D01*
X204855478Y-91371699D02*
X204859801Y-91289134D01*
X217714387Y-108997142D02*
X214359139Y-114808598D01*
X204759100Y-93700217D02*
X204734202Y-93685839D01*
X205900725Y-97960820D02*
X204759100Y-93700217D01*
X209918543Y-122499937D02*
X207386954Y-123178271D01*
X211454383Y-119839783D02*
X209918543Y-122499937D01*
X206136681Y-125343826D02*
X207386954Y-123178271D01*
X211454383Y-119839783D02*
X212931632Y-117281123D01*
X204846018Y-91361182D02*
X204855478Y-91371699D01*
X204866567Y-90969055D02*
X204846018Y-91361182D01*
X202784731Y-88656927D02*
X204866567Y-90969055D01*
X204062768Y-64270394D02*
X202784731Y-88656927D01*
X205291255Y-58026124D02*
X205008629Y-63418726D01*
X205008629Y-63418726D02*
X204062768Y-64270394D01*
X220673057Y-90494769D02*
X222076406Y-92053350D01*
X220868955Y-86756793D02*
X220673057Y-90494769D01*
X221184646Y-85854072D02*
X221150621Y-86503173D01*
X221150621Y-86503173D02*
X220868955Y-86756793D01*
X220949948Y-85593431D02*
X221184646Y-85854072D01*
X222146234Y-94542532D02*
X221765167Y-94885642D01*
X221765167Y-94885642D02*
X221453763Y-100827493D01*
X221837044Y-68666651D02*
X221778052Y-69792260D01*
X221778052Y-69792260D02*
X220949948Y-85593431D01*
X221936035Y-94731795D02*
X221765170Y-94885645D01*
X222076406Y-92053350D02*
X221936035Y-94731795D01*
X98794182Y-122146811D02*
X99070832Y-122205612D01*
X96591278Y-72235239D02*
X95741250Y-73085261D01*
X214464116Y-69771431D02*
X213207463Y-70902947D01*
X215762362Y-69839462D02*
X214464116Y-69771431D01*
X95741277Y-53095238D02*
X94896273Y-52250226D01*
X95741262Y-54035231D02*
X95741277Y-53095238D01*
X98504418Y-121333378D02*
X97473869Y-121114344D01*
X99070832Y-122205612D02*
X98504418Y-121333378D01*
X99167860Y-121749152D02*
X99070832Y-122205612D01*
X95741259Y-72105245D02*
X94891261Y-71255243D01*
X95741250Y-73085261D02*
X95741259Y-72105245D01*
X96541274Y-73885251D02*
X95741250Y-73085261D01*
X95741283Y-91155241D02*
X94891258Y-90305238D01*
X95741239Y-92135256D02*
X95741283Y-91155241D01*
X96591287Y-70755243D02*
X96591278Y-72235239D01*
X94891256Y-85956072D02*
X94891258Y-90305238D01*
X96541269Y-84306080D02*
X94891256Y-85956072D01*
X96541276Y-81855260D02*
X96541269Y-84306080D01*
X96541257Y-83105236D02*
X96541276Y-81855260D01*
X96541276Y-81855260D02*
X96541274Y-73885251D01*
X95741269Y-57305242D02*
X95741262Y-54035231D01*
X96591276Y-58155225D02*
X95741269Y-57305242D01*
X96591287Y-70755243D02*
X96591276Y-58155225D01*
X95741273Y-34985241D02*
X95741263Y-33655237D01*
X97791286Y-40705255D02*
X97791309Y-36305246D01*
X97791309Y-36305246D02*
X96471285Y-34985252D01*
X97116240Y-42017079D02*
X97116263Y-41380226D01*
X97116249Y-44080260D02*
X97116240Y-42017079D01*
X94216694Y-46979829D02*
X97116249Y-44080260D01*
X93645162Y-47551344D02*
X94216694Y-46979829D01*
X94896273Y-52250226D02*
X94196269Y-51550231D01*
X94196269Y-51550231D02*
X91223096Y-51550268D01*
X96471285Y-34985252D02*
X95741273Y-34985241D01*
X97116263Y-41380226D02*
X97791286Y-40705255D01*
X91223096Y-51550268D02*
X89853221Y-50180397D01*
X95741263Y-33655237D02*
X94691274Y-32605245D01*
X89853221Y-50180397D02*
X89853208Y-48536349D01*
X89853208Y-48536349D02*
X90838215Y-47551359D01*
X90838215Y-47551359D02*
X93645162Y-47551344D01*
X95135236Y-100509876D02*
X96080580Y-101455220D01*
X95135236Y-99653363D02*
X95135236Y-100509876D01*
X96396247Y-98392352D02*
X95135236Y-99653363D01*
X96396247Y-92790236D02*
X96396247Y-98392352D01*
X95741246Y-92135235D02*
X96396247Y-92790236D01*
X95277940Y-104876600D02*
X96531945Y-106130605D01*
X102064497Y-106130605D02*
X102067312Y-106128100D01*
X96531945Y-106130605D02*
X102064497Y-106130605D01*
X99070856Y-122205592D02*
X103378000Y-117898448D01*
X102483115Y-106130605D02*
X102064497Y-106130605D01*
X103378000Y-107025490D02*
X102483115Y-106130605D01*
X103378000Y-117898448D02*
X103378000Y-107025490D01*
X114791280Y-33555273D02*
X113841276Y-32605247D01*
X114791253Y-34985260D02*
X114791280Y-33555273D01*
X114791279Y-73085253D02*
X115521257Y-73085254D01*
X115521257Y-73085254D02*
X116691268Y-74255248D01*
X116691252Y-90235233D02*
X114791285Y-92135234D01*
X116691268Y-74255248D02*
X116691244Y-89005239D01*
X214172924Y-72299620D02*
X212916228Y-73431177D01*
X215629402Y-72375987D02*
X214172924Y-72299620D01*
X116691244Y-89005239D02*
X116691252Y-90235233D01*
X201515339Y-72924518D02*
X201644784Y-72840470D01*
X114791253Y-34985260D02*
X115221290Y-34985244D01*
X115221290Y-34985244D02*
X116491274Y-36255241D01*
X116491274Y-36255241D02*
X116491261Y-47405258D01*
X116491261Y-47405258D02*
X115791241Y-48105240D01*
X114791271Y-52945274D02*
X114096272Y-52250252D01*
X114791285Y-54035246D02*
X114791271Y-52945274D01*
X115991280Y-56305277D02*
X114791298Y-55105262D01*
X114791298Y-55105262D02*
X114791285Y-54035246D01*
X115991267Y-65755258D02*
X115991280Y-56305277D01*
X114791257Y-66955252D02*
X115991267Y-65755258D01*
X114791279Y-73085253D02*
X114791254Y-70505253D01*
X114791279Y-73085253D02*
X114791267Y-72055233D01*
X114791254Y-70505253D02*
X114791257Y-66955252D01*
X114791285Y-92135234D02*
X114791275Y-89905259D01*
X196577042Y-72596715D02*
X196567576Y-72586213D01*
X112745295Y-48105270D02*
X110459655Y-48105269D01*
X115791241Y-48105240D02*
X112745295Y-48105270D01*
X110459655Y-48105269D02*
X109497475Y-49067453D01*
X109497475Y-49067453D02*
X109497470Y-50247449D01*
X110449465Y-51199439D02*
X113045476Y-51199443D01*
X109497470Y-50247449D02*
X110449465Y-51199439D01*
X114096272Y-52250252D02*
X113045476Y-51199443D01*
X196577042Y-72596723D02*
X196567576Y-72586213D01*
X196545529Y-73198015D02*
X196577042Y-72596723D01*
X196545529Y-73198015D02*
X196560293Y-72916275D01*
X195665906Y-89982795D02*
X196545529Y-73198015D01*
X135583824Y-70318905D02*
X136113077Y-70346622D01*
X136113077Y-70346622D02*
X137220221Y-71576240D01*
X136373462Y-87734077D02*
X134586788Y-89342773D01*
X137220221Y-71576240D02*
X136373462Y-87734077D01*
X213930135Y-74830392D02*
X212673460Y-75961934D01*
X215496507Y-74912499D02*
X213930135Y-74830392D01*
X201453249Y-75364569D02*
X201074397Y-75610583D01*
X201511822Y-75376990D02*
X201453249Y-75364569D01*
X136635222Y-50256405D02*
X135930245Y-49473455D01*
X136580810Y-51294990D02*
X136635222Y-50256405D01*
X135930245Y-49473455D02*
X135267847Y-48737799D01*
X135267847Y-48737799D02*
X134931923Y-48364675D01*
X135629872Y-69440104D02*
X134773483Y-68488973D01*
X135583824Y-70318905D02*
X135629872Y-69440104D01*
X134645934Y-88214347D02*
X133983522Y-87478652D01*
X134586788Y-89342773D02*
X134645934Y-88214347D01*
X134586788Y-89342773D02*
X134572699Y-89612406D01*
X136744758Y-60586316D02*
X136266953Y-69703801D01*
X137743168Y-59687356D02*
X136744758Y-60586316D01*
X138130457Y-52297479D02*
X137743168Y-59687356D01*
X137259847Y-51330575D02*
X138130457Y-52297479D01*
X136266953Y-69703801D02*
X135583824Y-70318905D01*
X136580810Y-51294990D02*
X137259847Y-51330575D01*
X129530679Y-121703989D02*
X129795514Y-123376167D01*
X129795514Y-123376167D02*
X131830239Y-124854446D01*
X136600919Y-124098855D02*
X137923822Y-122278067D01*
X131830239Y-124854446D02*
X136600919Y-124098855D01*
X134586805Y-89342794D02*
X134575645Y-89555441D01*
X134575645Y-89555441D02*
X136909422Y-92147337D01*
X136909422Y-92147337D02*
X136531238Y-99363429D01*
X136531238Y-99363429D02*
X136317781Y-103436602D01*
X194469024Y-102945071D02*
X194243307Y-107251895D01*
X194688374Y-98950800D02*
X194738102Y-98002085D01*
X194738102Y-98002085D02*
X195156762Y-97625116D01*
X194738099Y-98002081D02*
X195156762Y-97625116D01*
X194688374Y-98950800D02*
X194463315Y-103245175D01*
X195156762Y-97625116D02*
X195875080Y-96978346D01*
X140623146Y-106564617D02*
X140214859Y-106267976D01*
X141443799Y-111746002D02*
X140623146Y-106564617D01*
X140562992Y-106520913D02*
X140214859Y-106267976D01*
X140214859Y-106267976D02*
X136317781Y-103436602D01*
X137577820Y-32271101D02*
X137652624Y-30843059D01*
X137652624Y-30843059D02*
X136895609Y-30002308D01*
X138007227Y-32293613D02*
X137577820Y-32271101D01*
X138830661Y-42758049D02*
X139303641Y-33733423D01*
X135664120Y-45609221D02*
X138830661Y-42758049D01*
X139303641Y-33733423D02*
X138007227Y-32293613D01*
X132253968Y-45430504D02*
X135664120Y-45609221D01*
X135267847Y-48737799D02*
X134846708Y-48270104D01*
X134846708Y-48270104D02*
X132517890Y-48148055D01*
X132517890Y-48148055D02*
X132008877Y-47582739D01*
X132008877Y-47582739D02*
X131601391Y-47130181D01*
X131601391Y-47130181D02*
X131662563Y-45963012D01*
X131662563Y-45963012D02*
X132253968Y-45430504D01*
X196995610Y-75597176D02*
X197475119Y-75165405D01*
X196969824Y-76089212D02*
X196995610Y-75597176D01*
X196969824Y-76089212D02*
X196978862Y-75916736D01*
X195875080Y-96978346D02*
X196969824Y-76089212D01*
X155735517Y-49795419D02*
X156214870Y-49820535D01*
X156214870Y-49820535D02*
X157227405Y-50945081D01*
X156367547Y-67352556D02*
X154738535Y-68819328D01*
X157227405Y-50945081D02*
X156367547Y-67352556D01*
X153741534Y-87843209D02*
X154320718Y-87873559D01*
X154738535Y-68819328D02*
X154781966Y-67990458D01*
X155790921Y-85997958D02*
X153741534Y-87843209D01*
X156614152Y-70289513D02*
X155790921Y-85997958D01*
X154738535Y-68819328D02*
X155317730Y-68849690D01*
X155317730Y-68849690D02*
X156614152Y-70289513D01*
X153741534Y-87843209D02*
X154520465Y-87884034D01*
X213737285Y-77363796D02*
X212480616Y-78495300D01*
X215363586Y-77449010D02*
X213737285Y-77363796D01*
X201363261Y-77910169D02*
X201378902Y-77913519D01*
X200994749Y-78149507D02*
X201363261Y-77910169D01*
X155795200Y-48657013D02*
X155184827Y-47979123D01*
X155735517Y-49795419D02*
X155795200Y-48657013D01*
X153795434Y-86814621D02*
X153038416Y-85973867D01*
X153741534Y-87843209D02*
X153795434Y-86814621D01*
X153891304Y-87851056D02*
X155026876Y-89112211D01*
X153741534Y-87843209D02*
X153891304Y-87851056D01*
X155026876Y-89112211D02*
X154859320Y-92309228D01*
X154823848Y-67191536D02*
X154738535Y-68819328D01*
X149291653Y-119467768D02*
X149193524Y-121340318D01*
X154859320Y-92309228D02*
X154575878Y-97717715D01*
X155975049Y-99271642D02*
X154970547Y-98156034D01*
X159869346Y-100246786D02*
X159140697Y-99437549D01*
X154575878Y-97717715D02*
X154970547Y-98156034D01*
X159140697Y-99437549D02*
X155975049Y-99271642D01*
X162714622Y-115502147D02*
X162970821Y-110613540D01*
X159774606Y-102054305D02*
X159869346Y-100246786D01*
X163218909Y-105879591D02*
X162744513Y-105352719D01*
X163091876Y-108303616D02*
X163218909Y-105879591D01*
X162744513Y-105352719D02*
X159774606Y-102054305D01*
X163228376Y-105890103D02*
X162744513Y-105352719D01*
X162970821Y-110613540D02*
X163091876Y-108303616D01*
X156799509Y-29493270D02*
X156732536Y-30771561D01*
X155569336Y-28127037D02*
X156799509Y-29493270D01*
X150619829Y-45928362D02*
X151569938Y-46983557D01*
X150690483Y-44580208D02*
X150619829Y-45928362D01*
X157112019Y-30791439D02*
X158313808Y-32126154D01*
X157756410Y-42761540D02*
X156160753Y-44198303D01*
X156732536Y-30771561D02*
X157112019Y-30791439D01*
X158313808Y-32126154D02*
X157756410Y-42761540D01*
X151392187Y-43948389D02*
X150690483Y-44580208D01*
X151569938Y-46983557D02*
X154423096Y-47133081D01*
X156160753Y-44198303D02*
X153339512Y-44050448D01*
X153339512Y-44050448D02*
X151392187Y-43948389D01*
X154423096Y-47133081D02*
X155184827Y-47979123D01*
X196810791Y-90683676D02*
X196810787Y-90683675D01*
X196847414Y-89984837D02*
X196810791Y-90683676D01*
X197490095Y-77721557D02*
X197480631Y-77711056D01*
X197490099Y-77721571D02*
X196847414Y-89984837D01*
X197480631Y-77711056D02*
X197490099Y-77721571D01*
X173631601Y-72312886D02*
X173604380Y-72832174D01*
X173604380Y-72832174D02*
X175449642Y-74881579D01*
X172634597Y-91336805D02*
X172630927Y-91406687D01*
X175678130Y-34217792D02*
X175625606Y-34265113D01*
X175689959Y-33036811D02*
X174554425Y-31775648D01*
X175625606Y-34265113D02*
X175689959Y-33036811D01*
X174813787Y-87014934D02*
X175449642Y-74881579D01*
X172634597Y-91336805D02*
X172914191Y-91351445D01*
X201240147Y-80477369D02*
X201245962Y-80450010D01*
X174633850Y-53284243D02*
X174628589Y-53288990D01*
X174687723Y-52160556D02*
X174067912Y-51472158D01*
X174628589Y-53288990D02*
X174687723Y-52160556D01*
X173686002Y-71274329D02*
X172981027Y-70491347D01*
X173631601Y-72312886D02*
X173686002Y-71274329D01*
X172033976Y-89517861D02*
X173999269Y-87748283D01*
X172764398Y-88860203D02*
X173999269Y-87748283D01*
X173999269Y-87748283D02*
X174813787Y-87014934D01*
X168629340Y-122517953D02*
X169360851Y-123865218D01*
X168951971Y-121428730D02*
X168629340Y-122517953D01*
X175058013Y-53311511D02*
X174628589Y-53288990D01*
X176259819Y-54646249D02*
X175058013Y-53311511D01*
X175896769Y-61573132D02*
X176259819Y-54646249D01*
X173514308Y-50857335D02*
X174067912Y-51472158D01*
X171976926Y-90606381D02*
X172634597Y-91336805D01*
X172033976Y-89517861D02*
X171976926Y-90606381D01*
X168662151Y-120959453D02*
X169184162Y-121539229D01*
X201117524Y-80565652D02*
X201245952Y-80450013D01*
X172634623Y-91336788D02*
X174869100Y-91453879D01*
X173191082Y-66483248D02*
X172981027Y-70491347D01*
X173753251Y-65977078D02*
X173191082Y-66483248D01*
X173889336Y-63380621D02*
X173753251Y-65977078D01*
X173889336Y-63380621D02*
X175896769Y-61573132D01*
X213973955Y-81117066D02*
X215230637Y-79985532D01*
X212616686Y-81045934D02*
X213973955Y-81117066D01*
X168465923Y-121326455D02*
X169184192Y-121539227D01*
X169199197Y-110712054D02*
X166906045Y-118453531D01*
X172634624Y-91336788D02*
X173018882Y-91356942D01*
X174190880Y-92658553D02*
X173827131Y-99599038D01*
X173018882Y-91356942D02*
X174190880Y-92658553D01*
X166906045Y-118453531D02*
X168465923Y-121326455D01*
X173434569Y-106898487D02*
X173244277Y-107069826D01*
X173244277Y-107069826D02*
X169199197Y-110712054D01*
X194029002Y-80762007D02*
X194019539Y-80751501D01*
X193941521Y-82431341D02*
X193996033Y-81391150D01*
X193483667Y-91167742D02*
X193941521Y-82431341D01*
X173445078Y-106889032D02*
X173434569Y-106898487D01*
X173827131Y-99599038D02*
X173445078Y-106889032D01*
X175619322Y-34384962D02*
X175625606Y-34265113D01*
X176660211Y-35541005D02*
X175619322Y-34384962D01*
X175899471Y-41459280D02*
X176372364Y-41033452D01*
X174412374Y-47489731D02*
X175641412Y-46383101D01*
X176372364Y-41033452D02*
X176660211Y-35541005D01*
X175641412Y-46383101D02*
X175899471Y-41459280D01*
X172226956Y-47375201D02*
X170549267Y-47287279D01*
X172226956Y-47375201D02*
X174412374Y-47489731D01*
X170986499Y-47310195D02*
X172226956Y-47375201D01*
X170549267Y-47287279D02*
X169705638Y-48046882D01*
X169705638Y-48046882D02*
X169625564Y-49574784D01*
X170644976Y-50706958D02*
X171593681Y-50756679D01*
X169625564Y-49574784D02*
X170644976Y-50706958D01*
X171117609Y-50731734D02*
X171593681Y-50756679D01*
X171593681Y-50756679D02*
X173514308Y-50857335D01*
X194029003Y-80762008D02*
X194019539Y-80751501D01*
X193941521Y-82431341D02*
X194029003Y-80762008D01*
X201036638Y-82970320D02*
X201113031Y-82986557D01*
X192971206Y-74928625D02*
X192550827Y-75307157D01*
X194544811Y-37259370D02*
X194543775Y-37279358D01*
X194543775Y-37279358D02*
X196247093Y-39171061D01*
X196247093Y-39171061D02*
X195697591Y-49656688D01*
X195697591Y-49656688D02*
X194646628Y-50602974D01*
X193602262Y-55244674D02*
X192381505Y-53888937D01*
X193547844Y-56283265D02*
X193602262Y-55244674D01*
X191686228Y-91804516D02*
X191908131Y-87570438D01*
X190903237Y-92509499D02*
X191686228Y-91804516D01*
X189375630Y-53731419D02*
X190074686Y-53768023D01*
X190074686Y-53768023D02*
X192381505Y-53888937D01*
X194352096Y-73418856D02*
X192565461Y-75027522D01*
X194501266Y-70572741D02*
X194352096Y-73418856D01*
X192565461Y-75027522D02*
X192550827Y-75307157D01*
X193838872Y-69837096D02*
X194501266Y-70572741D01*
X193486585Y-57451621D02*
X194432889Y-58502616D01*
X193547844Y-56283265D02*
X193486585Y-57451621D01*
X194432889Y-58502616D02*
X194184285Y-63246126D01*
X192503524Y-75254607D02*
X192550827Y-75307157D01*
X192612352Y-73177450D02*
X192503524Y-75254607D01*
X194184285Y-63246126D02*
X193838872Y-69837096D01*
X190848799Y-93548053D02*
X191553810Y-94331039D01*
X190903237Y-92509499D02*
X190848799Y-93548053D01*
X194617011Y-35881276D02*
X193765368Y-34935380D01*
X194544811Y-37259370D02*
X194617011Y-35881276D01*
X188047783Y-128172405D02*
X187006075Y-129976756D01*
X191533760Y-94713920D02*
X191553844Y-94331059D01*
X213841021Y-83653576D02*
X215097712Y-82522056D01*
X212698423Y-83593694D02*
X212828241Y-83600498D01*
X212828241Y-83600498D02*
X213841021Y-83653576D01*
X191723186Y-94519166D02*
X191553814Y-94331064D01*
X191534059Y-98127916D02*
X191723186Y-94519166D01*
X192608815Y-99321545D02*
X191534059Y-98127916D01*
X187774073Y-128014399D02*
X188047810Y-128172452D01*
X187194460Y-125851288D02*
X187774073Y-128014399D01*
X192195778Y-107011709D02*
X192228973Y-106378219D01*
X192228973Y-106378219D02*
X192180062Y-107311308D01*
X192223254Y-106678334D02*
X192608815Y-99321545D01*
X192348373Y-107498218D02*
X191805042Y-117865532D01*
X192180062Y-107311308D02*
X192348373Y-107498218D01*
X191805042Y-117865532D02*
X187194460Y-125851288D01*
X192066096Y-84556132D02*
X191908131Y-87570438D01*
X192550827Y-75307157D02*
X193875622Y-76778520D01*
X193719594Y-79755991D02*
X193243368Y-80184793D01*
X193243368Y-80184793D02*
X193192486Y-81155622D01*
X193192486Y-81155622D02*
X192197349Y-82051640D01*
X193875622Y-76778520D02*
X193719594Y-79755991D01*
X192197349Y-82051640D02*
X192066096Y-84556132D01*
X188059292Y-50303907D02*
X188107749Y-50260272D01*
X187935778Y-52660675D02*
X188059292Y-50303907D01*
X190074686Y-53768023D02*
X188876314Y-53705249D01*
X188876314Y-53705249D02*
X187935778Y-52660675D01*
X197539764Y-87863529D02*
X197541695Y-87865681D01*
X197800689Y-82884713D02*
X197800685Y-82884716D01*
X197800685Y-82884716D02*
X197539764Y-87863529D01*
X225996644Y-64388478D02*
X223610511Y-64263428D01*
X223610511Y-64263428D02*
X222001210Y-62476119D01*
X216224004Y-62173348D02*
X216161180Y-62229915D01*
X222001210Y-62476119D02*
X216224004Y-62173348D01*
X204840747Y-139164390D02*
X204837326Y-139034776D01*
X203396909Y-140685871D02*
X204840747Y-139164390D01*
X233272813Y-125497225D02*
X233276310Y-125629756D01*
X204837313Y-139034781D02*
X204727269Y-138930299D01*
X204727269Y-138930299D02*
X204626937Y-135098405D01*
X204626937Y-135098405D02*
X210980586Y-128402997D01*
X212037217Y-127451668D02*
X210980586Y-128402997D01*
X212652124Y-108829892D02*
X212565483Y-108506553D01*
X214314280Y-109789529D02*
X212652124Y-108829892D01*
X213782185Y-106399180D02*
X213420933Y-105050953D01*
X212565483Y-108506553D02*
X213782185Y-106399180D01*
X217883624Y-111909121D02*
X217864977Y-111839530D01*
X217734562Y-112167287D02*
X217883624Y-111909121D01*
X217884564Y-111907486D02*
X217734562Y-112167287D01*
X234843373Y-123976239D02*
X234802067Y-122398777D01*
X233268492Y-125635817D02*
X234843373Y-123976239D01*
X214964774Y-85058582D02*
X213103159Y-84961018D01*
X213103159Y-84961018D02*
X212404117Y-84924376D01*
X200893815Y-87169772D02*
X200909515Y-86870187D01*
X204062431Y-91027040D02*
X200877064Y-87489332D01*
X200909515Y-86870187D02*
X200980104Y-85523065D01*
X204317481Y-98084093D02*
X203736419Y-97438772D01*
X203736419Y-97438772D02*
X204055665Y-91347126D01*
X213651276Y-124656042D02*
X213281070Y-123274416D01*
X212037217Y-127451668D02*
X213651276Y-124656042D01*
X212660022Y-120956659D02*
X213651276Y-124656042D01*
X214352395Y-118025396D02*
X212660022Y-120956659D01*
X214352395Y-118025396D02*
X213467438Y-119558168D01*
X217734562Y-112167287D02*
X214352395Y-118025396D01*
X204046205Y-91336613D02*
X204055665Y-91347126D01*
X204062431Y-91027040D02*
X204046205Y-91336613D01*
X204196461Y-100202140D02*
X204319914Y-98092169D01*
X200893815Y-87169772D02*
X200877064Y-87489332D01*
X224863879Y-92190194D02*
X224872597Y-92199910D01*
X213190943Y-95888286D02*
X213062719Y-98334911D01*
X213190943Y-95888286D02*
X214069251Y-95934307D01*
X141755306Y-117208539D02*
X141676987Y-117208539D01*
X142340945Y-116622882D02*
X141755306Y-117208539D01*
X145142755Y-118611564D02*
X144988539Y-118823863D01*
X144895641Y-117051279D02*
X145142755Y-118611564D01*
X144819342Y-117156334D02*
X144895641Y-117051279D01*
X144497246Y-116761843D02*
X144895641Y-117051279D01*
X141676975Y-117208547D02*
X144497246Y-116761843D01*
X214537168Y-67231761D02*
X213280492Y-68363250D01*
X215895313Y-67302940D02*
X214537168Y-67231761D01*
X203483827Y-117829682D02*
X202008502Y-120384985D01*
X203798828Y-82681806D02*
X203835465Y-81982768D01*
X203798828Y-82681806D02*
X204573403Y-67902091D01*
X217329148Y-107956828D02*
X217329148Y-107956828D01*
X213802788Y-114064668D02*
X209588094Y-121364722D01*
X213802788Y-114064668D02*
X217329148Y-107956828D01*
X213365347Y-114822322D02*
X213802788Y-114064668D01*
X209588094Y-121364722D02*
X209588094Y-121364722D01*
X205366825Y-93181591D02*
X206414385Y-97091131D01*
X203494229Y-88493832D02*
X205481442Y-90700864D01*
X203798828Y-82681806D02*
X203494229Y-88493832D01*
X205474685Y-91020946D02*
X205361604Y-93178577D01*
X205481442Y-90700864D02*
X205465222Y-91010429D01*
X205465222Y-91010429D02*
X205474685Y-91020946D01*
X205361604Y-93178577D02*
X205366825Y-93181591D01*
X204335622Y-85814186D02*
X204435062Y-83916802D01*
X204335622Y-85814186D02*
X204372263Y-85115149D01*
X218431286Y-109491635D02*
X211829409Y-120926442D01*
X211829409Y-120926442D02*
X211454385Y-121576013D01*
X218431286Y-109491635D02*
X219093038Y-108345445D01*
X219093038Y-108345445D02*
X219093038Y-108345445D01*
X206913047Y-96247430D02*
X205968293Y-92721557D01*
X206892488Y-118941980D02*
X205134391Y-121987094D01*
X205134391Y-121987094D02*
X205134391Y-121987094D01*
X206091091Y-90532538D02*
X205977181Y-92706166D01*
X204335622Y-85814186D02*
X204198498Y-88430612D01*
X204198498Y-88430612D02*
X206091091Y-90532538D01*
X165568961Y-64700498D02*
X168123934Y-67538092D01*
X168123934Y-67538092D02*
X167820379Y-73330149D01*
X167820379Y-73330149D02*
X169712963Y-75432065D01*
X169712963Y-75432065D02*
X169699881Y-75681734D01*
X169699881Y-75681734D02*
X170504211Y-76575084D01*
X170504211Y-76575084D02*
X170425764Y-78073018D01*
X163948709Y-61861826D02*
X163905794Y-62680691D01*
X164454648Y-63290253D02*
X165639602Y-63352349D01*
X163905794Y-62680691D02*
X164454648Y-63290253D01*
X165639622Y-63352364D02*
X165639602Y-63352349D01*
X165568961Y-64700498D02*
X165639622Y-63352364D01*
X171430079Y-81330029D02*
X172097544Y-82071337D01*
X170208349Y-81266013D02*
X171430079Y-81330029D01*
X170260896Y-81218672D02*
X170208349Y-81266013D01*
X170425764Y-78073018D02*
X170260896Y-81218672D01*
X132043800Y-74334143D02*
X132445999Y-74780770D01*
X132062124Y-73984611D02*
X132043800Y-74334143D01*
X129203129Y-63095050D02*
X130433329Y-64461296D01*
X130051263Y-71751310D02*
X132062124Y-73984611D01*
X130433329Y-64461296D02*
X130051263Y-71751310D01*
X132445999Y-74780770D02*
X132388422Y-75879291D01*
X127577977Y-61342969D02*
X127591820Y-61358331D01*
X129203129Y-63095050D02*
X128018151Y-63032944D01*
X127532315Y-62493361D02*
X127591820Y-61358331D01*
X128018151Y-63032944D02*
X127532315Y-62493361D01*
X126366899Y-61294134D02*
X125719029Y-60574619D01*
X127591820Y-61358331D02*
X126366899Y-61294134D01*
X133651910Y-79350165D02*
X134300478Y-80070449D01*
X132160540Y-79272000D02*
X133651910Y-79350165D01*
X132213101Y-79224687D02*
X132160540Y-79272000D01*
X132388422Y-75879291D02*
X132213101Y-79224687D01*
X179481960Y-54314425D02*
X179393000Y-56011677D01*
X185272162Y-59900130D02*
X185277404Y-59800213D01*
X184878066Y-60254951D02*
X185272162Y-59900130D01*
X185277404Y-59800213D02*
X185724095Y-59398076D01*
X185724095Y-59398076D02*
X185731951Y-59248272D01*
X185731951Y-59248272D02*
X187833868Y-57355683D01*
X187894036Y-56207281D02*
X188038678Y-53447486D01*
X188038678Y-53447486D02*
X187186992Y-52501586D01*
X187894036Y-56207281D02*
X187969943Y-54759248D01*
X187833868Y-57355683D02*
X187894036Y-56207281D01*
X188310330Y-49219468D02*
X190507323Y-49334605D01*
X190507323Y-49334605D02*
X190980223Y-48908788D01*
X186804867Y-52845644D02*
X187186992Y-52501586D01*
X186219278Y-52814977D02*
X186804867Y-52845644D01*
X193102253Y-46316290D02*
X193750802Y-47036552D01*
X191121558Y-46212481D02*
X193102253Y-46316290D01*
X182918573Y-64858727D02*
X182885562Y-65488565D01*
X183613534Y-66297072D02*
X184558863Y-66346597D01*
X182885562Y-65488565D02*
X183613534Y-66297072D01*
X184878066Y-60254951D02*
X184811365Y-61527362D01*
X183008066Y-63151060D02*
X182918573Y-64858727D01*
X184811365Y-61527362D02*
X183008066Y-63151060D01*
X187411250Y-52299655D02*
X186804867Y-52845644D01*
X187536142Y-49916543D02*
X187411250Y-52299655D01*
X187536142Y-49916543D02*
X188310330Y-49219468D01*
X178482578Y-54262031D02*
X178320607Y-54253542D01*
X164597681Y-45974018D02*
X166545042Y-46076043D01*
X166545042Y-46076043D02*
X168092879Y-46157191D01*
X168092879Y-46157191D02*
X169039169Y-47208131D01*
X169039169Y-47208131D02*
X168916181Y-49554919D01*
X178270637Y-54250923D02*
X177259341Y-53127748D01*
X178482578Y-54262031D02*
X178270637Y-54250923D01*
X168916181Y-49554919D02*
X168675417Y-54148589D01*
X168675417Y-54148589D02*
X170804629Y-56513297D01*
X170804629Y-56513297D02*
X170791536Y-56762946D01*
X170791536Y-56762946D02*
X171548541Y-57603713D01*
X171548541Y-57603713D02*
X171459575Y-59301405D01*
X166636597Y-44328444D02*
X166545018Y-46076038D01*
X164304569Y-41527916D02*
X163789990Y-41991251D01*
X165796701Y-41606116D02*
X164304569Y-41527916D01*
X163251172Y-44478546D02*
X163361274Y-42377267D01*
X163361274Y-42377267D02*
X163597362Y-42164698D01*
X163251172Y-44478546D02*
X164597681Y-45974018D01*
X163789990Y-41991251D02*
X163597362Y-42164698D01*
X171459575Y-59301405D02*
X171310418Y-62147504D01*
X171315456Y-62142959D02*
X171205336Y-62242113D01*
X173170833Y-62240198D02*
X171315456Y-62142959D01*
X146656296Y-55848541D02*
X146753889Y-53986110D01*
X141563509Y-56532941D02*
X141647230Y-54935158D01*
X155177460Y-41224487D02*
X155219796Y-40416291D01*
X154660856Y-39795494D02*
X153309282Y-39724664D01*
X155219796Y-40416291D02*
X154660856Y-39795494D01*
X153147755Y-42807021D02*
X152536882Y-43357059D01*
X152514411Y-43355882D02*
X152480636Y-43386288D01*
X152536882Y-43357059D02*
X152514411Y-43355882D01*
X146746529Y-59858779D02*
X145911099Y-59814994D01*
X145911099Y-59814994D02*
X145244302Y-59074437D01*
X152194849Y-43371322D02*
X150968454Y-43307053D01*
X152194849Y-43371322D02*
X151684200Y-43344572D01*
X152480636Y-43386288D02*
X152194849Y-43371322D01*
X150968454Y-43307053D02*
X149827152Y-44334684D01*
X149448493Y-51559898D02*
X149151658Y-51827164D01*
X149827152Y-44334684D02*
X149448493Y-51559898D01*
X146753889Y-53986110D02*
X149151658Y-51827164D01*
X100091287Y-54155250D02*
X100091269Y-52655233D01*
X98166282Y-56980246D02*
X100091284Y-55055233D01*
X100091284Y-55055233D02*
X100091287Y-54155250D01*
X101666257Y-61430260D02*
X98716240Y-61430245D01*
X98166272Y-60880233D02*
X98166282Y-56980246D01*
X98716240Y-61430245D02*
X98166272Y-60880233D01*
X108791251Y-50555249D02*
X108791238Y-49155257D01*
X111841266Y-44105248D02*
X113112120Y-44105251D01*
X113112120Y-44105251D02*
X113820232Y-44813376D01*
X111841268Y-47102345D02*
X110844174Y-47102355D01*
X105312093Y-64555240D02*
X104640234Y-63883375D01*
X106341267Y-64555253D02*
X105312093Y-64555240D01*
X102183146Y-60913371D02*
X101881680Y-61214835D01*
X105750237Y-60913370D02*
X102183146Y-60913371D01*
X101881680Y-61214835D02*
X101666257Y-61430260D01*
X111841268Y-47102345D02*
X110052580Y-47102344D01*
X108791246Y-48363677D02*
X108791251Y-50555249D01*
X110052580Y-47102344D02*
X108791246Y-48363677D01*
X126123213Y-39701815D02*
X125177366Y-40553467D01*
X125177366Y-40553467D02*
X125046501Y-43050033D01*
X124952303Y-44847559D02*
X125046501Y-43050033D01*
X125401791Y-45346790D02*
X124952303Y-44847559D01*
X131117819Y-46622709D02*
X130195207Y-45598005D01*
X132700520Y-54351126D02*
X130822118Y-52264953D01*
X130822118Y-52264953D02*
X131070085Y-47533618D01*
X132684837Y-54650709D02*
X132700520Y-54351126D01*
X140721223Y-53482908D02*
X140320221Y-53037577D01*
X140647844Y-54882782D02*
X140721223Y-53482908D01*
X127820888Y-39790778D02*
X126123213Y-39701815D01*
X128425748Y-45446074D02*
X128481685Y-45508208D01*
X128588826Y-42334470D02*
X128425748Y-45446074D01*
X130195207Y-45598005D02*
X128481685Y-45508208D01*
X128481685Y-45508208D02*
X125401791Y-45346790D01*
X134501530Y-60318524D02*
X135167876Y-61058572D01*
X133157550Y-60248097D02*
X134501530Y-60318524D01*
X133408757Y-55454706D02*
X133103152Y-55115310D01*
X133157550Y-60248097D02*
X133408757Y-55454706D01*
X133103152Y-55115310D02*
X132684837Y-54650709D01*
X131070085Y-47533618D02*
X131117819Y-46622709D01*
X91973781Y-57287749D02*
X90041281Y-55355250D01*
X90041281Y-55355250D02*
X90041248Y-52805252D01*
X92941276Y-58540257D02*
X91973759Y-57572740D01*
X91973759Y-57572740D02*
X91973781Y-57287749D01*
X92791225Y-63155255D02*
X94252112Y-63155256D01*
X94252112Y-63155256D02*
X94970249Y-63873377D01*
X92941254Y-63005226D02*
X92791225Y-63155255D01*
X92941248Y-59604402D02*
X92941254Y-63005226D01*
X92941248Y-59604402D02*
X92941276Y-58540257D01*
X92941257Y-59905269D02*
X92941248Y-59604402D01*
X89403207Y-52167183D02*
X89475473Y-52239451D01*
X89403204Y-48367190D02*
X89403202Y-50931718D01*
X85600234Y-44813358D02*
X86292123Y-45505261D01*
X86292123Y-45505261D02*
X87291279Y-45505256D01*
X90041248Y-52805252D02*
X89475473Y-52239451D01*
X87291279Y-45505256D02*
X87291273Y-46255258D01*
X87291273Y-46255258D02*
X89403204Y-48367190D01*
X89403202Y-50931718D02*
X89403207Y-52167183D01*
X99090539Y-54154474D02*
X99090522Y-52655248D01*
X207045152Y-134406299D02*
X209323883Y-132005003D01*
X194345681Y-119656706D02*
X193950798Y-120340659D01*
X194174152Y-121174255D02*
X195225794Y-121781425D01*
X193950798Y-120340659D02*
X194174152Y-121174255D01*
X195243038Y-121845737D02*
X195225794Y-121781425D01*
X194560870Y-123027293D02*
X195243038Y-121845737D01*
X219201521Y-136229929D02*
X219201186Y-136216588D01*
X218236907Y-137246426D02*
X219201521Y-136229929D01*
X218238826Y-137246373D02*
X218236907Y-137246426D01*
X219753865Y-138684087D02*
X218238826Y-137246373D01*
X213283661Y-134475990D02*
X212269097Y-133513207D01*
X212269097Y-133513207D02*
X212242777Y-132507552D01*
X212242777Y-132507552D02*
X212669551Y-132057818D01*
X215046776Y-132618067D02*
X216526731Y-131058496D01*
X224306170Y-133542692D02*
X221869392Y-136110520D01*
X224839343Y-130247910D02*
X224838960Y-130233111D01*
X226288789Y-131623365D02*
X224839343Y-130247910D01*
X205451427Y-114928447D02*
X206584905Y-115582866D01*
X206584905Y-115582866D02*
X206845703Y-116556238D01*
X219885710Y-127462686D02*
X219079231Y-126697391D01*
X219079231Y-126697391D02*
X219047398Y-125482224D01*
X188133180Y-103234237D02*
X189644506Y-103313417D01*
X189644506Y-103313417D02*
X190293060Y-104033707D01*
X199988294Y-113390891D02*
X198757494Y-112680279D01*
X198757494Y-112680279D02*
X198641324Y-112246658D01*
X184619353Y-78566508D02*
X183831147Y-79276236D01*
X184637691Y-78216977D02*
X184619353Y-78566508D01*
X187284537Y-68792609D02*
X186897259Y-76182477D01*
X183831147Y-79276236D02*
X183742173Y-80973924D01*
X186897259Y-76182477D02*
X184637691Y-78216977D01*
X190124580Y-65236369D02*
X192006098Y-65334982D01*
X188289139Y-67888044D02*
X187827561Y-68303623D01*
X189980959Y-67976711D02*
X188289139Y-67888044D01*
X188072751Y-68082856D02*
X187827561Y-68303623D01*
X187827561Y-68303623D02*
X187284537Y-68792609D01*
X183561824Y-85370500D02*
X182336903Y-85306297D01*
X182336903Y-85306297D02*
X181849900Y-84765433D01*
X181849900Y-84765433D02*
X181893343Y-83936570D01*
X181964746Y-82574343D02*
X183423416Y-81260921D01*
X183742173Y-80973924D02*
X183423416Y-81260921D01*
X181893343Y-83936570D02*
X181964746Y-82574343D01*
X183423416Y-81260921D02*
X182953968Y-81683622D01*
X184390846Y-47261657D02*
X183752429Y-46552634D01*
X185555820Y-47322719D02*
X184390846Y-47261657D01*
X172202347Y-43218219D02*
X173543896Y-43288528D01*
X173970400Y-43762219D02*
X173920721Y-44710194D01*
X173543896Y-43288528D02*
X173970400Y-43762219D01*
X182080531Y-44695795D02*
X183752429Y-46552634D01*
X180984331Y-43478351D02*
X182080531Y-44695795D01*
X177669265Y-43304617D02*
X180984331Y-43478351D01*
X176618441Y-44250773D02*
X177669265Y-43304617D01*
X169418289Y-97296618D02*
X169504624Y-95648899D01*
X169504624Y-95648899D02*
X168865393Y-94938985D01*
X168875817Y-94740270D02*
X166960041Y-92612554D01*
X168865393Y-94938985D02*
X168875817Y-94740270D01*
X166960041Y-92612554D02*
X167258406Y-86919359D01*
X164642614Y-82376240D02*
X164561487Y-83924122D01*
X164561487Y-83924122D02*
X165665864Y-85150664D01*
X167258406Y-86919359D02*
X165665864Y-85150664D01*
X165665864Y-85150664D02*
X164561478Y-83924103D01*
X164642614Y-82376240D02*
X163637398Y-82323558D01*
X163637398Y-82323558D02*
X162961127Y-81572493D01*
X170662745Y-100365955D02*
X171311310Y-101086252D01*
X169211357Y-100289894D02*
X170662745Y-100365955D01*
X169263892Y-100242586D02*
X169211357Y-100289894D01*
X169418289Y-97296618D02*
X169263892Y-100242586D01*
X175239610Y-108186955D02*
X175133474Y-110211750D01*
X175239610Y-108186955D02*
X175208420Y-108781813D01*
X175494231Y-103519566D02*
X175233898Y-108487062D01*
X163645621Y-101400120D02*
X162031941Y-101315554D01*
X180302830Y-113860897D02*
X181628053Y-114253456D01*
X182147658Y-115210431D02*
X181968720Y-115814471D01*
X181628053Y-114253456D02*
X182147658Y-115210431D01*
X180388914Y-113814141D02*
X180302830Y-113860897D01*
X180719395Y-112698476D02*
X180388914Y-113814141D01*
X160574586Y-110230215D02*
X162056816Y-111876420D01*
X159917447Y-109500406D02*
X160574586Y-110230215D01*
X158289156Y-109415053D02*
X159917447Y-109500406D01*
X174631713Y-113641175D02*
X172950308Y-113143106D01*
X172950308Y-113143106D02*
X172946228Y-113141898D01*
X150320882Y-96746379D02*
X152282339Y-96849166D01*
X152723430Y-110525274D02*
X151569883Y-110464838D01*
X151569883Y-110464838D02*
X150885169Y-109704421D01*
X149906726Y-108617723D02*
X150061444Y-108789547D01*
X149761444Y-107584823D02*
X149718281Y-108408432D01*
X150189145Y-108931385D02*
X150885169Y-109704421D01*
X149718281Y-108408432D02*
X150189145Y-108931385D01*
X150061444Y-108789547D02*
X150189145Y-108931385D01*
X150190973Y-99389087D02*
X149761444Y-107584823D01*
X148032802Y-88815771D02*
X148299696Y-83722784D01*
X148299696Y-83722784D02*
X151137351Y-81167741D01*
X151315282Y-77772441D02*
X152746732Y-77847459D01*
X152746732Y-77847459D02*
X153423662Y-78599261D01*
X144755150Y-97856611D02*
X143829842Y-97808123D01*
X143829842Y-97808123D02*
X143144113Y-97046551D01*
X143144113Y-97046551D02*
X143178140Y-96397452D01*
X146751943Y-72175922D02*
X146770218Y-71826418D01*
X145963677Y-72885649D02*
X146751943Y-72175922D01*
X146770218Y-71826418D02*
X149029830Y-69791905D01*
X145895674Y-74183860D02*
X145963677Y-72885649D01*
X151944909Y-61633287D02*
X153582650Y-61719113D01*
X151944909Y-61633287D02*
X153532719Y-61716504D01*
X149963543Y-61529444D02*
X151944909Y-61633287D01*
X153582650Y-61719113D02*
X154155072Y-61203703D01*
X152327652Y-58734663D02*
X152312254Y-58748548D01*
X154279112Y-58836961D02*
X152327652Y-58734663D01*
X144654468Y-78825280D02*
X144006589Y-78105745D01*
X145749542Y-78882670D02*
X144654468Y-78825280D01*
X145895674Y-74183860D02*
X145871898Y-74637376D01*
X144105003Y-76228322D02*
X144006589Y-78105745D01*
X145871898Y-74637376D02*
X144105003Y-76228322D01*
X149438047Y-62002602D02*
X149963543Y-61529444D01*
X149115834Y-68150782D02*
X149438047Y-62002602D01*
X149029830Y-69791905D02*
X149115834Y-68150782D01*
X147724642Y-40813863D02*
X147743566Y-40834892D01*
X145900550Y-40718288D02*
X147724642Y-40813863D01*
X136950681Y-41370770D02*
X137441187Y-40929106D01*
X138369497Y-40093273D02*
X137441187Y-40929106D01*
X134154546Y-41224234D02*
X136056045Y-41323875D01*
X136056045Y-41323875D02*
X136950681Y-41370770D01*
X128867628Y-90515056D02*
X130807534Y-92669549D01*
X131504148Y-93707444D02*
X131407307Y-95554911D01*
X129152838Y-85072540D02*
X128867628Y-90515056D01*
X130807534Y-92669549D02*
X130794414Y-92919213D01*
X130794414Y-92919213D02*
X131504148Y-93707444D01*
X125549661Y-80327469D02*
X124873397Y-79576384D01*
X126594821Y-80382239D02*
X125549661Y-80327469D01*
X126594821Y-80382239D02*
X126503227Y-82129843D01*
X126503253Y-82129845D02*
X127347380Y-83067365D01*
X126503227Y-82129843D02*
X127347380Y-83067365D01*
X127347380Y-83067365D02*
X129152838Y-85072540D01*
X131163544Y-98295916D02*
X132614994Y-98371987D01*
X132614994Y-98371987D02*
X133291907Y-99123763D01*
X131268624Y-98201299D02*
X131163544Y-98295916D01*
X131407307Y-95554911D02*
X131268624Y-98201299D01*
X139856512Y-108149735D02*
X139612481Y-106608958D01*
X139612481Y-106608958D02*
X136569145Y-104397821D01*
X125597811Y-99406162D02*
X124662533Y-99357151D01*
X124662533Y-99357151D02*
X124014636Y-98637575D01*
X137663956Y-109759606D02*
X138483803Y-110355258D01*
X136228680Y-109986921D02*
X137663956Y-109759606D01*
X125292301Y-99681247D02*
X125597814Y-99406162D01*
X125130275Y-102772904D02*
X125292301Y-99681247D01*
X125044428Y-105222722D02*
X124987799Y-105300665D01*
X125012468Y-105020951D02*
X125044428Y-105222722D01*
X125012468Y-105020951D02*
X125130275Y-102772904D01*
X116089440Y-102655259D02*
X116733905Y-103299711D01*
X114128345Y-102655276D02*
X116089440Y-102655259D01*
X116733905Y-103299711D02*
X117431998Y-103997776D01*
X123280917Y-105101112D02*
X122285197Y-105048921D01*
X126441919Y-110075414D02*
X126229643Y-108735102D01*
X128901782Y-111862594D02*
X126441919Y-110075414D01*
X126229643Y-108735102D02*
X126072443Y-107742612D01*
X126012287Y-107698909D02*
X123316653Y-105140846D01*
X126072443Y-107742612D02*
X126012287Y-107698909D01*
X123316653Y-105140846D02*
X123280917Y-105101112D01*
X111841267Y-101255263D02*
X113272130Y-101255274D01*
X113272130Y-101255274D02*
X114128343Y-102111471D01*
X114128343Y-102111471D02*
X114128345Y-102655276D01*
X129695338Y-112439158D02*
X131015394Y-112230067D01*
X128901782Y-111862594D02*
X129695338Y-112439158D01*
X109651277Y-89555225D02*
X109651274Y-88485253D01*
X109651274Y-88485253D02*
X108831256Y-87665263D01*
X108831256Y-87665263D02*
X108831250Y-85765242D01*
X108831250Y-85765242D02*
X109561234Y-85035233D01*
X109561234Y-85035233D02*
X110751245Y-85035242D01*
X110751245Y-85035242D02*
X110891295Y-85035246D01*
X111841270Y-82205270D02*
X112932109Y-82205265D01*
X112932109Y-82205265D02*
X113620224Y-82893378D01*
X113620224Y-82893378D02*
X113620229Y-83603364D01*
X106323167Y-102673382D02*
X106341276Y-102655262D01*
X104610217Y-102673367D02*
X106323167Y-102673382D01*
X106231244Y-98765258D02*
X104580240Y-100416256D01*
X104580239Y-102643369D02*
X104610217Y-102673367D01*
X104580240Y-100416256D02*
X104580239Y-102643369D01*
X87291254Y-64555251D02*
X86212113Y-64555237D01*
X91991264Y-76455237D02*
X90091281Y-74555260D01*
X90091281Y-68794425D02*
X87291225Y-65994368D01*
X94590229Y-82904235D02*
X93891260Y-82205242D01*
X91991263Y-76655262D02*
X91991264Y-76455237D01*
X94590238Y-83603370D02*
X94590229Y-82904235D01*
X92614810Y-77278812D02*
X91991263Y-76655262D01*
X92791271Y-82205235D02*
X92791268Y-77455270D01*
X93891260Y-82205242D02*
X92791271Y-82205235D01*
X92791268Y-77455270D02*
X92614810Y-77278812D01*
X86212113Y-64555237D02*
X85560241Y-63903361D01*
X87291225Y-65994368D02*
X87291254Y-64555251D01*
X90091281Y-74555260D02*
X90091281Y-68794425D01*
X90141266Y-87455245D02*
X90141273Y-93655256D01*
X90141273Y-93655256D02*
X92141251Y-95655243D01*
X92141251Y-95655243D02*
X92141248Y-95855228D01*
X92141248Y-95855228D02*
X92941271Y-96655246D01*
X92941271Y-96655246D02*
X92941259Y-99305251D01*
X86422112Y-83605246D02*
X87291255Y-83605231D01*
X85700232Y-82883364D02*
X86422112Y-83605246D01*
X85700232Y-82883364D02*
X85700242Y-82223364D01*
X87291257Y-83605237D02*
X87291255Y-83605231D01*
X87291268Y-86255240D02*
X87291257Y-83605237D01*
X92941259Y-101105293D02*
X92791283Y-101255260D01*
X92941259Y-99305251D02*
X92941259Y-101105293D01*
X92791283Y-101255260D02*
X94948346Y-101255243D01*
X85432115Y-101255266D02*
X85432120Y-101905268D01*
X86182127Y-102655250D02*
X87291282Y-102655248D01*
X85432120Y-101905268D02*
X86182127Y-102655250D01*
X104051592Y-131514733D02*
X103635613Y-130874217D01*
X102755469Y-130687137D02*
X101563873Y-131460950D01*
X103635613Y-130874217D02*
X102755469Y-130687137D01*
X105144744Y-133198025D02*
X105688253Y-133313558D01*
X104051592Y-131514733D02*
X105144744Y-133198025D01*
X88187629Y-104301599D02*
X87291279Y-103405249D01*
X97146419Y-104301599D02*
X88187629Y-104301599D01*
X87291279Y-103405249D02*
X87291279Y-102655249D01*
X98094800Y-105249980D02*
X97146419Y-104301599D01*
X102528162Y-130496681D02*
X101563883Y-131460960D01*
X102528162Y-127595120D02*
X102528162Y-130496681D01*
X103270232Y-126853050D02*
X102528162Y-127595120D01*
X103270232Y-120134380D02*
X103270232Y-126853050D01*
X81991282Y-99130263D02*
X81991246Y-97355245D01*
X83041276Y-96305262D02*
X81991246Y-97355245D01*
X83041279Y-94675238D02*
X83041281Y-95805219D01*
X83041276Y-96305262D02*
X83041279Y-94675238D01*
X91348838Y-135560919D02*
X90382135Y-134072270D01*
X90690869Y-132619781D02*
X90382135Y-134072270D01*
X89803115Y-131252758D02*
X90690869Y-132619781D01*
X88158316Y-128719977D02*
X86705815Y-128411233D01*
X89803115Y-131252758D02*
X88158316Y-128719977D01*
X212479513Y-149431371D02*
X211181286Y-149465357D01*
X215798009Y-145934438D02*
X212479513Y-149431371D01*
X219786830Y-142813284D02*
X218564994Y-144100829D01*
X216851182Y-145906833D02*
X215798037Y-145934416D01*
X218564994Y-144100839D02*
X216851182Y-145906833D01*
X106241275Y-77555241D02*
X107091272Y-76705217D01*
X107091272Y-76705217D02*
X107091273Y-76455250D01*
X107091273Y-76455250D02*
X108491264Y-75055250D01*
X111841258Y-63155251D02*
X113252100Y-63155252D01*
X109741267Y-69505205D02*
X108791274Y-68555249D01*
X109741282Y-70505254D02*
X109741267Y-69505205D01*
X108791274Y-68555249D02*
X108791310Y-66955251D01*
X108791310Y-66955251D02*
X109641264Y-66105245D01*
X109641264Y-66105245D02*
X113048357Y-66105245D01*
X113048357Y-66105245D02*
X113835230Y-65318365D01*
X113252100Y-63155252D02*
X113608357Y-63155249D01*
X106241278Y-79755233D02*
X106241275Y-77555241D01*
X104492118Y-82205260D02*
X104492119Y-82885264D01*
X105212131Y-83605260D02*
X106341256Y-83605261D01*
X104492119Y-82885264D02*
X105212131Y-83605260D01*
X105462111Y-45505241D02*
X104770236Y-44813371D01*
X106341270Y-45505242D02*
X105462111Y-45505241D01*
X94222120Y-44105259D02*
X94910231Y-44793363D01*
X92791281Y-44105262D02*
X94222120Y-44105259D01*
X94910231Y-44793363D02*
X96350235Y-43353374D01*
X95475810Y-135414603D02*
X95944222Y-136135843D01*
X96691193Y-136294627D02*
X97713681Y-135630617D01*
X95944222Y-136135843D02*
X96691193Y-136294627D01*
X199685439Y-97010657D02*
X198963478Y-98632189D01*
X200144597Y-104390874D02*
X200296578Y-104350150D01*
X210733815Y-105272312D02*
X210606896Y-105199038D01*
X210734210Y-105278433D02*
X208961801Y-104255128D01*
X208961801Y-104255128D02*
X208397994Y-102150947D01*
X205944658Y-100734525D02*
X201732435Y-101863190D01*
X208397994Y-102150947D02*
X205944658Y-100734525D01*
X201732435Y-101863190D02*
X200296576Y-104350149D01*
X201214984Y-99932120D02*
X201732435Y-101863190D01*
X198963475Y-98632204D02*
X201214984Y-99932120D01*
X222487460Y-113018455D02*
X221406920Y-114426663D01*
X223789945Y-114153159D02*
X223790371Y-114157267D01*
X223780338Y-114154157D02*
X223789945Y-114153159D01*
X232241394Y-122069378D02*
X232184630Y-119901124D01*
X226065518Y-114094320D02*
X223780338Y-114154157D01*
X232184630Y-119901124D02*
X226065518Y-114094320D01*
X222580971Y-113015998D02*
X222487458Y-113018445D01*
X223780338Y-114154157D02*
X222580971Y-113015998D01*
X222215039Y-115193541D02*
X222307809Y-118736169D01*
X221406904Y-114426646D02*
X222215039Y-115193541D01*
X182887463Y-98237838D02*
X185768157Y-95644045D01*
X189127548Y-84260252D02*
X190359265Y-84324818D01*
X190359265Y-84324818D02*
X190979435Y-85013573D01*
X190979435Y-85013573D02*
X190941236Y-85742572D01*
X190941236Y-85742572D02*
X190887061Y-86776131D01*
X190941236Y-85742572D02*
X190699960Y-90346266D01*
X190699960Y-90346266D02*
X189386247Y-91529118D01*
X187543249Y-91432532D02*
X185911898Y-92901405D01*
X185768157Y-95644045D02*
X185911898Y-92901405D01*
X189386247Y-91529118D02*
X187543249Y-91432532D01*
X181712020Y-104299626D02*
X181045223Y-103559071D01*
X182567447Y-104344454D02*
X181712020Y-104299626D01*
X182887463Y-98237838D02*
X182797492Y-99954609D01*
X181156702Y-101431991D02*
X181045223Y-103559071D01*
X182797492Y-99954609D02*
X181156702Y-101431991D01*
X216427028Y-57156855D02*
X216405225Y-57572895D01*
X216293806Y-57149894D02*
X216427028Y-57156855D01*
D24*
X216044152Y-57136794D02*
X213826353Y-59133707D01*
X216427028Y-57156855D02*
X216044152Y-57136794D01*
X210215086Y-56961740D02*
X210259044Y-56122881D01*
X210259044Y-56122881D02*
X209587182Y-55376691D01*
X210215093Y-56961726D02*
X210074304Y-59648052D01*
X207828929Y-53982757D02*
X207386274Y-54381358D01*
X208605436Y-54023483D02*
X207828929Y-53982757D01*
X207262284Y-56746913D02*
X207319056Y-56809961D01*
X207386274Y-54381358D02*
X207262284Y-56746913D01*
X208620217Y-54039874D02*
X208605436Y-54023483D01*
X208636615Y-54025103D02*
X208620217Y-54039874D01*
X211732370Y-54187332D02*
X208636615Y-54025103D01*
X212536715Y-55080672D02*
X211732370Y-54187332D01*
X222438316Y-84862439D02*
X222564432Y-82455721D01*
X225234454Y-85008949D02*
X225360583Y-82602244D01*
X225360581Y-82602288D02*
X225360583Y-82602244D01*
X222564432Y-82455721D02*
X225360581Y-82602288D01*
X222945755Y-77536197D02*
X224239968Y-77604031D01*
X224239968Y-77604031D02*
X225008518Y-76912013D01*
X215086641Y-94865669D02*
X214774774Y-94519297D01*
X214809742Y-100149259D02*
X215086641Y-94865669D01*
X214469088Y-100161022D02*
X214815452Y-99849147D01*
X217372171Y-92839731D02*
X218600383Y-91733854D01*
X218710293Y-89636718D02*
X218700266Y-89636199D01*
X218600383Y-91733854D02*
X218710293Y-89636718D01*
X218700266Y-89636199D02*
X217661370Y-88482398D01*
X217035870Y-93142536D02*
X217372171Y-92839731D01*
X217035870Y-93142536D02*
X216344070Y-93106286D01*
X218358179Y-75186388D02*
X218897238Y-64900509D01*
X218334672Y-75826035D02*
X218358179Y-75186388D01*
X217874122Y-84613974D02*
X218334672Y-75826035D01*
X217719994Y-87363926D02*
X217678115Y-88162833D01*
X217874122Y-84613974D02*
X217719994Y-87363926D01*
X217678115Y-88162833D02*
X217661370Y-88482398D01*
X214774766Y-94519292D02*
X216050581Y-93370543D01*
X216344070Y-93106286D02*
X216050581Y-93370543D01*
X216050581Y-93370543D02*
X214774767Y-94519293D01*
D25*
X213956079Y-88230745D02*
X213086438Y-88185169D01*
X216407222Y-90953015D02*
X213956079Y-88230745D01*
X213870702Y-90820081D02*
X212649382Y-89463667D01*
X212649382Y-89463667D02*
X211320751Y-89394037D01*
X210847604Y-88868554D02*
X210889453Y-88070030D01*
X211320751Y-89394037D02*
X210847604Y-88868554D01*
X211334183Y-90687148D02*
X210112863Y-89330734D01*
X208650620Y-88753415D02*
X209123766Y-89278898D01*
X208692468Y-87954891D02*
X208650620Y-88753415D01*
X210112863Y-89330734D02*
X209123766Y-89278898D01*
X208797664Y-90554215D02*
X207576344Y-89197801D01*
X207576344Y-89197801D02*
X206926781Y-89163759D01*
X206453635Y-88638276D02*
X206495483Y-87839752D01*
X206926781Y-89163759D02*
X206453635Y-88638276D01*
M02*
