%FSLAX45Y45*%
G04 Gerber Fmt 4.5, Leading zero omitted, Abs format (unit mm)*
G04 Created by KiCad (PCBNEW (5.1.12-1-10_14)) date 2021-11-28 14:19:33*
%MOMM*%
%LPD*%
G01*
G04 APERTURE LIST*
%TA.AperFunction,Profile*%
%ADD10C,0.050000*%
%TD*%
%ADD11C,0.200000*%
%ADD12C,0.300000*%
G04 APERTURE END LIST*
D10*
X9984095Y-11089948D02*
X9977103Y-10960773D01*
X9977103Y-10960773D02*
G75*
G02*
X10023903Y-10908797I49388J2588D01*
G01*
X10023903Y-10908797D02*
X12319749Y-10788234D01*
X9984095Y-11089948D02*
X10074770Y-12800721D01*
X10031280Y-12920987D02*
X8287889Y-13012355D01*
X10078594Y-12868439D02*
X10074770Y-12800721D01*
X8287889Y-13012354D02*
G75*
G02*
X8235341Y-12965039I-2617J49931D01*
G01*
X10078595Y-12868438D02*
G75*
G02*
X10031280Y-12920987I-49932J-2617D01*
G01*
X23995252Y-11987565D02*
G75*
G02*
X24000800Y-12058059I-32473J-38021D01*
G01*
X21607694Y-14859749D02*
G75*
G02*
X21537201Y-14865298I-38021J32472D01*
G01*
X12871767Y-12740465D02*
G75*
G02*
X12812465Y-12701953I-10395J48907D01*
G01*
X11870049Y-5112899D02*
X11854079Y-5114615D01*
X11812496Y-5055899D02*
X11800009Y-5057366D01*
X7739482Y-3472176D02*
G75*
G02*
X7786796Y-3419627I49931J2617D01*
G01*
X7883383Y-5262628D02*
G75*
G02*
X7830836Y-5215313I-2616J49931D01*
G01*
X8916285Y-5268562D02*
G75*
G02*
X8913142Y-5208645I-1575J29958D01*
G01*
X9736841Y-5165492D02*
X8913142Y-5208645D01*
X9726998Y-5226091D02*
X8916282Y-5268561D01*
X8631186Y-5223438D02*
G75*
G02*
X8634325Y-5283355I1573J-29958D01*
G01*
X7885353Y-5322607D02*
X8634325Y-5283355D01*
X7883384Y-5262628D02*
X8631186Y-5223437D01*
X7838038Y-5375156D02*
G75*
G02*
X7885353Y-5322607I49932J2617D01*
G01*
X10815687Y-5108953D02*
X11800009Y-5057366D01*
X10818827Y-5168870D02*
X11854079Y-5114615D01*
X10818828Y-5168870D02*
G75*
G02*
X10815687Y-5108953I-1570J29959D01*
G01*
X10533575Y-5123738D02*
G75*
G02*
X10536714Y-5183655I1573J-29958D01*
G01*
X9726998Y-5226091D02*
X10536714Y-5183655D01*
X9736841Y-5165492D02*
X10533575Y-5123737D01*
X11920049Y-5062899D02*
G75*
G02*
X11870049Y-5112899I-50000J0D01*
G01*
X11862496Y-5005899D02*
G75*
G02*
X11812496Y-5055899I-50000J0D01*
G01*
X11869496Y-3206224D02*
X11827091Y-3207628D01*
X11919496Y-3156225D02*
G75*
G02*
X11869496Y-3206224I-50000J0D01*
G01*
X19467496Y-3052224D02*
G75*
G02*
X19517496Y-3102224I0J-50000D01*
G01*
X17662496Y-3052224D02*
G75*
G02*
X17612496Y-3002224I0J50000D01*
G01*
X17562496Y-2852225D02*
G75*
G02*
X17612496Y-2902225I0J-50000D01*
G01*
X15757496Y-2852224D02*
G75*
G02*
X15707497Y-2802225I0J50000D01*
G01*
X15657496Y-2602224D02*
G75*
G02*
X15707496Y-2652224I0J-50000D01*
G01*
X13824496Y-2652225D02*
G75*
G02*
X13874496Y-2602225I50000J0D01*
G01*
X13824496Y-2802224D02*
G75*
G02*
X13774497Y-2852224I-50000J-1D01*
G01*
X11919496Y-2902225D02*
G75*
G02*
X11969496Y-2852224I50000J0D01*
G01*
X17662496Y-4957224D02*
G75*
G02*
X17612497Y-4907225I0J49999D01*
G01*
X13757496Y-4697225D02*
G75*
G03*
X13767496Y-4687225I0J10000D01*
G01*
X13825496Y-4707224D02*
G75*
G02*
X13775496Y-4757224I-49999J0D01*
G01*
X15757496Y-4757224D02*
G75*
G02*
X15707496Y-4707225I0J50000D01*
G01*
X19517496Y-4847226D02*
G75*
G02*
X19467496Y-4897226I-50000J0D01*
G01*
X19467496Y-4897226D02*
X18717495Y-4897227D01*
X18717496Y-4957225D02*
G75*
G02*
X18717495Y-4897227I2J29999D01*
G01*
X18717496Y-4957225D02*
X19517496Y-4957225D01*
X18434996Y-4897226D02*
X17682496Y-4897227D01*
X17672496Y-4887226D02*
G75*
G03*
X17682496Y-4897227I10000J-1D01*
G01*
X18434996Y-4957226D02*
X17662496Y-4957224D01*
X18434995Y-4957227D02*
G75*
G03*
X18434996Y-4897226I0J30001D01*
G01*
X17612497Y-4907225D02*
X17612496Y-4807225D01*
X17607496Y-4697226D02*
X16812496Y-4697227D01*
X16812496Y-4757224D02*
X17562496Y-4757225D01*
X17607496Y-4697225D02*
G75*
G02*
X17672496Y-4762224I1J-65000D01*
G01*
X16812495Y-4757224D02*
G75*
G02*
X16812496Y-4697227I2J29999D01*
G01*
X17672496Y-4887226D02*
X17672496Y-4762224D01*
X17562496Y-4757225D02*
G75*
G02*
X17612496Y-4807225I0J-50000D01*
G01*
X15767496Y-4687224D02*
G75*
G03*
X15777496Y-4697225I10000J0D01*
G01*
X16529996Y-4697225D02*
X15777496Y-4697225D01*
X16529996Y-4757224D02*
X15757496Y-4757225D01*
X16529997Y-4757224D02*
G75*
G03*
X16529996Y-4697225I-1J30000D01*
G01*
X15707496Y-4707225D02*
X15707496Y-4557225D01*
X15767496Y-4687225D02*
X15767496Y-4512224D01*
X11919996Y-4807224D02*
G75*
G02*
X11969996Y-4757224I50000J0D01*
G01*
X11927496Y-4697224D02*
X12719996Y-4697225D01*
X11969996Y-4757224D02*
X12719996Y-4757225D01*
X11862496Y-4762223D02*
G75*
G02*
X11927496Y-4697224I65000J-1D01*
G01*
X12719997Y-4697225D02*
G75*
G02*
X12719996Y-4757225I3J-30000D01*
G01*
X13002496Y-4757224D02*
G75*
G02*
X13002497Y-4697225I1J30000D01*
G01*
X15657496Y-4507224D02*
G75*
G02*
X15707496Y-4557225I0J-50000D01*
G01*
X13824996Y-4557224D02*
G75*
G02*
X13874997Y-4507224I50000J0D01*
G01*
X22552451Y-5391707D02*
G75*
G02*
X22605646Y-5476337I-46339J-88160D01*
G01*
X22611547Y-10805733D02*
X22605648Y-10789644D01*
X22611547Y-10805733D02*
X23995252Y-11987566D01*
X21695184Y-4957224D02*
X21702075Y-4958295D01*
X21702075Y-4958295D02*
X22552451Y-5391708D01*
X12319749Y-10788235D02*
G75*
G02*
X12422322Y-10866510I4678J-100214D01*
G01*
X14673941Y-12357284D02*
X12871768Y-12740465D01*
X12422322Y-10866510D02*
X12812465Y-12701953D01*
X11441923Y-3228077D02*
X11827091Y-3207628D01*
X24000800Y-12058059D02*
X21607694Y-14859749D01*
X22605646Y-5476337D02*
X22605648Y-10789644D01*
X21695184Y-4957224D02*
X19517496Y-4957225D01*
X16579756Y-12356877D02*
X18435987Y-12802955D01*
X16579756Y-12356877D02*
X14673941Y-12357284D01*
X18435987Y-12802955D02*
X20136924Y-13668698D01*
X20136924Y-13668698D02*
X21537201Y-14865298D01*
X14624996Y-4447224D02*
G75*
G02*
X14624996Y-4507225I3J-30000D01*
G01*
X14907496Y-4507225D02*
G75*
G02*
X14907495Y-4447227I1J29999D01*
G01*
X15702496Y-4447226D02*
G75*
G02*
X15767496Y-4512224I1J-64999D01*
G01*
X13767496Y-4512224D02*
G75*
G02*
X13832496Y-4447225I65000J-1D01*
G01*
X7838038Y-5375155D02*
X8235341Y-12965039D01*
X13824496Y-2652225D02*
X13824497Y-2802225D01*
X15657496Y-2602225D02*
X13874496Y-2602225D01*
X15707497Y-2802225D02*
X15707496Y-2652224D01*
X17562496Y-2852224D02*
X15757496Y-2852225D01*
X17612496Y-3002224D02*
X17612496Y-2902225D01*
X19467496Y-3052224D02*
X17662496Y-3052224D01*
X19517496Y-4847226D02*
X19517496Y-3102224D01*
X14907496Y-4507225D02*
X15657496Y-4507224D01*
X15702496Y-4447226D02*
X14907495Y-4447227D01*
X11969496Y-2852224D02*
X13774497Y-2852224D01*
X11919496Y-3156224D02*
X11919496Y-2902224D01*
X7786796Y-3419627D02*
X11441923Y-3228077D01*
X7830836Y-5215313D02*
X7739482Y-3472176D01*
X13874997Y-4507224D02*
X14624996Y-4507225D01*
X13825497Y-4707224D02*
X13824996Y-4557225D01*
X13002496Y-4757224D02*
X13775496Y-4757224D01*
X13832496Y-4447225D02*
X14624996Y-4447224D01*
X13767496Y-4687225D02*
X13767496Y-4512224D01*
X13002497Y-4697225D02*
X13757495Y-4697225D01*
X11919996Y-4807225D02*
X11920048Y-5062900D01*
X11862496Y-4762224D02*
X11862496Y-5005900D01*
D11*
X8274912Y-11390027D02*
X8304912Y-11420027D01*
X8304912Y-11390027D02*
X8274912Y-11420027D01*
X8291112Y-4791164D02*
X8321112Y-4821164D01*
X8321112Y-4791164D02*
X8291112Y-4821164D01*
X8387027Y-6697757D02*
X8417027Y-6727757D01*
X8417027Y-6697757D02*
X8387027Y-6727757D01*
X8496888Y-8526514D02*
X8526888Y-8556514D01*
X8526888Y-8526514D02*
X8496888Y-8556514D01*
X8498167Y-8950216D02*
X8528167Y-8980216D01*
X8528167Y-8950216D02*
X8498167Y-8980216D01*
X8539845Y-10770312D02*
X8569845Y-10800312D01*
X8569845Y-10770312D02*
X8539845Y-10800312D01*
X8569717Y-10428499D02*
X8599717Y-10458499D01*
X8599717Y-10428499D02*
X8569717Y-10458499D01*
X8676874Y-8920822D02*
X8706874Y-8950822D01*
X8706874Y-8920822D02*
X8676874Y-8950822D01*
X8698020Y-11342820D02*
X8728020Y-11372820D01*
X8728020Y-11342820D02*
X8698020Y-11372820D01*
X8702909Y-5382258D02*
X8732909Y-5412258D01*
X8732909Y-5382258D02*
X8702909Y-5412258D01*
X8875678Y-11190532D02*
X8905678Y-11220532D01*
X8905678Y-11190532D02*
X8875678Y-11220532D01*
X8967763Y-9025743D02*
X8997763Y-9055743D01*
X8997763Y-9025743D02*
X8967763Y-9055743D01*
X9135078Y-3524446D02*
X9165078Y-3554446D01*
X9165078Y-3524446D02*
X9135078Y-3554446D01*
X9220731Y-4740442D02*
X9250731Y-4770442D01*
X9250731Y-4740442D02*
X9220731Y-4770442D01*
X9258363Y-5485180D02*
X9288363Y-5515180D01*
X9288363Y-5485180D02*
X9258363Y-5515180D01*
X9326582Y-6645514D02*
X9356582Y-6675514D01*
X9356582Y-6645514D02*
X9326582Y-6675514D01*
X9356998Y-4589104D02*
X9386998Y-4619104D01*
X9386998Y-4589104D02*
X9356998Y-4619104D01*
X9357327Y-7383103D02*
X9387327Y-7413103D01*
X9387327Y-7383103D02*
X9357327Y-7413103D01*
X9391892Y-8617799D02*
X9421892Y-8647799D01*
X9421892Y-8617799D02*
X9391892Y-8647799D01*
X9457027Y-9285492D02*
X9487027Y-9315492D01*
X9487027Y-9285492D02*
X9457027Y-9315492D01*
X9520036Y-10378693D02*
X9550036Y-10408693D01*
X9550036Y-10378693D02*
X9520036Y-10408693D01*
X9524480Y-7324274D02*
X9554480Y-7354274D01*
X9554480Y-7324274D02*
X9524480Y-7354274D01*
X9572297Y-11296501D02*
X9602297Y-11326501D01*
X9602297Y-11296501D02*
X9572297Y-11326501D01*
X9687181Y-5653392D02*
X9717181Y-5683392D01*
X9717181Y-5653392D02*
X9687181Y-5683392D01*
X9787123Y-5648232D02*
X9817123Y-5678232D01*
X9817123Y-5648232D02*
X9787123Y-5678232D01*
X9820922Y-10360141D02*
X9850922Y-10390141D01*
X9850922Y-10360141D02*
X9820922Y-10390141D01*
X9859025Y-11427171D02*
X9889025Y-11457171D01*
X9889025Y-11427171D02*
X9859025Y-11457171D01*
X10205485Y-4690837D02*
X10235485Y-4720837D01*
X10235485Y-4690837D02*
X10205485Y-4720837D01*
X10236125Y-7337047D02*
X10266125Y-7367047D01*
X10266125Y-7337047D02*
X10236125Y-7367047D01*
X10292307Y-6595904D02*
X10322307Y-6625904D01*
X10322307Y-6595904D02*
X10292307Y-6625904D01*
X10373405Y-8426357D02*
X10403405Y-8456357D01*
X10403405Y-8426357D02*
X10373405Y-8456357D01*
X10387612Y-6293501D02*
X10417612Y-6323501D01*
X10417612Y-6293501D02*
X10387612Y-6323501D01*
X10492321Y-10469744D02*
X10522321Y-10499744D01*
X10522321Y-10469744D02*
X10492321Y-10499744D01*
X10535259Y-8172536D02*
X10565259Y-8202536D01*
X10565259Y-8172536D02*
X10535259Y-8202536D01*
X10633748Y-10070985D02*
X10663748Y-10100985D01*
X10663748Y-10070985D02*
X10633748Y-10100985D01*
X10637086Y-5243193D02*
X10667086Y-5273193D01*
X10667086Y-5243193D02*
X10637086Y-5273193D01*
X10735352Y-7691406D02*
X10765352Y-7721406D01*
X10765352Y-7691406D02*
X10735352Y-7721406D01*
X10836369Y-7230488D02*
X10866369Y-7260488D01*
X10866369Y-7230488D02*
X10836369Y-7260488D01*
X10923599Y-4882414D02*
X10953599Y-4912414D01*
X10953599Y-4882414D02*
X10923599Y-4912414D01*
X10927081Y-9133345D02*
X10957081Y-9163345D01*
X10957081Y-9133345D02*
X10927081Y-9163345D01*
X11027257Y-8675477D02*
X11057257Y-8705477D01*
X11057257Y-8675477D02*
X11027257Y-8705477D01*
X11047453Y-3424223D02*
X11077453Y-3454223D01*
X11077453Y-3424223D02*
X11047453Y-3454223D01*
X11109244Y-4643473D02*
X11139244Y-4673473D01*
X11139244Y-4643473D02*
X11109244Y-4673473D01*
X11175732Y-5384697D02*
X11205732Y-5414697D01*
X11205732Y-5384697D02*
X11175732Y-5414697D01*
X11184080Y-6476256D02*
X11214080Y-6506256D01*
X11214080Y-6476256D02*
X11184080Y-6506256D01*
X11218057Y-6691084D02*
X11248057Y-6721084D01*
X11248057Y-6691084D02*
X11218057Y-6721084D01*
X11292282Y-8518203D02*
X11322282Y-8548203D01*
X11322282Y-8518203D02*
X11292282Y-8548203D01*
X11340674Y-7204058D02*
X11370674Y-7234058D01*
X11370674Y-7204058D02*
X11340674Y-7234058D01*
X11442208Y-9141400D02*
X11472208Y-9171400D01*
X11472208Y-9141400D02*
X11442208Y-9171400D01*
X11442734Y-10418124D02*
X11472734Y-10448124D01*
X11472734Y-10418124D02*
X11442734Y-10448124D01*
X11627234Y-9041578D02*
X11657234Y-9071578D01*
X11657234Y-9041578D02*
X11627234Y-9071578D01*
X11779673Y-10534900D02*
X11809673Y-10564900D01*
X11809673Y-10534900D02*
X11779673Y-10564900D01*
X12041101Y-6748627D02*
X12071101Y-6778627D01*
X12071101Y-6748627D02*
X12041101Y-6778627D01*
X12042502Y-10677085D02*
X12072502Y-10707085D01*
X12072502Y-10677085D02*
X12042502Y-10707085D01*
X12269829Y-10614471D02*
X12299829Y-10644471D01*
X12299829Y-10614471D02*
X12269829Y-10644471D01*
X12288604Y-8821127D02*
X12318604Y-8851127D01*
X12318604Y-8821127D02*
X12288604Y-8851127D01*
X12301104Y-6893631D02*
X12331104Y-6923631D01*
X12331104Y-6893631D02*
X12301104Y-6923631D01*
X12379981Y-6155164D02*
X12409981Y-6185164D01*
X12409981Y-6155164D02*
X12379981Y-6185164D01*
X12394982Y-8057162D02*
X12424982Y-8087162D01*
X12424982Y-8057162D02*
X12394982Y-8087162D01*
X12408982Y-9965164D02*
X12438982Y-9995164D01*
X12438982Y-9965164D02*
X12408982Y-9995164D01*
X12481105Y-4068628D02*
X12511105Y-4098628D01*
X12511105Y-4068628D02*
X12481105Y-4098628D01*
X12541037Y-10625466D02*
X12571037Y-10655466D01*
X12571037Y-10625466D02*
X12541037Y-10655466D01*
X12846102Y-4824846D02*
X12876102Y-4854846D01*
X12876102Y-4824846D02*
X12846102Y-4854846D01*
X12966241Y-11260275D02*
X12996241Y-11290275D01*
X12996241Y-11260275D02*
X12966241Y-11290275D01*
X13311516Y-4178628D02*
X13341516Y-4208628D01*
X13341516Y-4178628D02*
X13311516Y-4208628D01*
X13325606Y-6898128D02*
X13355606Y-6928128D01*
X13355606Y-6898128D02*
X13325606Y-6928128D01*
X13326104Y-6154042D02*
X13356104Y-6184042D01*
X13356104Y-6154042D02*
X13326104Y-6184042D01*
X13336104Y-3043629D02*
X13366104Y-3073629D01*
X13366104Y-3043629D02*
X13336104Y-3073629D01*
X13337982Y-9965162D02*
X13367982Y-9995162D01*
X13367982Y-9965162D02*
X13337982Y-9995162D01*
X13338983Y-8057163D02*
X13368983Y-8087163D01*
X13368983Y-8057163D02*
X13338983Y-8087163D01*
X13341604Y-4993128D02*
X13371604Y-5023128D01*
X13371604Y-4993128D02*
X13341604Y-5023128D01*
X13346103Y-8798627D02*
X13376103Y-8828627D01*
X13376103Y-8798627D02*
X13346103Y-8828627D01*
X13476106Y-5963628D02*
X13506106Y-5993628D01*
X13506106Y-5963628D02*
X13476106Y-5993628D01*
X13536103Y-4043629D02*
X13566103Y-4073629D01*
X13566103Y-4043629D02*
X13536103Y-4073629D01*
X13661960Y-10380215D02*
X13691960Y-10410215D01*
X13691960Y-10380215D02*
X13661960Y-10410215D01*
X13692859Y-10474693D02*
X13722859Y-10504693D01*
X13722859Y-10474693D02*
X13692859Y-10504693D01*
X13798654Y-5326076D02*
X13828654Y-5356076D01*
X13828654Y-5326076D02*
X13798654Y-5356076D01*
X13915241Y-11059600D02*
X13945241Y-11089600D01*
X13945241Y-11059600D02*
X13915241Y-11089600D01*
X13941105Y-5668627D02*
X13971105Y-5698627D01*
X13971105Y-5668627D02*
X13941105Y-5698627D01*
X13946108Y-10193627D02*
X13976108Y-10223627D01*
X13976108Y-10193627D02*
X13946108Y-10223627D01*
X14006104Y-8398629D02*
X14036104Y-8428629D01*
X14036104Y-8398629D02*
X14006104Y-8428629D01*
X14040781Y-10832166D02*
X14070781Y-10862166D01*
X14070781Y-10832166D02*
X14040781Y-10862166D01*
X14051104Y-5938628D02*
X14081104Y-5968628D01*
X14081104Y-5938628D02*
X14051104Y-5968628D01*
X14110567Y-10458589D02*
X14140567Y-10488589D01*
X14140567Y-10458589D02*
X14110567Y-10488589D01*
X14191103Y-4718628D02*
X14221103Y-4748628D01*
X14221103Y-4718628D02*
X14191103Y-4748628D01*
X14196105Y-8538630D02*
X14226105Y-8568630D01*
X14226105Y-8538630D02*
X14196105Y-8568630D01*
X14216102Y-6638629D02*
X14246102Y-6668629D01*
X14246102Y-6638629D02*
X14216102Y-6668629D01*
X14218114Y-11182993D02*
X14248114Y-11212992D01*
X14248114Y-11182993D02*
X14218114Y-11212992D01*
X14291448Y-4066630D02*
X14321448Y-4096630D01*
X14321448Y-4066630D02*
X14291448Y-4096630D01*
X14297982Y-7810164D02*
X14327982Y-7840164D01*
X14327982Y-7810164D02*
X14297982Y-7840164D01*
X14310982Y-9641164D02*
X14340982Y-9671164D01*
X14340982Y-9641164D02*
X14310982Y-9671164D01*
X14321981Y-5903164D02*
X14351981Y-5933164D01*
X14351981Y-5903164D02*
X14321981Y-5933164D01*
X14446104Y-5573627D02*
X14476104Y-5603627D01*
X14476104Y-5573627D02*
X14446104Y-5603627D01*
X14756103Y-8858628D02*
X14786103Y-8888628D01*
X14786103Y-8858628D02*
X14756103Y-8888628D01*
X15026106Y-8078625D02*
X15056106Y-8108625D01*
X15056106Y-8078625D02*
X15026106Y-8108625D01*
X15026107Y-4237288D02*
X15056107Y-4267288D01*
X15056107Y-4237288D02*
X15026107Y-4267288D01*
X15026961Y-9903215D02*
X15056961Y-9933215D01*
X15056961Y-9903215D02*
X15026961Y-9933215D01*
X15042237Y-12100550D02*
X15072237Y-12130550D01*
X15072237Y-12100550D02*
X15042237Y-12130550D01*
X15150272Y-10929702D02*
X15180272Y-10959702D01*
X15180272Y-10929702D02*
X15150272Y-10959702D01*
X15191104Y-2758628D02*
X15221104Y-2788628D01*
X15221104Y-2758628D02*
X15191104Y-2788628D01*
X15220517Y-4068629D02*
X15250517Y-4098629D01*
X15250517Y-4068629D02*
X15220517Y-4098629D01*
X15222518Y-9638626D02*
X15252518Y-9668626D01*
X15252518Y-9638626D02*
X15222518Y-9668626D01*
X15222981Y-6069164D02*
X15252981Y-6099164D01*
X15252981Y-6069164D02*
X15222981Y-6099164D01*
X15222981Y-5832165D02*
X15252981Y-5862165D01*
X15252981Y-5832165D02*
X15222981Y-5862165D01*
X15240981Y-7810163D02*
X15270981Y-7840163D01*
X15270981Y-7810163D02*
X15240981Y-7840163D01*
X15241105Y-8548629D02*
X15271105Y-8578629D01*
X15271105Y-8548629D02*
X15241105Y-8578629D01*
X15256603Y-4743129D02*
X15286603Y-4773129D01*
X15286603Y-4743129D02*
X15256603Y-4773129D01*
X15321105Y-6663626D02*
X15351105Y-6693626D01*
X15351105Y-6663626D02*
X15321105Y-6693626D01*
X15456103Y-9171767D02*
X15486103Y-9201767D01*
X15486103Y-9171767D02*
X15456103Y-9201767D01*
X15851104Y-8548628D02*
X15881104Y-8578628D01*
X15881104Y-8548628D02*
X15851104Y-8578628D01*
X16051107Y-6812628D02*
X16081107Y-6842628D01*
X16081107Y-6812628D02*
X16051107Y-6842628D01*
X16179107Y-8745628D02*
X16209107Y-8775628D01*
X16209107Y-8745628D02*
X16179107Y-8775628D01*
X16204447Y-6083630D02*
X16234447Y-6113630D01*
X16234447Y-6083630D02*
X16204447Y-6113630D01*
X16208982Y-8057164D02*
X16238982Y-8087164D01*
X16238982Y-8057164D02*
X16208982Y-8087164D01*
X16219517Y-10033627D02*
X16249517Y-10063627D01*
X16249517Y-10033627D02*
X16219517Y-10063627D01*
X16277273Y-11088136D02*
X16307273Y-11118136D01*
X16307273Y-11088136D02*
X16277273Y-11118136D01*
X16282982Y-4051163D02*
X16312982Y-4081163D01*
X16312982Y-4051163D02*
X16282982Y-4081163D01*
X16361939Y-11446769D02*
X16391939Y-11476769D01*
X16391939Y-11446769D02*
X16361939Y-11476769D01*
X16636104Y-4828628D02*
X16666104Y-4858628D01*
X16666104Y-4828628D02*
X16636104Y-4858628D01*
X17069420Y-12247147D02*
X17099420Y-12277147D01*
X17099420Y-12247147D02*
X17069420Y-12277147D01*
X17106106Y-3023629D02*
X17136106Y-3053629D01*
X17136106Y-3023629D02*
X17106106Y-3053629D01*
X17110517Y-4318628D02*
X17140517Y-4348628D01*
X17140517Y-4318628D02*
X17110517Y-4348628D01*
X17123982Y-8059163D02*
X17153982Y-8089163D01*
X17153982Y-8059163D02*
X17123982Y-8089163D01*
X17127376Y-6073150D02*
X17157376Y-6103150D01*
X17157376Y-6073150D02*
X17127376Y-6103150D01*
X17144983Y-9962164D02*
X17174983Y-9992164D01*
X17174983Y-9962164D02*
X17144983Y-9992164D01*
X17151604Y-6898128D02*
X17181604Y-6928128D01*
X17181604Y-6898128D02*
X17151604Y-6928128D01*
X17156606Y-8803128D02*
X17186606Y-8833128D01*
X17186606Y-8803128D02*
X17156606Y-8833128D01*
X17160605Y-4993127D02*
X17190605Y-5023127D01*
X17190605Y-4993127D02*
X17160605Y-5023127D01*
X17371759Y-11157619D02*
X17401759Y-11187619D01*
X17401759Y-11157619D02*
X17371759Y-11187619D01*
X17377515Y-4258630D02*
X17407515Y-4288630D01*
X17407515Y-4258630D02*
X17377515Y-4288630D01*
X17449862Y-8981627D02*
X17479862Y-9011627D01*
X17479862Y-8981627D02*
X17449862Y-9011627D01*
X17487975Y-5141756D02*
X17517975Y-5171756D01*
X17517975Y-5141756D02*
X17487975Y-5171756D01*
X17574434Y-10853459D02*
X17604434Y-10883459D01*
X17604434Y-10853459D02*
X17574434Y-10883459D01*
X17575437Y-10183270D02*
X17605437Y-10213270D01*
X17605437Y-10183270D02*
X17575437Y-10213270D01*
X17716142Y-5418587D02*
X17746142Y-5448587D01*
X17746142Y-5418587D02*
X17716142Y-5448587D01*
X17755105Y-10681647D02*
X17785105Y-10711647D01*
X17785105Y-10681647D02*
X17755105Y-10711647D01*
X17956104Y-7108631D02*
X17986104Y-7138631D01*
X17986104Y-7108631D02*
X17956104Y-7138631D01*
X17996105Y-9028629D02*
X18026105Y-9058629D01*
X18026105Y-9028629D02*
X17996105Y-9058629D01*
X18101983Y-4451164D02*
X18131983Y-4481164D01*
X18131983Y-4451164D02*
X18101983Y-4481164D01*
X18111981Y-8194164D02*
X18141981Y-8224164D01*
X18141981Y-8194164D02*
X18111981Y-8224164D01*
X18114518Y-6283628D02*
X18144518Y-6313628D01*
X18144518Y-6283628D02*
X18114518Y-6313628D01*
X18129982Y-10158164D02*
X18159982Y-10188164D01*
X18159982Y-10158164D02*
X18129982Y-10188164D01*
X18145276Y-11072557D02*
X18175276Y-11102557D01*
X18175276Y-11072557D02*
X18145276Y-11102557D01*
X18286345Y-11377191D02*
X18316345Y-11407191D01*
X18316345Y-11377191D02*
X18286345Y-11407191D01*
X18381104Y-5063630D02*
X18411104Y-5093630D01*
X18411104Y-5063630D02*
X18381104Y-5093630D01*
X18556322Y-4798626D02*
X18586322Y-4828626D01*
X18586322Y-4798626D02*
X18556322Y-4828626D01*
X18836103Y-4648629D02*
X18866103Y-4678629D01*
X18866103Y-4648629D02*
X18836103Y-4678629D01*
X18836107Y-6558038D02*
X18866107Y-6588038D01*
X18866107Y-6558038D02*
X18836107Y-6588038D01*
X18863510Y-12765115D02*
X18893510Y-12795115D01*
X18893510Y-12765115D02*
X18863510Y-12795115D01*
X19024518Y-6283628D02*
X19054518Y-6313628D01*
X19054518Y-6283628D02*
X19024518Y-6313628D01*
X19024982Y-8327164D02*
X19054982Y-8357164D01*
X19054982Y-8327164D02*
X19024982Y-8357164D01*
X19041104Y-3238627D02*
X19071104Y-3268627D01*
X19071104Y-3238627D02*
X19041104Y-3268627D01*
X19055982Y-10157163D02*
X19085982Y-10187163D01*
X19085982Y-10157163D02*
X19055982Y-10187163D01*
X19056603Y-9003128D02*
X19086603Y-9033128D01*
X19086603Y-9003128D02*
X19056603Y-9033128D01*
X19102982Y-4447162D02*
X19132982Y-4477162D01*
X19132982Y-4447162D02*
X19102982Y-4477162D01*
X19126104Y-7063627D02*
X19156104Y-7093627D01*
X19156104Y-7063627D02*
X19126104Y-7093627D01*
X19131106Y-8504639D02*
X19161106Y-8534639D01*
X19161106Y-8504639D02*
X19131106Y-8534639D01*
X19211107Y-4798627D02*
X19241107Y-4828627D01*
X19241107Y-4798627D02*
X19211107Y-4828627D01*
X19231106Y-6063629D02*
X19261106Y-6093629D01*
X19261106Y-6063629D02*
X19231106Y-6093629D01*
X19237001Y-7980430D02*
X19267001Y-8010430D01*
X19267001Y-7980430D02*
X19237001Y-8010430D01*
X19306270Y-7812630D02*
X19336270Y-7842630D01*
X19336270Y-7812630D02*
X19306270Y-7842630D01*
X19307270Y-8855631D02*
X19337270Y-8885631D01*
X19337270Y-8855631D02*
X19307270Y-8885631D01*
X19359621Y-11487281D02*
X19389621Y-11517281D01*
X19389621Y-11487281D02*
X19359621Y-11517281D01*
X19432116Y-11024012D02*
X19462116Y-11054012D01*
X19462116Y-11024012D02*
X19432116Y-11054012D01*
X19452772Y-7371128D02*
X19482772Y-7401128D01*
X19482772Y-7371128D02*
X19452772Y-7401128D01*
X19455380Y-9187361D02*
X19485380Y-9217361D01*
X19485380Y-9187361D02*
X19455380Y-9217361D01*
X19455383Y-8657489D02*
X19485383Y-8687489D01*
X19485383Y-8657489D02*
X19455383Y-8687489D01*
X19457773Y-7087128D02*
X19487773Y-7117128D01*
X19487773Y-7087128D02*
X19457773Y-7117128D01*
X19458772Y-6860128D02*
X19488772Y-6890128D01*
X19488772Y-6860128D02*
X19458772Y-6890128D01*
X19467296Y-10458880D02*
X19497296Y-10488880D01*
X19497296Y-10458880D02*
X19467296Y-10488880D01*
X19517990Y-6983885D02*
X19547990Y-7013885D01*
X19547990Y-6983885D02*
X19517990Y-7013885D01*
X19518994Y-8725878D02*
X19548994Y-8755878D01*
X19548994Y-8725878D02*
X19518994Y-8755878D01*
X19542453Y-11696112D02*
X19572453Y-11726112D01*
X19572453Y-11696112D02*
X19542453Y-11726112D01*
X19581583Y-12031582D02*
X19611583Y-12061582D01*
X19611583Y-12031582D02*
X19581583Y-12061582D01*
X19622119Y-7236701D02*
X19652119Y-7266701D01*
X19652119Y-7236701D02*
X19622119Y-7266701D01*
X19635992Y-7490888D02*
X19665992Y-7520888D01*
X19665992Y-7490888D02*
X19635992Y-7520888D01*
X19636993Y-8789878D02*
X19666993Y-8819878D01*
X19666993Y-8789878D02*
X19636993Y-8819878D01*
X19650003Y-9307897D02*
X19680003Y-9337897D01*
X19680003Y-9307897D02*
X19650003Y-9337897D01*
X19695031Y-8005870D02*
X19725031Y-8035870D01*
X19725031Y-8005870D02*
X19695031Y-8035870D01*
X19695235Y-8504639D02*
X19725235Y-8534639D01*
X19725235Y-8504639D02*
X19695235Y-8534639D01*
X19720854Y-5182048D02*
X19750854Y-5212048D01*
X19750854Y-5182048D02*
X19720854Y-5212048D01*
X19722233Y-6863127D02*
X19752233Y-6893127D01*
X19752233Y-6863127D02*
X19722233Y-6893127D01*
X19932648Y-10933641D02*
X19962648Y-10963641D01*
X19962648Y-10933641D02*
X19932648Y-10963641D01*
X20293448Y-6474702D02*
X20323448Y-6504702D01*
X20323448Y-6474702D02*
X20293448Y-6504702D01*
X20311497Y-11728736D02*
X20341497Y-11758736D01*
X20341497Y-11728736D02*
X20311497Y-11758736D01*
X20312961Y-5484215D02*
X20342961Y-5514215D01*
X20342961Y-5484215D02*
X20312961Y-5514215D01*
X20362960Y-8074216D02*
X20392960Y-8104216D01*
X20392960Y-8074216D02*
X20362960Y-8104216D01*
X20366634Y-12116052D02*
X20396634Y-12146052D01*
X20396634Y-12116052D02*
X20366634Y-12146052D01*
X20424364Y-9701766D02*
X20454364Y-9731766D01*
X20454364Y-9701766D02*
X20424364Y-9731766D01*
X20502046Y-6355129D02*
X20532046Y-6385129D01*
X20532046Y-6355129D02*
X20502046Y-6385129D01*
X20502960Y-8166215D02*
X20532960Y-8196215D01*
X20532960Y-8166215D02*
X20502960Y-8196215D01*
X20556394Y-13748776D02*
X20586394Y-13778776D01*
X20586394Y-13748776D02*
X20556394Y-13778776D01*
X20582827Y-9469022D02*
X20612827Y-9499022D01*
X20612827Y-9469022D02*
X20582827Y-9499022D01*
X20602960Y-8234216D02*
X20632960Y-8264216D01*
X20632960Y-8234216D02*
X20602960Y-8264216D01*
X20629571Y-9379484D02*
X20659571Y-9409484D01*
X20659571Y-9379484D02*
X20629571Y-9409484D01*
X20632042Y-11872367D02*
X20662042Y-11902367D01*
X20662042Y-11872367D02*
X20632042Y-11902367D01*
X20673386Y-12083636D02*
X20703386Y-12113636D01*
X20703386Y-12083636D02*
X20673386Y-12113636D01*
X20674953Y-9292620D02*
X20704953Y-9322620D01*
X20704953Y-9292620D02*
X20674953Y-9322620D01*
X20749701Y-12202335D02*
X20779701Y-12232335D01*
X20779701Y-12202335D02*
X20749701Y-12232335D01*
X20774516Y-11321070D02*
X20804516Y-11351070D01*
X20804516Y-11321070D02*
X20774516Y-11351070D01*
X20791674Y-11559072D02*
X20821674Y-11589072D01*
X20821674Y-11559072D02*
X20791674Y-11589072D01*
X20818124Y-8236054D02*
X20848124Y-8266054D01*
X20848124Y-8236054D02*
X20818124Y-8266054D01*
X20887853Y-13102586D02*
X20917853Y-13132586D01*
X20917853Y-13102586D02*
X20887853Y-13132586D01*
X20922961Y-8234215D02*
X20952961Y-8264215D01*
X20952961Y-8234215D02*
X20922961Y-8264215D01*
X21028050Y-6609126D02*
X21058050Y-6639126D01*
X21058050Y-6609126D02*
X21028050Y-6639126D01*
X21073545Y-11786907D02*
X21103545Y-11816907D01*
X21103545Y-11786907D02*
X21073545Y-11816907D01*
X21102847Y-12850859D02*
X21132847Y-12880859D01*
X21132847Y-12850859D02*
X21102847Y-12880859D01*
X21138039Y-7490701D02*
X21168039Y-7520701D01*
X21168039Y-7490701D02*
X21138039Y-7520701D01*
X21144039Y-7236702D02*
X21174039Y-7266702D01*
X21174039Y-7236702D02*
X21144039Y-7266702D01*
X21155037Y-6982703D02*
X21185037Y-7012703D01*
X21185037Y-6982703D02*
X21155037Y-7012703D01*
X21164047Y-8133128D02*
X21194047Y-8163128D01*
X21194047Y-8133128D02*
X21164047Y-8163128D01*
X21164890Y-6474698D02*
X21194890Y-6504698D01*
X21194890Y-6474698D02*
X21164890Y-6504698D01*
X21164977Y-7744703D02*
X21194977Y-7774703D01*
X21194977Y-7744703D02*
X21164977Y-7774703D01*
X21170889Y-6728702D02*
X21200889Y-6758702D01*
X21200889Y-6728702D02*
X21170889Y-6758702D01*
X21199473Y-7998702D02*
X21229473Y-8028702D01*
X21229473Y-7998702D02*
X21199473Y-8028702D01*
X21209360Y-8230816D02*
X21239360Y-8260816D01*
X21239360Y-8230816D02*
X21209360Y-8260816D01*
X21261094Y-11798254D02*
X21291094Y-11828254D01*
X21291094Y-11798254D02*
X21261094Y-11828254D01*
X21370924Y-10137706D02*
X21400924Y-10167706D01*
X21400924Y-10137706D02*
X21370924Y-10167706D01*
X21379713Y-14584781D02*
X21409713Y-14614781D01*
X21409713Y-14584781D02*
X21379713Y-14614781D01*
X21437231Y-12838624D02*
X21467231Y-12868624D01*
X21467231Y-12838624D02*
X21437231Y-12868624D01*
X21484936Y-10606239D02*
X21514936Y-10636239D01*
X21514936Y-10606239D02*
X21484936Y-10636239D01*
X21677560Y-12882130D02*
X21707560Y-12912130D01*
X21707560Y-12882130D02*
X21677560Y-12912130D01*
X21776418Y-10407441D02*
X21806418Y-10437441D01*
X21806418Y-10407441D02*
X21776418Y-10437441D01*
X21817191Y-12718641D02*
X21847191Y-12748641D01*
X21847191Y-12718641D02*
X21817191Y-12748641D01*
X21820334Y-10509314D02*
X21850334Y-10539314D01*
X21850334Y-10509314D02*
X21820334Y-10539314D01*
X21850248Y-10792375D02*
X21880248Y-10822375D01*
X21880248Y-10792375D02*
X21850248Y-10822375D01*
X21883473Y-6728702D02*
X21913473Y-6758702D01*
X21913473Y-6728702D02*
X21883473Y-6758702D01*
X21918961Y-8353216D02*
X21948961Y-8383216D01*
X21948961Y-8353216D02*
X21918961Y-8383216D01*
X21954599Y-10437018D02*
X21984599Y-10467018D01*
X21984599Y-10437018D02*
X21954599Y-10467018D01*
X21957473Y-6474703D02*
X21987473Y-6504703D01*
X21987473Y-6474703D02*
X21957473Y-6504703D01*
X21958473Y-8213702D02*
X21988473Y-8243702D01*
X21988473Y-8213702D02*
X21958473Y-8243702D01*
X22020961Y-6460215D02*
X22050961Y-6490215D01*
X22050961Y-6460215D02*
X22020961Y-6490215D01*
X22039728Y-12148586D02*
X22069728Y-12178586D01*
X22069728Y-12148586D02*
X22039728Y-12178586D01*
X22111265Y-13219747D02*
X22141265Y-13249747D01*
X22141265Y-13219747D02*
X22111265Y-13249747D01*
X22150964Y-10865670D02*
X22180964Y-10895670D01*
X22180964Y-10865670D02*
X22150964Y-10895670D01*
X22179371Y-13463266D02*
X22209371Y-13493266D01*
X22209371Y-13463266D02*
X22179371Y-13493266D01*
X22377165Y-13195190D02*
X22407165Y-13225190D01*
X22407165Y-13195190D02*
X22377165Y-13225190D01*
X22607070Y-12926006D02*
X22637070Y-12956006D01*
X22637070Y-12926006D02*
X22607070Y-12956006D01*
X22795015Y-12723960D02*
X22825015Y-12753960D01*
X22825015Y-12723960D02*
X22795015Y-12753960D01*
X23596898Y-11758211D02*
X23626898Y-11788211D01*
X23626898Y-11758211D02*
X23596898Y-11788211D01*
X8488151Y-4590574D02*
G75*
G03*
X8488151Y-4590574I-20000J0D01*
G01*
X8584862Y-6493120D02*
G75*
G03*
X8584862Y-6493120I-20000J0D01*
G01*
X8675740Y-8341899D02*
G75*
G03*
X8675740Y-8341899I-20000J0D01*
G01*
X8793957Y-10297391D02*
G75*
G03*
X8793957Y-10297391I-20000J0D01*
G01*
X9054390Y-4962368D02*
G75*
G03*
X9054390Y-4962368I-20000J0D01*
G01*
X9300887Y-4984582D02*
G75*
G03*
X9300887Y-4984582I-20000J0D01*
G01*
X9400432Y-6847736D02*
G75*
G03*
X9400432Y-6847736I-20000J0D01*
G01*
X9527676Y-8547594D02*
G75*
G03*
X9527676Y-8547594I-20000J0D01*
G01*
X9626893Y-6714890D02*
G75*
G03*
X9626893Y-6714890I-20000J0D01*
G01*
X9629300Y-10259434D02*
G75*
G03*
X9629300Y-10259434I-20000J0D01*
G01*
X9722408Y-8537390D02*
G75*
G03*
X9722408Y-8537390I-20000J0D01*
G01*
X10149022Y-4544589D02*
G75*
G03*
X10149022Y-4544589I-20000J0D01*
G01*
X10166017Y-4868857D02*
G75*
G03*
X10166017Y-4868857I-20000J0D01*
G01*
X10173880Y-5018938D02*
G75*
G03*
X10173880Y-5018938I-20000J0D01*
G01*
X10183251Y-8466986D02*
G75*
G03*
X10183251Y-8466986I-20000J0D01*
G01*
X10298834Y-6829883D02*
G75*
G03*
X10298834Y-6829883I-20000J0D01*
G01*
X10418545Y-5006119D02*
G75*
G03*
X10418545Y-5006119I-20000J0D01*
G01*
X10678533Y-8291012D02*
G75*
G03*
X10678533Y-8291012I-20000J0D01*
G01*
X10690144Y-10194010D02*
G75*
G03*
X10690144Y-10194010I-20000J0D01*
G01*
X10919654Y-6370760D02*
G75*
G03*
X10919654Y-6370760I-20000J0D01*
G01*
X11234368Y-4522758D02*
G75*
G03*
X11234368Y-4522758I-20000J0D01*
G01*
X11255512Y-10562845D02*
G75*
G03*
X11255512Y-10562845I-20000J0D01*
G01*
X11359837Y-6670701D02*
G75*
G03*
X11359837Y-6670701I-20000J0D01*
G01*
X11431070Y-8658129D02*
G75*
G03*
X11431070Y-8658129I-20000J0D01*
G01*
X11468091Y-5256530D02*
G75*
G03*
X11468091Y-5256530I-20000J0D01*
G01*
X11629954Y-6529802D02*
G75*
G03*
X11629954Y-6529802I-20000J0D01*
G01*
X11677698Y-5721198D02*
G75*
G03*
X11677698Y-5721198I-20000J0D01*
G01*
X11735651Y-8642170D02*
G75*
G03*
X11735651Y-8642170I-20000J0D01*
G01*
X11798313Y-8118169D02*
G75*
G03*
X11798313Y-8118169I-20000J0D01*
G01*
X11812247Y-6363364D02*
G75*
G03*
X11812247Y-6363364I-20000J0D01*
G01*
X11869571Y-10289917D02*
G75*
G03*
X11869571Y-10289917I-20000J0D01*
G01*
X11890572Y-9878604D02*
G75*
G03*
X11890572Y-9878604I-20000J0D01*
G01*
X12226106Y-6608627D02*
G75*
G03*
X12226106Y-6608627I-20000J0D01*
G01*
X12251105Y-4008629D02*
G75*
G03*
X12251105Y-4008629I-20000J0D01*
G01*
X12376104Y-4588630D02*
G75*
G03*
X12376104Y-4588630I-20000J0D01*
G01*
X12376104Y-4193628D02*
G75*
G03*
X12376104Y-4193628I-20000J0D01*
G01*
X12602519Y-7867626D02*
G75*
G03*
X12602519Y-7867626I-20000J0D01*
G01*
X12608522Y-5962623D02*
G75*
G03*
X12608522Y-5962623I-20000J0D01*
G01*
X12609520Y-9772626D02*
G75*
G03*
X12609520Y-9772626I-20000J0D01*
G01*
X12696272Y-10234701D02*
G75*
G03*
X12696272Y-10234701I-20000J0D01*
G01*
X12937666Y-11158952D02*
G75*
G03*
X12937666Y-11158952I-20000J0D01*
G01*
X13146103Y-6403630D02*
G75*
G03*
X13146103Y-6403630I-20000J0D01*
G01*
X13301590Y-10413781D02*
G75*
G03*
X13301590Y-10413781I-20000J0D01*
G01*
X13400107Y-4057627D02*
G75*
G03*
X13400107Y-4057627I-20000J0D01*
G01*
X13416983Y-10200164D02*
G75*
G03*
X13416983Y-10200164I-20000J0D01*
G01*
X13430269Y-4403143D02*
G75*
G03*
X13430269Y-4403143I-20000J0D01*
G01*
X13433982Y-8237163D02*
G75*
G03*
X13433982Y-8237163I-20000J0D01*
G01*
X13591105Y-6528629D02*
G75*
G03*
X13591105Y-6528629I-20000J0D01*
G01*
X13721100Y-4048629D02*
G75*
G03*
X13721100Y-4048629I-20000J0D01*
G01*
X13726100Y-8143629D02*
G75*
G03*
X13726100Y-8143629I-20000J0D01*
G01*
X13889570Y-10908703D02*
G75*
G03*
X13889570Y-10908703I-20000J0D01*
G01*
X14124103Y-9613627D02*
G75*
G03*
X14124103Y-9613627I-20000J0D01*
G01*
X14201105Y-5848630D02*
G75*
G03*
X14201105Y-5848630I-20000J0D01*
G01*
X14312775Y-3846957D02*
G75*
G03*
X14312775Y-3846957I-20000J0D01*
G01*
X14510982Y-4247163D02*
G75*
G03*
X14510982Y-4247163I-20000J0D01*
G01*
X14512518Y-7617628D02*
G75*
G03*
X14512518Y-7617628I-20000J0D01*
G01*
X14515105Y-9929631D02*
G75*
G03*
X14515105Y-9929631I-20000J0D01*
G01*
X14983293Y-10952500D02*
G75*
G03*
X14983293Y-10952500I-20000J0D01*
G01*
X15190272Y-10809700D02*
G75*
G03*
X15190272Y-10809700I-20000J0D01*
G01*
X15215107Y-10706313D02*
G75*
G03*
X15215107Y-10706313I-20000J0D01*
G01*
X15340104Y-9859628D02*
G75*
G03*
X15340104Y-9859628I-20000J0D01*
G01*
X15363603Y-5658628D02*
G75*
G03*
X15363603Y-5658628I-20000J0D01*
G01*
X15405106Y-4154629D02*
G75*
G03*
X15405106Y-4154629I-20000J0D01*
G01*
X15421105Y-8293630D02*
G75*
G03*
X15421105Y-8293630I-20000J0D01*
G01*
X15421105Y-7808629D02*
G75*
G03*
X15421105Y-7808629I-20000J0D01*
G01*
X15631104Y-6158627D02*
G75*
G03*
X15631104Y-6158627I-20000J0D01*
G01*
X15631106Y-8398630D02*
G75*
G03*
X15631106Y-8398630I-20000J0D01*
G01*
X15631107Y-9563627D02*
G75*
G03*
X15631107Y-9563627I-20000J0D01*
G01*
X15636105Y-4258629D02*
G75*
G03*
X15636105Y-4258629I-20000J0D01*
G01*
X15715103Y-8059629D02*
G75*
G03*
X15715103Y-8059629I-20000J0D01*
G01*
X15715104Y-7617628D02*
G75*
G03*
X15715104Y-7617628I-20000J0D01*
G01*
X15726106Y-5928628D02*
G75*
G03*
X15726106Y-5928628I-20000J0D01*
G01*
X16100919Y-11017054D02*
G75*
G03*
X16100919Y-11017054I-20000J0D01*
G01*
X16206103Y-4193630D02*
G75*
G03*
X16206103Y-4193630I-20000J0D01*
G01*
X16276104Y-6558629D02*
G75*
G03*
X16276104Y-6558629I-20000J0D01*
G01*
X16414516Y-7867628D02*
G75*
G03*
X16414516Y-7867628I-20000J0D01*
G01*
X16414518Y-9772628D02*
G75*
G03*
X16414518Y-9772628I-20000J0D01*
G01*
X16416107Y-10189038D02*
G75*
G03*
X16416107Y-10189038I-20000J0D01*
G01*
X16422103Y-5962629D02*
G75*
G03*
X16422103Y-5962629I-20000J0D01*
G01*
X16963445Y-6558627D02*
G75*
G03*
X16963445Y-6558627I-20000J0D01*
G01*
X17253604Y-4171128D02*
G75*
G03*
X17253604Y-4171128I-20000J0D01*
G01*
X17264276Y-11253300D02*
G75*
G03*
X17264276Y-11253300I-20000J0D01*
G01*
X17274186Y-8237991D02*
G75*
G03*
X17274186Y-8237991I-20000J0D01*
G01*
X17316981Y-10116163D02*
G75*
G03*
X17316981Y-10116163I-20000J0D01*
G01*
X17326104Y-6238628D02*
G75*
G03*
X17326104Y-6238628I-20000J0D01*
G01*
X17331105Y-6558627D02*
G75*
G03*
X17331105Y-6558627I-20000J0D01*
G01*
X17393604Y-4171126D02*
G75*
G03*
X17393604Y-4171126I-20000J0D01*
G01*
X17581105Y-10115360D02*
G75*
G03*
X17581105Y-10115360I-20000J0D01*
G01*
X17581106Y-8207687D02*
G75*
G03*
X17581106Y-8207687I-20000J0D01*
G01*
X17991106Y-10103631D02*
G75*
G03*
X17991106Y-10103631I-20000J0D01*
G01*
X18069446Y-6438627D02*
G75*
G03*
X18069446Y-6438627I-20000J0D01*
G01*
X18143981Y-4319165D02*
G75*
G03*
X18143981Y-4319165I-20000J0D01*
G01*
X18269858Y-6175041D02*
G75*
G03*
X18269858Y-6175041I-20000J0D01*
G01*
X18320519Y-9967627D02*
G75*
G03*
X18320519Y-9967627I-20000J0D01*
G01*
X18321105Y-8056040D02*
G75*
G03*
X18321105Y-8056040I-20000J0D01*
G01*
X18470501Y-11284021D02*
G75*
G03*
X18470501Y-11284021I-20000J0D01*
G01*
X18656104Y-5008630D02*
G75*
G03*
X18656104Y-5008630I-20000J0D01*
G01*
X18865956Y-8593773D02*
G75*
G03*
X18865956Y-8593773I-20000J0D01*
G01*
X18870104Y-4257629D02*
G75*
G03*
X18870104Y-4257629I-20000J0D01*
G01*
X18956104Y-4693628D02*
G75*
G03*
X18956104Y-4693628I-20000J0D01*
G01*
X19046106Y-6543627D02*
G75*
G03*
X19046106Y-6543627I-20000J0D01*
G01*
X19111103Y-6714172D02*
G75*
G03*
X19111103Y-6714172I-20000J0D01*
G01*
X19196104Y-10080964D02*
G75*
G03*
X19196104Y-10080964I-20000J0D01*
G01*
X19379370Y-11689302D02*
G75*
G03*
X19379370Y-11689302I-20000J0D01*
G01*
X19418606Y-10080570D02*
G75*
G03*
X19418606Y-10080570I-20000J0D01*
G01*
X19418608Y-8596127D02*
G75*
G03*
X19418608Y-8596127I-20000J0D01*
G01*
X19418608Y-9122137D02*
G75*
G03*
X19418608Y-9122137I-20000J0D01*
G01*
X19526506Y-11400528D02*
G75*
G03*
X19526506Y-11400528I-20000J0D01*
G01*
X19546190Y-6714086D02*
G75*
G03*
X19546190Y-6714086I-20000J0D01*
G01*
X19549820Y-5863610D02*
G75*
G03*
X19549820Y-5863610I-20000J0D01*
G01*
X19550872Y-5048128D02*
G75*
G03*
X19550872Y-5048128I-20000J0D01*
G01*
X19582549Y-9967343D02*
G75*
G03*
X19582549Y-9967343I-20000J0D01*
G01*
X19585760Y-10711416D02*
G75*
G03*
X19585760Y-10711416I-20000J0D01*
G01*
X19847862Y-11568230D02*
G75*
G03*
X19847862Y-11568230I-20000J0D01*
G01*
X19897576Y-10870293D02*
G75*
G03*
X19897576Y-10870293I-20000J0D01*
G01*
X20273617Y-5965559D02*
G75*
G03*
X20273617Y-5965559I-20000J0D01*
G01*
X20325185Y-8967707D02*
G75*
G03*
X20325185Y-8967707I-20000J0D01*
G01*
X20432379Y-12303844D02*
G75*
G03*
X20432379Y-12303844I-20000J0D01*
G01*
X20448021Y-5991298D02*
G75*
G03*
X20448021Y-5991298I-20000J0D01*
G01*
X20460852Y-12043661D02*
G75*
G03*
X20460852Y-12043661I-20000J0D01*
G01*
X20619297Y-11732702D02*
G75*
G03*
X20619297Y-11732702I-20000J0D01*
G01*
X20681897Y-8927278D02*
G75*
G03*
X20681897Y-8927278I-20000J0D01*
G01*
X20763099Y-5212152D02*
G75*
G03*
X20763099Y-5212152I-20000J0D01*
G01*
X20834099Y-5636153D02*
G75*
G03*
X20834099Y-5636153I-20000J0D01*
G01*
X20916650Y-11244754D02*
G75*
G03*
X20916650Y-11244754I-20000J0D01*
G01*
X21056099Y-5167154D02*
G75*
G03*
X21056099Y-5167154I-20000J0D01*
G01*
X21206098Y-5565152D02*
G75*
G03*
X21206098Y-5565152I-20000J0D01*
G01*
X21214879Y-5991297D02*
G75*
G03*
X21214879Y-5991297I-20000J0D01*
G01*
X21283927Y-12849292D02*
G75*
G03*
X21283927Y-12849292I-20000J0D01*
G01*
X21468929Y-12580631D02*
G75*
G03*
X21468929Y-12580631I-20000J0D01*
G01*
X21518839Y-12361700D02*
G75*
G03*
X21518839Y-12361700I-20000J0D01*
G01*
X21742672Y-6114503D02*
G75*
G03*
X21742672Y-6114503I-20000J0D01*
G01*
X21743673Y-7208503D02*
G75*
G03*
X21743673Y-7208503I-20000J0D01*
G01*
X21743673Y-8088503D02*
G75*
G03*
X21743673Y-8088503I-20000J0D01*
G01*
X21834023Y-7507868D02*
G75*
G03*
X21834023Y-7507868I-20000J0D01*
G01*
X21834024Y-8927278D02*
G75*
G03*
X21834024Y-8927278I-20000J0D01*
G01*
X21959061Y-12265607D02*
G75*
G03*
X21959061Y-12265607I-20000J0D01*
G01*
X21995731Y-12983290D02*
G75*
G03*
X21995731Y-12983290I-20000J0D01*
G01*
X22106863Y-10742804D02*
G75*
G03*
X22106863Y-10742804I-20000J0D01*
G01*
X22200762Y-8089430D02*
G75*
G03*
X22200762Y-8089430I-20000J0D01*
G01*
X22200762Y-8369430D02*
G75*
G03*
X22200762Y-8369430I-20000J0D01*
G01*
X22401910Y-13422367D02*
G75*
G03*
X22401910Y-13422367I-20000J0D01*
G01*
X22415826Y-7282023D02*
G75*
G03*
X22415826Y-7282023I-20000J0D01*
G01*
X22480767Y-8089426D02*
G75*
G03*
X22480767Y-8089426I-20000J0D01*
G01*
X22480767Y-8369426D02*
G75*
G03*
X22480767Y-8369426I-20000J0D01*
G01*
X22573100Y-7439152D02*
G75*
G03*
X22573100Y-7439152I-20000J0D01*
G01*
X22983295Y-12748886D02*
G75*
G03*
X22983295Y-12748886I-20000J0D01*
G01*
X21316003Y-9243897D02*
X21316003Y-9293897D01*
X21291003Y-9268897D02*
X21341003Y-9268897D01*
X21371003Y-9253897D02*
X21261003Y-9253897D01*
X21371003Y-9283897D02*
X21261003Y-9283897D01*
X21261003Y-9253897D02*
G75*
G03*
X21261003Y-9283897I0J-15000D01*
G01*
X21371003Y-9283897D02*
G75*
G03*
X21371003Y-9253897I0J15000D01*
G01*
X21316003Y-9488897D02*
X21316003Y-9538897D01*
X21291003Y-9513897D02*
X21341003Y-9513897D01*
X21371003Y-9498897D02*
X21261003Y-9498897D01*
X21371003Y-9528897D02*
X21261003Y-9528897D01*
X21261003Y-9498897D02*
G75*
G03*
X21261003Y-9528897I0J-15000D01*
G01*
X21371003Y-9528897D02*
G75*
G03*
X21371003Y-9498897I0J15000D01*
G01*
X21466003Y-9068897D02*
X21466003Y-9118897D01*
X21441003Y-9093897D02*
X21491003Y-9093897D01*
X21521003Y-9078897D02*
X21411003Y-9078897D01*
X21521003Y-9108897D02*
X21411003Y-9108897D01*
X21411003Y-9078897D02*
G75*
G03*
X21411003Y-9108897I0J-15000D01*
G01*
X21521003Y-9108897D02*
G75*
G03*
X21521003Y-9078897I0J15000D01*
G01*
X21466003Y-9663897D02*
X21466003Y-9713897D01*
X21441003Y-9688897D02*
X21491003Y-9688897D01*
X21521003Y-9673897D02*
X21411003Y-9673897D01*
X21521003Y-9703897D02*
X21411003Y-9703897D01*
X21411003Y-9673897D02*
G75*
G03*
X21411003Y-9703897I0J-15000D01*
G01*
X21521003Y-9703897D02*
G75*
G03*
X21521003Y-9673897I0J15000D01*
G01*
X21866003Y-9068897D02*
X21866003Y-9118897D01*
X21841003Y-9093897D02*
X21891003Y-9093897D01*
X21921003Y-9078897D02*
X21811003Y-9078897D01*
X21921003Y-9108897D02*
X21811003Y-9108897D01*
X21811003Y-9078897D02*
G75*
G03*
X21811003Y-9108897I0J-15000D01*
G01*
X21921003Y-9108897D02*
G75*
G03*
X21921003Y-9078897I0J15000D01*
G01*
X21866003Y-9663897D02*
X21866003Y-9713897D01*
X21841003Y-9688897D02*
X21891003Y-9688897D01*
X21921003Y-9673897D02*
X21811003Y-9673897D01*
X21921003Y-9703897D02*
X21811003Y-9703897D01*
X21811003Y-9673897D02*
G75*
G03*
X21811003Y-9703897I0J-15000D01*
G01*
X21921003Y-9703897D02*
G75*
G03*
X21921003Y-9673897I0J15000D01*
G01*
X22166003Y-9068897D02*
X22166003Y-9118897D01*
X22141003Y-9093897D02*
X22191003Y-9093897D01*
X22221003Y-9078897D02*
X22111003Y-9078897D01*
X22221003Y-9108897D02*
X22111003Y-9108897D01*
X22111003Y-9078897D02*
G75*
G03*
X22111003Y-9108897I0J-15000D01*
G01*
X22221003Y-9108897D02*
G75*
G03*
X22221003Y-9078897I0J15000D01*
G01*
X22166003Y-9663897D02*
X22166003Y-9713897D01*
X22141003Y-9688897D02*
X22191003Y-9688897D01*
X22221003Y-9673897D02*
X22111003Y-9673897D01*
X22221003Y-9703897D02*
X22111003Y-9703897D01*
X22111003Y-9673897D02*
G75*
G03*
X22111003Y-9703897I0J-15000D01*
G01*
X22221003Y-9703897D02*
G75*
G03*
X22221003Y-9673897I0J15000D01*
G01*
X7950070Y-4388619D02*
X7950070Y-4331144D01*
X7892596Y-4331144D01*
X7892596Y-4388619D01*
X7950070Y-4388619D01*
X7987229Y-5097646D02*
X7987229Y-5040171D01*
X7929755Y-5040171D01*
X7929755Y-5097646D01*
X7987229Y-5097646D01*
X8050031Y-6295997D02*
X8050031Y-6238523D01*
X7992557Y-6238523D01*
X7992557Y-6295997D01*
X8050031Y-6295997D01*
X8087190Y-7005024D02*
X8087190Y-6947550D01*
X8029715Y-6947550D01*
X8029715Y-7005024D01*
X8087190Y-7005024D01*
X8239533Y-7332499D02*
X8239533Y-7275025D01*
X8182059Y-7275025D01*
X8182059Y-7332499D01*
X8239533Y-7332499D01*
X8249430Y-10100777D02*
X8249430Y-10043303D01*
X8191956Y-10043303D01*
X8191956Y-10100777D01*
X8249430Y-10100777D01*
X8286588Y-10809804D02*
X8286588Y-10752330D01*
X8229114Y-10752330D01*
X8229114Y-10809804D01*
X8286588Y-10809804D01*
X8353974Y-12107844D02*
X8353974Y-12050370D01*
X8296500Y-12050370D01*
X8296500Y-12107844D01*
X8353974Y-12107844D01*
X8391133Y-12816871D02*
X8391133Y-12759397D01*
X8333659Y-12759397D01*
X8333659Y-12816871D01*
X8391133Y-12816871D01*
X8948560Y-7295341D02*
X8948560Y-7237866D01*
X8891086Y-7237866D01*
X8891086Y-7295341D01*
X8948560Y-7295341D01*
X9693671Y-4067923D02*
X9693671Y-4010449D01*
X9636197Y-4010449D01*
X9636197Y-4067923D01*
X9693671Y-4067923D01*
X9730830Y-4776951D02*
X9730830Y-4719476D01*
X9673356Y-4719476D01*
X9673356Y-4776951D01*
X9730830Y-4776951D01*
X9801340Y-6084053D02*
X9801340Y-6026579D01*
X9743866Y-6026579D01*
X9743866Y-6084053D01*
X9801340Y-6084053D01*
X9838499Y-6793080D02*
X9838499Y-6735606D01*
X9781025Y-6735606D01*
X9781025Y-6793080D01*
X9838499Y-6793080D01*
X9901038Y-7986441D02*
X9901038Y-7928967D01*
X9843564Y-7928967D01*
X9843564Y-7986441D01*
X9901038Y-7986441D01*
X9938197Y-8695468D02*
X9938197Y-8637994D01*
X9880723Y-8637994D01*
X9880723Y-8695468D01*
X9938197Y-8695468D01*
X10000982Y-9988956D02*
X10000982Y-9931482D01*
X9943508Y-9931482D01*
X9943508Y-9988956D01*
X10000982Y-9988956D01*
X10038141Y-10697983D02*
X10038141Y-10640509D01*
X9980667Y-10640509D01*
X9980667Y-10697983D01*
X10038141Y-10697983D01*
X12084841Y-3832363D02*
X12084841Y-3774889D01*
X12027367Y-3774889D01*
X12027367Y-3832363D01*
X12084841Y-3832363D01*
X12084841Y-4542364D02*
X12084841Y-4484889D01*
X12027367Y-4484889D01*
X12027367Y-4542364D01*
X12084841Y-4542364D01*
X12084842Y-7647365D02*
X12084842Y-7589891D01*
X12027368Y-7589891D01*
X12027368Y-7647365D01*
X12084842Y-7647365D01*
X12084842Y-8357365D02*
X12084842Y-8299891D01*
X12027368Y-8299891D01*
X12027368Y-8357365D01*
X12084842Y-8357365D01*
X12084842Y-5737367D02*
X12084842Y-5679893D01*
X12027368Y-5679893D01*
X12027368Y-5737367D01*
X12084842Y-5737367D01*
X12084842Y-6447367D02*
X12084842Y-6389893D01*
X12027368Y-6389893D01*
X12027368Y-6447367D01*
X12084842Y-6447367D01*
X12084843Y-9557363D02*
X12084843Y-9499889D01*
X12027368Y-9499889D01*
X12027368Y-9557363D01*
X12084843Y-9557363D01*
X12084843Y-10267363D02*
X12084843Y-10209889D01*
X12027368Y-10209889D01*
X12027368Y-10267363D01*
X12084843Y-10267363D01*
X12534841Y-6607365D02*
X12534841Y-6549891D01*
X12477367Y-6549891D01*
X12477367Y-6607365D01*
X12534841Y-6607365D01*
X13244841Y-6607365D02*
X13244841Y-6549891D01*
X13187367Y-6549891D01*
X13187367Y-6607365D01*
X13244841Y-6607365D01*
X13989839Y-3582365D02*
X13989839Y-3524891D01*
X13932365Y-3524891D01*
X13932365Y-3582365D01*
X13989839Y-3582365D01*
X13989839Y-4292366D02*
X13989839Y-4234891D01*
X13932365Y-4234891D01*
X13932365Y-4292366D01*
X13989839Y-4292366D01*
X13989840Y-9302366D02*
X13989840Y-9244892D01*
X13932366Y-9244892D01*
X13932366Y-9302366D01*
X13989840Y-9302366D01*
X13989840Y-10012366D02*
X13989840Y-9954892D01*
X13932366Y-9954892D01*
X13932366Y-10012366D01*
X13989840Y-10012366D01*
X13989842Y-7397364D02*
X13989842Y-7339890D01*
X13932368Y-7339890D01*
X13932368Y-7397364D01*
X13989842Y-7397364D01*
X13989842Y-8107364D02*
X13989842Y-8049890D01*
X13932368Y-8049890D01*
X13932368Y-8107364D01*
X13989842Y-8107364D01*
X14578667Y-11208883D02*
X14578667Y-11151409D01*
X14521193Y-11151409D01*
X14521193Y-11208883D01*
X14578667Y-11208883D01*
X14652882Y-11914994D02*
X14652882Y-11857520D01*
X14595408Y-11857520D01*
X14595408Y-11914994D01*
X14652882Y-11914994D01*
X15894841Y-7592363D02*
X15894841Y-7534889D01*
X15837367Y-7534889D01*
X15837367Y-7592363D01*
X15894841Y-7592363D01*
X15894841Y-8302363D02*
X15894841Y-8244889D01*
X15837367Y-8244889D01*
X15837367Y-8302363D01*
X15894841Y-8302363D01*
X15894841Y-5687365D02*
X15894841Y-5629891D01*
X15837367Y-5629891D01*
X15837367Y-5687365D01*
X15894841Y-5687365D01*
X15894841Y-6397365D02*
X15894841Y-6339891D01*
X15837367Y-6339891D01*
X15837367Y-6397365D01*
X15894841Y-6397365D01*
X15894843Y-9547362D02*
X15894843Y-9489888D01*
X15837369Y-9489888D01*
X15837369Y-9547362D01*
X15894843Y-9547362D01*
X15894843Y-10257362D02*
X15894843Y-10199888D01*
X15837369Y-10199888D01*
X15837369Y-10257362D01*
X15894843Y-10257362D01*
X15906844Y-3782365D02*
X15906844Y-3724891D01*
X15849369Y-3724891D01*
X15849369Y-3782365D01*
X15906844Y-3782365D01*
X15906844Y-4492365D02*
X15906844Y-4434891D01*
X15849369Y-4434891D01*
X15849369Y-4492365D01*
X15906844Y-4492365D01*
X16663881Y-11957622D02*
X16663881Y-11900148D01*
X16606407Y-11900148D01*
X16606407Y-11957622D01*
X16663881Y-11957622D01*
X16738096Y-11251511D02*
X16738096Y-11194037D01*
X16680622Y-11194037D01*
X16680622Y-11251511D01*
X16738096Y-11251511D01*
X17587843Y-3798363D02*
X17587843Y-3740889D01*
X17530369Y-3740889D01*
X17530369Y-3798363D01*
X17587843Y-3798363D01*
X17587843Y-4508363D02*
X17587843Y-4450889D01*
X17530369Y-4450889D01*
X17530369Y-4508363D01*
X17587843Y-4508363D01*
X17599844Y-5812364D02*
X17599844Y-5754890D01*
X17542370Y-5754890D01*
X17542370Y-5812364D01*
X17599844Y-5812364D01*
X17599844Y-6522364D02*
X17599844Y-6464890D01*
X17542370Y-6464890D01*
X17542370Y-6522364D01*
X17599844Y-6522364D01*
X17799843Y-7844866D02*
X17799843Y-7787391D01*
X17742369Y-7787391D01*
X17742369Y-7844866D01*
X17799843Y-7844866D01*
X17799843Y-8554866D02*
X17799843Y-8497392D01*
X17742369Y-8497392D01*
X17742369Y-8554866D01*
X17799843Y-8554866D01*
X17799843Y-9752367D02*
X17799843Y-9694892D01*
X17742369Y-9694892D01*
X17742369Y-9752367D01*
X17799843Y-9752367D01*
X17799843Y-10462367D02*
X17799843Y-10404892D01*
X17742369Y-10404892D01*
X17742369Y-10462367D01*
X17799843Y-10462367D01*
X18614811Y-12436656D02*
X18614811Y-12379182D01*
X18557336Y-12379182D01*
X18557336Y-12436656D01*
X18614811Y-12436656D01*
X18851813Y-11767381D02*
X18851813Y-11709907D01*
X18794339Y-11709907D01*
X18794339Y-11767381D01*
X18851813Y-11767381D01*
X19746471Y-10113244D02*
X19746471Y-10055770D01*
X19688997Y-10055770D01*
X19688997Y-10113244D01*
X19746471Y-10113244D01*
X19940202Y-5382866D02*
X19940202Y-5325392D01*
X19882728Y-5325392D01*
X19882728Y-5382866D01*
X19940202Y-5382866D01*
X19940202Y-5636866D02*
X19940202Y-5579392D01*
X19882728Y-5579392D01*
X19882728Y-5636866D01*
X19940202Y-5636866D01*
X19940202Y-5890866D02*
X19940202Y-5833392D01*
X19882728Y-5833392D01*
X19882728Y-5890866D01*
X19940202Y-5890866D01*
X19940202Y-6144866D02*
X19940202Y-6087392D01*
X19882728Y-6087392D01*
X19882728Y-6144866D01*
X19940202Y-6144866D01*
X19940202Y-6398866D02*
X19940202Y-6341392D01*
X19882728Y-6341392D01*
X19882728Y-6398866D01*
X19940202Y-6398866D01*
X19940202Y-6652866D02*
X19940202Y-6595392D01*
X19882728Y-6595392D01*
X19882728Y-6652866D01*
X19940202Y-6652866D01*
X19940202Y-6906866D02*
X19940202Y-6849392D01*
X19882728Y-6849392D01*
X19882728Y-6906866D01*
X19940202Y-6906866D01*
X19940202Y-7160866D02*
X19940202Y-7103392D01*
X19882728Y-7103392D01*
X19882728Y-7160866D01*
X19940202Y-7160866D01*
X19940202Y-7414866D02*
X19940202Y-7357392D01*
X19882728Y-7357392D01*
X19882728Y-7414866D01*
X19940202Y-7414866D01*
X19940202Y-7668866D02*
X19940202Y-7611392D01*
X19882728Y-7611392D01*
X19882728Y-7668866D01*
X19940202Y-7668866D01*
X19940202Y-7922866D02*
X19940202Y-7865392D01*
X19882728Y-7865392D01*
X19882728Y-7922866D01*
X19940202Y-7922866D01*
X19940202Y-8176866D02*
X19940202Y-8119392D01*
X19882728Y-8119392D01*
X19882728Y-8176866D01*
X19940202Y-8176866D01*
X20000912Y-9450402D02*
X20000912Y-9392927D01*
X19943438Y-9392927D01*
X19943438Y-9450402D01*
X20000912Y-9450402D01*
X20070080Y-5121891D02*
X20070080Y-5064417D01*
X20012606Y-5064417D01*
X20012606Y-5121891D01*
X20070080Y-5121891D01*
X20070083Y-5502441D02*
X20070083Y-5444967D01*
X20012609Y-5444967D01*
X20012609Y-5502441D01*
X20070083Y-5502441D01*
X20070083Y-5756441D02*
X20070083Y-5698967D01*
X20012609Y-5698967D01*
X20012609Y-5756441D01*
X20070083Y-5756441D01*
X20070083Y-6010441D02*
X20070083Y-5952967D01*
X20012609Y-5952967D01*
X20012609Y-6010441D01*
X20070083Y-6010441D01*
X20070083Y-6264441D02*
X20070083Y-6206967D01*
X20012609Y-6206967D01*
X20012609Y-6264441D01*
X20070083Y-6264441D01*
X20070083Y-6518441D02*
X20070083Y-6460967D01*
X20012609Y-6460967D01*
X20012609Y-6518441D01*
X20070083Y-6518441D01*
X20070083Y-6772441D02*
X20070083Y-6714967D01*
X20012609Y-6714967D01*
X20012609Y-6772441D01*
X20070083Y-6772441D01*
X20070083Y-7026441D02*
X20070083Y-6968967D01*
X20012609Y-6968967D01*
X20012609Y-7026441D01*
X20070083Y-7026441D01*
X20070083Y-7280441D02*
X20070083Y-7222967D01*
X20012609Y-7222967D01*
X20012609Y-7280441D01*
X20070083Y-7280441D01*
X20070083Y-7534441D02*
X20070083Y-7476967D01*
X20012609Y-7476967D01*
X20012609Y-7534441D01*
X20070083Y-7534441D01*
X20070083Y-7788441D02*
X20070083Y-7730967D01*
X20012609Y-7730967D01*
X20012609Y-7788441D01*
X20070083Y-7788441D01*
X20070083Y-8042441D02*
X20070083Y-7984967D01*
X20012609Y-7984967D01*
X20012609Y-8042441D01*
X20070083Y-8042441D01*
X20070083Y-8296441D02*
X20070083Y-8238967D01*
X20012609Y-8238967D01*
X20012609Y-8296441D01*
X20070083Y-8296441D01*
X20426812Y-13307138D02*
X20426812Y-13249664D01*
X20369338Y-13249664D01*
X20369338Y-13307138D01*
X20426812Y-13307138D01*
X20813506Y-12711682D02*
X20813506Y-12654208D01*
X20756032Y-12654208D01*
X20756032Y-12711682D01*
X20813506Y-12711682D01*
X20877097Y-8757952D02*
X20877097Y-8700478D01*
X20819623Y-8700478D01*
X20819623Y-8757952D01*
X20877097Y-8757952D01*
X21131097Y-8757952D02*
X21131097Y-8700478D01*
X21073623Y-8700478D01*
X21073623Y-8757952D01*
X21131097Y-8757952D01*
X21385097Y-8757952D02*
X21385097Y-8700478D01*
X21327623Y-8700478D01*
X21327623Y-8757952D01*
X21385097Y-8757952D01*
X21464199Y-5121889D02*
X21464199Y-5064415D01*
X21406724Y-5064415D01*
X21406724Y-5121889D01*
X21464199Y-5121889D01*
X21464202Y-5382866D02*
X21464202Y-5325392D01*
X21406728Y-5325392D01*
X21406728Y-5382866D01*
X21464202Y-5382866D01*
X21464202Y-5636866D02*
X21464202Y-5579392D01*
X21406728Y-5579392D01*
X21406728Y-5636866D01*
X21464202Y-5636866D01*
X21464202Y-5890866D02*
X21464202Y-5833392D01*
X21406728Y-5833392D01*
X21406728Y-5890866D01*
X21464202Y-5890866D01*
X21464202Y-6144866D02*
X21464202Y-6087392D01*
X21406728Y-6087392D01*
X21406728Y-6144866D01*
X21464202Y-6144866D01*
X21464202Y-6398866D02*
X21464202Y-6341392D01*
X21406728Y-6341392D01*
X21406728Y-6398866D01*
X21464202Y-6398866D01*
X21464202Y-6652866D02*
X21464202Y-6595392D01*
X21406728Y-6595392D01*
X21406728Y-6652866D01*
X21464202Y-6652866D01*
X21464202Y-6906866D02*
X21464202Y-6849392D01*
X21406728Y-6849392D01*
X21406728Y-6906866D01*
X21464202Y-6906866D01*
X21464202Y-7160866D02*
X21464202Y-7103392D01*
X21406728Y-7103392D01*
X21406728Y-7160866D01*
X21464202Y-7160866D01*
X21464202Y-7414866D02*
X21464202Y-7357392D01*
X21406728Y-7357392D01*
X21406728Y-7414866D01*
X21464202Y-7414866D01*
X21464202Y-7668866D02*
X21464202Y-7611392D01*
X21406728Y-7611392D01*
X21406728Y-7668866D01*
X21464202Y-7668866D01*
X21464202Y-7922866D02*
X21464202Y-7865392D01*
X21406728Y-7865392D01*
X21406728Y-7922866D01*
X21464202Y-7922866D01*
X21464202Y-8176866D02*
X21464202Y-8119392D01*
X21406728Y-8119392D01*
X21406728Y-8176866D01*
X21464202Y-8176866D01*
X21594083Y-5502441D02*
X21594083Y-5444967D01*
X21536609Y-5444967D01*
X21536609Y-5502441D01*
X21594083Y-5502441D01*
X21594083Y-5756441D02*
X21594083Y-5698967D01*
X21536609Y-5698967D01*
X21536609Y-5756441D01*
X21594083Y-5756441D01*
X21594083Y-6010441D02*
X21594083Y-5952967D01*
X21536609Y-5952967D01*
X21536609Y-6010441D01*
X21594083Y-6010441D01*
X21594083Y-6264441D02*
X21594083Y-6206967D01*
X21536609Y-6206967D01*
X21536609Y-6264441D01*
X21594083Y-6264441D01*
X21594083Y-6518441D02*
X21594083Y-6460967D01*
X21536609Y-6460967D01*
X21536609Y-6518441D01*
X21594083Y-6518441D01*
X21594083Y-6772441D02*
X21594083Y-6714967D01*
X21536609Y-6714967D01*
X21536609Y-6772441D01*
X21594083Y-6772441D01*
X21594083Y-7026441D02*
X21594083Y-6968967D01*
X21536609Y-6968967D01*
X21536609Y-7026441D01*
X21594083Y-7026441D01*
X21594083Y-7280441D02*
X21594083Y-7222967D01*
X21536609Y-7222967D01*
X21536609Y-7280441D01*
X21594083Y-7280441D01*
X21594083Y-7534441D02*
X21594083Y-7476967D01*
X21536609Y-7476967D01*
X21536609Y-7534441D01*
X21594083Y-7534441D01*
X21594083Y-7788441D02*
X21594083Y-7730967D01*
X21536609Y-7730967D01*
X21536609Y-7788441D01*
X21594083Y-7788441D01*
X21594083Y-8042441D02*
X21594083Y-7984967D01*
X21536609Y-7984967D01*
X21536609Y-8042441D01*
X21594083Y-8042441D01*
X21594083Y-8296441D02*
X21594083Y-8238967D01*
X21536609Y-8238967D01*
X21536609Y-8296441D01*
X21594083Y-8296441D01*
X21639097Y-8757952D02*
X21639097Y-8700478D01*
X21581623Y-8700478D01*
X21581623Y-8757952D01*
X21639097Y-8757952D01*
X21959621Y-11514779D02*
X21959621Y-11457305D01*
X21902147Y-11457305D01*
X21902147Y-11514779D01*
X21959621Y-11514779D01*
X22132730Y-14054156D02*
X22132730Y-13996682D01*
X22075256Y-13996682D01*
X22075256Y-14054156D01*
X22132730Y-14054156D01*
X22209499Y-7877167D02*
X22209499Y-7819693D01*
X22152025Y-7819693D01*
X22152025Y-7877167D01*
X22209499Y-7877167D01*
X22209499Y-8639167D02*
X22209499Y-8581693D01*
X22152025Y-8581693D01*
X22152025Y-8639167D01*
X22209499Y-8639167D01*
X22210998Y-8838165D02*
X22210998Y-8780691D01*
X22153523Y-8780691D01*
X22153523Y-8838165D01*
X22210998Y-8838165D01*
X22361769Y-10929650D02*
X22361769Y-10872176D01*
X22304295Y-10872176D01*
X22304295Y-10929650D01*
X22361769Y-10929650D01*
X22489505Y-7877163D02*
X22489505Y-7819689D01*
X22432030Y-7819689D01*
X22432030Y-7877163D01*
X22489505Y-7877163D01*
X22489505Y-8639163D02*
X22489505Y-8581689D01*
X22432030Y-8581689D01*
X22432030Y-8639163D01*
X22489505Y-8639163D01*
X22491000Y-8838167D02*
X22491000Y-8780692D01*
X22433526Y-8780692D01*
X22433526Y-8838167D01*
X22491000Y-8838167D01*
X22593838Y-13514268D02*
X22593838Y-13456794D01*
X22536364Y-13456794D01*
X22536364Y-13514268D01*
X22593838Y-13514268D01*
X13146173Y-11003820D02*
X13196173Y-10953820D01*
X13146173Y-10903820D01*
X13096173Y-10953820D01*
X13146173Y-11003820D01*
X13390709Y-10951842D02*
X13440709Y-10901842D01*
X13390709Y-10851842D01*
X13340709Y-10901842D01*
X13390709Y-10951842D01*
X13447645Y-12422134D02*
X13497645Y-12372134D01*
X13447645Y-12322134D01*
X13397645Y-12372134D01*
X13447645Y-12422134D01*
X13635246Y-10899864D02*
X13685246Y-10849864D01*
X13635246Y-10799864D01*
X13585246Y-10849864D01*
X13635246Y-10899864D01*
X13936718Y-12318178D02*
X13986718Y-12268178D01*
X13936718Y-12218178D01*
X13886718Y-12268178D01*
X13936718Y-12318178D01*
X20015020Y-11304448D02*
X20065020Y-11254448D01*
X20015020Y-11204448D01*
X19965020Y-11254448D01*
X20015020Y-11304448D01*
X20237772Y-11417946D02*
X20287772Y-11367946D01*
X20237772Y-11317946D01*
X20187772Y-11367946D01*
X20237772Y-11417946D01*
X20460523Y-11531443D02*
X20510523Y-11481443D01*
X20460523Y-11431443D01*
X20410523Y-11481443D01*
X20460523Y-11531443D01*
X20673306Y-10012489D02*
X20723306Y-9962489D01*
X20673306Y-9912489D01*
X20623306Y-9962489D01*
X20673306Y-10012489D01*
X21118810Y-10239484D02*
X21168810Y-10189484D01*
X21118810Y-10139484D01*
X21068810Y-10189484D01*
X21118810Y-10239484D01*
X22032555Y-12581582D02*
X22082555Y-12531582D01*
X22032555Y-12481582D01*
X21982555Y-12531582D01*
X22032555Y-12581582D01*
X22222656Y-12743944D02*
X22272656Y-12693944D01*
X22222656Y-12643944D01*
X22172656Y-12693944D01*
X22222656Y-12743944D01*
X22412758Y-12906306D02*
X22462758Y-12856306D01*
X22412758Y-12806306D01*
X22362758Y-12856306D01*
X22412758Y-12906306D01*
X22974254Y-11478994D02*
X23024254Y-11428994D01*
X22974254Y-11378994D01*
X22924254Y-11428994D01*
X22974254Y-11478994D01*
X23354457Y-11803718D02*
X23404457Y-11753718D01*
X23354457Y-11703718D01*
X23304457Y-11753718D01*
X23354457Y-11803718D01*
X22363961Y-5961215D02*
X22493961Y-6091215D01*
X22493961Y-5961215D02*
X22363961Y-6091215D01*
X22493961Y-6026215D02*
G75*
G03*
X22493961Y-6026215I-65000J0D01*
G01*
X22363961Y-6613215D02*
X22493961Y-6743215D01*
X22493961Y-6613215D02*
X22363961Y-6743215D01*
X22493961Y-6678215D02*
G75*
G03*
X22493961Y-6678215I-65000J0D01*
G01*
X12923881Y-11676883D02*
X13073881Y-11826883D01*
X13073881Y-11676883D02*
X12923881Y-11826883D01*
X12998881Y-11676883D02*
X12998881Y-11826883D01*
X12923881Y-11751883D02*
X13073881Y-11751883D01*
X12921787Y-11701818D02*
X12948815Y-11828977D01*
X13048946Y-11674790D02*
X13075974Y-11801949D01*
X12948815Y-11828977D02*
G75*
G03*
X13075974Y-11801949I63580J13514D01*
G01*
X13048946Y-11674790D02*
G75*
G03*
X12921787Y-11701818I-63580J-13514D01*
G01*
X14019406Y-11444022D02*
X14169406Y-11594022D01*
X14169406Y-11444022D02*
X14019406Y-11594022D01*
X14094406Y-11444022D02*
X14094406Y-11594022D01*
X14019406Y-11519022D02*
X14169406Y-11519022D01*
X14017312Y-11468957D02*
X14044341Y-11596116D01*
X14144471Y-11441929D02*
X14171500Y-11569088D01*
X14044341Y-11596116D02*
G75*
G03*
X14171500Y-11569088I63580J13514D01*
G01*
X14144471Y-11441929D02*
G75*
G03*
X14017312Y-11468957I-63580J-13514D01*
G01*
X20004301Y-10370456D02*
X20154301Y-10520456D01*
X20154301Y-10370456D02*
X20004301Y-10520456D01*
X20079301Y-10370456D02*
X20079301Y-10520456D01*
X20004301Y-10445456D02*
X20154301Y-10445456D01*
X20107707Y-10532881D02*
X20166726Y-10417050D01*
X19991876Y-10473862D02*
X20050895Y-10358031D01*
X20166726Y-10417050D02*
G75*
G03*
X20050895Y-10358031I-57915J29509D01*
G01*
X19991876Y-10473862D02*
G75*
G03*
X20107707Y-10532881I57915J-29509D01*
G01*
X21002228Y-10878926D02*
X21152228Y-11028926D01*
X21152228Y-10878926D02*
X21002228Y-11028926D01*
X21077228Y-10878926D02*
X21077228Y-11028926D01*
X21002228Y-10953926D02*
X21152228Y-10953926D01*
X21105634Y-11041350D02*
X21164653Y-10925520D01*
X20989803Y-10982332D02*
X21048822Y-10866501D01*
X21164653Y-10925520D02*
G75*
G03*
X21048822Y-10866501I-57915J29509D01*
G01*
X20989803Y-10982332D02*
G75*
G03*
X21105634Y-11041350I57915J-29509D01*
G01*
X22208915Y-11684949D02*
X22358915Y-11834949D01*
X22358915Y-11684949D02*
X22208915Y-11834949D01*
X22283915Y-11684949D02*
X22283915Y-11834949D01*
X22208915Y-11759949D02*
X22358915Y-11759949D01*
X22291127Y-11851590D02*
X22375556Y-11752737D01*
X22192275Y-11767161D02*
X22276703Y-11668309D01*
X22375556Y-11752737D02*
G75*
G03*
X22276703Y-11668309I-49426J42214D01*
G01*
X22192275Y-11767161D02*
G75*
G03*
X22291127Y-11851590I49426J-42214D01*
G01*
X23060570Y-12412331D02*
X23210570Y-12562331D01*
X23210570Y-12412331D02*
X23060570Y-12562331D01*
X23135570Y-12412331D02*
X23135570Y-12562331D01*
X23060570Y-12487331D02*
X23210570Y-12487331D01*
X23142782Y-12578971D02*
X23227210Y-12480119D01*
X23043929Y-12494543D02*
X23128357Y-12395690D01*
X23227210Y-12480119D02*
G75*
G03*
X23128357Y-12395690I-49426J42214D01*
G01*
X23043929Y-12494543D02*
G75*
G03*
X23142782Y-12578971I49426J-42214D01*
G01*
X19817680Y-8776896D02*
X20037680Y-8996896D01*
X20037680Y-8776896D02*
X19817680Y-8996896D01*
X20005463Y-8964678D02*
X20005463Y-8809113D01*
X19849898Y-8809113D01*
X19849898Y-8964678D01*
X20005463Y-8964678D01*
X22180050Y-9978676D02*
X22400050Y-10198676D01*
X22400050Y-9978676D02*
X22180050Y-10198676D01*
X22367833Y-10166458D02*
X22367833Y-10010893D01*
X22212268Y-10010893D01*
X22212268Y-10166458D01*
X22367833Y-10166458D01*
X22188961Y-5543216D02*
X22408961Y-5763216D01*
X22408961Y-5543216D02*
X22188961Y-5763216D01*
X22376743Y-5730998D02*
X22376743Y-5575433D01*
X22221178Y-5575433D01*
X22221178Y-5730998D01*
X22376743Y-5730998D01*
D12*
X8023342Y-15345491D02*
X8023342Y-15045491D01*
X8094771Y-15045491D01*
X8137628Y-15059777D01*
X8166199Y-15088349D01*
X8180485Y-15116920D01*
X8194771Y-15174063D01*
X8194771Y-15216920D01*
X8180485Y-15274063D01*
X8166199Y-15302634D01*
X8137628Y-15331206D01*
X8094771Y-15345491D01*
X8023342Y-15345491D01*
X8323342Y-15345491D02*
X8323342Y-15145491D01*
X8323342Y-15202634D02*
X8337628Y-15174063D01*
X8351913Y-15159777D01*
X8380485Y-15145491D01*
X8409056Y-15145491D01*
X8509056Y-15345491D02*
X8509056Y-15145491D01*
X8509056Y-15045491D02*
X8494771Y-15059777D01*
X8509056Y-15074063D01*
X8523342Y-15059777D01*
X8509056Y-15045491D01*
X8509056Y-15074063D01*
X8694771Y-15345491D02*
X8666199Y-15331206D01*
X8651914Y-15302634D01*
X8651914Y-15045491D01*
X8851914Y-15345491D02*
X8823342Y-15331206D01*
X8809056Y-15302634D01*
X8809056Y-15045491D01*
X9194771Y-15345491D02*
X9194771Y-15045491D01*
X9294771Y-15259777D01*
X9394771Y-15045491D01*
X9394771Y-15345491D01*
X9666199Y-15345491D02*
X9666199Y-15188349D01*
X9651914Y-15159777D01*
X9623342Y-15145491D01*
X9566199Y-15145491D01*
X9537628Y-15159777D01*
X9666199Y-15331206D02*
X9637628Y-15345491D01*
X9566199Y-15345491D01*
X9537628Y-15331206D01*
X9523342Y-15302634D01*
X9523342Y-15274063D01*
X9537628Y-15245491D01*
X9566199Y-15231206D01*
X9637628Y-15231206D01*
X9666199Y-15216920D01*
X9809056Y-15145491D02*
X9809056Y-15445491D01*
X9809056Y-15159777D02*
X9837628Y-15145491D01*
X9894771Y-15145491D01*
X9923342Y-15159777D01*
X9937628Y-15174063D01*
X9951914Y-15202634D01*
X9951914Y-15288349D01*
X9937628Y-15316920D01*
X9923342Y-15331206D01*
X9894771Y-15345491D01*
X9837628Y-15345491D01*
X9809056Y-15331206D01*
X10080485Y-15316920D02*
X10094771Y-15331206D01*
X10080485Y-15345491D01*
X10066199Y-15331206D01*
X10080485Y-15316920D01*
X10080485Y-15345491D01*
X10080485Y-15159777D02*
X10094771Y-15174063D01*
X10080485Y-15188349D01*
X10066199Y-15174063D01*
X10080485Y-15159777D01*
X10080485Y-15188349D01*
X7706913Y-15824777D02*
X7736913Y-15854777D01*
X7736913Y-15824777D02*
X7706913Y-15854777D01*
X8080485Y-15675491D02*
X8109056Y-15675491D01*
X8137628Y-15689777D01*
X8151913Y-15704063D01*
X8166199Y-15732634D01*
X8180485Y-15789777D01*
X8180485Y-15861206D01*
X8166199Y-15918349D01*
X8151913Y-15946920D01*
X8137628Y-15961206D01*
X8109056Y-15975491D01*
X8080485Y-15975491D01*
X8051913Y-15961206D01*
X8037628Y-15946920D01*
X8023342Y-15918349D01*
X8009056Y-15861206D01*
X8009056Y-15789777D01*
X8023342Y-15732634D01*
X8037628Y-15704063D01*
X8051913Y-15689777D01*
X8080485Y-15675491D01*
X8309056Y-15946920D02*
X8323342Y-15961206D01*
X8309056Y-15975491D01*
X8294771Y-15961206D01*
X8309056Y-15946920D01*
X8309056Y-15975491D01*
X8423342Y-15675491D02*
X8609056Y-15675491D01*
X8509056Y-15789777D01*
X8551914Y-15789777D01*
X8580485Y-15804063D01*
X8594771Y-15818349D01*
X8609056Y-15846920D01*
X8609056Y-15918349D01*
X8594771Y-15946920D01*
X8580485Y-15961206D01*
X8551914Y-15975491D01*
X8466199Y-15975491D01*
X8437628Y-15961206D01*
X8423342Y-15946920D01*
X8794771Y-15675491D02*
X8823342Y-15675491D01*
X8851914Y-15689777D01*
X8866199Y-15704063D01*
X8880485Y-15732634D01*
X8894771Y-15789777D01*
X8894771Y-15861206D01*
X8880485Y-15918349D01*
X8866199Y-15946920D01*
X8851914Y-15961206D01*
X8823342Y-15975491D01*
X8794771Y-15975491D01*
X8766199Y-15961206D01*
X8751914Y-15946920D01*
X8737628Y-15918349D01*
X8723342Y-15861206D01*
X8723342Y-15789777D01*
X8737628Y-15732634D01*
X8751914Y-15704063D01*
X8766199Y-15689777D01*
X8794771Y-15675491D01*
X9080485Y-15675491D02*
X9109056Y-15675491D01*
X9137628Y-15689777D01*
X9151914Y-15704063D01*
X9166199Y-15732634D01*
X9180485Y-15789777D01*
X9180485Y-15861206D01*
X9166199Y-15918349D01*
X9151914Y-15946920D01*
X9137628Y-15961206D01*
X9109056Y-15975491D01*
X9080485Y-15975491D01*
X9051914Y-15961206D01*
X9037628Y-15946920D01*
X9023342Y-15918349D01*
X9009056Y-15861206D01*
X9009056Y-15789777D01*
X9023342Y-15732634D01*
X9037628Y-15704063D01*
X9051914Y-15689777D01*
X9080485Y-15675491D01*
X9309056Y-15975491D02*
X9309056Y-15775491D01*
X9309056Y-15804063D02*
X9323342Y-15789777D01*
X9351914Y-15775491D01*
X9394771Y-15775491D01*
X9423342Y-15789777D01*
X9437628Y-15818349D01*
X9437628Y-15975491D01*
X9437628Y-15818349D02*
X9451914Y-15789777D01*
X9480485Y-15775491D01*
X9523342Y-15775491D01*
X9551914Y-15789777D01*
X9566199Y-15818349D01*
X9566199Y-15975491D01*
X9709056Y-15975491D02*
X9709056Y-15775491D01*
X9709056Y-15804063D02*
X9723342Y-15789777D01*
X9751914Y-15775491D01*
X9794771Y-15775491D01*
X9823342Y-15789777D01*
X9837628Y-15818349D01*
X9837628Y-15975491D01*
X9837628Y-15818349D02*
X9851914Y-15789777D01*
X9880485Y-15775491D01*
X9923342Y-15775491D01*
X9951914Y-15789777D01*
X9966199Y-15818349D01*
X9966199Y-15975491D01*
X10551914Y-15661206D02*
X10294771Y-16046920D01*
X10937628Y-15675491D02*
X10966199Y-15675491D01*
X10994771Y-15689777D01*
X11009056Y-15704063D01*
X11023342Y-15732634D01*
X11037628Y-15789777D01*
X11037628Y-15861206D01*
X11023342Y-15918349D01*
X11009056Y-15946920D01*
X10994771Y-15961206D01*
X10966199Y-15975491D01*
X10937628Y-15975491D01*
X10909056Y-15961206D01*
X10894771Y-15946920D01*
X10880485Y-15918349D01*
X10866199Y-15861206D01*
X10866199Y-15789777D01*
X10880485Y-15732634D01*
X10894771Y-15704063D01*
X10909056Y-15689777D01*
X10937628Y-15675491D01*
X11166199Y-15946920D02*
X11180485Y-15961206D01*
X11166199Y-15975491D01*
X11151914Y-15961206D01*
X11166199Y-15946920D01*
X11166199Y-15975491D01*
X11366199Y-15675491D02*
X11394771Y-15675491D01*
X11423342Y-15689777D01*
X11437628Y-15704063D01*
X11451913Y-15732634D01*
X11466199Y-15789777D01*
X11466199Y-15861206D01*
X11451913Y-15918349D01*
X11437628Y-15946920D01*
X11423342Y-15961206D01*
X11394771Y-15975491D01*
X11366199Y-15975491D01*
X11337628Y-15961206D01*
X11323342Y-15946920D01*
X11309056Y-15918349D01*
X11294771Y-15861206D01*
X11294771Y-15789777D01*
X11309056Y-15732634D01*
X11323342Y-15704063D01*
X11337628Y-15689777D01*
X11366199Y-15675491D01*
X11751913Y-15975491D02*
X11580485Y-15975491D01*
X11666199Y-15975491D02*
X11666199Y-15675491D01*
X11637628Y-15718349D01*
X11609056Y-15746920D01*
X11580485Y-15761206D01*
X12037628Y-15975491D02*
X11866199Y-15975491D01*
X11951913Y-15975491D02*
X11951913Y-15675491D01*
X11923342Y-15718349D01*
X11894771Y-15746920D01*
X11866199Y-15761206D01*
X12209056Y-15804063D02*
X12180485Y-15789777D01*
X12166199Y-15775491D01*
X12151913Y-15746920D01*
X12151913Y-15732634D01*
X12166199Y-15704063D01*
X12180485Y-15689777D01*
X12209056Y-15675491D01*
X12266199Y-15675491D01*
X12294771Y-15689777D01*
X12309056Y-15704063D01*
X12323342Y-15732634D01*
X12323342Y-15746920D01*
X12309056Y-15775491D01*
X12294771Y-15789777D01*
X12266199Y-15804063D01*
X12209056Y-15804063D01*
X12180485Y-15818349D01*
X12166199Y-15832634D01*
X12151913Y-15861206D01*
X12151913Y-15918349D01*
X12166199Y-15946920D01*
X12180485Y-15961206D01*
X12209056Y-15975491D01*
X12266199Y-15975491D01*
X12294771Y-15961206D01*
X12309056Y-15946920D01*
X12323342Y-15918349D01*
X12323342Y-15861206D01*
X12309056Y-15832634D01*
X12294771Y-15818349D01*
X12266199Y-15804063D01*
X12437628Y-15675491D02*
X12437628Y-15732634D01*
X12551913Y-15675491D02*
X12551913Y-15732634D01*
X12994771Y-16089777D02*
X12980485Y-16075491D01*
X12951913Y-16032634D01*
X12937628Y-16004063D01*
X12923342Y-15961206D01*
X12909056Y-15889777D01*
X12909056Y-15832634D01*
X12923342Y-15761206D01*
X12937628Y-15718349D01*
X12951913Y-15689777D01*
X12980485Y-15646920D01*
X12994771Y-15632634D01*
X13094771Y-15704063D02*
X13109056Y-15689777D01*
X13137628Y-15675491D01*
X13209056Y-15675491D01*
X13237628Y-15689777D01*
X13251913Y-15704063D01*
X13266199Y-15732634D01*
X13266199Y-15761206D01*
X13251913Y-15804063D01*
X13080485Y-15975491D01*
X13266199Y-15975491D01*
X13523342Y-15775491D02*
X13523342Y-15975491D01*
X13451913Y-15661206D02*
X13380485Y-15875491D01*
X13566199Y-15875491D01*
X13737628Y-15675491D02*
X13766199Y-15675491D01*
X13794771Y-15689777D01*
X13809056Y-15704063D01*
X13823342Y-15732634D01*
X13837628Y-15789777D01*
X13837628Y-15861206D01*
X13823342Y-15918349D01*
X13809056Y-15946920D01*
X13794771Y-15961206D01*
X13766199Y-15975491D01*
X13737628Y-15975491D01*
X13709056Y-15961206D01*
X13694771Y-15946920D01*
X13680485Y-15918349D01*
X13666199Y-15861206D01*
X13666199Y-15789777D01*
X13680485Y-15732634D01*
X13694771Y-15704063D01*
X13709056Y-15689777D01*
X13737628Y-15675491D01*
X14194771Y-15975491D02*
X14194771Y-15675491D01*
X14323342Y-15975491D02*
X14323342Y-15818349D01*
X14309056Y-15789777D01*
X14280485Y-15775491D01*
X14237628Y-15775491D01*
X14209056Y-15789777D01*
X14194771Y-15804063D01*
X14509056Y-15975491D02*
X14480485Y-15961206D01*
X14466199Y-15946920D01*
X14451913Y-15918349D01*
X14451913Y-15832634D01*
X14466199Y-15804063D01*
X14480485Y-15789777D01*
X14509056Y-15775491D01*
X14551913Y-15775491D01*
X14580485Y-15789777D01*
X14594771Y-15804063D01*
X14609056Y-15832634D01*
X14609056Y-15918349D01*
X14594771Y-15946920D01*
X14580485Y-15961206D01*
X14551913Y-15975491D01*
X14509056Y-15975491D01*
X14780485Y-15975491D02*
X14751913Y-15961206D01*
X14737628Y-15932634D01*
X14737628Y-15675491D01*
X15009056Y-15961206D02*
X14980485Y-15975491D01*
X14923342Y-15975491D01*
X14894771Y-15961206D01*
X14880485Y-15932634D01*
X14880485Y-15818349D01*
X14894771Y-15789777D01*
X14923342Y-15775491D01*
X14980485Y-15775491D01*
X15009056Y-15789777D01*
X15023342Y-15818349D01*
X15023342Y-15846920D01*
X14880485Y-15875491D01*
X15137628Y-15961206D02*
X15166199Y-15975491D01*
X15223342Y-15975491D01*
X15251913Y-15961206D01*
X15266199Y-15932634D01*
X15266199Y-15918349D01*
X15251913Y-15889777D01*
X15223342Y-15875491D01*
X15180485Y-15875491D01*
X15151913Y-15861206D01*
X15137628Y-15832634D01*
X15137628Y-15818349D01*
X15151913Y-15789777D01*
X15180485Y-15775491D01*
X15223342Y-15775491D01*
X15251913Y-15789777D01*
X15366199Y-16089777D02*
X15380485Y-16075491D01*
X15409056Y-16032634D01*
X15423342Y-16004063D01*
X15437628Y-15961206D01*
X15451913Y-15889777D01*
X15451913Y-15832634D01*
X15437628Y-15761206D01*
X15423342Y-15718349D01*
X15409056Y-15689777D01*
X15380485Y-15646920D01*
X15366199Y-15632634D01*
X7736913Y-16235777D02*
G75*
G03*
X7736913Y-16235777I-20000J0D01*
G01*
X8080485Y-16071491D02*
X8109056Y-16071491D01*
X8137628Y-16085777D01*
X8151913Y-16100063D01*
X8166199Y-16128634D01*
X8180485Y-16185777D01*
X8180485Y-16257206D01*
X8166199Y-16314349D01*
X8151913Y-16342920D01*
X8137628Y-16357206D01*
X8109056Y-16371491D01*
X8080485Y-16371491D01*
X8051913Y-16357206D01*
X8037628Y-16342920D01*
X8023342Y-16314349D01*
X8009056Y-16257206D01*
X8009056Y-16185777D01*
X8023342Y-16128634D01*
X8037628Y-16100063D01*
X8051913Y-16085777D01*
X8080485Y-16071491D01*
X8309056Y-16342920D02*
X8323342Y-16357206D01*
X8309056Y-16371491D01*
X8294771Y-16357206D01*
X8309056Y-16342920D01*
X8309056Y-16371491D01*
X8580485Y-16171491D02*
X8580485Y-16371491D01*
X8509056Y-16057206D02*
X8437628Y-16271491D01*
X8623342Y-16271491D01*
X8794771Y-16071491D02*
X8823342Y-16071491D01*
X8851914Y-16085777D01*
X8866199Y-16100063D01*
X8880485Y-16128634D01*
X8894771Y-16185777D01*
X8894771Y-16257206D01*
X8880485Y-16314349D01*
X8866199Y-16342920D01*
X8851914Y-16357206D01*
X8823342Y-16371491D01*
X8794771Y-16371491D01*
X8766199Y-16357206D01*
X8751914Y-16342920D01*
X8737628Y-16314349D01*
X8723342Y-16257206D01*
X8723342Y-16185777D01*
X8737628Y-16128634D01*
X8751914Y-16100063D01*
X8766199Y-16085777D01*
X8794771Y-16071491D01*
X9080485Y-16071491D02*
X9109056Y-16071491D01*
X9137628Y-16085777D01*
X9151914Y-16100063D01*
X9166199Y-16128634D01*
X9180485Y-16185777D01*
X9180485Y-16257206D01*
X9166199Y-16314349D01*
X9151914Y-16342920D01*
X9137628Y-16357206D01*
X9109056Y-16371491D01*
X9080485Y-16371491D01*
X9051914Y-16357206D01*
X9037628Y-16342920D01*
X9023342Y-16314349D01*
X9009056Y-16257206D01*
X9009056Y-16185777D01*
X9023342Y-16128634D01*
X9037628Y-16100063D01*
X9051914Y-16085777D01*
X9080485Y-16071491D01*
X9309056Y-16371491D02*
X9309056Y-16171491D01*
X9309056Y-16200063D02*
X9323342Y-16185777D01*
X9351914Y-16171491D01*
X9394771Y-16171491D01*
X9423342Y-16185777D01*
X9437628Y-16214349D01*
X9437628Y-16371491D01*
X9437628Y-16214349D02*
X9451914Y-16185777D01*
X9480485Y-16171491D01*
X9523342Y-16171491D01*
X9551914Y-16185777D01*
X9566199Y-16214349D01*
X9566199Y-16371491D01*
X9709056Y-16371491D02*
X9709056Y-16171491D01*
X9709056Y-16200063D02*
X9723342Y-16185777D01*
X9751914Y-16171491D01*
X9794771Y-16171491D01*
X9823342Y-16185777D01*
X9837628Y-16214349D01*
X9837628Y-16371491D01*
X9837628Y-16214349D02*
X9851914Y-16185777D01*
X9880485Y-16171491D01*
X9923342Y-16171491D01*
X9951914Y-16185777D01*
X9966199Y-16214349D01*
X9966199Y-16371491D01*
X10551914Y-16057206D02*
X10294771Y-16442920D01*
X10937628Y-16071491D02*
X10966199Y-16071491D01*
X10994771Y-16085777D01*
X11009056Y-16100063D01*
X11023342Y-16128634D01*
X11037628Y-16185777D01*
X11037628Y-16257206D01*
X11023342Y-16314349D01*
X11009056Y-16342920D01*
X10994771Y-16357206D01*
X10966199Y-16371491D01*
X10937628Y-16371491D01*
X10909056Y-16357206D01*
X10894771Y-16342920D01*
X10880485Y-16314349D01*
X10866199Y-16257206D01*
X10866199Y-16185777D01*
X10880485Y-16128634D01*
X10894771Y-16100063D01*
X10909056Y-16085777D01*
X10937628Y-16071491D01*
X11166199Y-16342920D02*
X11180485Y-16357206D01*
X11166199Y-16371491D01*
X11151914Y-16357206D01*
X11166199Y-16342920D01*
X11166199Y-16371491D01*
X11366199Y-16071491D02*
X11394771Y-16071491D01*
X11423342Y-16085777D01*
X11437628Y-16100063D01*
X11451913Y-16128634D01*
X11466199Y-16185777D01*
X11466199Y-16257206D01*
X11451913Y-16314349D01*
X11437628Y-16342920D01*
X11423342Y-16357206D01*
X11394771Y-16371491D01*
X11366199Y-16371491D01*
X11337628Y-16357206D01*
X11323342Y-16342920D01*
X11309056Y-16314349D01*
X11294771Y-16257206D01*
X11294771Y-16185777D01*
X11309056Y-16128634D01*
X11323342Y-16100063D01*
X11337628Y-16085777D01*
X11366199Y-16071491D01*
X11751913Y-16371491D02*
X11580485Y-16371491D01*
X11666199Y-16371491D02*
X11666199Y-16071491D01*
X11637628Y-16114349D01*
X11609056Y-16142920D01*
X11580485Y-16157206D01*
X12023342Y-16071491D02*
X11880485Y-16071491D01*
X11866199Y-16214349D01*
X11880485Y-16200063D01*
X11909056Y-16185777D01*
X11980485Y-16185777D01*
X12009056Y-16200063D01*
X12023342Y-16214349D01*
X12037628Y-16242920D01*
X12037628Y-16314349D01*
X12023342Y-16342920D01*
X12009056Y-16357206D01*
X11980485Y-16371491D01*
X11909056Y-16371491D01*
X11880485Y-16357206D01*
X11866199Y-16342920D01*
X12137628Y-16071491D02*
X12337628Y-16071491D01*
X12209056Y-16371491D01*
X12437628Y-16071491D02*
X12437628Y-16128634D01*
X12551913Y-16071491D02*
X12551913Y-16128634D01*
X12994771Y-16485777D02*
X12980485Y-16471491D01*
X12951913Y-16428634D01*
X12937628Y-16400063D01*
X12923342Y-16357206D01*
X12909056Y-16285777D01*
X12909056Y-16228634D01*
X12923342Y-16157206D01*
X12937628Y-16114349D01*
X12951913Y-16085777D01*
X12980485Y-16042920D01*
X12994771Y-16028634D01*
X13266199Y-16371491D02*
X13094771Y-16371491D01*
X13180485Y-16371491D02*
X13180485Y-16071491D01*
X13151913Y-16114349D01*
X13123342Y-16142920D01*
X13094771Y-16157206D01*
X13523342Y-16171491D02*
X13523342Y-16371491D01*
X13451913Y-16057206D02*
X13380485Y-16271491D01*
X13566199Y-16271491D01*
X13651913Y-16071491D02*
X13851913Y-16071491D01*
X13723342Y-16371491D01*
X14194771Y-16371491D02*
X14194771Y-16071491D01*
X14323342Y-16371491D02*
X14323342Y-16214349D01*
X14309056Y-16185777D01*
X14280485Y-16171491D01*
X14237628Y-16171491D01*
X14209056Y-16185777D01*
X14194771Y-16200063D01*
X14509056Y-16371491D02*
X14480485Y-16357206D01*
X14466199Y-16342920D01*
X14451913Y-16314349D01*
X14451913Y-16228634D01*
X14466199Y-16200063D01*
X14480485Y-16185777D01*
X14509056Y-16171491D01*
X14551913Y-16171491D01*
X14580485Y-16185777D01*
X14594771Y-16200063D01*
X14609056Y-16228634D01*
X14609056Y-16314349D01*
X14594771Y-16342920D01*
X14580485Y-16357206D01*
X14551913Y-16371491D01*
X14509056Y-16371491D01*
X14780485Y-16371491D02*
X14751913Y-16357206D01*
X14737628Y-16328634D01*
X14737628Y-16071491D01*
X15009056Y-16357206D02*
X14980485Y-16371491D01*
X14923342Y-16371491D01*
X14894771Y-16357206D01*
X14880485Y-16328634D01*
X14880485Y-16214349D01*
X14894771Y-16185777D01*
X14923342Y-16171491D01*
X14980485Y-16171491D01*
X15009056Y-16185777D01*
X15023342Y-16214349D01*
X15023342Y-16242920D01*
X14880485Y-16271491D01*
X15137628Y-16357206D02*
X15166199Y-16371491D01*
X15223342Y-16371491D01*
X15251913Y-16357206D01*
X15266199Y-16328634D01*
X15266199Y-16314349D01*
X15251913Y-16285777D01*
X15223342Y-16271491D01*
X15180485Y-16271491D01*
X15151913Y-16257206D01*
X15137628Y-16228634D01*
X15137628Y-16214349D01*
X15151913Y-16185777D01*
X15180485Y-16171491D01*
X15223342Y-16171491D01*
X15251913Y-16185777D01*
X15366199Y-16485777D02*
X15380485Y-16471491D01*
X15409056Y-16428634D01*
X15423342Y-16400063D01*
X15437628Y-16357206D01*
X15451913Y-16285777D01*
X15451913Y-16228634D01*
X15437628Y-16157206D01*
X15423342Y-16114349D01*
X15409056Y-16085777D01*
X15380485Y-16042920D01*
X15366199Y-16028634D01*
X7711913Y-16606777D02*
X7711913Y-16656777D01*
X7686913Y-16631777D02*
X7736913Y-16631777D01*
X8080485Y-16467491D02*
X8109056Y-16467491D01*
X8137628Y-16481777D01*
X8151913Y-16496063D01*
X8166199Y-16524634D01*
X8180485Y-16581777D01*
X8180485Y-16653206D01*
X8166199Y-16710349D01*
X8151913Y-16738920D01*
X8137628Y-16753206D01*
X8109056Y-16767491D01*
X8080485Y-16767491D01*
X8051913Y-16753206D01*
X8037628Y-16738920D01*
X8023342Y-16710349D01*
X8009056Y-16653206D01*
X8009056Y-16581777D01*
X8023342Y-16524634D01*
X8037628Y-16496063D01*
X8051913Y-16481777D01*
X8080485Y-16467491D01*
X8309056Y-16738920D02*
X8323342Y-16753206D01*
X8309056Y-16767491D01*
X8294771Y-16753206D01*
X8309056Y-16738920D01*
X8309056Y-16767491D01*
X8594771Y-16467491D02*
X8451914Y-16467491D01*
X8437628Y-16610349D01*
X8451914Y-16596063D01*
X8480485Y-16581777D01*
X8551914Y-16581777D01*
X8580485Y-16596063D01*
X8594771Y-16610349D01*
X8609056Y-16638920D01*
X8609056Y-16710349D01*
X8594771Y-16738920D01*
X8580485Y-16753206D01*
X8551914Y-16767491D01*
X8480485Y-16767491D01*
X8451914Y-16753206D01*
X8437628Y-16738920D01*
X8794771Y-16467491D02*
X8823342Y-16467491D01*
X8851914Y-16481777D01*
X8866199Y-16496063D01*
X8880485Y-16524634D01*
X8894771Y-16581777D01*
X8894771Y-16653206D01*
X8880485Y-16710349D01*
X8866199Y-16738920D01*
X8851914Y-16753206D01*
X8823342Y-16767491D01*
X8794771Y-16767491D01*
X8766199Y-16753206D01*
X8751914Y-16738920D01*
X8737628Y-16710349D01*
X8723342Y-16653206D01*
X8723342Y-16581777D01*
X8737628Y-16524634D01*
X8751914Y-16496063D01*
X8766199Y-16481777D01*
X8794771Y-16467491D01*
X9080485Y-16467491D02*
X9109056Y-16467491D01*
X9137628Y-16481777D01*
X9151914Y-16496063D01*
X9166199Y-16524634D01*
X9180485Y-16581777D01*
X9180485Y-16653206D01*
X9166199Y-16710349D01*
X9151914Y-16738920D01*
X9137628Y-16753206D01*
X9109056Y-16767491D01*
X9080485Y-16767491D01*
X9051914Y-16753206D01*
X9037628Y-16738920D01*
X9023342Y-16710349D01*
X9009056Y-16653206D01*
X9009056Y-16581777D01*
X9023342Y-16524634D01*
X9037628Y-16496063D01*
X9051914Y-16481777D01*
X9080485Y-16467491D01*
X9309056Y-16767491D02*
X9309056Y-16567491D01*
X9309056Y-16596063D02*
X9323342Y-16581777D01*
X9351914Y-16567491D01*
X9394771Y-16567491D01*
X9423342Y-16581777D01*
X9437628Y-16610349D01*
X9437628Y-16767491D01*
X9437628Y-16610349D02*
X9451914Y-16581777D01*
X9480485Y-16567491D01*
X9523342Y-16567491D01*
X9551914Y-16581777D01*
X9566199Y-16610349D01*
X9566199Y-16767491D01*
X9709056Y-16767491D02*
X9709056Y-16567491D01*
X9709056Y-16596063D02*
X9723342Y-16581777D01*
X9751914Y-16567491D01*
X9794771Y-16567491D01*
X9823342Y-16581777D01*
X9837628Y-16610349D01*
X9837628Y-16767491D01*
X9837628Y-16610349D02*
X9851914Y-16581777D01*
X9880485Y-16567491D01*
X9923342Y-16567491D01*
X9951914Y-16581777D01*
X9966199Y-16610349D01*
X9966199Y-16767491D01*
X10551914Y-16453206D02*
X10294771Y-16838920D01*
X10937628Y-16467491D02*
X10966199Y-16467491D01*
X10994771Y-16481777D01*
X11009056Y-16496063D01*
X11023342Y-16524634D01*
X11037628Y-16581777D01*
X11037628Y-16653206D01*
X11023342Y-16710349D01*
X11009056Y-16738920D01*
X10994771Y-16753206D01*
X10966199Y-16767491D01*
X10937628Y-16767491D01*
X10909056Y-16753206D01*
X10894771Y-16738920D01*
X10880485Y-16710349D01*
X10866199Y-16653206D01*
X10866199Y-16581777D01*
X10880485Y-16524634D01*
X10894771Y-16496063D01*
X10909056Y-16481777D01*
X10937628Y-16467491D01*
X11166199Y-16738920D02*
X11180485Y-16753206D01*
X11166199Y-16767491D01*
X11151914Y-16753206D01*
X11166199Y-16738920D01*
X11166199Y-16767491D01*
X11366199Y-16467491D02*
X11394771Y-16467491D01*
X11423342Y-16481777D01*
X11437628Y-16496063D01*
X11451913Y-16524634D01*
X11466199Y-16581777D01*
X11466199Y-16653206D01*
X11451913Y-16710349D01*
X11437628Y-16738920D01*
X11423342Y-16753206D01*
X11394771Y-16767491D01*
X11366199Y-16767491D01*
X11337628Y-16753206D01*
X11323342Y-16738920D01*
X11309056Y-16710349D01*
X11294771Y-16653206D01*
X11294771Y-16581777D01*
X11309056Y-16524634D01*
X11323342Y-16496063D01*
X11337628Y-16481777D01*
X11366199Y-16467491D01*
X11751913Y-16767491D02*
X11580485Y-16767491D01*
X11666199Y-16767491D02*
X11666199Y-16467491D01*
X11637628Y-16510349D01*
X11609056Y-16538920D01*
X11580485Y-16553206D01*
X11894771Y-16767491D02*
X11951913Y-16767491D01*
X11980485Y-16753206D01*
X11994771Y-16738920D01*
X12023342Y-16696063D01*
X12037628Y-16638920D01*
X12037628Y-16524634D01*
X12023342Y-16496063D01*
X12009056Y-16481777D01*
X11980485Y-16467491D01*
X11923342Y-16467491D01*
X11894771Y-16481777D01*
X11880485Y-16496063D01*
X11866199Y-16524634D01*
X11866199Y-16596063D01*
X11880485Y-16624634D01*
X11894771Y-16638920D01*
X11923342Y-16653206D01*
X11980485Y-16653206D01*
X12009056Y-16638920D01*
X12023342Y-16624634D01*
X12037628Y-16596063D01*
X12137628Y-16467491D02*
X12337628Y-16467491D01*
X12209056Y-16767491D01*
X12437628Y-16467491D02*
X12437628Y-16524634D01*
X12551913Y-16467491D02*
X12551913Y-16524634D01*
X12994771Y-16881777D02*
X12980485Y-16867492D01*
X12951913Y-16824634D01*
X12937628Y-16796063D01*
X12923342Y-16753206D01*
X12909056Y-16681777D01*
X12909056Y-16624634D01*
X12923342Y-16553206D01*
X12937628Y-16510349D01*
X12951913Y-16481777D01*
X12980485Y-16438920D01*
X12994771Y-16424634D01*
X13166199Y-16467491D02*
X13194771Y-16467491D01*
X13223342Y-16481777D01*
X13237628Y-16496063D01*
X13251913Y-16524634D01*
X13266199Y-16581777D01*
X13266199Y-16653206D01*
X13251913Y-16710349D01*
X13237628Y-16738920D01*
X13223342Y-16753206D01*
X13194771Y-16767491D01*
X13166199Y-16767491D01*
X13137628Y-16753206D01*
X13123342Y-16738920D01*
X13109056Y-16710349D01*
X13094771Y-16653206D01*
X13094771Y-16581777D01*
X13109056Y-16524634D01*
X13123342Y-16496063D01*
X13137628Y-16481777D01*
X13166199Y-16467491D01*
X13623342Y-16767491D02*
X13623342Y-16467491D01*
X13751913Y-16767491D02*
X13751913Y-16610349D01*
X13737628Y-16581777D01*
X13709056Y-16567491D01*
X13666199Y-16567491D01*
X13637628Y-16581777D01*
X13623342Y-16596063D01*
X13937628Y-16767491D02*
X13909056Y-16753206D01*
X13894771Y-16738920D01*
X13880485Y-16710349D01*
X13880485Y-16624634D01*
X13894771Y-16596063D01*
X13909056Y-16581777D01*
X13937628Y-16567491D01*
X13980485Y-16567491D01*
X14009056Y-16581777D01*
X14023342Y-16596063D01*
X14037628Y-16624634D01*
X14037628Y-16710349D01*
X14023342Y-16738920D01*
X14009056Y-16753206D01*
X13980485Y-16767491D01*
X13937628Y-16767491D01*
X14209056Y-16767491D02*
X14180485Y-16753206D01*
X14166199Y-16724634D01*
X14166199Y-16467491D01*
X14437628Y-16753206D02*
X14409056Y-16767491D01*
X14351913Y-16767491D01*
X14323342Y-16753206D01*
X14309056Y-16724634D01*
X14309056Y-16610349D01*
X14323342Y-16581777D01*
X14351913Y-16567491D01*
X14409056Y-16567491D01*
X14437628Y-16581777D01*
X14451913Y-16610349D01*
X14451913Y-16638920D01*
X14309056Y-16667491D01*
X14566199Y-16753206D02*
X14594771Y-16767491D01*
X14651913Y-16767491D01*
X14680485Y-16753206D01*
X14694771Y-16724634D01*
X14694771Y-16710349D01*
X14680485Y-16681777D01*
X14651913Y-16667491D01*
X14609056Y-16667491D01*
X14580485Y-16653206D01*
X14566199Y-16624634D01*
X14566199Y-16610349D01*
X14580485Y-16581777D01*
X14609056Y-16567491D01*
X14651913Y-16567491D01*
X14680485Y-16581777D01*
X15051913Y-16653206D02*
X15280485Y-16653206D01*
X15166199Y-16767491D02*
X15166199Y-16538920D01*
X15694771Y-16596063D02*
X15666199Y-16581777D01*
X15651913Y-16567491D01*
X15637628Y-16538920D01*
X15637628Y-16524634D01*
X15651913Y-16496063D01*
X15666199Y-16481777D01*
X15694771Y-16467491D01*
X15751913Y-16467491D01*
X15780485Y-16481777D01*
X15794771Y-16496063D01*
X15809056Y-16524634D01*
X15809056Y-16538920D01*
X15794771Y-16567491D01*
X15780485Y-16581777D01*
X15751913Y-16596063D01*
X15694771Y-16596063D01*
X15666199Y-16610349D01*
X15651913Y-16624634D01*
X15637628Y-16653206D01*
X15637628Y-16710349D01*
X15651913Y-16738920D01*
X15666199Y-16753206D01*
X15694771Y-16767491D01*
X15751913Y-16767491D01*
X15780485Y-16753206D01*
X15794771Y-16738920D01*
X15809056Y-16710349D01*
X15809056Y-16653206D01*
X15794771Y-16624634D01*
X15780485Y-16610349D01*
X15751913Y-16596063D01*
X16151913Y-16753206D02*
X16180485Y-16767491D01*
X16237628Y-16767491D01*
X16266199Y-16753206D01*
X16280485Y-16724634D01*
X16280485Y-16710349D01*
X16266199Y-16681777D01*
X16237628Y-16667491D01*
X16194771Y-16667491D01*
X16166199Y-16653206D01*
X16151913Y-16624634D01*
X16151913Y-16610349D01*
X16166199Y-16581777D01*
X16194771Y-16567491D01*
X16237628Y-16567491D01*
X16266199Y-16581777D01*
X16451913Y-16767491D02*
X16423342Y-16753206D01*
X16409056Y-16724634D01*
X16409056Y-16467491D01*
X16609056Y-16767491D02*
X16580485Y-16753206D01*
X16566199Y-16738920D01*
X16551913Y-16710349D01*
X16551913Y-16624634D01*
X16566199Y-16596063D01*
X16580485Y-16581777D01*
X16609056Y-16567491D01*
X16651913Y-16567491D01*
X16680485Y-16581777D01*
X16694771Y-16596063D01*
X16709056Y-16624634D01*
X16709056Y-16710349D01*
X16694771Y-16738920D01*
X16680485Y-16753206D01*
X16651913Y-16767491D01*
X16609056Y-16767491D01*
X16794771Y-16567491D02*
X16909056Y-16567491D01*
X16837628Y-16467491D02*
X16837628Y-16724634D01*
X16851914Y-16753206D01*
X16880485Y-16767491D01*
X16909056Y-16767491D01*
X16994771Y-16753206D02*
X17023342Y-16767491D01*
X17080485Y-16767491D01*
X17109056Y-16753206D01*
X17123342Y-16724634D01*
X17123342Y-16710349D01*
X17109056Y-16681777D01*
X17080485Y-16667491D01*
X17037628Y-16667491D01*
X17009056Y-16653206D01*
X16994771Y-16624634D01*
X16994771Y-16610349D01*
X17009056Y-16581777D01*
X17037628Y-16567491D01*
X17080485Y-16567491D01*
X17109056Y-16581777D01*
X17223342Y-16881777D02*
X17237628Y-16867492D01*
X17266199Y-16824634D01*
X17280485Y-16796063D01*
X17294771Y-16753206D01*
X17309056Y-16681777D01*
X17309056Y-16624634D01*
X17294771Y-16553206D01*
X17280485Y-16510349D01*
X17266199Y-16481777D01*
X17237628Y-16438920D01*
X17223342Y-16424634D01*
X7725011Y-17056514D02*
X7725011Y-16999040D01*
X7667536Y-16999040D01*
X7667536Y-17056514D01*
X7725011Y-17056514D01*
X8080485Y-16863492D02*
X8109056Y-16863492D01*
X8137628Y-16877777D01*
X8151913Y-16892063D01*
X8166199Y-16920634D01*
X8180485Y-16977777D01*
X8180485Y-17049206D01*
X8166199Y-17106349D01*
X8151913Y-17134920D01*
X8137628Y-17149206D01*
X8109056Y-17163492D01*
X8080485Y-17163492D01*
X8051913Y-17149206D01*
X8037628Y-17134920D01*
X8023342Y-17106349D01*
X8009056Y-17049206D01*
X8009056Y-16977777D01*
X8023342Y-16920634D01*
X8037628Y-16892063D01*
X8051913Y-16877777D01*
X8080485Y-16863492D01*
X8309056Y-17134920D02*
X8323342Y-17149206D01*
X8309056Y-17163492D01*
X8294771Y-17149206D01*
X8309056Y-17134920D01*
X8309056Y-17163492D01*
X8494771Y-16992063D02*
X8466199Y-16977777D01*
X8451914Y-16963492D01*
X8437628Y-16934920D01*
X8437628Y-16920634D01*
X8451914Y-16892063D01*
X8466199Y-16877777D01*
X8494771Y-16863492D01*
X8551914Y-16863492D01*
X8580485Y-16877777D01*
X8594771Y-16892063D01*
X8609056Y-16920634D01*
X8609056Y-16934920D01*
X8594771Y-16963492D01*
X8580485Y-16977777D01*
X8551914Y-16992063D01*
X8494771Y-16992063D01*
X8466199Y-17006349D01*
X8451914Y-17020634D01*
X8437628Y-17049206D01*
X8437628Y-17106349D01*
X8451914Y-17134920D01*
X8466199Y-17149206D01*
X8494771Y-17163492D01*
X8551914Y-17163492D01*
X8580485Y-17149206D01*
X8594771Y-17134920D01*
X8609056Y-17106349D01*
X8609056Y-17049206D01*
X8594771Y-17020634D01*
X8580485Y-17006349D01*
X8551914Y-16992063D01*
X8894771Y-17163492D02*
X8723342Y-17163492D01*
X8809056Y-17163492D02*
X8809056Y-16863492D01*
X8780485Y-16906349D01*
X8751914Y-16934920D01*
X8723342Y-16949206D01*
X8994771Y-16863492D02*
X9180485Y-16863492D01*
X9080485Y-16977777D01*
X9123342Y-16977777D01*
X9151914Y-16992063D01*
X9166199Y-17006349D01*
X9180485Y-17034920D01*
X9180485Y-17106349D01*
X9166199Y-17134920D01*
X9151914Y-17149206D01*
X9123342Y-17163492D01*
X9037628Y-17163492D01*
X9009056Y-17149206D01*
X8994771Y-17134920D01*
X9309056Y-17163492D02*
X9309056Y-16963492D01*
X9309056Y-16992063D02*
X9323342Y-16977777D01*
X9351914Y-16963492D01*
X9394771Y-16963492D01*
X9423342Y-16977777D01*
X9437628Y-17006349D01*
X9437628Y-17163492D01*
X9437628Y-17006349D02*
X9451914Y-16977777D01*
X9480485Y-16963492D01*
X9523342Y-16963492D01*
X9551914Y-16977777D01*
X9566199Y-17006349D01*
X9566199Y-17163492D01*
X9709056Y-17163492D02*
X9709056Y-16963492D01*
X9709056Y-16992063D02*
X9723342Y-16977777D01*
X9751914Y-16963492D01*
X9794771Y-16963492D01*
X9823342Y-16977777D01*
X9837628Y-17006349D01*
X9837628Y-17163492D01*
X9837628Y-17006349D02*
X9851914Y-16977777D01*
X9880485Y-16963492D01*
X9923342Y-16963492D01*
X9951914Y-16977777D01*
X9966199Y-17006349D01*
X9966199Y-17163492D01*
X10551914Y-16849206D02*
X10294771Y-17234920D01*
X10937628Y-16863492D02*
X10966199Y-16863492D01*
X10994771Y-16877777D01*
X11009056Y-16892063D01*
X11023342Y-16920634D01*
X11037628Y-16977777D01*
X11037628Y-17049206D01*
X11023342Y-17106349D01*
X11009056Y-17134920D01*
X10994771Y-17149206D01*
X10966199Y-17163492D01*
X10937628Y-17163492D01*
X10909056Y-17149206D01*
X10894771Y-17134920D01*
X10880485Y-17106349D01*
X10866199Y-17049206D01*
X10866199Y-16977777D01*
X10880485Y-16920634D01*
X10894771Y-16892063D01*
X10909056Y-16877777D01*
X10937628Y-16863492D01*
X11166199Y-17134920D02*
X11180485Y-17149206D01*
X11166199Y-17163492D01*
X11151914Y-17149206D01*
X11166199Y-17134920D01*
X11166199Y-17163492D01*
X11366199Y-16863492D02*
X11394771Y-16863492D01*
X11423342Y-16877777D01*
X11437628Y-16892063D01*
X11451913Y-16920634D01*
X11466199Y-16977777D01*
X11466199Y-17049206D01*
X11451913Y-17106349D01*
X11437628Y-17134920D01*
X11423342Y-17149206D01*
X11394771Y-17163492D01*
X11366199Y-17163492D01*
X11337628Y-17149206D01*
X11323342Y-17134920D01*
X11309056Y-17106349D01*
X11294771Y-17049206D01*
X11294771Y-16977777D01*
X11309056Y-16920634D01*
X11323342Y-16892063D01*
X11337628Y-16877777D01*
X11366199Y-16863492D01*
X11566199Y-16863492D02*
X11751913Y-16863492D01*
X11651913Y-16977777D01*
X11694771Y-16977777D01*
X11723342Y-16992063D01*
X11737628Y-17006349D01*
X11751913Y-17034920D01*
X11751913Y-17106349D01*
X11737628Y-17134920D01*
X11723342Y-17149206D01*
X11694771Y-17163492D01*
X11609056Y-17163492D01*
X11580485Y-17149206D01*
X11566199Y-17134920D01*
X11866199Y-16892063D02*
X11880485Y-16877777D01*
X11909056Y-16863492D01*
X11980485Y-16863492D01*
X12009056Y-16877777D01*
X12023342Y-16892063D01*
X12037628Y-16920634D01*
X12037628Y-16949206D01*
X12023342Y-16992063D01*
X11851913Y-17163492D01*
X12037628Y-17163492D01*
X12223342Y-16863492D02*
X12251913Y-16863492D01*
X12280485Y-16877777D01*
X12294771Y-16892063D01*
X12309056Y-16920634D01*
X12323342Y-16977777D01*
X12323342Y-17049206D01*
X12309056Y-17106349D01*
X12294771Y-17134920D01*
X12280485Y-17149206D01*
X12251913Y-17163492D01*
X12223342Y-17163492D01*
X12194771Y-17149206D01*
X12180485Y-17134920D01*
X12166199Y-17106349D01*
X12151913Y-17049206D01*
X12151913Y-16977777D01*
X12166199Y-16920634D01*
X12180485Y-16892063D01*
X12194771Y-16877777D01*
X12223342Y-16863492D01*
X12437628Y-16863492D02*
X12437628Y-16920634D01*
X12551913Y-16863492D02*
X12551913Y-16920634D01*
X12994771Y-17277777D02*
X12980485Y-17263492D01*
X12951913Y-17220634D01*
X12937628Y-17192063D01*
X12923342Y-17149206D01*
X12909056Y-17077777D01*
X12909056Y-17020634D01*
X12923342Y-16949206D01*
X12937628Y-16906349D01*
X12951913Y-16877777D01*
X12980485Y-16834920D01*
X12994771Y-16820634D01*
X13266199Y-17163492D02*
X13094771Y-17163492D01*
X13180485Y-17163492D02*
X13180485Y-16863492D01*
X13151913Y-16906349D01*
X13123342Y-16934920D01*
X13094771Y-16949206D01*
X13380485Y-16892063D02*
X13394771Y-16877777D01*
X13423342Y-16863492D01*
X13494771Y-16863492D01*
X13523342Y-16877777D01*
X13537628Y-16892063D01*
X13551913Y-16920634D01*
X13551913Y-16949206D01*
X13537628Y-16992063D01*
X13366199Y-17163492D01*
X13551913Y-17163492D01*
X13809056Y-16963492D02*
X13809056Y-17163492D01*
X13737628Y-16849206D02*
X13666199Y-17063492D01*
X13851913Y-17063492D01*
X14194771Y-17163492D02*
X14194771Y-16863492D01*
X14323342Y-17163492D02*
X14323342Y-17006349D01*
X14309056Y-16977777D01*
X14280485Y-16963492D01*
X14237628Y-16963492D01*
X14209056Y-16977777D01*
X14194771Y-16992063D01*
X14509056Y-17163492D02*
X14480485Y-17149206D01*
X14466199Y-17134920D01*
X14451913Y-17106349D01*
X14451913Y-17020634D01*
X14466199Y-16992063D01*
X14480485Y-16977777D01*
X14509056Y-16963492D01*
X14551913Y-16963492D01*
X14580485Y-16977777D01*
X14594771Y-16992063D01*
X14609056Y-17020634D01*
X14609056Y-17106349D01*
X14594771Y-17134920D01*
X14580485Y-17149206D01*
X14551913Y-17163492D01*
X14509056Y-17163492D01*
X14780485Y-17163492D02*
X14751913Y-17149206D01*
X14737628Y-17120634D01*
X14737628Y-16863492D01*
X15009056Y-17149206D02*
X14980485Y-17163492D01*
X14923342Y-17163492D01*
X14894771Y-17149206D01*
X14880485Y-17120634D01*
X14880485Y-17006349D01*
X14894771Y-16977777D01*
X14923342Y-16963492D01*
X14980485Y-16963492D01*
X15009056Y-16977777D01*
X15023342Y-17006349D01*
X15023342Y-17034920D01*
X14880485Y-17063492D01*
X15137628Y-17149206D02*
X15166199Y-17163492D01*
X15223342Y-17163492D01*
X15251913Y-17149206D01*
X15266199Y-17120634D01*
X15266199Y-17106349D01*
X15251913Y-17077777D01*
X15223342Y-17063492D01*
X15180485Y-17063492D01*
X15151913Y-17049206D01*
X15137628Y-17020634D01*
X15137628Y-17006349D01*
X15151913Y-16977777D01*
X15180485Y-16963492D01*
X15223342Y-16963492D01*
X15251913Y-16977777D01*
X15366199Y-17277777D02*
X15380485Y-17263492D01*
X15409056Y-17220634D01*
X15423342Y-17192063D01*
X15437628Y-17149206D01*
X15451913Y-17077777D01*
X15451913Y-17020634D01*
X15437628Y-16949206D01*
X15423342Y-16906349D01*
X15409056Y-16877777D01*
X15380485Y-16834920D01*
X15366199Y-16820634D01*
X7686913Y-17473777D02*
X7736913Y-17423777D01*
X7686913Y-17373777D01*
X7636913Y-17423777D01*
X7686913Y-17473777D01*
X8180485Y-17559492D02*
X8009056Y-17559492D01*
X8094771Y-17559492D02*
X8094771Y-17259492D01*
X8066199Y-17302349D01*
X8037628Y-17330920D01*
X8009056Y-17345206D01*
X8309056Y-17530920D02*
X8323342Y-17545206D01*
X8309056Y-17559492D01*
X8294771Y-17545206D01*
X8309056Y-17530920D01*
X8309056Y-17559492D01*
X8509056Y-17259492D02*
X8537628Y-17259492D01*
X8566199Y-17273777D01*
X8580485Y-17288063D01*
X8594771Y-17316634D01*
X8609056Y-17373777D01*
X8609056Y-17445206D01*
X8594771Y-17502349D01*
X8580485Y-17530920D01*
X8566199Y-17545206D01*
X8537628Y-17559492D01*
X8509056Y-17559492D01*
X8480485Y-17545206D01*
X8466199Y-17530920D01*
X8451914Y-17502349D01*
X8437628Y-17445206D01*
X8437628Y-17373777D01*
X8451914Y-17316634D01*
X8466199Y-17288063D01*
X8480485Y-17273777D01*
X8509056Y-17259492D01*
X8794771Y-17259492D02*
X8823342Y-17259492D01*
X8851914Y-17273777D01*
X8866199Y-17288063D01*
X8880485Y-17316634D01*
X8894771Y-17373777D01*
X8894771Y-17445206D01*
X8880485Y-17502349D01*
X8866199Y-17530920D01*
X8851914Y-17545206D01*
X8823342Y-17559492D01*
X8794771Y-17559492D01*
X8766199Y-17545206D01*
X8751914Y-17530920D01*
X8737628Y-17502349D01*
X8723342Y-17445206D01*
X8723342Y-17373777D01*
X8737628Y-17316634D01*
X8751914Y-17288063D01*
X8766199Y-17273777D01*
X8794771Y-17259492D01*
X9080485Y-17259492D02*
X9109056Y-17259492D01*
X9137628Y-17273777D01*
X9151914Y-17288063D01*
X9166199Y-17316634D01*
X9180485Y-17373777D01*
X9180485Y-17445206D01*
X9166199Y-17502349D01*
X9151914Y-17530920D01*
X9137628Y-17545206D01*
X9109056Y-17559492D01*
X9080485Y-17559492D01*
X9051914Y-17545206D01*
X9037628Y-17530920D01*
X9023342Y-17502349D01*
X9009056Y-17445206D01*
X9009056Y-17373777D01*
X9023342Y-17316634D01*
X9037628Y-17288063D01*
X9051914Y-17273777D01*
X9080485Y-17259492D01*
X9309056Y-17559492D02*
X9309056Y-17359492D01*
X9309056Y-17388063D02*
X9323342Y-17373777D01*
X9351914Y-17359492D01*
X9394771Y-17359492D01*
X9423342Y-17373777D01*
X9437628Y-17402349D01*
X9437628Y-17559492D01*
X9437628Y-17402349D02*
X9451914Y-17373777D01*
X9480485Y-17359492D01*
X9523342Y-17359492D01*
X9551914Y-17373777D01*
X9566199Y-17402349D01*
X9566199Y-17559492D01*
X9709056Y-17559492D02*
X9709056Y-17359492D01*
X9709056Y-17388063D02*
X9723342Y-17373777D01*
X9751914Y-17359492D01*
X9794771Y-17359492D01*
X9823342Y-17373777D01*
X9837628Y-17402349D01*
X9837628Y-17559492D01*
X9837628Y-17402349D02*
X9851914Y-17373777D01*
X9880485Y-17359492D01*
X9923342Y-17359492D01*
X9951914Y-17373777D01*
X9966199Y-17402349D01*
X9966199Y-17559492D01*
X10551914Y-17245206D02*
X10294771Y-17630920D01*
X10937628Y-17259492D02*
X10966199Y-17259492D01*
X10994771Y-17273777D01*
X11009056Y-17288063D01*
X11023342Y-17316634D01*
X11037628Y-17373777D01*
X11037628Y-17445206D01*
X11023342Y-17502349D01*
X11009056Y-17530920D01*
X10994771Y-17545206D01*
X10966199Y-17559492D01*
X10937628Y-17559492D01*
X10909056Y-17545206D01*
X10894771Y-17530920D01*
X10880485Y-17502349D01*
X10866199Y-17445206D01*
X10866199Y-17373777D01*
X10880485Y-17316634D01*
X10894771Y-17288063D01*
X10909056Y-17273777D01*
X10937628Y-17259492D01*
X11166199Y-17530920D02*
X11180485Y-17545206D01*
X11166199Y-17559492D01*
X11151914Y-17545206D01*
X11166199Y-17530920D01*
X11166199Y-17559492D01*
X11366199Y-17259492D02*
X11394771Y-17259492D01*
X11423342Y-17273777D01*
X11437628Y-17288063D01*
X11451913Y-17316634D01*
X11466199Y-17373777D01*
X11466199Y-17445206D01*
X11451913Y-17502349D01*
X11437628Y-17530920D01*
X11423342Y-17545206D01*
X11394771Y-17559492D01*
X11366199Y-17559492D01*
X11337628Y-17545206D01*
X11323342Y-17530920D01*
X11309056Y-17502349D01*
X11294771Y-17445206D01*
X11294771Y-17373777D01*
X11309056Y-17316634D01*
X11323342Y-17288063D01*
X11337628Y-17273777D01*
X11366199Y-17259492D01*
X11566199Y-17259492D02*
X11751913Y-17259492D01*
X11651913Y-17373777D01*
X11694771Y-17373777D01*
X11723342Y-17388063D01*
X11737628Y-17402349D01*
X11751913Y-17430920D01*
X11751913Y-17502349D01*
X11737628Y-17530920D01*
X11723342Y-17545206D01*
X11694771Y-17559492D01*
X11609056Y-17559492D01*
X11580485Y-17545206D01*
X11566199Y-17530920D01*
X11894771Y-17559492D02*
X11951913Y-17559492D01*
X11980485Y-17545206D01*
X11994771Y-17530920D01*
X12023342Y-17488063D01*
X12037628Y-17430920D01*
X12037628Y-17316634D01*
X12023342Y-17288063D01*
X12009056Y-17273777D01*
X11980485Y-17259492D01*
X11923342Y-17259492D01*
X11894771Y-17273777D01*
X11880485Y-17288063D01*
X11866199Y-17316634D01*
X11866199Y-17388063D01*
X11880485Y-17416634D01*
X11894771Y-17430920D01*
X11923342Y-17445206D01*
X11980485Y-17445206D01*
X12009056Y-17430920D01*
X12023342Y-17416634D01*
X12037628Y-17388063D01*
X12294771Y-17359492D02*
X12294771Y-17559492D01*
X12223342Y-17245206D02*
X12151913Y-17459492D01*
X12337628Y-17459492D01*
X12437628Y-17259492D02*
X12437628Y-17316634D01*
X12551913Y-17259492D02*
X12551913Y-17316634D01*
X12994771Y-17673777D02*
X12980485Y-17659492D01*
X12951913Y-17616634D01*
X12937628Y-17588063D01*
X12923342Y-17545206D01*
X12909056Y-17473777D01*
X12909056Y-17416634D01*
X12923342Y-17345206D01*
X12937628Y-17302349D01*
X12951913Y-17273777D01*
X12980485Y-17230920D01*
X12994771Y-17216634D01*
X13266199Y-17559492D02*
X13094771Y-17559492D01*
X13180485Y-17559492D02*
X13180485Y-17259492D01*
X13151913Y-17302349D01*
X13123342Y-17330920D01*
X13094771Y-17345206D01*
X13537628Y-17259492D02*
X13394771Y-17259492D01*
X13380485Y-17402349D01*
X13394771Y-17388063D01*
X13423342Y-17373777D01*
X13494771Y-17373777D01*
X13523342Y-17388063D01*
X13537628Y-17402349D01*
X13551913Y-17430920D01*
X13551913Y-17502349D01*
X13537628Y-17530920D01*
X13523342Y-17545206D01*
X13494771Y-17559492D01*
X13423342Y-17559492D01*
X13394771Y-17545206D01*
X13380485Y-17530920D01*
X13909056Y-17559492D02*
X13909056Y-17259492D01*
X14037628Y-17559492D02*
X14037628Y-17402349D01*
X14023342Y-17373777D01*
X13994771Y-17359492D01*
X13951913Y-17359492D01*
X13923342Y-17373777D01*
X13909056Y-17388063D01*
X14223342Y-17559492D02*
X14194771Y-17545206D01*
X14180485Y-17530920D01*
X14166199Y-17502349D01*
X14166199Y-17416634D01*
X14180485Y-17388063D01*
X14194771Y-17373777D01*
X14223342Y-17359492D01*
X14266199Y-17359492D01*
X14294771Y-17373777D01*
X14309056Y-17388063D01*
X14323342Y-17416634D01*
X14323342Y-17502349D01*
X14309056Y-17530920D01*
X14294771Y-17545206D01*
X14266199Y-17559492D01*
X14223342Y-17559492D01*
X14494771Y-17559492D02*
X14466199Y-17545206D01*
X14451913Y-17516634D01*
X14451913Y-17259492D01*
X14723342Y-17545206D02*
X14694771Y-17559492D01*
X14637628Y-17559492D01*
X14609056Y-17545206D01*
X14594771Y-17516634D01*
X14594771Y-17402349D01*
X14609056Y-17373777D01*
X14637628Y-17359492D01*
X14694771Y-17359492D01*
X14723342Y-17373777D01*
X14737628Y-17402349D01*
X14737628Y-17430920D01*
X14594771Y-17459492D01*
X14851913Y-17545206D02*
X14880485Y-17559492D01*
X14937628Y-17559492D01*
X14966199Y-17545206D01*
X14980485Y-17516634D01*
X14980485Y-17502349D01*
X14966199Y-17473777D01*
X14937628Y-17459492D01*
X14894771Y-17459492D01*
X14866199Y-17445206D01*
X14851913Y-17416634D01*
X14851913Y-17402349D01*
X14866199Y-17373777D01*
X14894771Y-17359492D01*
X14937628Y-17359492D01*
X14966199Y-17373777D01*
X15080485Y-17673777D02*
X15094771Y-17659492D01*
X15123342Y-17616634D01*
X15137628Y-17588063D01*
X15151913Y-17545206D01*
X15166199Y-17473777D01*
X15166199Y-17416634D01*
X15151913Y-17345206D01*
X15137628Y-17302349D01*
X15123342Y-17273777D01*
X15094771Y-17230920D01*
X15080485Y-17216634D01*
X7606913Y-17754777D02*
X7736913Y-17884777D01*
X7736913Y-17754777D02*
X7606913Y-17884777D01*
X7736913Y-17819777D02*
G75*
G03*
X7736913Y-17819777I-65000J0D01*
G01*
X8180485Y-17955492D02*
X8009056Y-17955492D01*
X8094771Y-17955492D02*
X8094771Y-17655492D01*
X8066199Y-17698349D01*
X8037628Y-17726920D01*
X8009056Y-17741206D01*
X8309056Y-17926920D02*
X8323342Y-17941206D01*
X8309056Y-17955492D01*
X8294771Y-17941206D01*
X8309056Y-17926920D01*
X8309056Y-17955492D01*
X8423342Y-17655492D02*
X8609056Y-17655492D01*
X8509056Y-17769777D01*
X8551914Y-17769777D01*
X8580485Y-17784063D01*
X8594771Y-17798349D01*
X8609056Y-17826920D01*
X8609056Y-17898349D01*
X8594771Y-17926920D01*
X8580485Y-17941206D01*
X8551914Y-17955492D01*
X8466199Y-17955492D01*
X8437628Y-17941206D01*
X8423342Y-17926920D01*
X8794771Y-17655492D02*
X8823342Y-17655492D01*
X8851914Y-17669777D01*
X8866199Y-17684063D01*
X8880485Y-17712634D01*
X8894771Y-17769777D01*
X8894771Y-17841206D01*
X8880485Y-17898349D01*
X8866199Y-17926920D01*
X8851914Y-17941206D01*
X8823342Y-17955492D01*
X8794771Y-17955492D01*
X8766199Y-17941206D01*
X8751914Y-17926920D01*
X8737628Y-17898349D01*
X8723342Y-17841206D01*
X8723342Y-17769777D01*
X8737628Y-17712634D01*
X8751914Y-17684063D01*
X8766199Y-17669777D01*
X8794771Y-17655492D01*
X9080485Y-17655492D02*
X9109056Y-17655492D01*
X9137628Y-17669777D01*
X9151914Y-17684063D01*
X9166199Y-17712634D01*
X9180485Y-17769777D01*
X9180485Y-17841206D01*
X9166199Y-17898349D01*
X9151914Y-17926920D01*
X9137628Y-17941206D01*
X9109056Y-17955492D01*
X9080485Y-17955492D01*
X9051914Y-17941206D01*
X9037628Y-17926920D01*
X9023342Y-17898349D01*
X9009056Y-17841206D01*
X9009056Y-17769777D01*
X9023342Y-17712634D01*
X9037628Y-17684063D01*
X9051914Y-17669777D01*
X9080485Y-17655492D01*
X9309056Y-17955492D02*
X9309056Y-17755492D01*
X9309056Y-17784063D02*
X9323342Y-17769777D01*
X9351914Y-17755492D01*
X9394771Y-17755492D01*
X9423342Y-17769777D01*
X9437628Y-17798349D01*
X9437628Y-17955492D01*
X9437628Y-17798349D02*
X9451914Y-17769777D01*
X9480485Y-17755492D01*
X9523342Y-17755492D01*
X9551914Y-17769777D01*
X9566199Y-17798349D01*
X9566199Y-17955492D01*
X9709056Y-17955492D02*
X9709056Y-17755492D01*
X9709056Y-17784063D02*
X9723342Y-17769777D01*
X9751914Y-17755492D01*
X9794771Y-17755492D01*
X9823342Y-17769777D01*
X9837628Y-17798349D01*
X9837628Y-17955492D01*
X9837628Y-17798349D02*
X9851914Y-17769777D01*
X9880485Y-17755492D01*
X9923342Y-17755492D01*
X9951914Y-17769777D01*
X9966199Y-17798349D01*
X9966199Y-17955492D01*
X10551914Y-17641206D02*
X10294771Y-18026920D01*
X10937628Y-17655492D02*
X10966199Y-17655492D01*
X10994771Y-17669777D01*
X11009056Y-17684063D01*
X11023342Y-17712634D01*
X11037628Y-17769777D01*
X11037628Y-17841206D01*
X11023342Y-17898349D01*
X11009056Y-17926920D01*
X10994771Y-17941206D01*
X10966199Y-17955492D01*
X10937628Y-17955492D01*
X10909056Y-17941206D01*
X10894771Y-17926920D01*
X10880485Y-17898349D01*
X10866199Y-17841206D01*
X10866199Y-17769777D01*
X10880485Y-17712634D01*
X10894771Y-17684063D01*
X10909056Y-17669777D01*
X10937628Y-17655492D01*
X11166199Y-17926920D02*
X11180485Y-17941206D01*
X11166199Y-17955492D01*
X11151914Y-17941206D01*
X11166199Y-17926920D01*
X11166199Y-17955492D01*
X11366199Y-17655492D02*
X11394771Y-17655492D01*
X11423342Y-17669777D01*
X11437628Y-17684063D01*
X11451913Y-17712634D01*
X11466199Y-17769777D01*
X11466199Y-17841206D01*
X11451913Y-17898349D01*
X11437628Y-17926920D01*
X11423342Y-17941206D01*
X11394771Y-17955492D01*
X11366199Y-17955492D01*
X11337628Y-17941206D01*
X11323342Y-17926920D01*
X11309056Y-17898349D01*
X11294771Y-17841206D01*
X11294771Y-17769777D01*
X11309056Y-17712634D01*
X11323342Y-17684063D01*
X11337628Y-17669777D01*
X11366199Y-17655492D01*
X11737628Y-17655492D02*
X11594771Y-17655492D01*
X11580485Y-17798349D01*
X11594771Y-17784063D01*
X11623342Y-17769777D01*
X11694771Y-17769777D01*
X11723342Y-17784063D01*
X11737628Y-17798349D01*
X11751913Y-17826920D01*
X11751913Y-17898349D01*
X11737628Y-17926920D01*
X11723342Y-17941206D01*
X11694771Y-17955492D01*
X11623342Y-17955492D01*
X11594771Y-17941206D01*
X11580485Y-17926920D01*
X12037628Y-17955492D02*
X11866199Y-17955492D01*
X11951913Y-17955492D02*
X11951913Y-17655492D01*
X11923342Y-17698349D01*
X11894771Y-17726920D01*
X11866199Y-17741206D01*
X12151913Y-17684063D02*
X12166199Y-17669777D01*
X12194771Y-17655492D01*
X12266199Y-17655492D01*
X12294771Y-17669777D01*
X12309056Y-17684063D01*
X12323342Y-17712634D01*
X12323342Y-17741206D01*
X12309056Y-17784063D01*
X12137628Y-17955492D01*
X12323342Y-17955492D01*
X12437628Y-17655492D02*
X12437628Y-17712634D01*
X12551913Y-17655492D02*
X12551913Y-17712634D01*
X12994771Y-18069777D02*
X12980485Y-18055492D01*
X12951913Y-18012634D01*
X12937628Y-17984063D01*
X12923342Y-17941206D01*
X12909056Y-17869777D01*
X12909056Y-17812634D01*
X12923342Y-17741206D01*
X12937628Y-17698349D01*
X12951913Y-17669777D01*
X12980485Y-17626920D01*
X12994771Y-17612634D01*
X13094771Y-17684063D02*
X13109056Y-17669777D01*
X13137628Y-17655492D01*
X13209056Y-17655492D01*
X13237628Y-17669777D01*
X13251913Y-17684063D01*
X13266199Y-17712634D01*
X13266199Y-17741206D01*
X13251913Y-17784063D01*
X13080485Y-17955492D01*
X13266199Y-17955492D01*
X13623342Y-17955492D02*
X13623342Y-17655492D01*
X13751913Y-17955492D02*
X13751913Y-17798349D01*
X13737628Y-17769777D01*
X13709056Y-17755492D01*
X13666199Y-17755492D01*
X13637628Y-17769777D01*
X13623342Y-17784063D01*
X13937628Y-17955492D02*
X13909056Y-17941206D01*
X13894771Y-17926920D01*
X13880485Y-17898349D01*
X13880485Y-17812634D01*
X13894771Y-17784063D01*
X13909056Y-17769777D01*
X13937628Y-17755492D01*
X13980485Y-17755492D01*
X14009056Y-17769777D01*
X14023342Y-17784063D01*
X14037628Y-17812634D01*
X14037628Y-17898349D01*
X14023342Y-17926920D01*
X14009056Y-17941206D01*
X13980485Y-17955492D01*
X13937628Y-17955492D01*
X14209056Y-17955492D02*
X14180485Y-17941206D01*
X14166199Y-17912634D01*
X14166199Y-17655492D01*
X14437628Y-17941206D02*
X14409056Y-17955492D01*
X14351913Y-17955492D01*
X14323342Y-17941206D01*
X14309056Y-17912634D01*
X14309056Y-17798349D01*
X14323342Y-17769777D01*
X14351913Y-17755492D01*
X14409056Y-17755492D01*
X14437628Y-17769777D01*
X14451913Y-17798349D01*
X14451913Y-17826920D01*
X14309056Y-17855492D01*
X14566199Y-17941206D02*
X14594771Y-17955492D01*
X14651913Y-17955492D01*
X14680485Y-17941206D01*
X14694771Y-17912634D01*
X14694771Y-17898349D01*
X14680485Y-17869777D01*
X14651913Y-17855492D01*
X14609056Y-17855492D01*
X14580485Y-17841206D01*
X14566199Y-17812634D01*
X14566199Y-17798349D01*
X14580485Y-17769777D01*
X14609056Y-17755492D01*
X14651913Y-17755492D01*
X14680485Y-17769777D01*
X14794771Y-18069777D02*
X14809056Y-18055492D01*
X14837628Y-18012634D01*
X14851913Y-17984063D01*
X14866199Y-17941206D01*
X14880485Y-17869777D01*
X14880485Y-17812634D01*
X14866199Y-17741206D01*
X14851913Y-17698349D01*
X14837628Y-17669777D01*
X14809056Y-17626920D01*
X14794771Y-17612634D01*
X7586913Y-18140777D02*
X7736913Y-18290777D01*
X7736913Y-18140777D02*
X7586913Y-18290777D01*
X7661913Y-18140777D02*
X7661913Y-18290777D01*
X7586913Y-18215777D02*
X7736913Y-18215777D01*
X8180485Y-18351492D02*
X8009056Y-18351492D01*
X8094771Y-18351492D02*
X8094771Y-18051492D01*
X8066199Y-18094349D01*
X8037628Y-18122920D01*
X8009056Y-18137206D01*
X8309056Y-18322920D02*
X8323342Y-18337206D01*
X8309056Y-18351492D01*
X8294771Y-18337206D01*
X8309056Y-18322920D01*
X8309056Y-18351492D01*
X8594771Y-18051492D02*
X8451914Y-18051492D01*
X8437628Y-18194349D01*
X8451914Y-18180063D01*
X8480485Y-18165777D01*
X8551914Y-18165777D01*
X8580485Y-18180063D01*
X8594771Y-18194349D01*
X8609056Y-18222920D01*
X8609056Y-18294349D01*
X8594771Y-18322920D01*
X8580485Y-18337206D01*
X8551914Y-18351492D01*
X8480485Y-18351492D01*
X8451914Y-18337206D01*
X8437628Y-18322920D01*
X8794771Y-18051492D02*
X8823342Y-18051492D01*
X8851914Y-18065777D01*
X8866199Y-18080063D01*
X8880485Y-18108634D01*
X8894771Y-18165777D01*
X8894771Y-18237206D01*
X8880485Y-18294349D01*
X8866199Y-18322920D01*
X8851914Y-18337206D01*
X8823342Y-18351492D01*
X8794771Y-18351492D01*
X8766199Y-18337206D01*
X8751914Y-18322920D01*
X8737628Y-18294349D01*
X8723342Y-18237206D01*
X8723342Y-18165777D01*
X8737628Y-18108634D01*
X8751914Y-18080063D01*
X8766199Y-18065777D01*
X8794771Y-18051492D01*
X9080485Y-18051492D02*
X9109056Y-18051492D01*
X9137628Y-18065777D01*
X9151914Y-18080063D01*
X9166199Y-18108634D01*
X9180485Y-18165777D01*
X9180485Y-18237206D01*
X9166199Y-18294349D01*
X9151914Y-18322920D01*
X9137628Y-18337206D01*
X9109056Y-18351492D01*
X9080485Y-18351492D01*
X9051914Y-18337206D01*
X9037628Y-18322920D01*
X9023342Y-18294349D01*
X9009056Y-18237206D01*
X9009056Y-18165777D01*
X9023342Y-18108634D01*
X9037628Y-18080063D01*
X9051914Y-18065777D01*
X9080485Y-18051492D01*
X9309056Y-18351492D02*
X9309056Y-18151492D01*
X9309056Y-18180063D02*
X9323342Y-18165777D01*
X9351914Y-18151492D01*
X9394771Y-18151492D01*
X9423342Y-18165777D01*
X9437628Y-18194349D01*
X9437628Y-18351492D01*
X9437628Y-18194349D02*
X9451914Y-18165777D01*
X9480485Y-18151492D01*
X9523342Y-18151492D01*
X9551914Y-18165777D01*
X9566199Y-18194349D01*
X9566199Y-18351492D01*
X9709056Y-18351492D02*
X9709056Y-18151492D01*
X9709056Y-18180063D02*
X9723342Y-18165777D01*
X9751914Y-18151492D01*
X9794771Y-18151492D01*
X9823342Y-18165777D01*
X9837628Y-18194349D01*
X9837628Y-18351492D01*
X9837628Y-18194349D02*
X9851914Y-18165777D01*
X9880485Y-18151492D01*
X9923342Y-18151492D01*
X9951914Y-18165777D01*
X9966199Y-18194349D01*
X9966199Y-18351492D01*
X10551914Y-18037206D02*
X10294771Y-18422920D01*
X10937628Y-18051492D02*
X10966199Y-18051492D01*
X10994771Y-18065777D01*
X11009056Y-18080063D01*
X11023342Y-18108634D01*
X11037628Y-18165777D01*
X11037628Y-18237206D01*
X11023342Y-18294349D01*
X11009056Y-18322920D01*
X10994771Y-18337206D01*
X10966199Y-18351492D01*
X10937628Y-18351492D01*
X10909056Y-18337206D01*
X10894771Y-18322920D01*
X10880485Y-18294349D01*
X10866199Y-18237206D01*
X10866199Y-18165777D01*
X10880485Y-18108634D01*
X10894771Y-18080063D01*
X10909056Y-18065777D01*
X10937628Y-18051492D01*
X11166199Y-18322920D02*
X11180485Y-18337206D01*
X11166199Y-18351492D01*
X11151914Y-18337206D01*
X11166199Y-18322920D01*
X11166199Y-18351492D01*
X11366199Y-18051492D02*
X11394771Y-18051492D01*
X11423342Y-18065777D01*
X11437628Y-18080063D01*
X11451913Y-18108634D01*
X11466199Y-18165777D01*
X11466199Y-18237206D01*
X11451913Y-18294349D01*
X11437628Y-18322920D01*
X11423342Y-18337206D01*
X11394771Y-18351492D01*
X11366199Y-18351492D01*
X11337628Y-18337206D01*
X11323342Y-18322920D01*
X11309056Y-18294349D01*
X11294771Y-18237206D01*
X11294771Y-18165777D01*
X11309056Y-18108634D01*
X11323342Y-18080063D01*
X11337628Y-18065777D01*
X11366199Y-18051492D01*
X11737628Y-18051492D02*
X11594771Y-18051492D01*
X11580485Y-18194349D01*
X11594771Y-18180063D01*
X11623342Y-18165777D01*
X11694771Y-18165777D01*
X11723342Y-18180063D01*
X11737628Y-18194349D01*
X11751913Y-18222920D01*
X11751913Y-18294349D01*
X11737628Y-18322920D01*
X11723342Y-18337206D01*
X11694771Y-18351492D01*
X11623342Y-18351492D01*
X11594771Y-18337206D01*
X11580485Y-18322920D01*
X11894771Y-18351492D02*
X11951913Y-18351492D01*
X11980485Y-18337206D01*
X11994771Y-18322920D01*
X12023342Y-18280063D01*
X12037628Y-18222920D01*
X12037628Y-18108634D01*
X12023342Y-18080063D01*
X12009056Y-18065777D01*
X11980485Y-18051492D01*
X11923342Y-18051492D01*
X11894771Y-18065777D01*
X11880485Y-18080063D01*
X11866199Y-18108634D01*
X11866199Y-18180063D01*
X11880485Y-18208634D01*
X11894771Y-18222920D01*
X11923342Y-18237206D01*
X11980485Y-18237206D01*
X12009056Y-18222920D01*
X12023342Y-18208634D01*
X12037628Y-18180063D01*
X12323342Y-18351492D02*
X12151913Y-18351492D01*
X12237628Y-18351492D02*
X12237628Y-18051492D01*
X12209056Y-18094349D01*
X12180485Y-18122920D01*
X12151913Y-18137206D01*
X12437628Y-18051492D02*
X12437628Y-18108634D01*
X12551913Y-18051492D02*
X12551913Y-18108634D01*
X12994771Y-18465777D02*
X12980485Y-18451492D01*
X12951913Y-18408634D01*
X12937628Y-18380063D01*
X12923342Y-18337206D01*
X12909056Y-18265777D01*
X12909056Y-18208634D01*
X12923342Y-18137206D01*
X12937628Y-18094349D01*
X12951913Y-18065777D01*
X12980485Y-18022920D01*
X12994771Y-18008634D01*
X13166199Y-18051492D02*
X13194771Y-18051492D01*
X13223342Y-18065777D01*
X13237628Y-18080063D01*
X13251913Y-18108634D01*
X13266199Y-18165777D01*
X13266199Y-18237206D01*
X13251913Y-18294349D01*
X13237628Y-18322920D01*
X13223342Y-18337206D01*
X13194771Y-18351492D01*
X13166199Y-18351492D01*
X13137628Y-18337206D01*
X13123342Y-18322920D01*
X13109056Y-18294349D01*
X13094771Y-18237206D01*
X13094771Y-18165777D01*
X13109056Y-18108634D01*
X13123342Y-18080063D01*
X13137628Y-18065777D01*
X13166199Y-18051492D01*
X13623342Y-18351492D02*
X13623342Y-18051492D01*
X13751913Y-18351492D02*
X13751913Y-18194349D01*
X13737628Y-18165777D01*
X13709056Y-18151492D01*
X13666199Y-18151492D01*
X13637628Y-18165777D01*
X13623342Y-18180063D01*
X13937628Y-18351492D02*
X13909056Y-18337206D01*
X13894771Y-18322920D01*
X13880485Y-18294349D01*
X13880485Y-18208634D01*
X13894771Y-18180063D01*
X13909056Y-18165777D01*
X13937628Y-18151492D01*
X13980485Y-18151492D01*
X14009056Y-18165777D01*
X14023342Y-18180063D01*
X14037628Y-18208634D01*
X14037628Y-18294349D01*
X14023342Y-18322920D01*
X14009056Y-18337206D01*
X13980485Y-18351492D01*
X13937628Y-18351492D01*
X14209056Y-18351492D02*
X14180485Y-18337206D01*
X14166199Y-18308634D01*
X14166199Y-18051492D01*
X14437628Y-18337206D02*
X14409056Y-18351492D01*
X14351913Y-18351492D01*
X14323342Y-18337206D01*
X14309056Y-18308634D01*
X14309056Y-18194349D01*
X14323342Y-18165777D01*
X14351913Y-18151492D01*
X14409056Y-18151492D01*
X14437628Y-18165777D01*
X14451913Y-18194349D01*
X14451913Y-18222920D01*
X14309056Y-18251492D01*
X14566199Y-18337206D02*
X14594771Y-18351492D01*
X14651913Y-18351492D01*
X14680485Y-18337206D01*
X14694771Y-18308634D01*
X14694771Y-18294349D01*
X14680485Y-18265777D01*
X14651913Y-18251492D01*
X14609056Y-18251492D01*
X14580485Y-18237206D01*
X14566199Y-18208634D01*
X14566199Y-18194349D01*
X14580485Y-18165777D01*
X14609056Y-18151492D01*
X14651913Y-18151492D01*
X14680485Y-18165777D01*
X15051913Y-18237206D02*
X15280485Y-18237206D01*
X15166199Y-18351492D02*
X15166199Y-18122920D01*
X15780485Y-18051492D02*
X15723342Y-18051492D01*
X15694771Y-18065777D01*
X15680485Y-18080063D01*
X15651913Y-18122920D01*
X15637628Y-18180063D01*
X15637628Y-18294349D01*
X15651913Y-18322920D01*
X15666199Y-18337206D01*
X15694771Y-18351492D01*
X15751913Y-18351492D01*
X15780485Y-18337206D01*
X15794771Y-18322920D01*
X15809056Y-18294349D01*
X15809056Y-18222920D01*
X15794771Y-18194349D01*
X15780485Y-18180063D01*
X15751913Y-18165777D01*
X15694771Y-18165777D01*
X15666199Y-18180063D01*
X15651913Y-18194349D01*
X15637628Y-18222920D01*
X16151913Y-18337206D02*
X16180485Y-18351492D01*
X16237628Y-18351492D01*
X16266199Y-18337206D01*
X16280485Y-18308634D01*
X16280485Y-18294349D01*
X16266199Y-18265777D01*
X16237628Y-18251492D01*
X16194771Y-18251492D01*
X16166199Y-18237206D01*
X16151913Y-18208634D01*
X16151913Y-18194349D01*
X16166199Y-18165777D01*
X16194771Y-18151492D01*
X16237628Y-18151492D01*
X16266199Y-18165777D01*
X16451913Y-18351492D02*
X16423342Y-18337206D01*
X16409056Y-18308634D01*
X16409056Y-18051492D01*
X16609056Y-18351492D02*
X16580485Y-18337206D01*
X16566199Y-18322920D01*
X16551913Y-18294349D01*
X16551913Y-18208634D01*
X16566199Y-18180063D01*
X16580485Y-18165777D01*
X16609056Y-18151492D01*
X16651913Y-18151492D01*
X16680485Y-18165777D01*
X16694771Y-18180063D01*
X16709056Y-18208634D01*
X16709056Y-18294349D01*
X16694771Y-18322920D01*
X16680485Y-18337206D01*
X16651913Y-18351492D01*
X16609056Y-18351492D01*
X16794771Y-18151492D02*
X16909056Y-18151492D01*
X16837628Y-18051492D02*
X16837628Y-18308634D01*
X16851914Y-18337206D01*
X16880485Y-18351492D01*
X16909056Y-18351492D01*
X16994771Y-18337206D02*
X17023342Y-18351492D01*
X17080485Y-18351492D01*
X17109056Y-18337206D01*
X17123342Y-18308634D01*
X17123342Y-18294349D01*
X17109056Y-18265777D01*
X17080485Y-18251492D01*
X17037628Y-18251492D01*
X17009056Y-18237206D01*
X16994771Y-18208634D01*
X16994771Y-18194349D01*
X17009056Y-18165777D01*
X17037628Y-18151492D01*
X17080485Y-18151492D01*
X17109056Y-18165777D01*
X17223342Y-18465777D02*
X17237628Y-18451492D01*
X17266199Y-18408634D01*
X17280485Y-18380063D01*
X17294771Y-18337206D01*
X17309056Y-18265777D01*
X17309056Y-18208634D01*
X17294771Y-18137206D01*
X17280485Y-18094349D01*
X17266199Y-18065777D01*
X17237628Y-18022920D01*
X17223342Y-18008634D01*
X7516913Y-18501777D02*
X7736913Y-18721777D01*
X7736913Y-18501777D02*
X7516913Y-18721777D01*
X7704696Y-18689560D02*
X7704696Y-18533995D01*
X7549131Y-18533995D01*
X7549131Y-18689560D01*
X7704696Y-18689560D01*
X8009056Y-18476063D02*
X8023342Y-18461777D01*
X8051913Y-18447492D01*
X8123342Y-18447492D01*
X8151913Y-18461777D01*
X8166199Y-18476063D01*
X8180485Y-18504634D01*
X8180485Y-18533206D01*
X8166199Y-18576063D01*
X7994771Y-18747492D01*
X8180485Y-18747492D01*
X8309056Y-18718920D02*
X8323342Y-18733206D01*
X8309056Y-18747492D01*
X8294771Y-18733206D01*
X8309056Y-18718920D01*
X8309056Y-18747492D01*
X8437628Y-18476063D02*
X8451914Y-18461777D01*
X8480485Y-18447492D01*
X8551914Y-18447492D01*
X8580485Y-18461777D01*
X8594771Y-18476063D01*
X8609056Y-18504634D01*
X8609056Y-18533206D01*
X8594771Y-18576063D01*
X8423342Y-18747492D01*
X8609056Y-18747492D01*
X8794771Y-18447492D02*
X8823342Y-18447492D01*
X8851914Y-18461777D01*
X8866199Y-18476063D01*
X8880485Y-18504634D01*
X8894771Y-18561777D01*
X8894771Y-18633206D01*
X8880485Y-18690349D01*
X8866199Y-18718920D01*
X8851914Y-18733206D01*
X8823342Y-18747492D01*
X8794771Y-18747492D01*
X8766199Y-18733206D01*
X8751914Y-18718920D01*
X8737628Y-18690349D01*
X8723342Y-18633206D01*
X8723342Y-18561777D01*
X8737628Y-18504634D01*
X8751914Y-18476063D01*
X8766199Y-18461777D01*
X8794771Y-18447492D01*
X9080485Y-18447492D02*
X9109056Y-18447492D01*
X9137628Y-18461777D01*
X9151914Y-18476063D01*
X9166199Y-18504634D01*
X9180485Y-18561777D01*
X9180485Y-18633206D01*
X9166199Y-18690349D01*
X9151914Y-18718920D01*
X9137628Y-18733206D01*
X9109056Y-18747492D01*
X9080485Y-18747492D01*
X9051914Y-18733206D01*
X9037628Y-18718920D01*
X9023342Y-18690349D01*
X9009056Y-18633206D01*
X9009056Y-18561777D01*
X9023342Y-18504634D01*
X9037628Y-18476063D01*
X9051914Y-18461777D01*
X9080485Y-18447492D01*
X9309056Y-18747492D02*
X9309056Y-18547492D01*
X9309056Y-18576063D02*
X9323342Y-18561777D01*
X9351914Y-18547492D01*
X9394771Y-18547492D01*
X9423342Y-18561777D01*
X9437628Y-18590349D01*
X9437628Y-18747492D01*
X9437628Y-18590349D02*
X9451914Y-18561777D01*
X9480485Y-18547492D01*
X9523342Y-18547492D01*
X9551914Y-18561777D01*
X9566199Y-18590349D01*
X9566199Y-18747492D01*
X9709056Y-18747492D02*
X9709056Y-18547492D01*
X9709056Y-18576063D02*
X9723342Y-18561777D01*
X9751914Y-18547492D01*
X9794771Y-18547492D01*
X9823342Y-18561777D01*
X9837628Y-18590349D01*
X9837628Y-18747492D01*
X9837628Y-18590349D02*
X9851914Y-18561777D01*
X9880485Y-18547492D01*
X9923342Y-18547492D01*
X9951914Y-18561777D01*
X9966199Y-18590349D01*
X9966199Y-18747492D01*
X10551914Y-18433206D02*
X10294771Y-18818920D01*
X10937628Y-18447492D02*
X10966199Y-18447492D01*
X10994771Y-18461777D01*
X11009056Y-18476063D01*
X11023342Y-18504634D01*
X11037628Y-18561777D01*
X11037628Y-18633206D01*
X11023342Y-18690349D01*
X11009056Y-18718920D01*
X10994771Y-18733206D01*
X10966199Y-18747492D01*
X10937628Y-18747492D01*
X10909056Y-18733206D01*
X10894771Y-18718920D01*
X10880485Y-18690349D01*
X10866199Y-18633206D01*
X10866199Y-18561777D01*
X10880485Y-18504634D01*
X10894771Y-18476063D01*
X10909056Y-18461777D01*
X10937628Y-18447492D01*
X11166199Y-18718920D02*
X11180485Y-18733206D01*
X11166199Y-18747492D01*
X11151914Y-18733206D01*
X11166199Y-18718920D01*
X11166199Y-18747492D01*
X11366199Y-18447492D02*
X11394771Y-18447492D01*
X11423342Y-18461777D01*
X11437628Y-18476063D01*
X11451913Y-18504634D01*
X11466199Y-18561777D01*
X11466199Y-18633206D01*
X11451913Y-18690349D01*
X11437628Y-18718920D01*
X11423342Y-18733206D01*
X11394771Y-18747492D01*
X11366199Y-18747492D01*
X11337628Y-18733206D01*
X11323342Y-18718920D01*
X11309056Y-18690349D01*
X11294771Y-18633206D01*
X11294771Y-18561777D01*
X11309056Y-18504634D01*
X11323342Y-18476063D01*
X11337628Y-18461777D01*
X11366199Y-18447492D01*
X11637628Y-18576063D02*
X11609056Y-18561777D01*
X11594771Y-18547492D01*
X11580485Y-18518920D01*
X11580485Y-18504634D01*
X11594771Y-18476063D01*
X11609056Y-18461777D01*
X11637628Y-18447492D01*
X11694771Y-18447492D01*
X11723342Y-18461777D01*
X11737628Y-18476063D01*
X11751913Y-18504634D01*
X11751913Y-18518920D01*
X11737628Y-18547492D01*
X11723342Y-18561777D01*
X11694771Y-18576063D01*
X11637628Y-18576063D01*
X11609056Y-18590349D01*
X11594771Y-18604634D01*
X11580485Y-18633206D01*
X11580485Y-18690349D01*
X11594771Y-18718920D01*
X11609056Y-18733206D01*
X11637628Y-18747492D01*
X11694771Y-18747492D01*
X11723342Y-18733206D01*
X11737628Y-18718920D01*
X11751913Y-18690349D01*
X11751913Y-18633206D01*
X11737628Y-18604634D01*
X11723342Y-18590349D01*
X11694771Y-18576063D01*
X12009056Y-18447492D02*
X11951913Y-18447492D01*
X11923342Y-18461777D01*
X11909056Y-18476063D01*
X11880485Y-18518920D01*
X11866199Y-18576063D01*
X11866199Y-18690349D01*
X11880485Y-18718920D01*
X11894771Y-18733206D01*
X11923342Y-18747492D01*
X11980485Y-18747492D01*
X12009056Y-18733206D01*
X12023342Y-18718920D01*
X12037628Y-18690349D01*
X12037628Y-18618920D01*
X12023342Y-18590349D01*
X12009056Y-18576063D01*
X11980485Y-18561777D01*
X11923342Y-18561777D01*
X11894771Y-18576063D01*
X11880485Y-18590349D01*
X11866199Y-18618920D01*
X12294771Y-18447492D02*
X12237628Y-18447492D01*
X12209056Y-18461777D01*
X12194771Y-18476063D01*
X12166199Y-18518920D01*
X12151913Y-18576063D01*
X12151913Y-18690349D01*
X12166199Y-18718920D01*
X12180485Y-18733206D01*
X12209056Y-18747492D01*
X12266199Y-18747492D01*
X12294771Y-18733206D01*
X12309056Y-18718920D01*
X12323342Y-18690349D01*
X12323342Y-18618920D01*
X12309056Y-18590349D01*
X12294771Y-18576063D01*
X12266199Y-18561777D01*
X12209056Y-18561777D01*
X12180485Y-18576063D01*
X12166199Y-18590349D01*
X12151913Y-18618920D01*
X12437628Y-18447492D02*
X12437628Y-18504634D01*
X12551913Y-18447492D02*
X12551913Y-18504634D01*
X12994771Y-18861777D02*
X12980485Y-18847492D01*
X12951913Y-18804634D01*
X12937628Y-18776063D01*
X12923342Y-18733206D01*
X12909056Y-18661777D01*
X12909056Y-18604634D01*
X12923342Y-18533206D01*
X12937628Y-18490349D01*
X12951913Y-18461777D01*
X12980485Y-18418920D01*
X12994771Y-18404634D01*
X13080485Y-18447492D02*
X13266199Y-18447492D01*
X13166199Y-18561777D01*
X13209056Y-18561777D01*
X13237628Y-18576063D01*
X13251913Y-18590349D01*
X13266199Y-18618920D01*
X13266199Y-18690349D01*
X13251913Y-18718920D01*
X13237628Y-18733206D01*
X13209056Y-18747492D01*
X13123342Y-18747492D01*
X13094771Y-18733206D01*
X13080485Y-18718920D01*
X13623342Y-18747492D02*
X13623342Y-18447492D01*
X13751913Y-18747492D02*
X13751913Y-18590349D01*
X13737628Y-18561777D01*
X13709056Y-18547492D01*
X13666199Y-18547492D01*
X13637628Y-18561777D01*
X13623342Y-18576063D01*
X13937628Y-18747492D02*
X13909056Y-18733206D01*
X13894771Y-18718920D01*
X13880485Y-18690349D01*
X13880485Y-18604634D01*
X13894771Y-18576063D01*
X13909056Y-18561777D01*
X13937628Y-18547492D01*
X13980485Y-18547492D01*
X14009056Y-18561777D01*
X14023342Y-18576063D01*
X14037628Y-18604634D01*
X14037628Y-18690349D01*
X14023342Y-18718920D01*
X14009056Y-18733206D01*
X13980485Y-18747492D01*
X13937628Y-18747492D01*
X14209056Y-18747492D02*
X14180485Y-18733206D01*
X14166199Y-18704634D01*
X14166199Y-18447492D01*
X14437628Y-18733206D02*
X14409056Y-18747492D01*
X14351913Y-18747492D01*
X14323342Y-18733206D01*
X14309056Y-18704634D01*
X14309056Y-18590349D01*
X14323342Y-18561777D01*
X14351913Y-18547492D01*
X14409056Y-18547492D01*
X14437628Y-18561777D01*
X14451913Y-18590349D01*
X14451913Y-18618920D01*
X14309056Y-18647492D01*
X14566199Y-18733206D02*
X14594771Y-18747492D01*
X14651913Y-18747492D01*
X14680485Y-18733206D01*
X14694771Y-18704634D01*
X14694771Y-18690349D01*
X14680485Y-18661777D01*
X14651913Y-18647492D01*
X14609056Y-18647492D01*
X14580485Y-18633206D01*
X14566199Y-18604634D01*
X14566199Y-18590349D01*
X14580485Y-18561777D01*
X14609056Y-18547492D01*
X14651913Y-18547492D01*
X14680485Y-18561777D01*
X14794771Y-18861777D02*
X14809056Y-18847492D01*
X14837628Y-18804634D01*
X14851913Y-18776063D01*
X14866199Y-18733206D01*
X14880485Y-18661777D01*
X14880485Y-18604634D01*
X14866199Y-18533206D01*
X14851913Y-18490349D01*
X14837628Y-18461777D01*
X14809056Y-18418920D01*
X14794771Y-18404634D01*
M02*
