G04 #@! TF.GenerationSoftware,KiCad,Pcbnew,(5.1.12-1-10_14)*
G04 #@! TF.CreationDate,2021-11-28T14:18:10+00:00*
G04 #@! TF.ProjectId,avalanche-hotswap,6176616c-616e-4636-9865-2d686f747377,rev?*
G04 #@! TF.SameCoordinates,Original*
G04 #@! TF.FileFunction,Profile,NP*
%FSLAX46Y46*%
G04 Gerber Fmt 4.6, Leading zero omitted, Abs format (unit mm)*
G04 Created by KiCad (PCBNEW (5.1.12-1-10_14)) date 2021-11-28 14:18:10*
%MOMM*%
%LPD*%
G01*
G04 APERTURE LIST*
G04 #@! TA.AperFunction,Profile*
%ADD10C,0.050000*%
G04 #@! TD*
G04 #@! TA.AperFunction,Profile*
%ADD11C,0.120000*%
G04 #@! TD*
G04 APERTURE END LIST*
D10*
X99840954Y-110899475D02*
X99771032Y-109607727D01*
X99771032Y-109607727D02*
G75*
G02*
X100239027Y-109087970I493876J25881D01*
G01*
X100239027Y-109087970D02*
X123197490Y-107882343D01*
X99840954Y-110899475D02*
X100747699Y-128007208D01*
X100312799Y-129209870D02*
X82878890Y-130123547D01*
X100785943Y-128684389D02*
X100747699Y-128007208D01*
X82878886Y-130123542D02*
G75*
G02*
X82353407Y-129650395I-26166J499313D01*
G01*
X100785946Y-128684385D02*
G75*
G02*
X100312799Y-129209870I-499316J-26169D01*
G01*
X239952523Y-119875655D02*
G75*
G02*
X240007999Y-120580589I-324729J-380205D01*
G01*
X216076938Y-148597493D02*
G75*
G02*
X215372009Y-148652976I-380206J324723D01*
G01*
X128717675Y-127404651D02*
G75*
G02*
X128124655Y-127019535I-103952J489068D01*
G01*
X118700489Y-51128994D02*
X118540792Y-51146149D01*
X118124959Y-50558994D02*
X118000088Y-50573663D01*
X77394821Y-34721760D02*
G75*
G02*
X77867963Y-34196274I499314J26172D01*
G01*
X78833831Y-52626279D02*
G75*
G02*
X78308360Y-52153134I-26163J499308D01*
G01*
X89162853Y-52685618D02*
G75*
G02*
X89131421Y-52086449I-15745J299583D01*
G01*
X97368406Y-51654924D02*
X89131421Y-52086449D01*
X97269981Y-52260906D02*
X89162824Y-52685612D01*
X86311858Y-52234377D02*
G75*
G02*
X86343254Y-52833547I15727J-299583D01*
G01*
X78853532Y-53226074D02*
X86343254Y-52833547D01*
X78833839Y-52626278D02*
X86311856Y-52234372D01*
X78380381Y-53751561D02*
G75*
G02*
X78853532Y-53226074I499319J26168D01*
G01*
X108156873Y-51089526D02*
X118000088Y-50573663D01*
X108188270Y-51688700D02*
X118540792Y-51146149D01*
X108188275Y-51688700D02*
G75*
G02*
X108156873Y-51089526I-15701J299587D01*
G01*
X105335748Y-51237381D02*
G75*
G02*
X105367144Y-51836547I15727J-299581D01*
G01*
X97269981Y-52260906D02*
X105367144Y-51836547D01*
X97368406Y-51654924D02*
X105335749Y-51237373D01*
X119200493Y-50628992D02*
G75*
G02*
X118700489Y-51128994I-500003J1D01*
G01*
X118624959Y-50058988D02*
G75*
G02*
X118124959Y-50558994I-500003J-3D01*
G01*
X118694963Y-32062245D02*
X118270910Y-32076276D01*
X119194958Y-31562248D02*
G75*
G02*
X118694963Y-32062245I-499996J-1D01*
G01*
X194674955Y-30522241D02*
G75*
G02*
X195174962Y-31022240I4J-500003D01*
G01*
X176624957Y-30522240D02*
G75*
G02*
X176124961Y-30022244I0J499996D01*
G01*
X175624961Y-28522250D02*
G75*
G02*
X176124957Y-29022248I-1J-499997D01*
G01*
X157574964Y-28522245D02*
G75*
G02*
X157074966Y-28022247I0J499998D01*
G01*
X156574958Y-26022241D02*
G75*
G02*
X157074963Y-26522244I1J-500004D01*
G01*
X138244964Y-26522247D02*
G75*
G02*
X138744962Y-26022249I499998J0D01*
G01*
X138244956Y-28022239D02*
G75*
G02*
X137744966Y-28522245I-499998J-8D01*
G01*
X119194961Y-29022251D02*
G75*
G02*
X119694961Y-28522245I500003J3D01*
G01*
X176624961Y-49572236D02*
G75*
G02*
X176124970Y-49072245I0J499991D01*
G01*
X137574956Y-46972249D02*
G75*
G03*
X137674960Y-46872249I3J100001D01*
G01*
X138254956Y-47072244D02*
G75*
G02*
X137754963Y-47572237I-499993J0D01*
G01*
X157574963Y-47572242D02*
G75*
G02*
X157074962Y-47072247I-3J499998D01*
G01*
X195174960Y-48472263D02*
G75*
G02*
X194674964Y-48972261I-499997J-1D01*
G01*
X194674964Y-48972261D02*
X187174952Y-48972271D01*
X187174958Y-49572247D02*
G75*
G02*
X187174952Y-48972271I16J299988D01*
G01*
X187174961Y-49572246D02*
X195174959Y-49572245D01*
X184349960Y-48972258D02*
X176824960Y-48972266D01*
X176724964Y-48872260D02*
G75*
G03*
X176824960Y-48972266I100000J-6D01*
G01*
X184349958Y-49572260D02*
X176624958Y-49572241D01*
X184349954Y-49572270D02*
G75*
G03*
X184349960Y-48972258I3J300006D01*
G01*
X176124970Y-49072245D02*
X176124961Y-48072248D01*
X176074962Y-46972263D02*
X168124956Y-46972269D01*
X168124963Y-47572244D02*
X175624962Y-47572246D01*
X176074961Y-46972249D02*
G75*
G02*
X176724963Y-47622241I5J-649997D01*
G01*
X168124950Y-47572243D02*
G75*
G02*
X168124956Y-46972269I22J299987D01*
G01*
X176724959Y-48872262D02*
X176724963Y-47622241D01*
X175624963Y-47572254D02*
G75*
G02*
X176124961Y-48072248I2J-499996D01*
G01*
X157674962Y-46872244D02*
G75*
G03*
X157774957Y-46972245I99997J-4D01*
G01*
X165299960Y-46972245D02*
X157774957Y-46972245D01*
X165299965Y-47572243D02*
X157574964Y-47572247D01*
X165299972Y-47572243D02*
G75*
G03*
X165299960Y-46972245I-6J299999D01*
G01*
X157074962Y-47072247D02*
X157074962Y-45572247D01*
X157674959Y-46872249D02*
X157674960Y-45122240D01*
X119199957Y-48072241D02*
G75*
G02*
X119699964Y-47572242I500003J-4D01*
G01*
X119274962Y-46972243D02*
X127199964Y-46972245D01*
X119699964Y-47572242D02*
X127199960Y-47572249D01*
X118624963Y-47622233D02*
G75*
G02*
X119274962Y-46972243I649999J-9D01*
G01*
X127199966Y-46972245D02*
G75*
G02*
X127199960Y-47572249I26J-300002D01*
G01*
X130024957Y-47572241D02*
G75*
G02*
X130024967Y-46972249I5J299996D01*
G01*
X156574963Y-45072242D02*
G75*
G02*
X157074962Y-45572247I-3J-500002D01*
G01*
X138249962Y-45572239D02*
G75*
G02*
X138749967Y-45072242I500001J-4D01*
G01*
X225524510Y-53917068D02*
G75*
G02*
X226056459Y-54763367I-463391J-881599D01*
G01*
X226115470Y-108057333D02*
X226056476Y-107896440D01*
X226115470Y-108057333D02*
X239952519Y-119875658D01*
X216951844Y-49572238D02*
X217020745Y-49582948D01*
X217020745Y-49582948D02*
X225524514Y-53917075D01*
X123197489Y-107882345D02*
G75*
G02*
X124223222Y-108665097I46784J-1002140D01*
G01*
X146739415Y-123572837D02*
X128717683Y-127404655D01*
X124223222Y-108665097D02*
X128124655Y-127019535D01*
X114419233Y-32280770D02*
X118270910Y-32076276D01*
X240007999Y-120580589D02*
X216076938Y-148597494D01*
X226056459Y-54763367D02*
X226056476Y-107896440D01*
X216951844Y-49572238D02*
X195174959Y-49572245D01*
X165797556Y-123568769D02*
X184359870Y-128029549D01*
X165797556Y-123568769D02*
X146739415Y-123572837D01*
X184359870Y-128029549D02*
X201369238Y-136686978D01*
X201369238Y-136686978D02*
X215372009Y-148652976D01*
X146249962Y-44472241D02*
G75*
G02*
X146249960Y-45072247I28J-300003D01*
G01*
X149074961Y-45072247D02*
G75*
G02*
X149074951Y-44472269I14J299989D01*
G01*
X157024962Y-44472258D02*
G75*
G02*
X157674960Y-45122240I8J-649990D01*
G01*
X137674962Y-45122238D02*
G75*
G02*
X138324961Y-44472246I650000J-8D01*
G01*
X78380377Y-53751548D02*
X82353407Y-129650395D01*
X138244962Y-26522246D02*
X138244966Y-28022246D01*
X156574961Y-26022246D02*
X138744962Y-26022249D01*
X157074966Y-28022247D02*
X157074961Y-26522242D01*
X175624960Y-28522241D02*
X157574957Y-28522246D01*
X176124961Y-30022244D02*
X176124957Y-29022248D01*
X194674958Y-30522242D02*
X176624960Y-30522245D01*
X195174957Y-48472264D02*
X195174962Y-31022240D01*
X149074962Y-45072248D02*
X156574963Y-45072243D01*
X157024957Y-44472260D02*
X149074951Y-44472269D01*
X119694961Y-28522245D02*
X137744966Y-28522245D01*
X119194963Y-31562243D02*
X119194963Y-29022244D01*
X77867963Y-34196274D02*
X114419233Y-32280770D01*
X78308360Y-52153134D02*
X77394817Y-34721757D01*
X138749967Y-45072242D02*
X146249960Y-45072247D01*
X138254966Y-47072242D02*
X138249959Y-45572247D01*
X130024961Y-47572242D02*
X137754963Y-47572237D01*
X138324961Y-44472246D02*
X146249965Y-44472235D01*
X137674960Y-46872249D02*
X137674963Y-45122238D01*
X130024967Y-46972249D02*
X137574954Y-46972248D01*
X119199964Y-48072246D02*
X119200483Y-50628995D01*
X118624962Y-47622240D02*
X118624964Y-50058996D01*
D11*
X149461038Y-95686262D02*
X145861038Y-95686262D01*
X149461038Y-98786262D02*
X149461038Y-95686262D01*
X145861038Y-98786262D02*
X149461038Y-98786262D01*
X145861038Y-95686262D02*
X145861038Y-98786262D01*
X106634882Y-83418237D02*
X106797124Y-86513989D01*
X106797124Y-86513989D02*
X110392190Y-86325579D01*
X110392190Y-86325579D02*
X110229948Y-83229827D01*
X110229948Y-83229827D02*
X106634882Y-83418237D01*
X205957032Y-110619467D02*
X202749409Y-108985101D01*
X204549661Y-113381587D02*
X205957032Y-110619467D01*
X201342038Y-111747221D02*
X204549661Y-113381587D01*
X202749409Y-108985101D02*
X201342038Y-111747221D01*
X135925137Y-109862293D02*
X132403805Y-110610775D01*
X136569663Y-112894551D02*
X135925137Y-109862293D01*
X133048331Y-113643033D02*
X136569663Y-112894551D01*
X132403805Y-110610775D02*
X133048331Y-113643033D01*
X187561082Y-62136269D02*
X183961082Y-62136269D01*
X187561082Y-65236269D02*
X187561082Y-62136269D01*
X183961082Y-65236269D02*
X187561082Y-65236269D01*
X183961082Y-62136269D02*
X183961082Y-65236269D01*
X88607999Y-103439119D02*
X88770241Y-106534871D01*
X88770241Y-106534871D02*
X92365307Y-106346461D01*
X92365307Y-106346461D02*
X92203065Y-103250709D01*
X92203065Y-103250709D02*
X88607999Y-103439119D01*
X87610985Y-84415232D02*
X87773227Y-87510984D01*
X87773227Y-87510984D02*
X91368293Y-87322574D01*
X91368293Y-87322574D02*
X91206051Y-84226822D01*
X91206051Y-84226822D02*
X87610985Y-84415232D01*
X86613964Y-65391331D02*
X86776206Y-68487083D01*
X86776206Y-68487083D02*
X90371272Y-68298673D01*
X90371272Y-68298673D02*
X90209030Y-65202921D01*
X90209030Y-65202921D02*
X86613964Y-65391331D01*
X85617011Y-46367446D02*
X85779253Y-49463198D01*
X85779253Y-49463198D02*
X89374319Y-49274788D01*
X89374319Y-49274788D02*
X89212077Y-46179036D01*
X89212077Y-46179036D02*
X85617011Y-46367446D01*
X104640879Y-45370446D02*
X104803121Y-48466198D01*
X104803121Y-48466198D02*
X108398187Y-48277788D01*
X108398187Y-48277788D02*
X108235945Y-45182036D01*
X108235945Y-45182036D02*
X104640879Y-45370446D01*
X105637881Y-64394316D02*
X105800123Y-67490068D01*
X105800123Y-67490068D02*
X109395189Y-67301658D01*
X109395189Y-67301658D02*
X109232947Y-64205906D01*
X109232947Y-64205906D02*
X105637881Y-64394316D01*
X107631900Y-102442143D02*
X107794142Y-105537895D01*
X107794142Y-105537895D02*
X111389208Y-105349485D01*
X111389208Y-105349485D02*
X111226966Y-102253733D01*
X111226966Y-102253733D02*
X107631900Y-102442143D01*
X130411054Y-98236308D02*
X126811054Y-98236308D01*
X130411054Y-101336308D02*
X130411054Y-98236308D01*
X126811054Y-101336308D02*
X130411054Y-101336308D01*
X126811054Y-98236308D02*
X126811054Y-101336308D01*
X130411043Y-79186295D02*
X126811043Y-79186295D01*
X130411043Y-82286295D02*
X130411043Y-79186295D01*
X126811043Y-82286295D02*
X130411043Y-82286295D01*
X126811043Y-79186295D02*
X126811043Y-82286295D01*
X130411052Y-60136263D02*
X126811052Y-60136263D01*
X130411052Y-63236263D02*
X130411052Y-60136263D01*
X126811052Y-63236263D02*
X130411052Y-63236263D01*
X126811052Y-60136263D02*
X126811052Y-63236263D01*
X130411061Y-41086299D02*
X126811061Y-41086299D01*
X130411061Y-44186299D02*
X130411061Y-41086299D01*
X126811061Y-44186299D02*
X130411061Y-44186299D01*
X126811061Y-41086299D02*
X126811061Y-44186299D01*
X149461066Y-38586298D02*
X145861066Y-38586298D01*
X149461066Y-41686298D02*
X149461066Y-38586298D01*
X145861066Y-41686298D02*
X149461066Y-41686298D01*
X145861066Y-38586298D02*
X145861066Y-41686298D01*
X149461027Y-57636293D02*
X145861027Y-57636293D01*
X149461027Y-60736293D02*
X149461027Y-57636293D01*
X145861027Y-60736293D02*
X149461027Y-60736293D01*
X145861027Y-57636293D02*
X145861027Y-60736293D01*
X149461055Y-76686290D02*
X145861055Y-76686290D01*
X149461055Y-79786290D02*
X149461055Y-76686290D01*
X145861055Y-79786290D02*
X149461055Y-79786290D01*
X145861055Y-76686290D02*
X145861055Y-79786290D01*
X158081421Y-107920563D02*
X154481421Y-107920563D01*
X158081421Y-111020563D02*
X158081421Y-107920563D01*
X154481421Y-111020563D02*
X158081421Y-111020563D01*
X154481421Y-107920563D02*
X154481421Y-111020563D01*
X180522284Y-111009918D02*
X177021752Y-110169515D01*
X179798604Y-114024265D02*
X180522284Y-111009918D01*
X176298072Y-113183862D02*
X179798604Y-114024265D01*
X177021752Y-110169515D02*
X176298072Y-113183862D01*
X168511087Y-98236269D02*
X164911087Y-98236269D01*
X168511087Y-101336269D02*
X168511087Y-98236269D01*
X164911087Y-101336269D02*
X168511087Y-101336269D01*
X164911087Y-98236269D02*
X164911087Y-101336269D01*
X168511068Y-79186272D02*
X164911068Y-79186272D01*
X168511068Y-82286272D02*
X168511068Y-79186272D01*
X164911068Y-82286272D02*
X168511068Y-82286272D01*
X164911068Y-79186272D02*
X164911068Y-82286272D01*
X168511050Y-60136293D02*
X164911050Y-60136293D01*
X168511050Y-63236293D02*
X168511050Y-60136293D01*
X164911050Y-63236293D02*
X168511050Y-63236293D01*
X164911050Y-60136293D02*
X164911050Y-63236293D01*
X168511054Y-41086280D02*
X164911054Y-41086280D01*
X168511054Y-44186280D02*
X168511054Y-41086280D01*
X164911054Y-44186280D02*
X168511054Y-44186280D01*
X164911054Y-41086280D02*
X164911054Y-44186280D01*
X187561067Y-43086291D02*
X183961067Y-43086291D01*
X187561067Y-46186291D02*
X187561067Y-43086291D01*
X183961067Y-46186291D02*
X187561067Y-46186291D01*
X183961067Y-43086291D02*
X183961067Y-46186291D01*
X187561066Y-81186271D02*
X183961066Y-81186271D01*
X187561066Y-84286271D02*
X187561066Y-81186271D01*
X183961066Y-84286271D02*
X187561066Y-84286271D01*
X183961066Y-81186271D02*
X183961066Y-84286271D01*
X226409200Y-124813816D02*
X223671739Y-122475803D01*
X224395911Y-127171075D02*
X226409200Y-124813816D01*
X221658450Y-124833062D02*
X224395911Y-127171075D01*
X223671739Y-122475803D02*
X221658450Y-124833062D01*
X201640200Y-119247756D02*
X198432577Y-117613390D01*
X200232829Y-122009876D02*
X201640200Y-119247756D01*
X197025206Y-120375510D02*
X200232829Y-122009876D01*
X198432577Y-117613390D02*
X197025206Y-120375510D01*
X220183235Y-132163029D02*
X217445774Y-129825016D01*
X218169946Y-134520288D02*
X220183235Y-132163029D01*
X215432485Y-132182275D02*
X218169946Y-134520288D01*
X217445774Y-129825016D02*
X215432485Y-132182275D01*
X187561072Y-100186290D02*
X183961072Y-100186290D01*
X187561072Y-103286290D02*
X187561072Y-100186290D01*
X183961072Y-103286290D02*
X187561072Y-103286290D01*
X183961072Y-100186290D02*
X183961072Y-103286290D01*
M02*
