G04 #@! TF.GenerationSoftware,KiCad,Pcbnew,(5.1.12-1-10_14)*
G04 #@! TF.CreationDate,2021-11-28T14:18:10+00:00*
G04 #@! TF.ProjectId,avalanche-hotswap,6176616c-616e-4636-9865-2d686f747377,rev?*
G04 #@! TF.SameCoordinates,Original*
G04 #@! TF.FileFunction,Copper,L2,Bot*
G04 #@! TF.FilePolarity,Positive*
%FSLAX46Y46*%
G04 Gerber Fmt 4.6, Leading zero omitted, Abs format (unit mm)*
G04 Created by KiCad (PCBNEW (5.1.12-1-10_14)) date 2021-11-28 14:18:10*
%MOMM*%
%LPD*%
G01*
G04 APERTURE LIST*
G04 #@! TA.AperFunction,SMDPad,CuDef*
%ADD10C,0.100000*%
G04 #@! TD*
G04 #@! TA.AperFunction,ComponentPad*
%ADD11C,1.397000*%
G04 #@! TD*
G04 #@! TA.AperFunction,ComponentPad*
%ADD12C,0.100000*%
G04 #@! TD*
G04 #@! TA.AperFunction,SMDPad,CuDef*
%ADD13R,2.300000X2.000000*%
G04 #@! TD*
G04 #@! TA.AperFunction,SMDPad,CuDef*
%ADD14R,1.143000X0.635000*%
G04 #@! TD*
G04 #@! TA.AperFunction,SMDPad,CuDef*
%ADD15R,1.700000X1.000000*%
G04 #@! TD*
G04 #@! TA.AperFunction,ComponentPad*
%ADD16C,4.000000*%
G04 #@! TD*
G04 #@! TA.AperFunction,ComponentPad*
%ADD17C,1.524000*%
G04 #@! TD*
G04 #@! TA.AperFunction,SMDPad,CuDef*
%ADD18R,0.800000X1.200000*%
G04 #@! TD*
G04 #@! TA.AperFunction,SMDPad,CuDef*
%ADD19R,1.500000X0.800000*%
G04 #@! TD*
G04 #@! TA.AperFunction,SMDPad,CuDef*
%ADD20R,1.200000X0.800000*%
G04 #@! TD*
G04 #@! TA.AperFunction,SMDPad,CuDef*
%ADD21R,0.800000X1.500000*%
G04 #@! TD*
G04 #@! TA.AperFunction,ComponentPad*
%ADD22C,2.000000*%
G04 #@! TD*
G04 #@! TA.AperFunction,ComponentPad*
%ADD23R,1.397000X1.397000*%
G04 #@! TD*
G04 #@! TA.AperFunction,SMDPad,CuDef*
%ADD24R,0.950000X1.300000*%
G04 #@! TD*
G04 #@! TA.AperFunction,SMDPad,CuDef*
%ADD25R,1.300000X0.950000*%
G04 #@! TD*
G04 #@! TA.AperFunction,SMDPad,CuDef*
%ADD26R,0.635000X1.143000*%
G04 #@! TD*
G04 #@! TA.AperFunction,ComponentPad*
%ADD27C,0.800000*%
G04 #@! TD*
G04 #@! TA.AperFunction,ComponentPad*
%ADD28R,2.100000X1.200000*%
G04 #@! TD*
G04 #@! TA.AperFunction,ViaPad*
%ADD29C,0.500000*%
G04 #@! TD*
G04 #@! TA.AperFunction,ViaPad*
%ADD30C,0.600000*%
G04 #@! TD*
G04 #@! TA.AperFunction,Conductor*
%ADD31C,0.500000*%
G04 #@! TD*
G04 #@! TA.AperFunction,Conductor*
%ADD32C,0.250000*%
G04 #@! TD*
G04 APERTURE END LIST*
G04 #@! TA.AperFunction,SMDPad,CuDef*
D10*
G36*
X85256809Y-117000923D02*
G01*
X85361481Y-118998182D01*
X83064633Y-119118555D01*
X82959961Y-117121296D01*
X85256809Y-117000923D01*
G37*
G04 #@! TD.AperFunction*
G04 #@! TA.AperFunction,SMDPad,CuDef*
G36*
X97806471Y-113799738D02*
G01*
X97911143Y-115796997D01*
X95614295Y-115917370D01*
X95509623Y-113920111D01*
X97806471Y-113799738D01*
G37*
G04 #@! TD.AperFunction*
D11*
X83252371Y-120791070D03*
G04 #@! TA.AperFunction,ComponentPad*
D12*
G36*
X84358056Y-128542326D02*
G01*
X82962971Y-128615439D01*
X82889858Y-127220354D01*
X84284943Y-127147241D01*
X84358056Y-128542326D01*
G37*
G04 #@! TD.AperFunction*
G04 #@! TA.AperFunction,SMDPad,CuDef*
D10*
G36*
X84039427Y-126733022D02*
G01*
X83090729Y-126782741D01*
X83022693Y-125484522D01*
X83971391Y-125434803D01*
X84039427Y-126733022D01*
G37*
G04 #@! TD.AperFunction*
G04 #@! TA.AperFunction,SMDPad,CuDef*
G36*
X83853635Y-123187888D02*
G01*
X82904937Y-123237607D01*
X82836901Y-121939388D01*
X83785599Y-121889669D01*
X83853635Y-123187888D01*
G37*
G04 #@! TD.AperFunction*
D13*
X178761031Y-37356300D03*
X191461031Y-34816300D03*
X121611050Y-92506290D03*
X134311050Y-89966290D03*
D14*
X212603606Y-84724538D03*
X212603606Y-83723778D03*
X210463606Y-84724536D03*
X210463606Y-83723776D03*
X208323610Y-84724522D03*
X208323610Y-83723762D03*
X206183610Y-84732152D03*
X206183610Y-83731392D03*
D11*
X208483603Y-87292151D03*
X211023603Y-87292151D03*
X213563603Y-87292151D03*
X216103603Y-87292151D03*
D15*
X150411038Y-96536262D03*
X144911038Y-96536262D03*
X150411038Y-97936262D03*
X144911038Y-97936262D03*
D13*
X159711031Y-73456268D03*
X172411031Y-70916268D03*
G04 #@! TA.AperFunction,SMDPad,CuDef*
D10*
G36*
X104981273Y-86258673D02*
G01*
X104928937Y-85260044D01*
X106626607Y-85171073D01*
X106678943Y-86169702D01*
X104981273Y-86258673D01*
G37*
G04 #@! TD.AperFunction*
G04 #@! TA.AperFunction,SMDPad,CuDef*
G36*
X110473735Y-85970825D02*
G01*
X110421399Y-84972196D01*
X112119069Y-84883225D01*
X112171405Y-85881854D01*
X110473735Y-85970825D01*
G37*
G04 #@! TD.AperFunction*
G04 #@! TA.AperFunction,SMDPad,CuDef*
G36*
X104908003Y-84860591D02*
G01*
X104855667Y-83861962D01*
X106553337Y-83772991D01*
X106605673Y-84771620D01*
X104908003Y-84860591D01*
G37*
G04 #@! TD.AperFunction*
G04 #@! TA.AperFunction,SMDPad,CuDef*
G36*
X110400465Y-84572743D02*
G01*
X110348129Y-83574114D01*
X112045799Y-83485143D01*
X112098135Y-84483772D01*
X110400465Y-84572743D01*
G37*
G04 #@! TD.AperFunction*
G04 #@! TA.AperFunction,SMDPad,CuDef*
G36*
X205433245Y-111867724D02*
G01*
X205887236Y-110976718D01*
X207401947Y-111748502D01*
X206947956Y-112639508D01*
X205433245Y-111867724D01*
G37*
G04 #@! TD.AperFunction*
G04 #@! TA.AperFunction,SMDPad,CuDef*
G36*
X200532709Y-109370777D02*
G01*
X200986700Y-108479771D01*
X202501411Y-109251555D01*
X202047420Y-110142561D01*
X200532709Y-109370777D01*
G37*
G04 #@! TD.AperFunction*
G04 #@! TA.AperFunction,SMDPad,CuDef*
G36*
X204797659Y-113115133D02*
G01*
X205251650Y-112224127D01*
X206766361Y-112995911D01*
X206312370Y-113886917D01*
X204797659Y-113115133D01*
G37*
G04 #@! TD.AperFunction*
G04 #@! TA.AperFunction,SMDPad,CuDef*
G36*
X199897123Y-110618186D02*
G01*
X200351114Y-109727180D01*
X201865825Y-110498964D01*
X201411834Y-111389970D01*
X199897123Y-110618186D01*
G37*
G04 #@! TD.AperFunction*
G04 #@! TA.AperFunction,SMDPad,CuDef*
G36*
X136303632Y-111162002D02*
G01*
X136095721Y-110183854D01*
X137758572Y-109830404D01*
X137966483Y-110808552D01*
X136303632Y-111162002D01*
G37*
G04 #@! TD.AperFunction*
G04 #@! TA.AperFunction,SMDPad,CuDef*
G36*
X130923820Y-112305516D02*
G01*
X130715909Y-111327368D01*
X132378760Y-110973918D01*
X132586671Y-111952066D01*
X130923820Y-112305516D01*
G37*
G04 #@! TD.AperFunction*
G04 #@! TA.AperFunction,SMDPad,CuDef*
G36*
X136594708Y-112531408D02*
G01*
X136386797Y-111553260D01*
X138049648Y-111199810D01*
X138257559Y-112177958D01*
X136594708Y-112531408D01*
G37*
G04 #@! TD.AperFunction*
G04 #@! TA.AperFunction,SMDPad,CuDef*
G36*
X131214896Y-113674922D02*
G01*
X131006985Y-112696774D01*
X132669836Y-112343324D01*
X132877747Y-113321472D01*
X131214896Y-113674922D01*
G37*
G04 #@! TD.AperFunction*
D15*
X188511082Y-62986269D03*
X183011082Y-62986269D03*
X188511082Y-64386269D03*
X183011082Y-64386269D03*
G04 #@! TA.AperFunction,SMDPad,CuDef*
D10*
G36*
X86954390Y-106279555D02*
G01*
X86902054Y-105280926D01*
X88599724Y-105191955D01*
X88652060Y-106190584D01*
X86954390Y-106279555D01*
G37*
G04 #@! TD.AperFunction*
G04 #@! TA.AperFunction,SMDPad,CuDef*
G36*
X92446852Y-105991707D02*
G01*
X92394516Y-104993078D01*
X94092186Y-104904107D01*
X94144522Y-105902736D01*
X92446852Y-105991707D01*
G37*
G04 #@! TD.AperFunction*
G04 #@! TA.AperFunction,SMDPad,CuDef*
G36*
X86881120Y-104881473D02*
G01*
X86828784Y-103882844D01*
X88526454Y-103793873D01*
X88578790Y-104792502D01*
X86881120Y-104881473D01*
G37*
G04 #@! TD.AperFunction*
G04 #@! TA.AperFunction,SMDPad,CuDef*
G36*
X92373582Y-104593625D02*
G01*
X92321246Y-103594996D01*
X94018916Y-103506025D01*
X94071252Y-104504654D01*
X92373582Y-104593625D01*
G37*
G04 #@! TD.AperFunction*
G04 #@! TA.AperFunction,SMDPad,CuDef*
G36*
X85957376Y-87255668D02*
G01*
X85905040Y-86257039D01*
X87602710Y-86168068D01*
X87655046Y-87166697D01*
X85957376Y-87255668D01*
G37*
G04 #@! TD.AperFunction*
G04 #@! TA.AperFunction,SMDPad,CuDef*
G36*
X91449838Y-86967820D02*
G01*
X91397502Y-85969191D01*
X93095172Y-85880220D01*
X93147508Y-86878849D01*
X91449838Y-86967820D01*
G37*
G04 #@! TD.AperFunction*
G04 #@! TA.AperFunction,SMDPad,CuDef*
G36*
X85884106Y-85857586D02*
G01*
X85831770Y-84858957D01*
X87529440Y-84769986D01*
X87581776Y-85768615D01*
X85884106Y-85857586D01*
G37*
G04 #@! TD.AperFunction*
G04 #@! TA.AperFunction,SMDPad,CuDef*
G36*
X91376568Y-85569738D02*
G01*
X91324232Y-84571109D01*
X93021902Y-84482138D01*
X93074238Y-85480767D01*
X91376568Y-85569738D01*
G37*
G04 #@! TD.AperFunction*
G04 #@! TA.AperFunction,SMDPad,CuDef*
G36*
X84960355Y-68231767D02*
G01*
X84908019Y-67233138D01*
X86605689Y-67144167D01*
X86658025Y-68142796D01*
X84960355Y-68231767D01*
G37*
G04 #@! TD.AperFunction*
G04 #@! TA.AperFunction,SMDPad,CuDef*
G36*
X90452817Y-67943919D02*
G01*
X90400481Y-66945290D01*
X92098151Y-66856319D01*
X92150487Y-67854948D01*
X90452817Y-67943919D01*
G37*
G04 #@! TD.AperFunction*
G04 #@! TA.AperFunction,SMDPad,CuDef*
G36*
X84887085Y-66833685D02*
G01*
X84834749Y-65835056D01*
X86532419Y-65746085D01*
X86584755Y-66744714D01*
X84887085Y-66833685D01*
G37*
G04 #@! TD.AperFunction*
G04 #@! TA.AperFunction,SMDPad,CuDef*
G36*
X90379547Y-66545837D02*
G01*
X90327211Y-65547208D01*
X92024881Y-65458237D01*
X92077217Y-66456866D01*
X90379547Y-66545837D01*
G37*
G04 #@! TD.AperFunction*
G04 #@! TA.AperFunction,SMDPad,CuDef*
G36*
X83963402Y-49207882D02*
G01*
X83911066Y-48209253D01*
X85608736Y-48120282D01*
X85661072Y-49118911D01*
X83963402Y-49207882D01*
G37*
G04 #@! TD.AperFunction*
G04 #@! TA.AperFunction,SMDPad,CuDef*
G36*
X89455864Y-48920034D02*
G01*
X89403528Y-47921405D01*
X91101198Y-47832434D01*
X91153534Y-48831063D01*
X89455864Y-48920034D01*
G37*
G04 #@! TD.AperFunction*
G04 #@! TA.AperFunction,SMDPad,CuDef*
G36*
X83890132Y-47809800D02*
G01*
X83837796Y-46811171D01*
X85535466Y-46722200D01*
X85587802Y-47720829D01*
X83890132Y-47809800D01*
G37*
G04 #@! TD.AperFunction*
G04 #@! TA.AperFunction,SMDPad,CuDef*
G36*
X89382594Y-47521952D02*
G01*
X89330258Y-46523323D01*
X91027928Y-46434352D01*
X91080264Y-47432981D01*
X89382594Y-47521952D01*
G37*
G04 #@! TD.AperFunction*
G04 #@! TA.AperFunction,SMDPad,CuDef*
G36*
X102987270Y-48210882D02*
G01*
X102934934Y-47212253D01*
X104632604Y-47123282D01*
X104684940Y-48121911D01*
X102987270Y-48210882D01*
G37*
G04 #@! TD.AperFunction*
G04 #@! TA.AperFunction,SMDPad,CuDef*
G36*
X108479732Y-47923034D02*
G01*
X108427396Y-46924405D01*
X110125066Y-46835434D01*
X110177402Y-47834063D01*
X108479732Y-47923034D01*
G37*
G04 #@! TD.AperFunction*
G04 #@! TA.AperFunction,SMDPad,CuDef*
G36*
X102914000Y-46812800D02*
G01*
X102861664Y-45814171D01*
X104559334Y-45725200D01*
X104611670Y-46723829D01*
X102914000Y-46812800D01*
G37*
G04 #@! TD.AperFunction*
G04 #@! TA.AperFunction,SMDPad,CuDef*
G36*
X108406462Y-46524952D02*
G01*
X108354126Y-45526323D01*
X110051796Y-45437352D01*
X110104132Y-46435981D01*
X108406462Y-46524952D01*
G37*
G04 #@! TD.AperFunction*
G04 #@! TA.AperFunction,SMDPad,CuDef*
G36*
X103984272Y-67234752D02*
G01*
X103931936Y-66236123D01*
X105629606Y-66147152D01*
X105681942Y-67145781D01*
X103984272Y-67234752D01*
G37*
G04 #@! TD.AperFunction*
G04 #@! TA.AperFunction,SMDPad,CuDef*
G36*
X109476734Y-66946904D02*
G01*
X109424398Y-65948275D01*
X111122068Y-65859304D01*
X111174404Y-66857933D01*
X109476734Y-66946904D01*
G37*
G04 #@! TD.AperFunction*
G04 #@! TA.AperFunction,SMDPad,CuDef*
G36*
X103911002Y-65836670D02*
G01*
X103858666Y-64838041D01*
X105556336Y-64749070D01*
X105608672Y-65747699D01*
X103911002Y-65836670D01*
G37*
G04 #@! TD.AperFunction*
G04 #@! TA.AperFunction,SMDPad,CuDef*
G36*
X109403464Y-65548822D02*
G01*
X109351128Y-64550193D01*
X111048798Y-64461222D01*
X111101134Y-65459851D01*
X109403464Y-65548822D01*
G37*
G04 #@! TD.AperFunction*
G04 #@! TA.AperFunction,SMDPad,CuDef*
G36*
X105978291Y-105282579D02*
G01*
X105925955Y-104283950D01*
X107623625Y-104194979D01*
X107675961Y-105193608D01*
X105978291Y-105282579D01*
G37*
G04 #@! TD.AperFunction*
G04 #@! TA.AperFunction,SMDPad,CuDef*
G36*
X111470753Y-104994731D02*
G01*
X111418417Y-103996102D01*
X113116087Y-103907131D01*
X113168423Y-104905760D01*
X111470753Y-104994731D01*
G37*
G04 #@! TD.AperFunction*
G04 #@! TA.AperFunction,SMDPad,CuDef*
G36*
X105905021Y-103884497D02*
G01*
X105852685Y-102885868D01*
X107550355Y-102796897D01*
X107602691Y-103795526D01*
X105905021Y-103884497D01*
G37*
G04 #@! TD.AperFunction*
G04 #@! TA.AperFunction,SMDPad,CuDef*
G36*
X111397483Y-103596649D02*
G01*
X111345147Y-102598020D01*
X113042817Y-102509049D01*
X113095153Y-103507678D01*
X111397483Y-103596649D01*
G37*
G04 #@! TD.AperFunction*
D15*
X131361054Y-99086308D03*
X125861054Y-99086308D03*
X131361054Y-100486308D03*
X125861054Y-100486308D03*
X131361043Y-80036295D03*
X125861043Y-80036295D03*
X131361043Y-81436295D03*
X125861043Y-81436295D03*
X131361052Y-60986263D03*
X125861052Y-60986263D03*
X131361052Y-62386263D03*
X125861052Y-62386263D03*
X131361061Y-41936299D03*
X125861061Y-41936299D03*
X131361061Y-43336299D03*
X125861061Y-43336299D03*
X150411066Y-39436298D03*
X144911066Y-39436298D03*
X150411066Y-40836298D03*
X144911066Y-40836298D03*
X150411027Y-58486293D03*
X144911027Y-58486293D03*
X150411027Y-59886293D03*
X144911027Y-59886293D03*
X150411055Y-77536290D03*
X144911055Y-77536290D03*
X150411055Y-78936290D03*
X144911055Y-78936290D03*
X159031421Y-108770563D03*
X153531421Y-108770563D03*
X159031421Y-110170563D03*
X153531421Y-110170563D03*
G04 #@! TA.AperFunction,SMDPad,CuDef*
D10*
G36*
X180304370Y-112345962D02*
G01*
X180537815Y-111373592D01*
X182190844Y-111770450D01*
X181957399Y-112742820D01*
X180304370Y-112345962D01*
G37*
G04 #@! TD.AperFunction*
G04 #@! TA.AperFunction,SMDPad,CuDef*
G36*
X174956335Y-111062012D02*
G01*
X175189780Y-110089642D01*
X176842809Y-110486500D01*
X176609364Y-111458870D01*
X174956335Y-111062012D01*
G37*
G04 #@! TD.AperFunction*
G04 #@! TA.AperFunction,SMDPad,CuDef*
G36*
X179977547Y-113707280D02*
G01*
X180210992Y-112734910D01*
X181864021Y-113131768D01*
X181630576Y-114104138D01*
X179977547Y-113707280D01*
G37*
G04 #@! TD.AperFunction*
G04 #@! TA.AperFunction,SMDPad,CuDef*
G36*
X174629512Y-112423330D02*
G01*
X174862957Y-111450960D01*
X176515986Y-111847818D01*
X176282541Y-112820188D01*
X174629512Y-112423330D01*
G37*
G04 #@! TD.AperFunction*
D15*
X169461087Y-99086269D03*
X163961087Y-99086269D03*
X169461087Y-100486269D03*
X163961087Y-100486269D03*
X169461068Y-80036272D03*
X163961068Y-80036272D03*
X169461068Y-81436272D03*
X163961068Y-81436272D03*
X169461050Y-60986293D03*
X163961050Y-60986293D03*
X169461050Y-62386293D03*
X163961050Y-62386293D03*
X169461054Y-41936280D03*
X163961054Y-41936280D03*
X169461054Y-43336280D03*
X163961054Y-43336280D03*
X188511067Y-43936291D03*
X183011067Y-43936291D03*
X188511067Y-45336291D03*
X183011067Y-45336291D03*
X188511066Y-82036271D03*
X183011066Y-82036271D03*
X188511066Y-83436271D03*
X183011066Y-83436271D03*
G04 #@! TA.AperFunction,SMDPad,CuDef*
D10*
G36*
X225608486Y-125905309D02*
G01*
X226257934Y-125144903D01*
X227550624Y-126248965D01*
X226901176Y-127009371D01*
X225608486Y-125905309D01*
G37*
G04 #@! TD.AperFunction*
G04 #@! TA.AperFunction,SMDPad,CuDef*
G36*
X221426253Y-122333345D02*
G01*
X222075701Y-121572939D01*
X223368391Y-122677001D01*
X222718943Y-123437407D01*
X221426253Y-122333345D01*
G37*
G04 #@! TD.AperFunction*
G04 #@! TA.AperFunction,SMDPad,CuDef*
G36*
X224699259Y-126969877D02*
G01*
X225348707Y-126209471D01*
X226641397Y-127313533D01*
X225991949Y-128073939D01*
X224699259Y-126969877D01*
G37*
G04 #@! TD.AperFunction*
G04 #@! TA.AperFunction,SMDPad,CuDef*
G36*
X220517026Y-123397913D02*
G01*
X221166474Y-122637507D01*
X222459164Y-123741569D01*
X221809716Y-124501975D01*
X220517026Y-123397913D01*
G37*
G04 #@! TD.AperFunction*
G04 #@! TA.AperFunction,SMDPad,CuDef*
G36*
X201116413Y-120496013D02*
G01*
X201570404Y-119605007D01*
X203085115Y-120376791D01*
X202631124Y-121267797D01*
X201116413Y-120496013D01*
G37*
G04 #@! TD.AperFunction*
G04 #@! TA.AperFunction,SMDPad,CuDef*
G36*
X196215877Y-117999066D02*
G01*
X196669868Y-117108060D01*
X198184579Y-117879844D01*
X197730588Y-118770850D01*
X196215877Y-117999066D01*
G37*
G04 #@! TD.AperFunction*
G04 #@! TA.AperFunction,SMDPad,CuDef*
G36*
X200480827Y-121743422D02*
G01*
X200934818Y-120852416D01*
X202449529Y-121624200D01*
X201995538Y-122515206D01*
X200480827Y-121743422D01*
G37*
G04 #@! TD.AperFunction*
G04 #@! TA.AperFunction,SMDPad,CuDef*
G36*
X195580291Y-119246475D02*
G01*
X196034282Y-118355469D01*
X197548993Y-119127253D01*
X197095002Y-120018259D01*
X195580291Y-119246475D01*
G37*
G04 #@! TD.AperFunction*
G04 #@! TA.AperFunction,SMDPad,CuDef*
G36*
X219382521Y-133254522D02*
G01*
X220031969Y-132494116D01*
X221324659Y-133598178D01*
X220675211Y-134358584D01*
X219382521Y-133254522D01*
G37*
G04 #@! TD.AperFunction*
G04 #@! TA.AperFunction,SMDPad,CuDef*
G36*
X215200288Y-129682558D02*
G01*
X215849736Y-128922152D01*
X217142426Y-130026214D01*
X216492978Y-130786620D01*
X215200288Y-129682558D01*
G37*
G04 #@! TD.AperFunction*
G04 #@! TA.AperFunction,SMDPad,CuDef*
G36*
X218473294Y-134319090D02*
G01*
X219122742Y-133558684D01*
X220415432Y-134662746D01*
X219765984Y-135423152D01*
X218473294Y-134319090D01*
G37*
G04 #@! TD.AperFunction*
G04 #@! TA.AperFunction,SMDPad,CuDef*
G36*
X214291061Y-130747126D02*
G01*
X214940509Y-129986720D01*
X216233199Y-131090782D01*
X215583751Y-131851188D01*
X214291061Y-130747126D01*
G37*
G04 #@! TD.AperFunction*
D15*
X188511072Y-101036290D03*
X183011072Y-101036290D03*
X188511072Y-102436290D03*
X183011072Y-102436290D03*
D13*
X159711048Y-92506279D03*
X172411048Y-89966279D03*
G04 #@! TA.AperFunction,SMDPad,CuDef*
D10*
G36*
X112793863Y-35660422D02*
G01*
X112898535Y-37657681D01*
X110601687Y-37778054D01*
X110497015Y-35780795D01*
X112793863Y-35660422D01*
G37*
G04 #@! TD.AperFunction*
G04 #@! TA.AperFunction,SMDPad,CuDef*
G36*
X100244201Y-38861607D02*
G01*
X100348873Y-40858866D01*
X98052025Y-40979239D01*
X97947353Y-38981980D01*
X100244201Y-38861607D01*
G37*
G04 #@! TD.AperFunction*
D16*
X222989608Y-56532159D03*
D17*
X200413428Y-50931537D03*
X214354615Y-50931520D03*
X224622634Y-88094294D03*
X221822605Y-88094276D03*
D18*
X225060992Y-69191514D03*
X222860992Y-69191514D03*
X225060992Y-76511514D03*
X222860992Y-76511514D03*
D19*
X221930992Y-70651514D03*
X221930992Y-73551514D03*
X221930992Y-75071514D03*
D20*
X203780995Y-50541510D03*
X203780995Y-52741510D03*
X211100995Y-50541510D03*
X211100995Y-52741510D03*
D21*
X205240995Y-53671510D03*
X208140995Y-53671510D03*
X209660995Y-53671510D03*
D13*
X178761032Y-94506299D03*
X191461032Y-91966299D03*
X153361046Y-87458793D03*
X140661046Y-89998793D03*
G04 #@! TA.AperFunction,SMDPad,CuDef*
D10*
G36*
X216848826Y-142243602D02*
G01*
X218147722Y-140722790D01*
X219896656Y-142216520D01*
X218597760Y-143737332D01*
X216848826Y-142243602D01*
G37*
G04 #@! TD.AperFunction*
G04 #@! TA.AperFunction,SMDPad,CuDef*
G36*
X205542072Y-135927043D02*
G01*
X206840968Y-134406231D01*
X208589902Y-135899961D01*
X207291006Y-137420773D01*
X205542072Y-135927043D01*
G37*
G04 #@! TD.AperFunction*
D13*
X163272373Y-116740398D03*
X150572373Y-119280398D03*
G04 #@! TA.AperFunction,SMDPad,CuDef*
D10*
G36*
X224974073Y-114714875D02*
G01*
X223675177Y-116235687D01*
X221926243Y-114741957D01*
X223225139Y-113221145D01*
X224974073Y-114714875D01*
G37*
G04 #@! TD.AperFunction*
G04 #@! TA.AperFunction,SMDPad,CuDef*
G36*
X236280827Y-121031434D02*
G01*
X234981931Y-122552246D01*
X233232997Y-121058516D01*
X234531893Y-119537704D01*
X236280827Y-121031434D01*
G37*
G04 #@! TD.AperFunction*
D22*
X233544575Y-117537178D03*
X229742545Y-114289938D03*
G04 #@! TA.AperFunction,ComponentPad*
D12*
G36*
X231076986Y-126739407D02*
G01*
X229556174Y-125440510D01*
X231634408Y-123007211D01*
X233155220Y-124306108D01*
X231076986Y-126739407D01*
G37*
G04 #@! TD.AperFunction*
G04 #@! TA.AperFunction,ComponentPad*
G36*
X222560440Y-119465589D02*
G01*
X221039628Y-118166692D01*
X223117862Y-115733393D01*
X224638674Y-117032290D01*
X222560440Y-119465589D01*
G37*
G04 #@! TD.AperFunction*
D22*
X224127579Y-128563065D03*
X222226564Y-126939445D03*
X220325549Y-125315825D03*
D11*
X223330321Y-109009126D03*
G04 #@! TA.AperFunction,ComponentPad*
D12*
G36*
X219488854Y-115831709D02*
G01*
X218337550Y-115040439D01*
X219128820Y-113889135D01*
X220280124Y-114680405D01*
X219488854Y-115831709D01*
G37*
G04 #@! TD.AperFunction*
G04 #@! TA.AperFunction,SMDPad,CuDef*
D10*
G36*
X220337504Y-114202323D02*
G01*
X219554584Y-113664237D01*
X220290912Y-112592873D01*
X221073832Y-113130959D01*
X220337504Y-114202323D01*
G37*
G04 #@! TD.AperFunction*
G04 #@! TA.AperFunction,SMDPad,CuDef*
G36*
X222348246Y-111276675D02*
G01*
X221565326Y-110738589D01*
X222301654Y-109667225D01*
X223084574Y-110205311D01*
X222348246Y-111276675D01*
G37*
G04 #@! TD.AperFunction*
G04 #@! TA.AperFunction,SMDPad,CuDef*
G36*
X141932920Y-118640015D02*
G01*
X141517097Y-116683720D01*
X143766836Y-116205523D01*
X144182659Y-118161818D01*
X141932920Y-118640015D01*
G37*
G04 #@! TD.AperFunction*
G04 #@! TA.AperFunction,SMDPad,CuDef*
G36*
X130038542Y-123764988D02*
G01*
X129622719Y-121808693D01*
X131872458Y-121330496D01*
X132288281Y-123286791D01*
X130038542Y-123764988D01*
G37*
G04 #@! TD.AperFunction*
G04 #@! TA.AperFunction,SMDPad,CuDef*
G36*
X145515575Y-116500504D02*
G01*
X146460370Y-116401202D01*
X146596257Y-117694080D01*
X145651462Y-117793382D01*
X145515575Y-116500504D01*
G37*
G04 #@! TD.AperFunction*
G04 #@! TA.AperFunction,SMDPad,CuDef*
G36*
X145144499Y-112969952D02*
G01*
X146089294Y-112870650D01*
X146225181Y-114163528D01*
X145280386Y-114262830D01*
X145144499Y-112969952D01*
G37*
G04 #@! TD.AperFunction*
G04 #@! TA.AperFunction,ComponentPad*
D12*
G36*
X144731615Y-111179803D02*
G01*
X146120962Y-111033776D01*
X146266989Y-112423123D01*
X144877642Y-112569150D01*
X144731615Y-111179803D01*
G37*
G04 #@! TD.AperFunction*
D11*
X146241454Y-118862569D03*
G04 #@! TA.AperFunction,SMDPad,CuDef*
D10*
G36*
X200721221Y-129816200D02*
G01*
X201629202Y-128034187D01*
X203678517Y-129078366D01*
X202770536Y-130860379D01*
X200721221Y-129816200D01*
G37*
G04 #@! TD.AperFunction*
G04 #@! TA.AperFunction,SMDPad,CuDef*
G36*
X188252302Y-126313678D02*
G01*
X189160283Y-124531665D01*
X191209598Y-125575844D01*
X190301617Y-127357857D01*
X188252302Y-126313678D01*
G37*
G04 #@! TD.AperFunction*
G04 #@! TA.AperFunction,SMDPad,CuDef*
G36*
X182136406Y-121506718D02*
G01*
X182603297Y-119561978D01*
X184839748Y-120098902D01*
X184372857Y-122043642D01*
X182136406Y-121506718D01*
G37*
G04 #@! TD.AperFunction*
G04 #@! TA.AperFunction,SMDPad,CuDef*
G36*
X169194357Y-121011781D02*
G01*
X169661248Y-119067041D01*
X171897699Y-119603965D01*
X171430808Y-121548705D01*
X169194357Y-121011781D01*
G37*
G04 #@! TD.AperFunction*
G04 #@! TA.AperFunction,SMDPad,CuDef*
G36*
X94766966Y-55681328D02*
G01*
X94871638Y-57678587D01*
X92574790Y-57798960D01*
X92470118Y-55801701D01*
X94766966Y-55681328D01*
G37*
G04 #@! TD.AperFunction*
G04 #@! TA.AperFunction,SMDPad,CuDef*
G36*
X82217304Y-58882513D02*
G01*
X82321976Y-60879772D01*
X80025128Y-61000145D01*
X79920456Y-59002886D01*
X82217304Y-58882513D01*
G37*
G04 #@! TD.AperFunction*
G04 #@! TA.AperFunction,SMDPad,CuDef*
G36*
X114787875Y-73708225D02*
G01*
X114892547Y-75705484D01*
X112595699Y-75825857D01*
X112491027Y-73828598D01*
X114787875Y-73708225D01*
G37*
G04 #@! TD.AperFunction*
G04 #@! TA.AperFunction,SMDPad,CuDef*
G36*
X102238213Y-76909410D02*
G01*
X102342885Y-78906669D01*
X100046037Y-79027042D01*
X99941365Y-77029783D01*
X102238213Y-76909410D01*
G37*
G04 #@! TD.AperFunction*
D11*
X221039931Y-140254194D03*
G04 #@! TA.AperFunction,ComponentPad*
D12*
G36*
X225573509Y-133870529D02*
G01*
X226635796Y-134777808D01*
X225728517Y-135840095D01*
X224666230Y-134932816D01*
X225573509Y-133870529D01*
G37*
G04 #@! TD.AperFunction*
G04 #@! TA.AperFunction,SMDPad,CuDef*
D10*
G36*
X224559190Y-135402280D02*
G01*
X225281576Y-136019256D01*
X224437294Y-137007784D01*
X223714908Y-136390808D01*
X224559190Y-135402280D01*
G37*
G04 #@! TD.AperFunction*
G04 #@! TA.AperFunction,SMDPad,CuDef*
G36*
X222253650Y-138101722D02*
G01*
X222976036Y-138718698D01*
X222131754Y-139707226D01*
X221409368Y-139090250D01*
X222253650Y-138101722D01*
G37*
G04 #@! TD.AperFunction*
D11*
X203980748Y-132784014D03*
G04 #@! TA.AperFunction,ComponentPad*
D12*
G36*
X207642305Y-125863210D02*
G01*
X208813928Y-126624071D01*
X208053067Y-127795694D01*
X206881444Y-127034833D01*
X207642305Y-125863210D01*
G37*
G04 #@! TD.AperFunction*
G04 #@! TA.AperFunction,SMDPad,CuDef*
D10*
G36*
X206836598Y-127514254D02*
G01*
X207633335Y-128031661D01*
X206925304Y-129121932D01*
X206128567Y-128604525D01*
X206836598Y-127514254D01*
G37*
G04 #@! TD.AperFunction*
G04 #@! TA.AperFunction,SMDPad,CuDef*
G36*
X204903130Y-130491534D02*
G01*
X205699867Y-131008941D01*
X204991836Y-132099212D01*
X204195099Y-131581805D01*
X204903130Y-130491534D01*
G37*
G04 #@! TD.AperFunction*
D11*
X185860734Y-124079191D03*
G04 #@! TA.AperFunction,ComponentPad*
D12*
G36*
X187805491Y-116494838D02*
G01*
X189122361Y-116961166D01*
X188656033Y-118278036D01*
X187339163Y-117811708D01*
X187805491Y-116494838D01*
G37*
G04 #@! TD.AperFunction*
G04 #@! TA.AperFunction,SMDPad,CuDef*
D10*
G36*
X187407475Y-118288350D02*
G01*
X188302984Y-118605466D01*
X187869035Y-119830900D01*
X186973526Y-119513784D01*
X187407475Y-118288350D01*
G37*
G04 #@! TD.AperFunction*
G04 #@! TA.AperFunction,SMDPad,CuDef*
G36*
X186222461Y-121634728D02*
G01*
X187117970Y-121951844D01*
X186684021Y-123177278D01*
X185788512Y-122860162D01*
X186222461Y-121634728D01*
G37*
G04 #@! TD.AperFunction*
D11*
X166351442Y-119288848D03*
G04 #@! TA.AperFunction,ComponentPad*
D12*
G36*
X166471934Y-111460055D02*
G01*
X167861281Y-111606082D01*
X167715254Y-112995429D01*
X166325907Y-112849402D01*
X166471934Y-111460055D01*
G37*
G04 #@! TD.AperFunction*
G04 #@! TA.AperFunction,SMDPad,CuDef*
D10*
G36*
X166503602Y-113296929D02*
G01*
X167448397Y-113396231D01*
X167312510Y-114689109D01*
X166367715Y-114589807D01*
X166503602Y-113296929D01*
G37*
G04 #@! TD.AperFunction*
G04 #@! TA.AperFunction,SMDPad,CuDef*
G36*
X166132526Y-116827481D02*
G01*
X167077321Y-116926783D01*
X166941434Y-118219661D01*
X165996639Y-118120359D01*
X166132526Y-116827481D01*
G37*
G04 #@! TD.AperFunction*
D11*
X199721753Y-94216645D03*
G04 #@! TA.AperFunction,ComponentPad*
D12*
G36*
X197579127Y-101747493D02*
G01*
X196274915Y-101246853D01*
X196775555Y-99942641D01*
X198079767Y-100443281D01*
X197579127Y-101747493D01*
G37*
G04 #@! TD.AperFunction*
G04 #@! TA.AperFunction,SMDPad,CuDef*
D10*
G36*
X198023956Y-99965013D02*
G01*
X197137054Y-99624564D01*
X197602932Y-98410909D01*
X198489834Y-98751358D01*
X198023956Y-99965013D01*
G37*
G04 #@! TD.AperFunction*
G04 #@! TA.AperFunction,SMDPad,CuDef*
G36*
X199296162Y-96650803D02*
G01*
X198409260Y-96310354D01*
X198875138Y-95096699D01*
X199762040Y-95437148D01*
X199296162Y-96650803D01*
G37*
G04 #@! TD.AperFunction*
D11*
X177711059Y-97236295D03*
D23*
X177711059Y-104336295D03*
D24*
X177711059Y-102561295D03*
X177711059Y-99011295D03*
D11*
X158661057Y-95186253D03*
D23*
X158661057Y-102286253D03*
D24*
X158661057Y-100511253D03*
X158661057Y-96961253D03*
D11*
X139611030Y-92736290D03*
D23*
X139611030Y-99836290D03*
D24*
X139611030Y-98061290D03*
X139611030Y-94511290D03*
D11*
X120561055Y-95286258D03*
D23*
X120561055Y-102386258D03*
D24*
X120561055Y-100611258D03*
X120561055Y-97061258D03*
G04 #@! TA.AperFunction,SMDPad,CuDef*
D10*
G36*
X100323716Y-101999004D02*
G01*
X99375018Y-102048723D01*
X99306982Y-100750504D01*
X100255680Y-100700785D01*
X100323716Y-101999004D01*
G37*
G04 #@! TD.AperFunction*
G04 #@! TA.AperFunction,SMDPad,CuDef*
G36*
X100509508Y-105544138D02*
G01*
X99560810Y-105593857D01*
X99492774Y-104295638D01*
X100441472Y-104245919D01*
X100509508Y-105544138D01*
G37*
G04 #@! TD.AperFunction*
G04 #@! TA.AperFunction,ComponentPad*
D12*
G36*
X100828137Y-107353442D02*
G01*
X99433052Y-107426555D01*
X99359939Y-106031470D01*
X100755024Y-105958357D01*
X100828137Y-107353442D01*
G37*
G04 #@! TD.AperFunction*
D11*
X99722452Y-99602186D03*
G04 #@! TA.AperFunction,SMDPad,CuDef*
D10*
G36*
X82808191Y-103117220D02*
G01*
X81859493Y-103166939D01*
X81791457Y-101868720D01*
X82740155Y-101819001D01*
X82808191Y-103117220D01*
G37*
G04 #@! TD.AperFunction*
G04 #@! TA.AperFunction,SMDPad,CuDef*
G36*
X82993983Y-106662354D02*
G01*
X82045285Y-106712073D01*
X81977249Y-105413854D01*
X82925947Y-105364135D01*
X82993983Y-106662354D01*
G37*
G04 #@! TD.AperFunction*
G04 #@! TA.AperFunction,ComponentPad*
D12*
G36*
X83312612Y-108471658D02*
G01*
X81917527Y-108544771D01*
X81844414Y-107149686D01*
X83239499Y-107076573D01*
X83312612Y-108471658D01*
G37*
G04 #@! TD.AperFunction*
D11*
X82206927Y-100720402D03*
X177711059Y-78161286D03*
D23*
X177711059Y-85261286D03*
D24*
X177711059Y-83486286D03*
X177711059Y-79936286D03*
D11*
X158661040Y-75636262D03*
D23*
X158661040Y-82736262D03*
D24*
X158661040Y-80961262D03*
X158661040Y-77411262D03*
D11*
X139611048Y-73686270D03*
D23*
X139611048Y-80786270D03*
D24*
X139611048Y-79011270D03*
X139611048Y-75461270D03*
D11*
X120561047Y-76186282D03*
D23*
X120561047Y-83286282D03*
D24*
X120561047Y-81511282D03*
X120561047Y-77961282D03*
G04 #@! TA.AperFunction,SMDPad,CuDef*
D10*
G36*
X99324276Y-81973860D02*
G01*
X98375578Y-82023579D01*
X98307542Y-80725360D01*
X99256240Y-80675641D01*
X99324276Y-81973860D01*
G37*
G04 #@! TD.AperFunction*
G04 #@! TA.AperFunction,SMDPad,CuDef*
G36*
X99510068Y-85518994D02*
G01*
X98561370Y-85568713D01*
X98493334Y-84270494D01*
X99442032Y-84220775D01*
X99510068Y-85518994D01*
G37*
G04 #@! TD.AperFunction*
G04 #@! TA.AperFunction,ComponentPad*
D12*
G36*
X99828697Y-87328298D02*
G01*
X98433612Y-87401411D01*
X98360499Y-86006326D01*
X99755584Y-85933213D01*
X99828697Y-87328298D01*
G37*
G04 #@! TD.AperFunction*
D11*
X98723012Y-79577042D03*
G04 #@! TA.AperFunction,SMDPad,CuDef*
D10*
G36*
X84504780Y-72436358D02*
G01*
X84554499Y-73385056D01*
X83256280Y-73453092D01*
X83206561Y-72504394D01*
X84504780Y-72436358D01*
G37*
G04 #@! TD.AperFunction*
G04 #@! TA.AperFunction,SMDPad,CuDef*
G36*
X88049914Y-72250566D02*
G01*
X88099633Y-73199264D01*
X86801414Y-73267300D01*
X86751695Y-72318602D01*
X88049914Y-72250566D01*
G37*
G04 #@! TD.AperFunction*
G04 #@! TA.AperFunction,ComponentPad*
D12*
G36*
X89859218Y-71931937D02*
G01*
X89932331Y-73327022D01*
X88537246Y-73400135D01*
X88464133Y-72005050D01*
X89859218Y-71931937D01*
G37*
G04 #@! TD.AperFunction*
D11*
X82107962Y-73037622D03*
X175711066Y-57836268D03*
D23*
X175711066Y-64936268D03*
D24*
X175711066Y-63161268D03*
X175711066Y-59611268D03*
D11*
X158661041Y-56586284D03*
D23*
X158661041Y-63686284D03*
D24*
X158661041Y-61911284D03*
X158661041Y-58361284D03*
D11*
X132161043Y-65786277D03*
D23*
X125061043Y-65786277D03*
D25*
X126836043Y-65786277D03*
X130386043Y-65786277D03*
D11*
X120561054Y-57086303D03*
D23*
X120561054Y-64186303D03*
D24*
X120561054Y-62411303D03*
X120561054Y-58861303D03*
G04 #@! TA.AperFunction,SMDPad,CuDef*
D10*
G36*
X98327294Y-62949975D02*
G01*
X97378596Y-62999694D01*
X97310560Y-61701475D01*
X98259258Y-61651756D01*
X98327294Y-62949975D01*
G37*
G04 #@! TD.AperFunction*
G04 #@! TA.AperFunction,SMDPad,CuDef*
G36*
X98513086Y-66495109D02*
G01*
X97564388Y-66544828D01*
X97496352Y-65246609D01*
X98445050Y-65196890D01*
X98513086Y-66495109D01*
G37*
G04 #@! TD.AperFunction*
G04 #@! TA.AperFunction,ComponentPad*
D12*
G36*
X98831715Y-68304413D02*
G01*
X97436630Y-68377526D01*
X97363517Y-66982441D01*
X98758602Y-66909328D01*
X98831715Y-68304413D01*
G37*
G04 #@! TD.AperFunction*
D11*
X97726030Y-60553157D03*
G04 #@! TA.AperFunction,SMDPad,CuDef*
D10*
G36*
X80814204Y-65069421D02*
G01*
X79865506Y-65119140D01*
X79797470Y-63820921D01*
X80746168Y-63771202D01*
X80814204Y-65069421D01*
G37*
G04 #@! TD.AperFunction*
G04 #@! TA.AperFunction,SMDPad,CuDef*
G36*
X80999996Y-68614555D02*
G01*
X80051298Y-68664274D01*
X79983262Y-67366055D01*
X80931960Y-67316336D01*
X80999996Y-68614555D01*
G37*
G04 #@! TD.AperFunction*
G04 #@! TA.AperFunction,ComponentPad*
D12*
G36*
X81318625Y-70423859D02*
G01*
X79923540Y-70496972D01*
X79850427Y-69101887D01*
X81245512Y-69028774D01*
X81318625Y-70423859D01*
G37*
G04 #@! TD.AperFunction*
D11*
X80212940Y-62672603D03*
X175591057Y-37696260D03*
D23*
X175591057Y-44796260D03*
D24*
X175591057Y-43021260D03*
X175591057Y-39471260D03*
D11*
X158781066Y-37536283D03*
D23*
X158781066Y-44636283D03*
D24*
X158781066Y-42861283D03*
X158781066Y-39311283D03*
D11*
X139611020Y-35536284D03*
D23*
X139611020Y-42636284D03*
D24*
X139611020Y-40861284D03*
X139611020Y-37311284D03*
D11*
X120561040Y-38036264D03*
D23*
X120561040Y-45136264D03*
D24*
X120561040Y-43361264D03*
X120561040Y-39811264D03*
G04 #@! TA.AperFunction,SMDPad,CuDef*
D10*
G36*
X97250604Y-42788682D02*
G01*
X96301906Y-42838401D01*
X96233870Y-41540182D01*
X97182568Y-41490463D01*
X97250604Y-42788682D01*
G37*
G04 #@! TD.AperFunction*
G04 #@! TA.AperFunction,SMDPad,CuDef*
G36*
X97436396Y-46333816D02*
G01*
X96487698Y-46383535D01*
X96419662Y-45085316D01*
X97368360Y-45035597D01*
X97436396Y-46333816D01*
G37*
G04 #@! TD.AperFunction*
G04 #@! TA.AperFunction,ComponentPad*
D12*
G36*
X97755025Y-48143120D02*
G01*
X96359940Y-48216233D01*
X96286827Y-46821148D01*
X97681912Y-46748035D01*
X97755025Y-48143120D01*
G37*
G04 #@! TD.AperFunction*
D11*
X96649340Y-40391864D03*
G04 #@! TA.AperFunction,SMDPad,CuDef*
D10*
G36*
X79814596Y-45995633D02*
G01*
X78865898Y-46045352D01*
X78797862Y-44747133D01*
X79746560Y-44697414D01*
X79814596Y-45995633D01*
G37*
G04 #@! TD.AperFunction*
G04 #@! TA.AperFunction,SMDPad,CuDef*
G36*
X80000388Y-49540767D02*
G01*
X79051690Y-49590486D01*
X78983654Y-48292267D01*
X79932352Y-48242548D01*
X80000388Y-49540767D01*
G37*
G04 #@! TD.AperFunction*
G04 #@! TA.AperFunction,ComponentPad*
D12*
G36*
X80319017Y-51350071D02*
G01*
X78923932Y-51423184D01*
X78850819Y-50028099D01*
X80245904Y-49954986D01*
X80319017Y-51350071D01*
G37*
G04 #@! TD.AperFunction*
D11*
X79213332Y-43598815D03*
G04 #@! TA.AperFunction,SMDPad,CuDef*
D10*
G36*
X96656163Y-55774108D02*
G01*
X96596343Y-54632675D01*
X97230473Y-54599442D01*
X97290293Y-55740875D01*
X96656163Y-55774108D01*
G37*
G04 #@! TD.AperFunction*
G04 #@! TA.AperFunction,SMDPad,CuDef*
G36*
X97655551Y-55721732D02*
G01*
X97595731Y-54580299D01*
X98229861Y-54547066D01*
X98289681Y-55688499D01*
X97655551Y-55721732D01*
G37*
G04 #@! TD.AperFunction*
D26*
X139561033Y-55236288D03*
X138560273Y-55236288D03*
X177311418Y-52636296D03*
X176310658Y-52636296D03*
G04 #@! TA.AperFunction,SMDPad,CuDef*
D10*
G36*
X95763970Y-74705223D02*
G01*
X95868642Y-76702482D01*
X93571794Y-76822855D01*
X93467122Y-74825596D01*
X95763970Y-74705223D01*
G37*
G04 #@! TD.AperFunction*
G04 #@! TA.AperFunction,SMDPad,CuDef*
G36*
X83214308Y-77906408D02*
G01*
X83318980Y-79903667D01*
X81022132Y-80024040D01*
X80917460Y-78026781D01*
X83214308Y-77906408D01*
G37*
G04 #@! TD.AperFunction*
G04 #@! TA.AperFunction,SMDPad,CuDef*
G36*
X113790877Y-54684330D02*
G01*
X113895549Y-56681589D01*
X111598701Y-56801962D01*
X111494029Y-54804703D01*
X113790877Y-54684330D01*
G37*
G04 #@! TD.AperFunction*
G04 #@! TA.AperFunction,SMDPad,CuDef*
G36*
X101241215Y-57885515D02*
G01*
X101345887Y-59882774D01*
X99049039Y-60003147D01*
X98944367Y-58005888D01*
X101241215Y-57885515D01*
G37*
G04 #@! TD.AperFunction*
D13*
X121611042Y-73456298D03*
X134311042Y-70916298D03*
X178761055Y-75456295D03*
X191461055Y-72916295D03*
G04 #@! TA.AperFunction,SMDPad,CuDef*
D10*
G36*
X96760956Y-93729105D02*
G01*
X96865628Y-95726364D01*
X94568780Y-95846737D01*
X94464108Y-93849478D01*
X96760956Y-93729105D01*
G37*
G04 #@! TD.AperFunction*
G04 #@! TA.AperFunction,SMDPad,CuDef*
G36*
X84211294Y-96930290D02*
G01*
X84315966Y-98927549D01*
X82019118Y-99047922D01*
X81914446Y-97050663D01*
X84211294Y-96930290D01*
G37*
G04 #@! TD.AperFunction*
D13*
X140661028Y-70956305D03*
X153361028Y-68416305D03*
D11*
X221807623Y-78484297D03*
X221807623Y-86104297D03*
G04 #@! TA.AperFunction,SMDPad,CuDef*
G36*
G01*
X222432623Y-84319297D02*
X221182623Y-84319297D01*
G75*
G02*
X220932623Y-84069297I0J250000D01*
G01*
X220932623Y-83319297D01*
G75*
G02*
X221182623Y-83069297I250000J0D01*
G01*
X222432623Y-83069297D01*
G75*
G02*
X222682623Y-83319297I0J-250000D01*
G01*
X222682623Y-84069297D01*
G75*
G02*
X222432623Y-84319297I-250000J0D01*
G01*
G37*
G04 #@! TD.AperFunction*
G04 #@! TA.AperFunction,SMDPad,CuDef*
G36*
G01*
X222432623Y-81519297D02*
X221182623Y-81519297D01*
G75*
G02*
X220932623Y-81269297I0J250000D01*
G01*
X220932623Y-80519297D01*
G75*
G02*
X221182623Y-80269297I250000J0D01*
G01*
X222432623Y-80269297D01*
G75*
G02*
X222682623Y-80519297I0J-250000D01*
G01*
X222682623Y-81269297D01*
G75*
G02*
X222432623Y-81519297I-250000J0D01*
G01*
G37*
G04 #@! TD.AperFunction*
D27*
X221807623Y-83694297D03*
X221807623Y-80894297D03*
D11*
X224607675Y-86104263D03*
X224607675Y-78484263D03*
G04 #@! TA.AperFunction,SMDPad,CuDef*
G36*
G01*
X223982675Y-80269263D02*
X225232675Y-80269263D01*
G75*
G02*
X225482675Y-80519263I0J-250000D01*
G01*
X225482675Y-81269263D01*
G75*
G02*
X225232675Y-81519263I-250000J0D01*
G01*
X223982675Y-81519263D01*
G75*
G02*
X223732675Y-81269263I0J250000D01*
G01*
X223732675Y-80519263D01*
G75*
G02*
X223982675Y-80269263I250000J0D01*
G01*
G37*
G04 #@! TD.AperFunction*
G04 #@! TA.AperFunction,SMDPad,CuDef*
G36*
G01*
X223982675Y-83069263D02*
X225232675Y-83069263D01*
G75*
G02*
X225482675Y-83319263I0J-250000D01*
G01*
X225482675Y-84069263D01*
G75*
G02*
X225232675Y-84319263I-250000J0D01*
G01*
X223982675Y-84319263D01*
G75*
G02*
X223732675Y-84069263I0J250000D01*
G01*
X223732675Y-83319263D01*
G75*
G02*
X223982675Y-83069263I250000J0D01*
G01*
G37*
G04 #@! TD.AperFunction*
D27*
X224607675Y-80894263D03*
X224607675Y-83694263D03*
D22*
X134476446Y-123721342D03*
X139367184Y-122681784D03*
G04 #@! TA.AperFunction,ComponentPad*
D12*
G36*
X128678000Y-116161711D02*
G01*
X130634295Y-115745887D01*
X131299612Y-118875959D01*
X129343317Y-119291783D01*
X128678000Y-116161711D01*
G37*
G04 #@! TD.AperFunction*
G04 #@! TA.AperFunction,ComponentPad*
G36*
X139633254Y-113833101D02*
G01*
X141589549Y-113417277D01*
X142254866Y-116547349D01*
X140298571Y-116963173D01*
X139633254Y-113833101D01*
G37*
G04 #@! TD.AperFunction*
D22*
X131461726Y-109538202D03*
X133907095Y-109018423D03*
X136352464Y-108498644D03*
X211188095Y-101894840D03*
X206733062Y-99624887D03*
G04 #@! TA.AperFunction,ComponentPad*
D12*
G36*
X210936904Y-111418857D02*
G01*
X209154891Y-110510876D01*
X210607660Y-107659655D01*
X212389673Y-108567636D01*
X210936904Y-111418857D01*
G37*
G04 #@! TD.AperFunction*
G04 #@! TA.AperFunction,ComponentPad*
G36*
X200957630Y-106334163D02*
G01*
X199175617Y-105426182D01*
X200628386Y-102574961D01*
X202410399Y-103482942D01*
X200957630Y-106334163D01*
G37*
G04 #@! TD.AperFunction*
D22*
X204605233Y-114814434D03*
X202377716Y-113679458D03*
X200150200Y-112544482D03*
D16*
X199276802Y-88868955D03*
X222900500Y-100886755D03*
D17*
X200413463Y-59817037D03*
X215653463Y-77597037D03*
X200413463Y-69977037D03*
X215653463Y-67437037D03*
X215653463Y-62357037D03*
X200413463Y-80137037D03*
X215653463Y-59817037D03*
X215653463Y-54737037D03*
X200413463Y-75057037D03*
X215653463Y-82677037D03*
X200413463Y-67437037D03*
X200413463Y-57277037D03*
X200413463Y-62357037D03*
X200413463Y-64897037D03*
X200413463Y-77597037D03*
X200413463Y-72517037D03*
X215653463Y-75057037D03*
X215653463Y-72517037D03*
X200413463Y-82677037D03*
X215653463Y-80137037D03*
X215653463Y-57277037D03*
X200413463Y-54737037D03*
X215653463Y-69977037D03*
X215653463Y-64897037D03*
X199114648Y-53541292D03*
X199114648Y-56081292D03*
X199114648Y-58621292D03*
X199114648Y-61161292D03*
X199114648Y-63701292D03*
X199114648Y-66241292D03*
X199114648Y-68781292D03*
X199114648Y-71321292D03*
X199114648Y-73861292D03*
X199114648Y-76401292D03*
X199114648Y-78941292D03*
X199114648Y-81481292D03*
X214354648Y-81481292D03*
X214354648Y-78941292D03*
X214354648Y-76401292D03*
X214354648Y-73861292D03*
X214354648Y-71321292D03*
X214354648Y-68781292D03*
X214354648Y-66241292D03*
X214354648Y-63701292D03*
X214354648Y-61161292D03*
X214354648Y-58621292D03*
X214354648Y-56081292D03*
X214354648Y-53541292D03*
G04 #@! TA.AperFunction,SMDPad,CuDef*
D10*
G36*
X115784855Y-92732121D02*
G01*
X115889527Y-94729380D01*
X113592679Y-94849753D01*
X113488007Y-92852494D01*
X115784855Y-92732121D01*
G37*
G04 #@! TD.AperFunction*
G04 #@! TA.AperFunction,SMDPad,CuDef*
G36*
X103235193Y-95933306D02*
G01*
X103339865Y-97930565D01*
X101043017Y-98050938D01*
X100938345Y-96053679D01*
X103235193Y-95933306D01*
G37*
G04 #@! TD.AperFunction*
G04 #@! TA.AperFunction,SMDPad,CuDef*
G36*
X202195543Y-101151262D02*
G01*
X201287562Y-102933275D01*
X199238247Y-101889096D01*
X200146228Y-100107083D01*
X202195543Y-101151262D01*
G37*
G04 #@! TD.AperFunction*
G04 #@! TA.AperFunction,SMDPad,CuDef*
G36*
X214664462Y-104653784D02*
G01*
X213756481Y-106435797D01*
X211707166Y-105391618D01*
X212615147Y-103609605D01*
X214664462Y-104653784D01*
G37*
G04 #@! TD.AperFunction*
D13*
X178761041Y-56406267D03*
X191461041Y-53866267D03*
X159711049Y-54406285D03*
X172411049Y-51866285D03*
X159711056Y-35356263D03*
X172411056Y-32816263D03*
X140661032Y-51906303D03*
X153361032Y-49366303D03*
X153361020Y-30316301D03*
X140661020Y-32856301D03*
X121611032Y-54406293D03*
X134311032Y-51866293D03*
X121611034Y-35356295D03*
X134311034Y-32816295D03*
G04 #@! TA.AperFunction,SMDPad,CuDef*
D10*
G36*
X93769984Y-36657421D02*
G01*
X93874656Y-38654680D01*
X91577808Y-38775053D01*
X91473136Y-36777794D01*
X93769984Y-36657421D01*
G37*
G04 #@! TD.AperFunction*
G04 #@! TA.AperFunction,SMDPad,CuDef*
G36*
X81220322Y-39858606D02*
G01*
X81324994Y-41855865D01*
X79028146Y-41976238D01*
X78923474Y-39978979D01*
X81220322Y-39858606D01*
G37*
G04 #@! TD.AperFunction*
D22*
X224289609Y-66782148D03*
X224289609Y-60262148D03*
D28*
X214660025Y-90938974D03*
X213160025Y-95138974D03*
X221660025Y-90938974D03*
X218660025Y-90938974D03*
X221660025Y-96888974D03*
X218660025Y-96888974D03*
X214660025Y-96888974D03*
X213160025Y-92688974D03*
D29*
X82899122Y-114050275D03*
X134911062Y-59786284D03*
X140661041Y-59536279D03*
X142061035Y-47336284D03*
X102511250Y-73520473D03*
X123161038Y-69086307D03*
X142311020Y-66536295D03*
X160661068Y-68276276D03*
X179711039Y-71236307D03*
X123036045Y-88361269D03*
X142111055Y-85536296D03*
X161941074Y-87606279D03*
X180111046Y-90436294D03*
D30*
X116099539Y-65298024D03*
X156951037Y-76176276D03*
X156111041Y-61586267D03*
X156951030Y-80596289D03*
X144951049Y-99296305D03*
X161861027Y-41936298D03*
X123561045Y-41936285D03*
X103985450Y-50061194D03*
X101538803Y-50189377D03*
X117783129Y-81181692D03*
X116576980Y-57211976D03*
X114480909Y-52565304D03*
X179711061Y-101036308D03*
X123561039Y-45886296D03*
X129176661Y-111589518D03*
X149632929Y-109525004D03*
X193593704Y-116893024D03*
X225531000Y-74391524D03*
X181239813Y-43191645D03*
X142927749Y-38469568D03*
X144909824Y-42471632D03*
X125885218Y-59626230D03*
X141811055Y-58486296D03*
X164021031Y-59626288D03*
X180494456Y-64386274D03*
X182498578Y-61750411D03*
X183011048Y-80560398D03*
X163945165Y-78676281D03*
X144925182Y-76176284D03*
X125825195Y-78676258D03*
X125895199Y-97726262D03*
X141041033Y-96136268D03*
X163961071Y-101890383D03*
X163945179Y-97726277D03*
X183005186Y-99676273D03*
X101290219Y-45445893D03*
X101460169Y-48688566D03*
X84681510Y-45905744D03*
X85648616Y-64931201D03*
X102788338Y-68298834D03*
X86557396Y-83418993D03*
X101632507Y-84669856D03*
X106585327Y-82910120D03*
X87739565Y-102973906D03*
X106701444Y-101940099D03*
X126762721Y-102347013D03*
X151702720Y-108097003D03*
X172442758Y-112533005D03*
X198278620Y-115682296D03*
X195065055Y-114005276D03*
X198775761Y-108702932D03*
X212639273Y-128492918D03*
X219390606Y-122656074D03*
X218140241Y-89272782D03*
X206618974Y-89272784D03*
D29*
X206179601Y-82492161D03*
D30*
X195657600Y-107114157D03*
X118705718Y-98786036D03*
X214988388Y-123616996D03*
X203051846Y-89677073D03*
X218140232Y-75078681D03*
X195625491Y-99673427D03*
X189361039Y-46936281D03*
X135711054Y-65286295D03*
X154011046Y-82936299D03*
X186361040Y-50086296D03*
X156111062Y-83986296D03*
X114110701Y-86581286D03*
X117156509Y-86421697D03*
X92808867Y-49845818D03*
X137061000Y-81436295D03*
X190261058Y-65436272D03*
X173111054Y-65586267D03*
X173061036Y-62386280D03*
X157061062Y-59286281D03*
X162561041Y-65586287D03*
X112143683Y-45227577D03*
X122311049Y-40086294D03*
X133801070Y-40576275D03*
X137011001Y-40486288D03*
X153851056Y-41546289D03*
X156161051Y-42586285D03*
X204280206Y-59912983D03*
X193986077Y-85961273D03*
X96068932Y-67148901D03*
X122061064Y-66086267D03*
X188501043Y-42576291D03*
X156111066Y-95636273D03*
X153436034Y-56586282D03*
X118495706Y-102899171D03*
X95076759Y-85475937D03*
X97024079Y-85373904D03*
X153201039Y-98596283D03*
X172336039Y-41711278D03*
X173736044Y-41711263D03*
X184505010Y-112840214D03*
X151951074Y-107063134D03*
X214489286Y-125806311D03*
X190911033Y-67141719D03*
X219757306Y-129832905D03*
X205992971Y-117327023D03*
X117922472Y-63633637D03*
X193986080Y-91221366D03*
X134102689Y-44031427D03*
X131261032Y-64036300D03*
X169434452Y-65586266D03*
X188459564Y-85937733D03*
X154011048Y-78086288D03*
X134139817Y-82371633D03*
X133969826Y-102001639D03*
X172969808Y-101161629D03*
X191761035Y-100809643D03*
X90343901Y-49623679D03*
X93804323Y-68477359D03*
X113398366Y-66707007D03*
X108996536Y-63707600D03*
X96093003Y-102594341D03*
X112355117Y-105628454D03*
X138695700Y-109087026D03*
X160809186Y-110170536D03*
X208966499Y-112447536D03*
X223819097Y-134223666D03*
X229632946Y-127488856D03*
X195261904Y-67140863D03*
X220868628Y-107428038D03*
D29*
X209379605Y-82492150D03*
D30*
X202536170Y-59655590D03*
X211948787Y-59912973D03*
X195308723Y-50481281D03*
X193986058Y-100805701D03*
X175611046Y-101153599D03*
X172541855Y-82379909D03*
X132815903Y-104137812D03*
X204408520Y-120436610D03*
X204123794Y-123038439D03*
X175611057Y-82076871D03*
X195298204Y-58636105D03*
D29*
X219724728Y-64897029D03*
X219734726Y-82287023D03*
X205170460Y-63701291D03*
X205179601Y-81812153D03*
X212243603Y-82458162D03*
X218984731Y-67437024D03*
X219339608Y-83682156D03*
X210430495Y-66241265D03*
X208331235Y-82510540D03*
X197372326Y-68781272D03*
X197358537Y-51970483D03*
X120561007Y-67636272D03*
X194727728Y-71021279D03*
X194737721Y-68751285D03*
X140211041Y-84136290D03*
X85131666Y-89652156D03*
X158661036Y-85636275D03*
X194703828Y-86724890D03*
X194703800Y-92023613D03*
X221659640Y-108806704D03*
X194677723Y-73861278D03*
X139611076Y-102086273D03*
X177701049Y-106966468D03*
X194471164Y-110390122D03*
X196650028Y-93228974D03*
X120575018Y-106920848D03*
X141255672Y-104735887D03*
X98359221Y-103751408D03*
X193746205Y-115022814D03*
X206883857Y-120986356D03*
X192520012Y-79954296D03*
X88906777Y-112055323D03*
X203816344Y-121310520D03*
X203279610Y-54992151D03*
X207647014Y-122173350D03*
X218353335Y-105243138D03*
X205978265Y-94840220D03*
X220359606Y-64752155D03*
X95872974Y-113115011D03*
X98740250Y-114421709D03*
X91500777Y-35394465D03*
X211858890Y-67437024D03*
X92733634Y-55001795D03*
X93723274Y-73981029D03*
X94720271Y-93004917D03*
X95394802Y-73392741D03*
X85548450Y-107853123D03*
X87130203Y-113578203D03*
X110624534Y-34392234D03*
X211700372Y-69977031D03*
X116422344Y-90565776D03*
X111907321Y-53996971D03*
X113556743Y-72190581D03*
X114572082Y-91563999D03*
X195339935Y-87408778D03*
X195329903Y-69988848D03*
X133511045Y-30586292D03*
X133566045Y-50081277D03*
X133406064Y-69131276D03*
X133611028Y-88136273D03*
X142331136Y-111979925D03*
X211590386Y-72517025D03*
X194822962Y-104738795D03*
X136769605Y-103952152D03*
X196371187Y-72517007D03*
X152061036Y-27736283D03*
X211530392Y-75057012D03*
X152716032Y-47581286D03*
X152561054Y-85636294D03*
X153361048Y-66786261D03*
X150572368Y-121155503D03*
X163769390Y-114617693D03*
X154711029Y-91867674D03*
X196519929Y-88048779D03*
X196509920Y-75058881D03*
X171211060Y-30386291D03*
X171756050Y-50081270D03*
X171666042Y-69131277D03*
X171716059Y-88181281D03*
X170844200Y-122621466D03*
X174648621Y-89966267D03*
X193222702Y-88706311D03*
X193212696Y-78276299D03*
X211799767Y-77597029D03*
X190561043Y-32536270D03*
X190716031Y-90181278D03*
X192261074Y-48136270D03*
X191411042Y-70786274D03*
X192461057Y-60786293D03*
X188785095Y-127801149D03*
X191461057Y-85196393D03*
X197100308Y-80208697D03*
X212144726Y-80137020D03*
X185713220Y-48136257D03*
X197102352Y-85196394D03*
X205713937Y-137637757D03*
X214999357Y-106212387D03*
X204393640Y-97167663D03*
X213859236Y-101527059D03*
X218652476Y-108073749D03*
X236118983Y-117732106D03*
X211790470Y-81481281D03*
X211798902Y-64896985D03*
X203264968Y-117437357D03*
X203084481Y-64897024D03*
X217914177Y-104224412D03*
X206445706Y-93944840D03*
X210885447Y-118019066D03*
X208066738Y-115740721D03*
X203779604Y-80892156D03*
X212760940Y-118132536D03*
X219695988Y-104520181D03*
X206899528Y-93076198D03*
X206470421Y-118873674D03*
X162194468Y-60986298D03*
X171389819Y-80741635D03*
X123949813Y-61701641D03*
X133539834Y-80721635D03*
X177311420Y-54335874D03*
X183961040Y-50786295D03*
X188511027Y-46636291D03*
X191179823Y-44621620D03*
X181295180Y-62986285D03*
X166511038Y-48436279D03*
X175029752Y-51567564D03*
X162979825Y-40661631D03*
X171423757Y-60881502D03*
X144611042Y-55886268D03*
X139561055Y-56836266D03*
X152355166Y-40836293D03*
X150411066Y-42522884D03*
X143369814Y-59181642D03*
X98021229Y-56632322D03*
X106520862Y-52581934D03*
X111242443Y-46584733D03*
X109385988Y-48974136D03*
X103073073Y-66109042D03*
X104026117Y-63085014D03*
X138136536Y-53410761D03*
X124961049Y-40836281D03*
X133411039Y-61690417D03*
X128611022Y-48398460D03*
X97021812Y-56683923D03*
X83061119Y-48061636D03*
X93415817Y-66605145D03*
X87179085Y-53972579D03*
X209028533Y-131175857D03*
X211178467Y-128658592D03*
X195574532Y-117111117D03*
X195965829Y-120465822D03*
X221262651Y-132347467D03*
X221943711Y-134782660D03*
X214522314Y-128536236D03*
X216925602Y-128971303D03*
X218321907Y-127336415D03*
X223921649Y-132101902D03*
X226220699Y-129410062D03*
X228100150Y-127389603D03*
X207895157Y-113360698D03*
X220547280Y-121635863D03*
X190709821Y-101721627D03*
X199476476Y-109486407D03*
X190395176Y-62986283D03*
X188511070Y-65730380D03*
X181269812Y-82091639D03*
X181169826Y-44661639D03*
X173925145Y-42736297D03*
X171255167Y-43336276D03*
X162239816Y-80721638D03*
X171599827Y-99771639D03*
X175904365Y-101982701D03*
X162345175Y-100486271D03*
X183013446Y-113921908D03*
X181602755Y-110875568D03*
X175894344Y-108684594D03*
X162922729Y-111031362D03*
X173867585Y-111726191D03*
X152375182Y-96536259D03*
X151652719Y-109447019D03*
X150419611Y-99182153D03*
X147711034Y-88736277D03*
X152559815Y-78251633D03*
X150411061Y-80936249D03*
X143259819Y-96561641D03*
X152379809Y-60841636D03*
X152379814Y-58471646D03*
X143129819Y-78251644D03*
X135511033Y-40586290D03*
X143064476Y-40816303D03*
X133265156Y-41936282D03*
X124099816Y-80721622D03*
X133529819Y-99801621D03*
X140557810Y-108471659D03*
X137078589Y-104896934D03*
X124239817Y-99801635D03*
X139302411Y-110746001D03*
X125560366Y-106404662D03*
X129812409Y-112752755D03*
X117946732Y-105498998D03*
X114577345Y-104331238D03*
X122848292Y-106294706D03*
X109420809Y-91483451D03*
X113072825Y-85332028D03*
X110422570Y-86904769D03*
X105073208Y-104847444D03*
X106487479Y-100859853D03*
X84020274Y-67127570D03*
X94068916Y-86327987D03*
X89827631Y-90407425D03*
X85118878Y-85415139D03*
X86918736Y-89358221D03*
X95350360Y-103936927D03*
X85847171Y-104434991D03*
X213947129Y-145997809D03*
X107503516Y-77064059D03*
X108513692Y-72454878D03*
X111990798Y-64912558D03*
X112330569Y-67060836D03*
X105502591Y-81875356D03*
X103884053Y-84413569D03*
X102204851Y-47058369D03*
X92357310Y-47554421D03*
X93719979Y-46041041D03*
X190399824Y-83421636D03*
X181449817Y-101731635D03*
D30*
X211860978Y-55651523D03*
X208140989Y-56361530D03*
X207430989Y-52121517D03*
X210360988Y-51671537D03*
X223958262Y-72820235D03*
X217226724Y-61145032D03*
X217236727Y-72085027D03*
X217236733Y-80885026D03*
D31*
X198652250Y-87496261D02*
X198652257Y-87583009D01*
D32*
X83345254Y-122563596D02*
X83252389Y-120791036D01*
X84246005Y-119687511D02*
X83252389Y-120791036D01*
X84160698Y-118059759D02*
X84246005Y-119687511D01*
X84002652Y-115043906D02*
X82899122Y-114050275D01*
X84160698Y-118059759D02*
X84002652Y-115043906D01*
X79306201Y-45371347D02*
X79213318Y-43598793D01*
X80124222Y-40917471D02*
X80183365Y-42045884D01*
X80206931Y-42495235D02*
X79213318Y-43598793D01*
X80124222Y-40917471D02*
X80206931Y-42495235D01*
X98362697Y-40792741D02*
X99148128Y-39920441D01*
X96649371Y-40391848D02*
X96742285Y-42164414D01*
X98826356Y-40277775D02*
X99148116Y-39920423D01*
X96649338Y-40391870D02*
X98826356Y-40277775D01*
X120561058Y-38036286D02*
X120561043Y-39811278D01*
X121611064Y-36986279D02*
X120561058Y-38036286D01*
X121611054Y-35356284D02*
X121611064Y-36986279D01*
X139611030Y-37311303D02*
X139611070Y-35536268D01*
X140661030Y-34486281D02*
X139611070Y-35536268D01*
X140661071Y-32856274D02*
X140661030Y-34486281D01*
X158781060Y-37536271D02*
X158781059Y-39311269D01*
X159831044Y-36486305D02*
X158781060Y-37536271D01*
X159711049Y-35356292D02*
X159711066Y-36486302D01*
X159711045Y-36606279D02*
X158781060Y-37536271D01*
X159711049Y-35356292D02*
X159711045Y-36606279D01*
X175591046Y-37696258D02*
X175591065Y-39471272D01*
X178281060Y-37836278D02*
X178761064Y-37356254D01*
X178761039Y-37356299D02*
X176391011Y-37356302D01*
X175931016Y-37356301D02*
X175591046Y-37696258D01*
X178761030Y-37356305D02*
X175931016Y-37356301D01*
X81121257Y-59941327D02*
X81180365Y-61069787D01*
X80212906Y-62672610D02*
X80305816Y-64445165D01*
X81206534Y-61569067D02*
X80212906Y-62672610D01*
X81121257Y-59941327D02*
X81206534Y-61569067D01*
X97725988Y-60553161D02*
X97818890Y-62325698D01*
X100175477Y-59523527D02*
X100145112Y-58944306D01*
X99126515Y-58997724D02*
X97725988Y-60553161D01*
X100145112Y-58944306D02*
X99126515Y-58997724D01*
X120561047Y-57086254D02*
X120561061Y-58861291D01*
X121611025Y-54406282D02*
X121611057Y-56036275D01*
X120561047Y-57086254D02*
X121611057Y-56036275D01*
X140661035Y-51906274D02*
X140661081Y-52886278D01*
X132161063Y-65786274D02*
X130386076Y-65786272D01*
X132161063Y-65786274D02*
X134511028Y-63436281D01*
X134511028Y-63436281D02*
X134511002Y-60949857D01*
X134511002Y-60949857D02*
X134911059Y-60549864D01*
X134911059Y-60549864D02*
X134911062Y-59786284D01*
X140661041Y-59536279D02*
X140661035Y-51906274D01*
X140661035Y-51906274D02*
X140661062Y-50536316D01*
X142061068Y-49136276D02*
X142061035Y-47336284D01*
X140661062Y-50536316D02*
X142061068Y-49136276D01*
X158661060Y-58361282D02*
X158661019Y-56586276D01*
X159711041Y-55536273D02*
X158661019Y-56586276D01*
X159711045Y-54406286D02*
X159711041Y-55536273D01*
X175711033Y-59611273D02*
X175711034Y-57836271D01*
X177141063Y-56406280D02*
X175711063Y-57836273D01*
X178761033Y-56406283D02*
X177141063Y-56406280D01*
X83443059Y-77493844D02*
X82118225Y-78965218D01*
X83303294Y-74827575D02*
X83443059Y-77493844D01*
X83918481Y-73668754D02*
X83880561Y-72944763D01*
X83303294Y-74827575D02*
X83942042Y-74118137D01*
X82107979Y-73037631D02*
X83880561Y-72944763D01*
X83942042Y-74118137D02*
X83880561Y-72944763D01*
X102656199Y-76286700D02*
X101142134Y-77968219D01*
X102511250Y-73520473D02*
X102656199Y-76286700D01*
X98815896Y-81349631D02*
X98723000Y-79577033D01*
X99650390Y-78547108D02*
X98723000Y-79577033D01*
X101218232Y-78464949D02*
X99650390Y-78547108D01*
X123161019Y-71906291D02*
X121611040Y-73456292D01*
X123161038Y-69086307D02*
X123161019Y-71906291D01*
X120561051Y-77961271D02*
X120561060Y-76186275D01*
X121611037Y-75136254D02*
X120561060Y-76186275D01*
X121611040Y-73456292D02*
X121611037Y-75136254D01*
X142311051Y-69306276D02*
X140661044Y-70956268D01*
X142311020Y-66536295D02*
X142311051Y-69306276D01*
X139611038Y-73686294D02*
X139611017Y-75461303D01*
X140661037Y-72636263D02*
X139611038Y-73686294D01*
X140661044Y-70956268D02*
X140661037Y-72636263D01*
X159711031Y-74586267D02*
X158661038Y-75636264D01*
X159711033Y-73456271D02*
X159711031Y-74586267D01*
X158661038Y-75636264D02*
X158661059Y-77411264D01*
X159711033Y-73456271D02*
X159711045Y-69226275D01*
X159711045Y-69226275D02*
X160661068Y-68276276D01*
X179711068Y-74506281D02*
X178761047Y-75456275D01*
X179711039Y-71236307D02*
X179711068Y-74506281D01*
X177711066Y-79936259D02*
X177711034Y-78161292D01*
X178761040Y-77111282D02*
X177711034Y-78161292D01*
X178761047Y-75456275D02*
X178761040Y-77111282D01*
X99722397Y-99602198D02*
X99815327Y-101374759D01*
X102069218Y-96995772D02*
X102139128Y-96992105D01*
X99722397Y-99602198D02*
X102069218Y-96995772D01*
X123036052Y-91081298D02*
X121611052Y-92506301D01*
X123036045Y-88361269D02*
X123036052Y-91081298D01*
X121611055Y-93636281D02*
X120561026Y-94686280D01*
X121611052Y-92506301D02*
X121611055Y-93636281D01*
X120561043Y-97061291D02*
X120561063Y-95286274D01*
X142111035Y-88556278D02*
X140661047Y-90006316D01*
X142111055Y-85536296D02*
X142111035Y-88556278D01*
X139611048Y-92736281D02*
X139611056Y-94511295D01*
X140661023Y-91686314D02*
X139611048Y-92736281D01*
X140661047Y-90006316D02*
X140661023Y-91686314D01*
X161161057Y-91056251D02*
X159711066Y-92506269D01*
X161161056Y-88386281D02*
X161161057Y-91056251D01*
X161941074Y-87606279D02*
X161161056Y-88386281D01*
X158661055Y-95186275D02*
X158661037Y-96961277D01*
X159711058Y-94136266D02*
X158661055Y-95186275D01*
X159711066Y-92506269D02*
X159711058Y-94136266D01*
X180111064Y-93156259D02*
X178761039Y-94506286D01*
X180111046Y-90436294D02*
X180111064Y-93156259D01*
X177711033Y-97236287D02*
X177711044Y-99011284D01*
X178761029Y-96186283D02*
X177711033Y-97236287D01*
X178761039Y-94506286D02*
X178761029Y-96186283D01*
D31*
X116099539Y-65298024D02*
X116951175Y-64352167D01*
X116951175Y-64352167D02*
X116576980Y-57211976D01*
X156951037Y-76176276D02*
X156951041Y-66226246D01*
X156951041Y-66226246D02*
X156111062Y-65386284D01*
X156111062Y-65386284D02*
X156111041Y-61586267D01*
X156951037Y-76176276D02*
X156951030Y-80596289D01*
X123561020Y-43286283D02*
X123561045Y-41936285D01*
X123561045Y-41936285D02*
X123561039Y-45886296D01*
X101538803Y-50189377D02*
X101460169Y-48688566D01*
X116425196Y-54315941D02*
X114480909Y-52565304D01*
X116576980Y-57211976D02*
X116425196Y-54315941D01*
X148792928Y-108685002D02*
X149632929Y-109525004D01*
X193593704Y-116893024D02*
X195065055Y-114005276D01*
X195282520Y-113578459D02*
X196771631Y-110655940D01*
X221930983Y-70651542D02*
X221991000Y-70591529D01*
X221480988Y-70651530D02*
X221930983Y-70651542D01*
X224359782Y-70591525D02*
X225530981Y-71762716D01*
X225530981Y-71762716D02*
X225531000Y-74391524D01*
X221991000Y-70591529D02*
X224359782Y-70591525D01*
X183011065Y-43936286D02*
X181984482Y-43936293D01*
X181984482Y-43936293D02*
X181239813Y-43191645D01*
X163961040Y-41936298D02*
X163961057Y-41936282D01*
X161861027Y-41936298D02*
X163961040Y-41936298D01*
X143944352Y-38469571D02*
X144911065Y-39436285D01*
X142927749Y-38469568D02*
X143944352Y-38469571D01*
X142927749Y-38469568D02*
X141689832Y-39707502D01*
X141689832Y-39707502D02*
X141689822Y-41191638D01*
X141689822Y-41191638D02*
X142969818Y-42471644D01*
X142969818Y-42471644D02*
X144909824Y-42471632D01*
X123561042Y-41936292D02*
X123561045Y-41936285D01*
X125861049Y-41936296D02*
X123561042Y-41936292D01*
X125885213Y-60962102D02*
X125861056Y-60986271D01*
X125885218Y-59626230D02*
X125885213Y-60962102D01*
X144214308Y-57789573D02*
X144911039Y-58486279D01*
X142507752Y-57789574D02*
X144214308Y-57789573D01*
X142507752Y-57789574D02*
X141811055Y-58486296D01*
X164021028Y-60926306D02*
X163961045Y-60986295D01*
X164021031Y-59626288D02*
X164021028Y-60926306D01*
X183011087Y-62262902D02*
X183011077Y-62986283D01*
X182498578Y-61750411D02*
X183011087Y-62262902D01*
X183011052Y-82036272D02*
X183011048Y-80560398D01*
X163945193Y-80020396D02*
X163961054Y-80036283D01*
X163945165Y-78676281D02*
X163945193Y-80020396D01*
X144925177Y-77522161D02*
X144911045Y-77536290D01*
X144925182Y-76176284D02*
X144925177Y-77522161D01*
X125825205Y-80000417D02*
X125861035Y-80036272D01*
X125825195Y-78676258D02*
X125825205Y-80000417D01*
X125895192Y-99052154D02*
X125861034Y-99086314D01*
X125895199Y-97726262D02*
X125895192Y-99052154D01*
X144911025Y-96536262D02*
X144911051Y-96342857D01*
X144911051Y-96342857D02*
X143939810Y-95371633D01*
X141805646Y-95371635D02*
X141041033Y-96136268D01*
X143939810Y-95371633D02*
X141805646Y-95371635D01*
X163961071Y-101890383D02*
X162138561Y-101890395D01*
X162138561Y-101890395D02*
X161249818Y-101001643D01*
X161249818Y-101001643D02*
X161249811Y-99761634D01*
X161925168Y-99086273D02*
X163961080Y-99086275D01*
X161249811Y-99761634D02*
X161925168Y-99086273D01*
X163945179Y-99070380D02*
X163961080Y-99086275D01*
X163945179Y-97726277D02*
X163945179Y-99070380D01*
X179711067Y-102586285D02*
X179711061Y-101036308D01*
X180411043Y-103286265D02*
X179711067Y-102586285D01*
X181019383Y-105198213D02*
X181019373Y-103894606D01*
X181019373Y-103894606D02*
X180411043Y-103286265D01*
X183005178Y-101030393D02*
X183011067Y-101036275D01*
X183005186Y-99676273D02*
X183005178Y-101030393D01*
X101290224Y-45445905D02*
X101290219Y-45445893D01*
X101339954Y-46394621D02*
X101290224Y-45445905D01*
X102738230Y-45370011D02*
X103736659Y-46268995D01*
X101290219Y-45445893D02*
X102738230Y-45370011D01*
X101460169Y-48688566D02*
X101339954Y-46394621D01*
X84750598Y-47224006D02*
X84712803Y-47265999D01*
X84681510Y-45905744D02*
X84750598Y-47224006D01*
X85719260Y-66279316D02*
X85709749Y-66289905D01*
X85648616Y-64931201D02*
X85719260Y-66279316D01*
X104733676Y-65292875D02*
X104295117Y-65315867D01*
X104295117Y-65315867D02*
X103841221Y-64907181D01*
X103841221Y-64907181D02*
X102842595Y-64959520D01*
X102842595Y-64959520D02*
X102047708Y-65842344D01*
X102146146Y-67720607D02*
X102788338Y-68298834D01*
X102076496Y-66391585D02*
X102146146Y-67720607D01*
X102076496Y-66391585D02*
X102091200Y-66672004D01*
X102047708Y-65842344D02*
X102076496Y-66391585D01*
X86557396Y-83418993D02*
X86654204Y-85266452D01*
X103050179Y-83095385D02*
X101632507Y-84669856D01*
X105659522Y-82959483D02*
X105660313Y-82958603D01*
X105730676Y-84316791D02*
X105659522Y-82959483D01*
X106585327Y-82910120D02*
X105660313Y-82958603D01*
X105660313Y-82958603D02*
X103050179Y-83095385D01*
X87805126Y-104225135D02*
X87703784Y-104337670D01*
X87739565Y-102973906D02*
X87805126Y-104225135D01*
X106772253Y-103291168D02*
X106727677Y-103340688D01*
X106701444Y-101940099D02*
X106772253Y-103291168D01*
X129176661Y-111589518D02*
X129997990Y-111414951D01*
X130666460Y-111849036D02*
X131651277Y-111639715D01*
X129997990Y-111414951D02*
X130666460Y-111849036D01*
X126762725Y-104157010D02*
X126762732Y-105352547D01*
X126762721Y-102347013D02*
X126762725Y-104157010D01*
X153531418Y-108770555D02*
X152376280Y-108770552D01*
X152376280Y-108770552D02*
X151702720Y-108097003D01*
X175899562Y-110774246D02*
X176133849Y-109798389D01*
X176133849Y-109798389D02*
X176871395Y-109346406D01*
X172442758Y-112533005D02*
X172820930Y-110957767D01*
X173902712Y-110294850D02*
X175899562Y-110774246D01*
X172820930Y-110957767D02*
X173902712Y-110294850D01*
X179180985Y-109900890D02*
X180365411Y-110185248D01*
X179180985Y-109900890D02*
X180020798Y-110102508D01*
X176871395Y-109346406D02*
X179180985Y-109900890D01*
X197172321Y-117853545D02*
X197200230Y-117939452D01*
X198278620Y-115682296D02*
X197172321Y-117853545D01*
X195065055Y-114005276D02*
X195282520Y-113578459D01*
X201517061Y-109311155D02*
X199953250Y-108514362D01*
X197980849Y-110263041D02*
X197396451Y-110452928D01*
X196771631Y-110655940D02*
X197396451Y-110452928D01*
X198775761Y-108702932D02*
X197980849Y-110263041D01*
X197396451Y-110452928D02*
X197806668Y-110319626D01*
X199720739Y-108395889D02*
X199953250Y-108514362D01*
X198775761Y-108702932D02*
X199720739Y-108395889D01*
X213333350Y-125621613D02*
X213395016Y-126404869D01*
X213698901Y-125193604D02*
X213333350Y-125621613D01*
X214628662Y-124105038D02*
X213698901Y-125193604D01*
X215027035Y-127765183D02*
X215029870Y-127801190D01*
X213962305Y-126943860D02*
X214020687Y-126939274D01*
X212639273Y-128492918D02*
X213962305Y-126943860D01*
X213395016Y-126404869D02*
X214020687Y-126939274D01*
X214020687Y-126939274D02*
X215029870Y-127801190D01*
X215693317Y-129446093D02*
X215602342Y-128290120D01*
X216171361Y-129854379D02*
X215693317Y-129446093D01*
X215029870Y-127801190D02*
X215602342Y-128290120D01*
X219390606Y-122656074D02*
X215027035Y-127765183D01*
X222397320Y-122505174D02*
X222493559Y-122392466D01*
X222493559Y-122392466D02*
X222437934Y-121685662D01*
X220116722Y-120671106D02*
X219308833Y-121617024D01*
X222437934Y-121685662D02*
X221154419Y-120589440D01*
X219326233Y-121838349D02*
X219390606Y-122656074D01*
X221154419Y-120589440D02*
X220116722Y-120671106D01*
X219308833Y-121617024D02*
X219326233Y-121838349D01*
X181009371Y-109781982D02*
X180987011Y-109804334D01*
X181009365Y-105934612D02*
X181009371Y-109781982D01*
X180365411Y-110185248D02*
X180987011Y-109804334D01*
X181009363Y-105634621D02*
X181009381Y-104898209D01*
X181009355Y-106327704D02*
X181009363Y-105634621D01*
X144951031Y-101843111D02*
X145980956Y-102873023D01*
X145494216Y-102386271D02*
X145980956Y-102873023D01*
X145980956Y-102873023D02*
X148802894Y-105695006D01*
X218140240Y-82372786D02*
X218140240Y-84272789D01*
X218140240Y-82372786D02*
X218140232Y-82772791D01*
X218140240Y-84272789D02*
X219479609Y-85612156D01*
X219479610Y-87933424D02*
X218140241Y-89272782D01*
X219479609Y-85612156D02*
X219479610Y-87933424D01*
D32*
X206618974Y-89272784D02*
X206618974Y-87351512D01*
X206183595Y-83731395D02*
X205240361Y-83731389D01*
X205240361Y-83731389D02*
X204879611Y-84092149D01*
X204879598Y-85612155D02*
X205379611Y-86112156D01*
X204879605Y-84492154D02*
X204879604Y-85292154D01*
X205379611Y-86112156D02*
X205079592Y-85812153D01*
X206618974Y-87351512D02*
X205379611Y-86112156D01*
X204879611Y-84092149D02*
X204879605Y-84492154D01*
X206179605Y-83727400D02*
X206183595Y-83731395D01*
X206179601Y-82492161D02*
X206179605Y-83727400D01*
D31*
X118705718Y-98786036D02*
X117783129Y-81181692D01*
X214855293Y-123660238D02*
X214988388Y-123616996D01*
X214628662Y-124105038D02*
X214855293Y-123660238D01*
X144951043Y-99296325D02*
X144951049Y-99296305D01*
X144951031Y-101843111D02*
X144951043Y-99296325D01*
X201142735Y-92479019D02*
X203050249Y-90571518D01*
X203050249Y-90571518D02*
X203050237Y-89678680D01*
X195625489Y-105456273D02*
X195625491Y-99673427D01*
X195625487Y-107098037D02*
X195625489Y-105456273D01*
X203050237Y-89678680D02*
X203051846Y-89677073D01*
X195611109Y-98813657D02*
X197946523Y-92729672D01*
X197946523Y-92729672D02*
X198042729Y-92479026D01*
X198042729Y-92479026D02*
X201142735Y-92479019D01*
X218140232Y-75078681D02*
X218140240Y-82372786D01*
X195611109Y-99659043D02*
X195625491Y-99673427D01*
X195611109Y-98813657D02*
X195611109Y-99659043D01*
X128025209Y-106172413D02*
X126762732Y-105352547D01*
X128280050Y-107371330D02*
X128025209Y-106172413D01*
X128280050Y-107371330D02*
X128066401Y-106366217D01*
X129176661Y-111589518D02*
X128280050Y-107371330D01*
X148802895Y-108675027D02*
X148792928Y-108685002D01*
X148802894Y-105695006D02*
X148802895Y-108675027D01*
D32*
X204879604Y-85292154D02*
X204879598Y-85612155D01*
X215653448Y-59817019D02*
X215653429Y-62357020D01*
D31*
X188111053Y-48186247D02*
X189361039Y-46936281D01*
X101494512Y-72271964D02*
X101133386Y-65381430D01*
X137061032Y-66636267D02*
X135711054Y-65286295D01*
X137061000Y-81436295D02*
X137061032Y-66636267D01*
X190911053Y-66086297D02*
X190261058Y-65436272D01*
X173061068Y-65536258D02*
X173111054Y-65586267D01*
X173061036Y-62386280D02*
X173061068Y-65536258D01*
X111344947Y-44508400D02*
X112143683Y-45227577D01*
X109147956Y-44623527D02*
X111344947Y-44508400D01*
X112143683Y-45227577D02*
X112261437Y-47474506D01*
X131351051Y-40576256D02*
X127051049Y-40576273D01*
X127051049Y-40576273D02*
X126161026Y-39686269D01*
X126161026Y-39686269D02*
X122711032Y-39686272D01*
X122711032Y-39686272D02*
X122311049Y-40086294D01*
X131361026Y-40586313D02*
X131351051Y-40576256D01*
X131351051Y-40576256D02*
X133801070Y-40576275D01*
X150471040Y-38076262D02*
X152881016Y-38076266D01*
X95092924Y-55213643D02*
X95102942Y-55213113D01*
X93389848Y-53670643D02*
X95092440Y-55203611D01*
X89215607Y-53889411D02*
X93389848Y-53670643D01*
X95092440Y-55203611D02*
X95092924Y-55213643D01*
X88269722Y-53037738D02*
X89215607Y-53889411D01*
X95102942Y-55213113D02*
X95460247Y-55534839D01*
X92808867Y-49845818D02*
X91767957Y-51001867D01*
X99763699Y-44023842D02*
X95569485Y-44243648D01*
X95569485Y-44243648D02*
X95001728Y-44874236D01*
X95127277Y-47270941D02*
X95001728Y-44874236D01*
X92808867Y-49845818D02*
X95127277Y-47270941D01*
X193986067Y-87661300D02*
X193986077Y-85961273D01*
X193986067Y-87661300D02*
X193986075Y-86661698D01*
X95485395Y-56014183D02*
X95506286Y-56413654D01*
X95460247Y-55534839D02*
X95485395Y-56014183D01*
X95485395Y-56014183D02*
X95945948Y-64802131D01*
X98442712Y-75661335D02*
X101494512Y-72271964D01*
X97993202Y-76160538D02*
X98442712Y-75661335D01*
X96621055Y-77684461D02*
X98442712Y-75661335D01*
X97105218Y-86921760D02*
X96621055Y-77684461D01*
X95875001Y-88288000D02*
X97105218Y-86921760D01*
X98041919Y-93331542D02*
X96045095Y-91533564D01*
X96045095Y-91533564D02*
X95875001Y-88288000D01*
X98041919Y-93331542D02*
X98180596Y-95977899D01*
X98180596Y-95977899D02*
X97045074Y-97239043D01*
X97162818Y-99485988D02*
X97243909Y-101033842D01*
X97045074Y-97239043D02*
X97162818Y-99485988D01*
X97314573Y-102382006D02*
X97400946Y-104029743D01*
X142247856Y-37386261D02*
X140397898Y-39236301D01*
X140397898Y-39236301D02*
X138411077Y-39236243D01*
X145651041Y-38076276D02*
X144961061Y-37386314D01*
X144961061Y-37386314D02*
X142247856Y-37386261D01*
X150471040Y-38076262D02*
X145651041Y-38076276D01*
X117802837Y-98754771D02*
X117156509Y-86421697D01*
X156111066Y-95636273D02*
X156111062Y-83986296D01*
X117234533Y-101763623D02*
X118495706Y-102899171D01*
X117116762Y-99516701D02*
X117234533Y-101763623D01*
X117116762Y-99516701D02*
X117802837Y-98754771D01*
X112738566Y-88105185D02*
X114110701Y-86581286D01*
X96135193Y-64591926D02*
X95945948Y-64802131D01*
X100029863Y-64387830D02*
X96135193Y-64591926D01*
X95945948Y-64802131D02*
X96068932Y-67148901D01*
X101133386Y-65381430D02*
X100029863Y-64387830D01*
X109147956Y-44623527D02*
X104654128Y-44859013D01*
X104007788Y-44277065D02*
X100262914Y-44473346D01*
X104654128Y-44859013D02*
X104007788Y-44277065D01*
X100262914Y-44473346D02*
X99763699Y-44023842D01*
X94627681Y-87652421D02*
X92343150Y-87772163D01*
X95159787Y-87061425D02*
X94627681Y-87652421D01*
X95076759Y-85475937D02*
X95159787Y-87061425D01*
X171511043Y-44836273D02*
X170661051Y-44836288D01*
X172336038Y-44011266D02*
X171511043Y-44836273D01*
X172336039Y-41711278D02*
X172336038Y-44011266D01*
X193986067Y-87661300D02*
X193986076Y-89022354D01*
X190911057Y-66586284D02*
X190911033Y-67141719D01*
X190911057Y-66586284D02*
X190911053Y-66086297D01*
X190911053Y-67136294D02*
X190911057Y-66586284D01*
X134266037Y-107011345D02*
X137249405Y-106377238D01*
X137249405Y-106377238D02*
X138259071Y-107032926D01*
X198423675Y-60595438D02*
X198423654Y-59312230D01*
X198423654Y-59312230D02*
X199114634Y-58621281D01*
X199114650Y-61161290D02*
X198989531Y-61161276D01*
X198989531Y-61161276D02*
X198423675Y-60595438D01*
X138259071Y-107032926D02*
X138695700Y-109087026D01*
X206350661Y-116624965D02*
X205992971Y-117327023D01*
X134266037Y-107011345D02*
X133670449Y-107137949D01*
X222234052Y-126932975D02*
X220530174Y-128928041D01*
X220530174Y-128928041D02*
X219757306Y-129832905D01*
X193986089Y-68416663D02*
X195261904Y-67140863D01*
X193986077Y-85961273D02*
X193986089Y-68416663D01*
X204280193Y-59912982D02*
X204280206Y-59912983D01*
X193986076Y-89022354D02*
X193986080Y-91221366D01*
X118035364Y-65241360D02*
X117952492Y-63660701D01*
X117156509Y-86421697D02*
X116155874Y-67328700D01*
X117952492Y-63660701D02*
X117922472Y-63633637D01*
X116155874Y-67328700D02*
X118035364Y-65241360D01*
X175611055Y-82379905D02*
X175611041Y-85136265D01*
X191761007Y-102436280D02*
X191761035Y-100809643D01*
X193986070Y-97161274D02*
X193986080Y-91221366D01*
X186358223Y-110986988D02*
X186306841Y-111038385D01*
X186358212Y-108386276D02*
X186358223Y-110986988D01*
X186306841Y-111038385D02*
X184505010Y-112840214D01*
X202145499Y-52663580D02*
X200413428Y-50931537D01*
X202145501Y-53360221D02*
X202145499Y-52663580D01*
X202145495Y-52736013D02*
X202145501Y-53360221D01*
X193986070Y-97161274D02*
X193986052Y-98734061D01*
X216241326Y-116509649D02*
X220868628Y-107428038D01*
X189361035Y-46186284D02*
X188511056Y-45336295D01*
X189361039Y-46936281D02*
X189361035Y-46186284D01*
X170661051Y-44836288D02*
X169844462Y-44836271D01*
X169461062Y-44452880D02*
X169461053Y-43336280D01*
X169844462Y-44836271D02*
X169461062Y-44452880D01*
X160271074Y-40576279D02*
X159761029Y-41086297D01*
X171201039Y-40576281D02*
X168722328Y-40576277D01*
X172336039Y-41711278D02*
X171201039Y-40576281D01*
X168722328Y-40576277D02*
X168722304Y-40576267D01*
X161195713Y-39651636D02*
X160271074Y-40576279D01*
X164734442Y-40576272D02*
X163809819Y-39651622D01*
X168722304Y-40576267D02*
X164734442Y-40576272D01*
X163809819Y-39651622D02*
X161195713Y-39651636D01*
X151121066Y-41546296D02*
X150411067Y-40836283D01*
X153851056Y-41546289D02*
X151121066Y-41546296D01*
X153851049Y-39046330D02*
X153448097Y-38643355D01*
X153851056Y-41546289D02*
X153851049Y-39046330D01*
X152881016Y-38076266D02*
X153448097Y-38643355D01*
X132056177Y-44031426D02*
X131361061Y-43336302D01*
X134102689Y-44031427D02*
X132056177Y-44031426D01*
X131261031Y-62486270D02*
X131361045Y-62386256D01*
X131261032Y-64036300D02*
X131261031Y-62486270D01*
X150411022Y-59886290D02*
X152365170Y-59886284D01*
X169434452Y-65586266D02*
X169434458Y-62412884D01*
X189211048Y-64386277D02*
X190261058Y-65436272D01*
X188511084Y-64386274D02*
X189211048Y-64386277D01*
X188459571Y-83487762D02*
X188511049Y-83436262D01*
X188459564Y-85937733D02*
X188459571Y-83487762D01*
X150411058Y-78936272D02*
X150694478Y-78936290D01*
X151851047Y-80092859D02*
X154011045Y-80092863D01*
X150694478Y-78936290D02*
X151851047Y-80092859D01*
X154011045Y-80092863D02*
X154011046Y-82936299D01*
X154011048Y-78086288D02*
X154011045Y-80092863D01*
X131361052Y-81436285D02*
X131654464Y-81436280D01*
X131654464Y-81436280D02*
X132589817Y-82371636D01*
X132589817Y-82371636D02*
X134139817Y-82371633D01*
X152541018Y-97936263D02*
X153201039Y-98596283D01*
X150411047Y-97936265D02*
X152541018Y-97936263D01*
X169461072Y-100486281D02*
X169814444Y-100486267D01*
X169814444Y-100486267D02*
X170489819Y-101161629D01*
X170489819Y-101161629D02*
X172969808Y-101161629D01*
X188511056Y-103712871D02*
X188511063Y-104886267D01*
X190484413Y-103712880D02*
X191761007Y-102436280D01*
X188511056Y-103712871D02*
X190484413Y-103712880D01*
X188511056Y-102436284D02*
X188511056Y-103712871D01*
X109302396Y-47379221D02*
X109522942Y-47367674D01*
X109522942Y-47367674D02*
X110347497Y-48110104D01*
X110347497Y-48110104D02*
X111755569Y-48036300D01*
X112261437Y-47474506D02*
X111755569Y-48036300D01*
X90278510Y-48376239D02*
X90343901Y-49623679D01*
X91275487Y-67400123D02*
X91446115Y-67391178D01*
X91446115Y-67391178D02*
X92715804Y-68534428D01*
X92715804Y-68534428D02*
X93804323Y-68477359D01*
X102325743Y-64057194D02*
X101900268Y-64529716D01*
X101900268Y-64529716D02*
X101133386Y-65381430D01*
X112756869Y-66274318D02*
X110299401Y-66403119D01*
X112908968Y-66266362D02*
X112756869Y-66274318D01*
X113398366Y-66707007D02*
X112908968Y-66266362D01*
X108996536Y-63707600D02*
X102325743Y-64057194D01*
X92272503Y-86424020D02*
X92343150Y-87772163D01*
X111296398Y-85427023D02*
X111424619Y-87873642D01*
X93269522Y-105447925D02*
X96891631Y-105258085D01*
X96891631Y-105258085D02*
X97433769Y-104655967D01*
X97400946Y-104029743D02*
X97433769Y-104655967D01*
X96093003Y-102594341D02*
X97257907Y-101300578D01*
X97257907Y-101300578D02*
X97238657Y-100933138D01*
X97162818Y-99485988D02*
X97238657Y-100933138D01*
X97238657Y-100933138D02*
X97314573Y-102382006D01*
X112293406Y-104450916D02*
X112355117Y-105628454D01*
X137322166Y-111865597D02*
X137423078Y-111844156D01*
X138499199Y-112542994D02*
X140064239Y-112210324D01*
X137423078Y-111844156D02*
X138499199Y-112542994D01*
X140064239Y-112210324D02*
X140761342Y-111136903D01*
X139497540Y-108916600D02*
X138695700Y-109087026D01*
X140761342Y-111136903D02*
X140416189Y-109513168D01*
X140416189Y-109513168D02*
X139497540Y-108916600D01*
X159031422Y-110170550D02*
X160809186Y-110170536D01*
X180920781Y-113419505D02*
X180858239Y-113679970D01*
X180858239Y-113679970D02*
X181389735Y-114547285D01*
X181389735Y-114547285D02*
X183246954Y-114993172D01*
X184115990Y-114460624D02*
X184505010Y-112840214D01*
X183246954Y-114993172D02*
X184115990Y-114460624D01*
X205834093Y-117638874D02*
X204827732Y-119613870D01*
X206350661Y-116624965D02*
X205834093Y-117638874D01*
X206502674Y-113422715D02*
X207078811Y-115195897D01*
X205782023Y-113055527D02*
X206502674Y-113422715D01*
X207078811Y-115195897D02*
X206350661Y-116624965D01*
X208685028Y-114674004D02*
X207670621Y-115003608D01*
X207670621Y-115003608D02*
X207078811Y-115195897D01*
X209298634Y-113469734D02*
X209285014Y-113496465D01*
X208966499Y-112447536D02*
X209298634Y-113469734D01*
X209285014Y-113496465D02*
X208685028Y-114674004D01*
X219444360Y-134490914D02*
X221405182Y-136165603D01*
X222214957Y-136101871D02*
X223699314Y-134363940D01*
X221405182Y-136165603D02*
X222214957Y-136101871D01*
X223819097Y-134223666D02*
X223699314Y-134363940D01*
X229566700Y-127494079D02*
X229632946Y-127488856D01*
X228524685Y-128714124D02*
X229566700Y-127494079D01*
X228004096Y-129134943D02*
X228176879Y-129121351D01*
X225670311Y-127141711D02*
X228004096Y-129134943D01*
X228524685Y-128714124D02*
X228176879Y-129121351D01*
X228176879Y-129121351D02*
X223819097Y-134223666D01*
X188501049Y-106243433D02*
X186358212Y-108386276D01*
X216241325Y-123770961D02*
X216147480Y-123864807D01*
X216241332Y-116509648D02*
X216241325Y-123770961D01*
X214489286Y-125806311D02*
X216147480Y-123864807D01*
X153436026Y-58815420D02*
X153222060Y-59029391D01*
X153436034Y-56586282D02*
X153436026Y-58815420D01*
X152365170Y-59886284D02*
X153222060Y-59029391D01*
X111616463Y-88075815D02*
X111424619Y-87873642D01*
X112738566Y-88105185D02*
X111616463Y-88075815D01*
X195298214Y-67104556D02*
X195276084Y-67126665D01*
X195298201Y-57190800D02*
X195298204Y-58636105D01*
X195298201Y-57190800D02*
X195298209Y-57863066D01*
X195298200Y-50714553D02*
X195298201Y-57190800D01*
X195261904Y-67140863D02*
X195276084Y-67126665D01*
X218621106Y-96927907D02*
X218660020Y-96888978D01*
D32*
X224289609Y-66782154D02*
X224289611Y-63981901D01*
X220764732Y-60457030D02*
X215663457Y-60457022D01*
X224289611Y-63981901D02*
X220764732Y-60457030D01*
D31*
X218660038Y-90938979D02*
X218660022Y-96888975D01*
D32*
X208323594Y-83723767D02*
X207756217Y-83156392D01*
X207756226Y-63388993D02*
X204280206Y-59912983D01*
X207756228Y-82215532D02*
X207756226Y-63388993D01*
X207756228Y-82215532D02*
X207756237Y-81715531D01*
X207756217Y-83156392D02*
X207756228Y-82215532D01*
X208323594Y-83723767D02*
X208323604Y-83548153D01*
X208323604Y-83548153D02*
X209379605Y-82492150D01*
D31*
X201431639Y-58551067D02*
X202531167Y-59650595D01*
X199125754Y-58551039D02*
X201310694Y-58551068D01*
X195298200Y-50714553D02*
X195298197Y-50463562D01*
X202145499Y-55544984D02*
X202145485Y-54016261D01*
X200413446Y-57277029D02*
X202145499Y-55544984D01*
X202145501Y-53360221D02*
X202145485Y-54016261D01*
X211941001Y-58494920D02*
X211941006Y-59173551D01*
X214354637Y-56081285D02*
X211941001Y-58494920D01*
X211941006Y-59173551D02*
X211941006Y-59910762D01*
X193986052Y-98734061D02*
X193986058Y-100805701D01*
X175611041Y-85136265D02*
X175611053Y-91180707D01*
X175611063Y-97433593D02*
X175611054Y-98520405D01*
X175611053Y-91180707D02*
X175611063Y-97433593D01*
X133969826Y-102001639D02*
X132780128Y-102001631D01*
X131939086Y-102001630D02*
X131361035Y-101423592D01*
X132060124Y-102001635D02*
X131939086Y-102001630D01*
X131361041Y-100486313D02*
X131361035Y-101423592D01*
X132780128Y-102001631D02*
X132060124Y-102001635D01*
X175611056Y-97983598D02*
X175611046Y-101153599D01*
X175611056Y-97983598D02*
X175611053Y-98436264D01*
X175611063Y-97433593D02*
X175611056Y-97983598D01*
X169894457Y-81436280D02*
X169461066Y-81436276D01*
X172541855Y-82379909D02*
X170838089Y-82379912D01*
X169461066Y-81436276D02*
X169511042Y-81486262D01*
X170838089Y-82379912D02*
X169894457Y-81436280D01*
X132815908Y-102037413D02*
X132780128Y-102001631D01*
X132815903Y-104137812D02*
X132815908Y-102037413D01*
X204827732Y-119613870D02*
X204408520Y-120436610D01*
X204195188Y-123015246D02*
X204123794Y-123038439D01*
X204837055Y-121755494D02*
X204195188Y-123015246D01*
X201465188Y-121683813D02*
X204123794Y-123038439D01*
X204408520Y-120436610D02*
X204837055Y-121755494D01*
X183071065Y-42576265D02*
X188501043Y-42576291D01*
X183071062Y-42576250D02*
X183071065Y-42576265D01*
X182631074Y-42136281D02*
X183071062Y-42576250D01*
X177061045Y-61436270D02*
X174011071Y-61436277D01*
X175611073Y-74063195D02*
X180263785Y-69410490D01*
X177811057Y-63562050D02*
X177811049Y-62186280D01*
X175611055Y-82379905D02*
X175611057Y-82076871D01*
X180263785Y-69410490D02*
X180263794Y-66014784D01*
X180263794Y-66014784D02*
X177811057Y-63562050D01*
X174011071Y-61436277D02*
X173061036Y-62386280D01*
X177811049Y-62186280D02*
X177061045Y-61436270D01*
X175611057Y-82076871D02*
X175611073Y-74063195D01*
X153201051Y-99020544D02*
X153201039Y-98596283D01*
X153201040Y-101146279D02*
X153201051Y-99020544D01*
X138261048Y-39236253D02*
X137011001Y-40486288D01*
X138411077Y-39236243D02*
X138261048Y-39236253D01*
X157661030Y-41086295D02*
X156161051Y-42586285D01*
X159761029Y-41086297D02*
X157661030Y-41086295D01*
X157911046Y-60136253D02*
X157061062Y-59286281D01*
X159511076Y-60136265D02*
X157911046Y-60136253D01*
X160311025Y-60936272D02*
X159511076Y-60136265D01*
X162561041Y-65586287D02*
X160311051Y-63336275D01*
X160311051Y-63336275D02*
X160311025Y-60936272D01*
X188511058Y-106233437D02*
X188501049Y-106243433D01*
X188511058Y-104847865D02*
X188511058Y-106233437D01*
X188511058Y-104847865D02*
X188511052Y-105687698D01*
X188511056Y-103712871D02*
X188511058Y-104847865D01*
X133844707Y-108977902D02*
X133907102Y-109018418D01*
X132815903Y-104137812D02*
X133844707Y-108977902D01*
X151951074Y-107063134D02*
X151951076Y-102396247D01*
X153201040Y-101146279D02*
X152503892Y-101843427D01*
X151951076Y-102396247D02*
X152503892Y-101843427D01*
X152503892Y-101843427D02*
X151961030Y-102386302D01*
X180801601Y-42136284D02*
X180031291Y-42136287D01*
X180801601Y-42136284D02*
X182631074Y-42136281D01*
X180031291Y-42136287D02*
X178911441Y-41016446D01*
X174430869Y-41016447D02*
X173736044Y-41711263D01*
X178911441Y-41016446D02*
X174430869Y-41016447D01*
X188111053Y-48186247D02*
X186793235Y-48186249D01*
X186361037Y-48618447D02*
X186793235Y-48186249D01*
X186361040Y-50086296D02*
X186361037Y-48618447D01*
X90084288Y-51090119D02*
X88710567Y-51162115D01*
X91767957Y-51001867D02*
X90084288Y-51090119D01*
X88201078Y-51727955D02*
X88269722Y-53037738D01*
X88710567Y-51162115D02*
X88201078Y-51727955D01*
X195298204Y-67104562D02*
X195261904Y-67140863D01*
X195298204Y-58636105D02*
X195298204Y-67104562D01*
X224607669Y-86104269D02*
X224607642Y-83694247D01*
D32*
X205179601Y-81812153D02*
X205179606Y-81182150D01*
X205179607Y-81492156D02*
X205179606Y-81182150D01*
X205179606Y-81182150D02*
X205179606Y-63692150D01*
X212603604Y-82818156D02*
X212243603Y-82458162D01*
X212603608Y-83723778D02*
X212603604Y-82818156D01*
X219734732Y-65537025D02*
X219734730Y-66109956D01*
X219734732Y-64907029D02*
X219724728Y-64897029D01*
X219734727Y-67334195D02*
X219734726Y-82287023D01*
X219734730Y-66109956D02*
X219734727Y-67334195D01*
X219734735Y-64907032D02*
X219724728Y-64897029D01*
X219734727Y-67334195D02*
X219734735Y-64907032D01*
D31*
X221807632Y-86104296D02*
X221807646Y-83694297D01*
D32*
X210463602Y-66274369D02*
X210430495Y-66241265D01*
X210463607Y-83723775D02*
X210463599Y-82408147D01*
X210427990Y-81743764D02*
X210463607Y-81708149D01*
X209027986Y-81743771D02*
X210427990Y-81743764D01*
X208331229Y-82440539D02*
X209027986Y-81743771D01*
X210463599Y-82408147D02*
X210463607Y-81708149D01*
X210463607Y-81708149D02*
X210463602Y-66274369D01*
X218994723Y-83337279D02*
X218994733Y-83137279D01*
X219339608Y-83682156D02*
X218994723Y-83337279D01*
X218984735Y-68754178D02*
X218994732Y-68764177D01*
X218984733Y-67757026D02*
X218984735Y-68754178D01*
X218994736Y-68077024D02*
X218994732Y-68764177D01*
X218994732Y-68764177D02*
X218994733Y-83137279D01*
X218984733Y-67757026D02*
X218984731Y-67437024D01*
X183502693Y-120806354D02*
X183646242Y-120208331D01*
X186319183Y-122469963D02*
X186453240Y-122405974D01*
X186453240Y-122405974D02*
X185860757Y-124079169D01*
X184128481Y-121847880D02*
X183488076Y-120802815D01*
X186453258Y-122405985D02*
X184128481Y-121847880D01*
X166733326Y-117863641D02*
X166536946Y-117523577D01*
X166351433Y-119288859D02*
X166733326Y-117863641D01*
X163383878Y-116628917D02*
X163272381Y-116740387D01*
X165753818Y-116740404D02*
X166536976Y-117523580D01*
X163272360Y-116740379D02*
X165753818Y-116740404D01*
X202887293Y-128965040D02*
X202761554Y-129489016D01*
X204947500Y-131295381D02*
X203980720Y-132784025D01*
X204813960Y-131323738D02*
X204947500Y-131295381D01*
X204773023Y-130758393D02*
X204947496Y-131295373D01*
X202199900Y-129447300D02*
X204773023Y-130758393D01*
X79584887Y-50689059D02*
X79491978Y-48916499D01*
X120561067Y-45136287D02*
X120561061Y-43361254D01*
X139611035Y-42636292D02*
X139611079Y-40861278D01*
X158781070Y-42861272D02*
X158781062Y-44636276D01*
X175591044Y-43021277D02*
X175591065Y-44796272D01*
X96928037Y-45709571D02*
X97020969Y-47482117D01*
X199078062Y-68730985D02*
X199114628Y-68781282D01*
X197372342Y-51984272D02*
X197358537Y-51970483D01*
X197372342Y-52968158D02*
X197372342Y-51984272D01*
X197372342Y-52968158D02*
X197372341Y-52281287D01*
X197372326Y-68781272D02*
X197372342Y-52968158D01*
X80491626Y-67990318D02*
X80584519Y-69762865D01*
X120561052Y-62411291D02*
X120561060Y-64186264D01*
X98004688Y-65870858D02*
X98097592Y-67643405D01*
X158661068Y-61911272D02*
X158661037Y-63686284D01*
X175711051Y-63161258D02*
X175711056Y-64936277D01*
X120561007Y-67636272D02*
X120561060Y-64186264D01*
X126836062Y-65786298D02*
X125061047Y-65786282D01*
X199017297Y-71305882D02*
X199114604Y-71321257D01*
X194727723Y-71021265D02*
X194727728Y-71021279D01*
X194727722Y-69408786D02*
X194727724Y-68761285D01*
X194727722Y-69408786D02*
X194727723Y-71021265D01*
X194727724Y-68761285D02*
X194737721Y-68751285D01*
X194727726Y-69114853D02*
X194727722Y-69408786D01*
X139611042Y-83536273D02*
X140211041Y-84136290D01*
X87425682Y-72758941D02*
X89198260Y-72666038D01*
X120561043Y-83286275D02*
X120561036Y-81511302D01*
X99094580Y-86667313D02*
X99001679Y-84894747D01*
X139611044Y-79011282D02*
X139611045Y-80786302D01*
X158661057Y-82736300D02*
X158661036Y-85636275D01*
X158661046Y-80961311D02*
X158661057Y-82736300D01*
X177711100Y-85261276D02*
X177711052Y-83486297D01*
X84395974Y-88989759D02*
X85131666Y-89652156D01*
X80166138Y-72288226D02*
X80639765Y-81325852D01*
X80639765Y-81325852D02*
X83109505Y-83549596D01*
X84308952Y-87328448D02*
X84395974Y-88989759D01*
X83109505Y-83549596D02*
X83257950Y-86382129D01*
X83257950Y-86382129D02*
X84308952Y-87328448D01*
X86589085Y-71125510D02*
X87377277Y-71835207D01*
X80946803Y-71421205D02*
X86589085Y-71125510D01*
X87377277Y-71835207D02*
X87425682Y-72758941D01*
X80946803Y-71421205D02*
X80166138Y-72288226D01*
X139611045Y-80786302D02*
X139611042Y-83536273D01*
X220314218Y-113397623D02*
X219308854Y-114860435D01*
X194703830Y-87536262D02*
X194703800Y-90203656D01*
X194703800Y-90203656D02*
X194703800Y-92023613D01*
X194703830Y-87536262D02*
X194703828Y-86724890D01*
X194693828Y-73877372D02*
X194677723Y-73861278D01*
X194703831Y-73887376D02*
X194677723Y-73861278D01*
X194703828Y-73887388D02*
X194677723Y-73861278D01*
X194703828Y-86724890D02*
X194703828Y-73887388D01*
X220351327Y-111345859D02*
X221659640Y-108806704D01*
X220611469Y-112988431D02*
X220351327Y-111345859D01*
X220625461Y-112944712D02*
X220314204Y-113397615D01*
X220314204Y-113397615D02*
X220611469Y-112988431D01*
X82485606Y-106038094D02*
X82578513Y-107810665D01*
X100094016Y-106692434D02*
X100001088Y-104919903D01*
X120561046Y-100611300D02*
X120561039Y-102386299D01*
X139611042Y-99836276D02*
X139611025Y-98061294D01*
X158661040Y-100511276D02*
X158661071Y-102286279D01*
X177711045Y-102561273D02*
X177711049Y-104336282D01*
X139611076Y-102086273D02*
X139611042Y-99836276D01*
X197177323Y-100845070D02*
X197813432Y-99187968D01*
X120434779Y-102534145D02*
X120561063Y-102386275D01*
X197164944Y-100850610D02*
X197177315Y-100845070D01*
X197177324Y-100845062D02*
X197150752Y-100914382D01*
X197177324Y-100845062D02*
X197093408Y-101063765D01*
X197664077Y-99130622D02*
X197813443Y-99187952D01*
X197177325Y-100845062D02*
X196960509Y-101270634D01*
X197813442Y-99187962D02*
X197856454Y-99075931D01*
X197177342Y-100845054D02*
X196980844Y-101356967D01*
X197740033Y-77775902D02*
X199114637Y-76401279D01*
X197740033Y-83602577D02*
X197740033Y-77775902D01*
X199529601Y-85392156D02*
X197740033Y-83602577D01*
X196650028Y-93228974D02*
X196650024Y-92721736D01*
X196650024Y-92721736D02*
X197689600Y-91682154D01*
X202289608Y-90332156D02*
X202289602Y-87732156D01*
X200939600Y-91682159D02*
X202289608Y-90332156D01*
X197689600Y-91682154D02*
X200939600Y-91682159D01*
X197177341Y-106608562D02*
X195405174Y-110086649D01*
X195405174Y-110086649D02*
X194471164Y-110390122D01*
X197177349Y-100845065D02*
X197177341Y-106608562D01*
X177701073Y-106966454D02*
X177701049Y-106966468D01*
X120561055Y-102386257D02*
X120561056Y-106897695D01*
X202279595Y-87722158D02*
X202289602Y-87732156D01*
X202279606Y-87412152D02*
X202279595Y-87722158D01*
X177701051Y-104346298D02*
X177711061Y-104336294D01*
X177701049Y-106966468D02*
X177701051Y-104346298D01*
X200259609Y-85392157D02*
X200725881Y-85858428D01*
X199791096Y-85392156D02*
X200259609Y-85392157D01*
X200725881Y-85858428D02*
X200579608Y-85712155D01*
X202279606Y-87412152D02*
X200725881Y-85858428D01*
X199791096Y-85392156D02*
X199529601Y-85392156D01*
X83531084Y-126108779D02*
X83623990Y-127881304D01*
X166711706Y-113652943D02*
X166908028Y-113993026D01*
X167093579Y-112227757D02*
X166711706Y-113652943D01*
X143553975Y-110960483D02*
X142422591Y-110225761D01*
X142422591Y-110225761D02*
X141255672Y-104735887D01*
X188230775Y-117386439D02*
X187638281Y-119059627D01*
X207847685Y-126829426D02*
X206880964Y-128318079D01*
X225651054Y-134855324D02*
X224498284Y-136205024D01*
X145827723Y-113346662D02*
X145684823Y-113566732D01*
X145499292Y-111801451D02*
X145827723Y-113346662D01*
X145009349Y-111905594D02*
X143553975Y-110960483D01*
X145499292Y-111801451D02*
X145009349Y-111905594D01*
X207294172Y-126547417D02*
X207847675Y-126829435D01*
X206563742Y-124299389D02*
X207294172Y-126547417D01*
X193290036Y-90128966D02*
X192520032Y-89358974D01*
X193746205Y-115022814D02*
X193746200Y-104957911D01*
X206031087Y-122660039D02*
X206563742Y-124299389D01*
X206883857Y-120986356D02*
X206031087Y-122660039D01*
X193280028Y-104491741D02*
X193746200Y-104957911D01*
X193280024Y-103365846D02*
X193280028Y-104491741D01*
X193290032Y-103665843D02*
X193290036Y-90128966D01*
X193280027Y-104191732D02*
X193280024Y-103365846D01*
X192520018Y-80698898D02*
X192520012Y-79954296D01*
X192520018Y-80698898D02*
X192520016Y-80338975D01*
X192520032Y-89358974D02*
X192520018Y-80698898D01*
X98395676Y-104447015D02*
X96047856Y-107054533D01*
X98359221Y-103751408D02*
X98395676Y-104447015D01*
X96047856Y-107054533D02*
X90302928Y-107355612D01*
X90302928Y-107355612D02*
X88750816Y-109079407D01*
X88750816Y-109079407D02*
X88906777Y-112055323D01*
X202100776Y-120436392D02*
X203816344Y-121310520D01*
X215306832Y-111222230D02*
X214010683Y-113766076D01*
X214010683Y-113766076D02*
X213445468Y-114875363D01*
X204589606Y-90632149D02*
X204589603Y-88314833D01*
X204589603Y-88314833D02*
X204589599Y-88232155D01*
X218353335Y-105243138D02*
X215306832Y-111222230D01*
X204615222Y-90645204D02*
X204589606Y-90632149D01*
X205978265Y-94840220D02*
X204615222Y-90645204D01*
X211274855Y-119135431D02*
X208782237Y-119945328D01*
X212669369Y-116398543D02*
X211274855Y-119135431D01*
X207647014Y-122173350D02*
X208782237Y-119945328D01*
X212669369Y-116398543D02*
X214010683Y-113766076D01*
X204579606Y-88304826D02*
X204589603Y-88314833D01*
X204579604Y-87912161D02*
X204579606Y-88304826D01*
X202379615Y-85712156D02*
X204579604Y-87912161D01*
X202379607Y-61292157D02*
X202379615Y-85712156D01*
X203279610Y-54992151D02*
X203279599Y-60392153D01*
X203279599Y-60392153D02*
X202379607Y-61292157D01*
X220339610Y-86611277D02*
X221822605Y-88094276D01*
X220339609Y-82868171D02*
X220339610Y-86611277D01*
X220607622Y-81950165D02*
X220607615Y-82600157D01*
X220607615Y-82600157D02*
X220339609Y-82868171D01*
X220359605Y-81702165D02*
X220607622Y-81950165D01*
X222022611Y-90576392D02*
X221660023Y-90938976D01*
X221660023Y-90938976D02*
X221660019Y-96888981D01*
X220359606Y-64752155D02*
X220359605Y-65879309D01*
X220359605Y-65879309D02*
X220359605Y-81702165D01*
X221822606Y-90776397D02*
X221660027Y-90938979D01*
X221822605Y-88094276D02*
X221822606Y-90776397D01*
X96500165Y-114669309D02*
X96710351Y-114858556D01*
X96655939Y-113819975D02*
X95872974Y-113115011D01*
X96710351Y-114858556D02*
X96655939Y-113819975D01*
X97022609Y-114511768D02*
X96710351Y-114858556D01*
X98740250Y-114421709D02*
X97022609Y-114511768D01*
X95472250Y-74870709D02*
X94667874Y-75764054D01*
X213054602Y-66241291D02*
X211858890Y-67437024D01*
X214354629Y-66241283D02*
X213054602Y-66241291D01*
X93621704Y-55801425D02*
X92733634Y-55001795D01*
X93670884Y-56740131D02*
X93621704Y-55801425D01*
X94616593Y-74785380D02*
X93723274Y-73981029D01*
X94667874Y-75764054D02*
X94616593Y-74785380D01*
X95508670Y-76521077D02*
X94667874Y-75764054D01*
X95613617Y-93809268D02*
X94720271Y-93004917D01*
X95664863Y-94787942D02*
X95613617Y-93809268D01*
X95394802Y-73392741D02*
X95472250Y-74870709D01*
X94492651Y-88661711D02*
X94720271Y-93004917D01*
X96054049Y-86927625D02*
X94492651Y-88661711D01*
X95925790Y-84480163D02*
X96054049Y-86927625D01*
X95991190Y-85728428D02*
X95925790Y-84480163D01*
X95925790Y-84480163D02*
X95508670Y-76521077D01*
X93842031Y-60005660D02*
X93670884Y-56740131D01*
X94735357Y-60809992D02*
X93842031Y-60005660D01*
X95394802Y-73392741D02*
X94735357Y-60809992D01*
X92673896Y-37716247D02*
X92604279Y-36388067D01*
X95020462Y-43321133D02*
X94790206Y-38927153D01*
X94790206Y-38927153D02*
X93402908Y-37678052D01*
X94414997Y-44666488D02*
X94381689Y-44030507D01*
X94522984Y-46726841D02*
X94414997Y-44666488D01*
X91779155Y-49774187D02*
X94522984Y-46726841D01*
X91238318Y-50374831D02*
X91779155Y-49774187D01*
X92733634Y-55001795D02*
X91997954Y-54339395D01*
X91997954Y-54339395D02*
X89028858Y-54495035D01*
X93402908Y-37678052D02*
X92673896Y-37716247D01*
X94381689Y-44030507D02*
X95020462Y-43321133D01*
X89028858Y-54495035D02*
X87589166Y-53198736D01*
X92604279Y-36388067D02*
X91500777Y-35394465D01*
X87589166Y-53198736D02*
X87503111Y-51556941D01*
X87503111Y-51556941D02*
X88435217Y-50521750D01*
X88435217Y-50521750D02*
X91238318Y-50374831D01*
X86893642Y-109064340D02*
X87130203Y-113578203D01*
X85548450Y-107853123D02*
X86893642Y-109064340D01*
X111622957Y-35291238D02*
X110624534Y-34392234D01*
X111697770Y-36719267D02*
X111622957Y-35291238D01*
X113691795Y-74767044D02*
X114420773Y-74728841D01*
X114420773Y-74728841D02*
X115650413Y-75835998D01*
X116486725Y-91794084D02*
X114688800Y-93790917D01*
X115650413Y-75835998D02*
X116422344Y-90565776D01*
X212896124Y-68781255D02*
X211700372Y-69977031D01*
X214354603Y-68781291D02*
X212896124Y-68781255D01*
X116422344Y-90565776D02*
X116486725Y-91794084D01*
X200288592Y-70067743D02*
X200413460Y-69977035D01*
X111697770Y-36719267D02*
X112127217Y-36696745D01*
X112127217Y-36696745D02*
X113461927Y-37898535D01*
X113461927Y-37898535D02*
X114045460Y-49033272D01*
X114045460Y-49033272D02*
X113383034Y-49768932D01*
X112637742Y-54654667D02*
X111907321Y-53996971D01*
X112694801Y-55743144D02*
X112637742Y-54654667D01*
X114011956Y-57947261D02*
X112750814Y-56811693D01*
X112750814Y-56811693D02*
X112694801Y-55743144D01*
X114506516Y-67384292D02*
X114011956Y-57947261D01*
X113370954Y-68645445D02*
X114506516Y-67384292D01*
X113691795Y-74767044D02*
X113556743Y-72190581D01*
X113691795Y-74767044D02*
X113637876Y-73738437D01*
X113556743Y-72190581D02*
X113370954Y-68645445D01*
X114688800Y-93790917D02*
X114572082Y-91563999D01*
X195339906Y-69998839D02*
X195329903Y-69988848D01*
X110341264Y-49928374D02*
X108058756Y-50047994D01*
X113383034Y-49768932D02*
X110341264Y-49928374D01*
X108058756Y-50047994D02*
X107148252Y-51059216D01*
X107148252Y-51059216D02*
X107210003Y-52237595D01*
X108210517Y-53138457D02*
X110802970Y-53002596D01*
X107210003Y-52237595D02*
X108210517Y-53138457D01*
X111907321Y-53996971D02*
X110802970Y-53002596D01*
X195339906Y-69998847D02*
X195329903Y-69988848D01*
X195339905Y-70600965D02*
X195339906Y-69998847D01*
X195339905Y-70600965D02*
X195339904Y-70318838D01*
X195339935Y-87408778D02*
X195339905Y-70600965D01*
X134311065Y-70916290D02*
X134841044Y-70916270D01*
X134841044Y-70916270D02*
X136011023Y-72086259D01*
X136011061Y-88266268D02*
X134311028Y-89966267D01*
X136011023Y-72086259D02*
X136011061Y-88266268D01*
X212786118Y-71321265D02*
X211590386Y-72517025D01*
X214354641Y-71321282D02*
X212786118Y-71321265D01*
X200354288Y-72507700D02*
X199988831Y-72773204D01*
X200413431Y-72517038D02*
X200354288Y-72507700D01*
X134311032Y-50826259D02*
X133566045Y-50081277D01*
X134311050Y-51866268D02*
X134311032Y-50826259D01*
X133566045Y-50081277D02*
X132866054Y-49381297D01*
X132866054Y-49381297D02*
X132511062Y-49026265D01*
X134311057Y-70036283D02*
X133406064Y-69131276D01*
X134311065Y-70916290D02*
X134311057Y-70036283D01*
X134311037Y-88836292D02*
X133611028Y-88136273D01*
X134311028Y-89966267D02*
X134311037Y-88836292D01*
X134311028Y-89966267D02*
X134311070Y-90236268D01*
X134961044Y-61136280D02*
X134961066Y-70266277D01*
X135911039Y-60186300D02*
X134961044Y-61136280D01*
X135911040Y-52786281D02*
X135911039Y-60186300D01*
X134991019Y-51866266D02*
X135911040Y-52786281D01*
X134961066Y-70266277D02*
X134311065Y-70916290D01*
X134311050Y-51866268D02*
X134991019Y-51866266D01*
X130955503Y-122547749D02*
X131307491Y-124203775D01*
X131307491Y-124203775D02*
X133416794Y-125573539D01*
X138141391Y-124569306D02*
X139367189Y-122681777D01*
X133416794Y-125573539D02*
X138141391Y-124569306D01*
X134311046Y-89966287D02*
X134311030Y-90179227D01*
X134311030Y-90179227D02*
X136777258Y-92645430D01*
X136777258Y-92645430D02*
X136777254Y-99871425D01*
X136777254Y-99871425D02*
X136777263Y-103950188D01*
X194823088Y-100415929D02*
X194823081Y-104728664D01*
X194833092Y-96415652D02*
X194833100Y-95465635D01*
X194833100Y-95465635D02*
X195231457Y-95067272D01*
X194833097Y-95465631D02*
X195231457Y-95067272D01*
X194833092Y-96415652D02*
X194833092Y-100715921D01*
X195231457Y-95067272D02*
X195914942Y-94383794D01*
X141240435Y-106848591D02*
X140817183Y-106573724D01*
X142331136Y-111979925D02*
X141240435Y-106848591D01*
X141178076Y-106808094D02*
X140817183Y-106573724D01*
X140817183Y-106573724D02*
X136777263Y-103950188D01*
X134311060Y-32816271D02*
X134311024Y-31386271D01*
X134311024Y-31386271D02*
X133511045Y-30586292D01*
X134741057Y-32816279D02*
X134311060Y-32816271D01*
X136111029Y-43223278D02*
X136111048Y-34186267D01*
X133098046Y-46236267D02*
X136111029Y-43223278D01*
X136111048Y-34186267D02*
X134741057Y-32816279D01*
X129683214Y-46236268D02*
X133098046Y-46236267D01*
X132866054Y-49381297D02*
X132421014Y-48936284D01*
X132421014Y-48936284D02*
X130089000Y-48936283D01*
X130089000Y-48936283D02*
X129551099Y-48398381D01*
X129551099Y-48398381D02*
X129120486Y-47967770D01*
X129120486Y-47967770D02*
X129120489Y-46798998D01*
X129120489Y-46798998D02*
X129683214Y-46236268D01*
X195914932Y-72973283D02*
X196371187Y-72517007D01*
X195914932Y-73465994D02*
X195914932Y-72973283D01*
X195914932Y-73465994D02*
X195914931Y-73293281D01*
X195914942Y-94383794D02*
X195914932Y-73465994D01*
X153361025Y-49366272D02*
X153841035Y-49366267D01*
X153841035Y-49366267D02*
X154911037Y-50436279D01*
X154911058Y-66866270D02*
X153361044Y-68416288D01*
X154911037Y-50436279D02*
X154911058Y-66866270D01*
X153361042Y-87466276D02*
X153941021Y-87466272D01*
X153361044Y-68416288D02*
X153361035Y-67586281D01*
X155311047Y-85516297D02*
X153361042Y-87466276D01*
X155311034Y-69786295D02*
X155311047Y-85516297D01*
X153361044Y-68416288D02*
X153941034Y-68416295D01*
X153941034Y-68416295D02*
X155311034Y-69786295D01*
X153361042Y-87466276D02*
X154141042Y-87466279D01*
X212726121Y-73861290D02*
X211530392Y-75057012D01*
X214354653Y-73861273D02*
X212726121Y-73861290D01*
X200397650Y-75054520D02*
X200413445Y-75057047D01*
X200042169Y-75312817D02*
X200397650Y-75054520D01*
X153361046Y-48226303D02*
X152716032Y-47581286D01*
X153361025Y-49366272D02*
X153361046Y-48226303D01*
X153361036Y-86436277D02*
X152561054Y-85636294D01*
X153361042Y-87466276D02*
X153361036Y-86436277D01*
X153511017Y-87466274D02*
X154711037Y-88666269D01*
X153361042Y-87466276D02*
X153511017Y-87466274D01*
X154711037Y-88666269D02*
X154711029Y-91867674D01*
X153361048Y-66786261D02*
X153361044Y-68416288D01*
X150572361Y-119280383D02*
X150572368Y-121155503D01*
X154711029Y-91867674D02*
X154711034Y-97283583D01*
X156189614Y-98762154D02*
X155128102Y-97700646D01*
X160129609Y-99532149D02*
X159359606Y-98762156D01*
X154711034Y-97283583D02*
X155128102Y-97700646D01*
X159359606Y-98762156D02*
X156189614Y-98762154D01*
X163769390Y-114617693D02*
X163769388Y-109722377D01*
X160129597Y-101342150D02*
X160129609Y-99532149D01*
X163769380Y-104981932D02*
X163268060Y-104480610D01*
X163769385Y-107409284D02*
X163769380Y-104981932D01*
X163268060Y-104480610D02*
X160129597Y-101342150D01*
X163779384Y-104991934D02*
X163268060Y-104480610D01*
X163769388Y-109722377D02*
X163769385Y-107409284D01*
X153361026Y-29036262D02*
X153361046Y-30316306D01*
X152061036Y-27736283D02*
X153361026Y-29036262D01*
X148049962Y-45772249D02*
X149053993Y-46776273D01*
X148049962Y-44422245D02*
X148049962Y-45772249D01*
X153741049Y-30316296D02*
X155011044Y-31586285D01*
X155011023Y-42236267D02*
X153492748Y-43754572D01*
X153361046Y-30316306D02*
X153741049Y-30316296D01*
X155011044Y-31586285D02*
X155011023Y-42236267D01*
X148717637Y-43754568D02*
X148049962Y-44422245D01*
X149053993Y-46776273D02*
X151911066Y-46776270D01*
X153492748Y-43754572D02*
X150667635Y-43754572D01*
X150667635Y-43754572D02*
X148717637Y-43754568D01*
X151911066Y-46776270D02*
X152716032Y-47581286D01*
X196519933Y-88048779D02*
X196519929Y-88048779D01*
X196519931Y-87348982D02*
X196519933Y-88048779D01*
X196519921Y-75068873D02*
X196509920Y-75058881D01*
X196519925Y-75068887D02*
X196519931Y-87348982D01*
X196509920Y-75058881D02*
X196519925Y-75068887D01*
X172411056Y-70916271D02*
X172411050Y-71436272D01*
X172411050Y-71436272D02*
X174361040Y-73386295D01*
X172411053Y-89966298D02*
X172411047Y-90036276D01*
X172461037Y-32766278D02*
X172411063Y-32816283D01*
X172411042Y-31586296D02*
X171211060Y-30386291D01*
X172411063Y-32816283D02*
X172411042Y-31586296D01*
X174361068Y-85536300D02*
X174361040Y-73386295D01*
X172411053Y-89966298D02*
X172691030Y-89966285D01*
X200409061Y-77624645D02*
X200413437Y-77597019D01*
X172416049Y-51861253D02*
X172411044Y-51866269D01*
X172411039Y-50736286D02*
X171756050Y-50081270D01*
X172411044Y-51866269D02*
X172411039Y-50736286D01*
X172411029Y-69876290D02*
X171666042Y-69131277D01*
X172411056Y-70916271D02*
X172411029Y-69876290D01*
X171716059Y-88181281D02*
X173586046Y-86311272D01*
X172411061Y-87486296D02*
X173586046Y-86311272D01*
X173586046Y-86311272D02*
X174361068Y-85536300D01*
X170043181Y-121314332D02*
X170844200Y-122621466D01*
X170308364Y-120209716D02*
X170043181Y-121314332D01*
X172841058Y-51866284D02*
X172411044Y-51866269D01*
X174111072Y-53136295D02*
X172841058Y-51866284D01*
X174111044Y-60072686D02*
X174111072Y-53136295D01*
X171171027Y-49496263D02*
X171756050Y-50081270D01*
X171716056Y-89271294D02*
X172411053Y-89966298D01*
X171716059Y-88181281D02*
X171716056Y-89271294D01*
X169994381Y-119756251D02*
X170546020Y-120307912D01*
X200291227Y-77719225D02*
X200413427Y-77597023D01*
X172411078Y-89966279D02*
X174648621Y-89966267D01*
X171666041Y-65117678D02*
X171666042Y-69131277D01*
X172200950Y-64582779D02*
X171666041Y-65117678D01*
X172200959Y-61982759D02*
X172200950Y-64582779D01*
X172200959Y-61982759D02*
X174111044Y-60072686D01*
X213158897Y-77597030D02*
X214354637Y-76401277D01*
X211799767Y-77597029D02*
X213158897Y-77597030D01*
X169817629Y-120133019D02*
X170546050Y-120307908D01*
X169994384Y-109494788D02*
X168109532Y-117345671D01*
X172411079Y-89966279D02*
X172795866Y-89966295D01*
X174034379Y-91204785D02*
X174034365Y-98154795D01*
X172795866Y-89966295D02*
X174034379Y-91204785D01*
X168109532Y-117345671D02*
X169817629Y-120133019D01*
X174024365Y-105464786D02*
X173843301Y-105645849D01*
X173843301Y-105645849D02*
X169994384Y-109494788D01*
X193222696Y-78286296D02*
X193212696Y-78276299D01*
X193222701Y-79957920D02*
X193222699Y-78916302D01*
X193222702Y-88706311D02*
X193222701Y-79957920D01*
X174034364Y-105454794D02*
X174024365Y-105464786D01*
X174034365Y-98154795D02*
X174034364Y-105454794D01*
X172411059Y-32936297D02*
X172411063Y-32816283D01*
X173511024Y-34036279D02*
X172411059Y-32936297D01*
X173061065Y-39986258D02*
X173511024Y-39536264D01*
X171891615Y-46086273D02*
X173061053Y-44916837D01*
X173511024Y-39536264D02*
X173511024Y-34036279D01*
X173061053Y-44916837D02*
X173061065Y-39986258D01*
X169703198Y-46086276D02*
X168023207Y-46086278D01*
X169703198Y-46086276D02*
X171891615Y-46086273D01*
X168461039Y-46086280D02*
X169703198Y-46086276D01*
X168023207Y-46086278D02*
X167220489Y-46888992D01*
X167220489Y-46888992D02*
X167220489Y-48418991D01*
X168297757Y-49496261D02*
X169247764Y-49496263D01*
X167220489Y-48418991D02*
X168297757Y-49496261D01*
X168771039Y-49496267D02*
X169247764Y-49496263D01*
X169247764Y-49496263D02*
X171171027Y-49496263D01*
X193222697Y-78286297D02*
X193212696Y-78276299D01*
X193222701Y-79957920D02*
X193222697Y-78286297D01*
X200336302Y-80124831D02*
X200413440Y-80137047D01*
X191861054Y-72516269D02*
X191461062Y-72916283D01*
X191461046Y-34816282D02*
X191461057Y-34836297D01*
X191461057Y-34836297D02*
X193261045Y-36636262D01*
X193261045Y-36636262D02*
X193261072Y-47136278D01*
X193261072Y-47136278D02*
X192261074Y-48136270D01*
X191461068Y-52826267D02*
X190171029Y-51536278D01*
X191461079Y-53866282D02*
X191461068Y-52826267D01*
X191461053Y-89436283D02*
X191461057Y-85196393D01*
X190716031Y-90181278D02*
X191461053Y-89436283D01*
X187161030Y-51536290D02*
X187861043Y-51536259D01*
X187861043Y-51536259D02*
X190171029Y-51536278D01*
X193161036Y-70936298D02*
X191461041Y-72636265D01*
X193161049Y-68086277D02*
X193161036Y-70936298D01*
X191461041Y-72636265D02*
X191461062Y-72916283D01*
X192461061Y-67386307D02*
X193161049Y-68086277D01*
X191461051Y-55036244D02*
X192461063Y-56036272D01*
X191461079Y-53866282D02*
X191461051Y-55036244D01*
X192461063Y-56036272D02*
X192461057Y-60786293D01*
X191411073Y-72866280D02*
X191461062Y-72916283D01*
X191411042Y-70786274D02*
X191411073Y-72866280D01*
X192461057Y-60786293D02*
X192461061Y-67386307D01*
X190716021Y-91221258D02*
X191461044Y-91966273D01*
X190716031Y-90181278D02*
X190716021Y-91221258D01*
X191461023Y-33436298D02*
X190561043Y-32536270D01*
X191461046Y-34816282D02*
X191461023Y-33436298D01*
X189730943Y-125944752D02*
X188785095Y-127801149D01*
X191461060Y-92349679D02*
X191461079Y-91966291D01*
X213158896Y-80137021D02*
X214354646Y-78941281D01*
X212014730Y-80137020D02*
X212144726Y-80137020D01*
X212144726Y-80137020D02*
X213158896Y-80137021D01*
X191640034Y-92145278D02*
X191461050Y-91966298D01*
X191640034Y-95758980D02*
X191640034Y-92145278D01*
X192775786Y-96894725D02*
X191640034Y-95758980D01*
X189449338Y-125801288D02*
X189730972Y-125944797D01*
X188757311Y-123671476D02*
X189449338Y-125801288D01*
X192765788Y-104595967D02*
X192765784Y-103961607D01*
X192765784Y-103961607D02*
X192765773Y-104895978D01*
X192775778Y-104261611D02*
X192775786Y-96894725D01*
X192943635Y-105073823D02*
X192943632Y-115455365D01*
X192765773Y-104895978D02*
X192943635Y-105073823D01*
X192943632Y-115455365D02*
X188757311Y-123671476D01*
X191461049Y-82177951D02*
X191461057Y-85196393D01*
X191461062Y-72916283D02*
X192861047Y-74316295D01*
X192861061Y-77297851D02*
X192407930Y-77750989D01*
X192407930Y-77750989D02*
X192407927Y-78723151D01*
X192407927Y-78723151D02*
X191461047Y-79670022D01*
X192861047Y-74316295D02*
X192861061Y-77297851D01*
X191461047Y-79670022D02*
X191461049Y-82177951D01*
X185667113Y-48182368D02*
X185713220Y-48136257D01*
X185667112Y-50542370D02*
X185667113Y-48182368D01*
X187861043Y-51536259D02*
X186661028Y-51536289D01*
X186661028Y-51536289D02*
X185667112Y-50542370D01*
X197100312Y-85194346D02*
X197102352Y-85196394D01*
X197100308Y-80208697D02*
X197100304Y-80208701D01*
X197100304Y-80208701D02*
X197100312Y-85194346D01*
X220899320Y-59261279D02*
X214364631Y-59261280D01*
X221900196Y-60262151D02*
X221379892Y-59741866D01*
X224289603Y-60262149D02*
X221900196Y-60262151D01*
X221529897Y-59891857D02*
X221379892Y-59741866D01*
X221379892Y-59741866D02*
X220899320Y-59261279D01*
X207076168Y-136042797D02*
X207065969Y-135913540D01*
X205713937Y-137637757D02*
X207076168Y-136042797D01*
X234753985Y-120906343D02*
X234764413Y-121038509D01*
X207065956Y-135913545D02*
X206950595Y-135814966D01*
X206950595Y-135814966D02*
X206649854Y-131993574D01*
X206649854Y-131993574D02*
X212644385Y-124974818D01*
X213649779Y-123969493D02*
X212644385Y-124974818D01*
X213289255Y-105341055D02*
X213185811Y-105022694D01*
X214999357Y-106212387D02*
X213289255Y-105341055D01*
X214290554Y-102854532D02*
X213859236Y-101527059D01*
X213185811Y-105022694D02*
X214290554Y-102854532D01*
X218674740Y-108142269D02*
X218652476Y-108073749D01*
X218539394Y-108407883D02*
X218674740Y-108142269D01*
X218675593Y-108140587D02*
X218539394Y-108407883D01*
X236242790Y-119305245D02*
X236118983Y-117732106D01*
X234756923Y-121044971D02*
X236242790Y-119305245D01*
X214354642Y-81481289D02*
X212490473Y-81481288D01*
X212490473Y-81481288D02*
X211790470Y-81481281D01*
X200413457Y-84326002D02*
X200413457Y-84026006D01*
X203779606Y-88012152D02*
X200413454Y-84646001D01*
X200413457Y-84026006D02*
X200413446Y-82677036D01*
X204403643Y-95046185D02*
X203789604Y-94432158D01*
X203789604Y-94432158D02*
X203789600Y-88332153D01*
X215115315Y-121093225D02*
X214673307Y-119732867D01*
X213649779Y-123969493D02*
X215115315Y-121093225D01*
X213931808Y-117450790D02*
X215115315Y-121093225D01*
X215468452Y-114434972D02*
X213931808Y-117450790D01*
X215468452Y-114434972D02*
X214664926Y-116011958D01*
X218539394Y-108407883D02*
X215468452Y-114434972D01*
X203779603Y-88322150D02*
X203789600Y-88332153D01*
X203779606Y-88012152D02*
X203779603Y-88322150D01*
X204393640Y-97167663D02*
X204406495Y-95054122D01*
X200413457Y-84326002D02*
X200413454Y-84646001D01*
X224613420Y-88085048D02*
X224622634Y-88094294D01*
X213150024Y-92388986D02*
X213150023Y-94838969D01*
X213150024Y-92388986D02*
X214029537Y-92388977D01*
X142928103Y-117418673D02*
X142849892Y-117422771D01*
X143482289Y-116803168D02*
X142928103Y-117418673D01*
X146384339Y-118642490D02*
X146241445Y-118862568D01*
X146055904Y-117097276D02*
X146384339Y-118642490D01*
X145985208Y-117206180D02*
X146055904Y-117097276D01*
X145642907Y-116829087D02*
X146055904Y-117097276D01*
X142849880Y-117422780D02*
X145642907Y-116829087D01*
X212994638Y-63701278D02*
X211798902Y-64896985D01*
X214354648Y-63701279D02*
X212994638Y-63701278D01*
X204604536Y-114808343D02*
X203264968Y-117437357D01*
X203079607Y-79692150D02*
X203079609Y-78992153D01*
X203079607Y-79692150D02*
X203079610Y-64892152D01*
X217914177Y-104224412D02*
X217914177Y-104224412D01*
X214712309Y-110508436D02*
X210885447Y-118019066D01*
X214712309Y-110508436D02*
X217914177Y-104224412D01*
X214315120Y-111287946D02*
X214712309Y-110508436D01*
X210885447Y-118019066D02*
X210885447Y-118019066D01*
X205194972Y-90095483D02*
X206445706Y-93944840D01*
X203079604Y-85512152D02*
X205179600Y-87612157D01*
X203079607Y-79692150D02*
X203079604Y-85512152D01*
X205189604Y-87932154D02*
X205189600Y-90092747D01*
X205179600Y-87612157D02*
X205179604Y-87922147D01*
X205179604Y-87922147D02*
X205189604Y-87932154D01*
X205189600Y-90092747D02*
X205194972Y-90095483D01*
X203779603Y-82792144D02*
X203779604Y-80892156D01*
X203779603Y-82792144D02*
X203779609Y-82092147D01*
X219095130Y-105699434D02*
X213100752Y-117464085D01*
X213100752Y-117464085D02*
X212760238Y-118132393D01*
X219095130Y-105699434D02*
X219695988Y-104520181D01*
X219695988Y-104520181D02*
X219695988Y-104520181D01*
X206899528Y-93076198D02*
X205771539Y-89604601D01*
X208066738Y-115740721D02*
X206470421Y-118873674D01*
X206470421Y-118873674D02*
X206470421Y-118873674D01*
X205779604Y-87412155D02*
X205779609Y-89588766D01*
X203779603Y-82792144D02*
X203779600Y-85412160D01*
X203779600Y-85412160D02*
X205779604Y-87412155D01*
X163961064Y-63736282D02*
X166661045Y-66436270D01*
X166661045Y-66436270D02*
X166661038Y-72236276D01*
X166661038Y-72236276D02*
X168661034Y-74236261D01*
X168661034Y-74236261D02*
X168661036Y-74486273D01*
X168661036Y-74486273D02*
X169511018Y-75336303D01*
X169511018Y-75336303D02*
X169511075Y-76836290D01*
X162194468Y-60986298D02*
X162194468Y-61806286D01*
X162774472Y-62386288D02*
X163961052Y-62386283D01*
X162194468Y-61806286D02*
X162774472Y-62386288D01*
X163961072Y-62386297D02*
X163961052Y-62386283D01*
X163961064Y-63736282D02*
X163961072Y-62386297D01*
X170684472Y-80036275D02*
X171389819Y-80741635D01*
X169461066Y-80036288D02*
X170684472Y-80036275D01*
X169511063Y-79986261D02*
X169461066Y-80036288D01*
X169511075Y-76836290D02*
X169511063Y-79986261D01*
X130986034Y-75111296D02*
X131411057Y-75536261D01*
X130986040Y-74761284D02*
X130986034Y-75111296D01*
X127561047Y-64036274D02*
X128861065Y-65336264D01*
X128861054Y-72636284D02*
X130986040Y-74761284D01*
X128861065Y-65336264D02*
X128861054Y-72636284D01*
X131411057Y-75536261D02*
X131411051Y-76636290D01*
X125846426Y-62371648D02*
X125861054Y-62386265D01*
X127561047Y-64036274D02*
X126374443Y-64036270D01*
X125861033Y-63522854D02*
X125861054Y-62386265D01*
X126374443Y-64036270D02*
X125861033Y-63522854D01*
X124634453Y-62386263D02*
X123949813Y-61701641D01*
X125861054Y-62386265D02*
X124634453Y-62386263D01*
X132854459Y-80036281D02*
X133539834Y-80721635D01*
X131361042Y-80036275D02*
X132854459Y-80036281D01*
X131411054Y-79986277D02*
X131361042Y-80036275D01*
X131411051Y-76636290D02*
X131411054Y-79986277D01*
X177311431Y-52636292D02*
X177311420Y-54335874D01*
X183386031Y-57911306D02*
X183386036Y-57811252D01*
X183011045Y-58286267D02*
X183386031Y-57911306D01*
X183386036Y-57811252D02*
X183811070Y-57386288D01*
X183811070Y-57386288D02*
X183811074Y-57236278D01*
X183811074Y-57236278D02*
X185811060Y-55236277D01*
X185811043Y-54086300D02*
X185811050Y-51322718D01*
X185811050Y-51322718D02*
X184911026Y-50422687D01*
X185811043Y-54086300D02*
X185811061Y-52636279D01*
X185811060Y-55236277D02*
X185811043Y-54086300D01*
X185861052Y-47086276D02*
X188061060Y-47086274D01*
X188061060Y-47086274D02*
X188511027Y-46636291D01*
X184547432Y-50786273D02*
X184911026Y-50422687D01*
X183961040Y-50786295D02*
X184547432Y-50786273D01*
X190494467Y-43936288D02*
X191179823Y-44621620D01*
X188511054Y-43936282D02*
X190494467Y-43936288D01*
X181295180Y-62986285D02*
X181295177Y-63616988D01*
X182064466Y-64386288D02*
X183011091Y-64386270D01*
X181295177Y-63616988D02*
X182064466Y-64386288D01*
X183011045Y-58286267D02*
X183011028Y-59560425D01*
X181295178Y-61276275D02*
X181295180Y-62986285D01*
X183011028Y-59560425D02*
X181295178Y-61276275D01*
X185124409Y-50209296D02*
X184547432Y-50786273D01*
X185124407Y-47822914D02*
X185124409Y-50209296D01*
X185124407Y-47822914D02*
X185861052Y-47086276D01*
X176310676Y-52636274D02*
X176148483Y-52636273D01*
X162011047Y-45086298D02*
X163961079Y-45086267D01*
X163961079Y-45086267D02*
X165511041Y-45086296D01*
X165511041Y-45086296D02*
X166511036Y-46086271D01*
X166511036Y-46086271D02*
X166511038Y-48436279D01*
X176098444Y-52636273D02*
X175029752Y-51567564D01*
X176310676Y-52636274D02*
X176098444Y-52636273D01*
X166511038Y-48436279D02*
X166511018Y-53036254D01*
X166511018Y-53036254D02*
X168761073Y-55286287D01*
X168761073Y-55286287D02*
X168761062Y-55536279D01*
X168761062Y-55536279D02*
X169561032Y-56336275D01*
X169561032Y-56336275D02*
X169561038Y-58036297D01*
X163961046Y-43336271D02*
X163961054Y-45086263D01*
X161485646Y-40661630D02*
X160996021Y-41151261D01*
X162979825Y-40661631D02*
X161485646Y-40661630D01*
X160588116Y-43663347D02*
X160588095Y-41559185D01*
X160588095Y-41559185D02*
X160812734Y-41334552D01*
X160588116Y-43663347D02*
X162011047Y-45086298D01*
X160996021Y-41151261D02*
X160812734Y-41334552D01*
X169561038Y-58036297D02*
X169561039Y-60886302D01*
X169565832Y-60881499D02*
X169461053Y-60986281D01*
X171423757Y-60881502D02*
X169565832Y-60881499D01*
X144611042Y-55886268D02*
X144611030Y-54021282D01*
X139561055Y-56836266D02*
X139561038Y-55236291D01*
X152355166Y-40836293D02*
X152355145Y-40026989D01*
X151764481Y-39436295D02*
X150411052Y-39436298D01*
X152355145Y-40026989D02*
X151764481Y-39436295D01*
X150411066Y-42522884D02*
X149829817Y-43104139D01*
X149807314Y-43104140D02*
X149775177Y-43136272D01*
X149829817Y-43104139D02*
X149807314Y-43104140D01*
X144911031Y-59886288D02*
X144074455Y-59886286D01*
X144074455Y-59886286D02*
X143369814Y-59181642D01*
X149488998Y-43136283D02*
X148260920Y-43136287D01*
X149488998Y-43136283D02*
X148977650Y-43136296D01*
X149775177Y-43136272D02*
X149488998Y-43136283D01*
X148260920Y-43136287D02*
X147174964Y-44222241D01*
X147174963Y-51457370D02*
X146892522Y-51739805D01*
X147174964Y-44222241D02*
X147174963Y-51457370D01*
X144611030Y-54021282D02*
X146892522Y-51739805D01*
X98021229Y-56632322D02*
X97942706Y-55134362D01*
X96246711Y-59554194D02*
X98068329Y-57531072D01*
X98068329Y-57531072D02*
X98021229Y-56632322D01*
X99974785Y-63814934D02*
X97028810Y-63969311D01*
X96450811Y-63448836D02*
X96246711Y-59554194D01*
X97028810Y-63969311D02*
X96450811Y-63448836D01*
X106520862Y-52581934D02*
X106447578Y-51183861D01*
X109229129Y-45981147D02*
X110498241Y-45914639D01*
X110498241Y-45914639D02*
X111242443Y-46584733D01*
X109385988Y-48974136D02*
X108390261Y-49026330D01*
X103779174Y-66744823D02*
X103073073Y-66109042D01*
X104806938Y-66690974D02*
X103779174Y-66744823D01*
X100463914Y-63271702D02*
X100178640Y-63588530D01*
X104026117Y-63085014D02*
X100463914Y-63271702D01*
X100178640Y-63588530D02*
X99974785Y-63814934D01*
X109385988Y-48974136D02*
X107599750Y-49067748D01*
X106406159Y-50393366D02*
X106520862Y-52581934D01*
X107599750Y-49067748D02*
X106406159Y-50393366D01*
X123261045Y-40836290D02*
X122361066Y-41736276D01*
X122361066Y-41736276D02*
X122361041Y-44236269D01*
X122361047Y-46036262D02*
X122361041Y-44236269D01*
X122836047Y-46511284D02*
X122361047Y-46036262D01*
X128611019Y-47486301D02*
X127636041Y-46511287D01*
X130596025Y-55121294D02*
X128611014Y-53136289D01*
X128611014Y-53136289D02*
X128611022Y-48398460D01*
X130596041Y-55421288D02*
X130596025Y-55121294D01*
X138560296Y-53834495D02*
X138136536Y-53410761D01*
X138560281Y-55236291D02*
X138560296Y-53834495D01*
X124961049Y-40836281D02*
X123261045Y-40836290D01*
X125861056Y-46452171D02*
X125920168Y-46511292D01*
X125861062Y-43336296D02*
X125861056Y-46452171D01*
X127636041Y-46511287D02*
X125920168Y-46511292D01*
X125920168Y-46511292D02*
X122836047Y-46511284D01*
X132706875Y-60986257D02*
X133411039Y-61690417D01*
X131361051Y-60986265D02*
X132706875Y-60986257D01*
X131361047Y-56186296D02*
X131038098Y-55863359D01*
X131361051Y-60986265D02*
X131361047Y-56186296D01*
X131038098Y-55863359D02*
X130596041Y-55421288D01*
X128611022Y-48398460D02*
X128611019Y-47486301D01*
X97021812Y-56683923D02*
X96943333Y-55186752D01*
X90078790Y-60185366D02*
X88047800Y-58356654D01*
X88047800Y-58356654D02*
X87914310Y-55810153D01*
X91110511Y-61385522D02*
X90093684Y-60469967D01*
X90093684Y-60469967D02*
X90078790Y-60185366D01*
X91202196Y-66002049D02*
X92661081Y-65925593D01*
X92661081Y-65925593D02*
X93415817Y-66605145D01*
X91344167Y-65844374D02*
X91202196Y-66002049D01*
X91166177Y-62448211D02*
X91344167Y-65844374D01*
X91166177Y-62448211D02*
X91110511Y-61385522D01*
X91181931Y-62748665D02*
X91166177Y-62448211D01*
X87243750Y-55206351D02*
X87319699Y-55274737D01*
X87044870Y-51411566D02*
X87179085Y-53972579D01*
X83061119Y-48061636D02*
X83788271Y-48716380D01*
X83788271Y-48716380D02*
X84786057Y-48664084D01*
X87914310Y-55810153D02*
X87319699Y-55274737D01*
X84786057Y-48664084D02*
X84825304Y-49413058D01*
X84825304Y-49413058D02*
X87044870Y-51411566D01*
X87179085Y-53972579D02*
X87243750Y-55206351D01*
X209028533Y-131175857D02*
X211178467Y-128658592D01*
X195574532Y-117111117D02*
X195215987Y-117814799D01*
X195482661Y-118635563D02*
X196564638Y-119186862D01*
X195215987Y-117814799D02*
X195482661Y-118635563D01*
X196585224Y-119250184D02*
X196564638Y-119186862D01*
X195965829Y-120465822D02*
X196585224Y-119250184D01*
X221263684Y-132360773D02*
X221262651Y-132347467D01*
X220353591Y-133426361D02*
X221263684Y-132360773D01*
X220355505Y-133426207D02*
X220353591Y-133426361D01*
X221943711Y-134782660D02*
X220355505Y-133426207D01*
X215262141Y-130918954D02*
X214198578Y-130010589D01*
X214198578Y-130010589D02*
X214119662Y-129007690D01*
X214119662Y-129007690D02*
X214522314Y-128536236D01*
X216925602Y-128971303D02*
X218321907Y-127336415D01*
X226220699Y-129410062D02*
X223921649Y-132101902D01*
X226580704Y-126091891D02*
X226579547Y-126077133D01*
X228100150Y-127389603D02*
X226580704Y-126091891D01*
X206417600Y-111808108D02*
X207583774Y-112402308D01*
X207583774Y-112402308D02*
X207895157Y-113360698D01*
X221488093Y-123569737D02*
X220642668Y-122847699D01*
X220642668Y-122847699D02*
X220547280Y-121635863D01*
X188511060Y-101036291D02*
X190024458Y-101036266D01*
X190024458Y-101036266D02*
X190709821Y-101721627D01*
X200881486Y-110558578D02*
X199615181Y-109913355D01*
X199615181Y-109913355D02*
X199476476Y-109486407D01*
X183711039Y-76586268D02*
X182961057Y-77336275D01*
X183711059Y-76236256D02*
X183711039Y-76586268D01*
X185861044Y-66686279D02*
X185861053Y-74086288D01*
X182961057Y-77336275D02*
X182961056Y-79036293D01*
X185861053Y-74086288D02*
X183711059Y-76236256D01*
X188511077Y-62986277D02*
X190395176Y-62986283D01*
X186816928Y-65730377D02*
X186377732Y-66169544D01*
X188511070Y-65730380D02*
X186816928Y-65730377D01*
X186611032Y-65936247D02*
X186377732Y-66169544D01*
X186377732Y-66169544D02*
X185861044Y-66686279D01*
X183011054Y-83436283D02*
X181784450Y-83436275D01*
X181784450Y-83436275D02*
X181269808Y-82921640D01*
X181269808Y-82921640D02*
X181269812Y-82091639D01*
X181269824Y-80727542D02*
X182657756Y-79339579D01*
X182961056Y-79036293D02*
X182657756Y-79339579D01*
X181269812Y-82091639D02*
X181269824Y-80727542D01*
X182657756Y-79339579D02*
X182211073Y-79786270D01*
X181844476Y-45336279D02*
X181169826Y-44661639D01*
X183011049Y-45336287D02*
X181844476Y-45336279D01*
X169461064Y-41936279D02*
X170804455Y-41936280D01*
X171255164Y-42387000D02*
X171255167Y-43336276D01*
X170804455Y-41936280D02*
X171255164Y-42387000D01*
X179403040Y-42894846D02*
X181169826Y-44661639D01*
X178244626Y-41736441D02*
X179403040Y-42894846D01*
X174925011Y-41736442D02*
X178244626Y-41736441D01*
X173925145Y-42736297D02*
X174925011Y-41736442D01*
X169511066Y-96086271D02*
X169511047Y-94436292D01*
X169511047Y-94436292D02*
X168835538Y-93760806D01*
X168835548Y-93561818D02*
X166811043Y-91537282D01*
X168835538Y-93760806D02*
X168835548Y-93561818D01*
X166811043Y-91537282D02*
X166811039Y-85836274D01*
X163961063Y-81436281D02*
X163961057Y-82986287D01*
X163961057Y-82986287D02*
X165128113Y-84153350D01*
X166811039Y-85836274D02*
X165128113Y-84153350D01*
X165128113Y-84153350D02*
X163961047Y-82986269D01*
X163961063Y-81436281D02*
X162954468Y-81436280D01*
X162954468Y-81436280D02*
X162239816Y-80721638D01*
X170914453Y-99086272D02*
X171599827Y-99771639D01*
X169461073Y-99086275D02*
X170914453Y-99086272D01*
X169511060Y-99036283D02*
X169461073Y-99086275D01*
X169511066Y-96086271D02*
X169511060Y-99036283D01*
X175894365Y-106657019D02*
X175894344Y-108684594D01*
X175894365Y-106657019D02*
X175894350Y-107252695D01*
X175904365Y-101982701D02*
X175904367Y-106957014D01*
X163961070Y-100486268D02*
X162345175Y-100486271D01*
X181247597Y-112058197D02*
X182591549Y-112380861D01*
X183160526Y-113309330D02*
X183013446Y-113921908D01*
X182591549Y-112380861D02*
X183160526Y-113309330D01*
X181331116Y-112007000D02*
X181247597Y-112058197D01*
X181602755Y-110875568D02*
X181331116Y-112007000D01*
X161356375Y-109464987D02*
X162922729Y-111031362D01*
X160661941Y-108770570D02*
X161356375Y-109464987D01*
X159031416Y-108770553D02*
X160661941Y-108770570D01*
X175572753Y-112135579D02*
X173867585Y-111726191D01*
X173867585Y-111726191D02*
X173863449Y-111725198D01*
X150411034Y-96536268D02*
X152375182Y-96536259D01*
X153531421Y-110170539D02*
X152376293Y-110170558D01*
X152376293Y-110170558D02*
X151652719Y-109447019D01*
X150618744Y-108413018D02*
X150782242Y-108576509D01*
X150419603Y-107389137D02*
X150419603Y-108213876D01*
X150917191Y-108711469D02*
X151652719Y-109447019D01*
X150419603Y-108213876D02*
X150917191Y-108711469D01*
X150782242Y-108576509D02*
X150917191Y-108711469D01*
X150419611Y-99182153D02*
X150419603Y-107389137D01*
X147711034Y-88736277D02*
X147711015Y-83636302D01*
X147711015Y-83636302D02*
X150411061Y-80936249D01*
X150411052Y-77536290D02*
X151844466Y-77536289D01*
X151844466Y-77536289D02*
X152559815Y-78251633D01*
X144911034Y-97936266D02*
X143984457Y-97936272D01*
X143984457Y-97936272D02*
X143259810Y-97211631D01*
X143259810Y-97211631D02*
X143259819Y-96561641D01*
X145561068Y-72186268D02*
X145561026Y-71836286D01*
X144811026Y-72936277D02*
X145561068Y-72186268D01*
X145561026Y-71836286D02*
X147711063Y-69686302D01*
X144811059Y-74236267D02*
X144811026Y-72936277D01*
X150195158Y-61386302D02*
X151835146Y-61386298D01*
X150195158Y-61386302D02*
X151785147Y-61386305D01*
X148211073Y-61386298D02*
X150195158Y-61386302D01*
X151835146Y-61386298D02*
X152379809Y-60841636D01*
X150425674Y-58471619D02*
X150411024Y-58486291D01*
X152379814Y-58471646D02*
X150425674Y-58471619D01*
X143814468Y-78936286D02*
X143129819Y-78251644D01*
X144911044Y-78936286D02*
X143814468Y-78936286D01*
X144811059Y-74236267D02*
X144811051Y-74690406D01*
X143129841Y-76371644D02*
X143129819Y-78251644D01*
X144811051Y-74690406D02*
X143129841Y-76371644D01*
X147711060Y-61886310D02*
X148211073Y-61386298D01*
X147711059Y-68042927D02*
X147711060Y-61886310D01*
X147711063Y-69686302D02*
X147711059Y-68042927D01*
X144891070Y-40816282D02*
X144911069Y-40836292D01*
X143064476Y-40816303D02*
X144891070Y-40816282D01*
X134161022Y-41936291D02*
X134627740Y-41469562D01*
X135511033Y-40586290D02*
X134627740Y-41469562D01*
X131361049Y-41936294D02*
X133265156Y-41936282D01*
X133265156Y-41936282D02*
X134161022Y-41936291D01*
X128661058Y-91436261D02*
X130711063Y-93486274D01*
X131461042Y-94486289D02*
X131461023Y-96336292D01*
X128661038Y-85986277D02*
X128661058Y-91436261D01*
X130711063Y-93486274D02*
X130711029Y-93736283D01*
X130711029Y-93736283D02*
X131461042Y-94486289D01*
X124814462Y-81436285D02*
X124099816Y-80721622D01*
X125861056Y-81436280D02*
X124814462Y-81436285D01*
X125861056Y-81436280D02*
X125861050Y-83186283D01*
X125861076Y-83186283D02*
X126753112Y-84078340D01*
X125861050Y-83186283D02*
X126753112Y-84078340D01*
X126753112Y-84078340D02*
X128661038Y-85986277D01*
X131361047Y-99086299D02*
X132814489Y-99086303D01*
X132814489Y-99086303D02*
X133529819Y-99801621D01*
X131461031Y-98986312D02*
X131361047Y-99086299D01*
X131461023Y-96336292D02*
X131461031Y-98986312D01*
X140557810Y-108471659D02*
X140233476Y-106945765D01*
X140233476Y-106945765D02*
X137078589Y-104896934D01*
X125861047Y-100486311D02*
X124924486Y-100486316D01*
X124924486Y-100486316D02*
X124239817Y-99801635D01*
X138452513Y-110194073D02*
X139302411Y-110746001D01*
X137031101Y-110496193D02*
X138452513Y-110194073D01*
X125570354Y-100777008D02*
X125861050Y-100486311D01*
X125570354Y-103872908D02*
X125570354Y-100777008D01*
X125612838Y-106323861D02*
X125560366Y-106404662D01*
X125570363Y-106124040D02*
X125612838Y-106323861D01*
X125570363Y-106124040D02*
X125570354Y-103872908D01*
X112220131Y-103052840D02*
X113649033Y-102977965D01*
X114548883Y-103788178D02*
X114577345Y-104331238D01*
X113649033Y-102977965D02*
X114548883Y-103788178D01*
X116535752Y-104228585D02*
X117213061Y-104838425D01*
X114577345Y-104331238D02*
X116535752Y-104228585D01*
X117213061Y-104838425D02*
X117946732Y-105498998D01*
X130635053Y-113286998D02*
X131942357Y-113009107D01*
X129812409Y-112752755D02*
X130635053Y-113286998D01*
X123845379Y-106294713D02*
X122848292Y-106294706D01*
X127262384Y-111096764D02*
X126980252Y-109769399D01*
X129812409Y-112752755D02*
X127262384Y-111096764D01*
X126980252Y-109769399D02*
X126771325Y-108786496D01*
X126708964Y-108746001D02*
X123883146Y-106332522D01*
X126771325Y-108786496D02*
X126708964Y-108746001D01*
X123883146Y-106332522D02*
X123845379Y-106294713D01*
X109420809Y-91483451D02*
X109364808Y-90414946D01*
X109364808Y-90414946D02*
X108502999Y-89638996D01*
X108502999Y-89638996D02*
X108403554Y-87741579D01*
X108403554Y-87741579D02*
X109094331Y-86974366D01*
X109094331Y-86974366D02*
X110282712Y-86912095D01*
X110282712Y-86912095D02*
X110422570Y-86904769D01*
X111223134Y-84028954D02*
X112312479Y-83971859D01*
X112312479Y-83971859D02*
X113035664Y-84623016D01*
X113035664Y-84623016D02*
X113072825Y-85332028D01*
X106783811Y-104757811D02*
X106800947Y-104738767D01*
X105073208Y-104847444D02*
X106783811Y-104757811D01*
X106487479Y-100859853D02*
X104925144Y-102594995D01*
X105041701Y-104819056D02*
X105073208Y-104847444D01*
X104925144Y-102594995D02*
X105041701Y-104819056D01*
X90572380Y-74046044D02*
X91187446Y-73362907D01*
X89773473Y-74087881D02*
X90572380Y-74046044D01*
X88969117Y-74981210D02*
X89773473Y-74087881D01*
X91099398Y-79325670D02*
X89102582Y-77527735D01*
X89102582Y-77527735D02*
X88969117Y-74981210D01*
X91109866Y-79525421D02*
X91099398Y-79325670D01*
X84705369Y-67744436D02*
X84020274Y-67127570D01*
X85783032Y-67687972D02*
X84705369Y-67744436D01*
X85783032Y-67687972D02*
X85858321Y-69125119D01*
X85858321Y-69125119D02*
X87717485Y-70799122D01*
X90236078Y-70667123D02*
X91086295Y-71432651D01*
X91187446Y-73362907D02*
X91086295Y-71432651D01*
X87717485Y-70799122D02*
X90236078Y-70667123D01*
X93297722Y-84968357D02*
X94032316Y-85629811D01*
X92199240Y-85025919D02*
X93297722Y-84968357D01*
X94032316Y-85629811D02*
X94068916Y-86327987D01*
X91950643Y-80282464D02*
X91765192Y-80115483D01*
X92199240Y-85025919D02*
X91950643Y-80282464D01*
X91765192Y-80115483D02*
X91109866Y-79525421D01*
X89827631Y-90407425D02*
X90152122Y-96598938D01*
X90152122Y-96598938D02*
X92254030Y-98491514D01*
X92254030Y-98491514D02*
X92264495Y-98691225D01*
X92264495Y-98691225D02*
X93105290Y-99448277D01*
X93105290Y-99448277D02*
X93243969Y-102094650D01*
X85912081Y-86757347D02*
X86780032Y-86711845D01*
X85153410Y-86074235D02*
X85912081Y-86757347D01*
X85153410Y-86074235D02*
X85118878Y-85415139D01*
X86780034Y-86711851D02*
X86780032Y-86711845D01*
X86918736Y-89358221D02*
X86780034Y-86711851D01*
X93338175Y-103892225D02*
X93196255Y-104049836D01*
X93243969Y-102094650D02*
X93338175Y-103892225D01*
X93196255Y-104049836D02*
X95350360Y-103936927D01*
X85847171Y-104434991D02*
X85881195Y-105084102D01*
X86669425Y-105793804D02*
X87777060Y-105735753D01*
X85881195Y-105084102D02*
X86669425Y-105793804D01*
X82299840Y-102492980D02*
X82206908Y-100720396D01*
X83200546Y-99616898D02*
X82206908Y-100720396D01*
X83115240Y-97989108D02*
X83174381Y-99117540D01*
X83200546Y-99616898D02*
X83115240Y-97989108D01*
X215241798Y-145895925D02*
X213947129Y-145997809D01*
X218372732Y-142230108D02*
X215241798Y-145895925D01*
X222192737Y-138904473D02*
X221039960Y-140254199D01*
X219423017Y-142147422D02*
X218372758Y-142230085D01*
X221039961Y-140254209D02*
X219423017Y-142147422D01*
X105387450Y-79678379D02*
X106191795Y-78785034D01*
X106191795Y-78785034D02*
X106178714Y-78535410D01*
X106178714Y-78535410D02*
X107503516Y-77064059D01*
X110226121Y-65005043D02*
X111635029Y-64931206D01*
X108461339Y-71456200D02*
X107462931Y-70557265D01*
X108513692Y-72454878D02*
X108461339Y-71456200D01*
X107462931Y-70557265D02*
X107379229Y-68959457D01*
X107379229Y-68959457D02*
X108183534Y-68066133D01*
X108183534Y-68066133D02*
X111585956Y-67887819D01*
X111585956Y-67887819D02*
X112330569Y-67060836D01*
X111635029Y-64931206D02*
X111990798Y-64912558D01*
X105502591Y-81875356D02*
X105387450Y-79678379D01*
X103884053Y-84413569D02*
X103919643Y-85092641D01*
X104676351Y-85773968D02*
X105803927Y-85714875D01*
X103919643Y-85092641D02*
X104676351Y-85773968D01*
X102931986Y-47713080D02*
X102204851Y-47058369D01*
X103809940Y-47667070D02*
X102931986Y-47713080D01*
X91634130Y-46903273D02*
X92357310Y-47554421D01*
X90205252Y-46978160D02*
X91634130Y-46903273D01*
X92357310Y-47554421D02*
X93719979Y-46041041D01*
X199721770Y-94216642D02*
X199085662Y-95873736D01*
X200566549Y-101562715D02*
X200716190Y-101514092D01*
X211187386Y-101888747D02*
X211056806Y-101822217D01*
X211188101Y-101894839D02*
X209364565Y-100965698D01*
X209364565Y-100965698D02*
X208691406Y-98893908D01*
X206167304Y-97607824D02*
X202019922Y-98955393D01*
X208691406Y-98893908D02*
X206167304Y-97607824D01*
X202019922Y-98955393D02*
X200716188Y-101514091D01*
X201402116Y-97054051D02*
X202019922Y-98955393D01*
X199085660Y-95873752D02*
X201402116Y-97054051D01*
X223330325Y-109009136D02*
X222324965Y-110471966D01*
X224690410Y-110074119D02*
X224691051Y-110078199D01*
X224680869Y-110075618D02*
X224690410Y-110074119D01*
X233544580Y-117537174D02*
X233374416Y-115374862D01*
X226959785Y-109896266D02*
X224680869Y-110075618D01*
X233374416Y-115374862D02*
X226959785Y-109896266D01*
X223423579Y-109001789D02*
X223330322Y-109009127D01*
X224680869Y-110075618D02*
X223423579Y-109001789D01*
X223172112Y-111195499D02*
X223450162Y-114728417D01*
X222324949Y-110471949D02*
X223172112Y-111195499D01*
X183011040Y-96321279D02*
X185752038Y-93580277D01*
X188511043Y-82036268D02*
X189744451Y-82036283D01*
X189744451Y-82036283D02*
X190399818Y-82691637D01*
X190399818Y-82691637D02*
X190399824Y-83421636D01*
X190399824Y-83421636D02*
X190399816Y-84456614D01*
X190399824Y-83421636D02*
X190399818Y-88031648D01*
X190399818Y-88031648D02*
X189149811Y-89281633D01*
X187304284Y-89281635D02*
X185752043Y-90833873D01*
X185752038Y-93580277D02*
X185752043Y-90833873D01*
X189149811Y-89281633D02*
X187304284Y-89281635D01*
X182154459Y-102436278D02*
X181449817Y-101731635D01*
X183011059Y-102436275D02*
X182154459Y-102436278D01*
X183011040Y-96321279D02*
X183011041Y-98040406D01*
X181449820Y-99601636D02*
X181449817Y-101731635D01*
X183011041Y-98040406D02*
X181449820Y-99601636D01*
X214354628Y-53541272D02*
X214354630Y-53957882D01*
X214221224Y-53541292D02*
X214354628Y-53541272D01*
D31*
X213971227Y-53541276D02*
X211860978Y-55651523D01*
X214354628Y-53541272D02*
X213971227Y-53541276D01*
X208140989Y-53671532D02*
X208140983Y-52831522D01*
X208140983Y-52831522D02*
X207430989Y-52121517D01*
X208140994Y-53671517D02*
X208140989Y-56361530D01*
X205602193Y-50821513D02*
X205181006Y-51242735D01*
X206379767Y-50821544D02*
X205602193Y-50821513D01*
X205180989Y-53611537D02*
X205240983Y-53671527D01*
X205181006Y-51242735D02*
X205180989Y-53611537D01*
X206395386Y-50837139D02*
X206379767Y-50821544D01*
X206410988Y-50821530D02*
X206395386Y-50837139D01*
X209510991Y-50821518D02*
X206410988Y-50821530D01*
X210360988Y-51671537D02*
X209510991Y-50821518D01*
X221807676Y-80894279D02*
X221807661Y-78484259D01*
X224607651Y-80894250D02*
X224607649Y-78484242D01*
X224607649Y-78484286D02*
X224607649Y-78484242D01*
X221807661Y-78484259D02*
X224607649Y-78484286D01*
X221930994Y-73551520D02*
X223226983Y-73551527D01*
X223226983Y-73551527D02*
X223958262Y-72820235D01*
X214989605Y-91268557D02*
X214660038Y-90938982D01*
X214989607Y-96559398D02*
X214989605Y-91268557D01*
X214650035Y-96588973D02*
X214979603Y-96259399D01*
X217165973Y-89125780D02*
X218334625Y-87957139D01*
X218334629Y-85857125D02*
X218324588Y-85857131D01*
X218334625Y-87957139D02*
X218334629Y-85857125D01*
X218324588Y-85857131D02*
X217226731Y-84759283D01*
X216845981Y-89445771D02*
X217165973Y-89125780D01*
X216845981Y-89445771D02*
X216153232Y-89445777D01*
X217226725Y-71445027D02*
X217226724Y-61145032D01*
X217236727Y-72085027D02*
X217226725Y-71445027D01*
X217236733Y-80885026D02*
X217236727Y-72085027D01*
X217226738Y-83639276D02*
X217226728Y-84439280D01*
X217236733Y-80885026D02*
X217226738Y-83639276D01*
X217226728Y-84439280D02*
X217226731Y-84759283D01*
X214660029Y-90938977D02*
X215873975Y-89725031D01*
X216153232Y-89445777D02*
X215873975Y-89725031D01*
X215873975Y-89725031D02*
X214660030Y-90938978D01*
D32*
X216103606Y-87292152D02*
X214823601Y-86012148D01*
X213855986Y-85044535D02*
X214823601Y-86012148D01*
X213535986Y-84724538D02*
X213855986Y-85044535D01*
X212603607Y-84724538D02*
X213535986Y-84724538D01*
X211431223Y-86012155D02*
X212283606Y-86012145D01*
X210463609Y-85044535D02*
X211431223Y-86012155D01*
X212283606Y-86012145D02*
X213563608Y-87292151D01*
X210463606Y-84724531D02*
X210463609Y-85044535D01*
X211023603Y-87292155D02*
X209743603Y-86012159D01*
X209743603Y-86012159D02*
X209291227Y-86012151D01*
X208323609Y-85044542D02*
X208591689Y-85312625D01*
X208323612Y-84724525D02*
X208323609Y-85044542D01*
X209291227Y-86012151D02*
X208591689Y-85312625D01*
X208591689Y-85312625D02*
X208323606Y-85044535D01*
X208483604Y-87292153D02*
X207203608Y-86012153D01*
X206183609Y-84732157D02*
X206243601Y-84732154D01*
X206183603Y-84992155D02*
X206722881Y-85531434D01*
X206183610Y-84732151D02*
X206183603Y-84992155D01*
X206243606Y-85052152D02*
X206722881Y-85531434D01*
X206722881Y-85531434D02*
X207203608Y-86012153D01*
M02*
