G04 #@! TF.GenerationSoftware,KiCad,Pcbnew,(5.1.12-1-10_14)*
G04 #@! TF.CreationDate,2021-11-28T14:18:10+00:00*
G04 #@! TF.ProjectId,avalanche-hotswap,6176616c-616e-4636-9865-2d686f747377,rev?*
G04 #@! TF.SameCoordinates,Original*
G04 #@! TF.FileFunction,Paste,Top*
G04 #@! TF.FilePolarity,Positive*
%FSLAX46Y46*%
G04 Gerber Fmt 4.6, Leading zero omitted, Abs format (unit mm)*
G04 Created by KiCad (PCBNEW (5.1.12-1-10_14)) date 2021-11-28 14:18:10*
%MOMM*%
%LPD*%
G01*
G04 APERTURE LIST*
%ADD10C,0.100000*%
%ADD11R,2.300000X2.000000*%
%ADD12R,1.143000X0.635000*%
%ADD13R,1.700000X1.000000*%
%ADD14R,0.800000X1.200000*%
%ADD15R,1.500000X0.800000*%
%ADD16R,1.200000X0.800000*%
%ADD17R,0.800000X1.500000*%
%ADD18R,0.950000X1.300000*%
%ADD19R,1.300000X0.950000*%
%ADD20R,0.635000X1.143000*%
G04 APERTURE END LIST*
D10*
G36*
X99237623Y-116268220D02*
G01*
X99342295Y-118265479D01*
X97045447Y-118385852D01*
X96940775Y-116388593D01*
X99237623Y-116268220D01*
G37*
G36*
X86422095Y-114396368D02*
G01*
X86526767Y-116393627D01*
X84229919Y-116514000D01*
X84125247Y-114516741D01*
X86422095Y-114396368D01*
G37*
G36*
X83853635Y-123187888D02*
G01*
X82904937Y-123237607D01*
X82836901Y-121939388D01*
X83785599Y-121889669D01*
X83853635Y-123187888D01*
G37*
G36*
X84039427Y-126733022D02*
G01*
X83090729Y-126782741D01*
X83022693Y-125484522D01*
X83971391Y-125434803D01*
X84039427Y-126733022D01*
G37*
D11*
X192761031Y-37356300D03*
X180061031Y-34816300D03*
X135611050Y-92506290D03*
X122911050Y-89966290D03*
D12*
X212603606Y-84724538D03*
X212603606Y-83723778D03*
X210471223Y-84724531D03*
X210471223Y-83723771D03*
X208331229Y-84724533D03*
X208331229Y-83723773D03*
X206191226Y-84724529D03*
X206191226Y-83723769D03*
D13*
X150411038Y-97936262D03*
X150411038Y-96536262D03*
X144911038Y-97936262D03*
X144911038Y-96536262D03*
D11*
X173711031Y-73456268D03*
X161011031Y-70916268D03*
D10*
G36*
X104908003Y-84860591D02*
G01*
X104855667Y-83861962D01*
X106553337Y-83772991D01*
X106605673Y-84771620D01*
X104908003Y-84860591D01*
G37*
G36*
X104981273Y-86258673D02*
G01*
X104928937Y-85260044D01*
X106626607Y-85171073D01*
X106678943Y-86169702D01*
X104981273Y-86258673D01*
G37*
G36*
X110400465Y-84572743D02*
G01*
X110348129Y-83574114D01*
X112045799Y-83485143D01*
X112098135Y-84483772D01*
X110400465Y-84572743D01*
G37*
G36*
X110473735Y-85970825D02*
G01*
X110421399Y-84972196D01*
X112119069Y-84883225D01*
X112171405Y-85881854D01*
X110473735Y-85970825D01*
G37*
G36*
X204797659Y-113115133D02*
G01*
X205251650Y-112224127D01*
X206766361Y-112995911D01*
X206312370Y-113886917D01*
X204797659Y-113115133D01*
G37*
G36*
X205433245Y-111867724D02*
G01*
X205887236Y-110976718D01*
X207401947Y-111748502D01*
X206947956Y-112639508D01*
X205433245Y-111867724D01*
G37*
G36*
X199897123Y-110618186D02*
G01*
X200351114Y-109727180D01*
X201865825Y-110498964D01*
X201411834Y-111389970D01*
X199897123Y-110618186D01*
G37*
G36*
X200532709Y-109370777D02*
G01*
X200986700Y-108479771D01*
X202501411Y-109251555D01*
X202047420Y-110142561D01*
X200532709Y-109370777D01*
G37*
G36*
X136594708Y-112531408D02*
G01*
X136386797Y-111553260D01*
X138049648Y-111199810D01*
X138257559Y-112177958D01*
X136594708Y-112531408D01*
G37*
G36*
X136303632Y-111162002D02*
G01*
X136095721Y-110183854D01*
X137758572Y-109830404D01*
X137966483Y-110808552D01*
X136303632Y-111162002D01*
G37*
G36*
X131214896Y-113674922D02*
G01*
X131006985Y-112696774D01*
X132669836Y-112343324D01*
X132877747Y-113321472D01*
X131214896Y-113674922D01*
G37*
G36*
X130923820Y-112305516D02*
G01*
X130715909Y-111327368D01*
X132378760Y-110973918D01*
X132586671Y-111952066D01*
X130923820Y-112305516D01*
G37*
D13*
X188511082Y-64386269D03*
X188511082Y-62986269D03*
X183011082Y-64386269D03*
X183011082Y-62986269D03*
D10*
G36*
X86881120Y-104881473D02*
G01*
X86828784Y-103882844D01*
X88526454Y-103793873D01*
X88578790Y-104792502D01*
X86881120Y-104881473D01*
G37*
G36*
X86954390Y-106279555D02*
G01*
X86902054Y-105280926D01*
X88599724Y-105191955D01*
X88652060Y-106190584D01*
X86954390Y-106279555D01*
G37*
G36*
X92373582Y-104593625D02*
G01*
X92321246Y-103594996D01*
X94018916Y-103506025D01*
X94071252Y-104504654D01*
X92373582Y-104593625D01*
G37*
G36*
X92446852Y-105991707D02*
G01*
X92394516Y-104993078D01*
X94092186Y-104904107D01*
X94144522Y-105902736D01*
X92446852Y-105991707D01*
G37*
G36*
X85884106Y-85857586D02*
G01*
X85831770Y-84858957D01*
X87529440Y-84769986D01*
X87581776Y-85768615D01*
X85884106Y-85857586D01*
G37*
G36*
X85957376Y-87255668D02*
G01*
X85905040Y-86257039D01*
X87602710Y-86168068D01*
X87655046Y-87166697D01*
X85957376Y-87255668D01*
G37*
G36*
X91376568Y-85569738D02*
G01*
X91324232Y-84571109D01*
X93021902Y-84482138D01*
X93074238Y-85480767D01*
X91376568Y-85569738D01*
G37*
G36*
X91449838Y-86967820D02*
G01*
X91397502Y-85969191D01*
X93095172Y-85880220D01*
X93147508Y-86878849D01*
X91449838Y-86967820D01*
G37*
G36*
X84887085Y-66833685D02*
G01*
X84834749Y-65835056D01*
X86532419Y-65746085D01*
X86584755Y-66744714D01*
X84887085Y-66833685D01*
G37*
G36*
X84960355Y-68231767D02*
G01*
X84908019Y-67233138D01*
X86605689Y-67144167D01*
X86658025Y-68142796D01*
X84960355Y-68231767D01*
G37*
G36*
X90379547Y-66545837D02*
G01*
X90327211Y-65547208D01*
X92024881Y-65458237D01*
X92077217Y-66456866D01*
X90379547Y-66545837D01*
G37*
G36*
X90452817Y-67943919D02*
G01*
X90400481Y-66945290D01*
X92098151Y-66856319D01*
X92150487Y-67854948D01*
X90452817Y-67943919D01*
G37*
G36*
X83890132Y-47809800D02*
G01*
X83837796Y-46811171D01*
X85535466Y-46722200D01*
X85587802Y-47720829D01*
X83890132Y-47809800D01*
G37*
G36*
X83963402Y-49207882D02*
G01*
X83911066Y-48209253D01*
X85608736Y-48120282D01*
X85661072Y-49118911D01*
X83963402Y-49207882D01*
G37*
G36*
X89382594Y-47521952D02*
G01*
X89330258Y-46523323D01*
X91027928Y-46434352D01*
X91080264Y-47432981D01*
X89382594Y-47521952D01*
G37*
G36*
X89455864Y-48920034D02*
G01*
X89403528Y-47921405D01*
X91101198Y-47832434D01*
X91153534Y-48831063D01*
X89455864Y-48920034D01*
G37*
G36*
X102914000Y-46812800D02*
G01*
X102861664Y-45814171D01*
X104559334Y-45725200D01*
X104611670Y-46723829D01*
X102914000Y-46812800D01*
G37*
G36*
X102987270Y-48210882D02*
G01*
X102934934Y-47212253D01*
X104632604Y-47123282D01*
X104684940Y-48121911D01*
X102987270Y-48210882D01*
G37*
G36*
X108406462Y-46524952D02*
G01*
X108354126Y-45526323D01*
X110051796Y-45437352D01*
X110104132Y-46435981D01*
X108406462Y-46524952D01*
G37*
G36*
X108479732Y-47923034D02*
G01*
X108427396Y-46924405D01*
X110125066Y-46835434D01*
X110177402Y-47834063D01*
X108479732Y-47923034D01*
G37*
G36*
X103911002Y-65836670D02*
G01*
X103858666Y-64838041D01*
X105556336Y-64749070D01*
X105608672Y-65747699D01*
X103911002Y-65836670D01*
G37*
G36*
X103984272Y-67234752D02*
G01*
X103931936Y-66236123D01*
X105629606Y-66147152D01*
X105681942Y-67145781D01*
X103984272Y-67234752D01*
G37*
G36*
X109403464Y-65548822D02*
G01*
X109351128Y-64550193D01*
X111048798Y-64461222D01*
X111101134Y-65459851D01*
X109403464Y-65548822D01*
G37*
G36*
X109476734Y-66946904D02*
G01*
X109424398Y-65948275D01*
X111122068Y-65859304D01*
X111174404Y-66857933D01*
X109476734Y-66946904D01*
G37*
G36*
X105905021Y-103884497D02*
G01*
X105852685Y-102885868D01*
X107550355Y-102796897D01*
X107602691Y-103795526D01*
X105905021Y-103884497D01*
G37*
G36*
X105978291Y-105282579D02*
G01*
X105925955Y-104283950D01*
X107623625Y-104194979D01*
X107675961Y-105193608D01*
X105978291Y-105282579D01*
G37*
G36*
X111397483Y-103596649D02*
G01*
X111345147Y-102598020D01*
X113042817Y-102509049D01*
X113095153Y-103507678D01*
X111397483Y-103596649D01*
G37*
G36*
X111470753Y-104994731D02*
G01*
X111418417Y-103996102D01*
X113116087Y-103907131D01*
X113168423Y-104905760D01*
X111470753Y-104994731D01*
G37*
D13*
X131361054Y-100486308D03*
X131361054Y-99086308D03*
X125861054Y-100486308D03*
X125861054Y-99086308D03*
X131361043Y-81436295D03*
X131361043Y-80036295D03*
X125861043Y-81436295D03*
X125861043Y-80036295D03*
X131361052Y-62386263D03*
X131361052Y-60986263D03*
X125861052Y-62386263D03*
X125861052Y-60986263D03*
X131361061Y-43336299D03*
X131361061Y-41936299D03*
X125861061Y-43336299D03*
X125861061Y-41936299D03*
X150411066Y-40836298D03*
X150411066Y-39436298D03*
X144911066Y-40836298D03*
X144911066Y-39436298D03*
X150411027Y-59886293D03*
X150411027Y-58486293D03*
X144911027Y-59886293D03*
X144911027Y-58486293D03*
X150411055Y-78936290D03*
X150411055Y-77536290D03*
X144911055Y-78936290D03*
X144911055Y-77536290D03*
X159031421Y-110170563D03*
X159031421Y-108770563D03*
X153531421Y-110170563D03*
X153531421Y-108770563D03*
D10*
G36*
X179977547Y-113707280D02*
G01*
X180210992Y-112734910D01*
X181864021Y-113131768D01*
X181630576Y-114104138D01*
X179977547Y-113707280D01*
G37*
G36*
X180304370Y-112345962D02*
G01*
X180537815Y-111373592D01*
X182190844Y-111770450D01*
X181957399Y-112742820D01*
X180304370Y-112345962D01*
G37*
G36*
X174629512Y-112423330D02*
G01*
X174862957Y-111450960D01*
X176515986Y-111847818D01*
X176282541Y-112820188D01*
X174629512Y-112423330D01*
G37*
G36*
X174956335Y-111062012D02*
G01*
X175189780Y-110089642D01*
X176842809Y-110486500D01*
X176609364Y-111458870D01*
X174956335Y-111062012D01*
G37*
D13*
X169461087Y-100486269D03*
X169461087Y-99086269D03*
X163961087Y-100486269D03*
X163961087Y-99086269D03*
X169461068Y-81436272D03*
X169461068Y-80036272D03*
X163961068Y-81436272D03*
X163961068Y-80036272D03*
X169461050Y-62386293D03*
X169461050Y-60986293D03*
X163961050Y-62386293D03*
X163961050Y-60986293D03*
X169461054Y-43336280D03*
X169461054Y-41936280D03*
X163961054Y-43336280D03*
X163961054Y-41936280D03*
X188511067Y-45336291D03*
X188511067Y-43936291D03*
X183011067Y-45336291D03*
X183011067Y-43936291D03*
X188511066Y-83436271D03*
X188511066Y-82036271D03*
X183011066Y-83436271D03*
X183011066Y-82036271D03*
D10*
G36*
X224699259Y-126969877D02*
G01*
X225348707Y-126209471D01*
X226641397Y-127313533D01*
X225991949Y-128073939D01*
X224699259Y-126969877D01*
G37*
G36*
X225608486Y-125905309D02*
G01*
X226257934Y-125144903D01*
X227550624Y-126248965D01*
X226901176Y-127009371D01*
X225608486Y-125905309D01*
G37*
G36*
X220517026Y-123397913D02*
G01*
X221166474Y-122637507D01*
X222459164Y-123741569D01*
X221809716Y-124501975D01*
X220517026Y-123397913D01*
G37*
G36*
X221426253Y-122333345D02*
G01*
X222075701Y-121572939D01*
X223368391Y-122677001D01*
X222718943Y-123437407D01*
X221426253Y-122333345D01*
G37*
G36*
X200480827Y-121743422D02*
G01*
X200934818Y-120852416D01*
X202449529Y-121624200D01*
X201995538Y-122515206D01*
X200480827Y-121743422D01*
G37*
G36*
X201116413Y-120496013D02*
G01*
X201570404Y-119605007D01*
X203085115Y-120376791D01*
X202631124Y-121267797D01*
X201116413Y-120496013D01*
G37*
G36*
X195580291Y-119246475D02*
G01*
X196034282Y-118355469D01*
X197548993Y-119127253D01*
X197095002Y-120018259D01*
X195580291Y-119246475D01*
G37*
G36*
X196215877Y-117999066D02*
G01*
X196669868Y-117108060D01*
X198184579Y-117879844D01*
X197730588Y-118770850D01*
X196215877Y-117999066D01*
G37*
G36*
X218473294Y-134319090D02*
G01*
X219122742Y-133558684D01*
X220415432Y-134662746D01*
X219765984Y-135423152D01*
X218473294Y-134319090D01*
G37*
G36*
X219382521Y-133254522D02*
G01*
X220031969Y-132494116D01*
X221324659Y-133598178D01*
X220675211Y-134358584D01*
X219382521Y-133254522D01*
G37*
G36*
X214291061Y-130747126D02*
G01*
X214940509Y-129986720D01*
X216233199Y-131090782D01*
X215583751Y-131851188D01*
X214291061Y-130747126D01*
G37*
G36*
X215200288Y-129682558D02*
G01*
X215849736Y-128922152D01*
X217142426Y-130026214D01*
X216492978Y-130786620D01*
X215200288Y-129682558D01*
G37*
D13*
X188511072Y-102436290D03*
X188511072Y-101036290D03*
X183011072Y-102436290D03*
X183011072Y-101036290D03*
D11*
X173711048Y-92506279D03*
X161011048Y-89966279D03*
D10*
G36*
X101409487Y-36257052D02*
G01*
X101514159Y-38254311D01*
X99217311Y-38374684D01*
X99112639Y-36377425D01*
X101409487Y-36257052D01*
G37*
G36*
X114225015Y-38128904D02*
G01*
X114329687Y-40126163D01*
X112032839Y-40246536D01*
X111928167Y-38249277D01*
X114225015Y-38128904D01*
G37*
D14*
X225060992Y-69191514D03*
X222860992Y-69191514D03*
X225060992Y-76511514D03*
X222860992Y-76511514D03*
D15*
X221930992Y-70651514D03*
X221930992Y-72131514D03*
X221930992Y-75071514D03*
D16*
X203780995Y-50541510D03*
X203780995Y-52741510D03*
X211100995Y-50541510D03*
X211100995Y-52741510D03*
D17*
X205240995Y-53671510D03*
X206720995Y-53671510D03*
X209660995Y-53671510D03*
D11*
X192761032Y-94506299D03*
X180061032Y-91966299D03*
X141961046Y-87458793D03*
X154661046Y-89998793D03*
D10*
G36*
X206203142Y-133151329D02*
G01*
X207502038Y-131630517D01*
X209250972Y-133124247D01*
X207952076Y-134645059D01*
X206203142Y-133151329D01*
G37*
G36*
X214210700Y-143330750D02*
G01*
X215509596Y-141809938D01*
X217258530Y-143303668D01*
X215959634Y-144824480D01*
X214210700Y-143330750D01*
G37*
D11*
X149272373Y-116740398D03*
X161972373Y-119280398D03*
D10*
G36*
X235619757Y-123807148D02*
G01*
X234320861Y-125327960D01*
X232571927Y-123834230D01*
X233870823Y-122313418D01*
X235619757Y-123807148D01*
G37*
G36*
X227612199Y-113627727D02*
G01*
X226313303Y-115148539D01*
X224564369Y-113654809D01*
X225863265Y-112133997D01*
X227612199Y-113627727D01*
G37*
G36*
X222348246Y-111276675D02*
G01*
X221565326Y-110738589D01*
X222301654Y-109667225D01*
X223084574Y-110205311D01*
X222348246Y-111276675D01*
G37*
G36*
X220337504Y-114202323D02*
G01*
X219554584Y-113664237D01*
X220290912Y-112592873D01*
X221073832Y-113130959D01*
X220337504Y-114202323D01*
G37*
G36*
X128238854Y-121550779D02*
G01*
X127823031Y-119594484D01*
X130072770Y-119116287D01*
X130488593Y-121072582D01*
X128238854Y-121550779D01*
G37*
G36*
X141189424Y-121394795D02*
G01*
X140773601Y-119438500D01*
X143023340Y-118960303D01*
X143439163Y-120916598D01*
X141189424Y-121394795D01*
G37*
G36*
X145144499Y-112969952D02*
G01*
X146089294Y-112870650D01*
X146225181Y-114163528D01*
X145280386Y-114262830D01*
X145144499Y-112969952D01*
G37*
G36*
X145515575Y-116500504D02*
G01*
X146460370Y-116401202D01*
X146596257Y-117694080D01*
X145651462Y-117793382D01*
X145515575Y-116500504D01*
G37*
G36*
X188247130Y-123460333D02*
G01*
X189155111Y-121678320D01*
X191204426Y-122722499D01*
X190296445Y-124504512D01*
X188247130Y-123460333D01*
G37*
G36*
X198409777Y-131489169D02*
G01*
X199317758Y-129707156D01*
X201367073Y-130751335D01*
X200459092Y-132533348D01*
X198409777Y-131489169D01*
G37*
G36*
X168523228Y-118238483D02*
G01*
X168990119Y-116293743D01*
X171226570Y-116830667D01*
X170759679Y-118775407D01*
X168523228Y-118238483D01*
G37*
G36*
X180279374Y-123673059D02*
G01*
X180746265Y-121728319D01*
X182982716Y-122265243D01*
X182515825Y-124209983D01*
X180279374Y-123673059D01*
G37*
G36*
X83382590Y-56277958D02*
G01*
X83487262Y-58275217D01*
X81190414Y-58395590D01*
X81085742Y-56398331D01*
X83382590Y-56277958D01*
G37*
G36*
X96198118Y-58149810D02*
G01*
X96302790Y-60147069D01*
X94005942Y-60267442D01*
X93901270Y-58270183D01*
X96198118Y-58149810D01*
G37*
G36*
X103403499Y-74304855D02*
G01*
X103508171Y-76302114D01*
X101211323Y-76422487D01*
X101106651Y-74425228D01*
X103403499Y-74304855D01*
G37*
G36*
X116219027Y-76176707D02*
G01*
X116323699Y-78173966D01*
X114026851Y-78294339D01*
X113922179Y-76297080D01*
X116219027Y-76176707D01*
G37*
G36*
X222253650Y-138101722D02*
G01*
X222976036Y-138718698D01*
X222131754Y-139707226D01*
X221409368Y-139090250D01*
X222253650Y-138101722D01*
G37*
G36*
X224559190Y-135402280D02*
G01*
X225281576Y-136019256D01*
X224437294Y-137007784D01*
X223714908Y-136390808D01*
X224559190Y-135402280D01*
G37*
G36*
X204903130Y-130491534D02*
G01*
X205699867Y-131008941D01*
X204991836Y-132099212D01*
X204195099Y-131581805D01*
X204903130Y-130491534D01*
G37*
G36*
X206836598Y-127514254D02*
G01*
X207633335Y-128031661D01*
X206925304Y-129121932D01*
X206128567Y-128604525D01*
X206836598Y-127514254D01*
G37*
G36*
X186222461Y-121634728D02*
G01*
X187117970Y-121951844D01*
X186684021Y-123177278D01*
X185788512Y-122860162D01*
X186222461Y-121634728D01*
G37*
G36*
X187407475Y-118288350D02*
G01*
X188302984Y-118605466D01*
X187869035Y-119830900D01*
X186973526Y-119513784D01*
X187407475Y-118288350D01*
G37*
G36*
X166132526Y-116827481D02*
G01*
X167077321Y-116926783D01*
X166941434Y-118219661D01*
X165996639Y-118120359D01*
X166132526Y-116827481D01*
G37*
G36*
X166503602Y-113296929D02*
G01*
X167448397Y-113396231D01*
X167312510Y-114689109D01*
X166367715Y-114589807D01*
X166503602Y-113296929D01*
G37*
G36*
X199296162Y-96650803D02*
G01*
X198409260Y-96310354D01*
X198875138Y-95096699D01*
X199762040Y-95437148D01*
X199296162Y-96650803D01*
G37*
G36*
X198023956Y-99965013D02*
G01*
X197137054Y-99624564D01*
X197602932Y-98410909D01*
X198489834Y-98751358D01*
X198023956Y-99965013D01*
G37*
D18*
X177711059Y-99011295D03*
X177711059Y-102561295D03*
X158661057Y-96961253D03*
X158661057Y-100511253D03*
X139611030Y-94511290D03*
X139611030Y-98061290D03*
X120561055Y-97061258D03*
X120561055Y-100611258D03*
D10*
G36*
X100509508Y-105544138D02*
G01*
X99560810Y-105593857D01*
X99492774Y-104295638D01*
X100441472Y-104245919D01*
X100509508Y-105544138D01*
G37*
G36*
X100323716Y-101999004D02*
G01*
X99375018Y-102048723D01*
X99306982Y-100750504D01*
X100255680Y-100700785D01*
X100323716Y-101999004D01*
G37*
G36*
X82993983Y-106662354D02*
G01*
X82045285Y-106712073D01*
X81977249Y-105413854D01*
X82925947Y-105364135D01*
X82993983Y-106662354D01*
G37*
G36*
X82808191Y-103117220D02*
G01*
X81859493Y-103166939D01*
X81791457Y-101868720D01*
X82740155Y-101819001D01*
X82808191Y-103117220D01*
G37*
D18*
X177711059Y-79936286D03*
X177711059Y-83486286D03*
X158661040Y-77411262D03*
X158661040Y-80961262D03*
X139611048Y-75461270D03*
X139611048Y-79011270D03*
X120561047Y-77961282D03*
X120561047Y-81511282D03*
D10*
G36*
X99510068Y-85518994D02*
G01*
X98561370Y-85568713D01*
X98493334Y-84270494D01*
X99442032Y-84220775D01*
X99510068Y-85518994D01*
G37*
G36*
X99324276Y-81973860D02*
G01*
X98375578Y-82023579D01*
X98307542Y-80725360D01*
X99256240Y-80675641D01*
X99324276Y-81973860D01*
G37*
G36*
X88049914Y-72250566D02*
G01*
X88099633Y-73199264D01*
X86801414Y-73267300D01*
X86751695Y-72318602D01*
X88049914Y-72250566D01*
G37*
G36*
X84504780Y-72436358D02*
G01*
X84554499Y-73385056D01*
X83256280Y-73453092D01*
X83206561Y-72504394D01*
X84504780Y-72436358D01*
G37*
D18*
X175711066Y-59611268D03*
X175711066Y-63161268D03*
X158661041Y-58361284D03*
X158661041Y-61911284D03*
D19*
X130386043Y-65786277D03*
X126836043Y-65786277D03*
D18*
X120561054Y-58861303D03*
X120561054Y-62411303D03*
D10*
G36*
X98513086Y-66495109D02*
G01*
X97564388Y-66544828D01*
X97496352Y-65246609D01*
X98445050Y-65196890D01*
X98513086Y-66495109D01*
G37*
G36*
X98327294Y-62949975D02*
G01*
X97378596Y-62999694D01*
X97310560Y-61701475D01*
X98259258Y-61651756D01*
X98327294Y-62949975D01*
G37*
G36*
X80999996Y-68614555D02*
G01*
X80051298Y-68664274D01*
X79983262Y-67366055D01*
X80931960Y-67316336D01*
X80999996Y-68614555D01*
G37*
G36*
X80814204Y-65069421D02*
G01*
X79865506Y-65119140D01*
X79797470Y-63820921D01*
X80746168Y-63771202D01*
X80814204Y-65069421D01*
G37*
D18*
X175591057Y-39471260D03*
X175591057Y-43021260D03*
X158781066Y-39311283D03*
X158781066Y-42861283D03*
X139611020Y-37311284D03*
X139611020Y-40861284D03*
X120561040Y-39811264D03*
X120561040Y-43361264D03*
D10*
G36*
X97436396Y-46333816D02*
G01*
X96487698Y-46383535D01*
X96419662Y-45085316D01*
X97368360Y-45035597D01*
X97436396Y-46333816D01*
G37*
G36*
X97250604Y-42788682D02*
G01*
X96301906Y-42838401D01*
X96233870Y-41540182D01*
X97182568Y-41490463D01*
X97250604Y-42788682D01*
G37*
G36*
X80000388Y-49540767D02*
G01*
X79051690Y-49590486D01*
X78983654Y-48292267D01*
X79932352Y-48242548D01*
X80000388Y-49540767D01*
G37*
G36*
X79814596Y-45995633D02*
G01*
X78865898Y-46045352D01*
X78797862Y-44747133D01*
X79746560Y-44697414D01*
X79814596Y-45995633D01*
G37*
G36*
X97655551Y-55721732D02*
G01*
X97595731Y-54580299D01*
X98229861Y-54547066D01*
X98289681Y-55688499D01*
X97655551Y-55721732D01*
G37*
G36*
X96656163Y-55774108D02*
G01*
X96596343Y-54632675D01*
X97230473Y-54599442D01*
X97290293Y-55740875D01*
X96656163Y-55774108D01*
G37*
D20*
X138560273Y-55236288D03*
X139561033Y-55236288D03*
X176310658Y-52636296D03*
X177311418Y-52636296D03*
D12*
X220359616Y-62391777D03*
X220359616Y-63392537D03*
D10*
G36*
X84379594Y-75301853D02*
G01*
X84484266Y-77299112D01*
X82187418Y-77419485D01*
X82082746Y-75422226D01*
X84379594Y-75301853D01*
G37*
G36*
X97195122Y-77173705D02*
G01*
X97299794Y-79170964D01*
X95002946Y-79291337D01*
X94898274Y-77294078D01*
X97195122Y-77173705D01*
G37*
G36*
X102406501Y-55280960D02*
G01*
X102511173Y-57278219D01*
X100214325Y-57398592D01*
X100109653Y-55401333D01*
X102406501Y-55280960D01*
G37*
G36*
X115222029Y-57152812D02*
G01*
X115326701Y-59150071D01*
X113029853Y-59270444D01*
X112925181Y-57273185D01*
X115222029Y-57152812D01*
G37*
D11*
X135611042Y-73456298D03*
X122911042Y-70916298D03*
X192761055Y-75456295D03*
X180061055Y-72916295D03*
D10*
G36*
X85376580Y-94325735D02*
G01*
X85481252Y-96322994D01*
X83184404Y-96443367D01*
X83079732Y-94446108D01*
X85376580Y-94325735D01*
G37*
G36*
X98192108Y-96197587D02*
G01*
X98296780Y-98194846D01*
X95999932Y-98315219D01*
X95895260Y-96317960D01*
X98192108Y-96197587D01*
G37*
D11*
X154661028Y-70956305D03*
X141961028Y-68416305D03*
G36*
G01*
X222432623Y-81519297D02*
X221182623Y-81519297D01*
G75*
G02*
X220932623Y-81269297I0J250000D01*
G01*
X220932623Y-80519297D01*
G75*
G02*
X221182623Y-80269297I250000J0D01*
G01*
X222432623Y-80269297D01*
G75*
G02*
X222682623Y-80519297I0J-250000D01*
G01*
X222682623Y-81269297D01*
G75*
G02*
X222432623Y-81519297I-250000J0D01*
G01*
G37*
G36*
G01*
X222432623Y-84319297D02*
X221182623Y-84319297D01*
G75*
G02*
X220932623Y-84069297I0J250000D01*
G01*
X220932623Y-83319297D01*
G75*
G02*
X221182623Y-83069297I250000J0D01*
G01*
X222432623Y-83069297D01*
G75*
G02*
X222682623Y-83319297I0J-250000D01*
G01*
X222682623Y-84069297D01*
G75*
G02*
X222432623Y-84319297I-250000J0D01*
G01*
G37*
G36*
G01*
X223982675Y-83069263D02*
X225232675Y-83069263D01*
G75*
G02*
X225482675Y-83319263I0J-250000D01*
G01*
X225482675Y-84069263D01*
G75*
G02*
X225232675Y-84319263I-250000J0D01*
G01*
X223982675Y-84319263D01*
G75*
G02*
X223732675Y-84069263I0J250000D01*
G01*
X223732675Y-83319263D01*
G75*
G02*
X223982675Y-83069263I250000J0D01*
G01*
G37*
G36*
G01*
X223982675Y-80269263D02*
X225232675Y-80269263D01*
G75*
G02*
X225482675Y-80519263I0J-250000D01*
G01*
X225482675Y-81269263D01*
G75*
G02*
X225232675Y-81519263I-250000J0D01*
G01*
X223982675Y-81519263D01*
G75*
G02*
X223732675Y-81269263I0J250000D01*
G01*
X223732675Y-80519263D01*
G75*
G02*
X223982675Y-80269263I250000J0D01*
G01*
G37*
D10*
G36*
X104400479Y-93328751D02*
G01*
X104505151Y-95326010D01*
X102208303Y-95446383D01*
X102103631Y-93449124D01*
X104400479Y-93328751D01*
G37*
G36*
X117216007Y-95200603D02*
G01*
X117320679Y-97197862D01*
X115023831Y-97318235D01*
X114919159Y-95320976D01*
X117216007Y-95200603D01*
G37*
G36*
X214669634Y-107507129D02*
G01*
X213761653Y-109289142D01*
X211712338Y-108244963D01*
X212620319Y-106462950D01*
X214669634Y-107507129D01*
G37*
G36*
X204506987Y-99478293D02*
G01*
X203599006Y-101260306D01*
X201549691Y-100216127D01*
X202457672Y-98434114D01*
X204506987Y-99478293D01*
G37*
D11*
X192761041Y-56406267D03*
X180061041Y-53866267D03*
X173711049Y-54406285D03*
X161011049Y-51866285D03*
X173711056Y-35356263D03*
X161011056Y-32816263D03*
X154661032Y-51906303D03*
X141961032Y-49366303D03*
X141961020Y-30316301D03*
X154661020Y-32856301D03*
X135611032Y-54406293D03*
X122911032Y-51866293D03*
X135611034Y-35356295D03*
X122911034Y-32816295D03*
D10*
G36*
X82385608Y-37254051D02*
G01*
X82490280Y-39251310D01*
X80193432Y-39371683D01*
X80088760Y-37374424D01*
X82385608Y-37254051D01*
G37*
G36*
X95201136Y-39125903D02*
G01*
X95305808Y-41123162D01*
X93008960Y-41243535D01*
X92904288Y-39246276D01*
X95201136Y-39125903D01*
G37*
M02*
