M48
; DRILL file {KiCad (5.1.12-1-10_14)} date Sunday, November 28, 2021 at 02:19:16 PM
; FORMAT={-:-/ absolute / metric / decimal}
; #@! TF.CreationDate,2021-11-28T14:19:16+00:00
; #@! TF.GenerationSoftware,Kicad,Pcbnew,(5.1.12-1-10_14)
; #@! TF.FileFunction,Plated,1,2,PTH
FMAT,2
METRIC
T1C0.300
T2C0.400
T3C0.500
T4C0.813
T5C1.000
T6C1.300
T7C1.500
T8C2.200
%
G90
G05
T1
X82.899Y-114.05
X83.061Y-48.062
X84.02Y-67.128
X85.119Y-85.415
X85.132Y-89.652
X85.548Y-107.853
X85.847Y-104.435
X86.919Y-89.358
X87.13Y-113.578
X87.179Y-53.973
X88.907Y-112.055
X89.828Y-90.407
X91.501Y-35.394
X92.357Y-47.554
X92.734Y-55.002
X93.416Y-66.605
X93.72Y-46.041
X93.723Y-73.981
X94.069Y-86.328
X94.72Y-93.005
X95.35Y-103.937
X95.395Y-73.393
X95.873Y-113.115
X97.022Y-56.684
X98.021Y-56.632
X98.359Y-103.751
X98.74Y-114.422
X102.205Y-47.058
X102.511Y-73.52
X103.073Y-66.109
X103.884Y-84.414
X104.026Y-63.085
X105.073Y-104.847
X105.503Y-81.875
X106.487Y-100.86
X106.521Y-52.582
X107.504Y-77.064
X108.514Y-72.455
X109.386Y-48.974
X109.421Y-91.483
X110.423Y-86.905
X110.625Y-34.392
X111.242Y-46.585
X111.907Y-53.997
X111.991Y-64.913
X112.331Y-67.061
X113.073Y-85.332
X113.557Y-72.191
X114.572Y-91.564
X114.577Y-104.331
X116.422Y-90.566
X117.947Y-105.499
X120.561Y-67.636
X120.575Y-106.921
X122.848Y-106.295
X123.036Y-88.361
X123.161Y-69.086
X123.95Y-61.702
X124.1Y-80.722
X124.24Y-99.802
X124.961Y-40.836
X125.56Y-106.405
X128.611Y-48.398
X129.812Y-112.753
X133.265Y-41.936
X133.406Y-69.131
X133.411Y-61.69
X133.511Y-30.586
X133.53Y-99.802
X133.54Y-80.722
X133.566Y-50.081
X133.611Y-88.136
X134.911Y-59.786
X135.511Y-40.586
X136.77Y-103.952
X137.079Y-104.897
X138.137Y-53.411
X139.302Y-110.746
X139.561Y-56.836
X139.611Y-102.086
X140.211Y-84.136
X140.558Y-108.472
X140.661Y-59.536
X141.256Y-104.736
X142.061Y-47.336
X142.111Y-85.536
X142.311Y-66.536
X142.331Y-111.98
X143.064Y-40.816
X143.13Y-78.252
X143.26Y-96.562
X143.37Y-59.182
X144.611Y-55.886
X147.711Y-88.736
X150.411Y-80.936
X150.411Y-42.523
X150.42Y-99.182
X150.572Y-121.156
X151.653Y-109.447
X152.061Y-27.736
X152.355Y-40.836
X152.375Y-96.536
X152.38Y-60.842
X152.38Y-58.472
X152.56Y-78.252
X152.561Y-85.636
X152.716Y-47.581
X153.361Y-66.786
X154.711Y-91.868
X158.661Y-85.636
X160.661Y-68.276
X161.941Y-87.606
X162.194Y-60.986
X162.24Y-80.722
X162.345Y-100.486
X162.923Y-111.031
X162.98Y-40.662
X163.769Y-114.618
X166.511Y-48.436
X170.844Y-122.621
X171.211Y-30.386
X171.255Y-43.336
X171.39Y-80.742
X171.424Y-60.882
X171.6Y-99.772
X171.666Y-69.131
X171.716Y-88.181
X171.756Y-50.081
X173.868Y-111.726
X173.925Y-42.736
X174.649Y-89.966
X175.03Y-51.568
X175.894Y-108.685
X175.904Y-101.983
X177.311Y-54.336
X177.701Y-106.966
X179.711Y-71.236
X180.111Y-90.436
X181.17Y-44.662
X181.27Y-82.092
X181.295Y-62.986
X181.45Y-101.732
X181.603Y-110.876
X183.013Y-113.922
X183.961Y-50.786
X185.713Y-48.136
X188.511Y-46.636
X188.511Y-65.73
X188.785Y-127.801
X190.395Y-62.986
X190.4Y-83.422
X190.561Y-32.536
X190.71Y-101.722
X190.716Y-90.181
X191.18Y-44.622
X191.411Y-70.786
X191.461Y-85.196
X192.261Y-48.136
X192.461Y-60.786
X192.52Y-79.954
X193.213Y-78.276
X193.223Y-88.706
X193.746Y-115.023
X194.471Y-110.39
X194.678Y-73.861
X194.704Y-92.024
X194.704Y-86.725
X194.728Y-71.021
X194.738Y-68.751
X194.823Y-104.739
X195.33Y-69.989
X195.34Y-87.409
X195.575Y-117.111
X195.966Y-120.466
X196.371Y-72.517
X196.51Y-75.059
X196.52Y-88.049
X196.65Y-93.229
X197.1Y-80.209
X197.102Y-85.196
X197.359Y-51.97
X197.372Y-68.781
X199.476Y-109.486
X203.084Y-64.897
X203.265Y-117.437
X203.28Y-54.992
X203.78Y-80.892
X203.816Y-121.311
X204.394Y-97.168
X205.17Y-63.701
X205.18Y-81.812
X205.714Y-137.638
X205.978Y-94.84
X206.18Y-82.492
X206.446Y-93.945
X206.47Y-118.874
X206.884Y-120.986
X206.9Y-93.076
X207.647Y-122.173
X207.895Y-113.361
X208.067Y-115.741
X208.331Y-82.511
X209.029Y-131.176
X209.38Y-82.492
X210.43Y-66.241
X210.885Y-118.019
X211.178Y-128.659
X211.53Y-75.057
X211.59Y-72.517
X211.7Y-69.977
X211.79Y-81.481
X211.799Y-64.897
X211.8Y-77.597
X211.859Y-67.437
X212.145Y-80.137
X212.244Y-82.458
X212.761Y-118.133
X213.859Y-101.527
X213.947Y-145.998
X214.522Y-128.536
X214.999Y-106.212
X216.926Y-128.971
X217.914Y-104.224
X218.322Y-127.336
X218.353Y-105.243
X218.652Y-108.074
X218.985Y-67.437
X219.34Y-83.682
X219.696Y-104.52
X219.725Y-64.897
X219.735Y-82.287
X220.36Y-64.752
X220.547Y-121.636
X221.263Y-132.347
X221.66Y-108.807
X221.944Y-134.783
X223.922Y-132.102
X226.221Y-129.41
X228.1Y-127.39
X236.119Y-117.732
T2
X84.682Y-45.906
X85.649Y-64.931
X86.557Y-83.419
X87.74Y-102.974
X90.344Y-49.624
X92.809Y-49.846
X93.804Y-68.477
X95.077Y-85.476
X96.069Y-67.149
X96.093Y-102.594
X97.024Y-85.374
X101.29Y-45.446
X101.46Y-48.689
X101.539Y-50.189
X101.633Y-84.67
X102.788Y-68.299
X103.985Y-50.061
X106.585Y-82.91
X106.701Y-101.94
X108.997Y-63.708
X112.144Y-45.228
X112.355Y-105.628
X113.398Y-66.707
X114.111Y-86.581
X114.481Y-52.565
X116.1Y-65.298
X116.577Y-57.212
X117.157Y-86.422
X117.783Y-81.182
X117.922Y-63.634
X118.496Y-102.899
X118.706Y-98.786
X122.061Y-66.086
X122.311Y-40.086
X123.561Y-45.886
X123.561Y-41.936
X125.825Y-78.676
X125.885Y-59.626
X125.895Y-97.726
X126.763Y-102.347
X129.177Y-111.59
X131.261Y-64.036
X132.816Y-104.138
X133.801Y-40.576
X133.97Y-102.002
X134.103Y-44.031
X134.14Y-82.372
X135.711Y-65.286
X137.011Y-40.486
X137.061Y-81.436
X138.696Y-109.087
X141.041Y-96.136
X141.811Y-58.486
X142.928Y-38.47
X144.91Y-42.472
X144.925Y-76.176
X144.951Y-99.296
X149.633Y-109.525
X151.703Y-108.097
X151.951Y-107.063
X153.201Y-98.596
X153.436Y-56.586
X153.851Y-41.546
X154.011Y-82.936
X154.011Y-78.086
X156.111Y-61.586
X156.111Y-83.986
X156.111Y-95.636
X156.161Y-42.586
X156.951Y-80.596
X156.951Y-76.176
X157.061Y-59.286
X160.809Y-110.171
X161.861Y-41.936
X162.561Y-65.586
X163.945Y-78.676
X163.945Y-97.726
X163.961Y-101.89
X164.021Y-59.626
X169.434Y-65.586
X172.336Y-41.711
X172.443Y-112.533
X172.542Y-82.38
X172.97Y-101.162
X173.061Y-62.386
X173.111Y-65.586
X173.736Y-41.711
X175.611Y-101.154
X175.611Y-82.077
X179.711Y-101.036
X180.494Y-64.386
X181.24Y-43.192
X182.499Y-61.75
X183.005Y-99.676
X183.011Y-80.56
X184.505Y-112.84
X186.361Y-50.086
X188.46Y-85.938
X188.501Y-42.576
X189.361Y-46.936
X190.261Y-65.436
X190.911Y-67.142
X191.761Y-100.81
X193.594Y-116.893
X193.986Y-100.806
X193.986Y-85.961
X193.986Y-91.221
X195.065Y-114.005
X195.262Y-67.141
X195.298Y-58.636
X195.309Y-50.481
X195.625Y-99.673
X195.658Y-107.114
X198.279Y-115.682
X198.776Y-108.703
X202.536Y-59.656
X203.052Y-89.677
X204.124Y-123.038
X204.28Y-59.913
X204.409Y-120.437
X205.993Y-117.327
X206.619Y-89.273
X207.431Y-52.122
X208.141Y-56.362
X208.966Y-112.448
X210.361Y-51.672
X211.861Y-55.652
X211.949Y-59.913
X212.639Y-128.493
X214.489Y-125.806
X214.988Y-123.617
X217.227Y-61.145
X217.237Y-72.085
X217.237Y-80.885
X218.14Y-75.079
X218.14Y-89.273
X219.391Y-122.656
X219.757Y-129.833
X220.869Y-107.428
X221.808Y-80.894
X221.808Y-83.694
X223.819Y-134.224
X223.958Y-72.82
X224.608Y-80.894
X224.608Y-83.694
X225.531Y-74.392
X229.633Y-127.489
T4
X79.213Y-43.599
X79.585Y-50.689
X80.213Y-62.673
X80.585Y-69.763
X82.108Y-73.038
X82.207Y-100.72
X82.579Y-107.811
X83.252Y-120.791
X83.624Y-127.881
X89.198Y-72.666
X96.649Y-40.392
X97.021Y-47.482
X97.726Y-60.553
X98.098Y-67.643
X98.723Y-79.577
X99.095Y-86.667
X99.722Y-99.602
X100.094Y-106.692
X120.561Y-38.036
X120.561Y-45.136
X120.561Y-76.186
X120.561Y-83.286
X120.561Y-57.086
X120.561Y-64.186
X120.561Y-95.286
X120.561Y-102.386
X125.061Y-65.786
X132.161Y-65.786
X139.611Y-35.536
X139.611Y-42.636
X139.611Y-92.736
X139.611Y-99.836
X139.611Y-73.686
X139.611Y-80.786
X145.499Y-111.801
X146.241Y-118.863
X158.661Y-75.636
X158.661Y-82.736
X158.661Y-56.586
X158.661Y-63.686
X158.661Y-95.186
X158.661Y-102.286
X158.781Y-37.536
X158.781Y-44.636
X166.351Y-119.289
X167.094Y-112.228
X175.591Y-37.696
X175.591Y-44.796
X175.711Y-57.836
X175.711Y-64.936
X177.711Y-78.161
X177.711Y-85.261
X177.711Y-97.236
X177.711Y-104.336
X185.861Y-124.079
X188.231Y-117.386
X197.177Y-100.845
X199.115Y-53.541
X199.115Y-56.081
X199.115Y-58.621
X199.115Y-61.161
X199.115Y-63.701
X199.115Y-66.241
X199.115Y-68.781
X199.115Y-71.321
X199.115Y-73.861
X199.115Y-76.401
X199.115Y-78.941
X199.115Y-81.481
X199.722Y-94.217
X200.413Y-50.932
X200.413Y-54.737
X200.413Y-57.277
X200.413Y-59.817
X200.413Y-62.357
X200.413Y-64.897
X200.413Y-67.437
X200.413Y-69.977
X200.413Y-72.517
X200.413Y-75.057
X200.413Y-77.597
X200.413Y-80.137
X200.413Y-82.677
X203.981Y-132.784
X207.848Y-126.829
X208.484Y-87.292
X211.024Y-87.292
X213.564Y-87.292
X214.355Y-50.932
X214.355Y-53.541
X214.355Y-56.081
X214.355Y-58.621
X214.355Y-61.161
X214.355Y-63.701
X214.355Y-66.241
X214.355Y-68.781
X214.355Y-71.321
X214.355Y-73.861
X214.355Y-76.401
X214.355Y-78.941
X214.355Y-81.481
X215.653Y-54.737
X215.653Y-57.277
X215.653Y-59.817
X215.653Y-62.357
X215.653Y-64.897
X215.653Y-67.437
X215.653Y-69.977
X215.653Y-72.517
X215.653Y-75.057
X215.653Y-77.597
X215.653Y-80.137
X215.653Y-82.677
X216.104Y-87.292
X219.309Y-114.86
X221.04Y-140.254
X221.808Y-78.484
X221.808Y-86.104
X221.823Y-88.094
X223.33Y-109.009
X224.608Y-78.484
X224.608Y-86.104
X224.623Y-88.094
X225.651Y-134.855
T5
X131.462Y-109.538
X133.907Y-109.018
X134.476Y-123.721
X136.352Y-108.499
X139.367Y-122.682
X200.15Y-112.544
X202.378Y-113.679
X204.605Y-114.814
X206.733Y-99.625
X211.188Y-101.895
X220.326Y-125.316
X222.227Y-126.939
X224.128Y-128.563
X229.743Y-114.29
X233.545Y-117.537
T6
X224.29Y-60.262
X224.29Y-66.782
T8
X199.277Y-88.869
X222.9Y-100.887
X222.99Y-56.532
T3
X213.71Y-92.689G85X212.61Y-92.689
G05
X213.71Y-95.139G85X212.61Y-95.139
G05
X215.21Y-90.939G85X214.11Y-90.939
G05
X215.21Y-96.889G85X214.11Y-96.889
G05
X219.21Y-90.939G85X218.11Y-90.939
G05
X219.21Y-96.889G85X218.11Y-96.889
G05
X222.21Y-90.939G85X221.11Y-90.939
G05
X222.21Y-96.889G85X221.11Y-96.889
G05
T7
X129.854Y-116.883G85X130.124Y-118.155
G05
X140.809Y-114.554G85X141.079Y-115.826
G05
X200.498Y-105.034G85X201.088Y-103.875
G05
X210.477Y-110.118G85X211.067Y-108.96
G05
X222.417Y-118.094G85X223.261Y-117.105
G05
X230.934Y-125.368G85X231.778Y-124.379
G05
T0
M30
