G04 #@! TF.GenerationSoftware,KiCad,Pcbnew,(5.1.12-1-10_14)*
G04 #@! TF.CreationDate,2021-11-28T14:18:10+00:00*
G04 #@! TF.ProjectId,avalanche-hotswap,6176616c-616e-4636-9865-2d686f747377,rev?*
G04 #@! TF.SameCoordinates,Original*
G04 #@! TF.FileFunction,Soldermask,Top*
G04 #@! TF.FilePolarity,Negative*
%FSLAX46Y46*%
G04 Gerber Fmt 4.6, Leading zero omitted, Abs format (unit mm)*
G04 Created by KiCad (PCBNEW (5.1.12-1-10_14)) date 2021-11-28 14:18:10*
%MOMM*%
%LPD*%
G01*
G04 APERTURE LIST*
%ADD10C,3.400000*%
%ADD11C,4.500000*%
%ADD12C,2.300000*%
%ADD13C,2.100000*%
%ADD14C,1.797000*%
%ADD15C,4.600000*%
%ADD16C,4.400000*%
%ADD17C,1.924000*%
%ADD18C,1.120000*%
%ADD19C,2.400000*%
%ADD20C,1.200000*%
%ADD21C,1.600000*%
G04 APERTURE END LIST*
G36*
G01*
X99437349Y-116257753D02*
X99542021Y-118255012D01*
G75*
G02*
X99352762Y-118465205I-199726J-10467D01*
G01*
X97055914Y-118585578D01*
G75*
G02*
X96845721Y-118396319I-10467J199726D01*
G01*
X96741049Y-116399060D01*
G75*
G02*
X96930308Y-116188867I199726J10467D01*
G01*
X99227156Y-116068494D01*
G75*
G02*
X99437349Y-116257753I10467J-199726D01*
G01*
G37*
G36*
G01*
X86621821Y-114385901D02*
X86726493Y-116383160D01*
G75*
G02*
X86537234Y-116593353I-199726J-10467D01*
G01*
X84240386Y-116713726D01*
G75*
G02*
X84030193Y-116524467I-10467J199726D01*
G01*
X83925521Y-114527208D01*
G75*
G02*
X84114780Y-114317015I199726J10467D01*
G01*
X86411628Y-114196642D01*
G75*
G02*
X86621821Y-114385901I10467J-199726D01*
G01*
G37*
D10*
X87348443Y-117932733D03*
X88483769Y-115329747D03*
X94958000Y-117533932D03*
X93556807Y-115063881D03*
D11*
X91286155Y-120269852D03*
D12*
X96359193Y-120003985D03*
X86213117Y-120535719D03*
D13*
X86792322Y-120505364D03*
X95779988Y-120034340D03*
G36*
G01*
X83864102Y-123387614D02*
X82915404Y-123437333D01*
G75*
G02*
X82705211Y-123248074I-10467J199726D01*
G01*
X82637175Y-121949855D01*
G75*
G02*
X82826434Y-121739662I199726J10467D01*
G01*
X83775132Y-121689943D01*
G75*
G02*
X83985325Y-121879202I10467J-199726D01*
G01*
X84053361Y-123177421D01*
G75*
G02*
X83864102Y-123387614I-199726J-10467D01*
G01*
G37*
D14*
X83252371Y-120791070D03*
G36*
G01*
X84368523Y-128742052D02*
X82973438Y-128815165D01*
G75*
G02*
X82763245Y-128625906I-10467J199726D01*
G01*
X82690132Y-127230821D01*
G75*
G02*
X82879391Y-127020628I199726J10467D01*
G01*
X84274476Y-126947515D01*
G75*
G02*
X84484669Y-127136774I10467J-199726D01*
G01*
X84557782Y-128531859D01*
G75*
G02*
X84368523Y-128742052I-199726J-10467D01*
G01*
G37*
G36*
G01*
X84049894Y-126932748D02*
X83101196Y-126982467D01*
G75*
G02*
X82891003Y-126793208I-10467J199726D01*
G01*
X82822967Y-125494989D01*
G75*
G02*
X83012226Y-125284796I199726J10467D01*
G01*
X83960924Y-125235077D01*
G75*
G02*
X84171117Y-125424336I10467J-199726D01*
G01*
X84239153Y-126722555D01*
G75*
G02*
X84049894Y-126932748I-199726J-10467D01*
G01*
G37*
G36*
G01*
X194111031Y-36356300D02*
X194111031Y-38356300D01*
G75*
G02*
X193911031Y-38556300I-200000J0D01*
G01*
X191611031Y-38556300D01*
G75*
G02*
X191411031Y-38356300I0J200000D01*
G01*
X191411031Y-36356300D01*
G75*
G02*
X191611031Y-36156300I200000J0D01*
G01*
X193911031Y-36156300D01*
G75*
G02*
X194111031Y-36356300I0J-200000D01*
G01*
G37*
G36*
G01*
X181411031Y-33816300D02*
X181411031Y-35816300D01*
G75*
G02*
X181211031Y-36016300I-200000J0D01*
G01*
X178911031Y-36016300D01*
G75*
G02*
X178711031Y-35816300I0J200000D01*
G01*
X178711031Y-33816300D01*
G75*
G02*
X178911031Y-33616300I200000J0D01*
G01*
X181211031Y-33616300D01*
G75*
G02*
X181411031Y-33816300I0J-200000D01*
G01*
G37*
D10*
X181951031Y-37396300D03*
X183221031Y-34856300D03*
X189571031Y-37396299D03*
X188301031Y-34856300D03*
D11*
X185761031Y-39936300D03*
D12*
X190841031Y-39936300D03*
X180681031Y-39936300D03*
D13*
X181261031Y-39936300D03*
X190261031Y-39936300D03*
D15*
X190135714Y-112373722D03*
G36*
G01*
X136961050Y-91506290D02*
X136961050Y-93506290D01*
G75*
G02*
X136761050Y-93706290I-200000J0D01*
G01*
X134461050Y-93706290D01*
G75*
G02*
X134261050Y-93506290I0J200000D01*
G01*
X134261050Y-91506290D01*
G75*
G02*
X134461050Y-91306290I200000J0D01*
G01*
X136761050Y-91306290D01*
G75*
G02*
X136961050Y-91506290I0J-200000D01*
G01*
G37*
G36*
G01*
X124261050Y-88966290D02*
X124261050Y-90966290D01*
G75*
G02*
X124061050Y-91166290I-200000J0D01*
G01*
X121761050Y-91166290D01*
G75*
G02*
X121561050Y-90966290I0J200000D01*
G01*
X121561050Y-88966290D01*
G75*
G02*
X121761050Y-88766290I200000J0D01*
G01*
X124061050Y-88766290D01*
G75*
G02*
X124261050Y-88966290I0J-200000D01*
G01*
G37*
D10*
X124801050Y-92546290D03*
X126071050Y-90006290D03*
X132421050Y-92546289D03*
X131151050Y-90006290D03*
D11*
X128611050Y-95086290D03*
D12*
X133691050Y-95086290D03*
X123531050Y-95086290D03*
D13*
X124111050Y-95086290D03*
X133111050Y-95086290D03*
G36*
G01*
X213175106Y-85242038D02*
X212032106Y-85242038D01*
G75*
G02*
X211832106Y-85042038I0J200000D01*
G01*
X211832106Y-84407038D01*
G75*
G02*
X212032106Y-84207038I200000J0D01*
G01*
X213175106Y-84207038D01*
G75*
G02*
X213375106Y-84407038I0J-200000D01*
G01*
X213375106Y-85042038D01*
G75*
G02*
X213175106Y-85242038I-200000J0D01*
G01*
G37*
G36*
G01*
X213175106Y-84241278D02*
X212032106Y-84241278D01*
G75*
G02*
X211832106Y-84041278I0J200000D01*
G01*
X211832106Y-83406278D01*
G75*
G02*
X212032106Y-83206278I200000J0D01*
G01*
X213175106Y-83206278D01*
G75*
G02*
X213375106Y-83406278I0J-200000D01*
G01*
X213375106Y-84041278D01*
G75*
G02*
X213175106Y-84241278I-200000J0D01*
G01*
G37*
G36*
G01*
X211042723Y-85242031D02*
X209899723Y-85242031D01*
G75*
G02*
X209699723Y-85042031I0J200000D01*
G01*
X209699723Y-84407031D01*
G75*
G02*
X209899723Y-84207031I200000J0D01*
G01*
X211042723Y-84207031D01*
G75*
G02*
X211242723Y-84407031I0J-200000D01*
G01*
X211242723Y-85042031D01*
G75*
G02*
X211042723Y-85242031I-200000J0D01*
G01*
G37*
G36*
G01*
X211042723Y-84241271D02*
X209899723Y-84241271D01*
G75*
G02*
X209699723Y-84041271I0J200000D01*
G01*
X209699723Y-83406271D01*
G75*
G02*
X209899723Y-83206271I200000J0D01*
G01*
X211042723Y-83206271D01*
G75*
G02*
X211242723Y-83406271I0J-200000D01*
G01*
X211242723Y-84041271D01*
G75*
G02*
X211042723Y-84241271I-200000J0D01*
G01*
G37*
G36*
G01*
X208902729Y-85242033D02*
X207759729Y-85242033D01*
G75*
G02*
X207559729Y-85042033I0J200000D01*
G01*
X207559729Y-84407033D01*
G75*
G02*
X207759729Y-84207033I200000J0D01*
G01*
X208902729Y-84207033D01*
G75*
G02*
X209102729Y-84407033I0J-200000D01*
G01*
X209102729Y-85042033D01*
G75*
G02*
X208902729Y-85242033I-200000J0D01*
G01*
G37*
G36*
G01*
X208902729Y-84241273D02*
X207759729Y-84241273D01*
G75*
G02*
X207559729Y-84041273I0J200000D01*
G01*
X207559729Y-83406273D01*
G75*
G02*
X207759729Y-83206273I200000J0D01*
G01*
X208902729Y-83206273D01*
G75*
G02*
X209102729Y-83406273I0J-200000D01*
G01*
X209102729Y-84041273D01*
G75*
G02*
X208902729Y-84241273I-200000J0D01*
G01*
G37*
G36*
G01*
X206762726Y-85242029D02*
X205619726Y-85242029D01*
G75*
G02*
X205419726Y-85042029I0J200000D01*
G01*
X205419726Y-84407029D01*
G75*
G02*
X205619726Y-84207029I200000J0D01*
G01*
X206762726Y-84207029D01*
G75*
G02*
X206962726Y-84407029I0J-200000D01*
G01*
X206962726Y-85042029D01*
G75*
G02*
X206762726Y-85242029I-200000J0D01*
G01*
G37*
G36*
G01*
X206762726Y-84241269D02*
X205619726Y-84241269D01*
G75*
G02*
X205419726Y-84041269I0J200000D01*
G01*
X205419726Y-83406269D01*
G75*
G02*
X205619726Y-83206269I200000J0D01*
G01*
X206762726Y-83206269D01*
G75*
G02*
X206962726Y-83406269I0J-200000D01*
G01*
X206962726Y-84041269D01*
G75*
G02*
X206762726Y-84241269I-200000J0D01*
G01*
G37*
D14*
X208483603Y-87292151D03*
X211023603Y-87292151D03*
X213563603Y-87292151D03*
X216103603Y-87292151D03*
G36*
G01*
X149361038Y-98436262D02*
X149361038Y-97436262D01*
G75*
G02*
X149561038Y-97236262I200000J0D01*
G01*
X151261038Y-97236262D01*
G75*
G02*
X151461038Y-97436262I0J-200000D01*
G01*
X151461038Y-98436262D01*
G75*
G02*
X151261038Y-98636262I-200000J0D01*
G01*
X149561038Y-98636262D01*
G75*
G02*
X149361038Y-98436262I0J200000D01*
G01*
G37*
G36*
G01*
X149361038Y-97036262D02*
X149361038Y-96036262D01*
G75*
G02*
X149561038Y-95836262I200000J0D01*
G01*
X151261038Y-95836262D01*
G75*
G02*
X151461038Y-96036262I0J-200000D01*
G01*
X151461038Y-97036262D01*
G75*
G02*
X151261038Y-97236262I-200000J0D01*
G01*
X149561038Y-97236262D01*
G75*
G02*
X149361038Y-97036262I0J200000D01*
G01*
G37*
G36*
G01*
X143861038Y-98436262D02*
X143861038Y-97436262D01*
G75*
G02*
X144061038Y-97236262I200000J0D01*
G01*
X145761038Y-97236262D01*
G75*
G02*
X145961038Y-97436262I0J-200000D01*
G01*
X145961038Y-98436262D01*
G75*
G02*
X145761038Y-98636262I-200000J0D01*
G01*
X144061038Y-98636262D01*
G75*
G02*
X143861038Y-98436262I0J200000D01*
G01*
G37*
G36*
G01*
X143861038Y-97036262D02*
X143861038Y-96036262D01*
G75*
G02*
X144061038Y-95836262I200000J0D01*
G01*
X145761038Y-95836262D01*
G75*
G02*
X145961038Y-96036262I0J-200000D01*
G01*
X145961038Y-97036262D01*
G75*
G02*
X145761038Y-97236262I-200000J0D01*
G01*
X144061038Y-97236262D01*
G75*
G02*
X143861038Y-97036262I0J200000D01*
G01*
G37*
G36*
G01*
X175061031Y-72456268D02*
X175061031Y-74456268D01*
G75*
G02*
X174861031Y-74656268I-200000J0D01*
G01*
X172561031Y-74656268D01*
G75*
G02*
X172361031Y-74456268I0J200000D01*
G01*
X172361031Y-72456268D01*
G75*
G02*
X172561031Y-72256268I200000J0D01*
G01*
X174861031Y-72256268D01*
G75*
G02*
X175061031Y-72456268I0J-200000D01*
G01*
G37*
G36*
G01*
X162361031Y-69916268D02*
X162361031Y-71916268D01*
G75*
G02*
X162161031Y-72116268I-200000J0D01*
G01*
X159861031Y-72116268D01*
G75*
G02*
X159661031Y-71916268I0J200000D01*
G01*
X159661031Y-69916268D01*
G75*
G02*
X159861031Y-69716268I200000J0D01*
G01*
X162161031Y-69716268D01*
G75*
G02*
X162361031Y-69916268I0J-200000D01*
G01*
G37*
D10*
X162901031Y-73496268D03*
X164171031Y-70956268D03*
X170521031Y-73496267D03*
X169251031Y-70956268D03*
D11*
X166711031Y-76036268D03*
D12*
X171791031Y-76036268D03*
X161631031Y-76036268D03*
D13*
X162211031Y-76036268D03*
X171211031Y-76036268D03*
G36*
G01*
X104708277Y-84871058D02*
X104655941Y-83872429D01*
G75*
G02*
X104845200Y-83662236I199726J10467D01*
G01*
X106542870Y-83573265D01*
G75*
G02*
X106753063Y-83762524I10467J-199726D01*
G01*
X106805399Y-84761153D01*
G75*
G02*
X106616140Y-84971346I-199726J-10467D01*
G01*
X104918470Y-85060317D01*
G75*
G02*
X104708277Y-84871058I-10467J199726D01*
G01*
G37*
G36*
G01*
X104781547Y-86269140D02*
X104729211Y-85270511D01*
G75*
G02*
X104918470Y-85060318I199726J10467D01*
G01*
X106616140Y-84971347D01*
G75*
G02*
X106826333Y-85160606I10467J-199726D01*
G01*
X106878669Y-86159235D01*
G75*
G02*
X106689410Y-86369428I-199726J-10467D01*
G01*
X104991740Y-86458399D01*
G75*
G02*
X104781547Y-86269140I-10467J199726D01*
G01*
G37*
G36*
G01*
X110200739Y-84583210D02*
X110148403Y-83584581D01*
G75*
G02*
X110337662Y-83374388I199726J10467D01*
G01*
X112035332Y-83285417D01*
G75*
G02*
X112245525Y-83474676I10467J-199726D01*
G01*
X112297861Y-84473305D01*
G75*
G02*
X112108602Y-84683498I-199726J-10467D01*
G01*
X110410932Y-84772469D01*
G75*
G02*
X110200739Y-84583210I-10467J199726D01*
G01*
G37*
G36*
G01*
X110274009Y-85981292D02*
X110221673Y-84982663D01*
G75*
G02*
X110410932Y-84772470I199726J10467D01*
G01*
X112108602Y-84683499D01*
G75*
G02*
X112318795Y-84872758I10467J-199726D01*
G01*
X112371131Y-85871387D01*
G75*
G02*
X112181872Y-86081580I-199726J-10467D01*
G01*
X110484202Y-86170551D01*
G75*
G02*
X110274009Y-85981292I-10467J199726D01*
G01*
G37*
G36*
G01*
X204619458Y-113024335D02*
X205073449Y-112133329D01*
G75*
G02*
X205342448Y-112045926I178201J-90798D01*
G01*
X206857159Y-112817710D01*
G75*
G02*
X206944562Y-113086709I-90798J-178201D01*
G01*
X206490571Y-113977715D01*
G75*
G02*
X206221572Y-114065118I-178201J90798D01*
G01*
X204706861Y-113293334D01*
G75*
G02*
X204619458Y-113024335I90798J178201D01*
G01*
G37*
G36*
G01*
X205255044Y-111776926D02*
X205709035Y-110885920D01*
G75*
G02*
X205978034Y-110798517I178201J-90798D01*
G01*
X207492745Y-111570301D01*
G75*
G02*
X207580148Y-111839300I-90798J-178201D01*
G01*
X207126157Y-112730306D01*
G75*
G02*
X206857158Y-112817709I-178201J90798D01*
G01*
X205342447Y-112045925D01*
G75*
G02*
X205255044Y-111776926I90798J178201D01*
G01*
G37*
G36*
G01*
X199718922Y-110527388D02*
X200172913Y-109636382D01*
G75*
G02*
X200441912Y-109548979I178201J-90798D01*
G01*
X201956623Y-110320763D01*
G75*
G02*
X202044026Y-110589762I-90798J-178201D01*
G01*
X201590035Y-111480768D01*
G75*
G02*
X201321036Y-111568171I-178201J90798D01*
G01*
X199806325Y-110796387D01*
G75*
G02*
X199718922Y-110527388I90798J178201D01*
G01*
G37*
G36*
G01*
X200354508Y-109279979D02*
X200808499Y-108388973D01*
G75*
G02*
X201077498Y-108301570I178201J-90798D01*
G01*
X202592209Y-109073354D01*
G75*
G02*
X202679612Y-109342353I-90798J-178201D01*
G01*
X202225621Y-110233359D01*
G75*
G02*
X201956622Y-110320762I-178201J90798D01*
G01*
X200441911Y-109548978D01*
G75*
G02*
X200354508Y-109279979I90798J178201D01*
G01*
G37*
G36*
G01*
X136399078Y-112572990D02*
X136191167Y-111594842D01*
G75*
G02*
X136345215Y-111357630I195630J41582D01*
G01*
X138008066Y-111004180D01*
G75*
G02*
X138245278Y-111158228I41582J-195630D01*
G01*
X138453189Y-112136376D01*
G75*
G02*
X138299141Y-112373588I-195630J-41582D01*
G01*
X136636290Y-112727038D01*
G75*
G02*
X136399078Y-112572990I-41582J195630D01*
G01*
G37*
G36*
G01*
X136108002Y-111203584D02*
X135900091Y-110225436D01*
G75*
G02*
X136054139Y-109988224I195630J41582D01*
G01*
X137716990Y-109634774D01*
G75*
G02*
X137954202Y-109788822I41582J-195630D01*
G01*
X138162113Y-110766970D01*
G75*
G02*
X138008065Y-111004182I-195630J-41582D01*
G01*
X136345214Y-111357632D01*
G75*
G02*
X136108002Y-111203584I-41582J195630D01*
G01*
G37*
G36*
G01*
X131019266Y-113716504D02*
X130811355Y-112738356D01*
G75*
G02*
X130965403Y-112501144I195630J41582D01*
G01*
X132628254Y-112147694D01*
G75*
G02*
X132865466Y-112301742I41582J-195630D01*
G01*
X133073377Y-113279890D01*
G75*
G02*
X132919329Y-113517102I-195630J-41582D01*
G01*
X131256478Y-113870552D01*
G75*
G02*
X131019266Y-113716504I-41582J195630D01*
G01*
G37*
G36*
G01*
X130728190Y-112347098D02*
X130520279Y-111368950D01*
G75*
G02*
X130674327Y-111131738I195630J41582D01*
G01*
X132337178Y-110778288D01*
G75*
G02*
X132574390Y-110932336I41582J-195630D01*
G01*
X132782301Y-111910484D01*
G75*
G02*
X132628253Y-112147696I-195630J-41582D01*
G01*
X130965402Y-112501146D01*
G75*
G02*
X130728190Y-112347098I-41582J195630D01*
G01*
G37*
G36*
G01*
X187461082Y-64886269D02*
X187461082Y-63886269D01*
G75*
G02*
X187661082Y-63686269I200000J0D01*
G01*
X189361082Y-63686269D01*
G75*
G02*
X189561082Y-63886269I0J-200000D01*
G01*
X189561082Y-64886269D01*
G75*
G02*
X189361082Y-65086269I-200000J0D01*
G01*
X187661082Y-65086269D01*
G75*
G02*
X187461082Y-64886269I0J200000D01*
G01*
G37*
G36*
G01*
X187461082Y-63486269D02*
X187461082Y-62486269D01*
G75*
G02*
X187661082Y-62286269I200000J0D01*
G01*
X189361082Y-62286269D01*
G75*
G02*
X189561082Y-62486269I0J-200000D01*
G01*
X189561082Y-63486269D01*
G75*
G02*
X189361082Y-63686269I-200000J0D01*
G01*
X187661082Y-63686269D01*
G75*
G02*
X187461082Y-63486269I0J200000D01*
G01*
G37*
G36*
G01*
X181961082Y-64886269D02*
X181961082Y-63886269D01*
G75*
G02*
X182161082Y-63686269I200000J0D01*
G01*
X183861082Y-63686269D01*
G75*
G02*
X184061082Y-63886269I0J-200000D01*
G01*
X184061082Y-64886269D01*
G75*
G02*
X183861082Y-65086269I-200000J0D01*
G01*
X182161082Y-65086269D01*
G75*
G02*
X181961082Y-64886269I0J200000D01*
G01*
G37*
G36*
G01*
X181961082Y-63486269D02*
X181961082Y-62486269D01*
G75*
G02*
X182161082Y-62286269I200000J0D01*
G01*
X183861082Y-62286269D01*
G75*
G02*
X184061082Y-62486269I0J-200000D01*
G01*
X184061082Y-63486269D01*
G75*
G02*
X183861082Y-63686269I-200000J0D01*
G01*
X182161082Y-63686269D01*
G75*
G02*
X181961082Y-63486269I0J200000D01*
G01*
G37*
G36*
G01*
X86681394Y-104891940D02*
X86629058Y-103893311D01*
G75*
G02*
X86818317Y-103683118I199726J10467D01*
G01*
X88515987Y-103594147D01*
G75*
G02*
X88726180Y-103783406I10467J-199726D01*
G01*
X88778516Y-104782035D01*
G75*
G02*
X88589257Y-104992228I-199726J-10467D01*
G01*
X86891587Y-105081199D01*
G75*
G02*
X86681394Y-104891940I-10467J199726D01*
G01*
G37*
G36*
G01*
X86754664Y-106290022D02*
X86702328Y-105291393D01*
G75*
G02*
X86891587Y-105081200I199726J10467D01*
G01*
X88589257Y-104992229D01*
G75*
G02*
X88799450Y-105181488I10467J-199726D01*
G01*
X88851786Y-106180117D01*
G75*
G02*
X88662527Y-106390310I-199726J-10467D01*
G01*
X86964857Y-106479281D01*
G75*
G02*
X86754664Y-106290022I-10467J199726D01*
G01*
G37*
G36*
G01*
X92173856Y-104604092D02*
X92121520Y-103605463D01*
G75*
G02*
X92310779Y-103395270I199726J10467D01*
G01*
X94008449Y-103306299D01*
G75*
G02*
X94218642Y-103495558I10467J-199726D01*
G01*
X94270978Y-104494187D01*
G75*
G02*
X94081719Y-104704380I-199726J-10467D01*
G01*
X92384049Y-104793351D01*
G75*
G02*
X92173856Y-104604092I-10467J199726D01*
G01*
G37*
G36*
G01*
X92247126Y-106002174D02*
X92194790Y-105003545D01*
G75*
G02*
X92384049Y-104793352I199726J10467D01*
G01*
X94081719Y-104704381D01*
G75*
G02*
X94291912Y-104893640I10467J-199726D01*
G01*
X94344248Y-105892269D01*
G75*
G02*
X94154989Y-106102462I-199726J-10467D01*
G01*
X92457319Y-106191433D01*
G75*
G02*
X92247126Y-106002174I-10467J199726D01*
G01*
G37*
G36*
G01*
X85684380Y-85868053D02*
X85632044Y-84869424D01*
G75*
G02*
X85821303Y-84659231I199726J10467D01*
G01*
X87518973Y-84570260D01*
G75*
G02*
X87729166Y-84759519I10467J-199726D01*
G01*
X87781502Y-85758148D01*
G75*
G02*
X87592243Y-85968341I-199726J-10467D01*
G01*
X85894573Y-86057312D01*
G75*
G02*
X85684380Y-85868053I-10467J199726D01*
G01*
G37*
G36*
G01*
X85757650Y-87266135D02*
X85705314Y-86267506D01*
G75*
G02*
X85894573Y-86057313I199726J10467D01*
G01*
X87592243Y-85968342D01*
G75*
G02*
X87802436Y-86157601I10467J-199726D01*
G01*
X87854772Y-87156230D01*
G75*
G02*
X87665513Y-87366423I-199726J-10467D01*
G01*
X85967843Y-87455394D01*
G75*
G02*
X85757650Y-87266135I-10467J199726D01*
G01*
G37*
G36*
G01*
X91176842Y-85580205D02*
X91124506Y-84581576D01*
G75*
G02*
X91313765Y-84371383I199726J10467D01*
G01*
X93011435Y-84282412D01*
G75*
G02*
X93221628Y-84471671I10467J-199726D01*
G01*
X93273964Y-85470300D01*
G75*
G02*
X93084705Y-85680493I-199726J-10467D01*
G01*
X91387035Y-85769464D01*
G75*
G02*
X91176842Y-85580205I-10467J199726D01*
G01*
G37*
G36*
G01*
X91250112Y-86978287D02*
X91197776Y-85979658D01*
G75*
G02*
X91387035Y-85769465I199726J10467D01*
G01*
X93084705Y-85680494D01*
G75*
G02*
X93294898Y-85869753I10467J-199726D01*
G01*
X93347234Y-86868382D01*
G75*
G02*
X93157975Y-87078575I-199726J-10467D01*
G01*
X91460305Y-87167546D01*
G75*
G02*
X91250112Y-86978287I-10467J199726D01*
G01*
G37*
G36*
G01*
X84687359Y-66844152D02*
X84635023Y-65845523D01*
G75*
G02*
X84824282Y-65635330I199726J10467D01*
G01*
X86521952Y-65546359D01*
G75*
G02*
X86732145Y-65735618I10467J-199726D01*
G01*
X86784481Y-66734247D01*
G75*
G02*
X86595222Y-66944440I-199726J-10467D01*
G01*
X84897552Y-67033411D01*
G75*
G02*
X84687359Y-66844152I-10467J199726D01*
G01*
G37*
G36*
G01*
X84760629Y-68242234D02*
X84708293Y-67243605D01*
G75*
G02*
X84897552Y-67033412I199726J10467D01*
G01*
X86595222Y-66944441D01*
G75*
G02*
X86805415Y-67133700I10467J-199726D01*
G01*
X86857751Y-68132329D01*
G75*
G02*
X86668492Y-68342522I-199726J-10467D01*
G01*
X84970822Y-68431493D01*
G75*
G02*
X84760629Y-68242234I-10467J199726D01*
G01*
G37*
G36*
G01*
X90179821Y-66556304D02*
X90127485Y-65557675D01*
G75*
G02*
X90316744Y-65347482I199726J10467D01*
G01*
X92014414Y-65258511D01*
G75*
G02*
X92224607Y-65447770I10467J-199726D01*
G01*
X92276943Y-66446399D01*
G75*
G02*
X92087684Y-66656592I-199726J-10467D01*
G01*
X90390014Y-66745563D01*
G75*
G02*
X90179821Y-66556304I-10467J199726D01*
G01*
G37*
G36*
G01*
X90253091Y-67954386D02*
X90200755Y-66955757D01*
G75*
G02*
X90390014Y-66745564I199726J10467D01*
G01*
X92087684Y-66656593D01*
G75*
G02*
X92297877Y-66845852I10467J-199726D01*
G01*
X92350213Y-67844481D01*
G75*
G02*
X92160954Y-68054674I-199726J-10467D01*
G01*
X90463284Y-68143645D01*
G75*
G02*
X90253091Y-67954386I-10467J199726D01*
G01*
G37*
G36*
G01*
X83690406Y-47820267D02*
X83638070Y-46821638D01*
G75*
G02*
X83827329Y-46611445I199726J10467D01*
G01*
X85524999Y-46522474D01*
G75*
G02*
X85735192Y-46711733I10467J-199726D01*
G01*
X85787528Y-47710362D01*
G75*
G02*
X85598269Y-47920555I-199726J-10467D01*
G01*
X83900599Y-48009526D01*
G75*
G02*
X83690406Y-47820267I-10467J199726D01*
G01*
G37*
G36*
G01*
X83763676Y-49218349D02*
X83711340Y-48219720D01*
G75*
G02*
X83900599Y-48009527I199726J10467D01*
G01*
X85598269Y-47920556D01*
G75*
G02*
X85808462Y-48109815I10467J-199726D01*
G01*
X85860798Y-49108444D01*
G75*
G02*
X85671539Y-49318637I-199726J-10467D01*
G01*
X83973869Y-49407608D01*
G75*
G02*
X83763676Y-49218349I-10467J199726D01*
G01*
G37*
G36*
G01*
X89182868Y-47532419D02*
X89130532Y-46533790D01*
G75*
G02*
X89319791Y-46323597I199726J10467D01*
G01*
X91017461Y-46234626D01*
G75*
G02*
X91227654Y-46423885I10467J-199726D01*
G01*
X91279990Y-47422514D01*
G75*
G02*
X91090731Y-47632707I-199726J-10467D01*
G01*
X89393061Y-47721678D01*
G75*
G02*
X89182868Y-47532419I-10467J199726D01*
G01*
G37*
G36*
G01*
X89256138Y-48930501D02*
X89203802Y-47931872D01*
G75*
G02*
X89393061Y-47721679I199726J10467D01*
G01*
X91090731Y-47632708D01*
G75*
G02*
X91300924Y-47821967I10467J-199726D01*
G01*
X91353260Y-48820596D01*
G75*
G02*
X91164001Y-49030789I-199726J-10467D01*
G01*
X89466331Y-49119760D01*
G75*
G02*
X89256138Y-48930501I-10467J199726D01*
G01*
G37*
G36*
G01*
X102714274Y-46823267D02*
X102661938Y-45824638D01*
G75*
G02*
X102851197Y-45614445I199726J10467D01*
G01*
X104548867Y-45525474D01*
G75*
G02*
X104759060Y-45714733I10467J-199726D01*
G01*
X104811396Y-46713362D01*
G75*
G02*
X104622137Y-46923555I-199726J-10467D01*
G01*
X102924467Y-47012526D01*
G75*
G02*
X102714274Y-46823267I-10467J199726D01*
G01*
G37*
G36*
G01*
X102787544Y-48221349D02*
X102735208Y-47222720D01*
G75*
G02*
X102924467Y-47012527I199726J10467D01*
G01*
X104622137Y-46923556D01*
G75*
G02*
X104832330Y-47112815I10467J-199726D01*
G01*
X104884666Y-48111444D01*
G75*
G02*
X104695407Y-48321637I-199726J-10467D01*
G01*
X102997737Y-48410608D01*
G75*
G02*
X102787544Y-48221349I-10467J199726D01*
G01*
G37*
G36*
G01*
X108206736Y-46535419D02*
X108154400Y-45536790D01*
G75*
G02*
X108343659Y-45326597I199726J10467D01*
G01*
X110041329Y-45237626D01*
G75*
G02*
X110251522Y-45426885I10467J-199726D01*
G01*
X110303858Y-46425514D01*
G75*
G02*
X110114599Y-46635707I-199726J-10467D01*
G01*
X108416929Y-46724678D01*
G75*
G02*
X108206736Y-46535419I-10467J199726D01*
G01*
G37*
G36*
G01*
X108280006Y-47933501D02*
X108227670Y-46934872D01*
G75*
G02*
X108416929Y-46724679I199726J10467D01*
G01*
X110114599Y-46635708D01*
G75*
G02*
X110324792Y-46824967I10467J-199726D01*
G01*
X110377128Y-47823596D01*
G75*
G02*
X110187869Y-48033789I-199726J-10467D01*
G01*
X108490199Y-48122760D01*
G75*
G02*
X108280006Y-47933501I-10467J199726D01*
G01*
G37*
G36*
G01*
X103711276Y-65847137D02*
X103658940Y-64848508D01*
G75*
G02*
X103848199Y-64638315I199726J10467D01*
G01*
X105545869Y-64549344D01*
G75*
G02*
X105756062Y-64738603I10467J-199726D01*
G01*
X105808398Y-65737232D01*
G75*
G02*
X105619139Y-65947425I-199726J-10467D01*
G01*
X103921469Y-66036396D01*
G75*
G02*
X103711276Y-65847137I-10467J199726D01*
G01*
G37*
G36*
G01*
X103784546Y-67245219D02*
X103732210Y-66246590D01*
G75*
G02*
X103921469Y-66036397I199726J10467D01*
G01*
X105619139Y-65947426D01*
G75*
G02*
X105829332Y-66136685I10467J-199726D01*
G01*
X105881668Y-67135314D01*
G75*
G02*
X105692409Y-67345507I-199726J-10467D01*
G01*
X103994739Y-67434478D01*
G75*
G02*
X103784546Y-67245219I-10467J199726D01*
G01*
G37*
G36*
G01*
X109203738Y-65559289D02*
X109151402Y-64560660D01*
G75*
G02*
X109340661Y-64350467I199726J10467D01*
G01*
X111038331Y-64261496D01*
G75*
G02*
X111248524Y-64450755I10467J-199726D01*
G01*
X111300860Y-65449384D01*
G75*
G02*
X111111601Y-65659577I-199726J-10467D01*
G01*
X109413931Y-65748548D01*
G75*
G02*
X109203738Y-65559289I-10467J199726D01*
G01*
G37*
G36*
G01*
X109277008Y-66957371D02*
X109224672Y-65958742D01*
G75*
G02*
X109413931Y-65748549I199726J10467D01*
G01*
X111111601Y-65659578D01*
G75*
G02*
X111321794Y-65848837I10467J-199726D01*
G01*
X111374130Y-66847466D01*
G75*
G02*
X111184871Y-67057659I-199726J-10467D01*
G01*
X109487201Y-67146630D01*
G75*
G02*
X109277008Y-66957371I-10467J199726D01*
G01*
G37*
G36*
G01*
X105705295Y-103894964D02*
X105652959Y-102896335D01*
G75*
G02*
X105842218Y-102686142I199726J10467D01*
G01*
X107539888Y-102597171D01*
G75*
G02*
X107750081Y-102786430I10467J-199726D01*
G01*
X107802417Y-103785059D01*
G75*
G02*
X107613158Y-103995252I-199726J-10467D01*
G01*
X105915488Y-104084223D01*
G75*
G02*
X105705295Y-103894964I-10467J199726D01*
G01*
G37*
G36*
G01*
X105778565Y-105293046D02*
X105726229Y-104294417D01*
G75*
G02*
X105915488Y-104084224I199726J10467D01*
G01*
X107613158Y-103995253D01*
G75*
G02*
X107823351Y-104184512I10467J-199726D01*
G01*
X107875687Y-105183141D01*
G75*
G02*
X107686428Y-105393334I-199726J-10467D01*
G01*
X105988758Y-105482305D01*
G75*
G02*
X105778565Y-105293046I-10467J199726D01*
G01*
G37*
G36*
G01*
X111197757Y-103607116D02*
X111145421Y-102608487D01*
G75*
G02*
X111334680Y-102398294I199726J10467D01*
G01*
X113032350Y-102309323D01*
G75*
G02*
X113242543Y-102498582I10467J-199726D01*
G01*
X113294879Y-103497211D01*
G75*
G02*
X113105620Y-103707404I-199726J-10467D01*
G01*
X111407950Y-103796375D01*
G75*
G02*
X111197757Y-103607116I-10467J199726D01*
G01*
G37*
G36*
G01*
X111271027Y-105005198D02*
X111218691Y-104006569D01*
G75*
G02*
X111407950Y-103796376I199726J10467D01*
G01*
X113105620Y-103707405D01*
G75*
G02*
X113315813Y-103896664I10467J-199726D01*
G01*
X113368149Y-104895293D01*
G75*
G02*
X113178890Y-105105486I-199726J-10467D01*
G01*
X111481220Y-105194457D01*
G75*
G02*
X111271027Y-105005198I-10467J199726D01*
G01*
G37*
G36*
G01*
X130311054Y-100986308D02*
X130311054Y-99986308D01*
G75*
G02*
X130511054Y-99786308I200000J0D01*
G01*
X132211054Y-99786308D01*
G75*
G02*
X132411054Y-99986308I0J-200000D01*
G01*
X132411054Y-100986308D01*
G75*
G02*
X132211054Y-101186308I-200000J0D01*
G01*
X130511054Y-101186308D01*
G75*
G02*
X130311054Y-100986308I0J200000D01*
G01*
G37*
G36*
G01*
X130311054Y-99586308D02*
X130311054Y-98586308D01*
G75*
G02*
X130511054Y-98386308I200000J0D01*
G01*
X132211054Y-98386308D01*
G75*
G02*
X132411054Y-98586308I0J-200000D01*
G01*
X132411054Y-99586308D01*
G75*
G02*
X132211054Y-99786308I-200000J0D01*
G01*
X130511054Y-99786308D01*
G75*
G02*
X130311054Y-99586308I0J200000D01*
G01*
G37*
G36*
G01*
X124811054Y-100986308D02*
X124811054Y-99986308D01*
G75*
G02*
X125011054Y-99786308I200000J0D01*
G01*
X126711054Y-99786308D01*
G75*
G02*
X126911054Y-99986308I0J-200000D01*
G01*
X126911054Y-100986308D01*
G75*
G02*
X126711054Y-101186308I-200000J0D01*
G01*
X125011054Y-101186308D01*
G75*
G02*
X124811054Y-100986308I0J200000D01*
G01*
G37*
G36*
G01*
X124811054Y-99586308D02*
X124811054Y-98586308D01*
G75*
G02*
X125011054Y-98386308I200000J0D01*
G01*
X126711054Y-98386308D01*
G75*
G02*
X126911054Y-98586308I0J-200000D01*
G01*
X126911054Y-99586308D01*
G75*
G02*
X126711054Y-99786308I-200000J0D01*
G01*
X125011054Y-99786308D01*
G75*
G02*
X124811054Y-99586308I0J200000D01*
G01*
G37*
G36*
G01*
X130311043Y-81936295D02*
X130311043Y-80936295D01*
G75*
G02*
X130511043Y-80736295I200000J0D01*
G01*
X132211043Y-80736295D01*
G75*
G02*
X132411043Y-80936295I0J-200000D01*
G01*
X132411043Y-81936295D01*
G75*
G02*
X132211043Y-82136295I-200000J0D01*
G01*
X130511043Y-82136295D01*
G75*
G02*
X130311043Y-81936295I0J200000D01*
G01*
G37*
G36*
G01*
X130311043Y-80536295D02*
X130311043Y-79536295D01*
G75*
G02*
X130511043Y-79336295I200000J0D01*
G01*
X132211043Y-79336295D01*
G75*
G02*
X132411043Y-79536295I0J-200000D01*
G01*
X132411043Y-80536295D01*
G75*
G02*
X132211043Y-80736295I-200000J0D01*
G01*
X130511043Y-80736295D01*
G75*
G02*
X130311043Y-80536295I0J200000D01*
G01*
G37*
G36*
G01*
X124811043Y-81936295D02*
X124811043Y-80936295D01*
G75*
G02*
X125011043Y-80736295I200000J0D01*
G01*
X126711043Y-80736295D01*
G75*
G02*
X126911043Y-80936295I0J-200000D01*
G01*
X126911043Y-81936295D01*
G75*
G02*
X126711043Y-82136295I-200000J0D01*
G01*
X125011043Y-82136295D01*
G75*
G02*
X124811043Y-81936295I0J200000D01*
G01*
G37*
G36*
G01*
X124811043Y-80536295D02*
X124811043Y-79536295D01*
G75*
G02*
X125011043Y-79336295I200000J0D01*
G01*
X126711043Y-79336295D01*
G75*
G02*
X126911043Y-79536295I0J-200000D01*
G01*
X126911043Y-80536295D01*
G75*
G02*
X126711043Y-80736295I-200000J0D01*
G01*
X125011043Y-80736295D01*
G75*
G02*
X124811043Y-80536295I0J200000D01*
G01*
G37*
G36*
G01*
X130311052Y-62886263D02*
X130311052Y-61886263D01*
G75*
G02*
X130511052Y-61686263I200000J0D01*
G01*
X132211052Y-61686263D01*
G75*
G02*
X132411052Y-61886263I0J-200000D01*
G01*
X132411052Y-62886263D01*
G75*
G02*
X132211052Y-63086263I-200000J0D01*
G01*
X130511052Y-63086263D01*
G75*
G02*
X130311052Y-62886263I0J200000D01*
G01*
G37*
G36*
G01*
X130311052Y-61486263D02*
X130311052Y-60486263D01*
G75*
G02*
X130511052Y-60286263I200000J0D01*
G01*
X132211052Y-60286263D01*
G75*
G02*
X132411052Y-60486263I0J-200000D01*
G01*
X132411052Y-61486263D01*
G75*
G02*
X132211052Y-61686263I-200000J0D01*
G01*
X130511052Y-61686263D01*
G75*
G02*
X130311052Y-61486263I0J200000D01*
G01*
G37*
G36*
G01*
X124811052Y-62886263D02*
X124811052Y-61886263D01*
G75*
G02*
X125011052Y-61686263I200000J0D01*
G01*
X126711052Y-61686263D01*
G75*
G02*
X126911052Y-61886263I0J-200000D01*
G01*
X126911052Y-62886263D01*
G75*
G02*
X126711052Y-63086263I-200000J0D01*
G01*
X125011052Y-63086263D01*
G75*
G02*
X124811052Y-62886263I0J200000D01*
G01*
G37*
G36*
G01*
X124811052Y-61486263D02*
X124811052Y-60486263D01*
G75*
G02*
X125011052Y-60286263I200000J0D01*
G01*
X126711052Y-60286263D01*
G75*
G02*
X126911052Y-60486263I0J-200000D01*
G01*
X126911052Y-61486263D01*
G75*
G02*
X126711052Y-61686263I-200000J0D01*
G01*
X125011052Y-61686263D01*
G75*
G02*
X124811052Y-61486263I0J200000D01*
G01*
G37*
G36*
G01*
X130311061Y-43836299D02*
X130311061Y-42836299D01*
G75*
G02*
X130511061Y-42636299I200000J0D01*
G01*
X132211061Y-42636299D01*
G75*
G02*
X132411061Y-42836299I0J-200000D01*
G01*
X132411061Y-43836299D01*
G75*
G02*
X132211061Y-44036299I-200000J0D01*
G01*
X130511061Y-44036299D01*
G75*
G02*
X130311061Y-43836299I0J200000D01*
G01*
G37*
G36*
G01*
X130311061Y-42436299D02*
X130311061Y-41436299D01*
G75*
G02*
X130511061Y-41236299I200000J0D01*
G01*
X132211061Y-41236299D01*
G75*
G02*
X132411061Y-41436299I0J-200000D01*
G01*
X132411061Y-42436299D01*
G75*
G02*
X132211061Y-42636299I-200000J0D01*
G01*
X130511061Y-42636299D01*
G75*
G02*
X130311061Y-42436299I0J200000D01*
G01*
G37*
G36*
G01*
X124811061Y-43836299D02*
X124811061Y-42836299D01*
G75*
G02*
X125011061Y-42636299I200000J0D01*
G01*
X126711061Y-42636299D01*
G75*
G02*
X126911061Y-42836299I0J-200000D01*
G01*
X126911061Y-43836299D01*
G75*
G02*
X126711061Y-44036299I-200000J0D01*
G01*
X125011061Y-44036299D01*
G75*
G02*
X124811061Y-43836299I0J200000D01*
G01*
G37*
G36*
G01*
X124811061Y-42436299D02*
X124811061Y-41436299D01*
G75*
G02*
X125011061Y-41236299I200000J0D01*
G01*
X126711061Y-41236299D01*
G75*
G02*
X126911061Y-41436299I0J-200000D01*
G01*
X126911061Y-42436299D01*
G75*
G02*
X126711061Y-42636299I-200000J0D01*
G01*
X125011061Y-42636299D01*
G75*
G02*
X124811061Y-42436299I0J200000D01*
G01*
G37*
G36*
G01*
X149361066Y-41336298D02*
X149361066Y-40336298D01*
G75*
G02*
X149561066Y-40136298I200000J0D01*
G01*
X151261066Y-40136298D01*
G75*
G02*
X151461066Y-40336298I0J-200000D01*
G01*
X151461066Y-41336298D01*
G75*
G02*
X151261066Y-41536298I-200000J0D01*
G01*
X149561066Y-41536298D01*
G75*
G02*
X149361066Y-41336298I0J200000D01*
G01*
G37*
G36*
G01*
X149361066Y-39936298D02*
X149361066Y-38936298D01*
G75*
G02*
X149561066Y-38736298I200000J0D01*
G01*
X151261066Y-38736298D01*
G75*
G02*
X151461066Y-38936298I0J-200000D01*
G01*
X151461066Y-39936298D01*
G75*
G02*
X151261066Y-40136298I-200000J0D01*
G01*
X149561066Y-40136298D01*
G75*
G02*
X149361066Y-39936298I0J200000D01*
G01*
G37*
G36*
G01*
X143861066Y-41336298D02*
X143861066Y-40336298D01*
G75*
G02*
X144061066Y-40136298I200000J0D01*
G01*
X145761066Y-40136298D01*
G75*
G02*
X145961066Y-40336298I0J-200000D01*
G01*
X145961066Y-41336298D01*
G75*
G02*
X145761066Y-41536298I-200000J0D01*
G01*
X144061066Y-41536298D01*
G75*
G02*
X143861066Y-41336298I0J200000D01*
G01*
G37*
G36*
G01*
X143861066Y-39936298D02*
X143861066Y-38936298D01*
G75*
G02*
X144061066Y-38736298I200000J0D01*
G01*
X145761066Y-38736298D01*
G75*
G02*
X145961066Y-38936298I0J-200000D01*
G01*
X145961066Y-39936298D01*
G75*
G02*
X145761066Y-40136298I-200000J0D01*
G01*
X144061066Y-40136298D01*
G75*
G02*
X143861066Y-39936298I0J200000D01*
G01*
G37*
G36*
G01*
X149361027Y-60386293D02*
X149361027Y-59386293D01*
G75*
G02*
X149561027Y-59186293I200000J0D01*
G01*
X151261027Y-59186293D01*
G75*
G02*
X151461027Y-59386293I0J-200000D01*
G01*
X151461027Y-60386293D01*
G75*
G02*
X151261027Y-60586293I-200000J0D01*
G01*
X149561027Y-60586293D01*
G75*
G02*
X149361027Y-60386293I0J200000D01*
G01*
G37*
G36*
G01*
X149361027Y-58986293D02*
X149361027Y-57986293D01*
G75*
G02*
X149561027Y-57786293I200000J0D01*
G01*
X151261027Y-57786293D01*
G75*
G02*
X151461027Y-57986293I0J-200000D01*
G01*
X151461027Y-58986293D01*
G75*
G02*
X151261027Y-59186293I-200000J0D01*
G01*
X149561027Y-59186293D01*
G75*
G02*
X149361027Y-58986293I0J200000D01*
G01*
G37*
G36*
G01*
X143861027Y-60386293D02*
X143861027Y-59386293D01*
G75*
G02*
X144061027Y-59186293I200000J0D01*
G01*
X145761027Y-59186293D01*
G75*
G02*
X145961027Y-59386293I0J-200000D01*
G01*
X145961027Y-60386293D01*
G75*
G02*
X145761027Y-60586293I-200000J0D01*
G01*
X144061027Y-60586293D01*
G75*
G02*
X143861027Y-60386293I0J200000D01*
G01*
G37*
G36*
G01*
X143861027Y-58986293D02*
X143861027Y-57986293D01*
G75*
G02*
X144061027Y-57786293I200000J0D01*
G01*
X145761027Y-57786293D01*
G75*
G02*
X145961027Y-57986293I0J-200000D01*
G01*
X145961027Y-58986293D01*
G75*
G02*
X145761027Y-59186293I-200000J0D01*
G01*
X144061027Y-59186293D01*
G75*
G02*
X143861027Y-58986293I0J200000D01*
G01*
G37*
G36*
G01*
X149361055Y-79436290D02*
X149361055Y-78436290D01*
G75*
G02*
X149561055Y-78236290I200000J0D01*
G01*
X151261055Y-78236290D01*
G75*
G02*
X151461055Y-78436290I0J-200000D01*
G01*
X151461055Y-79436290D01*
G75*
G02*
X151261055Y-79636290I-200000J0D01*
G01*
X149561055Y-79636290D01*
G75*
G02*
X149361055Y-79436290I0J200000D01*
G01*
G37*
G36*
G01*
X149361055Y-78036290D02*
X149361055Y-77036290D01*
G75*
G02*
X149561055Y-76836290I200000J0D01*
G01*
X151261055Y-76836290D01*
G75*
G02*
X151461055Y-77036290I0J-200000D01*
G01*
X151461055Y-78036290D01*
G75*
G02*
X151261055Y-78236290I-200000J0D01*
G01*
X149561055Y-78236290D01*
G75*
G02*
X149361055Y-78036290I0J200000D01*
G01*
G37*
G36*
G01*
X143861055Y-79436290D02*
X143861055Y-78436290D01*
G75*
G02*
X144061055Y-78236290I200000J0D01*
G01*
X145761055Y-78236290D01*
G75*
G02*
X145961055Y-78436290I0J-200000D01*
G01*
X145961055Y-79436290D01*
G75*
G02*
X145761055Y-79636290I-200000J0D01*
G01*
X144061055Y-79636290D01*
G75*
G02*
X143861055Y-79436290I0J200000D01*
G01*
G37*
G36*
G01*
X143861055Y-78036290D02*
X143861055Y-77036290D01*
G75*
G02*
X144061055Y-76836290I200000J0D01*
G01*
X145761055Y-76836290D01*
G75*
G02*
X145961055Y-77036290I0J-200000D01*
G01*
X145961055Y-78036290D01*
G75*
G02*
X145761055Y-78236290I-200000J0D01*
G01*
X144061055Y-78236290D01*
G75*
G02*
X143861055Y-78036290I0J200000D01*
G01*
G37*
G36*
G01*
X157981421Y-110670563D02*
X157981421Y-109670563D01*
G75*
G02*
X158181421Y-109470563I200000J0D01*
G01*
X159881421Y-109470563D01*
G75*
G02*
X160081421Y-109670563I0J-200000D01*
G01*
X160081421Y-110670563D01*
G75*
G02*
X159881421Y-110870563I-200000J0D01*
G01*
X158181421Y-110870563D01*
G75*
G02*
X157981421Y-110670563I0J200000D01*
G01*
G37*
G36*
G01*
X157981421Y-109270563D02*
X157981421Y-108270563D01*
G75*
G02*
X158181421Y-108070563I200000J0D01*
G01*
X159881421Y-108070563D01*
G75*
G02*
X160081421Y-108270563I0J-200000D01*
G01*
X160081421Y-109270563D01*
G75*
G02*
X159881421Y-109470563I-200000J0D01*
G01*
X158181421Y-109470563D01*
G75*
G02*
X157981421Y-109270563I0J200000D01*
G01*
G37*
G36*
G01*
X152481421Y-110670563D02*
X152481421Y-109670563D01*
G75*
G02*
X152681421Y-109470563I200000J0D01*
G01*
X154381421Y-109470563D01*
G75*
G02*
X154581421Y-109670563I0J-200000D01*
G01*
X154581421Y-110670563D01*
G75*
G02*
X154381421Y-110870563I-200000J0D01*
G01*
X152681421Y-110870563D01*
G75*
G02*
X152481421Y-110670563I0J200000D01*
G01*
G37*
G36*
G01*
X152481421Y-109270563D02*
X152481421Y-108270563D01*
G75*
G02*
X152681421Y-108070563I200000J0D01*
G01*
X154381421Y-108070563D01*
G75*
G02*
X154581421Y-108270563I0J-200000D01*
G01*
X154581421Y-109270563D01*
G75*
G02*
X154381421Y-109470563I-200000J0D01*
G01*
X152681421Y-109470563D01*
G75*
G02*
X152481421Y-109270563I0J200000D01*
G01*
G37*
G36*
G01*
X179783073Y-113660591D02*
X180016518Y-112688221D01*
G75*
G02*
X180257681Y-112540436I194474J-46689D01*
G01*
X181910710Y-112937294D01*
G75*
G02*
X182058495Y-113178457I-46689J-194474D01*
G01*
X181825050Y-114150827D01*
G75*
G02*
X181583887Y-114298612I-194474J46689D01*
G01*
X179930858Y-113901754D01*
G75*
G02*
X179783073Y-113660591I46689J194474D01*
G01*
G37*
G36*
G01*
X180109896Y-112299273D02*
X180343341Y-111326903D01*
G75*
G02*
X180584504Y-111179118I194474J-46689D01*
G01*
X182237533Y-111575976D01*
G75*
G02*
X182385318Y-111817139I-46689J-194474D01*
G01*
X182151873Y-112789509D01*
G75*
G02*
X181910710Y-112937294I-194474J46689D01*
G01*
X180257681Y-112540436D01*
G75*
G02*
X180109896Y-112299273I46689J194474D01*
G01*
G37*
G36*
G01*
X174435038Y-112376641D02*
X174668483Y-111404271D01*
G75*
G02*
X174909646Y-111256486I194474J-46689D01*
G01*
X176562675Y-111653344D01*
G75*
G02*
X176710460Y-111894507I-46689J-194474D01*
G01*
X176477015Y-112866877D01*
G75*
G02*
X176235852Y-113014662I-194474J46689D01*
G01*
X174582823Y-112617804D01*
G75*
G02*
X174435038Y-112376641I46689J194474D01*
G01*
G37*
G36*
G01*
X174761861Y-111015323D02*
X174995306Y-110042953D01*
G75*
G02*
X175236469Y-109895168I194474J-46689D01*
G01*
X176889498Y-110292026D01*
G75*
G02*
X177037283Y-110533189I-46689J-194474D01*
G01*
X176803838Y-111505559D01*
G75*
G02*
X176562675Y-111653344I-194474J46689D01*
G01*
X174909646Y-111256486D01*
G75*
G02*
X174761861Y-111015323I46689J194474D01*
G01*
G37*
G36*
G01*
X168411087Y-100986269D02*
X168411087Y-99986269D01*
G75*
G02*
X168611087Y-99786269I200000J0D01*
G01*
X170311087Y-99786269D01*
G75*
G02*
X170511087Y-99986269I0J-200000D01*
G01*
X170511087Y-100986269D01*
G75*
G02*
X170311087Y-101186269I-200000J0D01*
G01*
X168611087Y-101186269D01*
G75*
G02*
X168411087Y-100986269I0J200000D01*
G01*
G37*
G36*
G01*
X168411087Y-99586269D02*
X168411087Y-98586269D01*
G75*
G02*
X168611087Y-98386269I200000J0D01*
G01*
X170311087Y-98386269D01*
G75*
G02*
X170511087Y-98586269I0J-200000D01*
G01*
X170511087Y-99586269D01*
G75*
G02*
X170311087Y-99786269I-200000J0D01*
G01*
X168611087Y-99786269D01*
G75*
G02*
X168411087Y-99586269I0J200000D01*
G01*
G37*
G36*
G01*
X162911087Y-100986269D02*
X162911087Y-99986269D01*
G75*
G02*
X163111087Y-99786269I200000J0D01*
G01*
X164811087Y-99786269D01*
G75*
G02*
X165011087Y-99986269I0J-200000D01*
G01*
X165011087Y-100986269D01*
G75*
G02*
X164811087Y-101186269I-200000J0D01*
G01*
X163111087Y-101186269D01*
G75*
G02*
X162911087Y-100986269I0J200000D01*
G01*
G37*
G36*
G01*
X162911087Y-99586269D02*
X162911087Y-98586269D01*
G75*
G02*
X163111087Y-98386269I200000J0D01*
G01*
X164811087Y-98386269D01*
G75*
G02*
X165011087Y-98586269I0J-200000D01*
G01*
X165011087Y-99586269D01*
G75*
G02*
X164811087Y-99786269I-200000J0D01*
G01*
X163111087Y-99786269D01*
G75*
G02*
X162911087Y-99586269I0J200000D01*
G01*
G37*
G36*
G01*
X168411068Y-81936272D02*
X168411068Y-80936272D01*
G75*
G02*
X168611068Y-80736272I200000J0D01*
G01*
X170311068Y-80736272D01*
G75*
G02*
X170511068Y-80936272I0J-200000D01*
G01*
X170511068Y-81936272D01*
G75*
G02*
X170311068Y-82136272I-200000J0D01*
G01*
X168611068Y-82136272D01*
G75*
G02*
X168411068Y-81936272I0J200000D01*
G01*
G37*
G36*
G01*
X168411068Y-80536272D02*
X168411068Y-79536272D01*
G75*
G02*
X168611068Y-79336272I200000J0D01*
G01*
X170311068Y-79336272D01*
G75*
G02*
X170511068Y-79536272I0J-200000D01*
G01*
X170511068Y-80536272D01*
G75*
G02*
X170311068Y-80736272I-200000J0D01*
G01*
X168611068Y-80736272D01*
G75*
G02*
X168411068Y-80536272I0J200000D01*
G01*
G37*
G36*
G01*
X162911068Y-81936272D02*
X162911068Y-80936272D01*
G75*
G02*
X163111068Y-80736272I200000J0D01*
G01*
X164811068Y-80736272D01*
G75*
G02*
X165011068Y-80936272I0J-200000D01*
G01*
X165011068Y-81936272D01*
G75*
G02*
X164811068Y-82136272I-200000J0D01*
G01*
X163111068Y-82136272D01*
G75*
G02*
X162911068Y-81936272I0J200000D01*
G01*
G37*
G36*
G01*
X162911068Y-80536272D02*
X162911068Y-79536272D01*
G75*
G02*
X163111068Y-79336272I200000J0D01*
G01*
X164811068Y-79336272D01*
G75*
G02*
X165011068Y-79536272I0J-200000D01*
G01*
X165011068Y-80536272D01*
G75*
G02*
X164811068Y-80736272I-200000J0D01*
G01*
X163111068Y-80736272D01*
G75*
G02*
X162911068Y-80536272I0J200000D01*
G01*
G37*
G36*
G01*
X168411050Y-62886293D02*
X168411050Y-61886293D01*
G75*
G02*
X168611050Y-61686293I200000J0D01*
G01*
X170311050Y-61686293D01*
G75*
G02*
X170511050Y-61886293I0J-200000D01*
G01*
X170511050Y-62886293D01*
G75*
G02*
X170311050Y-63086293I-200000J0D01*
G01*
X168611050Y-63086293D01*
G75*
G02*
X168411050Y-62886293I0J200000D01*
G01*
G37*
G36*
G01*
X168411050Y-61486293D02*
X168411050Y-60486293D01*
G75*
G02*
X168611050Y-60286293I200000J0D01*
G01*
X170311050Y-60286293D01*
G75*
G02*
X170511050Y-60486293I0J-200000D01*
G01*
X170511050Y-61486293D01*
G75*
G02*
X170311050Y-61686293I-200000J0D01*
G01*
X168611050Y-61686293D01*
G75*
G02*
X168411050Y-61486293I0J200000D01*
G01*
G37*
G36*
G01*
X162911050Y-62886293D02*
X162911050Y-61886293D01*
G75*
G02*
X163111050Y-61686293I200000J0D01*
G01*
X164811050Y-61686293D01*
G75*
G02*
X165011050Y-61886293I0J-200000D01*
G01*
X165011050Y-62886293D01*
G75*
G02*
X164811050Y-63086293I-200000J0D01*
G01*
X163111050Y-63086293D01*
G75*
G02*
X162911050Y-62886293I0J200000D01*
G01*
G37*
G36*
G01*
X162911050Y-61486293D02*
X162911050Y-60486293D01*
G75*
G02*
X163111050Y-60286293I200000J0D01*
G01*
X164811050Y-60286293D01*
G75*
G02*
X165011050Y-60486293I0J-200000D01*
G01*
X165011050Y-61486293D01*
G75*
G02*
X164811050Y-61686293I-200000J0D01*
G01*
X163111050Y-61686293D01*
G75*
G02*
X162911050Y-61486293I0J200000D01*
G01*
G37*
G36*
G01*
X168411054Y-43836280D02*
X168411054Y-42836280D01*
G75*
G02*
X168611054Y-42636280I200000J0D01*
G01*
X170311054Y-42636280D01*
G75*
G02*
X170511054Y-42836280I0J-200000D01*
G01*
X170511054Y-43836280D01*
G75*
G02*
X170311054Y-44036280I-200000J0D01*
G01*
X168611054Y-44036280D01*
G75*
G02*
X168411054Y-43836280I0J200000D01*
G01*
G37*
G36*
G01*
X168411054Y-42436280D02*
X168411054Y-41436280D01*
G75*
G02*
X168611054Y-41236280I200000J0D01*
G01*
X170311054Y-41236280D01*
G75*
G02*
X170511054Y-41436280I0J-200000D01*
G01*
X170511054Y-42436280D01*
G75*
G02*
X170311054Y-42636280I-200000J0D01*
G01*
X168611054Y-42636280D01*
G75*
G02*
X168411054Y-42436280I0J200000D01*
G01*
G37*
G36*
G01*
X162911054Y-43836280D02*
X162911054Y-42836280D01*
G75*
G02*
X163111054Y-42636280I200000J0D01*
G01*
X164811054Y-42636280D01*
G75*
G02*
X165011054Y-42836280I0J-200000D01*
G01*
X165011054Y-43836280D01*
G75*
G02*
X164811054Y-44036280I-200000J0D01*
G01*
X163111054Y-44036280D01*
G75*
G02*
X162911054Y-43836280I0J200000D01*
G01*
G37*
G36*
G01*
X162911054Y-42436280D02*
X162911054Y-41436280D01*
G75*
G02*
X163111054Y-41236280I200000J0D01*
G01*
X164811054Y-41236280D01*
G75*
G02*
X165011054Y-41436280I0J-200000D01*
G01*
X165011054Y-42436280D01*
G75*
G02*
X164811054Y-42636280I-200000J0D01*
G01*
X163111054Y-42636280D01*
G75*
G02*
X162911054Y-42436280I0J200000D01*
G01*
G37*
G36*
G01*
X187461067Y-45836291D02*
X187461067Y-44836291D01*
G75*
G02*
X187661067Y-44636291I200000J0D01*
G01*
X189361067Y-44636291D01*
G75*
G02*
X189561067Y-44836291I0J-200000D01*
G01*
X189561067Y-45836291D01*
G75*
G02*
X189361067Y-46036291I-200000J0D01*
G01*
X187661067Y-46036291D01*
G75*
G02*
X187461067Y-45836291I0J200000D01*
G01*
G37*
G36*
G01*
X187461067Y-44436291D02*
X187461067Y-43436291D01*
G75*
G02*
X187661067Y-43236291I200000J0D01*
G01*
X189361067Y-43236291D01*
G75*
G02*
X189561067Y-43436291I0J-200000D01*
G01*
X189561067Y-44436291D01*
G75*
G02*
X189361067Y-44636291I-200000J0D01*
G01*
X187661067Y-44636291D01*
G75*
G02*
X187461067Y-44436291I0J200000D01*
G01*
G37*
G36*
G01*
X181961067Y-45836291D02*
X181961067Y-44836291D01*
G75*
G02*
X182161067Y-44636291I200000J0D01*
G01*
X183861067Y-44636291D01*
G75*
G02*
X184061067Y-44836291I0J-200000D01*
G01*
X184061067Y-45836291D01*
G75*
G02*
X183861067Y-46036291I-200000J0D01*
G01*
X182161067Y-46036291D01*
G75*
G02*
X181961067Y-45836291I0J200000D01*
G01*
G37*
G36*
G01*
X181961067Y-44436291D02*
X181961067Y-43436291D01*
G75*
G02*
X182161067Y-43236291I200000J0D01*
G01*
X183861067Y-43236291D01*
G75*
G02*
X184061067Y-43436291I0J-200000D01*
G01*
X184061067Y-44436291D01*
G75*
G02*
X183861067Y-44636291I-200000J0D01*
G01*
X182161067Y-44636291D01*
G75*
G02*
X181961067Y-44436291I0J200000D01*
G01*
G37*
G36*
G01*
X187461066Y-83936271D02*
X187461066Y-82936271D01*
G75*
G02*
X187661066Y-82736271I200000J0D01*
G01*
X189361066Y-82736271D01*
G75*
G02*
X189561066Y-82936271I0J-200000D01*
G01*
X189561066Y-83936271D01*
G75*
G02*
X189361066Y-84136271I-200000J0D01*
G01*
X187661066Y-84136271D01*
G75*
G02*
X187461066Y-83936271I0J200000D01*
G01*
G37*
G36*
G01*
X187461066Y-82536271D02*
X187461066Y-81536271D01*
G75*
G02*
X187661066Y-81336271I200000J0D01*
G01*
X189361066Y-81336271D01*
G75*
G02*
X189561066Y-81536271I0J-200000D01*
G01*
X189561066Y-82536271D01*
G75*
G02*
X189361066Y-82736271I-200000J0D01*
G01*
X187661066Y-82736271D01*
G75*
G02*
X187461066Y-82536271I0J200000D01*
G01*
G37*
G36*
G01*
X181961066Y-83936271D02*
X181961066Y-82936271D01*
G75*
G02*
X182161066Y-82736271I200000J0D01*
G01*
X183861066Y-82736271D01*
G75*
G02*
X184061066Y-82936271I0J-200000D01*
G01*
X184061066Y-83936271D01*
G75*
G02*
X183861066Y-84136271I-200000J0D01*
G01*
X182161066Y-84136271D01*
G75*
G02*
X181961066Y-83936271I0J200000D01*
G01*
G37*
G36*
G01*
X181961066Y-82536271D02*
X181961066Y-81536271D01*
G75*
G02*
X182161066Y-81336271I200000J0D01*
G01*
X183861066Y-81336271D01*
G75*
G02*
X184061066Y-81536271I0J-200000D01*
G01*
X184061066Y-82536271D01*
G75*
G02*
X183861066Y-82736271I-200000J0D01*
G01*
X182161066Y-82736271D01*
G75*
G02*
X181961066Y-82536271I0J200000D01*
G01*
G37*
G36*
G01*
X224547178Y-126839987D02*
X225196626Y-126079581D01*
G75*
G02*
X225478597Y-126057390I152081J-129890D01*
G01*
X226771287Y-127161452D01*
G75*
G02*
X226793478Y-127443423I-129890J-152081D01*
G01*
X226144030Y-128203829D01*
G75*
G02*
X225862059Y-128226020I-152081J129890D01*
G01*
X224569369Y-127121958D01*
G75*
G02*
X224547178Y-126839987I129890J152081D01*
G01*
G37*
G36*
G01*
X225456405Y-125775419D02*
X226105853Y-125015013D01*
G75*
G02*
X226387824Y-124992822I152081J-129890D01*
G01*
X227680514Y-126096884D01*
G75*
G02*
X227702705Y-126378855I-129890J-152081D01*
G01*
X227053257Y-127139261D01*
G75*
G02*
X226771286Y-127161452I-152081J129890D01*
G01*
X225478596Y-126057390D01*
G75*
G02*
X225456405Y-125775419I129890J152081D01*
G01*
G37*
G36*
G01*
X220364945Y-123268023D02*
X221014393Y-122507617D01*
G75*
G02*
X221296364Y-122485426I152081J-129890D01*
G01*
X222589054Y-123589488D01*
G75*
G02*
X222611245Y-123871459I-129890J-152081D01*
G01*
X221961797Y-124631865D01*
G75*
G02*
X221679826Y-124654056I-152081J129890D01*
G01*
X220387136Y-123549994D01*
G75*
G02*
X220364945Y-123268023I129890J152081D01*
G01*
G37*
G36*
G01*
X221274172Y-122203455D02*
X221923620Y-121443049D01*
G75*
G02*
X222205591Y-121420858I152081J-129890D01*
G01*
X223498281Y-122524920D01*
G75*
G02*
X223520472Y-122806891I-129890J-152081D01*
G01*
X222871024Y-123567297D01*
G75*
G02*
X222589053Y-123589488I-152081J129890D01*
G01*
X221296363Y-122485426D01*
G75*
G02*
X221274172Y-122203455I129890J152081D01*
G01*
G37*
G36*
G01*
X200302626Y-121652624D02*
X200756617Y-120761618D01*
G75*
G02*
X201025616Y-120674215I178201J-90798D01*
G01*
X202540327Y-121445999D01*
G75*
G02*
X202627730Y-121714998I-90798J-178201D01*
G01*
X202173739Y-122606004D01*
G75*
G02*
X201904740Y-122693407I-178201J90798D01*
G01*
X200390029Y-121921623D01*
G75*
G02*
X200302626Y-121652624I90798J178201D01*
G01*
G37*
G36*
G01*
X200938212Y-120405215D02*
X201392203Y-119514209D01*
G75*
G02*
X201661202Y-119426806I178201J-90798D01*
G01*
X203175913Y-120198590D01*
G75*
G02*
X203263316Y-120467589I-90798J-178201D01*
G01*
X202809325Y-121358595D01*
G75*
G02*
X202540326Y-121445998I-178201J90798D01*
G01*
X201025615Y-120674214D01*
G75*
G02*
X200938212Y-120405215I90798J178201D01*
G01*
G37*
G36*
G01*
X195402090Y-119155677D02*
X195856081Y-118264671D01*
G75*
G02*
X196125080Y-118177268I178201J-90798D01*
G01*
X197639791Y-118949052D01*
G75*
G02*
X197727194Y-119218051I-90798J-178201D01*
G01*
X197273203Y-120109057D01*
G75*
G02*
X197004204Y-120196460I-178201J90798D01*
G01*
X195489493Y-119424676D01*
G75*
G02*
X195402090Y-119155677I90798J178201D01*
G01*
G37*
G36*
G01*
X196037676Y-117908268D02*
X196491667Y-117017262D01*
G75*
G02*
X196760666Y-116929859I178201J-90798D01*
G01*
X198275377Y-117701643D01*
G75*
G02*
X198362780Y-117970642I-90798J-178201D01*
G01*
X197908789Y-118861648D01*
G75*
G02*
X197639790Y-118949051I-178201J90798D01*
G01*
X196125079Y-118177267D01*
G75*
G02*
X196037676Y-117908268I90798J178201D01*
G01*
G37*
G36*
G01*
X218321213Y-134189200D02*
X218970661Y-133428794D01*
G75*
G02*
X219252632Y-133406603I152081J-129890D01*
G01*
X220545322Y-134510665D01*
G75*
G02*
X220567513Y-134792636I-129890J-152081D01*
G01*
X219918065Y-135553042D01*
G75*
G02*
X219636094Y-135575233I-152081J129890D01*
G01*
X218343404Y-134471171D01*
G75*
G02*
X218321213Y-134189200I129890J152081D01*
G01*
G37*
G36*
G01*
X219230440Y-133124632D02*
X219879888Y-132364226D01*
G75*
G02*
X220161859Y-132342035I152081J-129890D01*
G01*
X221454549Y-133446097D01*
G75*
G02*
X221476740Y-133728068I-129890J-152081D01*
G01*
X220827292Y-134488474D01*
G75*
G02*
X220545321Y-134510665I-152081J129890D01*
G01*
X219252631Y-133406603D01*
G75*
G02*
X219230440Y-133124632I129890J152081D01*
G01*
G37*
G36*
G01*
X214138980Y-130617236D02*
X214788428Y-129856830D01*
G75*
G02*
X215070399Y-129834639I152081J-129890D01*
G01*
X216363089Y-130938701D01*
G75*
G02*
X216385280Y-131220672I-129890J-152081D01*
G01*
X215735832Y-131981078D01*
G75*
G02*
X215453861Y-132003269I-152081J129890D01*
G01*
X214161171Y-130899207D01*
G75*
G02*
X214138980Y-130617236I129890J152081D01*
G01*
G37*
G36*
G01*
X215048207Y-129552668D02*
X215697655Y-128792262D01*
G75*
G02*
X215979626Y-128770071I152081J-129890D01*
G01*
X217272316Y-129874133D01*
G75*
G02*
X217294507Y-130156104I-129890J-152081D01*
G01*
X216645059Y-130916510D01*
G75*
G02*
X216363088Y-130938701I-152081J129890D01*
G01*
X215070398Y-129834639D01*
G75*
G02*
X215048207Y-129552668I129890J152081D01*
G01*
G37*
G36*
G01*
X187461072Y-102936290D02*
X187461072Y-101936290D01*
G75*
G02*
X187661072Y-101736290I200000J0D01*
G01*
X189361072Y-101736290D01*
G75*
G02*
X189561072Y-101936290I0J-200000D01*
G01*
X189561072Y-102936290D01*
G75*
G02*
X189361072Y-103136290I-200000J0D01*
G01*
X187661072Y-103136290D01*
G75*
G02*
X187461072Y-102936290I0J200000D01*
G01*
G37*
G36*
G01*
X187461072Y-101536290D02*
X187461072Y-100536290D01*
G75*
G02*
X187661072Y-100336290I200000J0D01*
G01*
X189361072Y-100336290D01*
G75*
G02*
X189561072Y-100536290I0J-200000D01*
G01*
X189561072Y-101536290D01*
G75*
G02*
X189361072Y-101736290I-200000J0D01*
G01*
X187661072Y-101736290D01*
G75*
G02*
X187461072Y-101536290I0J200000D01*
G01*
G37*
G36*
G01*
X181961072Y-102936290D02*
X181961072Y-101936290D01*
G75*
G02*
X182161072Y-101736290I200000J0D01*
G01*
X183861072Y-101736290D01*
G75*
G02*
X184061072Y-101936290I0J-200000D01*
G01*
X184061072Y-102936290D01*
G75*
G02*
X183861072Y-103136290I-200000J0D01*
G01*
X182161072Y-103136290D01*
G75*
G02*
X181961072Y-102936290I0J200000D01*
G01*
G37*
G36*
G01*
X181961072Y-101536290D02*
X181961072Y-100536290D01*
G75*
G02*
X182161072Y-100336290I200000J0D01*
G01*
X183861072Y-100336290D01*
G75*
G02*
X184061072Y-100536290I0J-200000D01*
G01*
X184061072Y-101536290D01*
G75*
G02*
X183861072Y-101736290I-200000J0D01*
G01*
X182161072Y-101736290D01*
G75*
G02*
X181961072Y-101536290I0J200000D01*
G01*
G37*
G36*
G01*
X175061048Y-91506279D02*
X175061048Y-93506279D01*
G75*
G02*
X174861048Y-93706279I-200000J0D01*
G01*
X172561048Y-93706279D01*
G75*
G02*
X172361048Y-93506279I0J200000D01*
G01*
X172361048Y-91506279D01*
G75*
G02*
X172561048Y-91306279I200000J0D01*
G01*
X174861048Y-91306279D01*
G75*
G02*
X175061048Y-91506279I0J-200000D01*
G01*
G37*
G36*
G01*
X162361048Y-88966279D02*
X162361048Y-90966279D01*
G75*
G02*
X162161048Y-91166279I-200000J0D01*
G01*
X159861048Y-91166279D01*
G75*
G02*
X159661048Y-90966279I0J200000D01*
G01*
X159661048Y-88966279D01*
G75*
G02*
X159861048Y-88766279I200000J0D01*
G01*
X162161048Y-88766279D01*
G75*
G02*
X162361048Y-88966279I0J-200000D01*
G01*
G37*
D10*
X162901048Y-92546279D03*
X164171048Y-90006279D03*
X170521048Y-92546278D03*
X169251048Y-90006279D03*
D11*
X166711048Y-95086279D03*
D12*
X171791048Y-95086279D03*
X161631048Y-95086279D03*
D13*
X162211048Y-95086279D03*
X171211048Y-95086279D03*
X110767380Y-41895024D03*
X101779714Y-42366048D03*
D12*
X101200509Y-42396403D03*
X111346585Y-41864669D03*
D11*
X106273547Y-42130536D03*
D10*
X108544199Y-36924565D03*
X109945392Y-39394616D03*
X103471161Y-37190431D03*
X102335835Y-39793417D03*
G36*
G01*
X101609213Y-36246585D02*
X101713885Y-38243844D01*
G75*
G02*
X101524626Y-38454037I-199726J-10467D01*
G01*
X99227778Y-38574410D01*
G75*
G02*
X99017585Y-38385151I-10467J199726D01*
G01*
X98912913Y-36387892D01*
G75*
G02*
X99102172Y-36177699I199726J10467D01*
G01*
X101399020Y-36057326D01*
G75*
G02*
X101609213Y-36246585I10467J-199726D01*
G01*
G37*
G36*
G01*
X114424741Y-38118437D02*
X114529413Y-40115696D01*
G75*
G02*
X114340154Y-40325889I-199726J-10467D01*
G01*
X112043306Y-40446262D01*
G75*
G02*
X111833113Y-40257003I-10467J199726D01*
G01*
X111728441Y-38259744D01*
G75*
G02*
X111917700Y-38049551I199726J10467D01*
G01*
X114214548Y-37929178D01*
G75*
G02*
X114424741Y-38118437I10467J-199726D01*
G01*
G37*
D16*
X222989608Y-56532159D03*
D17*
X200413428Y-50931537D03*
X214354615Y-50931520D03*
X224622634Y-88094294D03*
X221822605Y-88094276D03*
G36*
G01*
X225460992Y-69991514D02*
X224660992Y-69991514D01*
G75*
G02*
X224460992Y-69791514I0J200000D01*
G01*
X224460992Y-68591514D01*
G75*
G02*
X224660992Y-68391514I200000J0D01*
G01*
X225460992Y-68391514D01*
G75*
G02*
X225660992Y-68591514I0J-200000D01*
G01*
X225660992Y-69791514D01*
G75*
G02*
X225460992Y-69991514I-200000J0D01*
G01*
G37*
G36*
G01*
X223260992Y-69991514D02*
X222460992Y-69991514D01*
G75*
G02*
X222260992Y-69791514I0J200000D01*
G01*
X222260992Y-68591514D01*
G75*
G02*
X222460992Y-68391514I200000J0D01*
G01*
X223260992Y-68391514D01*
G75*
G02*
X223460992Y-68591514I0J-200000D01*
G01*
X223460992Y-69791514D01*
G75*
G02*
X223260992Y-69991514I-200000J0D01*
G01*
G37*
G36*
G01*
X225460992Y-77311514D02*
X224660992Y-77311514D01*
G75*
G02*
X224460992Y-77111514I0J200000D01*
G01*
X224460992Y-75911514D01*
G75*
G02*
X224660992Y-75711514I200000J0D01*
G01*
X225460992Y-75711514D01*
G75*
G02*
X225660992Y-75911514I0J-200000D01*
G01*
X225660992Y-77111514D01*
G75*
G02*
X225460992Y-77311514I-200000J0D01*
G01*
G37*
G36*
G01*
X223260992Y-77311514D02*
X222460992Y-77311514D01*
G75*
G02*
X222260992Y-77111514I0J200000D01*
G01*
X222260992Y-75911514D01*
G75*
G02*
X222460992Y-75711514I200000J0D01*
G01*
X223260992Y-75711514D01*
G75*
G02*
X223460992Y-75911514I0J-200000D01*
G01*
X223460992Y-77111514D01*
G75*
G02*
X223260992Y-77311514I-200000J0D01*
G01*
G37*
G36*
G01*
X222680992Y-71251514D02*
X221180992Y-71251514D01*
G75*
G02*
X220980992Y-71051514I0J200000D01*
G01*
X220980992Y-70251514D01*
G75*
G02*
X221180992Y-70051514I200000J0D01*
G01*
X222680992Y-70051514D01*
G75*
G02*
X222880992Y-70251514I0J-200000D01*
G01*
X222880992Y-71051514D01*
G75*
G02*
X222680992Y-71251514I-200000J0D01*
G01*
G37*
G36*
G01*
X222680992Y-72731514D02*
X221180992Y-72731514D01*
G75*
G02*
X220980992Y-72531514I0J200000D01*
G01*
X220980992Y-71731514D01*
G75*
G02*
X221180992Y-71531514I200000J0D01*
G01*
X222680992Y-71531514D01*
G75*
G02*
X222880992Y-71731514I0J-200000D01*
G01*
X222880992Y-72531514D01*
G75*
G02*
X222680992Y-72731514I-200000J0D01*
G01*
G37*
G36*
G01*
X222680992Y-75671514D02*
X221180992Y-75671514D01*
G75*
G02*
X220980992Y-75471514I0J200000D01*
G01*
X220980992Y-74671514D01*
G75*
G02*
X221180992Y-74471514I200000J0D01*
G01*
X222680992Y-74471514D01*
G75*
G02*
X222880992Y-74671514I0J-200000D01*
G01*
X222880992Y-75471514D01*
G75*
G02*
X222680992Y-75671514I-200000J0D01*
G01*
G37*
D18*
X223970992Y-71401514D03*
X223970992Y-74301514D03*
G36*
G01*
X204580995Y-50141510D02*
X204580995Y-50941510D01*
G75*
G02*
X204380995Y-51141510I-200000J0D01*
G01*
X203180995Y-51141510D01*
G75*
G02*
X202980995Y-50941510I0J200000D01*
G01*
X202980995Y-50141510D01*
G75*
G02*
X203180995Y-49941510I200000J0D01*
G01*
X204380995Y-49941510D01*
G75*
G02*
X204580995Y-50141510I0J-200000D01*
G01*
G37*
G36*
G01*
X204580995Y-52341510D02*
X204580995Y-53141510D01*
G75*
G02*
X204380995Y-53341510I-200000J0D01*
G01*
X203180995Y-53341510D01*
G75*
G02*
X202980995Y-53141510I0J200000D01*
G01*
X202980995Y-52341510D01*
G75*
G02*
X203180995Y-52141510I200000J0D01*
G01*
X204380995Y-52141510D01*
G75*
G02*
X204580995Y-52341510I0J-200000D01*
G01*
G37*
G36*
G01*
X211900995Y-50141510D02*
X211900995Y-50941510D01*
G75*
G02*
X211700995Y-51141510I-200000J0D01*
G01*
X210500995Y-51141510D01*
G75*
G02*
X210300995Y-50941510I0J200000D01*
G01*
X210300995Y-50141510D01*
G75*
G02*
X210500995Y-49941510I200000J0D01*
G01*
X211700995Y-49941510D01*
G75*
G02*
X211900995Y-50141510I0J-200000D01*
G01*
G37*
G36*
G01*
X211900995Y-52341510D02*
X211900995Y-53141510D01*
G75*
G02*
X211700995Y-53341510I-200000J0D01*
G01*
X210500995Y-53341510D01*
G75*
G02*
X210300995Y-53141510I0J200000D01*
G01*
X210300995Y-52341510D01*
G75*
G02*
X210500995Y-52141510I200000J0D01*
G01*
X211700995Y-52141510D01*
G75*
G02*
X211900995Y-52341510I0J-200000D01*
G01*
G37*
G36*
G01*
X205840995Y-52921510D02*
X205840995Y-54421510D01*
G75*
G02*
X205640995Y-54621510I-200000J0D01*
G01*
X204840995Y-54621510D01*
G75*
G02*
X204640995Y-54421510I0J200000D01*
G01*
X204640995Y-52921510D01*
G75*
G02*
X204840995Y-52721510I200000J0D01*
G01*
X205640995Y-52721510D01*
G75*
G02*
X205840995Y-52921510I0J-200000D01*
G01*
G37*
G36*
G01*
X207320995Y-52921510D02*
X207320995Y-54421510D01*
G75*
G02*
X207120995Y-54621510I-200000J0D01*
G01*
X206320995Y-54621510D01*
G75*
G02*
X206120995Y-54421510I0J200000D01*
G01*
X206120995Y-52921510D01*
G75*
G02*
X206320995Y-52721510I200000J0D01*
G01*
X207120995Y-52721510D01*
G75*
G02*
X207320995Y-52921510I0J-200000D01*
G01*
G37*
G36*
G01*
X210260995Y-52921510D02*
X210260995Y-54421510D01*
G75*
G02*
X210060995Y-54621510I-200000J0D01*
G01*
X209260995Y-54621510D01*
G75*
G02*
X209060995Y-54421510I0J200000D01*
G01*
X209060995Y-52921510D01*
G75*
G02*
X209260995Y-52721510I200000J0D01*
G01*
X210060995Y-52721510D01*
G75*
G02*
X210260995Y-52921510I0J-200000D01*
G01*
G37*
X205990995Y-51631510D03*
X208890995Y-51631510D03*
D15*
X176893794Y-68524777D03*
X138763797Y-64014792D03*
G36*
G01*
X194111032Y-93506299D02*
X194111032Y-95506299D01*
G75*
G02*
X193911032Y-95706299I-200000J0D01*
G01*
X191611032Y-95706299D01*
G75*
G02*
X191411032Y-95506299I0J200000D01*
G01*
X191411032Y-93506299D01*
G75*
G02*
X191611032Y-93306299I200000J0D01*
G01*
X193911032Y-93306299D01*
G75*
G02*
X194111032Y-93506299I0J-200000D01*
G01*
G37*
G36*
G01*
X181411032Y-90966299D02*
X181411032Y-92966299D01*
G75*
G02*
X181211032Y-93166299I-200000J0D01*
G01*
X178911032Y-93166299D01*
G75*
G02*
X178711032Y-92966299I0J200000D01*
G01*
X178711032Y-90966299D01*
G75*
G02*
X178911032Y-90766299I200000J0D01*
G01*
X181211032Y-90766299D01*
G75*
G02*
X181411032Y-90966299I0J-200000D01*
G01*
G37*
D10*
X181951032Y-94546299D03*
X183221032Y-92006299D03*
X189571032Y-94546298D03*
X188301032Y-92006299D03*
D11*
X185761032Y-97086299D03*
D12*
X190841032Y-97086299D03*
X180681032Y-97086299D03*
D13*
X181261032Y-97086299D03*
X190261032Y-97086299D03*
X152161046Y-92578793D03*
X143161046Y-92578793D03*
D12*
X142581046Y-92578793D03*
X152741046Y-92578793D03*
D11*
X147661046Y-92578793D03*
D10*
X150201046Y-87498793D03*
X151471046Y-90038792D03*
X145121046Y-87498793D03*
X143851046Y-90038793D03*
G36*
G01*
X143311046Y-86458793D02*
X143311046Y-88458793D01*
G75*
G02*
X143111046Y-88658793I-200000J0D01*
G01*
X140811046Y-88658793D01*
G75*
G02*
X140611046Y-88458793I0J200000D01*
G01*
X140611046Y-86458793D01*
G75*
G02*
X140811046Y-86258793I200000J0D01*
G01*
X143111046Y-86258793D01*
G75*
G02*
X143311046Y-86458793I0J-200000D01*
G01*
G37*
G36*
G01*
X156011046Y-88998793D02*
X156011046Y-90998793D01*
G75*
G02*
X155811046Y-91198793I-200000J0D01*
G01*
X153511046Y-91198793D01*
G75*
G02*
X153311046Y-90998793I0J200000D01*
G01*
X153311046Y-88998793D01*
G75*
G02*
X153511046Y-88798793I200000J0D01*
G01*
X155811046Y-88798793D01*
G75*
G02*
X156011046Y-88998793I0J-200000D01*
G01*
G37*
G36*
G01*
X206051061Y-133021439D02*
X207349957Y-131500627D01*
G75*
G02*
X207631928Y-131478436I152081J-129890D01*
G01*
X209380862Y-132972166D01*
G75*
G02*
X209403053Y-133254137I-129890J-152081D01*
G01*
X208104157Y-134774949D01*
G75*
G02*
X207822186Y-134797140I-152081J129890D01*
G01*
X206073252Y-133303410D01*
G75*
G02*
X206051061Y-133021439I129890J152081D01*
G01*
G37*
G36*
G01*
X214058619Y-143200860D02*
X215357515Y-141680048D01*
G75*
G02*
X215639486Y-141657857I152081J-129890D01*
G01*
X217388420Y-143151587D01*
G75*
G02*
X217410611Y-143433558I-129890J-152081D01*
G01*
X216111715Y-144954370D01*
G75*
G02*
X215829744Y-144976561I-152081J129890D01*
G01*
X214080810Y-143482831D01*
G75*
G02*
X214058619Y-143200860I129890J152081D01*
G01*
G37*
X215973024Y-140127905D03*
X213357710Y-141234537D03*
X210178730Y-135179112D03*
X209494848Y-137935341D03*
D11*
X214725475Y-135722077D03*
D12*
X210862613Y-132422881D03*
X218588337Y-139021273D03*
D13*
X218147302Y-138644593D03*
X211303648Y-132799561D03*
G36*
G01*
X147922373Y-117740398D02*
X147922373Y-115740398D01*
G75*
G02*
X148122373Y-115540398I200000J0D01*
G01*
X150422373Y-115540398D01*
G75*
G02*
X150622373Y-115740398I0J-200000D01*
G01*
X150622373Y-117740398D01*
G75*
G02*
X150422373Y-117940398I-200000J0D01*
G01*
X148122373Y-117940398D01*
G75*
G02*
X147922373Y-117740398I0J200000D01*
G01*
G37*
G36*
G01*
X160622373Y-120280398D02*
X160622373Y-118280398D01*
G75*
G02*
X160822373Y-118080398I200000J0D01*
G01*
X163122373Y-118080398D01*
G75*
G02*
X163322373Y-118280398I0J-200000D01*
G01*
X163322373Y-120280398D01*
G75*
G02*
X163122373Y-120480398I-200000J0D01*
G01*
X160822373Y-120480398D01*
G75*
G02*
X160622373Y-120280398I0J200000D01*
G01*
G37*
D10*
X160082373Y-116700398D03*
X158812373Y-119240398D03*
X152462373Y-116700399D03*
X153732373Y-119240398D03*
D11*
X156272373Y-114160398D03*
D12*
X151192373Y-114160398D03*
X161352373Y-114160398D03*
D13*
X160772373Y-114160398D03*
X151772373Y-114160398D03*
G36*
G01*
X235771838Y-123937038D02*
X234472942Y-125457850D01*
G75*
G02*
X234190971Y-125480041I-152081J129890D01*
G01*
X232442037Y-123986311D01*
G75*
G02*
X232419846Y-123704340I129890J152081D01*
G01*
X233718742Y-122183528D01*
G75*
G02*
X234000713Y-122161337I152081J-129890D01*
G01*
X235749647Y-123655067D01*
G75*
G02*
X235771838Y-123937038I-129890J-152081D01*
G01*
G37*
G36*
G01*
X227764280Y-113757617D02*
X226465384Y-115278429D01*
G75*
G02*
X226183413Y-115300620I-152081J129890D01*
G01*
X224434479Y-113806890D01*
G75*
G02*
X224412288Y-113524919I129890J152081D01*
G01*
X225711184Y-112004107D01*
G75*
G02*
X225993155Y-111981916I152081J-129890D01*
G01*
X227742089Y-113475646D01*
G75*
G02*
X227764280Y-113757617I-129890J-152081D01*
G01*
G37*
D10*
X225849875Y-116830572D03*
X228465189Y-115723940D03*
X231644169Y-121779365D03*
X232328051Y-119023136D03*
D11*
X227097424Y-121236400D03*
D12*
X230960286Y-124535596D03*
X223234562Y-117937204D03*
D13*
X223675597Y-118313884D03*
X230519251Y-124158916D03*
D19*
X233544575Y-117537178D03*
X229742545Y-114289938D03*
G36*
G01*
X230947096Y-126891488D02*
X229426284Y-125592591D01*
G75*
G02*
X229404093Y-125310620I129890J152081D01*
G01*
X231482327Y-122877321D01*
G75*
G02*
X231764298Y-122855130I152081J-129890D01*
G01*
X233285110Y-124154027D01*
G75*
G02*
X233307301Y-124435998I-129890J-152081D01*
G01*
X231229067Y-126869297D01*
G75*
G02*
X230947096Y-126891488I-152081J129890D01*
G01*
G37*
G36*
G01*
X222430550Y-119617670D02*
X220909738Y-118318773D01*
G75*
G02*
X220887547Y-118036802I129890J152081D01*
G01*
X222965781Y-115603503D01*
G75*
G02*
X223247752Y-115581312I152081J-129890D01*
G01*
X224768564Y-116880209D01*
G75*
G02*
X224790755Y-117162180I-129890J-152081D01*
G01*
X222712521Y-119595479D01*
G75*
G02*
X222430550Y-119617670I-152081J129890D01*
G01*
G37*
X224127579Y-128563065D03*
X222226564Y-126939445D03*
X220325549Y-125315825D03*
G36*
G01*
X222234965Y-111441500D02*
X221452045Y-110903414D01*
G75*
G02*
X221400501Y-110625308I113281J164825D01*
G01*
X222136829Y-109553944D01*
G75*
G02*
X222414935Y-109502400I164825J-113281D01*
G01*
X223197855Y-110040486D01*
G75*
G02*
X223249399Y-110318592I-113281J-164825D01*
G01*
X222513071Y-111389956D01*
G75*
G02*
X222234965Y-111441500I-164825J113281D01*
G01*
G37*
D14*
X223330321Y-109009126D03*
G36*
G01*
X219375573Y-115996534D02*
X218224269Y-115205264D01*
G75*
G02*
X218172725Y-114927158I113281J164825D01*
G01*
X218963995Y-113775854D01*
G75*
G02*
X219242101Y-113724310I164825J-113281D01*
G01*
X220393405Y-114515580D01*
G75*
G02*
X220444949Y-114793686I-113281J-164825D01*
G01*
X219653679Y-115944990D01*
G75*
G02*
X219375573Y-115996534I-164825J113281D01*
G01*
G37*
G36*
G01*
X220224223Y-114367148D02*
X219441303Y-113829062D01*
G75*
G02*
X219389759Y-113550956I113281J164825D01*
G01*
X220126087Y-112479592D01*
G75*
G02*
X220404193Y-112428048I164825J-113281D01*
G01*
X221187113Y-112966134D01*
G75*
G02*
X221238657Y-113244240I-113281J-164825D01*
G01*
X220502329Y-114315604D01*
G75*
G02*
X220224223Y-114367148I-164825J113281D01*
G01*
G37*
D15*
X144995685Y-106943695D03*
G36*
G01*
X128043224Y-121592361D02*
X127627401Y-119636066D01*
G75*
G02*
X127781449Y-119398854I195630J41582D01*
G01*
X130031188Y-118920657D01*
G75*
G02*
X130268400Y-119074705I41582J-195630D01*
G01*
X130684223Y-121031000D01*
G75*
G02*
X130530175Y-121268212I-195630J-41582D01*
G01*
X128280436Y-121746409D01*
G75*
G02*
X128043224Y-121592361I-41582J195630D01*
G01*
G37*
G36*
G01*
X140993794Y-121436377D02*
X140577971Y-119480082D01*
G75*
G02*
X140732019Y-119242870I195630J41582D01*
G01*
X142981758Y-118764673D01*
G75*
G02*
X143218970Y-118918721I41582J-195630D01*
G01*
X143634793Y-120875016D01*
G75*
G02*
X143480745Y-121112228I-195630J-41582D01*
G01*
X141231006Y-121590425D01*
G75*
G02*
X140993794Y-121436377I-41582J195630D01*
G01*
G37*
D10*
X139721271Y-118046881D03*
X139007119Y-120795424D03*
X132267787Y-119631169D03*
X134038129Y-121851616D03*
D11*
X135466433Y-116354530D03*
D12*
X130497443Y-117410721D03*
X140435423Y-115298339D03*
D13*
X139868097Y-115418927D03*
X131064769Y-117290133D03*
G36*
G01*
X145123593Y-112771048D02*
X146068388Y-112671746D01*
G75*
G02*
X146288198Y-112849744I20906J-198904D01*
G01*
X146424085Y-114142622D01*
G75*
G02*
X146246087Y-114362432I-198904J-20906D01*
G01*
X145301292Y-114461734D01*
G75*
G02*
X145081482Y-114283736I-20906J198904D01*
G01*
X144945595Y-112990858D01*
G75*
G02*
X145123593Y-112771048I198904J20906D01*
G01*
G37*
G36*
G01*
X144710709Y-110980899D02*
X146100056Y-110834872D01*
G75*
G02*
X146319866Y-111012870I20906J-198904D01*
G01*
X146465893Y-112402217D01*
G75*
G02*
X146287895Y-112622027I-198904J-20906D01*
G01*
X144898548Y-112768054D01*
G75*
G02*
X144678738Y-112590056I-20906J198904D01*
G01*
X144532711Y-111200709D01*
G75*
G02*
X144710709Y-110980899I198904J20906D01*
G01*
G37*
D14*
X146241454Y-118862569D03*
G36*
G01*
X145494669Y-116301600D02*
X146439464Y-116202298D01*
G75*
G02*
X146659274Y-116380296I20906J-198904D01*
G01*
X146795161Y-117673174D01*
G75*
G02*
X146617163Y-117892984I-198904J-20906D01*
G01*
X145672368Y-117992286D01*
G75*
G02*
X145452558Y-117814288I-20906J198904D01*
G01*
X145316671Y-116521410D01*
G75*
G02*
X145494669Y-116301600I198904J20906D01*
G01*
G37*
G36*
G01*
X188068929Y-123369535D02*
X188976910Y-121587522D01*
G75*
G02*
X189245909Y-121500119I178201J-90798D01*
G01*
X191295224Y-122544298D01*
G75*
G02*
X191382627Y-122813297I-90798J-178201D01*
G01*
X190474646Y-124595310D01*
G75*
G02*
X190205647Y-124682713I-178201J90798D01*
G01*
X188156332Y-123638534D01*
G75*
G02*
X188068929Y-123369535I90798J178201D01*
G01*
G37*
G36*
G01*
X198231576Y-131398371D02*
X199139557Y-129616358D01*
G75*
G02*
X199408556Y-129528955I178201J-90798D01*
G01*
X201457871Y-130573134D01*
G75*
G02*
X201545274Y-130842133I-90798J-178201D01*
G01*
X200637293Y-132624146D01*
G75*
G02*
X200368294Y-132711549I-178201J90798D01*
G01*
X198318979Y-131667370D01*
G75*
G02*
X198231576Y-131398371I90798J178201D01*
G01*
G37*
D10*
X199375718Y-127963413D03*
X197091004Y-129650002D03*
X192586248Y-124504007D03*
X192564691Y-127343730D03*
D11*
X197134119Y-123970553D03*
D12*
X192607806Y-121664281D03*
X201660432Y-126276825D03*
D13*
X201143648Y-126013510D03*
X193124590Y-121927596D03*
G36*
G01*
X168328754Y-118191794D02*
X168795645Y-116247054D01*
G75*
G02*
X169036808Y-116099269I194474J-46689D01*
G01*
X171273259Y-116636193D01*
G75*
G02*
X171421044Y-116877356I-46689J-194474D01*
G01*
X170954153Y-118822096D01*
G75*
G02*
X170712990Y-118969881I-194474J46689D01*
G01*
X168476539Y-118432957D01*
G75*
G02*
X168328754Y-118191794I46689J194474D01*
G01*
G37*
G36*
G01*
X180084900Y-123626370D02*
X180551791Y-121681630D01*
G75*
G02*
X180792954Y-121533845I194474J-46689D01*
G01*
X183029405Y-122070769D01*
G75*
G02*
X183177190Y-122311932I-46689J-194474D01*
G01*
X182710299Y-124256672D01*
G75*
G02*
X182469136Y-124404457I-194474J46689D01*
G01*
X180232685Y-123867533D01*
G75*
G02*
X180084900Y-123626370I46689J194474D01*
G01*
G37*
D10*
X180395555Y-120019224D03*
X178567694Y-122192568D03*
X172986096Y-118240372D03*
X173628055Y-121006666D03*
D11*
X177283777Y-116659978D03*
D12*
X172344138Y-115474076D03*
X182223416Y-117845880D03*
D13*
X181659442Y-117710482D03*
X172908112Y-115609474D03*
X92740483Y-61915930D03*
X83752817Y-62386954D03*
D12*
X83173612Y-62417309D03*
X93319688Y-61885575D03*
D11*
X88246650Y-62151442D03*
D10*
X90517302Y-56945471D03*
X91918495Y-59415522D03*
X85444264Y-57211337D03*
X84308938Y-59814323D03*
G36*
G01*
X83582316Y-56267491D02*
X83686988Y-58264750D01*
G75*
G02*
X83497729Y-58474943I-199726J-10467D01*
G01*
X81200881Y-58595316D01*
G75*
G02*
X80990688Y-58406057I-10467J199726D01*
G01*
X80886016Y-56408798D01*
G75*
G02*
X81075275Y-56198605I199726J10467D01*
G01*
X83372123Y-56078232D01*
G75*
G02*
X83582316Y-56267491I10467J-199726D01*
G01*
G37*
G36*
G01*
X96397844Y-58139343D02*
X96502516Y-60136602D01*
G75*
G02*
X96313257Y-60346795I-199726J-10467D01*
G01*
X94016409Y-60467168D01*
G75*
G02*
X93806216Y-60277909I-10467J199726D01*
G01*
X93701544Y-58280650D01*
G75*
G02*
X93890803Y-58070457I199726J10467D01*
G01*
X96187651Y-57950084D01*
G75*
G02*
X96397844Y-58139343I10467J-199726D01*
G01*
G37*
D13*
X112761392Y-79942827D03*
X103773726Y-80413851D03*
D12*
X103194521Y-80444206D03*
X113340597Y-79912472D03*
D11*
X108267559Y-80178339D03*
D10*
X110538211Y-74972368D03*
X111939404Y-77442419D03*
X105465173Y-75238234D03*
X104329847Y-77841220D03*
G36*
G01*
X103603225Y-74294388D02*
X103707897Y-76291647D01*
G75*
G02*
X103518638Y-76501840I-199726J-10467D01*
G01*
X101221790Y-76622213D01*
G75*
G02*
X101011597Y-76432954I-10467J199726D01*
G01*
X100906925Y-74435695D01*
G75*
G02*
X101096184Y-74225502I199726J10467D01*
G01*
X103393032Y-74105129D01*
G75*
G02*
X103603225Y-74294388I10467J-199726D01*
G01*
G37*
G36*
G01*
X116418753Y-76166240D02*
X116523425Y-78163499D01*
G75*
G02*
X116334166Y-78373692I-199726J-10467D01*
G01*
X114037318Y-78494065D01*
G75*
G02*
X113827125Y-78304806I-10467J199726D01*
G01*
X113722453Y-76307547D01*
G75*
G02*
X113911712Y-76097354I199726J10467D01*
G01*
X116208560Y-75976981D01*
G75*
G02*
X116418753Y-76166240I10467J-199726D01*
G01*
G37*
G36*
G01*
X222383540Y-137949641D02*
X223105926Y-138566617D01*
G75*
G02*
X223128117Y-138848588I-129890J-152081D01*
G01*
X222283835Y-139837116D01*
G75*
G02*
X222001864Y-139859307I-152081J129890D01*
G01*
X221279478Y-139242331D01*
G75*
G02*
X221257287Y-138960360I129890J152081D01*
G01*
X222101569Y-137971832D01*
G75*
G02*
X222383540Y-137949641I152081J-129890D01*
G01*
G37*
D14*
X221039931Y-140254194D03*
G36*
G01*
X225703399Y-133718448D02*
X226765686Y-134625727D01*
G75*
G02*
X226787877Y-134907698I-129890J-152081D01*
G01*
X225880598Y-135969985D01*
G75*
G02*
X225598627Y-135992176I-152081J129890D01*
G01*
X224536340Y-135084897D01*
G75*
G02*
X224514149Y-134802926I129890J152081D01*
G01*
X225421428Y-133740639D01*
G75*
G02*
X225703399Y-133718448I152081J-129890D01*
G01*
G37*
G36*
G01*
X224689080Y-135250199D02*
X225411466Y-135867175D01*
G75*
G02*
X225433657Y-136149146I-129890J-152081D01*
G01*
X224589375Y-137137674D01*
G75*
G02*
X224307404Y-137159865I-152081J129890D01*
G01*
X223585018Y-136542889D01*
G75*
G02*
X223562827Y-136260918I129890J152081D01*
G01*
X224407109Y-135272390D01*
G75*
G02*
X224689080Y-135250199I152081J-129890D01*
G01*
G37*
G36*
G01*
X205012058Y-130323800D02*
X205808795Y-130841207D01*
G75*
G02*
X205867601Y-131117869I-108928J-167734D01*
G01*
X205159570Y-132208140D01*
G75*
G02*
X204882908Y-132266946I-167734J108928D01*
G01*
X204086171Y-131749539D01*
G75*
G02*
X204027365Y-131472877I108928J167734D01*
G01*
X204735396Y-130382606D01*
G75*
G02*
X205012058Y-130323800I167734J-108928D01*
G01*
G37*
X203980748Y-132784014D03*
G36*
G01*
X207751233Y-125695476D02*
X208922856Y-126456337D01*
G75*
G02*
X208981662Y-126732999I-108928J-167734D01*
G01*
X208220801Y-127904622D01*
G75*
G02*
X207944139Y-127963428I-167734J108928D01*
G01*
X206772516Y-127202567D01*
G75*
G02*
X206713710Y-126925905I108928J167734D01*
G01*
X207474571Y-125754282D01*
G75*
G02*
X207751233Y-125695476I167734J-108928D01*
G01*
G37*
G36*
G01*
X206945526Y-127346520D02*
X207742263Y-127863927D01*
G75*
G02*
X207801069Y-128140589I-108928J-167734D01*
G01*
X207093038Y-129230860D01*
G75*
G02*
X206816376Y-129289666I-167734J108928D01*
G01*
X206019639Y-128772259D01*
G75*
G02*
X205960833Y-128495597I108928J167734D01*
G01*
X206668864Y-127405326D01*
G75*
G02*
X206945526Y-127346520I167734J-108928D01*
G01*
G37*
G36*
G01*
X186289222Y-121446200D02*
X187184731Y-121763316D01*
G75*
G02*
X187306498Y-122018605I-66761J-188528D01*
G01*
X186872549Y-123244039D01*
G75*
G02*
X186617260Y-123365806I-188528J66761D01*
G01*
X185721751Y-123048690D01*
G75*
G02*
X185599984Y-122793401I66761J188528D01*
G01*
X186033933Y-121567967D01*
G75*
G02*
X186289222Y-121446200I188528J-66761D01*
G01*
G37*
X185860734Y-124079191D03*
G36*
G01*
X187872252Y-116306310D02*
X189189122Y-116772638D01*
G75*
G02*
X189310889Y-117027927I-66761J-188528D01*
G01*
X188844561Y-118344797D01*
G75*
G02*
X188589272Y-118466564I-188528J66761D01*
G01*
X187272402Y-118000236D01*
G75*
G02*
X187150635Y-117744947I66761J188528D01*
G01*
X187616963Y-116428077D01*
G75*
G02*
X187872252Y-116306310I188528J-66761D01*
G01*
G37*
G36*
G01*
X187474236Y-118099822D02*
X188369745Y-118416938D01*
G75*
G02*
X188491512Y-118672227I-66761J-188528D01*
G01*
X188057563Y-119897661D01*
G75*
G02*
X187802274Y-120019428I-188528J66761D01*
G01*
X186906765Y-119702312D01*
G75*
G02*
X186784998Y-119447023I66761J188528D01*
G01*
X187218947Y-118221589D01*
G75*
G02*
X187474236Y-118099822I188528J-66761D01*
G01*
G37*
G36*
G01*
X166153432Y-116628577D02*
X167098227Y-116727879D01*
G75*
G02*
X167276225Y-116947689I-20906J-198904D01*
G01*
X167140338Y-118240567D01*
G75*
G02*
X166920528Y-118418565I-198904J20906D01*
G01*
X165975733Y-118319263D01*
G75*
G02*
X165797735Y-118099453I20906J198904D01*
G01*
X165933622Y-116806575D01*
G75*
G02*
X166153432Y-116628577I198904J-20906D01*
G01*
G37*
X166351442Y-119288848D03*
G36*
G01*
X166492840Y-111261151D02*
X167882187Y-111407178D01*
G75*
G02*
X168060185Y-111626988I-20906J-198904D01*
G01*
X167914158Y-113016335D01*
G75*
G02*
X167694348Y-113194333I-198904J20906D01*
G01*
X166305001Y-113048306D01*
G75*
G02*
X166127003Y-112828496I20906J198904D01*
G01*
X166273030Y-111439149D01*
G75*
G02*
X166492840Y-111261151I198904J-20906D01*
G01*
G37*
G36*
G01*
X166524508Y-113098025D02*
X167469303Y-113197327D01*
G75*
G02*
X167647301Y-113417137I-20906J-198904D01*
G01*
X167511414Y-114710015D01*
G75*
G02*
X167291604Y-114888013I-198904J20906D01*
G01*
X166346809Y-114788711D01*
G75*
G02*
X166168811Y-114568901I20906J198904D01*
G01*
X166304698Y-113276023D01*
G75*
G02*
X166524508Y-113098025I198904J-20906D01*
G01*
G37*
G36*
G01*
X199224488Y-96837519D02*
X198337586Y-96497070D01*
G75*
G02*
X198222544Y-96238680I71674J186716D01*
G01*
X198688422Y-95025025D01*
G75*
G02*
X198946812Y-94909983I186716J-71674D01*
G01*
X199833714Y-95250432D01*
G75*
G02*
X199948756Y-95508822I-71674J-186716D01*
G01*
X199482878Y-96722477D01*
G75*
G02*
X199224488Y-96837519I-186716J71674D01*
G01*
G37*
X199721753Y-94216645D03*
G36*
G01*
X197507453Y-101934209D02*
X196203241Y-101433569D01*
G75*
G02*
X196088199Y-101175179I71674J186716D01*
G01*
X196588839Y-99870967D01*
G75*
G02*
X196847229Y-99755925I186716J-71674D01*
G01*
X198151441Y-100256565D01*
G75*
G02*
X198266483Y-100514955I-71674J-186716D01*
G01*
X197765843Y-101819167D01*
G75*
G02*
X197507453Y-101934209I-186716J71674D01*
G01*
G37*
G36*
G01*
X197952282Y-100151729D02*
X197065380Y-99811280D01*
G75*
G02*
X196950338Y-99552890I71674J186716D01*
G01*
X197416216Y-98339235D01*
G75*
G02*
X197674606Y-98224193I186716J-71674D01*
G01*
X198561508Y-98564642D01*
G75*
G02*
X198676550Y-98823032I-71674J-186716D01*
G01*
X198210672Y-100036687D01*
G75*
G02*
X197952282Y-100151729I-186716J71674D01*
G01*
G37*
G36*
G01*
X178186059Y-99861295D02*
X177236059Y-99861295D01*
G75*
G02*
X177036059Y-99661295I0J200000D01*
G01*
X177036059Y-98361295D01*
G75*
G02*
X177236059Y-98161295I200000J0D01*
G01*
X178186059Y-98161295D01*
G75*
G02*
X178386059Y-98361295I0J-200000D01*
G01*
X178386059Y-99661295D01*
G75*
G02*
X178186059Y-99861295I-200000J0D01*
G01*
G37*
X177711059Y-97236295D03*
G36*
G01*
X178409559Y-105234795D02*
X177012559Y-105234795D01*
G75*
G02*
X176812559Y-105034795I0J200000D01*
G01*
X176812559Y-103637795D01*
G75*
G02*
X177012559Y-103437795I200000J0D01*
G01*
X178409559Y-103437795D01*
G75*
G02*
X178609559Y-103637795I0J-200000D01*
G01*
X178609559Y-105034795D01*
G75*
G02*
X178409559Y-105234795I-200000J0D01*
G01*
G37*
G36*
G01*
X178186059Y-103411295D02*
X177236059Y-103411295D01*
G75*
G02*
X177036059Y-103211295I0J200000D01*
G01*
X177036059Y-101911295D01*
G75*
G02*
X177236059Y-101711295I200000J0D01*
G01*
X178186059Y-101711295D01*
G75*
G02*
X178386059Y-101911295I0J-200000D01*
G01*
X178386059Y-103211295D01*
G75*
G02*
X178186059Y-103411295I-200000J0D01*
G01*
G37*
G36*
G01*
X159136057Y-97811253D02*
X158186057Y-97811253D01*
G75*
G02*
X157986057Y-97611253I0J200000D01*
G01*
X157986057Y-96311253D01*
G75*
G02*
X158186057Y-96111253I200000J0D01*
G01*
X159136057Y-96111253D01*
G75*
G02*
X159336057Y-96311253I0J-200000D01*
G01*
X159336057Y-97611253D01*
G75*
G02*
X159136057Y-97811253I-200000J0D01*
G01*
G37*
X158661057Y-95186253D03*
G36*
G01*
X159359557Y-103184753D02*
X157962557Y-103184753D01*
G75*
G02*
X157762557Y-102984753I0J200000D01*
G01*
X157762557Y-101587753D01*
G75*
G02*
X157962557Y-101387753I200000J0D01*
G01*
X159359557Y-101387753D01*
G75*
G02*
X159559557Y-101587753I0J-200000D01*
G01*
X159559557Y-102984753D01*
G75*
G02*
X159359557Y-103184753I-200000J0D01*
G01*
G37*
G36*
G01*
X159136057Y-101361253D02*
X158186057Y-101361253D01*
G75*
G02*
X157986057Y-101161253I0J200000D01*
G01*
X157986057Y-99861253D01*
G75*
G02*
X158186057Y-99661253I200000J0D01*
G01*
X159136057Y-99661253D01*
G75*
G02*
X159336057Y-99861253I0J-200000D01*
G01*
X159336057Y-101161253D01*
G75*
G02*
X159136057Y-101361253I-200000J0D01*
G01*
G37*
G36*
G01*
X140086030Y-95361290D02*
X139136030Y-95361290D01*
G75*
G02*
X138936030Y-95161290I0J200000D01*
G01*
X138936030Y-93861290D01*
G75*
G02*
X139136030Y-93661290I200000J0D01*
G01*
X140086030Y-93661290D01*
G75*
G02*
X140286030Y-93861290I0J-200000D01*
G01*
X140286030Y-95161290D01*
G75*
G02*
X140086030Y-95361290I-200000J0D01*
G01*
G37*
X139611030Y-92736290D03*
G36*
G01*
X140309530Y-100734790D02*
X138912530Y-100734790D01*
G75*
G02*
X138712530Y-100534790I0J200000D01*
G01*
X138712530Y-99137790D01*
G75*
G02*
X138912530Y-98937790I200000J0D01*
G01*
X140309530Y-98937790D01*
G75*
G02*
X140509530Y-99137790I0J-200000D01*
G01*
X140509530Y-100534790D01*
G75*
G02*
X140309530Y-100734790I-200000J0D01*
G01*
G37*
G36*
G01*
X140086030Y-98911290D02*
X139136030Y-98911290D01*
G75*
G02*
X138936030Y-98711290I0J200000D01*
G01*
X138936030Y-97411290D01*
G75*
G02*
X139136030Y-97211290I200000J0D01*
G01*
X140086030Y-97211290D01*
G75*
G02*
X140286030Y-97411290I0J-200000D01*
G01*
X140286030Y-98711290D01*
G75*
G02*
X140086030Y-98911290I-200000J0D01*
G01*
G37*
G36*
G01*
X121036055Y-97911258D02*
X120086055Y-97911258D01*
G75*
G02*
X119886055Y-97711258I0J200000D01*
G01*
X119886055Y-96411258D01*
G75*
G02*
X120086055Y-96211258I200000J0D01*
G01*
X121036055Y-96211258D01*
G75*
G02*
X121236055Y-96411258I0J-200000D01*
G01*
X121236055Y-97711258D01*
G75*
G02*
X121036055Y-97911258I-200000J0D01*
G01*
G37*
X120561055Y-95286258D03*
G36*
G01*
X121259555Y-103284758D02*
X119862555Y-103284758D01*
G75*
G02*
X119662555Y-103084758I0J200000D01*
G01*
X119662555Y-101687758D01*
G75*
G02*
X119862555Y-101487758I200000J0D01*
G01*
X121259555Y-101487758D01*
G75*
G02*
X121459555Y-101687758I0J-200000D01*
G01*
X121459555Y-103084758D01*
G75*
G02*
X121259555Y-103284758I-200000J0D01*
G01*
G37*
G36*
G01*
X121036055Y-101461258D02*
X120086055Y-101461258D01*
G75*
G02*
X119886055Y-101261258I0J200000D01*
G01*
X119886055Y-99961258D01*
G75*
G02*
X120086055Y-99761258I200000J0D01*
G01*
X121036055Y-99761258D01*
G75*
G02*
X121236055Y-99961258I0J-200000D01*
G01*
X121236055Y-101261258D01*
G75*
G02*
X121036055Y-101461258I-200000J0D01*
G01*
G37*
G36*
G01*
X100519975Y-105743864D02*
X99571277Y-105793583D01*
G75*
G02*
X99361084Y-105604324I-10467J199726D01*
G01*
X99293048Y-104306105D01*
G75*
G02*
X99482307Y-104095912I199726J10467D01*
G01*
X100431005Y-104046193D01*
G75*
G02*
X100641198Y-104235452I10467J-199726D01*
G01*
X100709234Y-105533671D01*
G75*
G02*
X100519975Y-105743864I-199726J-10467D01*
G01*
G37*
G36*
G01*
X100838604Y-107553168D02*
X99443519Y-107626281D01*
G75*
G02*
X99233326Y-107437022I-10467J199726D01*
G01*
X99160213Y-106041937D01*
G75*
G02*
X99349472Y-105831744I199726J10467D01*
G01*
X100744557Y-105758631D01*
G75*
G02*
X100954750Y-105947890I10467J-199726D01*
G01*
X101027863Y-107342975D01*
G75*
G02*
X100838604Y-107553168I-199726J-10467D01*
G01*
G37*
X99722452Y-99602186D03*
G36*
G01*
X100334183Y-102198730D02*
X99385485Y-102248449D01*
G75*
G02*
X99175292Y-102059190I-10467J199726D01*
G01*
X99107256Y-100760971D01*
G75*
G02*
X99296515Y-100550778I199726J10467D01*
G01*
X100245213Y-100501059D01*
G75*
G02*
X100455406Y-100690318I10467J-199726D01*
G01*
X100523442Y-101988537D01*
G75*
G02*
X100334183Y-102198730I-199726J-10467D01*
G01*
G37*
G36*
G01*
X83004450Y-106862080D02*
X82055752Y-106911799D01*
G75*
G02*
X81845559Y-106722540I-10467J199726D01*
G01*
X81777523Y-105424321D01*
G75*
G02*
X81966782Y-105214128I199726J10467D01*
G01*
X82915480Y-105164409D01*
G75*
G02*
X83125673Y-105353668I10467J-199726D01*
G01*
X83193709Y-106651887D01*
G75*
G02*
X83004450Y-106862080I-199726J-10467D01*
G01*
G37*
G36*
G01*
X83323079Y-108671384D02*
X81927994Y-108744497D01*
G75*
G02*
X81717801Y-108555238I-10467J199726D01*
G01*
X81644688Y-107160153D01*
G75*
G02*
X81833947Y-106949960I199726J10467D01*
G01*
X83229032Y-106876847D01*
G75*
G02*
X83439225Y-107066106I10467J-199726D01*
G01*
X83512338Y-108461191D01*
G75*
G02*
X83323079Y-108671384I-199726J-10467D01*
G01*
G37*
X82206927Y-100720402D03*
G36*
G01*
X82818658Y-103316946D02*
X81869960Y-103366665D01*
G75*
G02*
X81659767Y-103177406I-10467J199726D01*
G01*
X81591731Y-101879187D01*
G75*
G02*
X81780990Y-101668994I199726J10467D01*
G01*
X82729688Y-101619275D01*
G75*
G02*
X82939881Y-101808534I10467J-199726D01*
G01*
X83007917Y-103106753D01*
G75*
G02*
X82818658Y-103316946I-199726J-10467D01*
G01*
G37*
G36*
G01*
X178186059Y-80786286D02*
X177236059Y-80786286D01*
G75*
G02*
X177036059Y-80586286I0J200000D01*
G01*
X177036059Y-79286286D01*
G75*
G02*
X177236059Y-79086286I200000J0D01*
G01*
X178186059Y-79086286D01*
G75*
G02*
X178386059Y-79286286I0J-200000D01*
G01*
X178386059Y-80586286D01*
G75*
G02*
X178186059Y-80786286I-200000J0D01*
G01*
G37*
X177711059Y-78161286D03*
G36*
G01*
X178409559Y-86159786D02*
X177012559Y-86159786D01*
G75*
G02*
X176812559Y-85959786I0J200000D01*
G01*
X176812559Y-84562786D01*
G75*
G02*
X177012559Y-84362786I200000J0D01*
G01*
X178409559Y-84362786D01*
G75*
G02*
X178609559Y-84562786I0J-200000D01*
G01*
X178609559Y-85959786D01*
G75*
G02*
X178409559Y-86159786I-200000J0D01*
G01*
G37*
G36*
G01*
X178186059Y-84336286D02*
X177236059Y-84336286D01*
G75*
G02*
X177036059Y-84136286I0J200000D01*
G01*
X177036059Y-82836286D01*
G75*
G02*
X177236059Y-82636286I200000J0D01*
G01*
X178186059Y-82636286D01*
G75*
G02*
X178386059Y-82836286I0J-200000D01*
G01*
X178386059Y-84136286D01*
G75*
G02*
X178186059Y-84336286I-200000J0D01*
G01*
G37*
G36*
G01*
X159136040Y-78261262D02*
X158186040Y-78261262D01*
G75*
G02*
X157986040Y-78061262I0J200000D01*
G01*
X157986040Y-76761262D01*
G75*
G02*
X158186040Y-76561262I200000J0D01*
G01*
X159136040Y-76561262D01*
G75*
G02*
X159336040Y-76761262I0J-200000D01*
G01*
X159336040Y-78061262D01*
G75*
G02*
X159136040Y-78261262I-200000J0D01*
G01*
G37*
X158661040Y-75636262D03*
G36*
G01*
X159359540Y-83634762D02*
X157962540Y-83634762D01*
G75*
G02*
X157762540Y-83434762I0J200000D01*
G01*
X157762540Y-82037762D01*
G75*
G02*
X157962540Y-81837762I200000J0D01*
G01*
X159359540Y-81837762D01*
G75*
G02*
X159559540Y-82037762I0J-200000D01*
G01*
X159559540Y-83434762D01*
G75*
G02*
X159359540Y-83634762I-200000J0D01*
G01*
G37*
G36*
G01*
X159136040Y-81811262D02*
X158186040Y-81811262D01*
G75*
G02*
X157986040Y-81611262I0J200000D01*
G01*
X157986040Y-80311262D01*
G75*
G02*
X158186040Y-80111262I200000J0D01*
G01*
X159136040Y-80111262D01*
G75*
G02*
X159336040Y-80311262I0J-200000D01*
G01*
X159336040Y-81611262D01*
G75*
G02*
X159136040Y-81811262I-200000J0D01*
G01*
G37*
G36*
G01*
X140086048Y-76311270D02*
X139136048Y-76311270D01*
G75*
G02*
X138936048Y-76111270I0J200000D01*
G01*
X138936048Y-74811270D01*
G75*
G02*
X139136048Y-74611270I200000J0D01*
G01*
X140086048Y-74611270D01*
G75*
G02*
X140286048Y-74811270I0J-200000D01*
G01*
X140286048Y-76111270D01*
G75*
G02*
X140086048Y-76311270I-200000J0D01*
G01*
G37*
X139611048Y-73686270D03*
G36*
G01*
X140309548Y-81684770D02*
X138912548Y-81684770D01*
G75*
G02*
X138712548Y-81484770I0J200000D01*
G01*
X138712548Y-80087770D01*
G75*
G02*
X138912548Y-79887770I200000J0D01*
G01*
X140309548Y-79887770D01*
G75*
G02*
X140509548Y-80087770I0J-200000D01*
G01*
X140509548Y-81484770D01*
G75*
G02*
X140309548Y-81684770I-200000J0D01*
G01*
G37*
G36*
G01*
X140086048Y-79861270D02*
X139136048Y-79861270D01*
G75*
G02*
X138936048Y-79661270I0J200000D01*
G01*
X138936048Y-78361270D01*
G75*
G02*
X139136048Y-78161270I200000J0D01*
G01*
X140086048Y-78161270D01*
G75*
G02*
X140286048Y-78361270I0J-200000D01*
G01*
X140286048Y-79661270D01*
G75*
G02*
X140086048Y-79861270I-200000J0D01*
G01*
G37*
G36*
G01*
X121036047Y-78811282D02*
X120086047Y-78811282D01*
G75*
G02*
X119886047Y-78611282I0J200000D01*
G01*
X119886047Y-77311282D01*
G75*
G02*
X120086047Y-77111282I200000J0D01*
G01*
X121036047Y-77111282D01*
G75*
G02*
X121236047Y-77311282I0J-200000D01*
G01*
X121236047Y-78611282D01*
G75*
G02*
X121036047Y-78811282I-200000J0D01*
G01*
G37*
X120561047Y-76186282D03*
G36*
G01*
X121259547Y-84184782D02*
X119862547Y-84184782D01*
G75*
G02*
X119662547Y-83984782I0J200000D01*
G01*
X119662547Y-82587782D01*
G75*
G02*
X119862547Y-82387782I200000J0D01*
G01*
X121259547Y-82387782D01*
G75*
G02*
X121459547Y-82587782I0J-200000D01*
G01*
X121459547Y-83984782D01*
G75*
G02*
X121259547Y-84184782I-200000J0D01*
G01*
G37*
G36*
G01*
X121036047Y-82361282D02*
X120086047Y-82361282D01*
G75*
G02*
X119886047Y-82161282I0J200000D01*
G01*
X119886047Y-80861282D01*
G75*
G02*
X120086047Y-80661282I200000J0D01*
G01*
X121036047Y-80661282D01*
G75*
G02*
X121236047Y-80861282I0J-200000D01*
G01*
X121236047Y-82161282D01*
G75*
G02*
X121036047Y-82361282I-200000J0D01*
G01*
G37*
G36*
G01*
X99520535Y-85718720D02*
X98571837Y-85768439D01*
G75*
G02*
X98361644Y-85579180I-10467J199726D01*
G01*
X98293608Y-84280961D01*
G75*
G02*
X98482867Y-84070768I199726J10467D01*
G01*
X99431565Y-84021049D01*
G75*
G02*
X99641758Y-84210308I10467J-199726D01*
G01*
X99709794Y-85508527D01*
G75*
G02*
X99520535Y-85718720I-199726J-10467D01*
G01*
G37*
G36*
G01*
X99839164Y-87528024D02*
X98444079Y-87601137D01*
G75*
G02*
X98233886Y-87411878I-10467J199726D01*
G01*
X98160773Y-86016793D01*
G75*
G02*
X98350032Y-85806600I199726J10467D01*
G01*
X99745117Y-85733487D01*
G75*
G02*
X99955310Y-85922746I10467J-199726D01*
G01*
X100028423Y-87317831D01*
G75*
G02*
X99839164Y-87528024I-199726J-10467D01*
G01*
G37*
X98723012Y-79577042D03*
G36*
G01*
X99334743Y-82173586D02*
X98386045Y-82223305D01*
G75*
G02*
X98175852Y-82034046I-10467J199726D01*
G01*
X98107816Y-80735827D01*
G75*
G02*
X98297075Y-80525634I199726J10467D01*
G01*
X99245773Y-80475915D01*
G75*
G02*
X99455966Y-80665174I10467J-199726D01*
G01*
X99524002Y-81963393D01*
G75*
G02*
X99334743Y-82173586I-199726J-10467D01*
G01*
G37*
G36*
G01*
X88249640Y-72240099D02*
X88299359Y-73188797D01*
G75*
G02*
X88110100Y-73398990I-199726J-10467D01*
G01*
X86811881Y-73467026D01*
G75*
G02*
X86601688Y-73277767I-10467J199726D01*
G01*
X86551969Y-72329069D01*
G75*
G02*
X86741228Y-72118876I199726J10467D01*
G01*
X88039447Y-72050840D01*
G75*
G02*
X88249640Y-72240099I10467J-199726D01*
G01*
G37*
G36*
G01*
X90058944Y-71921470D02*
X90132057Y-73316555D01*
G75*
G02*
X89942798Y-73526748I-199726J-10467D01*
G01*
X88547713Y-73599861D01*
G75*
G02*
X88337520Y-73410602I-10467J199726D01*
G01*
X88264407Y-72015517D01*
G75*
G02*
X88453666Y-71805324I199726J10467D01*
G01*
X89848751Y-71732211D01*
G75*
G02*
X90058944Y-71921470I10467J-199726D01*
G01*
G37*
X82107962Y-73037622D03*
G36*
G01*
X84704506Y-72425891D02*
X84754225Y-73374589D01*
G75*
G02*
X84564966Y-73584782I-199726J-10467D01*
G01*
X83266747Y-73652818D01*
G75*
G02*
X83056554Y-73463559I-10467J199726D01*
G01*
X83006835Y-72514861D01*
G75*
G02*
X83196094Y-72304668I199726J10467D01*
G01*
X84494313Y-72236632D01*
G75*
G02*
X84704506Y-72425891I10467J-199726D01*
G01*
G37*
G36*
G01*
X176186066Y-60461268D02*
X175236066Y-60461268D01*
G75*
G02*
X175036066Y-60261268I0J200000D01*
G01*
X175036066Y-58961268D01*
G75*
G02*
X175236066Y-58761268I200000J0D01*
G01*
X176186066Y-58761268D01*
G75*
G02*
X176386066Y-58961268I0J-200000D01*
G01*
X176386066Y-60261268D01*
G75*
G02*
X176186066Y-60461268I-200000J0D01*
G01*
G37*
X175711066Y-57836268D03*
G36*
G01*
X176409566Y-65834768D02*
X175012566Y-65834768D01*
G75*
G02*
X174812566Y-65634768I0J200000D01*
G01*
X174812566Y-64237768D01*
G75*
G02*
X175012566Y-64037768I200000J0D01*
G01*
X176409566Y-64037768D01*
G75*
G02*
X176609566Y-64237768I0J-200000D01*
G01*
X176609566Y-65634768D01*
G75*
G02*
X176409566Y-65834768I-200000J0D01*
G01*
G37*
G36*
G01*
X176186066Y-64011268D02*
X175236066Y-64011268D01*
G75*
G02*
X175036066Y-63811268I0J200000D01*
G01*
X175036066Y-62511268D01*
G75*
G02*
X175236066Y-62311268I200000J0D01*
G01*
X176186066Y-62311268D01*
G75*
G02*
X176386066Y-62511268I0J-200000D01*
G01*
X176386066Y-63811268D01*
G75*
G02*
X176186066Y-64011268I-200000J0D01*
G01*
G37*
G36*
G01*
X159136041Y-59211284D02*
X158186041Y-59211284D01*
G75*
G02*
X157986041Y-59011284I0J200000D01*
G01*
X157986041Y-57711284D01*
G75*
G02*
X158186041Y-57511284I200000J0D01*
G01*
X159136041Y-57511284D01*
G75*
G02*
X159336041Y-57711284I0J-200000D01*
G01*
X159336041Y-59011284D01*
G75*
G02*
X159136041Y-59211284I-200000J0D01*
G01*
G37*
X158661041Y-56586284D03*
G36*
G01*
X159359541Y-64584784D02*
X157962541Y-64584784D01*
G75*
G02*
X157762541Y-64384784I0J200000D01*
G01*
X157762541Y-62987784D01*
G75*
G02*
X157962541Y-62787784I200000J0D01*
G01*
X159359541Y-62787784D01*
G75*
G02*
X159559541Y-62987784I0J-200000D01*
G01*
X159559541Y-64384784D01*
G75*
G02*
X159359541Y-64584784I-200000J0D01*
G01*
G37*
G36*
G01*
X159136041Y-62761284D02*
X158186041Y-62761284D01*
G75*
G02*
X157986041Y-62561284I0J200000D01*
G01*
X157986041Y-61261284D01*
G75*
G02*
X158186041Y-61061284I200000J0D01*
G01*
X159136041Y-61061284D01*
G75*
G02*
X159336041Y-61261284I0J-200000D01*
G01*
X159336041Y-62561284D01*
G75*
G02*
X159136041Y-62761284I-200000J0D01*
G01*
G37*
G36*
G01*
X129536043Y-66261277D02*
X129536043Y-65311277D01*
G75*
G02*
X129736043Y-65111277I200000J0D01*
G01*
X131036043Y-65111277D01*
G75*
G02*
X131236043Y-65311277I0J-200000D01*
G01*
X131236043Y-66261277D01*
G75*
G02*
X131036043Y-66461277I-200000J0D01*
G01*
X129736043Y-66461277D01*
G75*
G02*
X129536043Y-66261277I0J200000D01*
G01*
G37*
X132161043Y-65786277D03*
G36*
G01*
X124162543Y-66484777D02*
X124162543Y-65087777D01*
G75*
G02*
X124362543Y-64887777I200000J0D01*
G01*
X125759543Y-64887777D01*
G75*
G02*
X125959543Y-65087777I0J-200000D01*
G01*
X125959543Y-66484777D01*
G75*
G02*
X125759543Y-66684777I-200000J0D01*
G01*
X124362543Y-66684777D01*
G75*
G02*
X124162543Y-66484777I0J200000D01*
G01*
G37*
G36*
G01*
X125986043Y-66261277D02*
X125986043Y-65311277D01*
G75*
G02*
X126186043Y-65111277I200000J0D01*
G01*
X127486043Y-65111277D01*
G75*
G02*
X127686043Y-65311277I0J-200000D01*
G01*
X127686043Y-66261277D01*
G75*
G02*
X127486043Y-66461277I-200000J0D01*
G01*
X126186043Y-66461277D01*
G75*
G02*
X125986043Y-66261277I0J200000D01*
G01*
G37*
G36*
G01*
X121036054Y-59711303D02*
X120086054Y-59711303D01*
G75*
G02*
X119886054Y-59511303I0J200000D01*
G01*
X119886054Y-58211303D01*
G75*
G02*
X120086054Y-58011303I200000J0D01*
G01*
X121036054Y-58011303D01*
G75*
G02*
X121236054Y-58211303I0J-200000D01*
G01*
X121236054Y-59511303D01*
G75*
G02*
X121036054Y-59711303I-200000J0D01*
G01*
G37*
X120561054Y-57086303D03*
G36*
G01*
X121259554Y-65084803D02*
X119862554Y-65084803D01*
G75*
G02*
X119662554Y-64884803I0J200000D01*
G01*
X119662554Y-63487803D01*
G75*
G02*
X119862554Y-63287803I200000J0D01*
G01*
X121259554Y-63287803D01*
G75*
G02*
X121459554Y-63487803I0J-200000D01*
G01*
X121459554Y-64884803D01*
G75*
G02*
X121259554Y-65084803I-200000J0D01*
G01*
G37*
G36*
G01*
X121036054Y-63261303D02*
X120086054Y-63261303D01*
G75*
G02*
X119886054Y-63061303I0J200000D01*
G01*
X119886054Y-61761303D01*
G75*
G02*
X120086054Y-61561303I200000J0D01*
G01*
X121036054Y-61561303D01*
G75*
G02*
X121236054Y-61761303I0J-200000D01*
G01*
X121236054Y-63061303D01*
G75*
G02*
X121036054Y-63261303I-200000J0D01*
G01*
G37*
G36*
G01*
X98523553Y-66694835D02*
X97574855Y-66744554D01*
G75*
G02*
X97364662Y-66555295I-10467J199726D01*
G01*
X97296626Y-65257076D01*
G75*
G02*
X97485885Y-65046883I199726J10467D01*
G01*
X98434583Y-64997164D01*
G75*
G02*
X98644776Y-65186423I10467J-199726D01*
G01*
X98712812Y-66484642D01*
G75*
G02*
X98523553Y-66694835I-199726J-10467D01*
G01*
G37*
G36*
G01*
X98842182Y-68504139D02*
X97447097Y-68577252D01*
G75*
G02*
X97236904Y-68387993I-10467J199726D01*
G01*
X97163791Y-66992908D01*
G75*
G02*
X97353050Y-66782715I199726J10467D01*
G01*
X98748135Y-66709602D01*
G75*
G02*
X98958328Y-66898861I10467J-199726D01*
G01*
X99031441Y-68293946D01*
G75*
G02*
X98842182Y-68504139I-199726J-10467D01*
G01*
G37*
X97726030Y-60553157D03*
G36*
G01*
X98337761Y-63149701D02*
X97389063Y-63199420D01*
G75*
G02*
X97178870Y-63010161I-10467J199726D01*
G01*
X97110834Y-61711942D01*
G75*
G02*
X97300093Y-61501749I199726J10467D01*
G01*
X98248791Y-61452030D01*
G75*
G02*
X98458984Y-61641289I10467J-199726D01*
G01*
X98527020Y-62939508D01*
G75*
G02*
X98337761Y-63149701I-199726J-10467D01*
G01*
G37*
G36*
G01*
X81010463Y-68814281D02*
X80061765Y-68864000D01*
G75*
G02*
X79851572Y-68674741I-10467J199726D01*
G01*
X79783536Y-67376522D01*
G75*
G02*
X79972795Y-67166329I199726J10467D01*
G01*
X80921493Y-67116610D01*
G75*
G02*
X81131686Y-67305869I10467J-199726D01*
G01*
X81199722Y-68604088D01*
G75*
G02*
X81010463Y-68814281I-199726J-10467D01*
G01*
G37*
G36*
G01*
X81329092Y-70623585D02*
X79934007Y-70696698D01*
G75*
G02*
X79723814Y-70507439I-10467J199726D01*
G01*
X79650701Y-69112354D01*
G75*
G02*
X79839960Y-68902161I199726J10467D01*
G01*
X81235045Y-68829048D01*
G75*
G02*
X81445238Y-69018307I10467J-199726D01*
G01*
X81518351Y-70413392D01*
G75*
G02*
X81329092Y-70623585I-199726J-10467D01*
G01*
G37*
X80212940Y-62672603D03*
G36*
G01*
X80824671Y-65269147D02*
X79875973Y-65318866D01*
G75*
G02*
X79665780Y-65129607I-10467J199726D01*
G01*
X79597744Y-63831388D01*
G75*
G02*
X79787003Y-63621195I199726J10467D01*
G01*
X80735701Y-63571476D01*
G75*
G02*
X80945894Y-63760735I10467J-199726D01*
G01*
X81013930Y-65058954D01*
G75*
G02*
X80824671Y-65269147I-199726J-10467D01*
G01*
G37*
G36*
G01*
X176066057Y-40321260D02*
X175116057Y-40321260D01*
G75*
G02*
X174916057Y-40121260I0J200000D01*
G01*
X174916057Y-38821260D01*
G75*
G02*
X175116057Y-38621260I200000J0D01*
G01*
X176066057Y-38621260D01*
G75*
G02*
X176266057Y-38821260I0J-200000D01*
G01*
X176266057Y-40121260D01*
G75*
G02*
X176066057Y-40321260I-200000J0D01*
G01*
G37*
X175591057Y-37696260D03*
G36*
G01*
X176289557Y-45694760D02*
X174892557Y-45694760D01*
G75*
G02*
X174692557Y-45494760I0J200000D01*
G01*
X174692557Y-44097760D01*
G75*
G02*
X174892557Y-43897760I200000J0D01*
G01*
X176289557Y-43897760D01*
G75*
G02*
X176489557Y-44097760I0J-200000D01*
G01*
X176489557Y-45494760D01*
G75*
G02*
X176289557Y-45694760I-200000J0D01*
G01*
G37*
G36*
G01*
X176066057Y-43871260D02*
X175116057Y-43871260D01*
G75*
G02*
X174916057Y-43671260I0J200000D01*
G01*
X174916057Y-42371260D01*
G75*
G02*
X175116057Y-42171260I200000J0D01*
G01*
X176066057Y-42171260D01*
G75*
G02*
X176266057Y-42371260I0J-200000D01*
G01*
X176266057Y-43671260D01*
G75*
G02*
X176066057Y-43871260I-200000J0D01*
G01*
G37*
G36*
G01*
X159256066Y-40161283D02*
X158306066Y-40161283D01*
G75*
G02*
X158106066Y-39961283I0J200000D01*
G01*
X158106066Y-38661283D01*
G75*
G02*
X158306066Y-38461283I200000J0D01*
G01*
X159256066Y-38461283D01*
G75*
G02*
X159456066Y-38661283I0J-200000D01*
G01*
X159456066Y-39961283D01*
G75*
G02*
X159256066Y-40161283I-200000J0D01*
G01*
G37*
X158781066Y-37536283D03*
G36*
G01*
X159479566Y-45534783D02*
X158082566Y-45534783D01*
G75*
G02*
X157882566Y-45334783I0J200000D01*
G01*
X157882566Y-43937783D01*
G75*
G02*
X158082566Y-43737783I200000J0D01*
G01*
X159479566Y-43737783D01*
G75*
G02*
X159679566Y-43937783I0J-200000D01*
G01*
X159679566Y-45334783D01*
G75*
G02*
X159479566Y-45534783I-200000J0D01*
G01*
G37*
G36*
G01*
X159256066Y-43711283D02*
X158306066Y-43711283D01*
G75*
G02*
X158106066Y-43511283I0J200000D01*
G01*
X158106066Y-42211283D01*
G75*
G02*
X158306066Y-42011283I200000J0D01*
G01*
X159256066Y-42011283D01*
G75*
G02*
X159456066Y-42211283I0J-200000D01*
G01*
X159456066Y-43511283D01*
G75*
G02*
X159256066Y-43711283I-200000J0D01*
G01*
G37*
G36*
G01*
X140086020Y-38161284D02*
X139136020Y-38161284D01*
G75*
G02*
X138936020Y-37961284I0J200000D01*
G01*
X138936020Y-36661284D01*
G75*
G02*
X139136020Y-36461284I200000J0D01*
G01*
X140086020Y-36461284D01*
G75*
G02*
X140286020Y-36661284I0J-200000D01*
G01*
X140286020Y-37961284D01*
G75*
G02*
X140086020Y-38161284I-200000J0D01*
G01*
G37*
X139611020Y-35536284D03*
G36*
G01*
X140309520Y-43534784D02*
X138912520Y-43534784D01*
G75*
G02*
X138712520Y-43334784I0J200000D01*
G01*
X138712520Y-41937784D01*
G75*
G02*
X138912520Y-41737784I200000J0D01*
G01*
X140309520Y-41737784D01*
G75*
G02*
X140509520Y-41937784I0J-200000D01*
G01*
X140509520Y-43334784D01*
G75*
G02*
X140309520Y-43534784I-200000J0D01*
G01*
G37*
G36*
G01*
X140086020Y-41711284D02*
X139136020Y-41711284D01*
G75*
G02*
X138936020Y-41511284I0J200000D01*
G01*
X138936020Y-40211284D01*
G75*
G02*
X139136020Y-40011284I200000J0D01*
G01*
X140086020Y-40011284D01*
G75*
G02*
X140286020Y-40211284I0J-200000D01*
G01*
X140286020Y-41511284D01*
G75*
G02*
X140086020Y-41711284I-200000J0D01*
G01*
G37*
G36*
G01*
X121036040Y-40661264D02*
X120086040Y-40661264D01*
G75*
G02*
X119886040Y-40461264I0J200000D01*
G01*
X119886040Y-39161264D01*
G75*
G02*
X120086040Y-38961264I200000J0D01*
G01*
X121036040Y-38961264D01*
G75*
G02*
X121236040Y-39161264I0J-200000D01*
G01*
X121236040Y-40461264D01*
G75*
G02*
X121036040Y-40661264I-200000J0D01*
G01*
G37*
X120561040Y-38036264D03*
G36*
G01*
X121259540Y-46034764D02*
X119862540Y-46034764D01*
G75*
G02*
X119662540Y-45834764I0J200000D01*
G01*
X119662540Y-44437764D01*
G75*
G02*
X119862540Y-44237764I200000J0D01*
G01*
X121259540Y-44237764D01*
G75*
G02*
X121459540Y-44437764I0J-200000D01*
G01*
X121459540Y-45834764D01*
G75*
G02*
X121259540Y-46034764I-200000J0D01*
G01*
G37*
G36*
G01*
X121036040Y-44211264D02*
X120086040Y-44211264D01*
G75*
G02*
X119886040Y-44011264I0J200000D01*
G01*
X119886040Y-42711264D01*
G75*
G02*
X120086040Y-42511264I200000J0D01*
G01*
X121036040Y-42511264D01*
G75*
G02*
X121236040Y-42711264I0J-200000D01*
G01*
X121236040Y-44011264D01*
G75*
G02*
X121036040Y-44211264I-200000J0D01*
G01*
G37*
G36*
G01*
X97446863Y-46533542D02*
X96498165Y-46583261D01*
G75*
G02*
X96287972Y-46394002I-10467J199726D01*
G01*
X96219936Y-45095783D01*
G75*
G02*
X96409195Y-44885590I199726J10467D01*
G01*
X97357893Y-44835871D01*
G75*
G02*
X97568086Y-45025130I10467J-199726D01*
G01*
X97636122Y-46323349D01*
G75*
G02*
X97446863Y-46533542I-199726J-10467D01*
G01*
G37*
G36*
G01*
X97765492Y-48342846D02*
X96370407Y-48415959D01*
G75*
G02*
X96160214Y-48226700I-10467J199726D01*
G01*
X96087101Y-46831615D01*
G75*
G02*
X96276360Y-46621422I199726J10467D01*
G01*
X97671445Y-46548309D01*
G75*
G02*
X97881638Y-46737568I10467J-199726D01*
G01*
X97954751Y-48132653D01*
G75*
G02*
X97765492Y-48342846I-199726J-10467D01*
G01*
G37*
X96649340Y-40391864D03*
G36*
G01*
X97261071Y-42988408D02*
X96312373Y-43038127D01*
G75*
G02*
X96102180Y-42848868I-10467J199726D01*
G01*
X96034144Y-41550649D01*
G75*
G02*
X96223403Y-41340456I199726J10467D01*
G01*
X97172101Y-41290737D01*
G75*
G02*
X97382294Y-41479996I10467J-199726D01*
G01*
X97450330Y-42778215D01*
G75*
G02*
X97261071Y-42988408I-199726J-10467D01*
G01*
G37*
G36*
G01*
X80010855Y-49740493D02*
X79062157Y-49790212D01*
G75*
G02*
X78851964Y-49600953I-10467J199726D01*
G01*
X78783928Y-48302734D01*
G75*
G02*
X78973187Y-48092541I199726J10467D01*
G01*
X79921885Y-48042822D01*
G75*
G02*
X80132078Y-48232081I10467J-199726D01*
G01*
X80200114Y-49530300D01*
G75*
G02*
X80010855Y-49740493I-199726J-10467D01*
G01*
G37*
G36*
G01*
X80329484Y-51549797D02*
X78934399Y-51622910D01*
G75*
G02*
X78724206Y-51433651I-10467J199726D01*
G01*
X78651093Y-50038566D01*
G75*
G02*
X78840352Y-49828373I199726J10467D01*
G01*
X80235437Y-49755260D01*
G75*
G02*
X80445630Y-49944519I10467J-199726D01*
G01*
X80518743Y-51339604D01*
G75*
G02*
X80329484Y-51549797I-199726J-10467D01*
G01*
G37*
X79213332Y-43598815D03*
G36*
G01*
X79825063Y-46195359D02*
X78876365Y-46245078D01*
G75*
G02*
X78666172Y-46055819I-10467J199726D01*
G01*
X78598136Y-44757600D01*
G75*
G02*
X78787395Y-44547407I199726J10467D01*
G01*
X79736093Y-44497688D01*
G75*
G02*
X79946286Y-44686947I10467J-199726D01*
G01*
X80014322Y-45985166D01*
G75*
G02*
X79825063Y-46195359I-199726J-10467D01*
G01*
G37*
G36*
G01*
X97455825Y-55732199D02*
X97396005Y-54590766D01*
G75*
G02*
X97585264Y-54380573I199726J10467D01*
G01*
X98219394Y-54347340D01*
G75*
G02*
X98429587Y-54536599I10467J-199726D01*
G01*
X98489407Y-55678032D01*
G75*
G02*
X98300148Y-55888225I-199726J-10467D01*
G01*
X97666018Y-55921458D01*
G75*
G02*
X97455825Y-55732199I-10467J199726D01*
G01*
G37*
G36*
G01*
X96456437Y-55784575D02*
X96396617Y-54643142D01*
G75*
G02*
X96585876Y-54432949I199726J10467D01*
G01*
X97220006Y-54399716D01*
G75*
G02*
X97430199Y-54588975I10467J-199726D01*
G01*
X97490019Y-55730408D01*
G75*
G02*
X97300760Y-55940601I-199726J-10467D01*
G01*
X96666630Y-55973834D01*
G75*
G02*
X96456437Y-55784575I-10467J199726D01*
G01*
G37*
G36*
G01*
X138042773Y-55807788D02*
X138042773Y-54664788D01*
G75*
G02*
X138242773Y-54464788I200000J0D01*
G01*
X138877773Y-54464788D01*
G75*
G02*
X139077773Y-54664788I0J-200000D01*
G01*
X139077773Y-55807788D01*
G75*
G02*
X138877773Y-56007788I-200000J0D01*
G01*
X138242773Y-56007788D01*
G75*
G02*
X138042773Y-55807788I0J200000D01*
G01*
G37*
G36*
G01*
X139043533Y-55807788D02*
X139043533Y-54664788D01*
G75*
G02*
X139243533Y-54464788I200000J0D01*
G01*
X139878533Y-54464788D01*
G75*
G02*
X140078533Y-54664788I0J-200000D01*
G01*
X140078533Y-55807788D01*
G75*
G02*
X139878533Y-56007788I-200000J0D01*
G01*
X139243533Y-56007788D01*
G75*
G02*
X139043533Y-55807788I0J200000D01*
G01*
G37*
G36*
G01*
X175793158Y-53207796D02*
X175793158Y-52064796D01*
G75*
G02*
X175993158Y-51864796I200000J0D01*
G01*
X176628158Y-51864796D01*
G75*
G02*
X176828158Y-52064796I0J-200000D01*
G01*
X176828158Y-53207796D01*
G75*
G02*
X176628158Y-53407796I-200000J0D01*
G01*
X175993158Y-53407796D01*
G75*
G02*
X175793158Y-53207796I0J200000D01*
G01*
G37*
G36*
G01*
X176793918Y-53207796D02*
X176793918Y-52064796D01*
G75*
G02*
X176993918Y-51864796I200000J0D01*
G01*
X177628918Y-51864796D01*
G75*
G02*
X177828918Y-52064796I0J-200000D01*
G01*
X177828918Y-53207796D01*
G75*
G02*
X177628918Y-53407796I-200000J0D01*
G01*
X176993918Y-53407796D01*
G75*
G02*
X176793918Y-53207796I0J200000D01*
G01*
G37*
G36*
G01*
X219788116Y-61874277D02*
X220931116Y-61874277D01*
G75*
G02*
X221131116Y-62074277I0J-200000D01*
G01*
X221131116Y-62709277D01*
G75*
G02*
X220931116Y-62909277I-200000J0D01*
G01*
X219788116Y-62909277D01*
G75*
G02*
X219588116Y-62709277I0J200000D01*
G01*
X219588116Y-62074277D01*
G75*
G02*
X219788116Y-61874277I200000J0D01*
G01*
G37*
G36*
G01*
X219788116Y-62875037D02*
X220931116Y-62875037D01*
G75*
G02*
X221131116Y-63075037I0J-200000D01*
G01*
X221131116Y-63710037D01*
G75*
G02*
X220931116Y-63910037I-200000J0D01*
G01*
X219788116Y-63910037D01*
G75*
G02*
X219588116Y-63710037I0J200000D01*
G01*
X219588116Y-63075037D01*
G75*
G02*
X219788116Y-62875037I200000J0D01*
G01*
G37*
D13*
X93737487Y-80939825D03*
X84749821Y-81410849D03*
D12*
X84170616Y-81441204D03*
X94316692Y-80909470D03*
D11*
X89243654Y-81175337D03*
D10*
X91514306Y-75969366D03*
X92915499Y-78439417D03*
X86441268Y-76235232D03*
X85305942Y-78838218D03*
G36*
G01*
X84579320Y-75291386D02*
X84683992Y-77288645D01*
G75*
G02*
X84494733Y-77498838I-199726J-10467D01*
G01*
X82197885Y-77619211D01*
G75*
G02*
X81987692Y-77429952I-10467J199726D01*
G01*
X81883020Y-75432693D01*
G75*
G02*
X82072279Y-75222500I199726J10467D01*
G01*
X84369127Y-75102127D01*
G75*
G02*
X84579320Y-75291386I10467J-199726D01*
G01*
G37*
G36*
G01*
X97394848Y-77163238D02*
X97499520Y-79160497D01*
G75*
G02*
X97310261Y-79370690I-199726J-10467D01*
G01*
X95013413Y-79491063D01*
G75*
G02*
X94803220Y-79301804I-10467J199726D01*
G01*
X94698548Y-77304545D01*
G75*
G02*
X94887807Y-77094352I199726J10467D01*
G01*
X97184655Y-76973979D01*
G75*
G02*
X97394848Y-77163238I10467J-199726D01*
G01*
G37*
D13*
X111764394Y-60918932D03*
X102776728Y-61389956D03*
D12*
X102197523Y-61420311D03*
X112343599Y-60888577D03*
D11*
X107270561Y-61154444D03*
D10*
X109541213Y-55948473D03*
X110942406Y-58418524D03*
X104468175Y-56214339D03*
X103332849Y-58817325D03*
G36*
G01*
X102606227Y-55270493D02*
X102710899Y-57267752D01*
G75*
G02*
X102521640Y-57477945I-199726J-10467D01*
G01*
X100224792Y-57598318D01*
G75*
G02*
X100014599Y-57409059I-10467J199726D01*
G01*
X99909927Y-55411800D01*
G75*
G02*
X100099186Y-55201607I199726J10467D01*
G01*
X102396034Y-55081234D01*
G75*
G02*
X102606227Y-55270493I10467J-199726D01*
G01*
G37*
G36*
G01*
X115421755Y-57142345D02*
X115526427Y-59139604D01*
G75*
G02*
X115337168Y-59349797I-199726J-10467D01*
G01*
X113040320Y-59470170D01*
G75*
G02*
X112830127Y-59280911I-10467J199726D01*
G01*
X112725455Y-57283652D01*
G75*
G02*
X112914714Y-57073459I199726J10467D01*
G01*
X115211562Y-56953086D01*
G75*
G02*
X115421755Y-57142345I10467J-199726D01*
G01*
G37*
G36*
G01*
X136961042Y-72456298D02*
X136961042Y-74456298D01*
G75*
G02*
X136761042Y-74656298I-200000J0D01*
G01*
X134461042Y-74656298D01*
G75*
G02*
X134261042Y-74456298I0J200000D01*
G01*
X134261042Y-72456298D01*
G75*
G02*
X134461042Y-72256298I200000J0D01*
G01*
X136761042Y-72256298D01*
G75*
G02*
X136961042Y-72456298I0J-200000D01*
G01*
G37*
G36*
G01*
X124261042Y-69916298D02*
X124261042Y-71916298D01*
G75*
G02*
X124061042Y-72116298I-200000J0D01*
G01*
X121761042Y-72116298D01*
G75*
G02*
X121561042Y-71916298I0J200000D01*
G01*
X121561042Y-69916298D01*
G75*
G02*
X121761042Y-69716298I200000J0D01*
G01*
X124061042Y-69716298D01*
G75*
G02*
X124261042Y-69916298I0J-200000D01*
G01*
G37*
X124801042Y-73496298D03*
X126071042Y-70956298D03*
X132421042Y-73496297D03*
X131151042Y-70956298D03*
D11*
X128611042Y-76036298D03*
D12*
X133691042Y-76036298D03*
X123531042Y-76036298D03*
D13*
X124111042Y-76036298D03*
X133111042Y-76036298D03*
G36*
G01*
X194111055Y-74456295D02*
X194111055Y-76456295D01*
G75*
G02*
X193911055Y-76656295I-200000J0D01*
G01*
X191611055Y-76656295D01*
G75*
G02*
X191411055Y-76456295I0J200000D01*
G01*
X191411055Y-74456295D01*
G75*
G02*
X191611055Y-74256295I200000J0D01*
G01*
X193911055Y-74256295D01*
G75*
G02*
X194111055Y-74456295I0J-200000D01*
G01*
G37*
G36*
G01*
X181411055Y-71916295D02*
X181411055Y-73916295D01*
G75*
G02*
X181211055Y-74116295I-200000J0D01*
G01*
X178911055Y-74116295D01*
G75*
G02*
X178711055Y-73916295I0J200000D01*
G01*
X178711055Y-71916295D01*
G75*
G02*
X178911055Y-71716295I200000J0D01*
G01*
X181211055Y-71716295D01*
G75*
G02*
X181411055Y-71916295I0J-200000D01*
G01*
G37*
D10*
X181951055Y-75496295D03*
X183221055Y-72956295D03*
X189571055Y-75496294D03*
X188301055Y-72956295D03*
D11*
X185761055Y-78036295D03*
D12*
X190841055Y-78036295D03*
X180681055Y-78036295D03*
D13*
X181261055Y-78036295D03*
X190261055Y-78036295D03*
X94734473Y-99963707D03*
X85746807Y-100434731D03*
D12*
X85167602Y-100465086D03*
X95313678Y-99933352D03*
D11*
X90240640Y-100199219D03*
D10*
X92511292Y-94993248D03*
X93912485Y-97463299D03*
X87438254Y-95259114D03*
X86302928Y-97862100D03*
G36*
G01*
X85576306Y-94315268D02*
X85680978Y-96312527D01*
G75*
G02*
X85491719Y-96522720I-199726J-10467D01*
G01*
X83194871Y-96643093D01*
G75*
G02*
X82984678Y-96453834I-10467J199726D01*
G01*
X82880006Y-94456575D01*
G75*
G02*
X83069265Y-94246382I199726J10467D01*
G01*
X85366113Y-94126009D01*
G75*
G02*
X85576306Y-94315268I10467J-199726D01*
G01*
G37*
G36*
G01*
X98391834Y-96187120D02*
X98496506Y-98184379D01*
G75*
G02*
X98307247Y-98394572I-199726J-10467D01*
G01*
X96010399Y-98514945D01*
G75*
G02*
X95800206Y-98325686I-10467J199726D01*
G01*
X95695534Y-96328427D01*
G75*
G02*
X95884793Y-96118234I199726J10467D01*
G01*
X98181641Y-95997861D01*
G75*
G02*
X98391834Y-96187120I10467J-199726D01*
G01*
G37*
G36*
G01*
X156011028Y-69956305D02*
X156011028Y-71956305D01*
G75*
G02*
X155811028Y-72156305I-200000J0D01*
G01*
X153511028Y-72156305D01*
G75*
G02*
X153311028Y-71956305I0J200000D01*
G01*
X153311028Y-69956305D01*
G75*
G02*
X153511028Y-69756305I200000J0D01*
G01*
X155811028Y-69756305D01*
G75*
G02*
X156011028Y-69956305I0J-200000D01*
G01*
G37*
G36*
G01*
X143311028Y-67416305D02*
X143311028Y-69416305D01*
G75*
G02*
X143111028Y-69616305I-200000J0D01*
G01*
X140811028Y-69616305D01*
G75*
G02*
X140611028Y-69416305I0J200000D01*
G01*
X140611028Y-67416305D01*
G75*
G02*
X140811028Y-67216305I200000J0D01*
G01*
X143111028Y-67216305D01*
G75*
G02*
X143311028Y-67416305I0J-200000D01*
G01*
G37*
X143851028Y-70996305D03*
X145121028Y-68456305D03*
X151471028Y-70996304D03*
X150201028Y-68456305D03*
D11*
X147661028Y-73536305D03*
D12*
X152741028Y-73536305D03*
X142581028Y-73536305D03*
D13*
X143161028Y-73536305D03*
X152161028Y-73536305D03*
D14*
X221807623Y-78484297D03*
X221807623Y-86104297D03*
G36*
G01*
X222552623Y-81719297D02*
X221062623Y-81719297D01*
G75*
G02*
X220732623Y-81389297I0J330000D01*
G01*
X220732623Y-80399297D01*
G75*
G02*
X221062623Y-80069297I330000J0D01*
G01*
X222552623Y-80069297D01*
G75*
G02*
X222882623Y-80399297I0J-330000D01*
G01*
X222882623Y-81389297D01*
G75*
G02*
X222552623Y-81719297I-330000J0D01*
G01*
G37*
G36*
G01*
X222552623Y-84519297D02*
X221062623Y-84519297D01*
G75*
G02*
X220732623Y-84189297I0J330000D01*
G01*
X220732623Y-83199297D01*
G75*
G02*
X221062623Y-82869297I330000J0D01*
G01*
X222552623Y-82869297D01*
G75*
G02*
X222882623Y-83199297I0J-330000D01*
G01*
X222882623Y-84189297D01*
G75*
G02*
X222552623Y-84519297I-330000J0D01*
G01*
G37*
D20*
X221807623Y-83694297D03*
X221807623Y-80894297D03*
D14*
X224607675Y-86104263D03*
X224607675Y-78484263D03*
G36*
G01*
X223862675Y-82869263D02*
X225352675Y-82869263D01*
G75*
G02*
X225682675Y-83199263I0J-330000D01*
G01*
X225682675Y-84189263D01*
G75*
G02*
X225352675Y-84519263I-330000J0D01*
G01*
X223862675Y-84519263D01*
G75*
G02*
X223532675Y-84189263I0J330000D01*
G01*
X223532675Y-83199263D01*
G75*
G02*
X223862675Y-82869263I330000J0D01*
G01*
G37*
G36*
G01*
X223862675Y-80069263D02*
X225352675Y-80069263D01*
G75*
G02*
X225682675Y-80399263I0J-330000D01*
G01*
X225682675Y-81389263D01*
G75*
G02*
X225352675Y-81719263I-330000J0D01*
G01*
X223862675Y-81719263D01*
G75*
G02*
X223532675Y-81389263I0J330000D01*
G01*
X223532675Y-80399263D01*
G75*
G02*
X223862675Y-80069263I330000J0D01*
G01*
G37*
D20*
X224607675Y-80894263D03*
X224607675Y-83694263D03*
D19*
X134476446Y-123721342D03*
X139367184Y-122681784D03*
G36*
G01*
X128636418Y-115966081D02*
X130592713Y-115550257D01*
G75*
G02*
X130829925Y-115704305I41582J-195630D01*
G01*
X131495242Y-118834377D01*
G75*
G02*
X131341194Y-119071589I-195630J-41582D01*
G01*
X129384899Y-119487413D01*
G75*
G02*
X129147687Y-119333365I-41582J195630D01*
G01*
X128482370Y-116203293D01*
G75*
G02*
X128636418Y-115966081I195630J41582D01*
G01*
G37*
G36*
G01*
X139591672Y-113637471D02*
X141547967Y-113221647D01*
G75*
G02*
X141785179Y-113375695I41582J-195630D01*
G01*
X142450496Y-116505767D01*
G75*
G02*
X142296448Y-116742979I-195630J-41582D01*
G01*
X140340153Y-117158803D01*
G75*
G02*
X140102941Y-117004755I-41582J195630D01*
G01*
X139437624Y-113874683D01*
G75*
G02*
X139591672Y-113637471I195630J41582D01*
G01*
G37*
X131461726Y-109538202D03*
X133907095Y-109018423D03*
X136352464Y-108498644D03*
X211188095Y-101894840D03*
X206733062Y-99624887D03*
G36*
G01*
X210846106Y-111597058D02*
X209064093Y-110689077D01*
G75*
G02*
X208976690Y-110420078I90798J178201D01*
G01*
X210429459Y-107568857D01*
G75*
G02*
X210698458Y-107481454I178201J-90798D01*
G01*
X212480471Y-108389435D01*
G75*
G02*
X212567874Y-108658434I-90798J-178201D01*
G01*
X211115105Y-111509655D01*
G75*
G02*
X210846106Y-111597058I-178201J90798D01*
G01*
G37*
G36*
G01*
X200866832Y-106512364D02*
X199084819Y-105604383D01*
G75*
G02*
X198997416Y-105335384I90798J178201D01*
G01*
X200450185Y-102484163D01*
G75*
G02*
X200719184Y-102396760I178201J-90798D01*
G01*
X202501197Y-103304741D01*
G75*
G02*
X202588600Y-103573740I-90798J-178201D01*
G01*
X201135831Y-106424961D01*
G75*
G02*
X200866832Y-106512364I-178201J90798D01*
G01*
G37*
X204605233Y-114814434D03*
X202377716Y-113679458D03*
X200150200Y-112544482D03*
D16*
X199276802Y-88868955D03*
D15*
X137126628Y-46437687D03*
X98233463Y-71191163D03*
X97208833Y-51139517D03*
X99230433Y-90215063D03*
X96768700Y-109780542D03*
X167765690Y-107023700D03*
X210642154Y-122795773D03*
X177266630Y-48437686D03*
D16*
X222900500Y-100886755D03*
D17*
X200413463Y-59817037D03*
X215653463Y-77597037D03*
X200413463Y-69977037D03*
X215653463Y-67437037D03*
X215653463Y-62357037D03*
X200413463Y-80137037D03*
X215653463Y-59817037D03*
X215653463Y-54737037D03*
X200413463Y-75057037D03*
X215653463Y-82677037D03*
X200413463Y-67437037D03*
X200413463Y-57277037D03*
X200413463Y-62357037D03*
X200413463Y-64897037D03*
X200413463Y-77597037D03*
X200413463Y-72517037D03*
X215653463Y-75057037D03*
X215653463Y-72517037D03*
X200413463Y-82677037D03*
X215653463Y-80137037D03*
X215653463Y-57277037D03*
X200413463Y-54737037D03*
X215653463Y-69977037D03*
X215653463Y-64897037D03*
X199114648Y-53541292D03*
X199114648Y-56081292D03*
X199114648Y-58621292D03*
X199114648Y-61161292D03*
X199114648Y-63701292D03*
X199114648Y-66241292D03*
X199114648Y-68781292D03*
X199114648Y-71321292D03*
X199114648Y-73861292D03*
X199114648Y-76401292D03*
X199114648Y-78941292D03*
X199114648Y-81481292D03*
X214354648Y-81481292D03*
X214354648Y-78941292D03*
X214354648Y-76401292D03*
X214354648Y-73861292D03*
X214354648Y-71321292D03*
X214354648Y-68781292D03*
X214354648Y-66241292D03*
X214354648Y-63701292D03*
X214354648Y-61161292D03*
X214354648Y-58621292D03*
X214354648Y-56081292D03*
X214354648Y-53541292D03*
D13*
X113758372Y-98966723D03*
X104770706Y-99437747D03*
D12*
X104191501Y-99468102D03*
X114337577Y-98936368D03*
D11*
X109264539Y-99202235D03*
D10*
X111535191Y-93996264D03*
X112936384Y-96466315D03*
X106462153Y-94262130D03*
X105326827Y-96865116D03*
G36*
G01*
X104600205Y-93318284D02*
X104704877Y-95315543D01*
G75*
G02*
X104515618Y-95525736I-199726J-10467D01*
G01*
X102218770Y-95646109D01*
G75*
G02*
X102008577Y-95456850I-10467J199726D01*
G01*
X101903905Y-93459591D01*
G75*
G02*
X102093164Y-93249398I199726J10467D01*
G01*
X104390012Y-93129025D01*
G75*
G02*
X104600205Y-93318284I10467J-199726D01*
G01*
G37*
G36*
G01*
X117415733Y-95190136D02*
X117520405Y-97187395D01*
G75*
G02*
X117331146Y-97397588I-199726J-10467D01*
G01*
X115034298Y-97517961D01*
G75*
G02*
X114824105Y-97328702I-10467J199726D01*
G01*
X114719433Y-95331443D01*
G75*
G02*
X114908692Y-95121250I199726J10467D01*
G01*
X117205540Y-95000877D01*
G75*
G02*
X117415733Y-95190136I10467J-199726D01*
G01*
G37*
G36*
G01*
X214847835Y-107597927D02*
X213939854Y-109379940D01*
G75*
G02*
X213670855Y-109467343I-178201J90798D01*
G01*
X211621540Y-108423164D01*
G75*
G02*
X211534137Y-108154165I90798J178201D01*
G01*
X212442118Y-106372152D01*
G75*
G02*
X212711117Y-106284749I178201J-90798D01*
G01*
X214760432Y-107328928D01*
G75*
G02*
X214847835Y-107597927I-90798J-178201D01*
G01*
G37*
G36*
G01*
X204685188Y-99569091D02*
X203777207Y-101351104D01*
G75*
G02*
X203508208Y-101438507I-178201J90798D01*
G01*
X201458893Y-100394328D01*
G75*
G02*
X201371490Y-100125329I90798J178201D01*
G01*
X202279471Y-98343316D01*
G75*
G02*
X202548470Y-98255913I178201J-90798D01*
G01*
X204597785Y-99300092D01*
G75*
G02*
X204685188Y-99569091I-90798J-178201D01*
G01*
G37*
X203541046Y-103004049D03*
X205825760Y-101317460D03*
X210330516Y-106463455D03*
X210352073Y-103623732D03*
D11*
X205782645Y-106996909D03*
D12*
X210308958Y-109303181D03*
X201256332Y-104690637D03*
D13*
X201773116Y-104953952D03*
X209792174Y-109039866D03*
G36*
G01*
X194111041Y-55406267D02*
X194111041Y-57406267D01*
G75*
G02*
X193911041Y-57606267I-200000J0D01*
G01*
X191611041Y-57606267D01*
G75*
G02*
X191411041Y-57406267I0J200000D01*
G01*
X191411041Y-55406267D01*
G75*
G02*
X191611041Y-55206267I200000J0D01*
G01*
X193911041Y-55206267D01*
G75*
G02*
X194111041Y-55406267I0J-200000D01*
G01*
G37*
G36*
G01*
X181411041Y-52866267D02*
X181411041Y-54866267D01*
G75*
G02*
X181211041Y-55066267I-200000J0D01*
G01*
X178911041Y-55066267D01*
G75*
G02*
X178711041Y-54866267I0J200000D01*
G01*
X178711041Y-52866267D01*
G75*
G02*
X178911041Y-52666267I200000J0D01*
G01*
X181211041Y-52666267D01*
G75*
G02*
X181411041Y-52866267I0J-200000D01*
G01*
G37*
D10*
X181951041Y-56446267D03*
X183221041Y-53906267D03*
X189571041Y-56446266D03*
X188301041Y-53906267D03*
D11*
X185761041Y-58986267D03*
D12*
X190841041Y-58986267D03*
X180681041Y-58986267D03*
D13*
X181261041Y-58986267D03*
X190261041Y-58986267D03*
G36*
G01*
X175061049Y-53406285D02*
X175061049Y-55406285D01*
G75*
G02*
X174861049Y-55606285I-200000J0D01*
G01*
X172561049Y-55606285D01*
G75*
G02*
X172361049Y-55406285I0J200000D01*
G01*
X172361049Y-53406285D01*
G75*
G02*
X172561049Y-53206285I200000J0D01*
G01*
X174861049Y-53206285D01*
G75*
G02*
X175061049Y-53406285I0J-200000D01*
G01*
G37*
G36*
G01*
X162361049Y-50866285D02*
X162361049Y-52866285D01*
G75*
G02*
X162161049Y-53066285I-200000J0D01*
G01*
X159861049Y-53066285D01*
G75*
G02*
X159661049Y-52866285I0J200000D01*
G01*
X159661049Y-50866285D01*
G75*
G02*
X159861049Y-50666285I200000J0D01*
G01*
X162161049Y-50666285D01*
G75*
G02*
X162361049Y-50866285I0J-200000D01*
G01*
G37*
D10*
X162901049Y-54446285D03*
X164171049Y-51906285D03*
X170521049Y-54446284D03*
X169251049Y-51906285D03*
D11*
X166711049Y-56986285D03*
D12*
X171791049Y-56986285D03*
X161631049Y-56986285D03*
D13*
X162211049Y-56986285D03*
X171211049Y-56986285D03*
G36*
G01*
X175061056Y-34356263D02*
X175061056Y-36356263D01*
G75*
G02*
X174861056Y-36556263I-200000J0D01*
G01*
X172561056Y-36556263D01*
G75*
G02*
X172361056Y-36356263I0J200000D01*
G01*
X172361056Y-34356263D01*
G75*
G02*
X172561056Y-34156263I200000J0D01*
G01*
X174861056Y-34156263D01*
G75*
G02*
X175061056Y-34356263I0J-200000D01*
G01*
G37*
G36*
G01*
X162361056Y-31816263D02*
X162361056Y-33816263D01*
G75*
G02*
X162161056Y-34016263I-200000J0D01*
G01*
X159861056Y-34016263D01*
G75*
G02*
X159661056Y-33816263I0J200000D01*
G01*
X159661056Y-31816263D01*
G75*
G02*
X159861056Y-31616263I200000J0D01*
G01*
X162161056Y-31616263D01*
G75*
G02*
X162361056Y-31816263I0J-200000D01*
G01*
G37*
D10*
X162901056Y-35396263D03*
X164171056Y-32856263D03*
X170521056Y-35396262D03*
X169251056Y-32856263D03*
D11*
X166711056Y-37936263D03*
D12*
X171791056Y-37936263D03*
X161631056Y-37936263D03*
D13*
X162211056Y-37936263D03*
X171211056Y-37936263D03*
G36*
G01*
X156011032Y-50906303D02*
X156011032Y-52906303D01*
G75*
G02*
X155811032Y-53106303I-200000J0D01*
G01*
X153511032Y-53106303D01*
G75*
G02*
X153311032Y-52906303I0J200000D01*
G01*
X153311032Y-50906303D01*
G75*
G02*
X153511032Y-50706303I200000J0D01*
G01*
X155811032Y-50706303D01*
G75*
G02*
X156011032Y-50906303I0J-200000D01*
G01*
G37*
G36*
G01*
X143311032Y-48366303D02*
X143311032Y-50366303D01*
G75*
G02*
X143111032Y-50566303I-200000J0D01*
G01*
X140811032Y-50566303D01*
G75*
G02*
X140611032Y-50366303I0J200000D01*
G01*
X140611032Y-48366303D01*
G75*
G02*
X140811032Y-48166303I200000J0D01*
G01*
X143111032Y-48166303D01*
G75*
G02*
X143311032Y-48366303I0J-200000D01*
G01*
G37*
D10*
X143851032Y-51946303D03*
X145121032Y-49406303D03*
X151471032Y-51946302D03*
X150201032Y-49406303D03*
D11*
X147661032Y-54486303D03*
D12*
X152741032Y-54486303D03*
X142581032Y-54486303D03*
D13*
X143161032Y-54486303D03*
X152161032Y-54486303D03*
X152161020Y-35436301D03*
X143161020Y-35436301D03*
D12*
X142581020Y-35436301D03*
X152741020Y-35436301D03*
D11*
X147661020Y-35436301D03*
D10*
X150201020Y-30356301D03*
X151471020Y-32896300D03*
X145121020Y-30356301D03*
X143851020Y-32896301D03*
G36*
G01*
X143311020Y-29316301D02*
X143311020Y-31316301D01*
G75*
G02*
X143111020Y-31516301I-200000J0D01*
G01*
X140811020Y-31516301D01*
G75*
G02*
X140611020Y-31316301I0J200000D01*
G01*
X140611020Y-29316301D01*
G75*
G02*
X140811020Y-29116301I200000J0D01*
G01*
X143111020Y-29116301D01*
G75*
G02*
X143311020Y-29316301I0J-200000D01*
G01*
G37*
G36*
G01*
X156011020Y-31856301D02*
X156011020Y-33856301D01*
G75*
G02*
X155811020Y-34056301I-200000J0D01*
G01*
X153511020Y-34056301D01*
G75*
G02*
X153311020Y-33856301I0J200000D01*
G01*
X153311020Y-31856301D01*
G75*
G02*
X153511020Y-31656301I200000J0D01*
G01*
X155811020Y-31656301D01*
G75*
G02*
X156011020Y-31856301I0J-200000D01*
G01*
G37*
G36*
G01*
X136961032Y-53406293D02*
X136961032Y-55406293D01*
G75*
G02*
X136761032Y-55606293I-200000J0D01*
G01*
X134461032Y-55606293D01*
G75*
G02*
X134261032Y-55406293I0J200000D01*
G01*
X134261032Y-53406293D01*
G75*
G02*
X134461032Y-53206293I200000J0D01*
G01*
X136761032Y-53206293D01*
G75*
G02*
X136961032Y-53406293I0J-200000D01*
G01*
G37*
G36*
G01*
X124261032Y-50866293D02*
X124261032Y-52866293D01*
G75*
G02*
X124061032Y-53066293I-200000J0D01*
G01*
X121761032Y-53066293D01*
G75*
G02*
X121561032Y-52866293I0J200000D01*
G01*
X121561032Y-50866293D01*
G75*
G02*
X121761032Y-50666293I200000J0D01*
G01*
X124061032Y-50666293D01*
G75*
G02*
X124261032Y-50866293I0J-200000D01*
G01*
G37*
X124801032Y-54446293D03*
X126071032Y-51906293D03*
X132421032Y-54446292D03*
X131151032Y-51906293D03*
D11*
X128611032Y-56986293D03*
D12*
X133691032Y-56986293D03*
X123531032Y-56986293D03*
D13*
X124111032Y-56986293D03*
X133111032Y-56986293D03*
G36*
G01*
X136961034Y-34356295D02*
X136961034Y-36356295D01*
G75*
G02*
X136761034Y-36556295I-200000J0D01*
G01*
X134461034Y-36556295D01*
G75*
G02*
X134261034Y-36356295I0J200000D01*
G01*
X134261034Y-34356295D01*
G75*
G02*
X134461034Y-34156295I200000J0D01*
G01*
X136761034Y-34156295D01*
G75*
G02*
X136961034Y-34356295I0J-200000D01*
G01*
G37*
G36*
G01*
X124261034Y-31816295D02*
X124261034Y-33816295D01*
G75*
G02*
X124061034Y-34016295I-200000J0D01*
G01*
X121761034Y-34016295D01*
G75*
G02*
X121561034Y-33816295I0J200000D01*
G01*
X121561034Y-31816295D01*
G75*
G02*
X121761034Y-31616295I200000J0D01*
G01*
X124061034Y-31616295D01*
G75*
G02*
X124261034Y-31816295I0J-200000D01*
G01*
G37*
D10*
X124801034Y-35396295D03*
X126071034Y-32856295D03*
X132421034Y-35396294D03*
X131151034Y-32856295D03*
D11*
X128611034Y-37936295D03*
D12*
X133691034Y-37936295D03*
X123531034Y-37936295D03*
D13*
X124111034Y-37936295D03*
X133111034Y-37936295D03*
X91743501Y-42892023D03*
X82755835Y-43363047D03*
D12*
X82176630Y-43393402D03*
X92322706Y-42861668D03*
D11*
X87249668Y-43127535D03*
D10*
X89520320Y-37921564D03*
X90921513Y-40391615D03*
X84447282Y-38187430D03*
X83311956Y-40790416D03*
G36*
G01*
X82585334Y-37243584D02*
X82690006Y-39240843D01*
G75*
G02*
X82500747Y-39451036I-199726J-10467D01*
G01*
X80203899Y-39571409D01*
G75*
G02*
X79993706Y-39382150I-10467J199726D01*
G01*
X79889034Y-37384891D01*
G75*
G02*
X80078293Y-37174698I199726J10467D01*
G01*
X82375141Y-37054325D01*
G75*
G02*
X82585334Y-37243584I10467J-199726D01*
G01*
G37*
G36*
G01*
X95400862Y-39115436D02*
X95505534Y-41112695D01*
G75*
G02*
X95316275Y-41322888I-199726J-10467D01*
G01*
X93019427Y-41443261D01*
G75*
G02*
X92809234Y-41254002I-10467J199726D01*
G01*
X92704562Y-39256743D01*
G75*
G02*
X92893821Y-39046550I199726J10467D01*
G01*
X95190669Y-38926177D01*
G75*
G02*
X95400862Y-39115436I10467J-199726D01*
G01*
G37*
D19*
X224289609Y-66782148D03*
X224289609Y-60262148D03*
D21*
X216460025Y-93038974D03*
X223460025Y-93038974D03*
G36*
G01*
X213610025Y-90138974D02*
X215710025Y-90138974D01*
G75*
G02*
X215910025Y-90338974I0J-200000D01*
G01*
X215910025Y-91538974D01*
G75*
G02*
X215710025Y-91738974I-200000J0D01*
G01*
X213610025Y-91738974D01*
G75*
G02*
X213410025Y-91538974I0J200000D01*
G01*
X213410025Y-90338974D01*
G75*
G02*
X213610025Y-90138974I200000J0D01*
G01*
G37*
G36*
G01*
X212110025Y-94338974D02*
X214210025Y-94338974D01*
G75*
G02*
X214410025Y-94538974I0J-200000D01*
G01*
X214410025Y-95738974D01*
G75*
G02*
X214210025Y-95938974I-200000J0D01*
G01*
X212110025Y-95938974D01*
G75*
G02*
X211910025Y-95738974I0J200000D01*
G01*
X211910025Y-94538974D01*
G75*
G02*
X212110025Y-94338974I200000J0D01*
G01*
G37*
G36*
G01*
X220610025Y-90138974D02*
X222710025Y-90138974D01*
G75*
G02*
X222910025Y-90338974I0J-200000D01*
G01*
X222910025Y-91538974D01*
G75*
G02*
X222710025Y-91738974I-200000J0D01*
G01*
X220610025Y-91738974D01*
G75*
G02*
X220410025Y-91538974I0J200000D01*
G01*
X220410025Y-90338974D01*
G75*
G02*
X220610025Y-90138974I200000J0D01*
G01*
G37*
G36*
G01*
X217610025Y-90138974D02*
X219710025Y-90138974D01*
G75*
G02*
X219910025Y-90338974I0J-200000D01*
G01*
X219910025Y-91538974D01*
G75*
G02*
X219710025Y-91738974I-200000J0D01*
G01*
X217610025Y-91738974D01*
G75*
G02*
X217410025Y-91538974I0J200000D01*
G01*
X217410025Y-90338974D01*
G75*
G02*
X217610025Y-90138974I200000J0D01*
G01*
G37*
X223460025Y-94788974D03*
X216460025Y-94788974D03*
G36*
G01*
X220610025Y-96088974D02*
X222710025Y-96088974D01*
G75*
G02*
X222910025Y-96288974I0J-200000D01*
G01*
X222910025Y-97488974D01*
G75*
G02*
X222710025Y-97688974I-200000J0D01*
G01*
X220610025Y-97688974D01*
G75*
G02*
X220410025Y-97488974I0J200000D01*
G01*
X220410025Y-96288974D01*
G75*
G02*
X220610025Y-96088974I200000J0D01*
G01*
G37*
G36*
G01*
X217610025Y-96088974D02*
X219710025Y-96088974D01*
G75*
G02*
X219910025Y-96288974I0J-200000D01*
G01*
X219910025Y-97488974D01*
G75*
G02*
X219710025Y-97688974I-200000J0D01*
G01*
X217610025Y-97688974D01*
G75*
G02*
X217410025Y-97488974I0J200000D01*
G01*
X217410025Y-96288974D01*
G75*
G02*
X217610025Y-96088974I200000J0D01*
G01*
G37*
G36*
G01*
X213610025Y-96088974D02*
X215710025Y-96088974D01*
G75*
G02*
X215910025Y-96288974I0J-200000D01*
G01*
X215910025Y-97488974D01*
G75*
G02*
X215710025Y-97688974I-200000J0D01*
G01*
X213610025Y-97688974D01*
G75*
G02*
X213410025Y-97488974I0J200000D01*
G01*
X213410025Y-96288974D01*
G75*
G02*
X213610025Y-96088974I200000J0D01*
G01*
G37*
G36*
G01*
X212110025Y-91888974D02*
X214210025Y-91888974D01*
G75*
G02*
X214410025Y-92088974I0J-200000D01*
G01*
X214410025Y-93288974D01*
G75*
G02*
X214210025Y-93488974I-200000J0D01*
G01*
X212110025Y-93488974D01*
G75*
G02*
X211910025Y-93288974I0J200000D01*
G01*
X211910025Y-92088974D01*
G75*
G02*
X212110025Y-91888974I200000J0D01*
G01*
G37*
M02*
