M48
; DRILL file {KiCad (5.1.12-1-10_14)} date Sunday, November 28, 2021 at 02:19:16 PM
; FORMAT={-:-/ absolute / metric / decimal}
; #@! TF.CreationDate,2021-11-28T14:19:16+00:00
; #@! TF.GenerationSoftware,Kicad,Pcbnew,(5.1.12-1-10_14)
; #@! TF.FileFunction,NonPlated,1,2,NPTH
FMAT,2
METRIC
T1C0.720
T2C1.200
T3C1.700
T4C1.900
T5C3.000
T6C4.100
T7C4.200
%
G90
G05
T1
X205.991Y-51.632
X208.891Y-51.632
X223.971Y-71.402
X223.971Y-74.302
T2
X216.46Y-93.039
X216.46Y-94.789
X223.46Y-93.039
X223.46Y-94.789
T3
X82.756Y-43.363
X83.753Y-62.387
X84.75Y-81.411
X85.747Y-100.435
X86.792Y-120.505
X91.744Y-42.892
X92.74Y-61.916
X93.737Y-80.94
X94.734Y-99.964
X95.78Y-120.034
X101.78Y-42.366
X102.777Y-61.39
X103.774Y-80.414
X104.771Y-99.438
X110.767Y-41.895
X111.764Y-60.919
X112.761Y-79.943
X113.758Y-98.967
X124.111Y-56.986
X124.111Y-37.936
X124.111Y-76.036
X124.111Y-95.086
X131.065Y-117.29
X133.111Y-56.986
X133.111Y-37.936
X133.111Y-76.036
X133.111Y-95.086
X139.868Y-115.419
X143.161Y-35.436
X143.161Y-73.536
X143.161Y-54.486
X143.161Y-92.579
X151.772Y-114.16
X152.161Y-35.436
X152.161Y-73.536
X152.161Y-54.486
X152.161Y-92.579
X160.772Y-114.16
X162.211Y-76.036
X162.211Y-95.086
X162.211Y-56.986
X162.211Y-37.936
X171.211Y-76.036
X171.211Y-95.086
X171.211Y-56.986
X171.211Y-37.936
X172.908Y-115.609
X181.261Y-39.936
X181.261Y-97.086
X181.261Y-58.986
X181.261Y-78.036
X181.659Y-117.71
X190.261Y-39.936
X190.261Y-97.086
X190.261Y-58.986
X190.261Y-78.036
X193.125Y-121.928
X201.144Y-126.014
X201.773Y-104.954
X209.792Y-109.04
X211.304Y-132.8
X218.147Y-138.645
X223.676Y-118.314
X230.519Y-124.159
T4
X82.177Y-43.393
X83.174Y-62.417
X84.171Y-81.441
X85.168Y-100.465
X86.213Y-120.536
X92.323Y-42.862
X93.32Y-61.886
X94.317Y-80.909
X95.314Y-99.933
X96.359Y-120.004
X101.201Y-42.396
X102.198Y-61.42
X103.195Y-80.444
X104.192Y-99.468
X111.347Y-41.865
X112.344Y-60.889
X113.341Y-79.912
X114.338Y-98.936
X123.531Y-56.986
X123.531Y-37.936
X123.531Y-76.036
X123.531Y-95.086
X130.497Y-117.411
X133.691Y-56.986
X133.691Y-37.936
X133.691Y-76.036
X133.691Y-95.086
X140.435Y-115.298
X142.581Y-35.436
X142.581Y-73.536
X142.581Y-54.486
X142.581Y-92.579
X151.192Y-114.16
X152.741Y-35.436
X152.741Y-73.536
X152.741Y-54.486
X152.741Y-92.579
X161.352Y-114.16
X161.631Y-76.036
X161.631Y-95.086
X161.631Y-56.986
X161.631Y-37.936
X171.791Y-76.036
X171.791Y-95.086
X171.791Y-56.986
X171.791Y-37.936
X172.344Y-115.474
X180.681Y-39.936
X180.681Y-97.086
X180.681Y-58.986
X180.681Y-78.036
X182.223Y-117.846
X190.841Y-39.936
X190.841Y-97.086
X190.841Y-58.986
X190.841Y-78.036
X192.608Y-121.664
X201.256Y-104.691
X201.66Y-126.277
X210.309Y-109.303
X210.863Y-132.423
X218.588Y-139.021
X223.235Y-117.937
X230.96Y-124.536
T5
X83.312Y-40.79
X84.309Y-59.814
X84.447Y-38.187
X85.306Y-78.838
X85.444Y-57.211
X86.303Y-97.862
X86.441Y-76.235
X87.348Y-117.933
X87.438Y-95.259
X88.484Y-115.33
X89.52Y-37.922
X90.517Y-56.945
X90.922Y-40.392
X91.514Y-75.969
X91.918Y-59.416
X92.511Y-94.993
X92.915Y-78.439
X93.557Y-115.064
X93.912Y-97.463
X94.958Y-117.534
X102.336Y-39.793
X103.333Y-58.817
X103.471Y-37.19
X104.33Y-77.841
X104.468Y-56.214
X105.327Y-96.865
X105.465Y-75.238
X106.462Y-94.262
X108.544Y-36.925
X109.541Y-55.948
X109.945Y-39.395
X110.538Y-74.972
X110.942Y-58.419
X111.535Y-93.996
X111.939Y-77.442
X112.936Y-96.466
X124.801Y-54.446
X124.801Y-35.396
X124.801Y-73.496
X124.801Y-92.546
X126.071Y-51.906
X126.071Y-32.856
X126.071Y-70.956
X126.071Y-90.006
X131.151Y-51.906
X131.151Y-32.856
X131.151Y-70.956
X131.151Y-90.006
X132.268Y-119.631
X132.421Y-54.446
X132.421Y-35.396
X132.421Y-73.496
X132.421Y-92.546
X134.038Y-121.852
X139.007Y-120.795
X139.721Y-118.047
X143.851Y-32.896
X143.851Y-70.996
X143.851Y-51.946
X143.851Y-90.039
X145.121Y-30.356
X145.121Y-68.456
X145.121Y-49.406
X145.121Y-87.499
X150.201Y-30.356
X150.201Y-68.456
X150.201Y-49.406
X150.201Y-87.499
X151.471Y-32.896
X151.471Y-70.996
X151.471Y-51.946
X151.471Y-90.039
X152.462Y-116.7
X153.732Y-119.24
X158.812Y-119.24
X160.082Y-116.7
X162.901Y-73.496
X162.901Y-92.546
X162.901Y-54.446
X162.901Y-35.396
X164.171Y-70.956
X164.171Y-90.006
X164.171Y-51.906
X164.171Y-32.856
X169.251Y-70.956
X169.251Y-90.006
X169.251Y-51.906
X169.251Y-32.856
X170.521Y-73.496
X170.521Y-92.546
X170.521Y-54.446
X170.521Y-35.396
X172.986Y-118.24
X173.628Y-121.007
X178.568Y-122.193
X180.396Y-120.019
X181.951Y-37.396
X181.951Y-94.546
X181.951Y-56.446
X181.951Y-75.496
X183.221Y-34.856
X183.221Y-92.006
X183.221Y-53.906
X183.221Y-72.956
X188.301Y-34.856
X188.301Y-92.006
X188.301Y-53.906
X188.301Y-72.956
X189.571Y-37.396
X189.571Y-94.546
X189.571Y-56.446
X189.571Y-75.496
X192.565Y-127.344
X192.586Y-124.504
X197.091Y-129.65
X199.376Y-127.963
X203.541Y-103.004
X205.826Y-101.317
X209.495Y-137.935
X210.179Y-135.179
X210.331Y-106.463
X210.352Y-103.624
X213.358Y-141.235
X215.973Y-140.128
X225.85Y-116.831
X228.465Y-115.724
X231.644Y-121.779
X232.328Y-119.023
T6
X87.25Y-43.128
X88.247Y-62.151
X89.244Y-81.175
X90.241Y-100.199
X91.286Y-120.27
X106.274Y-42.131
X107.271Y-61.154
X108.268Y-80.178
X109.265Y-99.202
X128.611Y-56.986
X128.611Y-37.936
X128.611Y-76.036
X128.611Y-95.086
X135.466Y-116.355
X147.661Y-35.436
X147.661Y-73.536
X147.661Y-54.486
X147.661Y-92.579
X156.272Y-114.16
X166.711Y-76.036
X166.711Y-95.086
X166.711Y-56.986
X166.711Y-37.936
X177.284Y-116.66
X185.761Y-39.936
X185.761Y-97.086
X185.761Y-58.986
X185.761Y-78.036
X197.134Y-123.971
X205.783Y-106.997
X214.725Y-135.722
X227.097Y-121.236
T7
X96.769Y-109.781
X97.209Y-51.14
X98.233Y-71.191
X99.23Y-90.215
X137.127Y-46.438
X138.764Y-64.015
X144.996Y-106.944
X167.766Y-107.024
X176.894Y-68.525
X177.267Y-48.438
X190.136Y-112.374
X210.642Y-122.796
T0
M30
